M48
; DRILL file KiCad 10.0.3 date 2026-08-26T08:52:45
; FORMAT={-:-/ absolute / metric / decimal}
; #@! TF.CreationDate,2026-08-26T08:52:45+02:00
; #@! TF.GenerationSoftware,Kicad,Pcbnew,10.0.3
; #@! TF.FileFunction,Plated,1,2,PTH
FMAT,2
METRIC
; #@! TA.AperFunction,Plated,PTH,ComponentDrill
T1C0.200
; #@! TA.AperFunction,Plated,PTH,ViaDrill
T2C0.300
; #@! TA.AperFunction,Plated,PTH,ComponentDrill
T3C0.300
; #@! TA.AperFunction,Plated,PTH,ViaDrill
T4C0.350
; #@! TA.AperFunction,Plated,PTH,ViaDrill
T5C0.500
; #@! TA.AperFunction,Plated,PTH,ComponentDrill
T6C0.800
; #@! TA.AperFunction,Plated,PTH,ComponentDrill
T7C1.000
; #@! TA.AperFunction,Plated,PTH,ComponentDrill
T8C1.100
; #@! TA.AperFunction,Plated,PTH,ComponentDrill
T9C1.370
; #@! TA.AperFunction,Plated,PTH,ComponentDrill
T10C1.400
; #@! TA.AperFunction,Plated,PTH,ComponentDrill
T11C3.300
%
G90
G05
T1
X77.2Y-128.545
X77.2Y-130.455
X78.5Y-128.545
X78.5Y-130.455
X79.8Y-128.545
X79.8Y-130.455
T2
X72.037Y-123.307
X72.719Y-115.566
X74.183Y-124.989
X74.508Y-126.56
X75.258Y-127.326
X76.245Y-94.432
X77.025Y-133.628
X78.587Y-134.329
X79.083Y-136.672
X79.591Y-86.513
X79.593Y-73.496
X81.016Y-95.0
X81.35Y-84.1
X81.871Y-120.0
X81.871Y-127.498
X82.185Y-82.595
X82.725Y-89.975
X83.16Y-78.337
X83.555Y-81.336
X83.555Y-87.343
X84.523Y-73.818
X84.976Y-76.597
X85.278Y-106.379
X85.322Y-90.692
X85.886Y-85.472
X86.493Y-86.987
X86.495Y-80.5
X89.361Y-64.906
X91.057Y-70.771
X91.573Y-81.072
X92.155Y-67.454
X92.235Y-77.238
X93.444Y-70.315
X94.214Y-88.715
X94.525Y-82.495
X95.137Y-91.552
X95.184Y-70.866
X96.127Y-64.108
X96.244Y-82.651
X96.419Y-84.67
X96.778Y-54.222
X96.859Y-81.303
X97.895Y-61.532
X99.264Y-79.746
X99.35Y-81.725
X99.896Y-70.813
X100.153Y-56.469
X100.471Y-54.587
X100.647Y-60.468
X100.836Y-88.528
X101.171Y-51.694
X102.493Y-59.231
X102.626Y-57.551
X103.198Y-60.247
X103.475Y-81.725
X103.489Y-61.775
X103.53Y-58.924
X104.231Y-80.475
X104.243Y-78.219
X104.663Y-47.354
X104.663Y-52.269
X104.684Y-53.505
X104.688Y-65.613
X107.944Y-80.5
X109.455Y-92.635
X111.284Y-85.45
X111.991Y-109.412
X112.762Y-82.477
X112.872Y-98.945
X114.52Y-66.12
X114.624Y-112.907
X114.641Y-91.364
X115.237Y-83.907
X115.645Y-82.408
X115.941Y-100.717
X116.072Y-91.95
X116.478Y-112.476
X116.494Y-118.681
X118.213Y-52.822
X118.267Y-54.86
X119.218Y-85.358
X119.236Y-87.459
X119.404Y-86.409
X119.484Y-105.527
X119.484Y-118.808
X119.817Y-79.892
X120.09Y-118.17
X120.72Y-124.657
X120.721Y-75.719
X120.721Y-91.2
X120.728Y-115.241
X120.834Y-116.723
X121.025Y-99.879
X121.244Y-94.176
X121.285Y-83.349
X121.369Y-51.757
X121.866Y-81.587
X121.925Y-70.247
X121.993Y-60.645
X122.112Y-69.28
X122.19Y-115.583
X122.727Y-93.208
X122.849Y-71.57
X123.007Y-60.924
X123.353Y-64.614
X123.601Y-71.523
X123.699Y-120.837
X123.908Y-116.827
X124.524Y-84.14
X124.711Y-67.98
X124.876Y-83.265
X124.956Y-47.131
X125.0Y-120.439
X125.13Y-78.11
X125.332Y-125.928
X125.427Y-61.702
X125.517Y-50.791
X125.551Y-55.074
X125.695Y-86.89
X125.949Y-60.315
X126.45Y-124.151
X126.657Y-121.103
X126.75Y-107.848
X127.209Y-122.137
X127.262Y-126.362
X127.567Y-127.535
X127.837Y-119.7
X127.96Y-93.885
X128.012Y-126.917
X128.102Y-89.574
X128.113Y-120.541
X128.143Y-46.423
X128.694Y-51.769
X129.005Y-40.627
X129.03Y-38.768
X129.297Y-111.244
X129.559Y-115.565
X129.564Y-98.812
X129.625Y-45.825
X129.637Y-37.917
X129.832Y-124.684
X129.952Y-113.203
X130.115Y-83.883
X130.185Y-99.992
X130.314Y-70.002
X130.335Y-53.68
X130.4Y-39.155
X130.491Y-125.089
X130.86Y-51.769
X131.005Y-42.187
X131.135Y-76.948
X131.394Y-79.397
X131.56Y-47.765
X131.746Y-57.517
X131.824Y-122.24
X132.164Y-114.462
X133.339Y-49.154
X133.505Y-109.555
X133.891Y-77.496
X133.902Y-55.647
X134.066Y-139.572
X134.221Y-81.412
X134.547Y-47.088
X134.602Y-74.208
X134.733Y-138.098
X135.574Y-107.549
X136.416Y-110.634
X136.62Y-106.639
X136.972Y-139.861
X137.257Y-74.971
X137.545Y-46.034
X137.7Y-102.328
X138.298Y-45.95
X138.353Y-93.233
X138.629Y-107.549
X138.769Y-78.653
X140.175Y-120.97
X140.175Y-129.203
X140.519Y-113.892
X141.302Y-95.005
X141.384Y-84.538
X142.22Y-79.324
X142.564Y-104.627
X142.703Y-130.063
X142.722Y-69.494
X142.772Y-74.858
X143.355Y-74.304
X143.561Y-54.275
X143.834Y-53.115
X144.226Y-74.734
X144.387Y-54.751
X145.083Y-92.681
X145.321Y-110.589
X145.374Y-125.502
X145.624Y-119.826
X147.628Y-76.829
X147.71Y-80.731
X147.866Y-94.999
X148.156Y-100.614
X148.306Y-138.788
X148.607Y-120.15
X148.658Y-58.827
X148.874Y-139.512
X148.998Y-82.292
X149.136Y-86.97
X149.332Y-110.013
X149.714Y-126.877
X150.16Y-54.724
X150.24Y-74.182
X150.484Y-52.733
X150.705Y-74.81
X151.405Y-117.485
X151.514Y-82.317
X151.571Y-78.836
X151.849Y-108.998
X151.858Y-112.945
X151.871Y-106.016
X152.019Y-131.13
X152.054Y-127.471
X152.42Y-124.6
X152.471Y-79.396
X152.769Y-82.332
X153.119Y-130.453
X153.13Y-131.571
X153.135Y-94.496
X153.828Y-120.626
X154.162Y-88.475
X154.221Y-81.425
X154.45Y-100.809
X154.5Y-141.45
X154.804Y-93.342
X154.823Y-71.515
X154.823Y-79.24
X155.062Y-118.85
X155.109Y-82.908
X155.221Y-110.597
X155.438Y-88.102
X155.485Y-105.325
X155.865Y-83.028
X155.908Y-85.941
X156.064Y-92.561
X156.088Y-133.068
X156.265Y-135.533
X156.266Y-121.448
X156.905Y-86.767
X157.038Y-90.148
X157.045Y-120.8
X157.073Y-127.275
X157.089Y-104.69
X157.241Y-99.668
X157.76Y-112.055
X157.812Y-115.868
X157.814Y-100.571
X157.948Y-124.41
X157.999Y-128.669
X158.036Y-114.215
X158.246Y-96.587
X158.58Y-92.968
X158.619Y-90.347
X158.903Y-83.028
X158.919Y-110.957
X159.05Y-124.962
X159.108Y-85.39
X159.147Y-127.705
X159.446Y-88.679
X160.323Y-78.716
X160.403Y-140.758
X160.475Y-104.055
X160.516Y-93.296
X160.663Y-119.027
X160.982Y-77.89
X160.982Y-86.294
X161.077Y-112.041
X161.126Y-88.679
X162.0Y-52.0
X162.133Y-114.982
X163.049Y-120.843
X163.107Y-118.019
X163.541Y-49.959
X164.0Y-84.0
X164.048Y-120.839
X164.246Y-106.754
X164.299Y-95.568
X164.327Y-116.088
X164.433Y-137.369
X165.063Y-107.573
X165.214Y-128.251
X165.508Y-124.608
X166.0Y-48.0
X166.23Y-58.0
X166.235Y-131.346
X166.361Y-117.162
X166.629Y-56.878
X167.006Y-62.764
X167.221Y-78.42
X167.289Y-95.769
X167.367Y-117.091
X167.586Y-123.447
X167.638Y-127.587
X167.857Y-78.98
X167.937Y-105.045
X168.824Y-95.769
X168.827Y-112.849
X169.861Y-113.04
X169.909Y-52.254
X170.338Y-115.511
X170.617Y-119.287
X170.825Y-131.517
X170.988Y-121.976
X170.999Y-132.846
X171.403Y-141.514
X171.442Y-87.212
X171.585Y-85.328
X171.768Y-56.93
X171.925Y-119.229
X172.005Y-61.746
X172.007Y-65.061
X172.238Y-118.451
X172.482Y-55.053
X172.514Y-95.158
X172.766Y-98.241
X172.773Y-123.569
X172.844Y-51.134
X172.885Y-48.762
X172.96Y-83.063
X173.246Y-100.817
X173.263Y-135.12
X173.502Y-88.452
X173.744Y-129.537
X174.712Y-82.464
X175.858Y-53.954
X176.407Y-95.626
X176.412Y-53.087
X176.475Y-99.1
X177.28Y-114.876
X178.031Y-97.436
X180.067Y-121.541
X180.237Y-88.237
X180.237Y-96.199
X181.094Y-116.011
X181.332Y-114.499
X181.986Y-96.64
X182.972Y-68.643
X183.382Y-112.085
X183.6Y-89.725
X183.6Y-99.1
X183.658Y-121.924
X184.955Y-55.356
X185.447Y-69.359
X186.05Y-120.807
X186.116Y-60.888
X186.514Y-120.196
X187.563Y-138.315
X188.182Y-134.382
X188.506Y-58.739
X188.777Y-132.576
X189.836Y-99.95
X190.2Y-98.115
X190.475Y-118.6
X190.655Y-137.394
X190.765Y-95.981
X190.881Y-97.436
X191.23Y-92.939
X192.433Y-134.5
X192.445Y-91.2
X192.445Y-95.487
X192.637Y-90.013
X193.1Y-38.475
X193.148Y-86.308
X194.725Y-39.35
X194.725Y-91.225
X195.105Y-96.532
X195.35Y-92.225
X196.087Y-95.062
X196.187Y-82.44
X197.725Y-111.225
X198.449Y-121.091
X199.056Y-137.825
X199.725Y-95.35
X199.725Y-100.975
X199.82Y-85.653
X199.85Y-108.35
X200.1Y-47.225
X200.233Y-124.779
X200.651Y-85.653
X200.733Y-112.04
X201.136Y-119.555
X201.35Y-80.1
X201.35Y-100.975
X201.504Y-85.678
X202.091Y-76.929
X202.725Y-49.475
X202.775Y-53.699
X204.6Y-96.6
X205.092Y-127.458
X206.406Y-113.613
X206.6Y-96.725
X209.6Y-111.35
T3
X121.875Y-39.85
X121.875Y-41.45
X121.875Y-43.05
X121.875Y-44.65
X124.125Y-39.85
X124.125Y-41.45
X124.125Y-43.05
X124.125Y-44.65
T4
X78.45Y-96.567
X78.941Y-84.329
X80.53Y-71.058
X81.122Y-91.227
X82.105Y-132.05
X82.361Y-119.291
X88.303Y-140.528
X94.65Y-138.406
X104.901Y-81.45
X106.992Y-66.358
X108.031Y-76.348
X109.101Y-82.522
X110.255Y-80.221
X110.665Y-102.431
X110.881Y-46.475
X111.117Y-77.631
X111.117Y-80.992
X111.462Y-134.143
X112.079Y-113.412
X113.4Y-105.206
X114.849Y-37.988
X115.357Y-50.924
X117.12Y-88.09
X117.245Y-40.758
X117.735Y-69.926
X118.022Y-37.078
X118.875Y-42.9
X118.886Y-44.258
X120.107Y-123.102
X121.795Y-130.272
X123.805Y-121.844
X125.317Y-34.75
X125.662Y-74.047
X127.121Y-44.511
X127.143Y-41.925
X127.459Y-39.854
X130.62Y-36.523
X131.086Y-60.497
X136.165Y-112.0
X137.976Y-111.468
X145.092Y-81.724
X148.534Y-89.857
X149.404Y-116.112
X149.742Y-106.415
X150.237Y-63.84
X150.935Y-112.015
X152.959Y-84.983
X155.129Y-95.933
X159.991Y-39.854
X160.285Y-95.774
X160.949Y-49.069
X162.219Y-98.5
X163.766Y-49.069
X165.736Y-113.95
X168.32Y-107.047
X168.725Y-57.828
X172.226Y-86.037
X172.226Y-89.5
X172.439Y-54.073
X173.424Y-51.917
X173.768Y-80.45
X173.786Y-34.3
X184.378Y-115.674
X185.102Y-40.359
X187.471Y-129.058
X190.049Y-66.031
X193.756Y-91.84
X195.96Y-105.135
X197.491Y-83.06
X201.041Y-66.027
X202.275Y-92.475
X203.054Y-85.716
T5
X69.257Y-91.91
X71.274Y-93.919
X74.001Y-113.151
X77.526Y-90.412
X77.526Y-101.158
X92.646Y-94.05
X94.113Y-100.0
X95.453Y-139.548
X104.827Y-140.0
X105.718Y-112.735
X106.405Y-105.22
X106.805Y-45.175
X107.034Y-107.584
X108.364Y-47.13
X110.994Y-53.902
X114.447Y-45.434
X115.133Y-54.083
X115.754Y-38.675
X116.678Y-127.305
X123.786Y-48.314
X126.24Y-126.473
X127.263Y-48.064
X127.768Y-63.713
X129.597Y-137.361
X156.39Y-102.161
X157.835Y-89.504
X159.572Y-99.45
X159.856Y-117.549
X162.5Y-75.5
X163.525Y-130.678
X164.484Y-97.276
X166.281Y-79.794
X167.732Y-50.431
X169.023Y-51.723
X169.79Y-48.374
X169.792Y-118.527
X170.214Y-64.36
X170.469Y-70.882
X170.524Y-76.633
X171.092Y-49.654
X174.697Y-70.882
X174.709Y-57.179
X175.28Y-111.191
X176.296Y-138.796
X177.0Y-126.96
X177.267Y-125.237
X178.093Y-106.856
X178.662Y-52.822
X179.486Y-80.628
X181.051Y-94.733
X181.182Y-56.295
X181.194Y-71.582
X182.17Y-52.162
X182.903Y-57.435
X183.203Y-53.304
X184.554Y-112.56
X185.217Y-125.333
X186.249Y-58.54
X187.538Y-56.881
X189.045Y-70.455
X189.578Y-128.143
X189.75Y-53.304
X193.393Y-128.868
X193.668Y-82.826
X196.798Y-121.091
X197.784Y-97.904
X198.24Y-69.907
X199.708Y-98.038
X199.962Y-69.484
X200.975Y-113.475
X201.475Y-45.85
X202.1Y-115.475
X203.226Y-91.319
X203.836Y-82.841
X204.972Y-52.001
X205.587Y-97.921
X205.918Y-91.246
X210.225Y-52.725
T6
X137.73Y-83.6
X140.182Y-95.84
X140.182Y-97.84
X140.27Y-83.6
X142.182Y-95.84
X142.182Y-97.84
X144.182Y-95.84
X144.182Y-97.84
T7
X127.0Y-80.19
X127.0Y-82.73
X127.0Y-85.27
X127.0Y-87.81
T8
X131.38Y-82.87
X131.38Y-85.41
X131.38Y-87.95
X131.38Y-90.49
X131.38Y-93.03
X131.38Y-95.57
X131.38Y-98.11
X131.38Y-100.65
X131.38Y-103.19
X131.38Y-105.73
X131.38Y-108.27
X131.38Y-110.81
X131.38Y-113.35
X131.38Y-115.89
X131.38Y-118.43
X131.38Y-120.97
X131.38Y-123.51
X131.38Y-126.05
X131.38Y-128.59
X131.38Y-131.13
X131.38Y-133.67
X131.38Y-136.21
X131.38Y-138.75
X131.38Y-141.29
X133.92Y-128.59
X134.431Y-89.169
X134.431Y-91.709
X134.431Y-94.249
X134.431Y-96.789
X134.431Y-99.329
X136.46Y-128.59
X139.0Y-128.59
X141.54Y-128.59
X144.08Y-85.41
X144.08Y-128.59
X146.62Y-82.87
X146.62Y-85.41
X146.62Y-87.95
X146.62Y-90.49
X146.62Y-93.03
X146.62Y-95.57
X146.62Y-98.11
X146.62Y-100.65
X146.62Y-103.19
X146.62Y-105.73
X146.62Y-108.27
X146.62Y-110.81
X146.62Y-113.35
X146.62Y-115.89
X146.62Y-118.43
X146.62Y-120.97
X146.62Y-123.51
X146.62Y-126.05
X146.62Y-128.59
X146.62Y-131.13
X146.62Y-133.67
X146.62Y-136.21
X146.62Y-138.75
X146.62Y-141.29
T9
X191.0Y-55.065
X191.0Y-57.6
X191.0Y-60.135
X196.1Y-55.065
X196.1Y-57.6
X196.1Y-60.135
X201.2Y-55.065
X201.2Y-57.6
X201.2Y-60.135
X206.3Y-55.065
X206.3Y-57.6
X206.3Y-60.135
T10
X142.25Y-42.5
X142.25Y-50.5
X143.75Y-45.0
X143.75Y-48.0
X145.25Y-42.5
X145.25Y-50.5
X146.75Y-45.0
X146.75Y-48.0
X148.25Y-42.5
X148.25Y-50.5
X149.75Y-45.0
X149.75Y-48.0
X151.25Y-42.5
X151.25Y-50.5
X152.75Y-45.0
X152.75Y-48.0
X154.25Y-42.5
X154.25Y-50.5
X155.75Y-45.0
X155.75Y-48.0
X157.25Y-42.5
X157.25Y-50.5
X158.5Y-45.0
X158.5Y-48.0
X160.25Y-42.5
X160.25Y-50.5
X174.75Y-42.5
X174.75Y-50.5
X176.25Y-45.0
X176.25Y-48.0
X177.75Y-42.5
X177.75Y-50.5
X179.25Y-45.0
X179.25Y-48.0
X180.75Y-42.5
X180.75Y-50.5
X182.25Y-45.0
X182.25Y-48.0
X183.75Y-42.5
X183.75Y-50.5
X185.25Y-45.0
X185.25Y-48.0
X186.75Y-42.5
X186.75Y-50.5
X188.25Y-45.0
X188.25Y-48.0
X189.75Y-42.5
X189.75Y-50.5
X191.25Y-45.0
X191.25Y-48.0
X192.75Y-42.5
X192.75Y-50.5
X194.25Y-45.0
X194.25Y-48.0
X195.75Y-42.5
X195.75Y-50.5
X197.25Y-45.0
X197.25Y-48.0
X198.75Y-42.5
X198.75Y-50.5
T11
X134.0Y-36.5
X167.5Y-36.5
X206.0Y-36.5
M30
