%TF.GenerationSoftware,KiCad,Pcbnew,10.0.3*%
%TF.CreationDate,2026-08-26T08:52:58+02:00*%
%TF.ProjectId,ECU,4543552e-6b69-4636-9164-5f7063625858,0.3*%
%TF.SameCoordinates,Original*%
%TF.FileFunction,Other,User*%
%FSLAX46Y46*%
G04 Gerber Fmt 4.6, Leading zero omitted, Abs format (unit mm)*
G04 Created by KiCad (PCBNEW 10.0.3) date 2026-08-26 08:52:58*
%MOMM*%
%LPD*%
G01*
G04 APERTURE LIST*
%ADD10C,0.050000*%
%TA.AperFunction,Profile*%
%ADD11C,0.050000*%
%TD*%
G04 APERTURE END LIST*
%TO.C,D24*%
D10*
X93800000Y-73600000D02*
X94950000Y-73600000D01*
X93800000Y-75400000D02*
X93800000Y-73600000D01*
X94000000Y-75400000D02*
X93800000Y-75400000D01*
X94000000Y-76430000D02*
X94000000Y-75400000D01*
X94950000Y-72570000D02*
X96050000Y-72570000D01*
X94950000Y-73600000D02*
X94950000Y-72570000D01*
X95110000Y-75400000D02*
X95110000Y-76430000D01*
X95110000Y-76430000D02*
X94000000Y-76430000D01*
X95890000Y-75400000D02*
X95110000Y-75400000D01*
X95890000Y-76430000D02*
X95890000Y-75400000D01*
X96050000Y-72570000D02*
X96050000Y-73600000D01*
X96050000Y-73600000D02*
X97200000Y-73600000D01*
X97000000Y-75400000D02*
X97000000Y-76430000D01*
X97000000Y-76430000D02*
X95890000Y-76430000D01*
X97200000Y-73600000D02*
X97200000Y-75400000D01*
X97200000Y-75400000D02*
X97000000Y-75400000D01*
%TO.C,IC3*%
X178750000Y-110900000D02*
X187250000Y-110900000D01*
X178750000Y-118100000D02*
X178750000Y-110900000D01*
X187250000Y-110900000D02*
X187250000Y-118100000D01*
X187250000Y-118100000D02*
X178750000Y-118100000D01*
%TO.C,R120*%
X78820000Y-71050000D02*
X82180000Y-71050000D01*
X82180000Y-72950000D01*
X78820000Y-72950000D01*
X78820000Y-71050000D01*
%TO.C,U17*%
X87400000Y-131100000D02*
X87400000Y-139900000D01*
X87400000Y-139900000D02*
X94600000Y-139900000D01*
X94600000Y-131100000D02*
X87400000Y-131100000D01*
X94600000Y-139900000D02*
X94600000Y-131100000D01*
%TO.C,R127*%
X161820000Y-121050000D02*
X165180000Y-121050000D01*
X165180000Y-122950000D01*
X161820000Y-122950000D01*
X161820000Y-121050000D01*
%TO.C,C48*%
X115620000Y-33100000D02*
X117580000Y-33100000D01*
X117580000Y-36500000D01*
X115620000Y-36500000D01*
X115620000Y-33100000D01*
%TO.C,R52*%
X183550000Y-63407500D02*
X185450000Y-63407500D01*
X185450000Y-66767500D01*
X183550000Y-66767500D01*
X183550000Y-63407500D01*
%TO.C,C10*%
X126300000Y-69020000D02*
X129700000Y-69020000D01*
X129700000Y-70980000D01*
X126300000Y-70980000D01*
X126300000Y-69020000D01*
%TO.C,D27*%
X121800000Y-93600000D02*
X122950000Y-93600000D01*
X121800000Y-95400000D02*
X121800000Y-93600000D01*
X122000000Y-95400000D02*
X121800000Y-95400000D01*
X122000000Y-96430000D02*
X122000000Y-95400000D01*
X122950000Y-92570000D02*
X124050000Y-92570000D01*
X122950000Y-93600000D02*
X122950000Y-92570000D01*
X123110000Y-95400000D02*
X123110000Y-96430000D01*
X123110000Y-96430000D02*
X122000000Y-96430000D01*
X123890000Y-95400000D02*
X123110000Y-95400000D01*
X123890000Y-96430000D02*
X123890000Y-95400000D01*
X124050000Y-92570000D02*
X124050000Y-93600000D01*
X124050000Y-93600000D02*
X125200000Y-93600000D01*
X125000000Y-95400000D02*
X125000000Y-96430000D01*
X125000000Y-96430000D02*
X123890000Y-96430000D01*
X125200000Y-93600000D02*
X125200000Y-95400000D01*
X125200000Y-95400000D02*
X125000000Y-95400000D01*
%TO.C,R23*%
X120720000Y-63370000D02*
X125280000Y-63370000D01*
X125280000Y-65630000D01*
X120720000Y-65630000D01*
X120720000Y-63370000D01*
%TO.C,IC7*%
X152070000Y-102230000D02*
X154000000Y-102230000D01*
X152070000Y-114770000D02*
X152070000Y-102230000D01*
X154000000Y-101850000D02*
X162000000Y-101850000D01*
X154000000Y-102230000D02*
X154000000Y-101850000D01*
X154000000Y-114770000D02*
X152070000Y-114770000D01*
X154000000Y-115150000D02*
X154000000Y-114770000D01*
X162000000Y-101850000D02*
X162000000Y-102230000D01*
X162000000Y-102230000D02*
X163930000Y-102230000D01*
X162000000Y-114770000D02*
X162000000Y-115150000D01*
X162000000Y-115150000D02*
X154000000Y-115150000D01*
X163930000Y-102230000D02*
X163930000Y-114770000D01*
X163930000Y-114770000D02*
X162000000Y-114770000D01*
%TO.C,R87*%
X126550000Y-110320000D02*
X128450000Y-110320000D01*
X128450000Y-113680000D01*
X126550000Y-113680000D01*
X126550000Y-110320000D01*
%TO.C,R33*%
X183320000Y-53550000D02*
X186680000Y-53550000D01*
X186680000Y-55450000D01*
X183320000Y-55450000D01*
X183320000Y-53550000D01*
%TO.C,D35*%
X175500000Y-128750000D02*
X182500000Y-128750000D01*
X175500000Y-132250000D02*
X175500000Y-128750000D01*
X182500000Y-128750000D02*
X182500000Y-132250000D01*
X182500000Y-132250000D02*
X175500000Y-132250000D01*
%TO.C,R5*%
X149418600Y-93933500D02*
X152778600Y-93933500D01*
X152778600Y-95833500D01*
X149418600Y-95833500D01*
X149418600Y-93933500D01*
%TO.C,C24*%
X100020000Y-68800000D02*
X101980000Y-68800000D01*
X101980000Y-72200000D01*
X100020000Y-72200000D01*
X100020000Y-68800000D01*
%TO.C,R54*%
X203032500Y-64150000D02*
X206392500Y-64150000D01*
X206392500Y-66050000D01*
X203032500Y-66050000D01*
X203032500Y-64150000D01*
%TO.C,R29*%
X197520000Y-64150000D02*
X200880000Y-64150000D01*
X200880000Y-66050000D01*
X197520000Y-66050000D01*
X197520000Y-64150000D01*
%TO.C,R35*%
X180234400Y-82605600D02*
X183594400Y-82605600D01*
X183594400Y-84505600D01*
X180234400Y-84505600D01*
X180234400Y-82605600D01*
%TO.C,R103*%
X208050000Y-119820000D02*
X209950000Y-119820000D01*
X209950000Y-123180000D01*
X208050000Y-123180000D01*
X208050000Y-119820000D01*
%TO.C,R90*%
X111320000Y-95550000D02*
X114680000Y-95550000D01*
X114680000Y-97450000D01*
X111320000Y-97450000D01*
X111320000Y-95550000D01*
%TO.C,C81*%
X161800000Y-138020000D02*
X165200000Y-138020000D01*
X165200000Y-139980000D01*
X161800000Y-139980000D01*
X161800000Y-138020000D01*
%TO.C,R20*%
X118266200Y-73606500D02*
X121626200Y-73606500D01*
X121626200Y-75506500D01*
X118266200Y-75506500D01*
X118266200Y-73606500D01*
%TO.C,C17*%
X184300000Y-84020000D02*
X187700000Y-84020000D01*
X187700000Y-85980000D01*
X184300000Y-85980000D01*
X184300000Y-84020000D01*
%TO.C,IC6*%
X151650000Y-117100000D02*
X153050000Y-117100000D01*
X151650000Y-121900000D02*
X151650000Y-117100000D01*
X153050000Y-116750000D02*
X157950000Y-116750000D01*
X153050000Y-117100000D02*
X153050000Y-116750000D01*
X153050000Y-121900000D02*
X151650000Y-121900000D01*
X153050000Y-122250000D02*
X153050000Y-121900000D01*
X157950000Y-116750000D02*
X157950000Y-117100000D01*
X157950000Y-117100000D02*
X159350000Y-117100000D01*
X157950000Y-121900000D02*
X157950000Y-122250000D01*
X157950000Y-122250000D02*
X153050000Y-122250000D01*
X159350000Y-117100000D02*
X159350000Y-121900000D01*
X159350000Y-121900000D02*
X157950000Y-121900000D01*
%TO.C,C64*%
X110700000Y-134400000D02*
X115300000Y-134400000D01*
X115300000Y-137600000D01*
X110700000Y-137600000D01*
X110700000Y-134400000D01*
%TO.C,R76*%
X120820000Y-85550000D02*
X124180000Y-85550000D01*
X124180000Y-87450000D01*
X120820000Y-87450000D01*
X120820000Y-85550000D01*
%TO.C,R77*%
X115820000Y-85550000D02*
X119180000Y-85550000D01*
X119180000Y-87450000D01*
X115820000Y-87450000D01*
X115820000Y-85550000D01*
%TO.C,R42*%
X205370000Y-82220000D02*
X207630000Y-82220000D01*
X207630000Y-86780000D01*
X205370000Y-86780000D01*
X205370000Y-82220000D01*
%TO.C,C77*%
X148800000Y-91520000D02*
X152200000Y-91520000D01*
X152200000Y-93480000D01*
X148800000Y-93480000D01*
X148800000Y-91520000D01*
%TO.C,R36*%
X202720000Y-66870000D02*
X207280000Y-66870000D01*
X207280000Y-69130000D01*
X202720000Y-69130000D01*
X202720000Y-66870000D01*
%TO.C,R118*%
X77820000Y-134550000D02*
X81180000Y-134550000D01*
X81180000Y-136450000D01*
X77820000Y-136450000D01*
X77820000Y-134550000D01*
%TO.C,U11*%
X116774500Y-102249400D02*
X118274500Y-102249400D01*
X116774500Y-110969400D02*
X116774500Y-102249400D01*
X118274500Y-102029400D02*
X122674500Y-102029400D01*
X118274500Y-102249400D02*
X118274500Y-102029400D01*
X118274500Y-110969400D02*
X116774500Y-110969400D01*
X118274500Y-111189400D02*
X118274500Y-110969400D01*
X122674500Y-102029400D02*
X122674500Y-102249400D01*
X122674500Y-102249400D02*
X124174500Y-102249400D01*
X122674500Y-110969400D02*
X122674500Y-111189400D01*
X122674500Y-111189400D02*
X118274500Y-111189400D01*
X124174500Y-102249400D02*
X124174500Y-110969400D01*
X124174500Y-110969400D02*
X122674500Y-110969400D01*
%TO.C,R64*%
X95050000Y-64320000D02*
X96950000Y-64320000D01*
X96950000Y-67680000D01*
X95050000Y-67680000D01*
X95050000Y-64320000D01*
%TO.C,C53*%
X109200000Y-129900000D02*
X113800000Y-129900000D01*
X113800000Y-133100000D01*
X109200000Y-133100000D01*
X109200000Y-129900000D01*
%TO.C,C29*%
X86800000Y-79520000D02*
X90200000Y-79520000D01*
X90200000Y-81480000D01*
X86800000Y-81480000D01*
X86800000Y-79520000D01*
%TO.C,R45*%
X184220000Y-87370000D02*
X188780000Y-87370000D01*
X188780000Y-89630000D01*
X184220000Y-89630000D01*
X184220000Y-87370000D01*
%TO.C,C67*%
X122800000Y-134520000D02*
X126200000Y-134520000D01*
X126200000Y-136480000D01*
X122800000Y-136480000D01*
X122800000Y-134520000D01*
%TO.C,U18*%
X160900000Y-117270000D02*
X161070000Y-117270000D01*
X160900000Y-118730000D02*
X160900000Y-117270000D01*
X161070000Y-116550000D02*
X161630000Y-116550000D01*
X161070000Y-117270000D02*
X161070000Y-116550000D01*
X161070000Y-118730000D02*
X160900000Y-118730000D01*
X161070000Y-119450000D02*
X161070000Y-118730000D01*
X161630000Y-116550000D02*
X161630000Y-117270000D01*
X161630000Y-117270000D02*
X162370000Y-117270000D01*
X162370000Y-116550000D02*
X162930000Y-116550000D01*
X162370000Y-117270000D02*
X162370000Y-116550000D01*
X162930000Y-116550000D02*
X162930000Y-117270000D01*
X162930000Y-117270000D02*
X163100000Y-117270000D01*
X162930000Y-118730000D02*
X162930000Y-119450000D01*
X162930000Y-119450000D02*
X161070000Y-119450000D01*
X163100000Y-117270000D02*
X163100000Y-118730000D01*
X163100000Y-118730000D02*
X162930000Y-118730000D01*
%TO.C,R95*%
X167820000Y-116050000D02*
X171180000Y-116050000D01*
X171180000Y-117950000D01*
X167820000Y-117950000D01*
X167820000Y-116050000D01*
%TO.C,J1*%
X125230000Y-78420000D02*
X128770000Y-78420000D01*
X128770000Y-89580000D01*
X125230000Y-89580000D01*
X125230000Y-78420000D01*
%TO.C,H3*%
X73425000Y-36975000D02*
G75*
G02*
X66525000Y-36975000I-3450000J0D01*
G01*
X66525000Y-36975000D02*
G75*
G02*
X73425000Y-36975000I3450000J0D01*
G01*
%TO.C,U14*%
X169500000Y-103290000D02*
X176500000Y-103290000D01*
X176500000Y-114390000D01*
X169500000Y-114390000D01*
X169500000Y-103290000D01*
%TO.C,C31*%
X82020000Y-87800000D02*
X83980000Y-87800000D01*
X83980000Y-91200000D01*
X82020000Y-91200000D01*
X82020000Y-87800000D01*
%TO.C,R106*%
X118250000Y-33120000D02*
X120150000Y-33120000D01*
X120150000Y-36480000D01*
X118250000Y-36480000D01*
X118250000Y-33120000D01*
%TO.C,C21*%
X78800000Y-79520000D02*
X82200000Y-79520000D01*
X82200000Y-81480000D01*
X78800000Y-81480000D01*
X78800000Y-79520000D01*
%TO.C,C58*%
X117300000Y-137020000D02*
X120700000Y-137020000D01*
X120700000Y-138980000D01*
X117300000Y-138980000D01*
X117300000Y-137020000D01*
%TO.C,C80*%
X156300000Y-132020000D02*
X159700000Y-132020000D01*
X159700000Y-133980000D01*
X156300000Y-133980000D01*
X156300000Y-132020000D01*
%TO.C,D3*%
X167800000Y-60100000D02*
X168950000Y-60100000D01*
X167800000Y-61900000D02*
X167800000Y-60100000D01*
X168000000Y-61900000D02*
X167800000Y-61900000D01*
X168000000Y-62930000D02*
X168000000Y-61900000D01*
X168950000Y-59070000D02*
X170050000Y-59070000D01*
X168950000Y-60100000D02*
X168950000Y-59070000D01*
X169110000Y-61900000D02*
X169110000Y-62930000D01*
X169110000Y-62930000D02*
X168000000Y-62930000D01*
X169890000Y-61900000D02*
X169110000Y-61900000D01*
X169890000Y-62930000D02*
X169890000Y-61900000D01*
X170050000Y-59070000D02*
X170050000Y-60100000D01*
X170050000Y-60100000D02*
X171200000Y-60100000D01*
X171000000Y-61900000D02*
X171000000Y-62930000D01*
X171000000Y-62930000D02*
X169890000Y-62930000D01*
X171200000Y-60100000D02*
X171200000Y-61900000D01*
X171200000Y-61900000D02*
X171000000Y-61900000D01*
%TO.C,R34*%
X208550000Y-60820000D02*
X210450000Y-60820000D01*
X210450000Y-64180000D01*
X208550000Y-64180000D01*
X208550000Y-60820000D01*
%TO.C,C72*%
X116700000Y-132400000D02*
X121300000Y-132400000D01*
X121300000Y-135600000D01*
X116700000Y-135600000D01*
X116700000Y-132400000D01*
%TO.C,D25*%
X91570000Y-78000000D02*
X92600000Y-78000000D01*
X91570000Y-79110000D02*
X91570000Y-78000000D01*
X91570000Y-79890000D02*
X92600000Y-79890000D01*
X91570000Y-81000000D02*
X91570000Y-79890000D01*
X92600000Y-77800000D02*
X94400000Y-77800000D01*
X92600000Y-78000000D02*
X92600000Y-77800000D01*
X92600000Y-79110000D02*
X91570000Y-79110000D01*
X92600000Y-79890000D02*
X92600000Y-79110000D01*
X92600000Y-81000000D02*
X91570000Y-81000000D01*
X92600000Y-81200000D02*
X92600000Y-81000000D01*
X94400000Y-77800000D02*
X94400000Y-78950000D01*
X94400000Y-78950000D02*
X95430000Y-78950000D01*
X94400000Y-80050000D02*
X94400000Y-81200000D01*
X94400000Y-81200000D02*
X92600000Y-81200000D01*
X95430000Y-78950000D02*
X95430000Y-80050000D01*
X95430000Y-80050000D02*
X94400000Y-80050000D01*
%TO.C,C46*%
X189750000Y-105000000D02*
X189750000Y-108000000D01*
X189750000Y-108000000D02*
X190600000Y-108000000D01*
X190600000Y-103250000D02*
X190600000Y-105000000D01*
X190600000Y-103250000D02*
X191750000Y-102100000D01*
X190600000Y-105000000D02*
X189750000Y-105000000D01*
X190600000Y-108000000D02*
X190600000Y-109750000D01*
X190600000Y-109750000D02*
X191750000Y-110900000D01*
X191750000Y-102100000D02*
X199400000Y-102100000D01*
X191750000Y-110900000D02*
X199400000Y-110900000D01*
X199400000Y-102100000D02*
X199400000Y-105000000D01*
X199400000Y-105000000D02*
X200250000Y-105000000D01*
X199400000Y-108000000D02*
X199400000Y-110900000D01*
X200250000Y-105000000D02*
X200250000Y-108000000D01*
X200250000Y-108000000D02*
X199400000Y-108000000D01*
%TO.C,C1*%
X166020000Y-111300000D02*
X167980000Y-111300000D01*
X167980000Y-114700000D01*
X166020000Y-114700000D01*
X166020000Y-111300000D01*
%TO.C,R59*%
X92550000Y-52820000D02*
X94450000Y-52820000D01*
X94450000Y-56180000D01*
X92550000Y-56180000D01*
X92550000Y-52820000D01*
%TO.C,U4*%
X123900000Y-119270000D02*
X124070000Y-119270000D01*
X123900000Y-120730000D02*
X123900000Y-119270000D01*
X124070000Y-118550000D02*
X125930000Y-118550000D01*
X124070000Y-119270000D02*
X124070000Y-118550000D01*
X124070000Y-120730000D02*
X123900000Y-120730000D01*
X124070000Y-121450000D02*
X124070000Y-120730000D01*
X124630000Y-120730000D02*
X124630000Y-121450000D01*
X124630000Y-121450000D02*
X124070000Y-121450000D01*
X125370000Y-120730000D02*
X124630000Y-120730000D01*
X125370000Y-121450000D02*
X125370000Y-120730000D01*
X125930000Y-118550000D02*
X125930000Y-119270000D01*
X125930000Y-119270000D02*
X126100000Y-119270000D01*
X125930000Y-120730000D02*
X125930000Y-121450000D01*
X125930000Y-121450000D02*
X125370000Y-121450000D01*
X126100000Y-119270000D02*
X126100000Y-120730000D01*
X126100000Y-120730000D02*
X125930000Y-120730000D01*
%TO.C,R117*%
X70820000Y-125550000D02*
X74180000Y-125550000D01*
X74180000Y-127450000D01*
X70820000Y-127450000D01*
X70820000Y-125550000D01*
%TO.C,R82*%
X111820000Y-92050000D02*
X115180000Y-92050000D01*
X115180000Y-93950000D01*
X111820000Y-93950000D01*
X111820000Y-92050000D01*
%TO.C,R25*%
X123870000Y-53220000D02*
X126130000Y-53220000D01*
X126130000Y-57780000D01*
X123870000Y-57780000D01*
X123870000Y-53220000D01*
%TO.C,C5*%
X159200000Y-62850000D02*
X163800000Y-62850000D01*
X163800000Y-65150000D01*
X159200000Y-65150000D01*
X159200000Y-62850000D01*
%TO.C,R44*%
X204220000Y-77870000D02*
X208780000Y-77870000D01*
X208780000Y-80130000D01*
X204220000Y-80130000D01*
X204220000Y-77870000D01*
%TO.C,R79*%
X119050000Y-80820000D02*
X120950000Y-80820000D01*
X120950000Y-84180000D01*
X119050000Y-84180000D01*
X119050000Y-80820000D01*
%TO.C,C44*%
X201800000Y-99020000D02*
X205200000Y-99020000D01*
X205200000Y-100980000D01*
X201800000Y-100980000D01*
X201800000Y-99020000D01*
%TO.C,D9*%
X179650000Y-59990800D02*
X181550000Y-59990800D01*
X181550000Y-63350800D01*
X179650000Y-63350800D01*
X179650000Y-59990800D01*
%TO.C,R11*%
X136963800Y-55300000D02*
X140323800Y-55300000D01*
X140323800Y-57200000D01*
X136963800Y-57200000D01*
X136963800Y-55300000D01*
%TO.C,D46*%
X161070000Y-128000000D02*
X162100000Y-128000000D01*
X161070000Y-129110000D02*
X161070000Y-128000000D01*
X161070000Y-129890000D02*
X162100000Y-129890000D01*
X161070000Y-131000000D02*
X161070000Y-129890000D01*
X162100000Y-127800000D02*
X163900000Y-127800000D01*
X162100000Y-128000000D02*
X162100000Y-127800000D01*
X162100000Y-129110000D02*
X161070000Y-129110000D01*
X162100000Y-129890000D02*
X162100000Y-129110000D01*
X162100000Y-131000000D02*
X161070000Y-131000000D01*
X162100000Y-131200000D02*
X162100000Y-131000000D01*
X163900000Y-127800000D02*
X163900000Y-128950000D01*
X163900000Y-128950000D02*
X164930000Y-128950000D01*
X163900000Y-130050000D02*
X163900000Y-131200000D01*
X163900000Y-131200000D02*
X162100000Y-131200000D01*
X164930000Y-128950000D02*
X164930000Y-130050000D01*
X164930000Y-130050000D02*
X163900000Y-130050000D01*
%TO.C,R96*%
X168820000Y-119550000D02*
X172180000Y-119550000D01*
X172180000Y-121450000D01*
X168820000Y-121450000D01*
X168820000Y-119550000D01*
%TO.C,U9*%
X168205900Y-87294400D02*
X168925900Y-87294400D01*
X168205900Y-89154400D02*
X168205900Y-87294400D01*
X168925900Y-87124400D02*
X170385900Y-87124400D01*
X168925900Y-87294400D02*
X168925900Y-87124400D01*
X168925900Y-89154400D02*
X168205900Y-89154400D01*
X168925900Y-89324400D02*
X168925900Y-89154400D01*
X170385900Y-87124400D02*
X170385900Y-87294400D01*
X170385900Y-87294400D02*
X171105900Y-87294400D01*
X170385900Y-87854400D02*
X170385900Y-88594400D01*
X170385900Y-88594400D02*
X171105900Y-88594400D01*
X170385900Y-89154400D02*
X170385900Y-89324400D01*
X170385900Y-89324400D02*
X168925900Y-89324400D01*
X171105900Y-87294400D02*
X171105900Y-87854400D01*
X171105900Y-87854400D02*
X170385900Y-87854400D01*
X171105900Y-88594400D02*
X171105900Y-89154400D01*
X171105900Y-89154400D02*
X170385900Y-89154400D01*
%TO.C,C73*%
X115200000Y-123400000D02*
X119800000Y-123400000D01*
X119800000Y-126600000D01*
X115200000Y-126600000D01*
X115200000Y-123400000D01*
%TO.C,R107*%
X120850000Y-33120000D02*
X122750000Y-33120000D01*
X122750000Y-36480000D01*
X120850000Y-36480000D01*
X120850000Y-33120000D01*
%TO.C,TP2*%
X151750000Y-140000000D02*
G75*
G02*
X149250000Y-140000000I-1250000J0D01*
G01*
X149250000Y-140000000D02*
G75*
G02*
X151750000Y-140000000I1250000J0D01*
G01*
%TO.C,R55*%
X98820000Y-58550000D02*
X102180000Y-58550000D01*
X102180000Y-60450000D01*
X98820000Y-60450000D01*
X98820000Y-58550000D01*
%TO.C,R37*%
X190720000Y-67370000D02*
X195280000Y-67370000D01*
X195280000Y-69630000D01*
X190720000Y-69630000D01*
X190720000Y-67370000D01*
%TO.C,R85*%
X127050000Y-90320000D02*
X128950000Y-90320000D01*
X128950000Y-93680000D01*
X127050000Y-93680000D01*
X127050000Y-90320000D01*
%TO.C,R67*%
X88820000Y-71050000D02*
X92180000Y-71050000D01*
X92180000Y-72950000D01*
X88820000Y-72950000D01*
X88820000Y-71050000D01*
%TO.C,R57*%
X94550000Y-54320000D02*
X96450000Y-54320000D01*
X96450000Y-57680000D01*
X94550000Y-57680000D01*
X94550000Y-54320000D01*
%TO.C,C82*%
X153520000Y-138800000D02*
X155480000Y-138800000D01*
X155480000Y-142200000D01*
X153520000Y-142200000D01*
X153520000Y-138800000D01*
%TO.C,U15*%
X76450000Y-93500000D02*
X77450000Y-93500000D01*
X76450000Y-96500000D02*
X76450000Y-93500000D01*
X77450000Y-93300000D02*
X79550000Y-93300000D01*
X77450000Y-93500000D02*
X77450000Y-93300000D01*
X77450000Y-96500000D02*
X76450000Y-96500000D01*
X77450000Y-96700000D02*
X77450000Y-96500000D01*
X79550000Y-93300000D02*
X79550000Y-93500000D01*
X79550000Y-93500000D02*
X80550000Y-93500000D01*
X79550000Y-96500000D02*
X79550000Y-96700000D01*
X79550000Y-96700000D02*
X77450000Y-96700000D01*
X80550000Y-93500000D02*
X80550000Y-96500000D01*
X80550000Y-96500000D02*
X79550000Y-96500000D01*
%TO.C,C57*%
X75520000Y-137800000D02*
X77480000Y-137800000D01*
X77480000Y-141200000D01*
X75520000Y-141200000D01*
X75520000Y-137800000D01*
%TO.C,C68*%
X112300000Y-139020000D02*
X115700000Y-139020000D01*
X115700000Y-140980000D01*
X112300000Y-140980000D01*
X112300000Y-139020000D01*
%TO.C,R14*%
X134536100Y-77979600D02*
X137896100Y-77979600D01*
X137896100Y-79879600D01*
X134536100Y-79879600D01*
X134536100Y-77979600D01*
%TO.C,C7*%
X171020000Y-77800000D02*
X172980000Y-77800000D01*
X172980000Y-81200000D01*
X171020000Y-81200000D01*
X171020000Y-77800000D01*
%TO.C,R65*%
X80820000Y-74550000D02*
X84180000Y-74550000D01*
X84180000Y-76450000D01*
X80820000Y-76450000D01*
X80820000Y-74550000D01*
%TO.C,C6*%
X167350000Y-76700000D02*
X169650000Y-76700000D01*
X169650000Y-81300000D01*
X167350000Y-81300000D01*
X167350000Y-76700000D01*
%TO.C,U13*%
X202000000Y-102290000D02*
X209000000Y-102290000D01*
X209000000Y-113390000D01*
X202000000Y-113390000D01*
X202000000Y-102290000D01*
%TO.C,C79*%
X160300000Y-86520000D02*
X163700000Y-86520000D01*
X163700000Y-88480000D01*
X160300000Y-88480000D01*
X160300000Y-86520000D01*
%TO.C,D14*%
X172050000Y-59961700D02*
X173950000Y-59961700D01*
X173950000Y-63321700D01*
X172050000Y-63321700D01*
X172050000Y-59961700D01*
%TO.C,R7*%
X183820000Y-67550000D02*
X187180000Y-67550000D01*
X187180000Y-69450000D01*
X183820000Y-69450000D01*
X183820000Y-67550000D01*
%TO.C,Y1*%
X153000000Y-123950000D02*
X158000000Y-123950000D01*
X153000000Y-127050000D02*
X153000000Y-123950000D01*
X158000000Y-123950000D02*
X158000000Y-127050000D01*
X158000000Y-127050000D02*
X153000000Y-127050000D01*
%TO.C,D34*%
X195000000Y-121250000D02*
X202000000Y-121250000D01*
X195000000Y-124750000D02*
X195000000Y-121250000D01*
X202000000Y-121250000D02*
X202000000Y-124750000D01*
X202000000Y-124750000D02*
X195000000Y-124750000D01*
%TO.C,C14*%
X136020000Y-70800000D02*
X137980000Y-70800000D01*
X137980000Y-74200000D01*
X136020000Y-74200000D01*
X136020000Y-70800000D01*
%TO.C,D12*%
X172050000Y-56629200D02*
X172050000Y-59829200D01*
X173950000Y-56629200D02*
X172050000Y-56629200D01*
X173950000Y-56629200D02*
X173950000Y-59829200D01*
X173950000Y-59829200D02*
X172050000Y-59829200D01*
%TO.C,C55*%
X115200000Y-127900000D02*
X119800000Y-127900000D01*
X119800000Y-131100000D01*
X115200000Y-131100000D01*
X115200000Y-127900000D01*
%TO.C,R50*%
X154602500Y-83837600D02*
X157962500Y-83837600D01*
X157962500Y-85737600D01*
X154602500Y-85737600D01*
X154602500Y-83837600D01*
%TO.C,R66*%
X75320000Y-84550000D02*
X78680000Y-84550000D01*
X78680000Y-86450000D01*
X75320000Y-86450000D01*
X75320000Y-84550000D01*
%TO.C,D1*%
X144700000Y-75150000D02*
X147300000Y-75150000D01*
X144700000Y-80150000D02*
X144700000Y-75150000D01*
X147300000Y-75150000D02*
X147300000Y-80150000D01*
X147300000Y-80150000D02*
X144700000Y-80150000D01*
%TO.C,D29*%
X116300000Y-119100000D02*
X117450000Y-119100000D01*
X116300000Y-120900000D02*
X116300000Y-119100000D01*
X116500000Y-120900000D02*
X116300000Y-120900000D01*
X116500000Y-121930000D02*
X116500000Y-120900000D01*
X117450000Y-118070000D02*
X118550000Y-118070000D01*
X117450000Y-119100000D02*
X117450000Y-118070000D01*
X117610000Y-120900000D02*
X117610000Y-121930000D01*
X117610000Y-121930000D02*
X116500000Y-121930000D01*
X118390000Y-120900000D02*
X117610000Y-120900000D01*
X118390000Y-121930000D02*
X118390000Y-120900000D01*
X118550000Y-118070000D02*
X118550000Y-119100000D01*
X118550000Y-119100000D02*
X119700000Y-119100000D01*
X119500000Y-120900000D02*
X119500000Y-121930000D01*
X119500000Y-121930000D02*
X118390000Y-121930000D01*
X119700000Y-119100000D02*
X119700000Y-120900000D01*
X119700000Y-120900000D02*
X119500000Y-120900000D01*
%TO.C,D40*%
X172500000Y-138750000D02*
X179500000Y-138750000D01*
X172500000Y-142250000D02*
X172500000Y-138750000D01*
X179500000Y-138750000D02*
X179500000Y-142250000D01*
X179500000Y-142250000D02*
X172500000Y-142250000D01*
%TO.C,R53*%
X186525000Y-64150000D02*
X189885000Y-64150000D01*
X189885000Y-66050000D01*
X186525000Y-66050000D01*
X186525000Y-64150000D01*
%TO.C,R72*%
X78550000Y-87820000D02*
X80450000Y-87820000D01*
X80450000Y-91180000D01*
X78550000Y-91180000D01*
X78550000Y-87820000D01*
%TO.C,D31*%
X189000000Y-128750000D02*
X196000000Y-128750000D01*
X189000000Y-132250000D02*
X189000000Y-128750000D01*
X196000000Y-128750000D02*
X196000000Y-132250000D01*
X196000000Y-132250000D02*
X189000000Y-132250000D01*
%TO.C,IC1*%
X122300000Y-72320000D02*
X123800000Y-72320000D01*
X122300000Y-77680000D02*
X122300000Y-72320000D01*
X123800000Y-72300000D02*
X128200000Y-72300000D01*
X123800000Y-72320000D02*
X123800000Y-72300000D01*
X123800000Y-77680000D02*
X122300000Y-77680000D01*
X123800000Y-77700000D02*
X123800000Y-77680000D01*
X128200000Y-72300000D02*
X128200000Y-72320000D01*
X128200000Y-72320000D02*
X129700000Y-72320000D01*
X128200000Y-77680000D02*
X128200000Y-77700000D01*
X128200000Y-77700000D02*
X123800000Y-77700000D01*
X129700000Y-72320000D02*
X129700000Y-77680000D01*
X129700000Y-77680000D02*
X128200000Y-77680000D01*
%TO.C,C42*%
X113020000Y-98800000D02*
X114980000Y-98800000D01*
X114980000Y-102200000D01*
X113020000Y-102200000D01*
X113020000Y-98800000D01*
%TO.C,U3*%
X148800000Y-83800000D02*
X149040000Y-83800000D01*
X148800000Y-88200000D02*
X148800000Y-83800000D01*
X149040000Y-82300000D02*
X153960000Y-82300000D01*
X149040000Y-83800000D02*
X149040000Y-82300000D01*
X149040000Y-88200000D02*
X148800000Y-88200000D01*
X149040000Y-89700000D02*
X149040000Y-88200000D01*
X153960000Y-82300000D02*
X153960000Y-83800000D01*
X153960000Y-83800000D02*
X154200000Y-83800000D01*
X153960000Y-88200000D02*
X153960000Y-89700000D01*
X153960000Y-89700000D02*
X149040000Y-89700000D01*
X154200000Y-83800000D02*
X154200000Y-88200000D01*
X154200000Y-88200000D02*
X153960000Y-88200000D01*
%TO.C,R63*%
X103820000Y-57550000D02*
X107180000Y-57550000D01*
X107180000Y-59450000D01*
X103820000Y-59450000D01*
X103820000Y-57550000D01*
%TO.C,C69*%
X96750000Y-131000000D02*
X96750000Y-134000000D01*
X96750000Y-134000000D02*
X97600000Y-134000000D01*
X97600000Y-129250000D02*
X97600000Y-131000000D01*
X97600000Y-129250000D02*
X98750000Y-128100000D01*
X97600000Y-131000000D02*
X96750000Y-131000000D01*
X97600000Y-134000000D02*
X97600000Y-135750000D01*
X97600000Y-135750000D02*
X98750000Y-136900000D01*
X98750000Y-128100000D02*
X106400000Y-128100000D01*
X98750000Y-136900000D02*
X106400000Y-136900000D01*
X106400000Y-128100000D02*
X106400000Y-131000000D01*
X106400000Y-131000000D02*
X107250000Y-131000000D01*
X106400000Y-134000000D02*
X106400000Y-136900000D01*
X107250000Y-131000000D02*
X107250000Y-134000000D01*
X107250000Y-134000000D02*
X106400000Y-134000000D01*
%TO.C,C76*%
X159800000Y-93520000D02*
X163200000Y-93520000D01*
X163200000Y-95480000D01*
X159800000Y-95480000D01*
X159800000Y-93520000D01*
%TO.C,R93*%
X168050000Y-126820000D02*
X169950000Y-126820000D01*
X169950000Y-130180000D01*
X168050000Y-130180000D01*
X168050000Y-126820000D01*
%TO.C,R68*%
X98320000Y-65550000D02*
X101680000Y-65550000D01*
X101680000Y-67450000D01*
X98320000Y-67450000D01*
X98320000Y-65550000D01*
%TO.C,D19*%
X103800000Y-74600000D02*
X104950000Y-74600000D01*
X103800000Y-76400000D02*
X103800000Y-74600000D01*
X104000000Y-76400000D02*
X103800000Y-76400000D01*
X104000000Y-77430000D02*
X104000000Y-76400000D01*
X104950000Y-73570000D02*
X106050000Y-73570000D01*
X104950000Y-74600000D02*
X104950000Y-73570000D01*
X105110000Y-76400000D02*
X105110000Y-77430000D01*
X105110000Y-77430000D02*
X104000000Y-77430000D01*
X105890000Y-76400000D02*
X105110000Y-76400000D01*
X105890000Y-77430000D02*
X105890000Y-76400000D01*
X106050000Y-73570000D02*
X106050000Y-74600000D01*
X106050000Y-74600000D02*
X107200000Y-74600000D01*
X107000000Y-76400000D02*
X107000000Y-77430000D01*
X107000000Y-77430000D02*
X105890000Y-77430000D01*
X107200000Y-74600000D02*
X107200000Y-76400000D01*
X107200000Y-76400000D02*
X107000000Y-76400000D01*
%TO.C,C11*%
X139020000Y-75800000D02*
X140980000Y-75800000D01*
X140980000Y-79200000D01*
X139020000Y-79200000D01*
X139020000Y-75800000D01*
%TO.C,R130*%
X165550000Y-106320000D02*
X167450000Y-106320000D01*
X167450000Y-109680000D01*
X165550000Y-109680000D01*
X165550000Y-106320000D01*
%TO.C,R48*%
X200320000Y-95550000D02*
X203680000Y-95550000D01*
X203680000Y-97450000D01*
X200320000Y-97450000D01*
X200320000Y-95550000D01*
%TO.C,R60*%
X92050000Y-59320000D02*
X93950000Y-59320000D01*
X93950000Y-62680000D01*
X92050000Y-62680000D01*
X92050000Y-59320000D01*
%TO.C,R9*%
X145560600Y-52041000D02*
X148920600Y-52041000D01*
X148920600Y-53941000D01*
X145560600Y-53941000D01*
X145560600Y-52041000D01*
%TO.C,C51*%
X163300000Y-98020000D02*
X166700000Y-98020000D01*
X166700000Y-99980000D01*
X163300000Y-99980000D01*
X163300000Y-98020000D01*
%TO.C,R17*%
X133240000Y-75385200D02*
X136600000Y-75385200D01*
X136600000Y-77285200D01*
X133240000Y-77285200D01*
X133240000Y-75385200D01*
%TO.C,R39*%
X196720000Y-70370000D02*
X201280000Y-70370000D01*
X201280000Y-72630000D01*
X196720000Y-72630000D01*
X196720000Y-70370000D01*
%TO.C,R84*%
X109550000Y-115820000D02*
X111450000Y-115820000D01*
X111450000Y-119180000D01*
X109550000Y-119180000D01*
X109550000Y-115820000D01*
%TO.C,D13*%
X183550000Y-56600000D02*
X183550000Y-59800000D01*
X185450000Y-56600000D02*
X183550000Y-56600000D01*
X185450000Y-56600000D02*
X185450000Y-59800000D01*
X185450000Y-59800000D02*
X183550000Y-59800000D01*
%TO.C,U8*%
X186950000Y-91500000D02*
X187950000Y-91500000D01*
X186950000Y-94500000D02*
X186950000Y-91500000D01*
X187950000Y-91300000D02*
X190050000Y-91300000D01*
X187950000Y-91500000D02*
X187950000Y-91300000D01*
X187950000Y-94500000D02*
X186950000Y-94500000D01*
X187950000Y-94700000D02*
X187950000Y-94500000D01*
X190050000Y-91300000D02*
X190050000Y-91500000D01*
X190050000Y-91500000D02*
X191050000Y-91500000D01*
X190050000Y-92610000D02*
X190050000Y-93390000D01*
X190050000Y-93390000D02*
X191050000Y-93390000D01*
X190050000Y-94500000D02*
X190050000Y-94700000D01*
X190050000Y-94700000D02*
X187950000Y-94700000D01*
X191050000Y-91500000D02*
X191050000Y-92610000D01*
X191050000Y-92610000D02*
X190050000Y-92610000D01*
X191050000Y-93390000D02*
X191050000Y-94500000D01*
X191050000Y-94500000D02*
X190050000Y-94500000D01*
%TO.C,C22*%
X83800000Y-69520000D02*
X87200000Y-69520000D01*
X87200000Y-71480000D01*
X83800000Y-71480000D01*
X83800000Y-69520000D01*
%TO.C,R121*%
X127050000Y-122320000D02*
X128950000Y-122320000D01*
X128950000Y-125680000D01*
X127050000Y-125680000D01*
X127050000Y-122320000D01*
%TO.C,D17*%
X98570000Y-74000000D02*
X99600000Y-74000000D01*
X98570000Y-75110000D02*
X98570000Y-74000000D01*
X98570000Y-75890000D02*
X99600000Y-75890000D01*
X98570000Y-77000000D02*
X98570000Y-75890000D01*
X99600000Y-73800000D02*
X101400000Y-73800000D01*
X99600000Y-74000000D02*
X99600000Y-73800000D01*
X99600000Y-75110000D02*
X98570000Y-75110000D01*
X99600000Y-75890000D02*
X99600000Y-75110000D01*
X99600000Y-77000000D02*
X98570000Y-77000000D01*
X99600000Y-77200000D02*
X99600000Y-77000000D01*
X101400000Y-73800000D02*
X101400000Y-74950000D01*
X101400000Y-74950000D02*
X102430000Y-74950000D01*
X101400000Y-76050000D02*
X101400000Y-77200000D01*
X101400000Y-77200000D02*
X99600000Y-77200000D01*
X102430000Y-74950000D02*
X102430000Y-76050000D01*
X102430000Y-76050000D02*
X101400000Y-76050000D01*
%TO.C,C54*%
X102700000Y-138400000D02*
X107300000Y-138400000D01*
X107300000Y-141600000D01*
X102700000Y-141600000D01*
X102700000Y-138400000D01*
%TO.C,TP1*%
X151250000Y-125000000D02*
G75*
G02*
X148750000Y-125000000I-1250000J0D01*
G01*
X148750000Y-125000000D02*
G75*
G02*
X151250000Y-125000000I1250000J0D01*
G01*
%TO.C,H2*%
X211475000Y-138525000D02*
G75*
G02*
X204575000Y-138525000I-3450000J0D01*
G01*
X204575000Y-138525000D02*
G75*
G02*
X211475000Y-138525000I3450000J0D01*
G01*
%TO.C,R6*%
X174050000Y-52320000D02*
X175950000Y-52320000D01*
X175950000Y-55680000D01*
X174050000Y-55680000D01*
X174050000Y-52320000D01*
%TO.C,C8*%
X148274000Y-100516200D02*
X151674000Y-100516200D01*
X151674000Y-102476200D01*
X148274000Y-102476200D01*
X148274000Y-100516200D01*
%TO.C,C40*%
X124300000Y-115020000D02*
X127700000Y-115020000D01*
X127700000Y-116980000D01*
X124300000Y-116980000D01*
X124300000Y-115020000D01*
%TO.C,D42*%
X82600000Y-123150000D02*
X92400000Y-123150000D01*
X82600000Y-129850000D02*
X82600000Y-123150000D01*
X92400000Y-123150000D02*
X92400000Y-129850000D01*
X92400000Y-129850000D02*
X82600000Y-129850000D01*
%TO.C,C60*%
X82520000Y-131300000D02*
X84480000Y-131300000D01*
X84480000Y-134700000D01*
X82520000Y-134700000D01*
X82520000Y-131300000D01*
%TO.C,C13*%
X131520000Y-67300000D02*
X133480000Y-67300000D01*
X133480000Y-70700000D01*
X131520000Y-70700000D01*
X131520000Y-67300000D01*
%TO.C,D15*%
X183550000Y-59932500D02*
X185450000Y-59932500D01*
X185450000Y-63292500D01*
X183550000Y-63292500D01*
X183550000Y-59932500D01*
%TO.C,C49*%
X123420000Y-33100000D02*
X125380000Y-33100000D01*
X125380000Y-36500000D01*
X123420000Y-36500000D01*
X123420000Y-33100000D01*
%TO.C,R129*%
X156820000Y-139050000D02*
X160180000Y-139050000D01*
X160180000Y-140950000D01*
X156820000Y-140950000D01*
X156820000Y-139050000D01*
%TO.C,D4*%
X148690000Y-96610000D02*
X149720000Y-96610000D01*
X148690000Y-97720000D02*
X148690000Y-96610000D01*
X148690000Y-98500000D02*
X149720000Y-98500000D01*
X148690000Y-99610000D02*
X148690000Y-98500000D01*
X149720000Y-96410000D02*
X151520000Y-96410000D01*
X149720000Y-96610000D02*
X149720000Y-96410000D01*
X149720000Y-97720000D02*
X148690000Y-97720000D01*
X149720000Y-98500000D02*
X149720000Y-97720000D01*
X149720000Y-99610000D02*
X148690000Y-99610000D01*
X149720000Y-99810000D02*
X149720000Y-99610000D01*
X151520000Y-96410000D02*
X151520000Y-97560000D01*
X151520000Y-97560000D02*
X152550000Y-97560000D01*
X151520000Y-98660000D02*
X151520000Y-99810000D01*
X151520000Y-99810000D02*
X149720000Y-99810000D01*
X152550000Y-97560000D02*
X152550000Y-98660000D01*
X152550000Y-98660000D02*
X151520000Y-98660000D01*
%TO.C,R104*%
X194820000Y-133550000D02*
X198180000Y-133550000D01*
X198180000Y-135450000D01*
X194820000Y-135450000D01*
X194820000Y-133550000D01*
%TO.C,D37*%
X199350000Y-114650000D02*
X201650000Y-114650000D01*
X199350000Y-119350000D02*
X199350000Y-114650000D01*
X199350000Y-119350000D02*
X201650000Y-119350000D01*
X201650000Y-114650000D02*
X201650000Y-119350000D01*
%TO.C,U10*%
X97920000Y-85300000D02*
X98140000Y-85300000D01*
X97920000Y-89700000D02*
X97920000Y-85300000D01*
X98140000Y-83800000D02*
X106860000Y-83800000D01*
X98140000Y-85300000D02*
X98140000Y-83800000D01*
X98140000Y-89700000D02*
X97920000Y-89700000D01*
X98140000Y-91200000D02*
X98140000Y-89700000D01*
X106860000Y-83800000D02*
X106860000Y-85300000D01*
X106860000Y-85300000D02*
X107080000Y-85300000D01*
X106860000Y-89700000D02*
X106860000Y-91200000D01*
X106860000Y-91200000D02*
X98140000Y-91200000D01*
X107080000Y-85300000D02*
X107080000Y-89700000D01*
X107080000Y-89700000D02*
X106860000Y-89700000D01*
%TO.C,D28*%
X121070000Y-98000000D02*
X122100000Y-98000000D01*
X121070000Y-99110000D02*
X121070000Y-98000000D01*
X121070000Y-99890000D02*
X122100000Y-99890000D01*
X121070000Y-101000000D02*
X121070000Y-99890000D01*
X122100000Y-97800000D02*
X123900000Y-97800000D01*
X122100000Y-98000000D02*
X122100000Y-97800000D01*
X122100000Y-99110000D02*
X121070000Y-99110000D01*
X122100000Y-99890000D02*
X122100000Y-99110000D01*
X122100000Y-101000000D02*
X121070000Y-101000000D01*
X122100000Y-101200000D02*
X122100000Y-101000000D01*
X123900000Y-97800000D02*
X123900000Y-98950000D01*
X123900000Y-98950000D02*
X124930000Y-98950000D01*
X123900000Y-100050000D02*
X123900000Y-101200000D01*
X123900000Y-101200000D02*
X122100000Y-101200000D01*
X124930000Y-98950000D02*
X124930000Y-100050000D01*
X124930000Y-100050000D02*
X123900000Y-100050000D01*
%TO.C,R116*%
X84050000Y-136320000D02*
X85950000Y-136320000D01*
X85950000Y-139680000D01*
X84050000Y-139680000D01*
X84050000Y-136320000D01*
%TO.C,D5*%
X154713800Y-86601800D02*
X155743800Y-86601800D01*
X154713800Y-87711800D02*
X154713800Y-86601800D01*
X154713800Y-88491800D02*
X155743800Y-88491800D01*
X154713800Y-89601800D02*
X154713800Y-88491800D01*
X155743800Y-86401800D02*
X157543800Y-86401800D01*
X155743800Y-86601800D02*
X155743800Y-86401800D01*
X155743800Y-87711800D02*
X154713800Y-87711800D01*
X155743800Y-88491800D02*
X155743800Y-87711800D01*
X155743800Y-89601800D02*
X154713800Y-89601800D01*
X155743800Y-89801800D02*
X155743800Y-89601800D01*
X157543800Y-86401800D02*
X157543800Y-87551800D01*
X157543800Y-87551800D02*
X158573800Y-87551800D01*
X157543800Y-88651800D02*
X157543800Y-89801800D01*
X157543800Y-89801800D02*
X155743800Y-89801800D01*
X158573800Y-87551800D02*
X158573800Y-88651800D01*
X158573800Y-88651800D02*
X157543800Y-88651800D01*
%TO.C,R92*%
X121050000Y-115820000D02*
X122950000Y-115820000D01*
X122950000Y-119180000D01*
X121050000Y-119180000D01*
X121050000Y-115820000D01*
%TO.C,C75*%
X151300000Y-132020000D02*
X154700000Y-132020000D01*
X154700000Y-133980000D01*
X151300000Y-133980000D01*
X151300000Y-132020000D01*
%TO.C,R102*%
X188820000Y-133550000D02*
X192180000Y-133550000D01*
X192180000Y-135450000D01*
X188820000Y-135450000D01*
X188820000Y-133550000D01*
%TO.C,D6*%
X121084400Y-111994900D02*
X122114400Y-111994900D01*
X121084400Y-113104900D02*
X121084400Y-111994900D01*
X121084400Y-113884900D02*
X122114400Y-113884900D01*
X121084400Y-114994900D02*
X121084400Y-113884900D01*
X122114400Y-111794900D02*
X123914400Y-111794900D01*
X122114400Y-111994900D02*
X122114400Y-111794900D01*
X122114400Y-113104900D02*
X121084400Y-113104900D01*
X122114400Y-113884900D02*
X122114400Y-113104900D01*
X122114400Y-114994900D02*
X121084400Y-114994900D01*
X122114400Y-115194900D02*
X122114400Y-114994900D01*
X123914400Y-111794900D02*
X123914400Y-112944900D01*
X123914400Y-112944900D02*
X124944400Y-112944900D01*
X123914400Y-114044900D02*
X123914400Y-115194900D01*
X123914400Y-115194900D02*
X122114400Y-115194900D01*
X124944400Y-112944900D02*
X124944400Y-114044900D01*
X124944400Y-114044900D02*
X123914400Y-114044900D01*
%TO.C,D44*%
X122820000Y-138050000D02*
X126180000Y-138050000D01*
X126180000Y-139950000D01*
X122820000Y-139950000D01*
X122820000Y-138050000D01*
%TO.C,R97*%
X168050000Y-131820000D02*
X169950000Y-131820000D01*
X169950000Y-135180000D01*
X168050000Y-135180000D01*
X168050000Y-131820000D01*
%TO.C,R91*%
X114550000Y-103820000D02*
X116450000Y-103820000D01*
X116450000Y-107180000D01*
X114550000Y-107180000D01*
X114550000Y-103820000D01*
%TO.C,H1*%
X73425000Y-138525000D02*
G75*
G02*
X66525000Y-138525000I-3450000J0D01*
G01*
X66525000Y-138525000D02*
G75*
G02*
X73425000Y-138525000I3450000J0D01*
G01*
%TO.C,C66*%
X72020000Y-128800000D02*
X73980000Y-128800000D01*
X73980000Y-132200000D01*
X72020000Y-132200000D01*
X72020000Y-128800000D01*
%TO.C,C20*%
X148372000Y-104152200D02*
X151772000Y-104152200D01*
X151772000Y-106112200D01*
X148372000Y-106112200D01*
X148372000Y-104152200D01*
%TO.C,C47*%
X126020000Y-33100000D02*
X127980000Y-33100000D01*
X127980000Y-36500000D01*
X126020000Y-36500000D01*
X126020000Y-33100000D01*
%TO.C,U6*%
X167800000Y-54450000D02*
X168000000Y-54450000D01*
X167800000Y-56550000D02*
X167800000Y-54450000D01*
X168000000Y-53450000D02*
X171000000Y-53450000D01*
X168000000Y-54450000D02*
X168000000Y-53450000D01*
X168000000Y-56550000D02*
X167800000Y-56550000D01*
X168000000Y-57550000D02*
X168000000Y-56550000D01*
X171000000Y-53450000D02*
X171000000Y-54450000D01*
X171000000Y-54450000D02*
X171200000Y-54450000D01*
X171000000Y-56550000D02*
X171000000Y-57550000D01*
X171000000Y-57550000D02*
X168000000Y-57550000D01*
X171200000Y-54450000D02*
X171200000Y-56550000D01*
X171200000Y-56550000D02*
X171000000Y-56550000D01*
%TO.C,U16*%
X75800000Y-127300000D02*
X76040000Y-127300000D01*
X75800000Y-131700000D02*
X75800000Y-127300000D01*
X76040000Y-125800000D02*
X80960000Y-125800000D01*
X76040000Y-127300000D02*
X76040000Y-125800000D01*
X76040000Y-131700000D02*
X75800000Y-131700000D01*
X76040000Y-133200000D02*
X76040000Y-131700000D01*
X80960000Y-125800000D02*
X80960000Y-127300000D01*
X80960000Y-127300000D02*
X81200000Y-127300000D01*
X80960000Y-131700000D02*
X80960000Y-133200000D01*
X80960000Y-133200000D02*
X76040000Y-133200000D01*
X81200000Y-127300000D02*
X81200000Y-131700000D01*
X81200000Y-131700000D02*
X80960000Y-131700000D01*
%TO.C,D32*%
X183750000Y-128500000D02*
X187250000Y-128500000D01*
X183750000Y-135500000D02*
X183750000Y-128500000D01*
X187250000Y-128500000D02*
X187250000Y-135500000D01*
X187250000Y-135500000D02*
X183750000Y-135500000D01*
%TO.C,R110*%
X205320000Y-126550000D02*
X208680000Y-126550000D01*
X208680000Y-128450000D01*
X205320000Y-128450000D01*
X205320000Y-126550000D01*
%TO.C,R98*%
X171550000Y-129320000D02*
X173450000Y-129320000D01*
X173450000Y-132680000D01*
X171550000Y-132680000D01*
X171550000Y-129320000D01*
%TO.C,R128*%
X161820000Y-124550000D02*
X165180000Y-124550000D01*
X165180000Y-126450000D01*
X161820000Y-126450000D01*
X161820000Y-124550000D01*
%TO.C,C3*%
X166020000Y-101300000D02*
X167980000Y-101300000D01*
X167980000Y-104700000D01*
X166020000Y-104700000D01*
X166020000Y-101300000D01*
%TO.C,D45*%
X75050000Y-79820000D02*
X76950000Y-79820000D01*
X76950000Y-83180000D01*
X75050000Y-83180000D01*
X75050000Y-79820000D01*
%TO.C,C32*%
X83520000Y-77800000D02*
X85480000Y-77800000D01*
X85480000Y-81200000D01*
X83520000Y-81200000D01*
X83520000Y-77800000D01*
%TO.C,R51*%
X172050000Y-63436700D02*
X173950000Y-63436700D01*
X173950000Y-66796700D01*
X172050000Y-66796700D01*
X172050000Y-63436700D01*
%TO.C,R1*%
X142550000Y-76732500D02*
X144450000Y-76732500D01*
X144450000Y-80092500D01*
X142550000Y-80092500D01*
X142550000Y-76732500D01*
%TO.C,IC2*%
X186165000Y-119138500D02*
X193365000Y-119138500D01*
X186165000Y-127638500D02*
X186165000Y-119138500D01*
X193365000Y-119138500D02*
X193365000Y-127638500D01*
X193365000Y-127638500D02*
X186165000Y-127638500D01*
%TO.C,R100*%
X202050000Y-126320000D02*
X203950000Y-126320000D01*
X203950000Y-129680000D01*
X202050000Y-129680000D01*
X202050000Y-126320000D01*
%TO.C,D7*%
X148280700Y-114534300D02*
X149310700Y-114534300D01*
X148280700Y-115644300D02*
X148280700Y-114534300D01*
X148280700Y-116424300D02*
X149310700Y-116424300D01*
X148280700Y-117534300D02*
X148280700Y-116424300D01*
X149310700Y-114334300D02*
X151110700Y-114334300D01*
X149310700Y-114534300D02*
X149310700Y-114334300D01*
X149310700Y-115644300D02*
X148280700Y-115644300D01*
X149310700Y-116424300D02*
X149310700Y-115644300D01*
X149310700Y-117534300D02*
X148280700Y-117534300D01*
X149310700Y-117734300D02*
X149310700Y-117534300D01*
X151110700Y-114334300D02*
X151110700Y-115484300D01*
X151110700Y-115484300D02*
X152140700Y-115484300D01*
X151110700Y-116584300D02*
X151110700Y-117734300D01*
X151110700Y-117734300D02*
X149310700Y-117734300D01*
X152140700Y-115484300D02*
X152140700Y-116584300D01*
X152140700Y-116584300D02*
X151110700Y-116584300D01*
%TO.C,C23*%
X89800000Y-64020000D02*
X93200000Y-64020000D01*
X93200000Y-65980000D01*
X89800000Y-65980000D01*
X89800000Y-64020000D01*
%TO.C,R86*%
X131050000Y-75320000D02*
X132950000Y-75320000D01*
X132950000Y-78680000D01*
X131050000Y-78680000D01*
X131050000Y-75320000D01*
%TO.C,C27*%
X103300000Y-70020000D02*
X106700000Y-70020000D01*
X106700000Y-71980000D01*
X103300000Y-71980000D01*
X103300000Y-70020000D01*
%TO.C,R111*%
X202820000Y-131050000D02*
X206180000Y-131050000D01*
X206180000Y-132950000D01*
X202820000Y-132950000D01*
X202820000Y-131050000D01*
%TO.C,C33*%
X103300000Y-66520000D02*
X106700000Y-66520000D01*
X106700000Y-68480000D01*
X103300000Y-68480000D01*
X103300000Y-66520000D01*
%TO.C,D47*%
X161800000Y-133600000D02*
X162950000Y-133600000D01*
X161800000Y-135400000D02*
X161800000Y-133600000D01*
X162000000Y-135400000D02*
X161800000Y-135400000D01*
X162000000Y-136430000D02*
X162000000Y-135400000D01*
X162950000Y-132570000D02*
X164050000Y-132570000D01*
X162950000Y-133600000D02*
X162950000Y-132570000D01*
X163110000Y-135400000D02*
X163110000Y-136430000D01*
X163110000Y-136430000D02*
X162000000Y-136430000D01*
X163890000Y-135400000D02*
X163110000Y-135400000D01*
X163890000Y-136430000D02*
X163890000Y-135400000D01*
X164050000Y-132570000D02*
X164050000Y-133600000D01*
X164050000Y-133600000D02*
X165200000Y-133600000D01*
X165000000Y-135400000D02*
X165000000Y-136430000D01*
X165000000Y-136430000D02*
X163890000Y-136430000D01*
X165200000Y-133600000D02*
X165200000Y-135400000D01*
X165200000Y-135400000D02*
X165000000Y-135400000D01*
%TO.C,IC5*%
X73400000Y-115100000D02*
X73400000Y-123900000D01*
X73400000Y-123900000D02*
X80600000Y-123900000D01*
X80600000Y-115100000D02*
X73400000Y-115100000D01*
X80600000Y-123900000D02*
X80600000Y-115100000D01*
%TO.C,R78*%
X122550000Y-80820000D02*
X124450000Y-80820000D01*
X124450000Y-84180000D01*
X122550000Y-84180000D01*
X122550000Y-80820000D01*
%TO.C,R132*%
X164820000Y-82550000D02*
X168180000Y-82550000D01*
X168180000Y-84450000D01*
X164820000Y-84450000D01*
X164820000Y-82550000D01*
%TO.C,R62*%
X101550000Y-52820000D02*
X103450000Y-52820000D01*
X103450000Y-56180000D01*
X101550000Y-56180000D01*
X101550000Y-52820000D01*
%TO.C,C70*%
X121200000Y-126400000D02*
X125800000Y-126400000D01*
X125800000Y-129600000D01*
X121200000Y-129600000D01*
X121200000Y-126400000D01*
%TO.C,R125*%
X151320000Y-135550000D02*
X154680000Y-135550000D01*
X154680000Y-137450000D01*
X151320000Y-137450000D01*
X151320000Y-135550000D01*
%TO.C,R109*%
X188550000Y-136820000D02*
X190450000Y-136820000D01*
X190450000Y-140180000D01*
X188550000Y-140180000D01*
X188550000Y-136820000D01*
%TO.C,R112*%
X198320000Y-138050000D02*
X201680000Y-138050000D01*
X201680000Y-139950000D01*
X198320000Y-139950000D01*
X198320000Y-138050000D01*
%TO.C,R28*%
X192020000Y-64150000D02*
X195380000Y-64150000D01*
X195380000Y-66050000D01*
X192020000Y-66050000D01*
X192020000Y-64150000D01*
%TO.C,D20*%
X102570000Y-79000000D02*
X103600000Y-79000000D01*
X102570000Y-80110000D02*
X102570000Y-79000000D01*
X102570000Y-80890000D02*
X103600000Y-80890000D01*
X102570000Y-82000000D02*
X102570000Y-80890000D01*
X103600000Y-78800000D02*
X105400000Y-78800000D01*
X103600000Y-79000000D02*
X103600000Y-78800000D01*
X103600000Y-80110000D02*
X102570000Y-80110000D01*
X103600000Y-80890000D02*
X103600000Y-80110000D01*
X103600000Y-82000000D02*
X102570000Y-82000000D01*
X103600000Y-82200000D02*
X103600000Y-82000000D01*
X105400000Y-78800000D02*
X105400000Y-79950000D01*
X105400000Y-79950000D02*
X106430000Y-79950000D01*
X105400000Y-81050000D02*
X105400000Y-82200000D01*
X105400000Y-82200000D02*
X103600000Y-82200000D01*
X106430000Y-79950000D02*
X106430000Y-81050000D01*
X106430000Y-81050000D02*
X105400000Y-81050000D01*
%TO.C,C38*%
X113020000Y-114300000D02*
X114980000Y-114300000D01*
X114980000Y-117700000D01*
X113020000Y-117700000D01*
X113020000Y-114300000D01*
%TO.C,C12*%
X118520000Y-75800000D02*
X120480000Y-75800000D01*
X120480000Y-79200000D01*
X118520000Y-79200000D01*
X118520000Y-75800000D01*
%TO.C,R88*%
X111050000Y-103820000D02*
X112950000Y-103820000D01*
X112950000Y-107180000D01*
X111050000Y-107180000D01*
X111050000Y-103820000D01*
%TO.C,D33*%
X194250000Y-112500000D02*
X197750000Y-112500000D01*
X194250000Y-119500000D02*
X194250000Y-112500000D01*
X197750000Y-112500000D02*
X197750000Y-119500000D01*
X197750000Y-119500000D02*
X194250000Y-119500000D01*
%TO.C,R61*%
X105050000Y-52820000D02*
X106950000Y-52820000D01*
X106950000Y-56180000D01*
X105050000Y-56180000D01*
X105050000Y-52820000D01*
%TO.C,D36*%
X175500000Y-133750000D02*
X182500000Y-133750000D01*
X175500000Y-137250000D02*
X175500000Y-133750000D01*
X182500000Y-133750000D02*
X182500000Y-137250000D01*
X182500000Y-137250000D02*
X175500000Y-137250000D01*
%TO.C,C62*%
X67520000Y-113800000D02*
X69480000Y-113800000D01*
X69480000Y-117200000D01*
X67520000Y-117200000D01*
X67520000Y-113800000D01*
%TO.C,D38*%
X168850000Y-136650000D02*
X171150000Y-136650000D01*
X168850000Y-141350000D02*
X168850000Y-136650000D01*
X168850000Y-141350000D02*
X171150000Y-141350000D01*
X171150000Y-136650000D02*
X171150000Y-141350000D01*
%TO.C,C50*%
X128620000Y-33100000D02*
X130580000Y-33100000D01*
X130580000Y-36500000D01*
X128620000Y-36500000D01*
X128620000Y-33100000D01*
%TO.C,C35*%
X117020000Y-89300000D02*
X118980000Y-89300000D01*
X118980000Y-92700000D01*
X117020000Y-92700000D01*
X117020000Y-89300000D01*
%TO.C,R46*%
X199320000Y-81050000D02*
X202680000Y-81050000D01*
X202680000Y-82950000D01*
X199320000Y-82950000D01*
X199320000Y-81050000D01*
%TO.C,R15*%
X121046600Y-78549000D02*
X124406600Y-78549000D01*
X124406600Y-80449000D01*
X121046600Y-80449000D01*
X121046600Y-78549000D01*
%TO.C,R19*%
X118446400Y-71381400D02*
X121806400Y-71381400D01*
X121806400Y-73281400D01*
X118446400Y-73281400D01*
X118446400Y-71381400D01*
%TO.C,R74*%
X90320000Y-67550000D02*
X93680000Y-67550000D01*
X93680000Y-69450000D01*
X90320000Y-69450000D01*
X90320000Y-67550000D01*
%TO.C,C30*%
X95300000Y-69020000D02*
X98700000Y-69020000D01*
X98700000Y-70980000D01*
X95300000Y-70980000D01*
X95300000Y-69020000D01*
%TO.C,R2*%
X127050000Y-100320000D02*
X128950000Y-100320000D01*
X128950000Y-103680000D01*
X127050000Y-103680000D01*
X127050000Y-100320000D01*
%TO.C,R124*%
X151320000Y-128550000D02*
X154680000Y-128550000D01*
X154680000Y-130450000D01*
X151320000Y-130450000D01*
X151320000Y-128550000D01*
%TO.C,C9*%
X148567000Y-79750600D02*
X151967000Y-79750600D01*
X151967000Y-81710600D01*
X148567000Y-81710600D01*
X148567000Y-79750600D01*
%TO.C,C65*%
X96700000Y-138400000D02*
X101300000Y-138400000D01*
X101300000Y-141600000D01*
X96700000Y-141600000D01*
X96700000Y-138400000D01*
%TO.C,R94*%
X167820000Y-123050000D02*
X171180000Y-123050000D01*
X171180000Y-124950000D01*
X167820000Y-124950000D01*
X167820000Y-123050000D01*
%TO.C,U5*%
X120750000Y-122250000D02*
X126250000Y-122250000D01*
X126250000Y-125750000D01*
X120750000Y-125750000D01*
X120750000Y-122250000D01*
%TO.C,D22*%
X70000000Y-87750000D02*
X77000000Y-87750000D01*
X70000000Y-91250000D02*
X70000000Y-87750000D01*
X77000000Y-87750000D02*
X77000000Y-91250000D01*
X77000000Y-91250000D02*
X70000000Y-91250000D01*
%TO.C,C41*%
X126520000Y-95300000D02*
X128480000Y-95300000D01*
X128480000Y-98700000D01*
X126520000Y-98700000D01*
X126520000Y-95300000D01*
%TO.C,C61*%
X82250000Y-116000000D02*
X82250000Y-119000000D01*
X82250000Y-119000000D02*
X83100000Y-119000000D01*
X83100000Y-114250000D02*
X83100000Y-116000000D01*
X83100000Y-114250000D02*
X84250000Y-113100000D01*
X83100000Y-116000000D02*
X82250000Y-116000000D01*
X83100000Y-119000000D02*
X83100000Y-120750000D01*
X83100000Y-120750000D02*
X84250000Y-121900000D01*
X84250000Y-113100000D02*
X91900000Y-113100000D01*
X84250000Y-121900000D02*
X91900000Y-121900000D01*
X91900000Y-113100000D02*
X91900000Y-116000000D01*
X91900000Y-116000000D02*
X92750000Y-116000000D01*
X91900000Y-119000000D02*
X91900000Y-121900000D01*
X92750000Y-116000000D02*
X92750000Y-119000000D01*
X92750000Y-119000000D02*
X91900000Y-119000000D01*
%TO.C,C43*%
X125300000Y-131020000D02*
X128700000Y-131020000D01*
X128700000Y-132980000D01*
X125300000Y-132980000D01*
X125300000Y-131020000D01*
%TO.C,R101*%
X197320000Y-130050000D02*
X200680000Y-130050000D01*
X200680000Y-131950000D01*
X197320000Y-131950000D01*
X197320000Y-130050000D01*
%TO.C,R113*%
X115650000Y-48020000D02*
X117550000Y-48020000D01*
X117550000Y-51380000D01*
X115650000Y-51380000D01*
X115650000Y-48020000D01*
%TO.C,D43*%
X70320000Y-84550000D02*
X73680000Y-84550000D01*
X73680000Y-86450000D01*
X70320000Y-86450000D01*
X70320000Y-84550000D01*
%TO.C,R49*%
X195320000Y-95550000D02*
X198680000Y-95550000D01*
X198680000Y-97450000D01*
X195320000Y-97450000D01*
X195320000Y-95550000D01*
%TO.C,F1*%
X159550000Y-57550000D02*
X165450000Y-57550000D01*
X165450000Y-61450000D01*
X159550000Y-61450000D01*
X159550000Y-57550000D01*
%TO.C,R10*%
X153438300Y-51894400D02*
X156798300Y-51894400D01*
X156798300Y-53794400D01*
X153438300Y-53794400D01*
X153438300Y-51894400D01*
%TO.C,C56*%
X109200000Y-125400000D02*
X113800000Y-125400000D01*
X113800000Y-128600000D01*
X109200000Y-128600000D01*
X109200000Y-125400000D01*
%TO.C,C74*%
X68020000Y-93250000D02*
X69980000Y-93250000D01*
X69980000Y-96650000D01*
X68020000Y-96650000D01*
X68020000Y-93250000D01*
%TO.C,R30*%
X205070000Y-88170000D02*
X208930000Y-88170000D01*
X208930000Y-95830000D01*
X205070000Y-95830000D01*
X205070000Y-88170000D01*
%TO.C,R99*%
X203320000Y-123050000D02*
X206680000Y-123050000D01*
X206680000Y-124950000D01*
X203320000Y-124950000D01*
X203320000Y-123050000D01*
%TO.C,R80*%
X120820000Y-89050000D02*
X124180000Y-89050000D01*
X124180000Y-90950000D01*
X120820000Y-90950000D01*
X120820000Y-89050000D01*
%TO.C,R115*%
X68550000Y-129320000D02*
X70450000Y-129320000D01*
X70450000Y-132680000D01*
X68550000Y-132680000D01*
X68550000Y-129320000D01*
%TO.C,R27*%
X171820000Y-86550000D02*
X175180000Y-86550000D01*
X175180000Y-88450000D01*
X171820000Y-88450000D01*
X171820000Y-86550000D01*
%TO.C,R12*%
X147721800Y-77345700D02*
X151081800Y-77345700D01*
X151081800Y-79245700D01*
X147721800Y-79245700D01*
X147721800Y-77345700D01*
%TO.C,R43*%
X189870000Y-80220000D02*
X192130000Y-80220000D01*
X192130000Y-84780000D01*
X189870000Y-84780000D01*
X189870000Y-80220000D01*
%TO.C,D16*%
X89070000Y-88000000D02*
X90100000Y-88000000D01*
X89070000Y-89110000D02*
X89070000Y-88000000D01*
X89070000Y-89890000D02*
X90100000Y-89890000D01*
X89070000Y-91000000D02*
X89070000Y-89890000D01*
X90100000Y-87800000D02*
X91900000Y-87800000D01*
X90100000Y-88000000D02*
X90100000Y-87800000D01*
X90100000Y-89110000D02*
X89070000Y-89110000D01*
X90100000Y-89890000D02*
X90100000Y-89110000D01*
X90100000Y-91000000D02*
X89070000Y-91000000D01*
X90100000Y-91200000D02*
X90100000Y-91000000D01*
X91900000Y-87800000D02*
X91900000Y-88950000D01*
X91900000Y-88950000D02*
X92930000Y-88950000D01*
X91900000Y-90050000D02*
X91900000Y-91200000D01*
X91900000Y-91200000D02*
X90100000Y-91200000D01*
X92930000Y-88950000D02*
X92930000Y-90050000D01*
X92930000Y-90050000D02*
X91900000Y-90050000D01*
%TO.C,R126*%
X156320000Y-128550000D02*
X159680000Y-128550000D01*
X159680000Y-130450000D01*
X156320000Y-130450000D01*
X156320000Y-128550000D01*
%TO.C,Q5*%
X173070000Y-123000000D02*
X174100000Y-123000000D01*
X173070000Y-124110000D02*
X173070000Y-123000000D01*
X173070000Y-124890000D02*
X174100000Y-124890000D01*
X173070000Y-126000000D02*
X173070000Y-124890000D01*
X174100000Y-122800000D02*
X175900000Y-122800000D01*
X174100000Y-123000000D02*
X174100000Y-122800000D01*
X174100000Y-124110000D02*
X173070000Y-124110000D01*
X174100000Y-124890000D02*
X174100000Y-124110000D01*
X174100000Y-126000000D02*
X173070000Y-126000000D01*
X174100000Y-126200000D02*
X174100000Y-126000000D01*
X175900000Y-122800000D02*
X175900000Y-123950000D01*
X175900000Y-123950000D02*
X176930000Y-123950000D01*
X175900000Y-125050000D02*
X175900000Y-126200000D01*
X175900000Y-126200000D02*
X174100000Y-126200000D01*
X176930000Y-123950000D02*
X176930000Y-125050000D01*
X176930000Y-125050000D02*
X175900000Y-125050000D01*
%TO.C,C59*%
X70020000Y-113800000D02*
X71980000Y-113800000D01*
X71980000Y-117200000D01*
X70020000Y-117200000D01*
X70020000Y-113800000D01*
%TO.C,L2*%
X94000000Y-125750000D02*
X94000000Y-114250000D01*
X94750000Y-113500000D02*
X106250000Y-113500000D01*
X106250000Y-126500000D02*
X94750000Y-126500000D01*
X107000000Y-114250000D02*
X107000000Y-125750000D01*
X94000000Y-114250000D02*
G75*
G02*
X94750000Y-113500000I750000J0D01*
G01*
X94750000Y-126500000D02*
G75*
G02*
X94000000Y-125750000I0J750000D01*
G01*
X106250000Y-113500000D02*
G75*
G02*
X107000000Y-114250000I0J-750000D01*
G01*
X107000000Y-125750000D02*
G75*
G02*
X106250000Y-126500000I-750000J0D01*
G01*
%TO.C,C36*%
X110800000Y-88520000D02*
X114200000Y-88520000D01*
X114200000Y-90480000D01*
X110800000Y-90480000D01*
X110800000Y-88520000D01*
%TO.C,R22*%
X119299100Y-91385100D02*
X122659100Y-91385100D01*
X122659100Y-93285100D01*
X119299100Y-93285100D01*
X119299100Y-91385100D01*
%TO.C,D41*%
X95000000Y-93400000D02*
X107000000Y-93400000D01*
X107000000Y-110600000D01*
X95000000Y-110600000D01*
X95000000Y-93400000D01*
%TO.C,R24*%
X127870000Y-52720000D02*
X130130000Y-52720000D01*
X130130000Y-57280000D01*
X127870000Y-57280000D01*
X127870000Y-52720000D01*
%TO.C,R58*%
X95550000Y-59320000D02*
X97450000Y-59320000D01*
X97450000Y-62680000D01*
X95550000Y-62680000D01*
X95550000Y-59320000D01*
%TO.C,R89*%
X109050000Y-98820000D02*
X110950000Y-98820000D01*
X110950000Y-102180000D01*
X109050000Y-102180000D01*
X109050000Y-98820000D01*
%TO.C,C19*%
X174300000Y-83020000D02*
X177700000Y-83020000D01*
X177700000Y-84980000D01*
X174300000Y-84980000D01*
X174300000Y-83020000D01*
%TO.C,D10*%
X175950000Y-56570800D02*
X175950000Y-59770800D01*
X177850000Y-56570800D02*
X175950000Y-56570800D01*
X177850000Y-56570800D02*
X177850000Y-59770800D01*
X177850000Y-59770800D02*
X175950000Y-59770800D01*
%TO.C,C45*%
X160020000Y-96800000D02*
X161980000Y-96800000D01*
X161980000Y-100200000D01*
X160020000Y-100200000D01*
X160020000Y-96800000D01*
%TO.C,R13*%
X140971900Y-56319000D02*
X144331900Y-56319000D01*
X144331900Y-58219000D01*
X140971900Y-58219000D01*
X140971900Y-56319000D01*
%TO.C,L1*%
X68000000Y-110250000D02*
X68000000Y-98750000D01*
X68750000Y-98000000D02*
X80250000Y-98000000D01*
X80250000Y-111000000D02*
X68750000Y-111000000D01*
X81000000Y-98750000D02*
X81000000Y-110250000D01*
X68000000Y-98750000D02*
G75*
G02*
X68750000Y-98000000I750000J0D01*
G01*
X68750000Y-111000000D02*
G75*
G02*
X68000000Y-110250000I0J750000D01*
G01*
X80250000Y-98000000D02*
G75*
G02*
X81000000Y-98750000I0J-750000D01*
G01*
X81000000Y-110250000D02*
G75*
G02*
X80250000Y-111000000I-750000J0D01*
G01*
%TO.C,IC4*%
X177665000Y-119138500D02*
X184865000Y-119138500D01*
X177665000Y-127638500D02*
X177665000Y-119138500D01*
X184865000Y-119138500D02*
X184865000Y-127638500D01*
X184865000Y-127638500D02*
X177665000Y-127638500D01*
%TO.C,D11*%
X179650000Y-56658300D02*
X179650000Y-59858300D01*
X181550000Y-56658300D02*
X179650000Y-56658300D01*
X181550000Y-56658300D02*
X181550000Y-59858300D01*
X181550000Y-59858300D02*
X179650000Y-59858300D01*
%TO.C,C52*%
X164520000Y-93300000D02*
X166480000Y-93300000D01*
X166480000Y-96700000D01*
X164520000Y-96700000D01*
X164520000Y-93300000D01*
%TO.C,R81*%
X109050000Y-110820000D02*
X110950000Y-110820000D01*
X110950000Y-114180000D01*
X109050000Y-114180000D01*
X109050000Y-110820000D01*
%TO.C,C71*%
X109200000Y-120900000D02*
X113800000Y-120900000D01*
X113800000Y-124100000D01*
X109200000Y-124100000D01*
X109200000Y-120900000D01*
%TO.C,C63*%
X108020000Y-78800000D02*
X109980000Y-78800000D01*
X109980000Y-82200000D01*
X108020000Y-82200000D01*
X108020000Y-78800000D01*
%TO.C,R8*%
X127050000Y-105320000D02*
X128950000Y-105320000D01*
X128950000Y-108680000D01*
X127050000Y-108680000D01*
X127050000Y-105320000D01*
%TO.C,D39*%
X203000000Y-114750000D02*
X210000000Y-114750000D01*
X203000000Y-118250000D02*
X203000000Y-114750000D01*
X210000000Y-114750000D02*
X210000000Y-118250000D01*
X210000000Y-118250000D02*
X203000000Y-118250000D01*
%TO.C,D23*%
X87070000Y-83000000D02*
X88100000Y-83000000D01*
X87070000Y-84110000D02*
X87070000Y-83000000D01*
X87070000Y-84890000D02*
X88100000Y-84890000D01*
X87070000Y-86000000D02*
X87070000Y-84890000D01*
X88100000Y-82800000D02*
X89900000Y-82800000D01*
X88100000Y-83000000D02*
X88100000Y-82800000D01*
X88100000Y-84110000D02*
X87070000Y-84110000D01*
X88100000Y-84890000D02*
X88100000Y-84110000D01*
X88100000Y-86000000D02*
X87070000Y-86000000D01*
X88100000Y-86200000D02*
X88100000Y-86000000D01*
X89900000Y-82800000D02*
X89900000Y-83950000D01*
X89900000Y-83950000D02*
X90930000Y-83950000D01*
X89900000Y-85050000D02*
X89900000Y-86200000D01*
X89900000Y-86200000D02*
X88100000Y-86200000D01*
X90930000Y-83950000D02*
X90930000Y-85050000D01*
X90930000Y-85050000D02*
X89900000Y-85050000D01*
%TO.C,R69*%
X85550000Y-72820000D02*
X87450000Y-72820000D01*
X87450000Y-76180000D01*
X85550000Y-76180000D01*
X85550000Y-72820000D01*
%TO.C,C25*%
X88800000Y-74520000D02*
X92200000Y-74520000D01*
X92200000Y-76480000D01*
X88800000Y-76480000D01*
X88800000Y-74520000D01*
%TO.C,R16*%
X148394400Y-107197600D02*
X151754400Y-107197600D01*
X151754400Y-109097600D01*
X148394400Y-109097600D01*
X148394400Y-107197600D01*
%TO.C,C28*%
X85520000Y-87800000D02*
X87480000Y-87800000D01*
X87480000Y-91200000D01*
X85520000Y-91200000D01*
X85520000Y-87800000D01*
%TO.C,C26*%
X83520000Y-82800000D02*
X85480000Y-82800000D01*
X85480000Y-86200000D01*
X83520000Y-86200000D01*
X83520000Y-82800000D01*
%TO.C,R41*%
X179650000Y-63465800D02*
X181550000Y-63465800D01*
X181550000Y-66825800D01*
X179650000Y-66825800D01*
X179650000Y-63465800D01*
%TO.C,R131*%
X159820000Y-83050000D02*
X163180000Y-83050000D01*
X163180000Y-84950000D01*
X159820000Y-84950000D01*
X159820000Y-83050000D01*
%TO.C,U2*%
X153100000Y-92100000D02*
X153520000Y-92100000D01*
X153100000Y-97900000D02*
X153100000Y-92100000D01*
X153520000Y-90350000D02*
X158480000Y-90350000D01*
X153520000Y-92100000D02*
X153520000Y-90350000D01*
X153520000Y-97900000D02*
X153100000Y-97900000D01*
X153520000Y-99650000D02*
X153520000Y-97900000D01*
X158480000Y-90350000D02*
X158480000Y-92100000D01*
X158480000Y-92100000D02*
X158900000Y-92100000D01*
X158480000Y-97900000D02*
X158480000Y-99650000D01*
X158480000Y-99650000D02*
X153520000Y-99650000D01*
X158900000Y-92100000D02*
X158900000Y-97900000D01*
X158900000Y-97900000D02*
X158480000Y-97900000D01*
%TO.C,U12*%
X119150000Y-37570000D02*
X120550000Y-37570000D01*
X119150000Y-46930000D02*
X119150000Y-37570000D01*
X120550000Y-37150000D02*
X125450000Y-37150000D01*
X120550000Y-37570000D02*
X120550000Y-37150000D01*
X120550000Y-46930000D02*
X119150000Y-46930000D01*
X120550000Y-47350000D02*
X120550000Y-46930000D01*
X125450000Y-37150000D02*
X125450000Y-37570000D01*
X125450000Y-37570000D02*
X126850000Y-37570000D01*
X125450000Y-46930000D02*
X125450000Y-47350000D01*
X125450000Y-47350000D02*
X120550000Y-47350000D01*
X126850000Y-37570000D02*
X126850000Y-46930000D01*
X126850000Y-46930000D02*
X125450000Y-46930000D01*
%TO.C,R108*%
X183820000Y-137050000D02*
X187180000Y-137050000D01*
X187180000Y-138950000D01*
X183820000Y-138950000D01*
X183820000Y-137050000D01*
%TO.C,R122*%
X77550000Y-74820000D02*
X79450000Y-74820000D01*
X79450000Y-78180000D01*
X77550000Y-78180000D01*
X77550000Y-74820000D01*
%TO.C,F2*%
X70220000Y-94370000D02*
X74780000Y-94370000D01*
X74780000Y-96630000D01*
X70220000Y-96630000D01*
X70220000Y-94370000D01*
%TO.C,R70*%
X98050000Y-53820000D02*
X99950000Y-53820000D01*
X99950000Y-57180000D01*
X98050000Y-57180000D01*
X98050000Y-53820000D01*
%TO.C,R73*%
X80050000Y-82820000D02*
X81950000Y-82820000D01*
X81950000Y-86180000D01*
X80050000Y-86180000D01*
X80050000Y-82820000D01*
%TO.C,D21*%
X97070000Y-79000000D02*
X98100000Y-79000000D01*
X97070000Y-80110000D02*
X97070000Y-79000000D01*
X97070000Y-80890000D02*
X98100000Y-80890000D01*
X97070000Y-82000000D02*
X97070000Y-80890000D01*
X98100000Y-78800000D02*
X99900000Y-78800000D01*
X98100000Y-79000000D02*
X98100000Y-78800000D01*
X98100000Y-80110000D02*
X97070000Y-80110000D01*
X98100000Y-80890000D02*
X98100000Y-80110000D01*
X98100000Y-82000000D02*
X97070000Y-82000000D01*
X98100000Y-82200000D02*
X98100000Y-82000000D01*
X99900000Y-78800000D02*
X99900000Y-79950000D01*
X99900000Y-79950000D02*
X100930000Y-79950000D01*
X99900000Y-81050000D02*
X99900000Y-82200000D01*
X99900000Y-82200000D02*
X98100000Y-82200000D01*
X100930000Y-79950000D02*
X100930000Y-81050000D01*
X100930000Y-81050000D02*
X99900000Y-81050000D01*
%TO.C,R26*%
X116870000Y-64720000D02*
X119130000Y-64720000D01*
X119130000Y-69280000D01*
X116870000Y-69280000D01*
X116870000Y-64720000D01*
%TO.C,R3*%
X111596200Y-82760700D02*
X114956200Y-82760700D01*
X114956200Y-84660700D01*
X111596200Y-84660700D01*
X111596200Y-82760700D01*
%TO.C,C4*%
X191520000Y-97300000D02*
X193480000Y-97300000D01*
X193480000Y-100700000D01*
X191520000Y-100700000D01*
X191520000Y-97300000D01*
%TO.C,C34*%
X86520000Y-64800000D02*
X88480000Y-64800000D01*
X88480000Y-68200000D01*
X86520000Y-68200000D01*
X86520000Y-64800000D01*
%TO.C,D2*%
X159000000Y-52750000D02*
X166000000Y-52750000D01*
X159000000Y-56250000D02*
X159000000Y-52750000D01*
X166000000Y-52750000D02*
X166000000Y-56250000D01*
X166000000Y-56250000D02*
X159000000Y-56250000D01*
%TO.C,C78*%
X160800000Y-90020000D02*
X164200000Y-90020000D01*
X164200000Y-91980000D01*
X160800000Y-91980000D01*
X160800000Y-90020000D01*
%TO.C,C18*%
X178300000Y-104450000D02*
X178300000Y-106550000D01*
X178300000Y-106550000D02*
X179450000Y-106550000D01*
X179450000Y-103100000D02*
X179450000Y-104450000D01*
X179450000Y-103100000D02*
X180600000Y-101950000D01*
X179450000Y-104450000D02*
X178300000Y-104450000D01*
X179450000Y-106550000D02*
X179450000Y-107900000D01*
X179450000Y-107900000D02*
X180600000Y-109050000D01*
X180600000Y-101950000D02*
X186550000Y-101950000D01*
X180600000Y-109050000D02*
X186550000Y-109050000D01*
X186550000Y-101950000D02*
X186550000Y-104450000D01*
X186550000Y-104450000D02*
X187700000Y-104450000D01*
X186550000Y-106550000D02*
X186550000Y-109050000D01*
X187700000Y-104450000D02*
X187700000Y-106550000D01*
X187700000Y-106550000D02*
X186550000Y-106550000D01*
%TO.C,R75*%
X94550000Y-87820000D02*
X96450000Y-87820000D01*
X96450000Y-91180000D01*
X94550000Y-91180000D01*
X94550000Y-87820000D01*
%TO.C,C15*%
X179300000Y-85020000D02*
X182700000Y-85020000D01*
X182700000Y-86980000D01*
X179300000Y-86980000D01*
X179300000Y-85020000D01*
%TO.C,R123*%
X156320000Y-135550000D02*
X159680000Y-135550000D01*
X159680000Y-137450000D01*
X156320000Y-137450000D01*
X156320000Y-135550000D01*
%TO.C,Q6*%
X82350000Y-95050000D02*
X93650000Y-95050000D01*
X93650000Y-111700000D01*
X82350000Y-111700000D01*
X82350000Y-95050000D01*
%TO.C,BT1*%
X68130000Y-51710000D02*
X68130000Y-57290000D01*
X68130000Y-57290000D02*
X69120000Y-57290000D01*
X69120000Y-49000000D02*
X69120000Y-51710000D01*
X69120000Y-51710000D02*
X68130000Y-51710000D01*
X69120000Y-57290000D02*
X69120000Y-58140000D01*
X69120000Y-58140000D02*
X70560000Y-62120000D01*
X71260000Y-46860000D02*
X69120000Y-49000000D01*
X72800000Y-46860000D02*
X71260000Y-46860000D01*
X88740000Y-46860000D02*
X87200000Y-46860000D01*
X89430000Y-62130000D02*
X90880000Y-58140000D01*
X90880000Y-49000000D02*
X88740000Y-46860000D01*
X90880000Y-51710000D02*
X90880000Y-49000000D01*
X90880000Y-57290000D02*
X91870000Y-57290000D01*
X90880000Y-58140000D02*
X90880000Y-57290000D01*
X91870000Y-51710000D02*
X90880000Y-51710000D01*
X91870000Y-57290000D02*
X91870000Y-51710000D01*
X72800454Y-46859573D02*
G75*
G02*
X87200000Y-46860000I7199546J-7640430D01*
G01*
X74043035Y-63154604D02*
G75*
G02*
X70570000Y-62120000I-1353035J1804604D01*
G01*
X85945368Y-63150075D02*
G75*
G02*
X74040000Y-63140000I-5945368J8650076D01*
G01*
X89415144Y-62121341D02*
G75*
G02*
X85960000Y-63140000I-2105144J771341D01*
G01*
%TO.C,D18*%
X92300000Y-83600000D02*
X93450000Y-83600000D01*
X92300000Y-85400000D02*
X92300000Y-83600000D01*
X92500000Y-85400000D02*
X92300000Y-85400000D01*
X92500000Y-86430000D02*
X92500000Y-85400000D01*
X93450000Y-82570000D02*
X94550000Y-82570000D01*
X93450000Y-83600000D02*
X93450000Y-82570000D01*
X93610000Y-85400000D02*
X93610000Y-86430000D01*
X93610000Y-86430000D02*
X92500000Y-86430000D01*
X94390000Y-85400000D02*
X93610000Y-85400000D01*
X94390000Y-86430000D02*
X94390000Y-85400000D01*
X94550000Y-82570000D02*
X94550000Y-83600000D01*
X94550000Y-83600000D02*
X95700000Y-83600000D01*
X95500000Y-85400000D02*
X95500000Y-86430000D01*
X95500000Y-86430000D02*
X94390000Y-86430000D01*
X95700000Y-83600000D02*
X95700000Y-85400000D01*
X95700000Y-85400000D02*
X95500000Y-85400000D01*
%TO.C,R21*%
X130423700Y-72710600D02*
X133783700Y-72710600D01*
X133783700Y-74610600D01*
X130423700Y-74610600D01*
X130423700Y-72710600D01*
%TO.C,R18*%
X152363700Y-79498700D02*
X155723700Y-79498700D01*
X155723700Y-81398700D01*
X152363700Y-81398700D01*
X152363700Y-79498700D01*
%TO.C,R56*%
X100320000Y-62050000D02*
X103680000Y-62050000D01*
X103680000Y-63950000D01*
X100320000Y-63950000D01*
X100320000Y-62050000D01*
%TO.C,C16*%
X167950000Y-90950000D02*
X170450000Y-90950000D01*
X167950000Y-96900000D02*
X167950000Y-90950000D01*
X169100000Y-98050000D02*
X167950000Y-96900000D01*
X169100000Y-98050000D02*
X170450000Y-98050000D01*
X170450000Y-89800000D02*
X172550000Y-89800000D01*
X170450000Y-90950000D02*
X170450000Y-89800000D01*
X170450000Y-98050000D02*
X170450000Y-99200000D01*
X170450000Y-99200000D02*
X172550000Y-99200000D01*
X172550000Y-89800000D02*
X172550000Y-90950000D01*
X172550000Y-90950000D02*
X175050000Y-90950000D01*
X172550000Y-98050000D02*
X173900000Y-98050000D01*
X172550000Y-99200000D02*
X172550000Y-98050000D01*
X173900000Y-98050000D02*
X175050000Y-96900000D01*
X175050000Y-96900000D02*
X175050000Y-90950000D01*
%TO.C,R31*%
X208550000Y-55820000D02*
X210450000Y-55820000D01*
X210450000Y-59180000D01*
X208550000Y-59180000D01*
X208550000Y-55820000D01*
%TO.C,R114*%
X78820000Y-138050000D02*
X82180000Y-138050000D01*
X82180000Y-139950000D01*
X78820000Y-139950000D01*
X78820000Y-138050000D01*
%TO.C,D8*%
X175950000Y-59903300D02*
X177850000Y-59903300D01*
X177850000Y-63263300D01*
X175950000Y-63263300D01*
X175950000Y-59903300D01*
%TO.C,D26*%
X116300000Y-98600000D02*
X117450000Y-98600000D01*
X116300000Y-100400000D02*
X116300000Y-98600000D01*
X116500000Y-100400000D02*
X116300000Y-100400000D01*
X116500000Y-101430000D02*
X116500000Y-100400000D01*
X117450000Y-97570000D02*
X118550000Y-97570000D01*
X117450000Y-98600000D02*
X117450000Y-97570000D01*
X117610000Y-100400000D02*
X117610000Y-101430000D01*
X117610000Y-101430000D02*
X116500000Y-101430000D01*
X118390000Y-100400000D02*
X117610000Y-100400000D01*
X118390000Y-101430000D02*
X118390000Y-100400000D01*
X118550000Y-97570000D02*
X118550000Y-98600000D01*
X118550000Y-98600000D02*
X119700000Y-98600000D01*
X119500000Y-100400000D02*
X119500000Y-101430000D01*
X119500000Y-101430000D02*
X118390000Y-101430000D01*
X119700000Y-98600000D02*
X119700000Y-100400000D01*
X119700000Y-100400000D02*
X119500000Y-100400000D01*
%TO.C,C2*%
X177800000Y-88520000D02*
X181200000Y-88520000D01*
X181200000Y-90480000D01*
X177800000Y-90480000D01*
X177800000Y-88520000D01*
%TO.C,R40*%
X175950000Y-63378300D02*
X177850000Y-63378300D01*
X177850000Y-66738300D01*
X175950000Y-66738300D01*
X175950000Y-63378300D01*
%TO.C,C37*%
X116800000Y-94020000D02*
X120200000Y-94020000D01*
X120200000Y-95980000D01*
X116800000Y-95980000D01*
X116800000Y-94020000D01*
%TO.C,R32*%
X196820000Y-67050000D02*
X200180000Y-67050000D01*
X200180000Y-68950000D01*
X196820000Y-68950000D01*
X196820000Y-67050000D01*
%TO.C,R38*%
X177220000Y-53370000D02*
X181780000Y-53370000D01*
X181780000Y-55630000D01*
X177220000Y-55630000D01*
X177220000Y-53370000D01*
%TO.C,R4*%
X168306000Y-99637800D02*
X171666000Y-99637800D01*
X171666000Y-101537800D01*
X168306000Y-101537800D01*
X168306000Y-99637800D01*
%TO.C,R119*%
X69550000Y-120820000D02*
X71450000Y-120820000D01*
X71450000Y-124180000D01*
X69550000Y-124180000D01*
X69550000Y-120820000D01*
%TO.C,R83*%
X108550000Y-83820000D02*
X110450000Y-83820000D01*
X110450000Y-87180000D01*
X108550000Y-87180000D01*
X108550000Y-83820000D01*
%TO.C,R47*%
X190550000Y-86320000D02*
X192450000Y-86320000D01*
X192450000Y-89680000D01*
X190550000Y-89680000D01*
X190550000Y-86320000D01*
%TO.C,R105*%
X118250000Y-48020000D02*
X120150000Y-48020000D01*
X120150000Y-51380000D01*
X118250000Y-51380000D01*
X118250000Y-48020000D01*
%TO.C,C39*%
X116300000Y-114020000D02*
X119700000Y-114020000D01*
X119700000Y-115980000D01*
X116300000Y-115980000D01*
X116300000Y-114020000D01*
%TO.C,D30*%
X112570000Y-109000000D02*
X113600000Y-109000000D01*
X112570000Y-110110000D02*
X112570000Y-109000000D01*
X112570000Y-110890000D02*
X113600000Y-110890000D01*
X112570000Y-112000000D02*
X112570000Y-110890000D01*
X113600000Y-108800000D02*
X115400000Y-108800000D01*
X113600000Y-109000000D02*
X113600000Y-108800000D01*
X113600000Y-110110000D02*
X112570000Y-110110000D01*
X113600000Y-110890000D02*
X113600000Y-110110000D01*
X113600000Y-112000000D02*
X112570000Y-112000000D01*
X113600000Y-112200000D02*
X113600000Y-112000000D01*
X115400000Y-108800000D02*
X115400000Y-109950000D01*
X115400000Y-109950000D02*
X116430000Y-109950000D01*
X115400000Y-111050000D02*
X115400000Y-112200000D01*
X115400000Y-112200000D02*
X113600000Y-112200000D01*
X116430000Y-109950000D02*
X116430000Y-111050000D01*
X116430000Y-111050000D02*
X115400000Y-111050000D01*
%TD*%
D11*
X65000000Y-32000000D02*
X213000000Y-32000000D01*
X213000000Y-143500000D01*
X65000000Y-143500000D01*
X65000000Y-32000000D01*
M02*
