ISO-10303-21;
HEADER;
FILE_DESCRIPTION (( 'STEP AP214' ),
    '1' );
FILE_NAME ('BC547.STEP',
    '2022-05-16T12:53:19',
    ( '' ),
    ( '' ),
    'SwSTEP 2.0',
    'SolidWorks 2018',
    '' );
FILE_SCHEMA (( 'AUTOMOTIVE_DESIGN' ));
ENDSEC;

DATA;
#1 = ORIENTED_EDGE ( 'NONE', *, *, #759, .T. ) ;
#2 =( LENGTH_UNIT ( ) NAMED_UNIT ( * ) SI_UNIT ( .MILLI., .METRE. ) );
#3 = UNCERTAINTY_MEASURE_WITH_UNIT (LENGTH_MEASURE( 1.000000000000000082E-05 ), #164, 'distance_accuracy_value', 'NONE');
#4 = FILL_AREA_STYLE_COLOUR ( '', #143 ) ;
#5 = AXIS2_PLACEMENT_3D ( 'NONE', #1186, #511, #1192 ) ;
#6 = SURFACE_STYLE_USAGE ( .BOTH. , #989 ) ;
#7 =( LENGTH_UNIT ( ) NAMED_UNIT ( * ) SI_UNIT ( .MILLI., .METRE. ) );
#8 = FILL_AREA_STYLE ('',( #605 ) ) ;
#9 = DIRECTION ( 'NONE',  ( 0.000000000000000000, 0.000000000000000000, -1.000000000000000000 ) ) ;
#10 = EDGE_CURVE ( 'NONE', #728, #995, #117, .T. ) ;
#11 = CARTESIAN_POINT ( 'NONE',  ( 0.2800000000000009148, -15.61999999999999922, 0.4600000000000009637 ) ) ;
#12 = SURFACE_STYLE_FILL_AREA ( #925 ) ;
#13 = ORIENTED_EDGE ( 'NONE', *, *, #582, .F. ) ;
#14 = ORIENTED_EDGE ( 'NONE', *, *, #15, .T. ) ;
#15 = EDGE_CURVE ( 'NONE', #420, #173, #41, .T. ) ;
#16 = STYLED_ITEM ( 'NONE', ( #1130 ), #953 ) ;
#17 = SURFACE_SIDE_STYLE ('',( #814 ) ) ;
#18 = VECTOR ( 'NONE', #826, 1000.000000000000000 ) ;
#19 =( NAMED_UNIT ( * ) SI_UNIT ( $, .STERADIAN. ) SOLID_ANGLE_UNIT ( ) );
#20 = EDGE_CURVE ( 'NONE', #891, #27, #519, .T. ) ;
#21 = LINE ( 'NONE', #500, #36 ) ;
#22 = PRESENTATION_STYLE_ASSIGNMENT (( #754 ) ) ;
#23 = ORIENTED_EDGE ( 'NONE', *, *, #139, .F. ) ;
#24 =( GEOMETRIC_REPRESENTATION_CONTEXT ( 3 ) GLOBAL_UNCERTAINTY_ASSIGNED_CONTEXT ( ( #678 ) ) GLOBAL_UNIT_ASSIGNED_CONTEXT ( ( #868, #955, #255 ) ) REPRESENTATION_CONTEXT ( 'NONE', 'WORKASPACE' ) );
#25 = VERTEX_POINT ( 'NONE', #1027 ) ;
#26 =( LENGTH_UNIT ( ) NAMED_UNIT ( * ) SI_UNIT ( .MILLI., .METRE. ) );
#27 = VERTEX_POINT ( 'NONE', #625 ) ;
#28 = DIRECTION ( 'NONE',  ( 1.000000000000000000, 0.000000000000000000, -0.000000000000000000 ) ) ;
#29 = SURFACE_STYLE_FILL_AREA ( #682 ) ;
#30 = DIRECTION ( 'NONE',  ( -1.000000000000000000, -0.000000000000000000, 0.000000000000000000 ) ) ;
#31 = FILL_AREA_STYLE_COLOUR ( '', #51 ) ;
#32 = CARTESIAN_POINT ( 'NONE',  ( 0.9900000000000002132, 0.000000000000000000, -0.05999999999999901940 ) ) ;
#33 = FILL_AREA_STYLE_COLOUR ( '', #570 ) ;
#34 = CARTESIAN_POINT ( 'NONE',  ( 2.598798231321260310, 5.329619469809173893, -0.06582211191954648322 ) ) ;
#35 = PRESENTATION_STYLE_ASSIGNMENT (( #1174 ) ) ;
#36 = VECTOR ( 'NONE', #297, 1000.000000000000114 ) ;
#37 = VECTOR ( 'NONE', #140, 1000.000000000000227 ) ;
#38 = MANIFOLD_SOLID_BREP ( 'Cut-Extrude1', #981 ) ;
#39 = FILL_AREA_STYLE ('',( #525 ) ) ;
#40 = FILL_AREA_STYLE ('',( #626 ) ) ;
#41 = LINE ( 'NONE', #1111, #979 ) ;
#42 = ORIENTED_EDGE ( 'NONE', *, *, #1165, .F. ) ;
#43 = STYLED_ITEM ( 'NONE', ( #217 ), #655 ) ;
#44 = SURFACE_SIDE_STYLE ('',( #664 ) ) ;
#45 = FILL_AREA_STYLE_COLOUR ( '', #568 ) ;
#46 = DIRECTION ( 'NONE',  ( -1.000000000000000000, 0.000000000000000000, 0.000000000000000000 ) ) ;
#47 = EDGE_CURVE ( 'NONE', #62, #1018, #834, .T. ) ;
#48 = DIRECTION ( 'NONE',  ( 0.000000000000000000, -0.000000000000000000, 1.000000000000000000 ) ) ;
#49 = DIRECTION ( 'NONE',  ( 0.000000000000000000, 1.000000000000000000, 0.000000000000000000 ) ) ;
#50 = PRESENTATION_LAYER_ASSIGNMENT (  '', '', ( #530 ) ) ;
#51 = COLOUR_RGB ( '',0.2509803921568627416, 0.2509803921568627416, 0.2509803921568627416 ) ;
#52 = CARTESIAN_POINT ( 'NONE',  ( -0.9734972654451223839, 2.928547613146686324, 2.411473475924669874 ) ) ;
#53 = CARTESIAN_POINT ( 'NONE',  ( 0.000000000000000000, 0.000000000000000000, -0.05999999999991690453 ) ) ;
#54 = PRESENTATION_STYLE_ASSIGNMENT (( #767 ) ) ;
#55 = CARTESIAN_POINT ( 'NONE',  ( 0.9900000000000002132, -15.61999999999999922, 0.4600000000000011857 ) ) ;
#56 = COLOUR_RGB ( '',1.000000000000000000, 1.000000000000000000, 1.000000000000000000 ) ;
#57 = FACE_OUTER_BOUND ( 'NONE', #233, .T. ) ;
#58 = ORIENTED_EDGE ( 'NONE', *, *, #20, .T. ) ;
#59 = SURFACE_SIDE_STYLE ('',( #1101 ) ) ;
#60 = ORIENTED_EDGE ( 'NONE', *, *, #384, .T. ) ;
#61 = STYLED_ITEM ( 'NONE', ( #914 ), #135 ) ;
#62 = VERTEX_POINT ( 'NONE', #621 ) ;
#63 = STYLED_ITEM ( 'NONE', ( #97 ), #1141 ) ;
#64 = FACE_OUTER_BOUND ( 'NONE', #119, .T. ) ;
#65 = FILL_AREA_STYLE_COLOUR ( '', #396 ) ;
#66 =( LENGTH_UNIT ( ) NAMED_UNIT ( * ) SI_UNIT ( .MILLI., .METRE. ) );
#67 = CARTESIAN_POINT ( 'NONE',  ( -0.2799999999999990830, -15.61999999999999922, -0.05999999999999913042 ) ) ;
#68 = VECTOR ( 'NONE', #28, 1000.000000000000000 ) ;
#69 = DIRECTION ( 'NONE',  ( 0.000000000000000000, 0.000000000000000000, 1.000000000000000000 ) ) ;
#70 = STYLED_ITEM ( 'NONE', ( #800 ), #540 ) ;
#71 = FACE_BOUND ( 'NONE', #231, .T. ) ;
#72 = FILL_AREA_STYLE ('',( #470 ) ) ;
#73 = SURFACE_STYLE_FILL_AREA ( #894 ) ;
#74 = VECTOR ( 'NONE', #755, 1000.000000000000000 ) ;
#75 = ORIENTED_EDGE ( 'NONE', *, *, #535, .F. ) ;
#76 = ORIENTED_EDGE ( 'NONE', *, *, #223, .T. ) ;
#77 = DIRECTION ( 'NONE',  ( 1.000000000000000000, 0.000000000000000000, 0.000000000000000000 ) ) ;
#78 = MECHANICAL_DESIGN_GEOMETRIC_PRESENTATION_REPRESENTATION (  '', ( #403 ), #833 ) ;
#79 =( NAMED_UNIT ( * ) PLANE_ANGLE_UNIT ( ) SI_UNIT ( $, .RADIAN. ) );
#80 = PRODUCT ( 'BC547', 'BC547', '', ( #464 ) ) ;
#81 = SURFACE_SIDE_STYLE ('',( #660 ) ) ;
#82 = FACE_OUTER_BOUND ( 'NONE', #1156, .T. ) ;
#83 = APPLICATION_CONTEXT ( 'automotive_design' ) ;
#84 = EDGE_CURVE ( 'NONE', #343, #1084, #801, .T. ) ;
#85 = FACE_OUTER_BOUND ( 'NONE', #408, .T. ) ;
#86 =( NAMED_UNIT ( * ) SI_UNIT ( $, .STERADIAN. ) SOLID_ANGLE_UNIT ( ) );
#87 = MECHANICAL_DESIGN_GEOMETRIC_PRESENTATION_REPRESENTATION (  '', ( #726 ), #659 ) ;
#88 = FACE_OUTER_BOUND ( 'NONE', #879, .T. ) ;
#89 = SURFACE_STYLE_USAGE ( .BOTH. , #1252 ) ;
#90 = ORIENTED_EDGE ( 'NONE', *, *, #94, .T. ) ;
#91 = DIRECTION ( 'NONE',  ( -1.000000000000000000, 0.000000000000000000, -0.000000000000000000 ) ) ;
#92 = ORIENTED_EDGE ( 'NONE', *, *, #412, .T. ) ;
#93 = EDGE_LOOP ( 'NONE', ( #1168, #345, #235, #859, #764, #572, #745, #23, #523, #633, #725, #496, #681, #788 ) ) ;
#94 = EDGE_CURVE ( 'NONE', #891, #554, #174, .T. ) ;
#95 =( NAMED_UNIT ( * ) SI_UNIT ( $, .STERADIAN. ) SOLID_ANGLE_UNIT ( ) );
#96 = MECHANICAL_DESIGN_GEOMETRIC_PRESENTATION_REPRESENTATION (  '', ( #1258 ), #253 ) ;
#97 = PRESENTATION_STYLE_ASSIGNMENT (( #961 ) ) ;
#98 = UNCERTAINTY_MEASURE_WITH_UNIT (LENGTH_MEASURE( 1.000000000000000082E-05 ), #1212, 'distance_accuracy_value', 'NONE');
#99 = CARTESIAN_POINT ( 'NONE',  ( -0.2799999999999991385, -15.61999999999999922, 0.4600000000000009637 ) ) ;
#100 =( NAMED_UNIT ( * ) PLANE_ANGLE_UNIT ( ) SI_UNIT ( $, .RADIAN. ) );
#101 = SURFACE_SIDE_STYLE ('',( #614 ) ) ;
#102 =( GEOMETRIC_REPRESENTATION_CONTEXT ( 3 ) GLOBAL_UNCERTAINTY_ASSIGNED_CONTEXT ( ( #984 ) ) GLOBAL_UNIT_ASSIGNED_CONTEXT ( ( #367, #163, #741 ) ) REPRESENTATION_CONTEXT ( 'NONE', 'WORKASPACE' ) );
#103 = FACE_OUTER_BOUND ( 'NONE', #299, .T. ) ;
#104 = VECTOR ( 'NONE', #307, 1000.000000000000000 ) ;
#105 = ORIENTED_EDGE ( 'NONE', *, *, #972, .F. ) ;
#106 = ORIENTED_EDGE ( 'NONE', *, *, #10, .F. ) ;
#107 = PLANE ( 'NONE',  #425 ) ;
#108 = ORIENTED_EDGE ( 'NONE', *, *, #1047, .T. ) ;
#109 = CARTESIAN_POINT ( 'NONE',  ( 2.365449944917340730, 5.229999999999999538, -1.590000000000000302 ) ) ;
#110 = MECHANICAL_DESIGN_GEOMETRIC_PRESENTATION_REPRESENTATION (  '', ( #410 ), #180 ) ;
#111 = SURFACE_STYLE_USAGE ( .BOTH. , #17 ) ;
#112 = SURFACE_STYLE_FILL_AREA ( #40 ) ;
#113 = EDGE_CURVE ( 'NONE', #637, #266, #901, .T. ) ;
#114 = COLOUR_RGB ( '',1.000000000000000000, 1.000000000000000000, 1.000000000000000000 ) ;
#115 =( GEOMETRIC_REPRESENTATION_CONTEXT ( 3 ) GLOBAL_UNCERTAINTY_ASSIGNED_CONTEXT ( ( #98 ) ) GLOBAL_UNIT_ASSIGNED_CONTEXT ( ( #1212, #1202, #1118 ) ) REPRESENTATION_CONTEXT ( 'NONE', 'WORKASPACE' ) );
#116 = DIRECTION ( 'NONE',  ( 0.000000000000000000, -0.000000000000000000, 1.000000000000000000 ) ) ;
#117 = LINE ( 'NONE', #132, #1137 ) ;
#118 = ORIENTED_EDGE ( 'NONE', *, *, #84, .F. ) ;
#119 = EDGE_LOOP ( 'NONE', ( #389, #1268, #324, #967 ) ) ;
#120 = COLOUR_RGB ( '',1.000000000000000000, 1.000000000000000000, 1.000000000000000000 ) ;
#121 =( GEOMETRIC_REPRESENTATION_CONTEXT ( 3 ) GLOBAL_UNCERTAINTY_ASSIGNED_CONTEXT ( ( #216 ) ) GLOBAL_UNIT_ASSIGNED_CONTEXT ( ( #2, #100, #792 ) ) REPRESENTATION_CONTEXT ( 'NONE', 'WORKASPACE' ) );
#122 = AXIS2_PLACEMENT_3D ( 'NONE', #856, #364, #438 ) ;
#123 =( NAMED_UNIT ( * ) PLANE_ANGLE_UNIT ( ) SI_UNIT ( $, .RADIAN. ) );
#124 =( LENGTH_UNIT ( ) NAMED_UNIT ( * ) SI_UNIT ( .MILLI., .METRE. ) );
#125 = DIRECTION ( 'NONE',  ( 0.000000000000000000, 0.000000000000000000, 1.000000000000000000 ) ) ;
#126 = VECTOR ( 'NONE', #136, 1000.000000000000000 ) ;
#127 = PLANE ( 'NONE',  #597 ) ;
#128 = AXIS2_PLACEMENT_3D ( 'NONE', #978, #176, #574 ) ;
#129 = ORIENTED_EDGE ( 'NONE', *, *, #1019, .F. ) ;
#130 = FILL_AREA_STYLE ('',( #923 ) ) ;
#131 = ORIENTED_EDGE ( 'NONE', *, *, #1263, .T. ) ;
#132 = CARTESIAN_POINT ( 'NONE',  ( 0.2800000000000009148, -15.61999999999999922, 0.4600000000000009637 ) ) ;
#133 = CARTESIAN_POINT ( 'NONE',  ( 0.9900000000000002132, 0.000000000000000000, -0.05999999999999901940 ) ) ;
#134 = EDGE_LOOP ( 'NONE', ( #246, #151, #715, #969 ) ) ;
#135 = ADVANCED_FACE ( 'NONE', ( #376 ), #866, .F. ) ;
#136 = DIRECTION ( 'NONE',  ( 1.000000000000000000, 0.000000000000000000, 0.000000000000000000 ) ) ;
#137 =( NAMED_UNIT ( * ) PLANE_ANGLE_UNIT ( ) SI_UNIT ( $, .RADIAN. ) );
#138 = CARTESIAN_POINT ( 'NONE',  ( 0.9900000000000002132, 0.000000000000000000, 0.4600000000000011857 ) ) ;
#139 = EDGE_CURVE ( 'NONE', #995, #903, #339, .T. ) ;
#140 = DIRECTION ( 'NONE',  ( -0.08697158355000610130, 0.06497318619807469775, -0.9940897488305945329 ) ) ;
#141 = CARTESIAN_POINT ( 'NONE',  ( 2.599307600111999683, 5.330000000000000071, -0.05999999999999961614 ) ) ;
#142 = CARTESIAN_POINT ( 'NONE',  ( 0.2800000000000009148, 0.000000000000000000, 0.4600000000000009637 ) ) ;
#143 = COLOUR_RGB ( '',1.000000000000000000, 1.000000000000000000, 1.000000000000000000 ) ;
#144 = COLOUR_RGB ( '',1.000000000000000000, 1.000000000000000000, 1.000000000000000000 ) ;
#145 = FILL_AREA_STYLE ('',( #1127 ) ) ;
#146 = SURFACE_STYLE_FILL_AREA ( #542 ) ;
#147 = DIRECTION ( 'NONE',  ( 0.08697158355000635110, -0.06497318619807485041, -0.9940897488305945329 ) ) ;
#148 = EDGE_CURVE ( 'NONE', #477, #665, #243, .T. ) ;
#149 = DIRECTION ( 'NONE',  ( -0.000000000000000000, 1.000000000000000000, -0.000000000000000000 ) ) ;
#150 = VERTEX_POINT ( 'NONE', #944 ) ;
#151 = ORIENTED_EDGE ( 'NONE', *, *, #985, .F. ) ;
#152 = UNCERTAINTY_MEASURE_WITH_UNIT (LENGTH_MEASURE( 1.000000000000000082E-05 ), #499, 'distance_accuracy_value', 'NONE');
#153 = MECHANICAL_DESIGN_GEOMETRIC_PRESENTATION_REPRESENTATION (  '', ( #63 ), #1063 ) ;
#154 = ADVANCED_FACE ( 'NONE', ( #167 ), #1048, .F. ) ;
#155 = CARTESIAN_POINT ( 'NONE',  ( -1.000000000000000444, 2.796798419899828136, 2.400000000000000355 ) ) ;
#156 = SURFACE_STYLE_USAGE ( .BOTH. , #260 ) ;
#157 = EDGE_CURVE ( 'NONE', #905, #477, #1034, .T. ) ;
#158 = SURFACE_SIDE_STYLE ('',( #1080 ) ) ;
#159 = DIRECTION ( 'NONE',  ( -0.000000000000000000, 1.000000000000000000, -0.000000000000000000 ) ) ;
#160 = MECHANICAL_DESIGN_GEOMETRIC_PRESENTATION_REPRESENTATION (  '', ( #530 ), #24 ) ;
#161 = FACE_OUTER_BOUND ( 'NONE', #214, .T. ) ;
#162 = CARTESIAN_POINT ( 'NONE',  ( -0.7999219129518815308, 3.279189871241273480, 2.475752574436438813 ) ) ;
#163 =( NAMED_UNIT ( * ) PLANE_ANGLE_UNIT ( ) SI_UNIT ( $, .RADIAN. ) );
#164 =( LENGTH_UNIT ( ) NAMED_UNIT ( * ) SI_UNIT ( .MILLI., .METRE. ) );
#165 = VECTOR ( 'NONE', #292, 1000.000000000000000 ) ;
#166 = ADVANCED_FACE ( 'NONE', ( #631 ), #474, .F. ) ;
#167 = FACE_OUTER_BOUND ( 'NONE', #93, .T. ) ;
#168 = CARTESIAN_POINT ( 'NONE',  ( 0.8719819532578481081, 3.172026106050864325, 2.450021658463421126 ) ) ;
#169 = ORIENTED_EDGE ( 'NONE', *, *, #249, .F. ) ;
#170 = AXIS2_PLACEMENT_3D ( 'NONE', #1054, #247, #256 ) ;
#171 = CARTESIAN_POINT ( 'NONE',  ( -1.550000000000000266, 0.000000000000000000, 0.4600000000000006861 ) ) ;
#172 = ORIENTED_EDGE ( 'NONE', *, *, #1194, .F. ) ;
#173 = VERTEX_POINT ( 'NONE', #559 ) ;
#174 = B_SPLINE_CURVE_WITH_KNOTS ( 'NONE', 3,
 ( #830, #1213, #330, #941, #639, #729, #538, #430, #934, #332, #1024, #423, #1115, #528, #1210, #552, #1128, #656 ),
 .UNSPECIFIED., .F., .F.,
 ( 4, 2, 2, 2, 2, 2, 2, 2, 4 ),
 ( 0.004734978861747778968, 0.005129727268994569399, 0.005524475676241359830, 0.005919224083488149393, 0.006313972490734939824, 0.006708720897981730255, 0.007103469305228520686, 0.007498217712475311117, 0.007892966119722101548 ),
 .UNSPECIFIED. ) ;
#175 = VECTOR ( 'NONE', #49, 1000.000000000000000 ) ;
#176 = DIRECTION ( 'NONE',  ( 0.000000000000000000, 0.9978708884038351989, 0.06522031950351525609 ) ) ;
#177 =( NAMED_UNIT ( * ) SI_UNIT ( $, .STERADIAN. ) SOLID_ANGLE_UNIT ( ) );
#178 = PLANE ( 'NONE',  #128 ) ;
#179 = UNCERTAINTY_MEASURE_WITH_UNIT (LENGTH_MEASURE( 1.000000000000000082E-05 ), #274, 'distance_accuracy_value', 'NONE');
#180 =( GEOMETRIC_REPRESENTATION_CONTEXT ( 3 ) GLOBAL_UNCERTAINTY_ASSIGNED_CONTEXT ( ( #275 ) ) GLOBAL_UNIT_ASSIGNED_CONTEXT ( ( #699, #794, #900 ) ) REPRESENTATION_CONTEXT ( 'NONE', 'WORKASPACE' ) );
#181 = LINE ( 'NONE', #196, #241 ) ;
#182 = SURFACE_STYLE_FILL_AREA ( #599 ) ;
#183 = SURFACE_STYLE_USAGE ( .BOTH. , #770 ) ;
#184 = FILL_AREA_STYLE ('',( #881 ) ) ;
#185 = VECTOR ( 'NONE', #855, 1000.000000000000000 ) ;
#186 = EDGE_CURVE ( 'NONE', #282, #904, #873, .T. ) ;
#187 = VERTEX_POINT ( 'NONE', #1142 ) ;
#188 =( LENGTH_UNIT ( ) NAMED_UNIT ( * ) SI_UNIT ( .MILLI., .METRE. ) );
#189 = STYLED_ITEM ( 'NONE', ( #886 ), #733 ) ;
#190 = CARTESIAN_POINT ( 'NONE',  ( -0.9899999999999999911, -15.61999999999999922, 0.4600000000000006861 ) ) ;
#191 = DIRECTION ( 'NONE',  ( 1.000000000000000000, 0.000000000000000000, 0.000000000000000000 ) ) ;
#192 = COLOUR_RGB ( '',0.2509803921568627416, 0.2509803921568627416, 0.2509803921568627416 ) ;
#193 =( NAMED_UNIT ( * ) PLANE_ANGLE_UNIT ( ) SI_UNIT ( $, .RADIAN. ) );
#194 = CARTESIAN_POINT ( 'NONE',  ( 0.2800000000000009703, -15.61999999999999922, -0.05999999999999913042 ) ) ;
#195 = UNCERTAINTY_MEASURE_WITH_UNIT (LENGTH_MEASURE( 1.000000000000000082E-05 ), #206, 'distance_accuracy_value', 'NONE');
#196 = CARTESIAN_POINT ( 'NONE',  ( 2.365449944917340730, 5.330000000000000071, -1.590000000000000302 ) ) ;
#197 = STYLED_ITEM ( 'NONE', ( #225 ), #362 ) ;
#198 =( NAMED_UNIT ( * ) PLANE_ANGLE_UNIT ( ) SI_UNIT ( $, .RADIAN. ) );
#199 = AXIS2_PLACEMENT_3D ( 'NONE', #484, #875, #1161 ) ;
#200 = LINE ( 'NONE', #683, #1177 ) ;
#201 = DIRECTION ( 'NONE',  ( 1.000000000000000000, 0.000000000000000000, 0.000000000000000000 ) ) ;
#202 = COLOUR_RGB ( '',0.2509803921568627416, 0.2509803921568627416, 0.2509803921568627416 ) ;
#203 = ORIENTED_EDGE ( 'NONE', *, *, #148, .F. ) ;
#204 = VERTEX_POINT ( 'NONE', #1077 ) ;
#205 = AXIS2_PLACEMENT_3D ( 'NONE', #379, #77, #466 ) ;
#206 =( LENGTH_UNIT ( ) NAMED_UNIT ( * ) SI_UNIT ( .MILLI., .METRE. ) );
#207 = FILL_AREA_STYLE ('',( #4 ) ) ;
#208 = CARTESIAN_POINT ( 'NONE',  ( 0.000000000000000000, 2.665000000000000036, 0.000000000000000000 ) ) ;
#209 = AXIS2_PLACEMENT_3D ( 'NONE', #999, #309, #1176 ) ;
#210 = COLOUR_RGB ( '',1.000000000000000000, 1.000000000000000000, 1.000000000000000000 ) ;
#211 = DIRECTION ( 'NONE',  ( 0.000000000000000000, 0.000000000000000000, 1.000000000000000000 ) ) ;
#212 = VECTOR ( 'NONE', #838, 1000.000000000000114 ) ;
#213 = EDGE_LOOP ( 'NONE', ( #806, #1094, #785, #1199 ) ) ;
#214 = EDGE_LOOP ( 'NONE', ( #1086, #1183, #915, #1253 ) ) ;
#215 = DIRECTION ( 'NONE',  ( 0.1510196638374126099, 0.06447229192933218167, 0.9864260665188312460 ) ) ;
#216 = UNCERTAINTY_MEASURE_WITH_UNIT (LENGTH_MEASURE( 1.000000000000000082E-05 ), #2, 'distance_accuracy_value', 'NONE');
#217 = PRESENTATION_STYLE_ASSIGNMENT (( #769 ) ) ;
#218 = EDGE_CURVE ( 'NONE', #173, #555, #710, .T. ) ;
#219 = LINE ( 'NONE', #55, #237 ) ;
#220 = AXIS2_PLACEMENT_3D ( 'NONE', #546, #262, #863 ) ;
#221 = CARTESIAN_POINT ( 'NONE',  ( -0.9899999999999999911, 0.000000000000000000, 0.4600000000000006861 ) ) ;
#222 = SURFACE_SIDE_STYLE ('',( #1251 ) ) ;
#223 = EDGE_CURVE ( 'NONE', #282, #637, #852, .T. ) ;
#224 = PRESENTATION_LAYER_ASSIGNMENT (  '', '', ( #70 ) ) ;
#225 = PRESENTATION_STYLE_ASSIGNMENT (( #111 ) ) ;
#226 = VECTOR ( 'NONE', #527, 1000.000000000000000 ) ;
#227 = PLANE ( 'NONE',  #696 ) ;
#228 = VERTEX_POINT ( 'NONE', #1171 ) ;
#229 = DIRECTION ( 'NONE',  ( 0.1510196638374121103, 0.06447229192933204289, -0.9864260665188313570 ) ) ;
#230 = CARTESIAN_POINT ( 'NONE',  ( 2.365449944917340730, 0.1000000000000002554, -1.590000000000000302 ) ) ;
#231 = EDGE_LOOP ( 'NONE', ( #874, #803 ) ) ;
#232 = UNCERTAINTY_MEASURE_WITH_UNIT (LENGTH_MEASURE( 1.000000000000000082E-05 ), #661, 'distance_accuracy_value', 'NONE');
#233 = EDGE_LOOP ( 'NONE', ( #1221, #937, #980, #761 ) ) ;
#234 = UNCERTAINTY_MEASURE_WITH_UNIT (LENGTH_MEASURE( 1.000000000000000082E-05 ), #1009, 'distance_accuracy_value', 'NONE');
#235 = ORIENTED_EDGE ( 'NONE', *, *, #1126, .F. ) ;
#236 = CARTESIAN_POINT ( 'NONE',  ( 1.000000000001266098, 2.664999999997883950, 2.399999999999711253 ) ) ;
#237 = VECTOR ( 'NONE', #1238, 1000.000000000000000 ) ;
#238 = STYLED_ITEM ( 'NONE', ( #933 ), #154 ) ;
#239 = CARTESIAN_POINT ( 'NONE',  ( -0.2799999999999991385, 0.000000000000000000, 0.4600000000000009637 ) ) ;
#240 = ADVANCED_FACE ( 'NONE', ( #566 ), #786, .F. ) ;
#241 = VECTOR ( 'NONE', #1185, 1000.000000000000000 ) ;
#242 = CARTESIAN_POINT ( 'NONE',  ( -0.2799999999999990830, 0.000000000000000000, -0.05999999999999913042 ) ) ;
#243 = LINE ( 'NONE', #141, #185 ) ;
#244 = AXIS2_PLACEMENT_3D ( 'NONE', #1092, #784, #1000 ) ;
#245 =( NAMED_UNIT ( * ) SI_UNIT ( $, .STERADIAN. ) SOLID_ANGLE_UNIT ( ) );
#246 = ORIENTED_EDGE ( 'NONE', *, *, #1126, .T. ) ;
#247 = DIRECTION ( 'NONE',  ( 0.000000000000000000, -0.000000000000000000, 1.000000000000000000 ) ) ;
#248 = VERTEX_POINT ( 'NONE', #888 ) ;
#249 = EDGE_CURVE ( 'NONE', #1240, #665, #296, .T. ) ;
#250 = CARTESIAN_POINT ( 'NONE',  ( 2.599307600111999683, 0.000000000000000000, -0.05999999999999961614 ) ) ;
#251 =( NAMED_UNIT ( * ) SI_UNIT ( $, .STERADIAN. ) SOLID_ANGLE_UNIT ( ) );
#252 = DIRECTION ( 'NONE',  ( 0.000000000000000000, 0.000000000000000000, 1.000000000000000000 ) ) ;
#253 =( GEOMETRIC_REPRESENTATION_CONTEXT ( 3 ) GLOBAL_UNCERTAINTY_ASSIGNED_CONTEXT ( ( #927 ) ) GLOBAL_UNIT_ASSIGNED_CONTEXT ( ( #188, #672, #777 ) ) REPRESENTATION_CONTEXT ( 'NONE', 'WORKASPACE' ) );
#254 = PRODUCT_DEFINITION_FORMATION_WITH_SPECIFIED_SOURCE ( 'ANY', '', #80, .NOT_KNOWN. ) ;
#255 =( NAMED_UNIT ( * ) SI_UNIT ( $, .STERADIAN. ) SOLID_ANGLE_UNIT ( ) );
#256 = DIRECTION ( 'NONE',  ( 1.000000000000000000, 0.000000000000000000, -0.000000000000000000 ) ) ;
#257 = SURFACE_STYLE_USAGE ( .BOTH. , #460 ) ;
#258 = FACE_OUTER_BOUND ( 'NONE', #134, .T. ) ;
#259 = FACE_OUTER_BOUND ( 'NONE', #857, .T. ) ;
#260 = SURFACE_SIDE_STYLE ('',( #1134 ) ) ;
#261 = MECHANICAL_DESIGN_GEOMETRIC_PRESENTATION_REPRESENTATION (  '', ( #564 ), #907 ) ;
#262 = DIRECTION ( 'NONE',  ( -1.000000000000000000, 0.000000000000000000, -0.000000000000000000 ) ) ;
#263 = VECTOR ( 'NONE', #1035, 1000.000000000000000 ) ;
#264 = ORIENTED_EDGE ( 'NONE', *, *, #1230, .F. ) ;
#265 = STYLED_ITEM ( 'NONE', ( #394 ), #943 ) ;
#266 = VERTEX_POINT ( 'NONE', #701 ) ;
#267 = CARTESIAN_POINT ( 'NONE',  ( 1.550000000000000488, 0.000000000000000000, 0.4600000000000011302 ) ) ;
#268 = EDGE_LOOP ( 'NONE', ( #966, #60, #1053, #805 ) ) ;
#269 = CARTESIAN_POINT ( 'NONE',  ( -2.579646290966264299, 5.315311778308718260, -0.2847297918765296365 ) ) ;
#270 = CARTESIAN_POINT ( 'NONE',  ( 0.9900000000000002132, -15.61999999999999922, -0.05999999999999901940 ) ) ;
#271 = CARTESIAN_POINT ( 'NONE',  ( 0.6150208669010998053, 3.464081015989382895, 2.528007162704259958 ) ) ;
#272 = FILL_AREA_STYLE ('',( #766 ) ) ;
#273 =( GEOMETRIC_REPRESENTATION_CONTEXT ( 3 ) GLOBAL_UNCERTAINTY_ASSIGNED_CONTEXT ( ( #179 ) ) GLOBAL_UNIT_ASSIGNED_CONTEXT ( ( #274, #685, #285 ) ) REPRESENTATION_CONTEXT ( 'NONE', 'WORKASPACE' ) );
#274 =( LENGTH_UNIT ( ) NAMED_UNIT ( * ) SI_UNIT ( .MILLI., .METRE. ) );
#275 = UNCERTAINTY_MEASURE_WITH_UNIT (LENGTH_MEASURE( 1.000000000000000082E-05 ), #699, 'distance_accuracy_value', 'NONE');
#276 = CARTESIAN_POINT ( 'NONE',  ( -1.550000000000000266, -15.61999999999999922, 0.4600000000000006861 ) ) ;
#277 = LINE ( 'NONE', #391, #798 ) ;
#278 = LINE ( 'NONE', #1026, #37 ) ;
#279 = EDGE_CURVE ( 'NONE', #620, #904, #21, .T. ) ;
#280 = VECTOR ( 'NONE', #1146, 1000.000000000000000 ) ;
#281 = DIRECTION ( 'NONE',  ( 0.000000000000000000, -0.000000000000000000, -1.000000000000000000 ) ) ;
#282 = VERTEX_POINT ( 'NONE', #902 ) ;
#283 = ORIENTED_EDGE ( 'NONE', *, *, #1263, .F. ) ;
#284 = ORIENTED_EDGE ( 'NONE', *, *, #1099, .F. ) ;
#285 =( NAMED_UNIT ( * ) SI_UNIT ( $, .STERADIAN. ) SOLID_ANGLE_UNIT ( ) );
#286 = SURFACE_STYLE_FILL_AREA ( #184 ) ;
#287 =( LENGTH_UNIT ( ) NAMED_UNIT ( * ) SI_UNIT ( .MILLI., .METRE. ) );
#288 =( NAMED_UNIT ( * ) PLANE_ANGLE_UNIT ( ) SI_UNIT ( $, .RADIAN. ) );
#289 = EDGE_CURVE ( 'NONE', #266, #716, #964, .T. ) ;
#290 = LINE ( 'NONE', #926, #68 ) ;
#291 =( NAMED_UNIT ( * ) SI_UNIT ( $, .STERADIAN. ) SOLID_ANGLE_UNIT ( ) );
#292 = DIRECTION ( 'NONE',  ( 1.000000000000000000, 0.000000000000000000, -0.000000000000000000 ) ) ;
#293 = FACE_OUTER_BOUND ( 'NONE', #365, .T. ) ;
#294 = UNCERTAINTY_MEASURE_WITH_UNIT (LENGTH_MEASURE( 1.000000000000000082E-05 ), #124, 'distance_accuracy_value', 'NONE');
#295 = CARTESIAN_POINT ( 'NONE',  ( -0.9899999999999999911, -15.61999999999999922, 0.4600000000000006861 ) ) ;
#296 = LINE ( 'NONE', #1181, #165 ) ;
#297 = DIRECTION ( 'NONE',  ( -0.1510196638374121103, 0.06447229192933219555, 0.9864260665188313570 ) ) ;
#298 = VECTOR ( 'NONE', #654, 1000.000000000000000 ) ;
#299 = EDGE_LOOP ( 'NONE', ( #698, #1038, #13, #118, #1122, #169, #75, #1207, #1239, #129, #1119, #635 ) ) ;
#300 = EDGE_CURVE ( 'NONE', #187, #995, #277, .T. ) ;
#301 = EDGE_LOOP ( 'NONE', ( #1241, #106, #700, #461 ) ) ;
#302 = ORIENTED_EDGE ( 'NONE', *, *, #649, .T. ) ;
#303 = STYLED_ITEM ( 'NONE', ( #1163 ), #837 ) ;
#304 = DIRECTION ( 'NONE',  ( -1.042502088928369534E-16, -0.000000000000000000, 1.000000000000000000 ) ) ;
#305 = VECTOR ( 'NONE', #1065, 1000.000000000000000 ) ;
#306 = DIRECTION ( 'NONE',  ( -0.000000000000000000, 0.000000000000000000, 1.000000000000000000 ) ) ;
#307 = DIRECTION ( 'NONE',  ( -0.000000000000000000, -1.000000000000000000, -0.000000000000000000 ) ) ;
#308 = AXIS2_PLACEMENT_3D ( 'NONE', #1222, #363, #1135 ) ;
#309 = DIRECTION ( 'NONE',  ( -1.000000000000000000, 0.000000000000000000, -1.042502088928369534E-16 ) ) ;
#310 = COLOUR_RGB ( '',1.000000000000000000, 1.000000000000000000, 1.000000000000000000 ) ;
#311 = SURFACE_STYLE_FILL_AREA ( #898 ) ;
#312 = PRODUCT_DEFINITION_CONTEXT ( 'detailed design', #571, 'design' ) ;
#313 = EDGE_LOOP ( 'NONE', ( #1071, #651, #439, #1083 ) ) ;
#314 = ORIENTED_EDGE ( 'NONE', *, *, #972, .T. ) ;
#315 = AXIS2_PLACEMENT_3D ( 'NONE', #1121, #1211, #742 ) ;
#316 = UNCERTAINTY_MEASURE_WITH_UNIT (LENGTH_MEASURE( 1.000000000000000082E-05 ), #7, 'distance_accuracy_value', 'NONE');
#317 = VECTOR ( 'NONE', #1025, 1000.000000000000000 ) ;
#318 = EDGE_CURVE ( 'NONE', #617, #150, #200, .T. ) ;
#319 = FILL_AREA_STYLE_COLOUR ( '', #56 ) ;
#320 = LINE ( 'NONE', #482, #1264 ) ;
#321 = FACE_OUTER_BOUND ( 'NONE', #1104, .T. ) ;
#322 = LINE ( 'NONE', #932, #226 ) ;
#323 = PRESENTATION_STYLE_ASSIGNMENT (( #722 ) ) ;
#324 = ORIENTED_EDGE ( 'NONE', *, *, #148, .T. ) ;
#325 = DIRECTION ( 'NONE',  ( -1.000000000000000000, 0.000000000000000000, 9.680376540049142154E-17 ) ) ;
#326 = ORIENTED_EDGE ( 'NONE', *, *, #469, .T. ) ;
#327 = AXIS2_PLACEMENT_3D ( 'NONE', #994, #397, #325 ) ;
#328 =( GEOMETRIC_REPRESENTATION_CONTEXT ( 3 ) GLOBAL_UNCERTAINTY_ASSIGNED_CONTEXT ( ( #515 ) ) GLOBAL_UNIT_ASSIGNED_CONTEXT ( ( #429, #1214, #938 ) ) REPRESENTATION_CONTEXT ( 'NONE', 'WORKASPACE' ) );
#329 = SURFACE_STYLE_USAGE ( .BOTH. , #421 ) ;
#330 = CARTESIAN_POINT ( 'NONE',  ( -0.9731761983387251513, 2.400494975581459300, 2.411600415628800231 ) ) ;
#331 = DIRECTION ( 'NONE',  ( 0.000000000000000000, 0.000000000000000000, -1.000000000000000000 ) ) ;
#332 = CARTESIAN_POINT ( 'NONE',  ( 0.1337448969934329490, 1.665024374348268887, 2.599990625250799159 ) ) ;
#333 = CARTESIAN_POINT ( 'NONE',  ( -0.2799999999999991385, -15.61999999999999922, 0.4600000000000009637 ) ) ;
#334 = PRESENTATION_STYLE_ASSIGNMENT (( #89 ) ) ;
#335 = AXIS2_PLACEMENT_3D ( 'NONE', #381, #584, #386 ) ;
#336 = ADVANCED_FACE ( 'NONE', ( #532 ), #587, .F. ) ;
#337 = LINE ( 'NONE', #1040, #508 ) ;
#338 =( LENGTH_UNIT ( ) NAMED_UNIT ( * ) SI_UNIT ( .MILLI., .METRE. ) );
#339 = LINE ( 'NONE', #652, #280 ) ;
#340 = PRESENTATION_STYLE_ASSIGNMENT (( #707 ) ) ;
#341 = CARTESIAN_POINT ( 'NONE',  ( -1.000000000000000000, 2.665000000000000036, 2.600000000000000533 ) ) ;
#342 = CARTESIAN_POINT ( 'NONE',  ( -2.598798231321259866, 5.329619469809173893, -0.06582211191954885632 ) ) ;
#343 = VERTEX_POINT ( 'NONE', #983 ) ;
#344 = ORIENTED_EDGE ( 'NONE', *, *, #20, .F. ) ;
#345 = ORIENTED_EDGE ( 'NONE', *, *, #113, .T. ) ;
#346 = EDGE_CURVE ( 'NONE', #1158, #187, #517, .T. ) ;
#347 = ADVANCED_FACE ( 'NONE', ( #259 ), #593, .F. ) ;
#348 = DIRECTION ( 'NONE',  ( 0.000000000000000000, -0.000000000000000000, -1.000000000000000000 ) ) ;
#349 = CARTESIAN_POINT ( 'NONE',  ( -0.2799999999999991385, 0.000000000000000000, 0.4600000000000009637 ) ) ;
#350 = STYLED_ITEM ( 'NONE', ( #887 ), #166 ) ;
#351 = VECTOR ( 'NONE', #935, 1000.000000000000227 ) ;
#352 = PLANE ( 'NONE',  #946 ) ;
#353 = FILL_AREA_STYLE_COLOUR ( '', #202 ) ;
#354 = PLANE ( 'NONE',  #122 ) ;
#355 = CARTESIAN_POINT ( 'NONE',  ( 0.000000000000000000, 2.665000000000000036, 0.000000000000000000 ) ) ;
#356 = COLOUR_RGB ( '',1.000000000000000000, 1.000000000000000000, 1.000000000000000000 ) ;
#357 = PRESENTATION_LAYER_ASSIGNMENT (  '', '', ( #61 ) ) ;
#358 =( NAMED_UNIT ( * ) PLANE_ANGLE_UNIT ( ) SI_UNIT ( $, .RADIAN. ) );
#359 = FACE_OUTER_BOUND ( 'NONE', #1169, .T. ) ;
#360 =( GEOMETRIC_REPRESENTATION_CONTEXT ( 3 ) GLOBAL_UNCERTAINTY_ASSIGNED_CONTEXT ( ( #505 ) ) GLOBAL_UNIT_ASSIGNED_CONTEXT ( ( #287, #193, #467 ) ) REPRESENTATION_CONTEXT ( 'NONE', 'WORKASPACE' ) );
#361 = ORIENTED_EDGE ( 'NONE', *, *, #890, .F. ) ;
#362 = ADVANCED_FACE ( 'NONE', ( #321 ), #810, .T. ) ;
#363 = DIRECTION ( 'NONE',  ( 0.000000000000000000, 0.000000000000000000, -1.000000000000000000 ) ) ;
#364 = DIRECTION ( 'NONE',  ( -0.9961946980917458783, 0.000000000000000000, 0.08715574274765409968 ) ) ;
#365 = EDGE_LOOP ( 'NONE', ( #326, #440, #314, #818 ) ) ;
#366 = EDGE_CURVE ( 'NONE', #1017, #617, #433, .T. ) ;
#367 =( LENGTH_UNIT ( ) NAMED_UNIT ( * ) SI_UNIT ( .MILLI., .METRE. ) );
#368 = VECTOR ( 'NONE', #848, 1000.000000000000000 ) ;
#369 =( LENGTH_UNIT ( ) NAMED_UNIT ( * ) SI_UNIT ( .MILLI., .METRE. ) );
#370 = PRESENTATION_LAYER_ASSIGNMENT (  '', '', ( #877 ) ) ;
#371 = SURFACE_SIDE_STYLE ('',( #575 ) ) ;
#372 = PLANE ( 'NONE',  #1208 ) ;
#373 = FACE_OUTER_BOUND ( 'NONE', #1254, .T. ) ;
#374 = AXIS2_PLACEMENT_3D ( 'NONE', #208, #705, #799 ) ;
#375 = PLANE ( 'NONE',  #432 ) ;
#376 = FACE_OUTER_BOUND ( 'NONE', #268, .T. ) ;
#377 = COLOUR_RGB ( '',0.2509803921568627416, 0.2509803921568627416, 0.2509803921568627416 ) ;
#378 = ORIENTED_EDGE ( 'NONE', *, *, #739, .F. ) ;
#379 = CARTESIAN_POINT ( 'NONE',  ( -1.550000000000000266, -15.61999999999999922, 0.4600000000000006861 ) ) ;
#380 =( LENGTH_UNIT ( ) NAMED_UNIT ( * ) SI_UNIT ( .MILLI., .METRE. ) );
#381 = CARTESIAN_POINT ( 'NONE',  ( 0.000000000000000000, 5.330000000000000071, 0.000000000000000000 ) ) ;
#382 = PRESENTATION_LAYER_ASSIGNMENT (  '', '', ( #726 ) ) ;
#383 = FILL_AREA_STYLE_COLOUR ( '', #756 ) ;
#384 = EDGE_CURVE ( 'NONE', #620, #889, #802, .T. ) ;
#385 = UNCERTAINTY_MEASURE_WITH_UNIT (LENGTH_MEASURE( 1.000000000000000082E-05 ), #691, 'distance_accuracy_value', 'NONE');
#386 = DIRECTION ( 'NONE',  ( 0.000000000000000000, 0.000000000000000000, 1.000000000000000000 ) ) ;
#387 = ORIENTED_EDGE ( 'NONE', *, *, #1194, .T. ) ;
#388 = VERTEX_POINT ( 'NONE', #221 ) ;
#389 = ORIENTED_EDGE ( 'NONE', *, *, #674, .T. ) ;
#390 = DIRECTION ( 'NONE',  ( -0.000000000000000000, 1.000000000000000000, -0.000000000000000000 ) ) ;
#391 = CARTESIAN_POINT ( 'NONE',  ( 0.2800000000000009148, 0.000000000000000000, 0.4600000000000009637 ) ) ;
#392 = EDGE_CURVE ( 'NONE', #637, #665, #533, .T. ) ;
#393 =( GEOMETRIC_REPRESENTATION_CONTEXT ( 3 ) GLOBAL_UNCERTAINTY_ASSIGNED_CONTEXT ( ( #878 ) ) GLOBAL_UNIT_ASSIGNED_CONTEXT ( ( #734, #413, #737 ) ) REPRESENTATION_CONTEXT ( 'NONE', 'WORKASPACE' ) );
#394 = PRESENTATION_STYLE_ASSIGNMENT (( #839 ) ) ;
#395 = FILL_AREA_STYLE_COLOUR ( '', #144 ) ;
#396 = COLOUR_RGB ( '',1.000000000000000000, 1.000000000000000000, 1.000000000000000000 ) ;
#397 = DIRECTION ( 'NONE',  ( -9.680376540049142154E-17, 0.000000000000000000, -1.000000000000000000 ) ) ;
#398 = LINE ( 'NONE', #1209, #126 ) ;
#399 = DIRECTION ( 'NONE',  ( 0.000000000000000000, -1.000000000000000000, 0.000000000000000000 ) ) ;
#400 = FILL_AREA_STYLE ('',( #600 ) ) ;
#401 = ORIENTED_EDGE ( 'NONE', *, *, #366, .T. ) ;
#402 = DIRECTION ( 'NONE',  ( -1.000000000000000000, -0.000000000000000000, -0.000000000000000000 ) ) ;
#403 = STYLED_ITEM ( 'NONE', ( #1218 ), #240 ) ;
#404 = SURFACE_SIDE_STYLE ('',( #1195 ) ) ;
#405 = CYLINDRICAL_SURFACE ( 'NONE', #465, 2.600000000000000533 ) ;
#406 = PRESENTATION_STYLE_ASSIGNMENT (( #183 ) ) ;
#407 = VERTEX_POINT ( 'NONE', #1198 ) ;
#408 = EDGE_LOOP ( 'NONE', ( #458, #172, #105, #993 ) ) ;
#409 = ORIENTED_EDGE ( 'NONE', *, *, #1230, .T. ) ;
#410 = STYLED_ITEM ( 'NONE', ( #468 ), #864 ) ;
#411 = LINE ( 'NONE', #1112, #351 ) ;
#412 = EDGE_CURVE ( 'NONE', #889, #905, #676, .T. ) ;
#413 =( NAMED_UNIT ( * ) PLANE_ANGLE_UNIT ( ) SI_UNIT ( $, .RADIAN. ) );
#414 = PRESENTATION_LAYER_ASSIGNMENT (  '', '', ( #634 ) ) ;
#415 = CARTESIAN_POINT ( 'NONE',  ( -0.9899999999999999911, -15.61999999999999922, -0.05999999999999917899 ) ) ;
#416 = SURFACE_STYLE_FILL_AREA ( #1078 ) ;
#417 = VECTOR ( 'NONE', #191, 1000.000000000000000 ) ;
#418 = SURFACE_SIDE_STYLE ('',( #1012 ) ) ;
#419 = VECTOR ( 'NONE', #229, 1000.000000000000114 ) ;
#420 = VERTEX_POINT ( 'NONE', #1190 ) ;
#421 = SURFACE_SIDE_STYLE ('',( #1250 ) ) ;
#422 = ORIENTED_EDGE ( 'NONE', *, *, #718, .T. ) ;
#423 = CARTESIAN_POINT ( 'NONE',  ( 0.5064586543292650678, 1.792840111347555165, 2.553123528258306685 ) ) ;
#424 = DIRECTION ( 'NONE',  ( 1.000000000000000000, 0.000000000000000000, -0.000000000000000000 ) ) ;
#425 = AXIS2_PLACEMENT_3D ( 'NONE', #1003, #1103, #116 ) ;
#426 = VECTOR ( 'NONE', #1148, 1000.000000000000000 ) ;
#427 = VECTOR ( 'NONE', #870, 1000.000000000000000 ) ;
#428 = SURFACE_SIDE_STYLE ('',( #12 ) ) ;
#429 =( LENGTH_UNIT ( ) NAMED_UNIT ( * ) SI_UNIT ( .MILLI., .METRE. ) );
#430 = CARTESIAN_POINT ( 'NONE',  ( -0.2626369930472276515, 1.691143220354445642, 2.589625720010299226 ) ) ;
#431 = PLANE ( 'NONE',  #315 ) ;
#432 = AXIS2_PLACEMENT_3D ( 'NONE', #473, #1245, #892 ) ;
#433 = LINE ( 'NONE', #917, #711 ) ;
#434 = DIRECTION ( 'NONE',  ( 1.000000000000000000, 0.000000000000000000, 0.000000000000000000 ) ) ;
#435 = VECTOR ( 'NONE', #215, 1000.000000000000114 ) ;
#436 = ADVANCED_FACE ( 'NONE', ( #88 ), #107, .T. ) ;
#437 = DIRECTION ( 'NONE',  ( 0.000000000000000000, 1.000000000000000000, 0.000000000000000000 ) ) ;
#438 = DIRECTION ( 'NONE',  ( 0.08715574274765409968, 0.000000000000000000, 0.9961946980917458783 ) ) ;
#439 = ORIENTED_EDGE ( 'NONE', *, *, #918, .F. ) ;
#440 = ORIENTED_EDGE ( 'NONE', *, *, #882, .T. ) ;
#441 = EDGE_LOOP ( 'NONE', ( #1106, #573, #817, #1097, #608, #952 ) ) ;
#442 = EDGE_CURVE ( 'NONE', #204, #27, #975, .T. ) ;
#443 = CARTESIAN_POINT ( 'NONE',  ( 0.7983323428720188186, 3.280992375896713220, 2.476234308730151490 ) ) ;
#444 =( LENGTH_UNIT ( ) NAMED_UNIT ( * ) SI_UNIT ( .MILLI., .METRE. ) );
#445 = MECHANICAL_DESIGN_GEOMETRIC_PRESENTATION_REPRESENTATION (  '', ( #1108 ), #273 ) ;
#446 = ADVANCED_FACE ( 'NONE', ( #603 ), #1014, .F. ) ;
#447 = PRODUCT_DEFINITION ( 'UNKNOWN', '', #254, #312 ) ;
#448 = CARTESIAN_POINT ( 'NONE',  ( 0.9736859073796741981, 2.928369992206202532, 2.411409216105272701 ) ) ;
#449 =( NAMED_UNIT ( * ) SI_UNIT ( $, .STERADIAN. ) SOLID_ANGLE_UNIT ( ) );
#450 = FILL_AREA_STYLE_COLOUR ( '', #1226 ) ;
#451 = ADVANCED_FACE ( 'NONE', ( #359 ), #940, .F. ) ;
#452 = PRESENTATION_LAYER_ASSIGNMENT (  '', '', ( #197 ) ) ;
#453 = VECTOR ( 'NONE', #1150, 1000.000000000000000 ) ;
#454 = PLANE ( 'NONE',  #1123 ) ;
#455 = AXIS2_PLACEMENT_3D ( 'NONE', #706, #399, #906 ) ;
#456 = UNCERTAINTY_MEASURE_WITH_UNIT (LENGTH_MEASURE( 1.000000000000000082E-05 ), #338, 'distance_accuracy_value', 'NONE');
#457 = DIRECTION ( 'NONE',  ( 0.000000000000000000, -1.000000000000000000, 0.000000000000000000 ) ) ;
#458 = ORIENTED_EDGE ( 'NONE', *, *, #557, .T. ) ;
#459 = UNCERTAINTY_MEASURE_WITH_UNIT (LENGTH_MEASURE( 1.000000000000000082E-05 ), #790, 'distance_accuracy_value', 'NONE');
#460 = SURFACE_SIDE_STYLE ('',( #689 ) ) ;
#461 = ORIENTED_EDGE ( 'NONE', *, *, #346, .T. ) ;
#462 = ORIENTED_EDGE ( 'NONE', *, *, #821, .F. ) ;
#463 = COLOUR_RGB ( '',0.2509803921568627416, 0.2509803921568627416, 0.2509803921568627416 ) ;
#464 = PRODUCT_CONTEXT ( 'NONE', #83, 'mechanical' ) ;
#465 = AXIS2_PLACEMENT_3D ( 'NONE', #1164, #885, #1256 ) ;
#466 = DIRECTION ( 'NONE',  ( 0.000000000000000000, 0.000000000000000000, -1.000000000000000000 ) ) ;
#467 =( NAMED_UNIT ( * ) SI_UNIT ( $, .STERADIAN. ) SOLID_ANGLE_UNIT ( ) );
#468 = PRESENTATION_STYLE_ASSIGNMENT (( #502 ) ) ;
#469 = EDGE_CURVE ( 'NONE', #1158, #728, #1068, .T. ) ;
#470 = FILL_AREA_STYLE_COLOUR ( '', #114 ) ;
#471 = VECTOR ( 'NONE', #518, 1000.000000000000000 ) ;
#472 = PRESENTATION_LAYER_ASSIGNMENT (  '', '', ( #238 ) ) ;
#473 = CARTESIAN_POINT ( 'NONE',  ( -2.599307600111999683, 5.330000000000000071, -0.05999999999999961614 ) ) ;
#474 = CYLINDRICAL_SURFACE ( 'NONE', #308, 1.000000000000000000 ) ;
#475 = PRESENTATION_STYLE_ASSIGNMENT (( #1008 ) ) ;
#476 = ORIENTED_EDGE ( 'NONE', *, *, #850, .F. ) ;
#477 = VERTEX_POINT ( 'NONE', #1023 ) ;
#478 = FILL_AREA_STYLE_COLOUR ( '', #622 ) ;
#479 = CARTESIAN_POINT ( 'NONE',  ( 2.579646290966264299, 5.315311778308719148, -0.2847297918765289149 ) ) ;
#480 = LINE ( 'NONE', #276, #789 ) ;
#481 = PRESENTATION_STYLE_ASSIGNMENT (( #1259 ) ) ;
#482 = CARTESIAN_POINT ( 'NONE',  ( 1.550000000000000488, 0.000000000000000000, 0.4600000000000011302 ) ) ;
#483 = EDGE_CURVE ( 'NONE', #665, #343, #278, .T. ) ;
#484 = CARTESIAN_POINT ( 'NONE',  ( 0.000000000000000000, 0.000000000000000000, 0.000000000000000000 ) ) ;
#485 = AXIS2_PLACEMENT_3D ( 'NONE', #772, #782, #673 ) ;
#486 =( NAMED_UNIT ( * ) SI_UNIT ( $, .STERADIAN. ) SOLID_ANGLE_UNIT ( ) );
#487 = VECTOR ( 'NONE', #331, 1000.000000000000000 ) ;
#488 = CARTESIAN_POINT ( 'NONE',  ( -1.550000000000000266, -15.61999999999999922, 0.4600000000000006861 ) ) ;
#489 = VECTOR ( 'NONE', #1159, 1000.000000000000000 ) ;
#490 = EDGE_CURVE ( 'NONE', #248, #1017, #337, .T. ) ;
#491 = VECTOR ( 'NONE', #740, 1000.000000000000000 ) ;
#492 = CARTESIAN_POINT ( 'NONE',  ( 1.000000000000000000, 2.665000000000000036, 2.600000000000000533 ) ) ;
#493 = ORIENTED_EDGE ( 'NONE', *, *, #1172, .T. ) ;
#494 =( GEOMETRIC_REPRESENTATION_CONTEXT ( 3 ) GLOBAL_UNCERTAINTY_ASSIGNED_CONTEXT ( ( #456 ) ) GLOBAL_UNIT_ASSIGNED_CONTEXT ( ( #338, #123, #732 ) ) REPRESENTATION_CONTEXT ( 'NONE', 'WORKASPACE' ) );
#495 = FILL_AREA_STYLE_COLOUR ( '', #929 ) ;
#496 = ORIENTED_EDGE ( 'NONE', *, *, #318, .F. ) ;
#497 = VERTEX_POINT ( 'NONE', #1124 ) ;
#498 = ORIENTED_EDGE ( 'NONE', *, *, #807, .T. ) ;
#499 =( LENGTH_UNIT ( ) NAMED_UNIT ( * ) SI_UNIT ( .MILLI., .METRE. ) );
#500 = CARTESIAN_POINT ( 'NONE',  ( -2.598801936385371381, 5.329621051550048172, -0.06579791128417999957 ) ) ;
#501 = PRESENTATION_STYLE_ASSIGNMENT (( #257 ) ) ;
#502 = SURFACE_STYLE_USAGE ( .BOTH. , #1269 ) ;
#503 = MECHANICAL_DESIGN_GEOMETRIC_PRESENTATION_REPRESENTATION (  '', ( #1029 ), #616 ) ;
#504 = CARTESIAN_POINT ( 'NONE',  ( -1.550000000000000266, -0.000000000000000000, -0.05999999999999917899 ) ) ;
#505 = UNCERTAINTY_MEASURE_WITH_UNIT (LENGTH_MEASURE( 1.000000000000000082E-05 ), #287, 'distance_accuracy_value', 'NONE');
#506 = DIRECTION ( 'NONE',  ( 0.000000000000000000, 0.000000000000000000, -1.000000000000000000 ) ) ;
#507 = CARTESIAN_POINT ( 'NONE',  ( 2.365449944917340730, 5.229999999999999538, -1.590000000000000302 ) ) ;
#508 = VECTOR ( 'NONE', #736, 1000.000000000000000 ) ;
#509 = ORIENTED_EDGE ( 'NONE', *, *, #442, .F. ) ;
#510 = MECHANICAL_DESIGN_GEOMETRIC_PRESENTATION_REPRESENTATION (  '', ( #43 ), #712 ) ;
#511 = DIRECTION ( 'NONE',  ( -0.9884826070129562048, 0.000000000000000000, 0.1513345156693261806 ) ) ;
#512 =( NAMED_UNIT ( * ) PLANE_ANGLE_UNIT ( ) SI_UNIT ( $, .RADIAN. ) );
#513 = EDGE_CURVE ( 'NONE', #949, #187, #930, .T. ) ;
#514 = MECHANICAL_DESIGN_GEOMETRIC_PRESENTATION_REPRESENTATION (  '', ( #70 ), #115 ) ;
#515 = UNCERTAINTY_MEASURE_WITH_UNIT (LENGTH_MEASURE( 1.000000000000000082E-05 ), #429, 'distance_accuracy_value', 'NONE');
#516 = FILL_AREA_STYLE_COLOUR ( '', #377 ) ;
#517 = LINE ( 'NONE', #194, #1067 ) ;
#518 = DIRECTION ( 'NONE',  ( 1.000000000000000000, 0.000000000000000000, 0.000000000000000000 ) ) ;
#519 = LINE ( 'NONE', #341, #263 ) ;
#520 = CARTESIAN_POINT ( 'NONE',  ( -0.9899999999999999911, 0.000000000000000000, 0.4600000000000006861 ) ) ;
#521 = ORIENTED_EDGE ( 'NONE', *, *, #1255, .T. ) ;
#522 = MECHANICAL_DESIGN_GEOMETRIC_PRESENTATION_REPRESENTATION (  '', ( #197 ), #595 ) ;
#523 = ORIENTED_EDGE ( 'NONE', *, *, #300, .F. ) ;
#524 = PRESENTATION_LAYER_ASSIGNMENT (  '', '', ( #265 ) ) ;
#525 = FILL_AREA_STYLE_COLOUR ( '', #310 ) ;
#526 = LINE ( 'NONE', #763, #175 ) ;
#527 = DIRECTION ( 'NONE',  ( -1.000000000000000000, 0.000000000000000000, 0.000000000000000000 ) ) ;
#528 = CARTESIAN_POINT ( 'NONE',  ( 0.7990296528341808147, 2.049991388789814906, 2.475993546747208729 ) ) ;
#529 = CARTESIAN_POINT ( 'NONE',  ( 0.000000000000000000, 0.000000000000000000, -0.05999999999991690453 ) ) ;
#530 = STYLED_ITEM ( 'NONE', ( #22 ), #636 ) ;
#531 = CARTESIAN_POINT ( 'NONE',  ( -0.2799999999999990830, -0.000000000000000000, -0.05999999999999913042 ) ) ;
#532 = FACE_OUTER_BOUND ( 'NONE', #936, .T. ) ;
#533 = CIRCLE ( 'NONE', #724, 2.600000000000000533 ) ;
#534 = ORIENTED_EDGE ( 'NONE', *, *, #674, .F. ) ;
#535 = EDGE_CURVE ( 'NONE', #1117, #1240, #567, .T. ) ;
#536 = FILL_AREA_STYLE ('',( #1098 ) ) ;
#537 = EDGE_LOOP ( 'NONE', ( #1056, #1138 ) ) ;
#538 = CARTESIAN_POINT ( 'NONE',  ( -0.5060194540663667251, 1.792463737438451776, 2.553249668943898598 ) ) ;
#539 = PRESENTATION_LAYER_ASSIGNMENT (  '', '', ( #350 ) ) ;
#540 = ADVANCED_FACE ( 'NONE', ( #373 ), #227, .F. ) ;
#541 = CARTESIAN_POINT ( 'NONE',  ( -0.6150680259824508056, 3.464246888120324108, 2.528026344811955983 ) ) ;
#542 = FILL_AREA_STYLE ('',( #353 ) ) ;
#543 = ADVANCED_FACE ( 'NONE', ( #976 ), #352, .F. ) ;
#544 = CARTESIAN_POINT ( 'NONE',  ( 0.000000000000000000, 0.000000000000000000, 0.000000000000000000 ) ) ;
#545 = MECHANICAL_DESIGN_GEOMETRIC_PRESENTATION_REPRESENTATION (  '', ( #238 ), #1011 ) ;
#546 = CARTESIAN_POINT ( 'NONE',  ( 1.550000000000000488, -15.61999999999999922, 0.4600000000000011302 ) ) ;
#547 = PRESENTATION_STYLE_ASSIGNMENT (( #796 ) ) ;
#548 =( GEOMETRIC_REPRESENTATION_CONTEXT ( 3 ) GLOBAL_UNCERTAINTY_ASSIGNED_CONTEXT ( ( #152 ) ) GLOBAL_UNIT_ASSIGNED_CONTEXT ( ( #499, #591, #486 ) ) REPRESENTATION_CONTEXT ( 'NONE', 'WORKASPACE' ) );
#549 = COLOUR_RGB ( '',0.2509803921568627416, 0.2509803921568627416, 0.2509803921568627416 ) ;
#550 = FILL_AREA_STYLE_COLOUR ( '', #549 ) ;
#551 = LINE ( 'NONE', #239, #588 ) ;
#552 = CARTESIAN_POINT ( 'NONE',  ( 0.9731529226964158452, 2.400615554431726029, 2.411604525363151286 ) ) ;
#553 =( NAMED_UNIT ( * ) SI_UNIT ( $, .STERADIAN. ) SOLID_ANGLE_UNIT ( ) );
#554 = VERTEX_POINT ( 'NONE', #236 ) ;
#555 = VERTEX_POINT ( 'NONE', #415 ) ;
#556 = ORIENTED_EDGE ( 'NONE', *, *, #392, .T. ) ;
#557 = EDGE_CURVE ( 'NONE', #903, #949, #551, .T. ) ;
#558 = SURFACE_STYLE_USAGE ( .BOTH. , #59 ) ;
#559 = CARTESIAN_POINT ( 'NONE',  ( -1.550000000000000266, -15.61999999999999922, -0.05999999999999917899 ) ) ;
#560 = MECHANICAL_DESIGN_GEOMETRIC_PRESENTATION_REPRESENTATION (  '', ( #877 ), #1022 ) ;
#561 = FACE_OUTER_BOUND ( 'NONE', #537, .T. ) ;
#562 = CARTESIAN_POINT ( 'NONE',  ( 1.000000000000263567, 2.796865915256351975, 2.399999999999891109 ) ) ;
#563 = PLANE ( 'NONE',  #781 ) ;
#564 = STYLED_ITEM ( 'NONE', ( #771 ), #336 ) ;
#565 = APPLICATION_PROTOCOL_DEFINITION ( 'draft international standard', 'automotive_design', 1998, #571 ) ;
#566 = FACE_OUTER_BOUND ( 'NONE', #301, .T. ) ;
#567 = LINE ( 'NONE', #32, #471 ) ;
#568 = COLOUR_RGB ( '',0.2509803921568627416, 0.2509803921568627416, 0.2509803921568627416 ) ;
#569 = DIRECTION ( 'NONE',  ( -0.000000000000000000, 0.000000000000000000, 1.000000000000000000 ) ) ;
#570 = COLOUR_RGB ( '',0.7921568627450980005, 0.8196078431372548767, 0.9333333333333333481 ) ;
#571 = APPLICATION_CONTEXT ( 'automotive_design' ) ;
#572 = ORIENTED_EDGE ( 'NONE', *, *, #1019, .T. ) ;
#573 = ORIENTED_EDGE ( 'NONE', *, *, #384, .F. ) ;
#574 = DIRECTION ( 'NONE',  ( -1.000000000000000000, 0.000000000000000000, 0.000000000000000000 ) ) ;
#575 = SURFACE_STYLE_FILL_AREA ( #272 ) ;
#576 = DIRECTION ( 'NONE',  ( -1.000000000000000000, -0.000000000000000000, -0.000000000000000000 ) ) ;
#577 = STYLED_ITEM ( 'NONE', ( #1057 ), #1229 ) ;
#578 = VECTOR ( 'NONE', #159, 1000.000000000000000 ) ;
#579 = VECTOR ( 'NONE', #723, 1000.000000000000000 ) ;
#580 =( LENGTH_UNIT ( ) NAMED_UNIT ( * ) SI_UNIT ( .MILLI., .METRE. ) );
#581 = SURFACE_SIDE_STYLE ('',( #871 ) ) ;
#582 = EDGE_CURVE ( 'NONE', #1084, #1018, #322, .T. ) ;
#583 = LINE ( 'NONE', #492, #811 ) ;
#584 = DIRECTION ( 'NONE',  ( 0.000000000000000000, 1.000000000000000000, 0.000000000000000000 ) ) ;
#585 = FACE_OUTER_BOUND ( 'NONE', #990, .T. ) ;
#586 = PRESENTATION_LAYER_ASSIGNMENT (  '', '', ( #303 ) ) ;
#587 = PLANE ( 'NONE',  #1143 ) ;
#588 = VECTOR ( 'NONE', #841, 1000.000000000000000 ) ;
#589 = PRODUCT_RELATED_PRODUCT_CATEGORY ( 'part', '', ( #80 ) ) ;
#590 = ORIENTED_EDGE ( 'NONE', *, *, #882, .F. ) ;
#591 =( NAMED_UNIT ( * ) PLANE_ANGLE_UNIT ( ) SI_UNIT ( $, .RADIAN. ) );
#592 = ORIENTED_EDGE ( 'NONE', *, *, #84, .T. ) ;
#593 = PLANE ( 'NONE',  #327 ) ;
#594 = LINE ( 'NONE', #1162, #305 ) ;
#595 =( GEOMETRIC_REPRESENTATION_CONTEXT ( 3 ) GLOBAL_UNCERTAINTY_ASSIGNED_CONTEXT ( ( #234 ) ) GLOBAL_UNIT_ASSIGNED_CONTEXT ( ( #1009, #512, #19 ) ) REPRESENTATION_CONTEXT ( 'NONE', 'WORKASPACE' ) );
#596 = SURFACE_STYLE_USAGE ( .BOTH. , #1089 ) ;
#597 = AXIS2_PLACEMENT_3D ( 'NONE', #640, #1036, #424 ) ;
#598 = LINE ( 'NONE', #520, #18 ) ;
#599 = FILL_AREA_STYLE ('',( #1087 ) ) ;
#600 = FILL_AREA_STYLE_COLOUR ( '', #783 ) ;
#601 = LINE ( 'NONE', #667, #489 ) ;
#602 = CARTESIAN_POINT ( 'NONE',  ( 0.9900000000000002132, -15.61999999999999922, 0.4600000000000011857 ) ) ;
#603 = FACE_OUTER_BOUND ( 'NONE', #606, .T. ) ;
#604 = MECHANICAL_DESIGN_GEOMETRIC_PRESENTATION_REPRESENTATION (  '', ( #303 ), #735 ) ;
#605 = FILL_AREA_STYLE_COLOUR ( '', #708 ) ;
#606 = EDGE_LOOP ( 'NONE', ( #361, #92, #534, #592 ) ) ;
#607 = ORIENTED_EDGE ( 'NONE', *, *, #490, .T. ) ;
#608 = ORIENTED_EDGE ( 'NONE', *, *, #895, .F. ) ;
#609 =( NAMED_UNIT ( * ) SI_UNIT ( $, .STERADIAN. ) SOLID_ANGLE_UNIT ( ) );
#610 = FILL_AREA_STYLE ('',( #516 ) ) ;
#611 = EDGE_CURVE ( 'NONE', #876, #150, #832, .T. ) ;
#612 = AXIS2_PLACEMENT_3D ( 'NONE', #820, #828, #638 ) ;
#613 = DIRECTION ( 'NONE',  ( 0.000000000000000000, -1.000000000000000000, 0.000000000000000000 ) ) ;
#614 = SURFACE_STYLE_FILL_AREA ( #1090 ) ;
#615 =( LENGTH_UNIT ( ) NAMED_UNIT ( * ) SI_UNIT ( .MILLI., .METRE. ) );
#616 =( GEOMETRIC_REPRESENTATION_CONTEXT ( 3 ) GLOBAL_UNCERTAINTY_ASSIGNED_CONTEXT ( ( #294 ) ) GLOBAL_UNIT_ASSIGNED_CONTEXT ( ( #124, #137, #1120 ) ) REPRESENTATION_CONTEXT ( 'NONE', 'WORKASPACE' ) );
#617 = VERTEX_POINT ( 'NONE', #267 ) ;
#618 = MECHANICAL_DESIGN_GEOMETRIC_PRESENTATION_REPRESENTATION (  '', ( #577 ), #360 ) ;
#619 = DIRECTION ( 'NONE',  ( 0.000000000000000000, 1.000000000000000000, 0.000000000000000000 ) ) ;
#620 = VERTEX_POINT ( 'NONE', #1220 ) ;
#621 = CARTESIAN_POINT ( 'NONE',  ( -2.598798231321260310, 0.0003805301908256297294, -0.06582211191954903673 ) ) ;
#622 = COLOUR_RGB ( '',0.7921568627450980005, 0.8196078431372548767, 0.9333333333333333481 ) ;
#623 = CARTESIAN_POINT ( 'NONE',  ( -0.2799999999999991385, -15.61999999999999922, 0.4600000000000009637 ) ) ;
#624 = EDGE_CURVE ( 'NONE', #497, #1158, #398, .T. ) ;
#625 = CARTESIAN_POINT ( 'NONE',  ( -1.000000000000000000, 2.665000000000000036, 0.000000000000000000 ) ) ;
#626 = FILL_AREA_STYLE_COLOUR ( '', #645 ) ;
#627 = PRESENTATION_LAYER_ASSIGNMENT (  '', '', ( #189 ) ) ;
#628 = CARTESIAN_POINT ( 'NONE',  ( -0.9899999999999999911, -15.61999999999999922, 0.4600000000000006861 ) ) ;
#629 = CARTESIAN_POINT ( 'NONE',  ( 0.9900000000000002132, -15.61999999999999922, -0.05999999999999901940 ) ) ;
#630 = DIRECTION ( 'NONE',  ( 0.000000000000000000, 0.000000000000000000, -1.000000000000000000 ) ) ;
#631 = FACE_OUTER_BOUND ( 'NONE', #819, .T. ) ;
#632 = SURFACE_SIDE_STYLE ('',( #112 ) ) ;
#633 = ORIENTED_EDGE ( 'NONE', *, *, #1005, .T. ) ;
#634 = STYLED_ITEM ( 'NONE', ( #340 ), #446 ) ;
#635 = ORIENTED_EDGE ( 'NONE', *, *, #113, .F. ) ;
#636 = ADVANCED_FACE ( 'NONE', ( #57 ), #372, .F. ) ;
#637 = VERTEX_POINT ( 'NONE', #1133 ) ;
#638 = DIRECTION ( 'NONE',  ( 1.000000000000000000, 0.000000000000000000, 0.000000000000000000 ) ) ;
#639 = CARTESIAN_POINT ( 'NONE',  ( -0.7987210536627806778, 2.049456982656726822, 2.476115186705488025 ) ) ;
#640 = CARTESIAN_POINT ( 'NONE',  ( 0.000000000000000000, 5.330000000000000071, -0.05999999999992036009 ) ) ;
#641 = SURFACE_STYLE_USAGE ( .BOTH. , #1033 ) ;
#642 = FILL_AREA_STYLE ('',( #847 ) ) ;
#643 = CARTESIAN_POINT ( 'NONE',  ( -2.365449944917341618, 0.1000000000000002554, -1.590000000000000302 ) ) ;
#644 = PRESENTATION_LAYER_ASSIGNMENT (  '', '', ( #753 ) ) ;
#645 = COLOUR_RGB ( '',1.000000000000000000, 1.000000000000000000, 1.000000000000000000 ) ;
#646 = CARTESIAN_POINT ( 'NONE',  ( -0.8727896269204126201, 3.170363767364237084, 2.449722334889705255 ) ) ;
#647 = COLOUR_RGB ( '',1.000000000000000000, 1.000000000000000000, 1.000000000000000000 ) ;
#648 = ORIENTED_EDGE ( 'NONE', *, *, #611, .F. ) ;
#649 = EDGE_CURVE ( 'NONE', #388, #228, #1132, .T. ) ;
#650 = CARTESIAN_POINT ( 'NONE',  ( -0.5057114477584543355, 3.537590023207449974, 2.553272416502906594 ) ) ;
#651 = ORIENTED_EDGE ( 'NONE', *, *, #807, .F. ) ;
#652 = CARTESIAN_POINT ( 'NONE',  ( -0.2799999999999991385, 0.000000000000000000, 0.4600000000000009637 ) ) ;
#653 = AXIS2_PLACEMENT_3D ( 'NONE', #982, #1066, #281 ) ;
#654 = DIRECTION ( 'NONE',  ( -0.000000000000000000, 1.000000000000000000, -0.000000000000000000 ) ) ;
#655 = ADVANCED_BREP_SHAPE_REPRESENTATION ( 'BC547', ( #38, #199 ), #1013 ) ;
#656 = CARTESIAN_POINT ( 'NONE',  ( 1.000000000001266098, 2.664999999997883950, 2.399999999999711253 ) ) ;
#657 = CARTESIAN_POINT ( 'NONE',  ( 0.2800000000000009148, -15.61999999999999922, 0.4600000000000009637 ) ) ;
#658 = LINE ( 'NONE', #804, #780 ) ;
#659 =( GEOMETRIC_REPRESENTATION_CONTEXT ( 3 ) GLOBAL_UNCERTAINTY_ASSIGNED_CONTEXT ( ( #1216 ) ) GLOBAL_UNIT_ASSIGNED_CONTEXT ( ( #369, #749, #1041 ) ) REPRESENTATION_CONTEXT ( 'NONE', 'WORKASPACE' ) );
#660 = SURFACE_STYLE_FILL_AREA ( #72 ) ;
#661 =( LENGTH_UNIT ( ) NAMED_UNIT ( * ) SI_UNIT ( .MILLI., .METRE. ) );
#662 = COLOUR_RGB ( '',1.000000000000000000, 1.000000000000000000, 1.000000000000000000 ) ;
#663 = CARTESIAN_POINT ( 'NONE',  ( 0.2800000000000009703, -15.61999999999999922, -0.05999999999999913042 ) ) ;
#664 = SURFACE_STYLE_FILL_AREA ( #536 ) ;
#665 = VERTEX_POINT ( 'NONE', #250 ) ;
#666 = ORIENTED_EDGE ( 'NONE', *, *, #366, .F. ) ;
#667 = CARTESIAN_POINT ( 'NONE',  ( -0.2799999999999991385, -15.61999999999999922, 0.4600000000000009637 ) ) ;
#668 = SURFACE_SIDE_STYLE ('',( #669 ) ) ;
#669 = SURFACE_STYLE_FILL_AREA ( #675 ) ;
#670 = PRESENTATION_LAYER_ASSIGNMENT (  '', '', ( #808 ) ) ;
#671 = COLOUR_RGB ( '',0.2509803921568627416, 0.2509803921568627416, 0.2509803921568627416 ) ;
#672 =( NAMED_UNIT ( * ) PLANE_ANGLE_UNIT ( ) SI_UNIT ( $, .RADIAN. ) );
#673 = DIRECTION ( 'NONE',  ( -1.000000000000000000, 0.000000000000000000, 0.000000000000000000 ) ) ;
#674 = EDGE_CURVE ( 'NONE', #343, #905, #813, .T. ) ;
#675 = FILL_AREA_STYLE ('',( #478 ) ) ;
#676 = LINE ( 'NONE', #1109, #435 ) ;
#677 = LINE ( 'NONE', #295, #1151 ) ;
#678 = UNCERTAINTY_MEASURE_WITH_UNIT (LENGTH_MEASURE( 1.000000000000000082E-05 ), #868, 'distance_accuracy_value', 'NONE');
#679 = COLOUR_RGB ( '',0.2509803921568627416, 0.2509803921568627416, 0.2509803921568627416 ) ;
#680 = FILL_AREA_STYLE_COLOUR ( '', #356 ) ;
#681 = ORIENTED_EDGE ( 'NONE', *, *, #812, .F. ) ;
#682 = FILL_AREA_STYLE ('',( #450 ) ) ;
#683 = CARTESIAN_POINT ( 'NONE',  ( 0.9900000000000002132, 0.000000000000000000, 0.4600000000000011857 ) ) ;
#684 = ORIENTED_EDGE ( 'NONE', *, *, #346, .F. ) ;
#685 =( NAMED_UNIT ( * ) PLANE_ANGLE_UNIT ( ) SI_UNIT ( $, .RADIAN. ) );
#686 = MECHANICAL_DESIGN_GEOMETRIC_PRESENTATION_REPRESENTATION (  '', ( #350 ), #1113 ) ;
#687 = DIRECTION ( 'NONE',  ( 0.000000000000000000, 0.000000000000000000, -1.000000000000000000 ) ) ;
#688 = MECHANICAL_DESIGN_GEOMETRIC_PRESENTATION_REPRESENTATION (  '', ( #16 ), #393 ) ;
#689 = SURFACE_STYLE_FILL_AREA ( #1224 ) ;
#690 = VECTOR ( 'NONE', #824, 1000.000000000000000 ) ;
#691 =( LENGTH_UNIT ( ) NAMED_UNIT ( * ) SI_UNIT ( .MILLI., .METRE. ) );
#692 = LINE ( 'NONE', #99, #1175 ) ;
#693 = EDGE_CURVE ( 'NONE', #27, #204, #709, .T. ) ;
#694 = SURFACE_STYLE_USAGE ( .BOTH. , #1244 ) ;
#695 = UNCERTAINTY_MEASURE_WITH_UNIT (LENGTH_MEASURE( 1.000000000000000082E-05 ), #444, 'distance_accuracy_value', 'NONE');
#696 = AXIS2_PLACEMENT_3D ( 'NONE', #623, #630, #721 ) ;
#697 =( NAMED_UNIT ( * ) PLANE_ANGLE_UNIT ( ) SI_UNIT ( $, .RADIAN. ) );
#698 = ORIENTED_EDGE ( 'NONE', *, *, #1073, .F. ) ;
#699 =( LENGTH_UNIT ( ) NAMED_UNIT ( * ) SI_UNIT ( .MILLI., .METRE. ) );
#700 = ORIENTED_EDGE ( 'NONE', *, *, #469, .F. ) ;
#701 = CARTESIAN_POINT ( 'NONE',  ( -1.550000000000000266, 0.000000000000000000, -0.05999999999999917899 ) ) ;
#702 = LINE ( 'NONE', #190, #954 ) ;
#703 = CARTESIAN_POINT ( 'NONE',  ( -1.000000000000000000, 2.665000000000000036, 2.400000000000000799 ) ) ;
#704 = MECHANICAL_DESIGN_GEOMETRIC_PRESENTATION_REPRESENTATION (  '', ( #61 ), #102 ) ;
#705 = DIRECTION ( 'NONE',  ( 0.000000000000000000, 0.000000000000000000, 1.000000000000000000 ) ) ;
#706 = CARTESIAN_POINT ( 'NONE',  ( 0.000000000000000000, -15.61999999999999922, 0.000000000000000000 ) ) ;
#707 = SURFACE_STYLE_USAGE ( .BOTH. , #404 ) ;
#708 = COLOUR_RGB ( '',0.2509803921568627416, 0.2509803921568627416, 0.2509803921568627416 ) ;
#709 = CIRCLE ( 'NONE', #744, 1.000000000000000000 ) ;
#710 = LINE ( 'NONE', #748, #417 ) ;
#711 = VECTOR ( 'NONE', #713, 1000.000000000000000 ) ;
#712 =( GEOMETRIC_REPRESENTATION_CONTEXT ( 3 ) GLOBAL_UNCERTAINTY_ASSIGNED_CONTEXT ( ( #846 ) ) GLOBAL_UNIT_ASSIGNED_CONTEXT ( ( #380, #1069, #177 ) ) REPRESENTATION_CONTEXT ( 'NONE', 'WORKASPACE' ) );
#713 = DIRECTION ( 'NONE',  ( -0.000000000000000000, 1.000000000000000000, -0.000000000000000000 ) ) ;
#714 = ORIENTED_EDGE ( 'NONE', *, *, #318, .T. ) ;
#715 = ORIENTED_EDGE ( 'NONE', *, *, #15, .F. ) ;
#716 = VERTEX_POINT ( 'NONE', #948 ) ;
#717 =( NAMED_UNIT ( * ) SI_UNIT ( $, .STERADIAN. ) SOLID_ANGLE_UNIT ( ) );
#718 = EDGE_CURVE ( 'NONE', #554, #891, #884, .T. ) ;
#719 = FILL_AREA_STYLE ('',( #319 ) ) ;
#720 = SURFACE_STYLE_FILL_AREA ( #207 ) ;
#721 = DIRECTION ( 'NONE',  ( -1.000000000000000000, 0.000000000000000000, -0.000000000000000000 ) ) ;
#722 = SURFACE_STYLE_USAGE ( .BOTH. , #428 ) ;
#723 = DIRECTION ( 'NONE',  ( 0.000000000000000000, 0.000000000000000000, -1.000000000000000000 ) ) ;
#724 = AXIS2_PLACEMENT_3D ( 'NONE', #921, #619, #211 ) ;
#725 = ORIENTED_EDGE ( 'NONE', *, *, #962, .F. ) ;
#726 = STYLED_ITEM ( 'NONE', ( #501 ), #1116 ) ;
#727 = SURFACE_STYLE_USAGE ( .BOTH. , #44 ) ;
#728 = VERTEX_POINT ( 'NONE', #657 ) ;
#729 = CARTESIAN_POINT ( 'NONE',  ( -0.6151029207937215304, 1.865939974347812003, 2.527993302251564600 ) ) ;
#730 = CARTESIAN_POINT ( 'NONE',  ( 0.9900000000000002132, -15.61999999999999922, 0.4600000000000011857 ) ) ;
#731 = ORIENTED_EDGE ( 'NONE', *, *, #535, .T. ) ;
#732 =( NAMED_UNIT ( * ) SI_UNIT ( $, .STERADIAN. ) SOLID_ANGLE_UNIT ( ) );
#733 = ADVANCED_FACE ( 'NONE', ( #829 ), #1145, .T. ) ;
#734 =( LENGTH_UNIT ( ) NAMED_UNIT ( * ) SI_UNIT ( .MILLI., .METRE. ) );
#735 =( GEOMETRIC_REPRESENTATION_CONTEXT ( 3 ) GLOBAL_UNCERTAINTY_ASSIGNED_CONTEXT ( ( #459 ) ) GLOBAL_UNIT_ASSIGNED_CONTEXT ( ( #790, #988, #609 ) ) REPRESENTATION_CONTEXT ( 'NONE', 'WORKASPACE' ) );
#736 = DIRECTION ( 'NONE',  ( -0.000000000000000000, -0.000000000000000000, 1.000000000000000000 ) ) ;
#737 =( NAMED_UNIT ( * ) SI_UNIT ( $, .STERADIAN. ) SOLID_ANGLE_UNIT ( ) );
#738 = ADVANCED_FACE ( 'NONE', ( #103 ), #178, .F. ) ;
#739 = EDGE_CURVE ( 'NONE', #282, #477, #1193, .T. ) ;
#740 = DIRECTION ( 'NONE',  ( -1.042502088928369534E-16, -0.000000000000000000, 1.000000000000000000 ) ) ;
#741 =( NAMED_UNIT ( * ) SI_UNIT ( $, .STERADIAN. ) SOLID_ANGLE_UNIT ( ) );
#742 = DIRECTION ( 'NONE',  ( 1.042502088928369534E-16, 0.000000000000000000, -1.000000000000000000 ) ) ;
#743 = ORIENTED_EDGE ( 'NONE', *, *, #10, .T. ) ;
#744 = AXIS2_PLACEMENT_3D ( 'NONE', #355, #69, #746 ) ;
#745 = ORIENTED_EDGE ( 'NONE', *, *, #557, .F. ) ;
#746 = DIRECTION ( 'NONE',  ( 1.000000000000000000, 0.000000000000000000, 0.000000000000000000 ) ) ;
#747 = ADVANCED_FACE ( 'NONE', ( #258 ), #1261, .F. ) ;
#748 = CARTESIAN_POINT ( 'NONE',  ( -1.550000000000000266, -15.61999999999999922, -0.05999999999999917899 ) ) ;
#749 =( NAMED_UNIT ( * ) PLANE_ANGLE_UNIT ( ) SI_UNIT ( $, .RADIAN. ) );
#750 = CARTESIAN_POINT ( 'NONE',  ( 0.9900000000000002132, -15.61999999999999922, 0.4600000000000011857 ) ) ;
#751 = UNCERTAINTY_MEASURE_WITH_UNIT (LENGTH_MEASURE( 1.000000000000000082E-05 ), #26, 'distance_accuracy_value', 'NONE');
#752 = PRESENTATION_LAYER_ASSIGNMENT (  '', '', ( #403 ) ) ;
#753 = STYLED_ITEM ( 'NONE', ( #1042 ), #1215 ) ;
#754 = SURFACE_STYLE_USAGE ( .BOTH. , #158 ) ;
#755 = DIRECTION ( 'NONE',  ( 1.000000000000000000, 0.000000000000000000, -0.000000000000000000 ) ) ;
#756 = COLOUR_RGB ( '',0.2509803921568627416, 0.2509803921568627416, 0.2509803921568627416 ) ;
#757 = FILL_AREA_STYLE ('',( #951 ) ) ;
#758 = ORIENTED_EDGE ( 'NONE', *, *, #895, .T. ) ;
#759 = EDGE_CURVE ( 'NONE', #555, #407, #677, .T. ) ;
#760 =( NAMED_UNIT ( * ) SI_UNIT ( $, .STERADIAN. ) SOLID_ANGLE_UNIT ( ) );
#761 = ORIENTED_EDGE ( 'NONE', *, *, #1223, .F. ) ;
#762 = FILL_AREA_STYLE ('',( #45 ) ) ;
#763 = CARTESIAN_POINT ( 'NONE',  ( -2.365449944917341618, 5.330000000000000071, -1.590000000000000302 ) ) ;
#764 = ORIENTED_EDGE ( 'NONE', *, *, #1047, .F. ) ;
#765 = MECHANICAL_DESIGN_GEOMETRIC_PRESENTATION_REPRESENTATION (  '', ( #189 ), #1050 ) ;
#766 = FILL_AREA_STYLE_COLOUR ( '', #671 ) ;
#767 = SURFACE_STYLE_USAGE ( .BOTH. , #81 ) ;
#768 = PRESENTATION_LAYER_ASSIGNMENT (  '', '', ( #1029 ) ) ;
#769 = SURFACE_STYLE_USAGE ( .BOTH. , #668 ) ;
#770 = SURFACE_SIDE_STYLE ('',( #1114 ) ) ;
#771 = PRESENTATION_STYLE_ASSIGNMENT (( #1079 ) ) ;
#772 = CARTESIAN_POINT ( 'NONE',  ( 0.000000000000000000, 2.665000000000000036, 2.600000000000000533 ) ) ;
#773 = DIRECTION ( 'NONE',  ( -0.000000000000000000, -0.000000000000000000, 1.000000000000000000 ) ) ;
#774 = DIRECTION ( 'NONE',  ( -0.000000000000000000, 1.000000000000000000, -0.000000000000000000 ) ) ;
#775 = MECHANICAL_DESIGN_GEOMETRIC_PRESENTATION_REPRESENTATION (  '', ( #1225 ), #548 ) ;
#776 = FACE_OUTER_BOUND ( 'NONE', #1107, .T. ) ;
#777 =( NAMED_UNIT ( * ) SI_UNIT ( $, .STERADIAN. ) SOLID_ANGLE_UNIT ( ) );
#778 = LINE ( 'NONE', #529, #690 ) ;
#779 = FILL_AREA_STYLE ('',( #680 ) ) ;
#780 = VECTOR ( 'NONE', #46, 1000.000000000000000 ) ;
#781 = AXIS2_PLACEMENT_3D ( 'NONE', #893, #991, #9 ) ;
#782 = DIRECTION ( 'NONE',  ( 0.000000000000000000, 0.000000000000000000, -1.000000000000000000 ) ) ;
#783 = COLOUR_RGB ( '',1.000000000000000000, 1.000000000000000000, 1.000000000000000000 ) ;
#784 = DIRECTION ( 'NONE',  ( -0.000000000000000000, 0.000000000000000000, 1.000000000000000000 ) ) ;
#785 = ORIENTED_EDGE ( 'NONE', *, *, #942, .T. ) ;
#786 = PLANE ( 'NONE',  #209 ) ;
#787 = ORIENTED_EDGE ( 'NONE', *, *, #693, .F. ) ;
#788 = ORIENTED_EDGE ( 'NONE', *, *, #249, .T. ) ;
#789 = VECTOR ( 'NONE', #576, 1000.000000000000000 ) ;
#790 =( LENGTH_UNIT ( ) NAMED_UNIT ( * ) SI_UNIT ( .MILLI., .METRE. ) );
#791 = AXIS2_PLACEMENT_3D ( 'NONE', #1200, #613, #912 ) ;
#792 =( NAMED_UNIT ( * ) SI_UNIT ( $, .STERADIAN. ) SOLID_ANGLE_UNIT ( ) );
#793 = PRESENTATION_LAYER_ASSIGNMENT (  '', '', ( #63 ) ) ;
#794 =( NAMED_UNIT ( * ) PLANE_ANGLE_UNIT ( ) SI_UNIT ( $, .RADIAN. ) );
#795 = DIRECTION ( 'NONE',  ( -1.000000000000000000, -0.000000000000000000, 9.680376540049142154E-17 ) ) ;
#796 = SURFACE_STYLE_USAGE ( .BOTH. , #101 ) ;
#797 = PRESENTATION_LAYER_ASSIGNMENT (  '', '', ( #1258 ) ) ;
#798 = VECTOR ( 'NONE', #304, 1000.000000000000000 ) ;
#799 = DIRECTION ( 'NONE',  ( 1.000000000000000000, 0.000000000000000000, 0.000000000000000000 ) ) ;
#800 = PRESENTATION_STYLE_ASSIGNMENT (( #641 ) ) ;
#801 = LINE ( 'NONE', #1020, #212 ) ;
#802 = LINE ( 'NONE', #507, #1102 ) ;
#803 = ORIENTED_EDGE ( 'NONE', *, *, #718, .F. ) ;
#804 = CARTESIAN_POINT ( 'NONE',  ( -2.465449944917341707, 5.330000000000000071, -0.05999999999992036009 ) ) ;
#805 = ORIENTED_EDGE ( 'NONE', *, *, #582, .T. ) ;
#806 = ORIENTED_EDGE ( 'NONE', *, *, #223, .F. ) ;
#807 = EDGE_CURVE ( 'NONE', #1051, #1117, #869, .T. ) ;
#808 = STYLED_ITEM ( 'NONE', ( #334 ), #738 ) ;
#809 = DIRECTION ( 'NONE',  ( 1.000000000000000000, 0.000000000000000000, 0.000000000000000000 ) ) ;
#810 = PLANE ( 'NONE',  #791 ) ;
#811 = VECTOR ( 'NONE', #506, 1000.000000000000000 ) ;
#812 = EDGE_CURVE ( 'NONE', #1240, #617, #320, .T. ) ;
#813 = LINE ( 'NONE', #861, #913 ) ;
#814 = SURFACE_STYLE_FILL_AREA ( #719 ) ;
#815 = STYLED_ITEM ( 'NONE', ( #481 ), #1236 ) ;
#816 =( NAMED_UNIT ( * ) PLANE_ANGLE_UNIT ( ) SI_UNIT ( $, .RADIAN. ) );
#817 = ORIENTED_EDGE ( 'NONE', *, *, #279, .T. ) ;
#818 = ORIENTED_EDGE ( 'NONE', *, *, #624, .T. ) ;
#819 = EDGE_LOOP ( 'NONE', ( #476, #422, #58, #509 ) ) ;
#820 = CARTESIAN_POINT ( 'NONE',  ( -0.2799999999999990830, -15.61999999999999922, -0.05999999999999913042 ) ) ;
#821 = EDGE_CURVE ( 'NONE', #25, #903, #601, .T. ) ;
#822 = LINE ( 'NONE', #1055, #426 ) ;
#823 = DIRECTION ( 'NONE',  ( -0.000000000000000000, 1.000000000000000000, -0.000000000000000000 ) ) ;
#824 = DIRECTION ( 'NONE',  ( 1.000000000000000000, 0.000000000000000000, -0.000000000000000000 ) ) ;
#825 = PRESENTATION_LAYER_ASSIGNMENT (  '', '', ( #1108 ) ) ;
#826 = DIRECTION ( 'NONE',  ( -0.000000000000000000, 0.000000000000000000, 1.000000000000000000 ) ) ;
#827 = ADVANCED_FACE ( 'NONE', ( #585, #71 ), #405, .T. ) ;
#828 = DIRECTION ( 'NONE',  ( -0.000000000000000000, 0.000000000000000000, 1.000000000000000000 ) ) ;
#829 = FACE_OUTER_BOUND ( 'NONE', #860, .T. ) ;
#830 = CARTESIAN_POINT ( 'NONE',  ( -1.000000000000000000, 2.665000000000000036, 2.400000000000000799 ) ) ;
#831 = PRESENTATION_STYLE_ASSIGNMENT (( #596 ) ) ;
#832 = LINE ( 'NONE', #750, #298 ) ;
#833 =( GEOMETRIC_REPRESENTATION_CONTEXT ( 3 ) GLOBAL_UNCERTAINTY_ASSIGNED_CONTEXT ( ( #195 ) ) GLOBAL_UNIT_ASSIGNED_CONTEXT ( ( #206, #697, #1093 ) ) REPRESENTATION_CONTEXT ( 'NONE', 'WORKASPACE' ) );
#834 = LINE ( 'NONE', #922, #419 ) ;
#835 =( NAMED_UNIT ( * ) PLANE_ANGLE_UNIT ( ) SI_UNIT ( $, .RADIAN. ) );
#836 = ORIENTED_EDGE ( 'NONE', *, *, #739, .T. ) ;
#837 = ADVANCED_FACE ( 'NONE', ( #1030 ), #563, .F. ) ;
#838 = DIRECTION ( 'NONE',  ( -0.1510196638374126099, 0.06447229192933202901, -0.9864260665188312460 ) ) ;
#839 = SURFACE_STYLE_USAGE ( .BOTH. , #418 ) ;
#840 = ORIENTED_EDGE ( 'NONE', *, *, #624, .F. ) ;
#841 = DIRECTION ( 'NONE',  ( 1.042502088928369534E-16, -0.000000000000000000, -1.000000000000000000 ) ) ;
#842 = SURFACE_STYLE_USAGE ( .BOTH. , #1237 ) ;
#843 = ADVANCED_FACE ( 'NONE', ( #974 ), #1096, .F. ) ;
#844 = VECTOR ( 'NONE', #1217, 1000.000000000000000 ) ;
#845 = CARTESIAN_POINT ( 'NONE',  ( -2.598798231321259866, 5.330000000000000071, -0.06582211191954946694 ) ) ;
#846 = UNCERTAINTY_MEASURE_WITH_UNIT (LENGTH_MEASURE( 1.000000000000000082E-05 ), #380, 'distance_accuracy_value', 'NONE');
#847 = FILL_AREA_STYLE_COLOUR ( '', #679 ) ;
#848 = DIRECTION ( 'NONE',  ( 0.000000000000000000, -0.000000000000000000, -1.000000000000000000 ) ) ;
#849 = SURFACE_STYLE_FILL_AREA ( #779 ) ;
#850 = EDGE_CURVE ( 'NONE', #554, #204, #583, .T. ) ;
#851 = CARTESIAN_POINT ( 'NONE',  ( -1.000000000000000000, 2.665000000000000036, 2.400000000000000799 ) ) ;
#852 = LINE ( 'NONE', #862, #104 ) ;
#853 = COLOUR_RGB ( '',0.2509803921568627416, 0.2509803921568627416, 0.2509803921568627416 ) ;
#854 = ADVANCED_FACE ( 'NONE', ( #293 ), #1188, .T. ) ;
#855 = DIRECTION ( 'NONE',  ( -0.000000000000000000, -1.000000000000000000, -0.000000000000000000 ) ) ;
#856 = CARTESIAN_POINT ( 'NONE',  ( 2.599307600111999683, 5.330000000000000071, -0.05999999999999961614 ) ) ;
#857 = EDGE_LOOP ( 'NONE', ( #714, #648, #916, #401 ) ) ;
#858 =( GEOMETRIC_REPRESENTATION_CONTEXT ( 3 ) GLOBAL_UNCERTAINTY_ASSIGNED_CONTEXT ( ( #1147 ) ) GLOBAL_UNIT_ASSIGNED_CONTEXT ( ( #909, #910, #1002 ) ) REPRESENTATION_CONTEXT ( 'NONE', 'WORKASPACE' ) );
#859 = ORIENTED_EDGE ( 'NONE', *, *, #649, .F. ) ;
#860 = EDGE_LOOP ( 'NONE', ( #1, #131, #14, #947 ) ) ;
#861 = CARTESIAN_POINT ( 'NONE',  ( 2.598798231321260310, 5.330000000000000071, -0.06582211191954648322 ) ) ;
#862 = CARTESIAN_POINT ( 'NONE',  ( -2.599307600111999683, 5.330000000000000071, -0.05999999999999961614 ) ) ;
#863 = DIRECTION ( 'NONE',  ( -0.000000000000000000, 0.000000000000000000, 1.000000000000000000 ) ) ;
#864 = ADVANCED_FACE ( 'NONE', ( #161 ), #998, .F. ) ;
#865 = CARTESIAN_POINT ( 'NONE',  ( 0.5047525481250917379, 3.538031587313387849, 2.553428983880693615 ) ) ;
#866 = PLANE ( 'NONE',  #170 ) ;
#867 = CARTESIAN_POINT ( 'NONE',  ( 1.550000000000000488, -15.61999999999999922, -0.05999999999999901940 ) ) ;
#868 =( LENGTH_UNIT ( ) NAMED_UNIT ( * ) SI_UNIT ( .MILLI., .METRE. ) );
#869 = LINE ( 'NONE', #1247, #1015 ) ;
#870 = DIRECTION ( 'NONE',  ( 1.000000000000000000, 0.000000000000000000, 0.000000000000000000 ) ) ;
#871 = SURFACE_STYLE_FILL_AREA ( #400 ) ;
#872 = VECTOR ( 'NONE', #434, 1000.000000000000000 ) ;
#873 = LINE ( 'NONE', #269, #977 ) ;
#874 = ORIENTED_EDGE ( 'NONE', *, *, #94, .F. ) ;
#875 = DIRECTION ( 'NONE',  ( 0.000000000000000000, 0.000000000000000000, 1.000000000000000000 ) ) ;
#876 = VERTEX_POINT ( 'NONE', #602 ) ;
#877 = STYLED_ITEM ( 'NONE', ( #35 ), #843 ) ;
#878 = UNCERTAINTY_MEASURE_WITH_UNIT (LENGTH_MEASURE( 1.000000000000000082E-05 ), #734, 'distance_accuracy_value', 'NONE');
#879 = EDGE_LOOP ( 'NONE', ( #836, #758 ) ) ;
#880 = CYLINDRICAL_SURFACE ( 'NONE', #485, 1.000000000000000000 ) ;
#881 = FILL_AREA_STYLE_COLOUR ( '', #192 ) ;
#882 = EDGE_CURVE ( 'NONE', #728, #25, #692, .T. ) ;
#883 =( NAMED_UNIT ( * ) SI_UNIT ( $, .STERADIAN. ) SOLID_ANGLE_UNIT ( ) );
#884 = B_SPLINE_CURVE_WITH_KNOTS ( 'NONE', 3,
 ( #963, #562, #448, #168, #443, #271, #865, #968, #1064, #1227, #1140, #650, #541, #162, #646, #52, #155, #851 ),
 .UNSPECIFIED., .F., .F.,
 ( 4, 2, 2, 2, 2, 2, 2, 2, 4 ),
 ( 0.001579173292168498718, 0.001973648988365908803, 0.002368124684563318889, 0.002762600380760728974, 0.003157076076958138626, 0.003551551773155548711, 0.003946027469352958797, 0.004340503165550369316, 0.004734978861747778968 ),
 .UNSPECIFIED. ) ;
#885 = DIRECTION ( 'NONE',  ( -0.000000000000000000, -1.000000000000000000, -0.000000000000000000 ) ) ;
#886 = PRESENTATION_STYLE_ASSIGNMENT (( #558 ) ) ;
#887 = PRESENTATION_STYLE_ASSIGNMENT (( #156 ) ) ;
#888 = CARTESIAN_POINT ( 'NONE',  ( 1.550000000000000488, -15.61999999999999922, -0.05999999999999901940 ) ) ;
#889 = VERTEX_POINT ( 'NONE', #109 ) ;
#890 = EDGE_CURVE ( 'NONE', #889, #1084, #181, .T. ) ;
#891 = VERTEX_POINT ( 'NONE', #703 ) ;
#892 = DIRECTION ( 'NONE',  ( 0.08715574274765437723, 0.000000000000000000, -0.9961946980917458783 ) ) ;
#893 = CARTESIAN_POINT ( 'NONE',  ( 0.9900000000000002132, -15.61999999999999922, 0.4600000000000011857 ) ) ;
#894 = FILL_AREA_STYLE ('',( #495 ) ) ;
#895 = EDGE_CURVE ( 'NONE', #477, #282, #658, .T. ) ;
#896 = SURFACE_SIDE_STYLE ('',( #182 ) ) ;
#897 = FACE_OUTER_BOUND ( 'NONE', #441, .T. ) ;
#898 = FILL_AREA_STYLE ('',( #950 ) ) ;
#899 = VECTOR ( 'NONE', #1262, 1000.000000000000000 ) ;
#900 =( NAMED_UNIT ( * ) SI_UNIT ( $, .STERADIAN. ) SOLID_ANGLE_UNIT ( ) );
#901 = LINE ( 'NONE', #53, #74 ) ;
#902 = CARTESIAN_POINT ( 'NONE',  ( -2.599307600111999683, 5.330000000000000071, -0.05999999999999961614 ) ) ;
#903 = VERTEX_POINT ( 'NONE', #349 ) ;
#904 = VERTEX_POINT ( 'NONE', #342 ) ;
#905 = VERTEX_POINT ( 'NONE', #34 ) ;
#906 = DIRECTION ( 'NONE',  ( 0.000000000000000000, -0.000000000000000000, -1.000000000000000000 ) ) ;
#907 =( GEOMETRIC_REPRESENTATION_CONTEXT ( 3 ) GLOBAL_UNCERTAINTY_ASSIGNED_CONTEXT ( ( #385 ) ) GLOBAL_UNIT_ASSIGNED_CONTEXT ( ( #691, #198, #86 ) ) REPRESENTATION_CONTEXT ( 'NONE', 'WORKASPACE' ) );
#908 = SHAPE_DEFINITION_REPRESENTATION ( #1032, #655 ) ;
#909 =( LENGTH_UNIT ( ) NAMED_UNIT ( * ) SI_UNIT ( .MILLI., .METRE. ) );
#910 =( NAMED_UNIT ( * ) PLANE_ANGLE_UNIT ( ) SI_UNIT ( $, .RADIAN. ) );
#911 = MECHANICAL_DESIGN_GEOMETRIC_PRESENTATION_REPRESENTATION (  '', ( #265 ), #328 ) ;
#912 = DIRECTION ( 'NONE',  ( 0.000000000000000000, -0.000000000000000000, -1.000000000000000000 ) ) ;
#913 = VECTOR ( 'NONE', #1058, 1000.000000000000000 ) ;
#914 = PRESENTATION_STYLE_ASSIGNMENT (( #842 ) ) ;
#915 = ORIENTED_EDGE ( 'NONE', *, *, #218, .F. ) ;
#916 = ORIENTED_EDGE ( 'NONE', *, *, #1172, .F. ) ;
#917 = CARTESIAN_POINT ( 'NONE',  ( 1.550000000000000488, -15.61999999999999922, 0.4600000000000011302 ) ) ;
#918 = EDGE_CURVE ( 'NONE', #876, #1051, #987, .T. ) ;
#919 = VECTOR ( 'NONE', #149, 1000.000000000000000 ) ;
#920 = MECHANICAL_DESIGN_GEOMETRIC_PRESENTATION_REPRESENTATION (  '', ( #1007 ), #494 ) ;
#921 = CARTESIAN_POINT ( 'NONE',  ( 0.000000000000000000, 0.000000000000000000, 0.000000000000000000 ) ) ;
#922 = CARTESIAN_POINT ( 'NONE',  ( -2.363550896990612493, 0.1008107286773708561, -1.602404148763771241 ) ) ;
#923 = FILL_AREA_STYLE_COLOUR ( '', #662 ) ;
#924 = UNCERTAINTY_MEASURE_WITH_UNIT (LENGTH_MEASURE( 1.000000000000000082E-05 ), #66, 'distance_accuracy_value', 'NONE');
#925 = FILL_AREA_STYLE ('',( #33 ) ) ;
#926 = CARTESIAN_POINT ( 'NONE',  ( 0.000000000000000000, 0.000000000000000000, -0.05999999999991690453 ) ) ;
#927 = UNCERTAINTY_MEASURE_WITH_UNIT (LENGTH_MEASURE( 1.000000000000000082E-05 ), #188, 'distance_accuracy_value', 'NONE');
#928 = STYLED_ITEM ( 'NONE', ( #475 ), #436 ) ;
#929 = COLOUR_RGB ( '',1.000000000000000000, 1.000000000000000000, 1.000000000000000000 ) ;
#930 = LINE ( 'NONE', #531, #872 ) ;
#931 = MECHANICAL_DESIGN_GEOMETRIC_PRESENTATION_REPRESENTATION (  '', ( #753 ), #1249 ) ;
#932 = CARTESIAN_POINT ( 'NONE',  ( -2.282183710113855124, 0.1000000000000002554, -1.590000000000000302 ) ) ;
#933 = PRESENTATION_STYLE_ASSIGNMENT (( #1232 ) ) ;
#934 = CARTESIAN_POINT ( 'NONE',  ( -0.1333801581852715468, 1.664975658910330836, 2.600009361957432930 ) ) ;
#935 = DIRECTION ( 'NONE',  ( -0.08697158355000635110, -0.06497318619807469775, 0.9940897488305945329 ) ) ;
#936 = EDGE_LOOP ( 'NONE', ( #302, #42, #283, #409 ) ) ;
#937 = ORIENTED_EDGE ( 'NONE', *, *, #942, .F. ) ;
#938 =( NAMED_UNIT ( * ) SI_UNIT ( $, .STERADIAN. ) SOLID_ANGLE_UNIT ( ) );
#939 = PRESENTATION_LAYER_ASSIGNMENT (  '', '', ( #1007 ) ) ;
#940 = PLANE ( 'NONE',  #612 ) ;
#941 = CARTESIAN_POINT ( 'NONE',  ( -0.8726871709034030866, 2.159577481015852118, 2.449756228569412553 ) ) ;
#942 = EDGE_CURVE ( 'NONE', #904, #62, #1149, .T. ) ;
#943 = ADVANCED_FACE ( 'NONE', ( #897 ), #127, .T. ) ;
#944 = CARTESIAN_POINT ( 'NONE',  ( 0.9900000000000002132, 0.000000000000000000, 0.4600000000000011857 ) ) ;
#945 = CARTESIAN_POINT ( 'NONE',  ( -2.598798231321259866, 5.330000000000000071, -0.06582211191954885632 ) ) ;
#946 = AXIS2_PLACEMENT_3D ( 'NONE', #628, #30, #125 ) ;
#947 = ORIENTED_EDGE ( 'NONE', *, *, #218, .T. ) ;
#948 = CARTESIAN_POINT ( 'NONE',  ( -0.9899999999999999911, -0.000000000000000000, -0.05999999999999917899 ) ) ;
#949 = VERTEX_POINT ( 'NONE', #242 ) ;
#950 = FILL_AREA_STYLE_COLOUR ( '', #1204 ) ;
#951 = FILL_AREA_STYLE_COLOUR ( '', #463 ) ;
#952 = ORIENTED_EDGE ( 'NONE', *, *, #157, .F. ) ;
#953 = ADVANCED_FACE ( 'NONE', ( #85 ), #431, .F. ) ;
#954 = VECTOR ( 'NONE', #774, 1000.000000000000000 ) ;
#955 =( NAMED_UNIT ( * ) PLANE_ANGLE_UNIT ( ) SI_UNIT ( $, .RADIAN. ) );
#956 = SURFACE_SIDE_STYLE ('',( #1180 ) ) ;
#957 = PRESENTATION_LAYER_ASSIGNMENT (  '', '', ( #564 ) ) ;
#958 = SURFACE_SIDE_STYLE ('',( #997 ) ) ;
#959 = MECHANICAL_DESIGN_GEOMETRIC_PRESENTATION_REPRESENTATION (  '', ( #815 ), #1189 ) ;
#960 =( NAMED_UNIT ( * ) PLANE_ANGLE_UNIT ( ) SI_UNIT ( $, .RADIAN. ) );
#961 = SURFACE_STYLE_USAGE ( .BOTH. , #371 ) ;
#962 = EDGE_CURVE ( 'NONE', #150, #1117, #1091, .T. ) ;
#963 = CARTESIAN_POINT ( 'NONE',  ( 1.000000000001266098, 2.664999999997883950, 2.399999999999711253 ) ) ;
#964 = LINE ( 'NONE', #504, #899 ) ;
#965 = MECHANICAL_DESIGN_GEOMETRIC_PRESENTATION_REPRESENTATION (  '', ( #808 ), #1131 ) ;
#966 = ORIENTED_EDGE ( 'NONE', *, *, #1223, .T. ) ;
#967 = ORIENTED_EDGE ( 'NONE', *, *, #483, .T. ) ;
#968 = CARTESIAN_POINT ( 'NONE',  ( 0.2643235501777567720, 3.638186697456933683, 2.589383666315633103 ) ) ;
#969 = ORIENTED_EDGE ( 'NONE', *, *, #1165, .T. ) ;
#970 =( NAMED_UNIT ( * ) PLANE_ANGLE_UNIT ( ) SI_UNIT ( $, .RADIAN. ) );
#971 =( NAMED_UNIT ( * ) SI_UNIT ( $, .STERADIAN. ) SOLID_ANGLE_UNIT ( ) );
#972 = EDGE_CURVE ( 'NONE', #25, #497, #1246, .T. ) ;
#973 = SURFACE_STYLE_USAGE ( .BOTH. , #1248 ) ;
#974 = FACE_OUTER_BOUND ( 'NONE', #1039, .T. ) ;
#975 = CIRCLE ( 'NONE', #374, 1.000000000000000000 ) ;
#976 = FACE_OUTER_BOUND ( 'NONE', #1182, .T. ) ;
#977 = VECTOR ( 'NONE', #147, 1000.000000000000227 ) ;
#978 = CARTESIAN_POINT ( 'NONE',  ( -2.282183710113855124, 0.1000000000000002554, -1.590000000000000302 ) ) ;
#979 = VECTOR ( 'NONE', #348, 1000.000000000000000 ) ;
#980 = ORIENTED_EDGE ( 'NONE', *, *, #279, .F. ) ;
#981 = CLOSED_SHELL ( 'NONE', ( #1236, #827, #154, #1215, #135, #1229, #436, #240, #540, #953, #451, #854, #1116, #347, #837, #843, #362, #543, #336, #747, #864, #733, #738, #446, #636, #943, #166, #1141 ) ) ;
#982 = CARTESIAN_POINT ( 'NONE',  ( 0.000000000000000000, -15.61999999999999922, 0.000000000000000000 ) ) ;
#983 = CARTESIAN_POINT ( 'NONE',  ( 2.598798231321260310, 0.0003805301908256161769, -0.06582211191954648322 ) ) ;
#984 = UNCERTAINTY_MEASURE_WITH_UNIT (LENGTH_MEASURE( 1.000000000000000082E-05 ), #367, 'distance_accuracy_value', 'NONE');
#985 = EDGE_CURVE ( 'NONE', #173, #266, #1010, .T. ) ;
#986 = STYLED_ITEM ( 'NONE', ( #1031 ), #543 ) ;
#987 = LINE ( 'NONE', #730, #487 ) ;
#988 =( NAMED_UNIT ( * ) PLANE_ANGLE_UNIT ( ) SI_UNIT ( $, .RADIAN. ) );
#989 = SURFACE_SIDE_STYLE ('',( #311 ) ) ;
#990 = EDGE_LOOP ( 'NONE', ( #556, #203, #378, #76 ) ) ;
#991 = DIRECTION ( 'NONE',  ( 1.000000000000000000, 0.000000000000000000, 0.000000000000000000 ) ) ;
#992 = PRESENTATION_LAYER_ASSIGNMENT (  '', '', ( #928 ) ) ;
#993 = ORIENTED_EDGE ( 'NONE', *, *, #821, .T. ) ;
#994 = CARTESIAN_POINT ( 'NONE',  ( 0.9900000000000002132, -15.61999999999999922, 0.4600000000000011857 ) ) ;
#995 = VERTEX_POINT ( 'NONE', #142 ) ;
#996 = PRESENTATION_LAYER_ASSIGNMENT (  '', '', ( #577 ) ) ;
#997 = SURFACE_STYLE_FILL_AREA ( #757 ) ;
#998 = PLANE ( 'NONE',  #244 ) ;
#999 = CARTESIAN_POINT ( 'NONE',  ( 0.2800000000000009148, -15.61999999999999922, 0.4600000000000009637 ) ) ;
#1000 = DIRECTION ( 'NONE',  ( 1.000000000000000000, 0.000000000000000000, 0.000000000000000000 ) ) ;
#1001 = PRESENTATION_LAYER_ASSIGNMENT (  '', '', ( #815 ) ) ;
#1002 =( NAMED_UNIT ( * ) SI_UNIT ( $, .STERADIAN. ) SOLID_ANGLE_UNIT ( ) );
#1003 = CARTESIAN_POINT ( 'NONE',  ( 0.000000000000000000, 5.330000000000000071, 0.000000000000000000 ) ) ;
#1004 = ORIENTED_EDGE ( 'NONE', *, *, #918, .T. ) ;
#1005 = EDGE_CURVE ( 'NONE', #187, #1117, #290, .T. ) ;
#1006 = ORIENTED_EDGE ( 'NONE', *, *, #1105, .T. ) ;
#1007 = STYLED_ITEM ( 'NONE', ( #1191 ), #451 ) ;
#1008 = SURFACE_STYLE_USAGE ( .BOTH. , #222 ) ;
#1009 =( LENGTH_UNIT ( ) NAMED_UNIT ( * ) SI_UNIT ( .MILLI., .METRE. ) );
#1010 = LINE ( 'NONE', #1016, #844 ) ;
#1011 =( GEOMETRIC_REPRESENTATION_CONTEXT ( 3 ) GLOBAL_UNCERTAINTY_ASSIGNED_CONTEXT ( ( #924 ) ) GLOBAL_UNIT_ASSIGNED_CONTEXT ( ( #66, #960, #251 ) ) REPRESENTATION_CONTEXT ( 'NONE', 'WORKASPACE' ) );
#1012 = SURFACE_STYLE_FILL_AREA ( #1021 ) ;
#1013 =( GEOMETRIC_REPRESENTATION_CONTEXT ( 3 ) GLOBAL_UNCERTAINTY_ASSIGNED_CONTEXT ( ( #1060 ) ) GLOBAL_UNIT_ASSIGNED_CONTEXT ( ( #1076, #79, #291 ) ) REPRESENTATION_CONTEXT ( 'NONE', 'WORKASPACE' ) );
#1014 = PLANE ( 'NONE',  #5 ) ;
#1015 = VECTOR ( 'NONE', #390, 1000.000000000000000 ) ;
#1016 = CARTESIAN_POINT ( 'NONE',  ( -1.550000000000000266, -15.61999999999999922, -0.05999999999999917899 ) ) ;
#1017 = VERTEX_POINT ( 'NONE', #1205 ) ;
#1018 = VERTEX_POINT ( 'NONE', #643 ) ;
#1019 = EDGE_CURVE ( 'NONE', #716, #949, #778, .T. ) ;
#1020 = CARTESIAN_POINT ( 'NONE',  ( 2.259451648277501778, 0.1452520748048619637, -2.282356744514420388 ) ) ;
#1021 = FILL_AREA_STYLE ('',( #31 ) ) ;
#1022 =( GEOMETRIC_REPRESENTATION_CONTEXT ( 3 ) GLOBAL_UNCERTAINTY_ASSIGNED_CONTEXT ( ( #316 ) ) GLOBAL_UNIT_ASSIGNED_CONTEXT ( ( #7, #1178, #95 ) ) REPRESENTATION_CONTEXT ( 'NONE', 'WORKASPACE' ) );
#1023 = CARTESIAN_POINT ( 'NONE',  ( 2.599307600111999683, 5.330000000000000071, -0.05999999999999961614 ) ) ;
#1024 = CARTESIAN_POINT ( 'NONE',  ( 0.2647022319528861689, 1.691811442567055623, 2.589376922638014111 ) ) ;
#1025 = DIRECTION ( 'NONE',  ( 1.042502088928369534E-16, -0.000000000000000000, -1.000000000000000000 ) ) ;
#1026 = CARTESIAN_POINT ( 'NONE',  ( 2.429538576444337572, 0.1268280274451088208, -2.000468819910182106 ) ) ;
#1027 = CARTESIAN_POINT ( 'NONE',  ( -0.2799999999999991385, -15.61999999999999922, 0.4600000000000009637 ) ) ;
#1028 = DIRECTION ( 'NONE',  ( 0.000000000000000000, -1.000000000000000000, -0.000000000000000000 ) ) ;
#1029 = STYLED_ITEM ( 'NONE', ( #323 ), #38 ) ;
#1030 = FACE_OUTER_BOUND ( 'NONE', #313, .T. ) ;
#1031 = PRESENTATION_STYLE_ASSIGNMENT (( #329 ) ) ;
#1032 = PRODUCT_DEFINITION_SHAPE ( 'NONE', 'NONE',  #447 ) ;
#1033 = SURFACE_SIDE_STYLE ('',( #1266 ) ) ;
#1034 = LINE ( 'NONE', #479, #1154 ) ;
#1035 = DIRECTION ( 'NONE',  ( 0.000000000000000000, 0.000000000000000000, -1.000000000000000000 ) ) ;
#1036 = DIRECTION ( 'NONE',  ( -0.000000000000000000, 0.9978708884038351989, -0.06522031950351542262 ) ) ;
#1037 = ORIENTED_EDGE ( 'NONE', *, *, #759, .F. ) ;
#1038 = ORIENTED_EDGE ( 'NONE', *, *, #47, .T. ) ;
#1039 = EDGE_LOOP ( 'NONE', ( #731, #284, #1072, #498 ) ) ;
#1040 = CARTESIAN_POINT ( 'NONE',  ( 1.550000000000000488, -15.61999999999999922, 0.4600000000000011302 ) ) ;
#1041 =( NAMED_UNIT ( * ) SI_UNIT ( $, .STERADIAN. ) SOLID_ANGLE_UNIT ( ) );
#1042 = PRESENTATION_STYLE_ASSIGNMENT (( #1129 ) ) ;
#1043 = PRESENTATION_LAYER_ASSIGNMENT (  '', '', ( #410 ) ) ;
#1044 = CARTESIAN_POINT ( 'NONE',  ( -1.550000000000000266, 0.000000000000000000, 0.4600000000000006861 ) ) ;
#1045 =( NAMED_UNIT ( * ) SI_UNIT ( $, .STERADIAN. ) SOLID_ANGLE_UNIT ( ) );
#1046 = LINE ( 'NONE', #867, #578 ) ;
#1047 = EDGE_CURVE ( 'NONE', #716, #388, #598, .T. ) ;
#1048 = PLANE ( 'NONE',  #1160 ) ;
#1049 = FILL_AREA_STYLE_COLOUR ( '', #120 ) ;
#1050 =( GEOMETRIC_REPRESENTATION_CONTEXT ( 3 ) GLOBAL_UNCERTAINTY_ASSIGNED_CONTEXT ( ( #232 ) ) GLOBAL_UNIT_ASSIGNED_CONTEXT ( ( #661, #1052, #760 ) ) REPRESENTATION_CONTEXT ( 'NONE', 'WORKASPACE' ) );
#1051 = VERTEX_POINT ( 'NONE', #629 ) ;
#1052 =( NAMED_UNIT ( * ) PLANE_ANGLE_UNIT ( ) SI_UNIT ( $, .RADIAN. ) );
#1053 = ORIENTED_EDGE ( 'NONE', *, *, #890, .T. ) ;
#1054 = CARTESIAN_POINT ( 'NONE',  ( -2.282183710113855124, 5.330000000000000071, -1.590000000000000302 ) ) ;
#1055 = CARTESIAN_POINT ( 'NONE',  ( -1.550000000000000266, -15.61999999999999922, 0.4600000000000006861 ) ) ;
#1056 = ORIENTED_EDGE ( 'NONE', *, *, #693, .T. ) ;
#1057 = PRESENTATION_STYLE_ASSIGNMENT (( #973 ) ) ;
#1058 = DIRECTION ( 'NONE',  ( 0.000000000000000000, 1.000000000000000000, 0.000000000000000000 ) ) ;
#1059 = MECHANICAL_DESIGN_GEOMETRIC_PRESENTATION_REPRESENTATION (  '', ( #928 ), #1242 ) ;
#1060 = UNCERTAINTY_MEASURE_WITH_UNIT (LENGTH_MEASURE( 1.000000000000000082E-05 ), #1076, 'distance_accuracy_value', 'NONE');
#1061 = CARTESIAN_POINT ( 'NONE',  ( 0.000000000000000000, 2.665000000000000036, 0.000000000000000000 ) ) ;
#1062 = UNCERTAINTY_MEASURE_WITH_UNIT (LENGTH_MEASURE( 1.000000000000000082E-05 ), #1144, 'distance_accuracy_value', 'NONE');
#1063 =( GEOMETRIC_REPRESENTATION_CONTEXT ( 3 ) GLOBAL_UNCERTAINTY_ASSIGNED_CONTEXT ( ( #1062 ) ) GLOBAL_UNIT_ASSIGNED_CONTEXT ( ( #1144, #1152, #553 ) ) REPRESENTATION_CONTEXT ( 'NONE', 'WORKASPACE' ) );
#1064 = CARTESIAN_POINT ( 'NONE',  ( 0.1315805574075992190, 3.664984325979464774, 2.599993971530601744 ) ) ;
#1065 = DIRECTION ( 'NONE',  ( -0.000000000000000000, 1.000000000000000000, -0.000000000000000000 ) ) ;
#1066 = DIRECTION ( 'NONE',  ( 0.000000000000000000, -1.000000000000000000, 0.000000000000000000 ) ) ;
#1067 = VECTOR ( 'NONE', #1265, 1000.000000000000000 ) ;
#1068 = LINE ( 'NONE', #11, #491 ) ;
#1069 =( NAMED_UNIT ( * ) PLANE_ANGLE_UNIT ( ) SI_UNIT ( $, .RADIAN. ) );
#1070 = PRESENTATION_LAYER_ASSIGNMENT (  '', '', ( #16 ) ) ;
#1071 = ORIENTED_EDGE ( 'NONE', *, *, #962, .T. ) ;
#1072 = ORIENTED_EDGE ( 'NONE', *, *, #1105, .F. ) ;
#1073 = EDGE_CURVE ( 'NONE', #62, #637, #411, .T. ) ;
#1074 = FILL_AREA_STYLE ('',( #383 ) ) ;
#1075 = PRESENTATION_LAYER_ASSIGNMENT (  '', '', ( #986 ) ) ;
#1076 =( LENGTH_UNIT ( ) NAMED_UNIT ( * ) SI_UNIT ( .MILLI., .METRE. ) );
#1077 = CARTESIAN_POINT ( 'NONE',  ( 1.000000000000000000, 2.665000000000000036, 0.000000000000000000 ) ) ;
#1078 = FILL_AREA_STYLE ('',( #550 ) ) ;
#1079 = SURFACE_STYLE_USAGE ( .BOTH. , #581 ) ;
#1080 = SURFACE_STYLE_FILL_AREA ( #145 ) ;
#1081 = CARTESIAN_POINT ( 'NONE',  ( 0.9900000000000002132, -15.61999999999999922, -0.05999999999999901940 ) ) ;
#1082 = STYLED_ITEM ( 'NONE', ( #831 ), #347 ) ;
#1083 = ORIENTED_EDGE ( 'NONE', *, *, #611, .T. ) ;
#1084 = VERTEX_POINT ( 'NONE', #230 ) ;
#1085 = PRESENTATION_LAYER_ASSIGNMENT (  '', '', ( #43 ) ) ;
#1086 = ORIENTED_EDGE ( 'NONE', *, *, #289, .T. ) ;
#1087 = FILL_AREA_STYLE_COLOUR ( '', #210 ) ;
#1088 = LINE ( 'NONE', #67, #919 ) ;
#1089 = SURFACE_SIDE_STYLE ('',( #73 ) ) ;
#1090 = FILL_AREA_STYLE ('',( #395 ) ) ;
#1091 = LINE ( 'NONE', #138, #579 ) ;
#1092 = CARTESIAN_POINT ( 'NONE',  ( -1.550000000000000266, -15.61999999999999922, -0.05999999999999917899 ) ) ;
#1093 =( NAMED_UNIT ( * ) SI_UNIT ( $, .STERADIAN. ) SOLID_ANGLE_UNIT ( ) );
#1094 = ORIENTED_EDGE ( 'NONE', *, *, #186, .T. ) ;
#1095 = UNCERTAINTY_MEASURE_WITH_UNIT (LENGTH_MEASURE( 1.000000000000000082E-05 ), #1155, 'distance_accuracy_value', 'NONE');
#1096 = PLANE ( 'NONE',  #1267 ) ;
#1097 = ORIENTED_EDGE ( 'NONE', *, *, #186, .F. ) ;
#1098 = FILL_AREA_STYLE_COLOUR ( '', #647 ) ;
#1099 = EDGE_CURVE ( 'NONE', #248, #1240, #1046, .T. ) ;
#1100 = PRESENTATION_LAYER_ASSIGNMENT (  '', '', ( #1225 ) ) ;
#1101 = SURFACE_STYLE_FILL_AREA ( #1231 ) ;
#1102 = VECTOR ( 'NONE', #809, 1000.000000000000000 ) ;
#1103 = DIRECTION ( 'NONE',  ( 0.000000000000000000, 1.000000000000000000, 0.000000000000000000 ) ) ;
#1104 = EDGE_LOOP ( 'NONE', ( #607, #493, #1004, #1006 ) ) ;
#1105 = EDGE_CURVE ( 'NONE', #1051, #248, #1260, .T. ) ;
#1106 = ORIENTED_EDGE ( 'NONE', *, *, #412, .F. ) ;
#1107 = EDGE_LOOP ( 'NONE', ( #90, #1184, #787, #344 ) ) ;
#1108 = STYLED_ITEM ( 'NONE', ( #406 ), #827 ) ;
#1109 = CARTESIAN_POINT ( 'NONE',  ( 2.366423603302740375, 5.230415667642660971, -1.583640285067269726 ) ) ;
#1110 = FACE_OUTER_BOUND ( 'NONE', #213, .T. ) ;
#1111 = CARTESIAN_POINT ( 'NONE',  ( -1.550000000000000266, -15.61999999999999922, 0.4600000000000006861 ) ) ;
#1112 = CARTESIAN_POINT ( 'NONE',  ( -2.464063708791116358, 0.1010356046684142556, -1.605844751426735106 ) ) ;
#1113 =( GEOMETRIC_REPRESENTATION_CONTEXT ( 3 ) GLOBAL_UNCERTAINTY_ASSIGNED_CONTEXT ( ( #695 ) ) GLOBAL_UNIT_ASSIGNED_CONTEXT ( ( #444, #1167, #449 ) ) REPRESENTATION_CONTEXT ( 'NONE', 'WORKASPACE' ) );
#1114 = SURFACE_STYLE_FILL_AREA ( #1074 ) ;
#1115 = CARTESIAN_POINT ( 'NONE',  ( 0.6165354091096341138, 1.867147841210535120, 2.527622701068366950 ) ) ;
#1116 = ADVANCED_FACE ( 'NONE', ( #82 ), #1136, .F. ) ;
#1117 = VERTEX_POINT ( 'NONE', #133 ) ;
#1118 =( NAMED_UNIT ( * ) SI_UNIT ( $, .STERADIAN. ) SOLID_ANGLE_UNIT ( ) );
#1119 = ORIENTED_EDGE ( 'NONE', *, *, #289, .F. ) ;
#1120 =( NAMED_UNIT ( * ) SI_UNIT ( $, .STERADIAN. ) SOLID_ANGLE_UNIT ( ) );
#1121 = CARTESIAN_POINT ( 'NONE',  ( -0.2799999999999991385, -15.61999999999999922, 0.4600000000000009637 ) ) ;
#1122 = ORIENTED_EDGE ( 'NONE', *, *, #483, .F. ) ;
#1123 = AXIS2_PLACEMENT_3D ( 'NONE', #1061, #252, #1243 ) ;
#1124 = CARTESIAN_POINT ( 'NONE',  ( -0.2799999999999990830, -15.61999999999999922, -0.05999999999999913042 ) ) ;
#1125 = SURFACE_STYLE_USAGE ( .BOTH. , #632 ) ;
#1126 = EDGE_CURVE ( 'NONE', #228, #266, #1187, .T. ) ;
#1127 = FILL_AREA_STYLE_COLOUR ( '', #853 ) ;
#1128 = CARTESIAN_POINT ( 'NONE',  ( 0.9999999999997361000, 2.533042922489415094, 2.400000000000110489 ) ) ;
#1129 = SURFACE_STYLE_USAGE ( .BOTH. , #958 ) ;
#1130 = PRESENTATION_STYLE_ASSIGNMENT (( #1125 ) ) ;
#1131 =( GEOMETRIC_REPRESENTATION_CONTEXT ( 3 ) GLOBAL_UNCERTAINTY_ASSIGNED_CONTEXT ( ( #1095 ) ) GLOBAL_UNIT_ASSIGNED_CONTEXT ( ( #1155, #288, #971 ) ) REPRESENTATION_CONTEXT ( 'NONE', 'WORKASPACE' ) );
#1132 = LINE ( 'NONE', #1044, #453 ) ;
#1133 = CARTESIAN_POINT ( 'NONE',  ( -2.599307600111999683, 0.000000000000000000, -0.05999999999999961614 ) ) ;
#1134 = SURFACE_STYLE_FILL_AREA ( #762 ) ;
#1135 = DIRECTION ( 'NONE',  ( -1.000000000000000000, 0.000000000000000000, 0.000000000000000000 ) ) ;
#1136 = PLANE ( 'NONE',  #220 ) ;
#1137 = VECTOR ( 'NONE', #823, 1000.000000000000000 ) ;
#1138 = ORIENTED_EDGE ( 'NONE', *, *, #442, .T. ) ;
#1139 = ORIENTED_EDGE ( 'NONE', *, *, #513, .T. ) ;
#1140 = CARTESIAN_POINT ( 'NONE',  ( -0.2639119792267866083, 3.638400166537756775, 2.589458354268154849 ) ) ;
#1141 = ADVANCED_FACE ( 'NONE', ( #561 ), #454, .T. ) ;
#1142 = CARTESIAN_POINT ( 'NONE',  ( 0.2800000000000009703, 0.000000000000000000, -0.05999999999999913042 ) ) ;
#1143 = AXIS2_PLACEMENT_3D ( 'NONE', #488, #687, #91 ) ;
#1144 =( LENGTH_UNIT ( ) NAMED_UNIT ( * ) SI_UNIT ( .MILLI., .METRE. ) );
#1145 = PLANE ( 'NONE',  #653 ) ;
#1146 = DIRECTION ( 'NONE',  ( -1.000000000000000000, -0.000000000000000000, -0.000000000000000000 ) ) ;
#1147 = UNCERTAINTY_MEASURE_WITH_UNIT (LENGTH_MEASURE( 1.000000000000000082E-05 ), #909, 'distance_accuracy_value', 'NONE');
#1148 = DIRECTION ( 'NONE',  ( -0.000000000000000000, 1.000000000000000000, -0.000000000000000000 ) ) ;
#1149 = LINE ( 'NONE', #945, #1203 ) ;
#1150 = DIRECTION ( 'NONE',  ( -1.000000000000000000, -0.000000000000000000, -0.000000000000000000 ) ) ;
#1151 = VECTOR ( 'NONE', #569, 1000.000000000000000 ) ;
#1152 =( NAMED_UNIT ( * ) PLANE_ANGLE_UNIT ( ) SI_UNIT ( $, .RADIAN. ) );
#1153 =( GEOMETRIC_REPRESENTATION_CONTEXT ( 3 ) GLOBAL_UNCERTAINTY_ASSIGNED_CONTEXT ( ( #751 ) ) GLOBAL_UNIT_ASSIGNED_CONTEXT ( ( #26, #835, #245 ) ) REPRESENTATION_CONTEXT ( 'NONE', 'WORKASPACE' ) );
#1154 = VECTOR ( 'NONE', #1228, 1000.000000000000227 ) ;
#1155 =( LENGTH_UNIT ( ) NAMED_UNIT ( * ) SI_UNIT ( .MILLI., .METRE. ) );
#1156 = EDGE_LOOP ( 'NONE', ( #1219, #666, #1206, #1196 ) ) ;
#1157 = SURFACE_SIDE_STYLE ('',( #286 ) ) ;
#1158 = VERTEX_POINT ( 'NONE', #663 ) ;
#1159 = DIRECTION ( 'NONE',  ( -0.000000000000000000, 1.000000000000000000, -0.000000000000000000 ) ) ;
#1160 = AXIS2_PLACEMENT_3D ( 'NONE', #544, #437, #48 ) ;
#1161 = DIRECTION ( 'NONE',  ( 1.000000000000000000, 0.000000000000000000, 0.000000000000000000 ) ) ;
#1162 = CARTESIAN_POINT ( 'NONE',  ( -0.9899999999999999911, -15.61999999999999922, -0.05999999999999917899 ) ) ;
#1163 = PRESENTATION_STYLE_ASSIGNMENT (( #694 ) ) ;
#1164 = CARTESIAN_POINT ( 'NONE',  ( 0.000000000000000000, 5.330000000000000071, 0.000000000000000000 ) ) ;
#1165 = EDGE_CURVE ( 'NONE', #420, #228, #822, .T. ) ;
#1166 = APPLICATION_PROTOCOL_DEFINITION ( 'draft international standard', 'automotive_design', 1998, #83 ) ;
#1167 =( NAMED_UNIT ( * ) PLANE_ANGLE_UNIT ( ) SI_UNIT ( $, .RADIAN. ) );
#1168 = ORIENTED_EDGE ( 'NONE', *, *, #392, .F. ) ;
#1169 = EDGE_LOOP ( 'NONE', ( #1139, #684, #840, #387 ) ) ;
#1170 = CARTESIAN_POINT ( 'NONE',  ( 1.550000000000000488, 0.000000000000000000, -0.05999999999999901940 ) ) ;
#1171 = CARTESIAN_POINT ( 'NONE',  ( -1.550000000000000266, 0.000000000000000000, 0.4600000000000006861 ) ) ;
#1172 = EDGE_CURVE ( 'NONE', #1017, #876, #219, .T. ) ;
#1173 = MECHANICAL_DESIGN_GEOMETRIC_PRESENTATION_REPRESENTATION (  '', ( #634 ), #858 ) ;
#1174 = SURFACE_STYLE_USAGE ( .BOTH. , #896 ) ;
#1175 = VECTOR ( 'NONE', #402, 1000.000000000000000 ) ;
#1176 = DIRECTION ( 'NONE',  ( -1.042502088928369534E-16, 0.000000000000000000, 1.000000000000000000 ) ) ;
#1177 = VECTOR ( 'NONE', #795, 1000.000000000000000 ) ;
#1178 =( NAMED_UNIT ( * ) PLANE_ANGLE_UNIT ( ) SI_UNIT ( $, .RADIAN. ) );
#1179 = PRESENTATION_LAYER_ASSIGNMENT (  '', '', ( #1082 ) ) ;
#1180 = SURFACE_STYLE_FILL_AREA ( #642 ) ;
#1181 = CARTESIAN_POINT ( 'NONE',  ( 0.000000000000000000, 0.000000000000000000, -0.05999999999991690453 ) ) ;
#1182 = EDGE_LOOP ( 'NONE', ( #108, #264, #1037, #521 ) ) ;
#1183 = ORIENTED_EDGE ( 'NONE', *, *, #1255, .F. ) ;
#1184 = ORIENTED_EDGE ( 'NONE', *, *, #850, .T. ) ;
#1185 = DIRECTION ( 'NONE',  ( 0.000000000000000000, -1.000000000000000000, 0.000000000000000000 ) ) ;
#1186 = CARTESIAN_POINT ( 'NONE',  ( 2.365449944917340730, 5.330000000000000071, -1.590000000000000302 ) ) ;
#1187 = LINE ( 'NONE', #171, #368 ) ;
#1188 = PLANE ( 'NONE',  #455 ) ;
#1189 =( GEOMETRIC_REPRESENTATION_CONTEXT ( 3 ) GLOBAL_UNCERTAINTY_ASSIGNED_CONTEXT ( ( #1234 ) ) GLOBAL_UNIT_ASSIGNED_CONTEXT ( ( #580, #970, #883 ) ) REPRESENTATION_CONTEXT ( 'NONE', 'WORKASPACE' ) );
#1190 = CARTESIAN_POINT ( 'NONE',  ( -1.550000000000000266, -15.61999999999999922, 0.4600000000000006861 ) ) ;
#1191 = PRESENTATION_STYLE_ASSIGNMENT (( #727 ) ) ;
#1192 = DIRECTION ( 'NONE',  ( 0.000000000000000000, -1.000000000000000000, 0.000000000000000000 ) ) ;
#1193 = CIRCLE ( 'NONE', #335, 2.600000000000000533 ) ;
#1194 = EDGE_CURVE ( 'NONE', #497, #949, #1088, .T. ) ;
#1195 = SURFACE_STYLE_FILL_AREA ( #8 ) ;
#1196 = ORIENTED_EDGE ( 'NONE', *, *, #1099, .T. ) ;
#1197 = ORIENTED_EDGE ( 'NONE', *, *, #139, .T. ) ;
#1198 = CARTESIAN_POINT ( 'NONE',  ( -0.9899999999999999911, -15.61999999999999922, 0.4600000000000006861 ) ) ;
#1199 = ORIENTED_EDGE ( 'NONE', *, *, #1073, .T. ) ;
#1200 = CARTESIAN_POINT ( 'NONE',  ( 0.000000000000000000, -15.61999999999999922, 0.000000000000000000 ) ) ;
#1201 = MECHANICAL_DESIGN_GEOMETRIC_PRESENTATION_REPRESENTATION (  '', ( #1082 ), #121 ) ;
#1202 =( NAMED_UNIT ( * ) PLANE_ANGLE_UNIT ( ) SI_UNIT ( $, .RADIAN. ) );
#1203 = VECTOR ( 'NONE', #1028, 1000.000000000000000 ) ;
#1204 = COLOUR_RGB ( '',1.000000000000000000, 1.000000000000000000, 1.000000000000000000 ) ;
#1205 = CARTESIAN_POINT ( 'NONE',  ( 1.550000000000000488, -15.61999999999999922, 0.4600000000000011302 ) ) ;
#1206 = ORIENTED_EDGE ( 'NONE', *, *, #490, .F. ) ;
#1207 = ORIENTED_EDGE ( 'NONE', *, *, #1005, .F. ) ;
#1208 = AXIS2_PLACEMENT_3D ( 'NONE', #845, #1235, #457 ) ;
#1209 = CARTESIAN_POINT ( 'NONE',  ( -0.2799999999999990830, -15.61999999999999922, -0.05999999999999913042 ) ) ;
#1210 = CARTESIAN_POINT ( 'NONE',  ( 0.8731112283406560204, 2.160418461538186730, 2.449599922569004384 ) ) ;
#1211 = DIRECTION ( 'NONE',  ( 1.000000000000000000, 0.000000000000000000, 1.042502088928369534E-16 ) ) ;
#1212 =( LENGTH_UNIT ( ) NAMED_UNIT ( * ) SI_UNIT ( .MILLI., .METRE. ) );
#1213 = CARTESIAN_POINT ( 'NONE',  ( -1.000000000000000222, 2.533110464511189708, 2.400000000000000355 ) ) ;
#1214 =( NAMED_UNIT ( * ) PLANE_ANGLE_UNIT ( ) SI_UNIT ( $, .RADIAN. ) );
#1215 = ADVANCED_FACE ( 'NONE', ( #64 ), #354, .F. ) ;
#1216 = UNCERTAINTY_MEASURE_WITH_UNIT (LENGTH_MEASURE( 1.000000000000000082E-05 ), #369, 'distance_accuracy_value', 'NONE');
#1217 = DIRECTION ( 'NONE',  ( -0.000000000000000000, 1.000000000000000000, -0.000000000000000000 ) ) ;
#1218 = PRESENTATION_STYLE_ASSIGNMENT (( #6 ) ) ;
#1219 = ORIENTED_EDGE ( 'NONE', *, *, #812, .T. ) ;
#1220 = CARTESIAN_POINT ( 'NONE',  ( -2.365449944917341618, 5.229999999999999538, -1.590000000000000302 ) ) ;
#1221 = ORIENTED_EDGE ( 'NONE', *, *, #47, .F. ) ;
#1222 = CARTESIAN_POINT ( 'NONE',  ( 0.000000000000000000, 2.665000000000000036, 2.600000000000000533 ) ) ;
#1223 = EDGE_CURVE ( 'NONE', #1018, #620, #526, .T. ) ;
#1224 = FILL_AREA_STYLE ('',( #1049 ) ) ;
#1225 = STYLED_ITEM ( 'NONE', ( #547 ), #854 ) ;
#1226 = COLOUR_RGB ( '',0.2509803921568627416, 0.2509803921568627416, 0.2509803921568627416 ) ;
#1227 = CARTESIAN_POINT ( 'NONE',  ( -0.1313422072731924573, 3.665015659817838500, 2.600006023006824485 ) ) ;
#1228 = DIRECTION ( 'NONE',  ( 0.08697158355000610130, 0.06497318619807485041, 0.9940897488305945329 ) ) ;
#1229 = ADVANCED_FACE ( 'NONE', ( #1110 ), #375, .F. ) ;
#1230 = EDGE_CURVE ( 'NONE', #407, #388, #702, .T. ) ;
#1231 = FILL_AREA_STYLE ('',( #65 ) ) ;
#1232 = SURFACE_STYLE_USAGE ( .BOTH. , #956 ) ;
#1233 = MECHANICAL_DESIGN_GEOMETRIC_PRESENTATION_REPRESENTATION (  '', ( #986 ), #1153 ) ;
#1234 = UNCERTAINTY_MEASURE_WITH_UNIT (LENGTH_MEASURE( 1.000000000000000082E-05 ), #580, 'distance_accuracy_value', 'NONE');
#1235 = DIRECTION ( 'NONE',  ( 0.9884826070129563158, 0.000000000000000000, 0.1513345156693257088 ) ) ;
#1236 = ADVANCED_FACE ( 'NONE', ( #776 ), #880, .F. ) ;
#1237 = SURFACE_SIDE_STYLE ('',( #146 ) ) ;
#1238 = DIRECTION ( 'NONE',  ( -1.000000000000000000, -0.000000000000000000, 9.680376540049142154E-17 ) ) ;
#1239 = ORIENTED_EDGE ( 'NONE', *, *, #513, .F. ) ;
#1240 = VERTEX_POINT ( 'NONE', #1170 ) ;
#1241 = ORIENTED_EDGE ( 'NONE', *, *, #300, .T. ) ;
#1242 =( GEOMETRIC_REPRESENTATION_CONTEXT ( 3 ) GLOBAL_UNCERTAINTY_ASSIGNED_CONTEXT ( ( #1257 ) ) GLOBAL_UNIT_ASSIGNED_CONTEXT ( ( #615, #816, #717 ) ) REPRESENTATION_CONTEXT ( 'NONE', 'WORKASPACE' ) );
#1243 = DIRECTION ( 'NONE',  ( 1.000000000000000000, 0.000000000000000000, -0.000000000000000000 ) ) ;
#1244 = SURFACE_SIDE_STYLE ('',( #849 ) ) ;
#1245 = DIRECTION ( 'NONE',  ( 0.9961946980917458783, -0.000000000000000000, 0.08715574274765437723 ) ) ;
#1246 = LINE ( 'NONE', #333, #317 ) ;
#1247 = CARTESIAN_POINT ( 'NONE',  ( 0.9900000000000002132, -15.61999999999999922, -0.05999999999999901940 ) ) ;
#1248 = SURFACE_SIDE_STYLE ('',( #29 ) ) ;
#1249 =( GEOMETRIC_REPRESENTATION_CONTEXT ( 3 ) GLOBAL_UNCERTAINTY_ASSIGNED_CONTEXT ( ( #3 ) ) GLOBAL_UNIT_ASSIGNED_CONTEXT ( ( #164, #358, #1045 ) ) REPRESENTATION_CONTEXT ( 'NONE', 'WORKASPACE' ) );
#1250 = SURFACE_STYLE_FILL_AREA ( #130 ) ;
#1251 = SURFACE_STYLE_FILL_AREA ( #610 ) ;
#1252 = SURFACE_SIDE_STYLE ('',( #416 ) ) ;
#1253 = ORIENTED_EDGE ( 'NONE', *, *, #985, .T. ) ;
#1254 = EDGE_LOOP ( 'NONE', ( #1197, #462, #590, #743 ) ) ;
#1255 = EDGE_CURVE ( 'NONE', #555, #716, #594, .T. ) ;
#1256 = DIRECTION ( 'NONE',  ( 0.000000000000000000, 0.000000000000000000, -1.000000000000000000 ) ) ;
#1257 = UNCERTAINTY_MEASURE_WITH_UNIT (LENGTH_MEASURE( 1.000000000000000082E-05 ), #615, 'distance_accuracy_value', 'NONE');
#1258 = STYLED_ITEM ( 'NONE', ( #54 ), #747 ) ;
#1259 = SURFACE_STYLE_USAGE ( .BOTH. , #1157 ) ;
#1260 = LINE ( 'NONE', #270, #427 ) ;
#1261 = PLANE ( 'NONE',  #205 ) ;
#1262 = DIRECTION ( 'NONE',  ( 1.000000000000000000, 0.000000000000000000, 0.000000000000000000 ) ) ;
#1263 = EDGE_CURVE ( 'NONE', #407, #420, #480, .T. ) ;
#1264 = VECTOR ( 'NONE', #773, 1000.000000000000000 ) ;
#1265 = DIRECTION ( 'NONE',  ( -0.000000000000000000, 1.000000000000000000, -0.000000000000000000 ) ) ;
#1266 = SURFACE_STYLE_FILL_AREA ( #39 ) ;
#1267 = AXIS2_PLACEMENT_3D ( 'NONE', #1081, #306, #201 ) ;
#1268 = ORIENTED_EDGE ( 'NONE', *, *, #157, .T. ) ;
#1269 = SURFACE_SIDE_STYLE ('',( #720 ) ) ;
ENDSEC;
END-ISO-10303-21;
