%TF.GenerationSoftware,KiCad,Pcbnew,10.0.3*%
%TF.CreationDate,2026-08-25T16:36:38+02:00*%
%TF.ProjectId,sensor-module,73656e73-6f72-42d6-9d6f-64756c652e6b,rev?*%
%TF.SameCoordinates,Original*%
%TF.FileFunction,Other,User*%
%FSLAX46Y46*%
G04 Gerber Fmt 4.6, Leading zero omitted, Abs format (unit mm)*
G04 Created by KiCad (PCBNEW 10.0.3) date 2026-08-25 16:36:38*
%MOMM*%
%LPD*%
G01*
G04 APERTURE LIST*
%ADD10C,0.050000*%
%ADD11C,0.100000*%
%TA.AperFunction,Profile*%
%ADD12C,0.200000*%
%TD*%
G04 APERTURE END LIST*
%TO.C,C15*%
D10*
X120800000Y-99520000D02*
X124200000Y-99520000D01*
X124200000Y-101480000D01*
X120800000Y-101480000D01*
X120800000Y-99520000D01*
%TO.C,L3*%
X91750000Y-74000000D02*
X91750000Y-81000000D01*
X91750000Y-81000000D02*
X98250000Y-81000000D01*
X98250000Y-74000000D02*
X91750000Y-74000000D01*
X98250000Y-81000000D02*
X98250000Y-74000000D01*
%TO.C,C27*%
X125919200Y-78520000D02*
X129319200Y-78520000D01*
X129319200Y-80480000D01*
X125919200Y-80480000D01*
X125919200Y-78520000D01*
%TO.C,C52*%
X65919200Y-106300000D02*
X76219200Y-106300000D01*
X65919200Y-118800000D02*
X65919200Y-106300000D01*
X76219200Y-106300000D02*
X76219200Y-118800000D01*
X76219200Y-118800000D02*
X65919200Y-118800000D01*
%TO.C,U1*%
X115800000Y-88300000D02*
X116000000Y-88300000D01*
X115800000Y-92700000D02*
X115800000Y-88300000D01*
X116000000Y-86800000D02*
X126000000Y-86800000D01*
X116000000Y-88300000D02*
X116000000Y-86800000D01*
X116000000Y-92700000D02*
X115800000Y-92700000D01*
X116000000Y-94200000D02*
X116000000Y-92700000D01*
X126000000Y-86800000D02*
X126000000Y-88300000D01*
X126000000Y-88300000D02*
X126200000Y-88300000D01*
X126000000Y-92700000D02*
X126000000Y-94200000D01*
X126000000Y-94200000D02*
X116000000Y-94200000D01*
X126200000Y-88300000D02*
X126200000Y-92700000D01*
X126200000Y-92700000D02*
X126000000Y-92700000D01*
%TO.C,D7*%
X146750000Y-84000000D02*
X150250000Y-84000000D01*
X146750000Y-91000000D02*
X146750000Y-84000000D01*
X150250000Y-84000000D02*
X150250000Y-91000000D01*
X150250000Y-91000000D02*
X146750000Y-91000000D01*
%TO.C,C19*%
X158520000Y-78800000D02*
X160480000Y-78800000D01*
X160480000Y-82200000D01*
X158520000Y-82200000D01*
X158520000Y-78800000D01*
%TO.C,J4*%
X134530000Y-109430000D02*
X150770000Y-109430000D01*
X150770000Y-112970000D01*
X134530000Y-112970000D01*
X134530000Y-109430000D01*
%TO.C,C51*%
X65919200Y-93700000D02*
X76219200Y-93700000D01*
X65919200Y-106200000D02*
X65919200Y-93700000D01*
X76219200Y-93700000D02*
X76219200Y-106200000D01*
X76219200Y-106200000D02*
X65919200Y-106200000D01*
%TO.C,D5*%
X74380200Y-84874800D02*
X81380200Y-84874800D01*
X74380200Y-88374800D02*
X74380200Y-84874800D01*
X81380200Y-84874800D02*
X81380200Y-88374800D01*
X81380200Y-88374800D02*
X74380200Y-88374800D01*
%TO.C,JP2*%
X120269200Y-108250000D02*
X120269200Y-110750000D01*
X120269200Y-108250000D02*
X123569200Y-108250000D01*
X123569200Y-110750000D02*
X120269200Y-110750000D01*
X123569200Y-110750000D02*
X123569200Y-108250000D01*
%TO.C,R38*%
X155439200Y-74682500D02*
X157699200Y-74682500D01*
X157699200Y-79242500D01*
X155439200Y-79242500D01*
X155439200Y-74682500D01*
%TO.C,C50*%
X63589200Y-112300000D02*
X65549200Y-112300000D01*
X65549200Y-115700000D01*
X63589200Y-115700000D01*
X63589200Y-112300000D01*
%TO.C,D3*%
X127750000Y-89850000D02*
X132250000Y-89850000D01*
X127750000Y-97150000D02*
X127750000Y-89850000D01*
X132250000Y-89850000D02*
X132250000Y-97150000D01*
X132250000Y-97150000D02*
X127750000Y-97150000D01*
%TO.C,D8*%
X92219200Y-108750000D02*
X98919200Y-108750000D01*
X92219200Y-118550000D02*
X92219200Y-108750000D01*
X98919200Y-108750000D02*
X98919200Y-118550000D01*
X98919200Y-118550000D02*
X92219200Y-118550000D01*
%TO.C,C55*%
X118300000Y-81520000D02*
X121700000Y-81520000D01*
X121700000Y-83480000D01*
X118300000Y-83480000D01*
X118300000Y-81520000D01*
%TO.C,F4*%
X61050000Y-95050000D02*
X64950000Y-95050000D01*
X64950000Y-100950000D01*
X61050000Y-100950000D01*
X61050000Y-95050000D01*
%TO.C,R16*%
X138550000Y-114820000D02*
X140450000Y-114820000D01*
X140450000Y-118180000D01*
X138550000Y-118180000D01*
X138550000Y-114820000D01*
%TO.C,IC1*%
X84454200Y-77063000D02*
X89954200Y-77063000D01*
X84454200Y-84513000D02*
X84454200Y-77063000D01*
X89954200Y-77063000D02*
X89954200Y-84513000D01*
X89954200Y-84513000D02*
X84454200Y-84513000D01*
%TO.C,C7*%
X112520000Y-107300000D02*
X114480000Y-107300000D01*
X114480000Y-110700000D01*
X112520000Y-110700000D01*
X112520000Y-107300000D01*
%TO.C,C5*%
X117300000Y-95520000D02*
X120700000Y-95520000D01*
X120700000Y-97480000D01*
X117300000Y-97480000D01*
X117300000Y-95520000D01*
%TO.C,C33*%
X159020000Y-113800000D02*
X160980000Y-113800000D01*
X160980000Y-117200000D01*
X159020000Y-117200000D01*
X159020000Y-113800000D01*
%TO.C,C20*%
X162020000Y-99300000D02*
X163980000Y-99300000D01*
X163980000Y-102700000D01*
X162020000Y-102700000D01*
X162020000Y-99300000D01*
%TO.C,R17*%
X52550000Y-88320000D02*
X54450000Y-88320000D01*
X54450000Y-91680000D01*
X52550000Y-91680000D01*
X52550000Y-88320000D01*
%TO.C,C13*%
X81300000Y-92520000D02*
X84700000Y-92520000D01*
X84700000Y-94480000D01*
X81300000Y-94480000D01*
X81300000Y-92520000D01*
%TO.C,R30*%
X107119200Y-74750000D02*
X109019200Y-74750000D01*
X107119200Y-78100000D02*
X107119200Y-74750000D01*
X109019200Y-74750000D02*
X109019200Y-78100000D01*
X109019200Y-78100000D02*
X107119200Y-78100000D01*
%TO.C,R18*%
X141820000Y-114550000D02*
X145180000Y-114550000D01*
X145180000Y-116450000D01*
X141820000Y-116450000D01*
X141820000Y-114550000D01*
%TO.C,C31*%
X133520000Y-87300000D02*
X135480000Y-87300000D01*
X135480000Y-90700000D01*
X133520000Y-90700000D01*
X133520000Y-87300000D01*
%TO.C,C4*%
X62020000Y-87300000D02*
X63980000Y-87300000D01*
X63980000Y-90700000D01*
X62020000Y-90700000D01*
X62020000Y-87300000D01*
%TO.C,C25*%
X103089200Y-74750000D02*
X105049200Y-74750000D01*
X105049200Y-78150000D01*
X103089200Y-78150000D01*
X103089200Y-74750000D01*
%TO.C,R46*%
X155050000Y-107820000D02*
X156950000Y-107820000D01*
X156950000Y-111180000D01*
X155050000Y-111180000D01*
X155050000Y-107820000D01*
%TO.C,C45*%
X81900000Y-103700000D02*
X85100000Y-103700000D01*
X85100000Y-108300000D01*
X81900000Y-108300000D01*
X81900000Y-103700000D01*
%TO.C,F1*%
X77944700Y-73432400D02*
X82504700Y-73432400D01*
X82504700Y-75692400D01*
X77944700Y-75692400D01*
X77944700Y-73432400D01*
%TO.C,R31*%
X109119200Y-74750000D02*
X111019200Y-74750000D01*
X111019200Y-78110000D01*
X109119200Y-78110000D01*
X109119200Y-74750000D01*
%TO.C,R24*%
X116539200Y-77275000D02*
X118439200Y-77275000D01*
X116539200Y-80625000D02*
X116539200Y-77275000D01*
X118439200Y-77275000D02*
X118439200Y-80625000D01*
X118439200Y-80625000D02*
X116539200Y-80625000D01*
%TO.C,J3*%
D11*
X51169200Y-32600000D02*
X101969200Y-32600000D01*
X51169200Y-73100000D02*
X51169200Y-32600000D01*
X101969200Y-32600000D02*
X101969200Y-73100000D01*
X101969200Y-73100000D02*
X51169200Y-73100000D01*
%TO.C,R33*%
D10*
X112320000Y-95550000D02*
X115680000Y-95550000D01*
X115680000Y-97450000D01*
X112320000Y-97450000D01*
X112320000Y-95550000D01*
%TO.C,R50*%
X149820000Y-114550000D02*
X153180000Y-114550000D01*
X153180000Y-116450000D01*
X149820000Y-116450000D01*
X149820000Y-114550000D01*
%TO.C,R22*%
X118619200Y-73732500D02*
X120519200Y-73732500D01*
X120519200Y-77092500D01*
X118619200Y-77092500D01*
X118619200Y-73732500D01*
%TO.C,IC5*%
X89106200Y-88025000D02*
X102556200Y-88025000D01*
X89106200Y-101475000D02*
X89106200Y-88025000D01*
X102556200Y-88025000D02*
X102556200Y-101475000D01*
X102556200Y-101475000D02*
X89106200Y-101475000D01*
%TO.C,C8*%
X126020000Y-81300000D02*
X127980000Y-81300000D01*
X127980000Y-84700000D01*
X126020000Y-84700000D01*
X126020000Y-81300000D01*
%TO.C,R10*%
X52550000Y-114820000D02*
X54450000Y-114820000D01*
X54450000Y-118180000D01*
X52550000Y-118180000D01*
X52550000Y-114820000D01*
%TO.C,C10*%
X158300000Y-108520000D02*
X161700000Y-108520000D01*
X161700000Y-110480000D01*
X158300000Y-110480000D01*
X158300000Y-108520000D01*
%TO.C,R47*%
X160820000Y-74050000D02*
X164180000Y-74050000D01*
X164180000Y-75950000D01*
X160820000Y-75950000D01*
X160820000Y-74050000D01*
%TO.C,C32*%
X137300000Y-88020000D02*
X140700000Y-88020000D01*
X140700000Y-89980000D01*
X137300000Y-89980000D01*
X137300000Y-88020000D01*
%TO.C,R26*%
X118619200Y-77265000D02*
X120519200Y-77265000D01*
X120519200Y-80625000D01*
X118619200Y-80625000D01*
X118619200Y-77265000D01*
%TO.C,C26*%
X145589200Y-73750000D02*
X147549200Y-73750000D01*
X147549200Y-77150000D01*
X145589200Y-77150000D01*
X145589200Y-73750000D01*
%TO.C,R8*%
X53550000Y-109320000D02*
X55450000Y-109320000D01*
X55450000Y-112680000D01*
X53550000Y-112680000D01*
X53550000Y-109320000D01*
%TO.C,JP1*%
X77250000Y-96150000D02*
X77250000Y-92850000D01*
X77250000Y-96150000D02*
X79750000Y-96150000D01*
X79750000Y-92850000D02*
X77250000Y-92850000D01*
X79750000Y-92850000D02*
X79750000Y-96150000D01*
%TO.C,R21*%
X129959200Y-76650000D02*
X133319200Y-76650000D01*
X133319200Y-78550000D01*
X129959200Y-78550000D01*
X129959200Y-76650000D01*
%TO.C,D1*%
X158250000Y-91000000D02*
X161750000Y-91000000D01*
X158250000Y-98000000D02*
X158250000Y-91000000D01*
X161750000Y-91000000D02*
X161750000Y-98000000D01*
X161750000Y-98000000D02*
X158250000Y-98000000D01*
%TO.C,R49*%
X155050000Y-80320000D02*
X156950000Y-80320000D01*
X156950000Y-83680000D01*
X155050000Y-83680000D01*
X155050000Y-80320000D01*
%TO.C,C43*%
X78200000Y-97400000D02*
X82800000Y-97400000D01*
X82800000Y-100600000D01*
X78200000Y-100600000D01*
X78200000Y-97400000D01*
%TO.C,R40*%
X91251700Y-81870000D02*
X95811700Y-81870000D01*
X95811700Y-84130000D01*
X91251700Y-84130000D01*
X91251700Y-81870000D01*
%TO.C,R20*%
X146550000Y-114820000D02*
X148450000Y-114820000D01*
X148450000Y-118180000D01*
X146550000Y-118180000D01*
X146550000Y-114820000D01*
%TO.C,U4*%
X111800000Y-74950000D02*
X112000000Y-74950000D01*
X111800000Y-77050000D02*
X111800000Y-74950000D01*
X112000000Y-73950000D02*
X115000000Y-73950000D01*
X112000000Y-74950000D02*
X112000000Y-73950000D01*
X112000000Y-77050000D02*
X111800000Y-77050000D01*
X112000000Y-78050000D02*
X112000000Y-77050000D01*
X115000000Y-73950000D02*
X115000000Y-74950000D01*
X115000000Y-74950000D02*
X115200000Y-74950000D01*
X115000000Y-77050000D02*
X115000000Y-78050000D01*
X115000000Y-78050000D02*
X112000000Y-78050000D01*
X115200000Y-74950000D02*
X115200000Y-77050000D01*
X115200000Y-77050000D02*
X115000000Y-77050000D01*
%TO.C,R19*%
X133820000Y-114550000D02*
X137180000Y-114550000D01*
X137180000Y-116450000D01*
X133820000Y-116450000D01*
X133820000Y-114550000D01*
%TO.C,R48*%
X116389200Y-98550000D02*
X119749200Y-98550000D01*
X119749200Y-100450000D01*
X116389200Y-100450000D01*
X116389200Y-98550000D01*
%TO.C,R7*%
X53050000Y-93320000D02*
X54950000Y-93320000D01*
X54950000Y-96680000D01*
X53050000Y-96680000D01*
X53050000Y-93320000D01*
%TO.C,IC6*%
D11*
X51819200Y-97750000D02*
X60319200Y-97750000D01*
X51819200Y-107650000D02*
X51819200Y-97750000D01*
X60319200Y-97750000D02*
X60319200Y-107650000D01*
X60319200Y-107650000D02*
X51819200Y-107650000D01*
%TO.C,J2*%
X103319200Y-36850000D02*
X135819200Y-36850000D01*
X103319200Y-73150000D02*
X103319200Y-36850000D01*
X135819200Y-36850000D02*
X135819200Y-73150000D01*
X135819200Y-73150000D02*
X103319200Y-73150000D01*
%TO.C,F3*%
D10*
X134220000Y-81370000D02*
X138780000Y-81370000D01*
X138780000Y-83630000D01*
X134220000Y-83630000D01*
X134220000Y-81370000D01*
%TO.C,R23*%
X129969200Y-80550000D02*
X133319200Y-80550000D01*
X129969200Y-82450000D02*
X129969200Y-80550000D01*
X133319200Y-80550000D02*
X133319200Y-82450000D01*
X133319200Y-82450000D02*
X129969200Y-82450000D01*
%TO.C,C18*%
X128020000Y-103800000D02*
X129980000Y-103800000D01*
X129980000Y-107200000D01*
X128020000Y-107200000D01*
X128020000Y-103800000D01*
%TO.C,R35*%
X134319200Y-76550000D02*
X137679200Y-76550000D01*
X137679200Y-78450000D01*
X134319200Y-78450000D01*
X134319200Y-76550000D01*
%TO.C,R32*%
X147939200Y-73682500D02*
X150199200Y-73682500D01*
X150199200Y-78242500D01*
X147939200Y-78242500D01*
X147939200Y-73682500D01*
%TO.C,C21*%
X129919200Y-74520000D02*
X133319200Y-74520000D01*
X133319200Y-76480000D01*
X129919200Y-76480000D01*
X129919200Y-74520000D01*
%TO.C,R43*%
X155050000Y-85820000D02*
X156950000Y-85820000D01*
X156950000Y-89180000D01*
X155050000Y-89180000D01*
X155050000Y-85820000D01*
%TO.C,D9*%
X87319200Y-109000000D02*
X90819200Y-109000000D01*
X87319200Y-118000000D02*
X87319200Y-109000000D01*
X90819200Y-109000000D02*
X90819200Y-118000000D01*
X90819200Y-118000000D02*
X87319200Y-118000000D01*
%TO.C,R6*%
X55820000Y-115550000D02*
X59180000Y-115550000D01*
X59180000Y-117450000D01*
X55820000Y-117450000D01*
X55820000Y-115550000D01*
%TO.C,C16*%
X124300000Y-108520000D02*
X127700000Y-108520000D01*
X127700000Y-110480000D01*
X124300000Y-110480000D01*
X124300000Y-108520000D01*
%TO.C,IC3*%
X77311400Y-77063000D02*
X82811400Y-77063000D01*
X77311400Y-84513000D02*
X77311400Y-77063000D01*
X82811400Y-77063000D02*
X82811400Y-84513000D01*
X82811400Y-84513000D02*
X77311400Y-84513000D01*
%TO.C,L2*%
X108420000Y-113720000D02*
X111580000Y-113720000D01*
X111580000Y-118280000D01*
X108420000Y-118280000D01*
X108420000Y-113720000D01*
%TO.C,R41*%
D11*
X101444200Y-80750000D02*
X104694200Y-80750000D01*
X101444200Y-86250000D02*
X101444200Y-80750000D01*
X104694200Y-80750000D02*
X104694200Y-86250000D01*
X104694200Y-86250000D02*
X101444200Y-86250000D01*
%TO.C,C24*%
D10*
X121436700Y-76520000D02*
X124836700Y-76520000D01*
X124836700Y-78480000D01*
X121436700Y-78480000D01*
X121436700Y-76520000D01*
%TO.C,IC2*%
X70168500Y-77063000D02*
X75668500Y-77063000D01*
X70168500Y-84513000D02*
X70168500Y-77063000D01*
X75668500Y-77063000D02*
X75668500Y-84513000D01*
X75668500Y-84513000D02*
X70168500Y-84513000D01*
%TO.C,C46*%
X142020000Y-86800000D02*
X143980000Y-86800000D01*
X143980000Y-90200000D01*
X142020000Y-90200000D01*
X142020000Y-86800000D01*
%TO.C,U3*%
X112369200Y-101040000D02*
X113869200Y-101040000D01*
X112369200Y-105960000D02*
X112369200Y-101040000D01*
X113869200Y-100800000D02*
X118269200Y-100800000D01*
X113869200Y-101040000D02*
X113869200Y-100800000D01*
X113869200Y-105960000D02*
X112369200Y-105960000D01*
X113869200Y-106200000D02*
X113869200Y-105960000D01*
X118269200Y-100800000D02*
X118269200Y-101040000D01*
X118269200Y-101040000D02*
X119769200Y-101040000D01*
X118269200Y-105960000D02*
X118269200Y-106200000D01*
X118269200Y-106200000D02*
X113869200Y-106200000D01*
X119769200Y-101040000D02*
X119769200Y-105960000D01*
X119769200Y-105960000D02*
X118269200Y-105960000D01*
%TO.C,R5*%
X60550000Y-113820000D02*
X62450000Y-113820000D01*
X62450000Y-117180000D01*
X60550000Y-117180000D01*
X60550000Y-113820000D01*
%TO.C,C14*%
X53800000Y-75020000D02*
X57200000Y-75020000D01*
X57200000Y-76980000D01*
X53800000Y-76980000D01*
X53800000Y-75020000D01*
%TO.C,R25*%
X129959200Y-78550000D02*
X133319200Y-78550000D01*
X133319200Y-80450000D01*
X129959200Y-80450000D01*
X129959200Y-78550000D01*
%TO.C,R27*%
X121476700Y-78550000D02*
X124836700Y-78550000D01*
X124836700Y-80450000D01*
X121476700Y-80450000D01*
X121476700Y-78550000D01*
%TO.C,R34*%
X125959300Y-74621200D02*
X129319300Y-74621200D01*
X129319300Y-76521200D01*
X125959300Y-76521200D01*
X125959300Y-74621200D01*
%TO.C,C49*%
X77019200Y-110150000D02*
X79519200Y-110150000D01*
X77019200Y-116100000D02*
X77019200Y-110150000D01*
X78169200Y-117250000D02*
X77019200Y-116100000D01*
X78169200Y-117250000D02*
X79519200Y-117250000D01*
X79519200Y-109000000D02*
X81619200Y-109000000D01*
X79519200Y-110150000D02*
X79519200Y-109000000D01*
X79519200Y-117250000D02*
X79519200Y-118400000D01*
X79519200Y-118400000D02*
X81619200Y-118400000D01*
X81619200Y-109000000D02*
X81619200Y-110150000D01*
X81619200Y-110150000D02*
X84119200Y-110150000D01*
X81619200Y-117250000D02*
X82969200Y-117250000D01*
X81619200Y-118400000D02*
X81619200Y-117250000D01*
X82969200Y-117250000D02*
X84119200Y-116100000D01*
X84119200Y-116100000D02*
X84119200Y-110150000D01*
%TO.C,D4*%
X146570000Y-79500000D02*
X147600000Y-79500000D01*
X146570000Y-80610000D02*
X146570000Y-79500000D01*
X146570000Y-81390000D02*
X147600000Y-81390000D01*
X146570000Y-82500000D02*
X146570000Y-81390000D01*
X147600000Y-79300000D02*
X149400000Y-79300000D01*
X147600000Y-79500000D02*
X147600000Y-79300000D01*
X147600000Y-80610000D02*
X146570000Y-80610000D01*
X147600000Y-81390000D02*
X147600000Y-80610000D01*
X147600000Y-82500000D02*
X146570000Y-82500000D01*
X147600000Y-82700000D02*
X147600000Y-82500000D01*
X149400000Y-79300000D02*
X149400000Y-80450000D01*
X149400000Y-80450000D02*
X150430000Y-80450000D01*
X149400000Y-81550000D02*
X149400000Y-82700000D01*
X149400000Y-82700000D02*
X147600000Y-82700000D01*
X150430000Y-80450000D02*
X150430000Y-81550000D01*
X150430000Y-81550000D02*
X149400000Y-81550000D01*
%TO.C,C22*%
X116539200Y-73732500D02*
X118499200Y-73732500D01*
X118499200Y-77132500D01*
X116539200Y-77132500D01*
X116539200Y-73732500D01*
%TO.C,R9*%
X130550000Y-114820000D02*
X132450000Y-114820000D01*
X132450000Y-118180000D01*
X130550000Y-118180000D01*
X130550000Y-114820000D01*
%TO.C,C3*%
X81800000Y-88020000D02*
X85200000Y-88020000D01*
X85200000Y-89980000D01*
X81800000Y-89980000D01*
X81800000Y-88020000D01*
%TO.C,R36*%
X125959300Y-76621200D02*
X129319300Y-76621200D01*
X129319300Y-78521200D01*
X125959300Y-78521200D01*
X125959300Y-76621200D01*
%TO.C,C28*%
X134319200Y-74520000D02*
X137719200Y-74520000D01*
X137719200Y-76480000D01*
X134319200Y-76480000D01*
X134319200Y-74520000D01*
%TO.C,C35*%
X125800000Y-114520000D02*
X129200000Y-114520000D01*
X129200000Y-116480000D01*
X125800000Y-116480000D01*
X125800000Y-114520000D01*
%TO.C,C29*%
X158089200Y-74750000D02*
X160049200Y-74750000D01*
X160049200Y-78150000D01*
X158089200Y-78150000D01*
X158089200Y-74750000D01*
%TO.C,C54*%
X158400000Y-84700000D02*
X161600000Y-84700000D01*
X161600000Y-89300000D01*
X158400000Y-89300000D01*
X158400000Y-84700000D01*
%TO.C,C48*%
X100519200Y-109650000D02*
X103019200Y-109650000D01*
X100519200Y-115600000D02*
X100519200Y-109650000D01*
X101669200Y-116750000D02*
X100519200Y-115600000D01*
X101669200Y-116750000D02*
X103019200Y-116750000D01*
X103019200Y-108500000D02*
X105119200Y-108500000D01*
X103019200Y-109650000D02*
X103019200Y-108500000D01*
X103019200Y-116750000D02*
X103019200Y-117900000D01*
X103019200Y-117900000D02*
X105119200Y-117900000D01*
X105119200Y-108500000D02*
X105119200Y-109650000D01*
X105119200Y-109650000D02*
X107619200Y-109650000D01*
X105119200Y-116750000D02*
X106469200Y-116750000D01*
X105119200Y-117900000D02*
X105119200Y-116750000D01*
X106469200Y-116750000D02*
X107619200Y-115600000D01*
X107619200Y-115600000D02*
X107619200Y-109650000D01*
%TO.C,R42*%
X156320000Y-101550000D02*
X159680000Y-101550000D01*
X159680000Y-103450000D01*
X156320000Y-103450000D01*
X156320000Y-101550000D01*
%TO.C,R15*%
X57050000Y-110820000D02*
X58950000Y-110820000D01*
X58950000Y-114180000D01*
X57050000Y-114180000D01*
X57050000Y-110820000D01*
%TO.C,D6*%
X141750000Y-78500000D02*
X145250000Y-78500000D01*
X141750000Y-85500000D02*
X141750000Y-78500000D01*
X145250000Y-78500000D02*
X145250000Y-85500000D01*
X145250000Y-85500000D02*
X141750000Y-85500000D01*
%TO.C,C30*%
X82959800Y-73750400D02*
X86359800Y-73750400D01*
X86359800Y-75710400D01*
X82959800Y-75710400D01*
X82959800Y-73750400D01*
%TO.C,F2*%
X129370000Y-83220000D02*
X131630000Y-83220000D01*
X131630000Y-87780000D01*
X129370000Y-87780000D01*
X129370000Y-83220000D01*
%TO.C,R44*%
X155050000Y-96820000D02*
X156950000Y-96820000D01*
X156950000Y-100180000D01*
X155050000Y-100180000D01*
X155050000Y-96820000D01*
%TO.C,C44*%
X155020000Y-91800000D02*
X156980000Y-91800000D01*
X156980000Y-95200000D01*
X155020000Y-95200000D01*
X155020000Y-91800000D01*
%TO.C,R28*%
X105119200Y-74750000D02*
X107019200Y-74750000D01*
X107019200Y-78110000D01*
X105119200Y-78110000D01*
X105119200Y-74750000D01*
%TO.C,L1*%
X107020000Y-98770000D02*
X109980000Y-98770000D01*
X109980000Y-100230000D01*
X107020000Y-100230000D01*
X107020000Y-98770000D01*
%TO.C,C17*%
X124520000Y-103800000D02*
X126480000Y-103800000D01*
X126480000Y-107200000D01*
X124520000Y-107200000D01*
X124520000Y-103800000D01*
%TO.C,C23*%
X155350000Y-112700000D02*
X157650000Y-112700000D01*
X157650000Y-117300000D01*
X155350000Y-117300000D01*
X155350000Y-112700000D01*
%TO.C,R29*%
X121476700Y-74550000D02*
X124836700Y-74550000D01*
X124836700Y-76450000D01*
X121476700Y-76450000D01*
X121476700Y-74550000D01*
%TO.C,C9*%
X158300000Y-105020000D02*
X161700000Y-105020000D01*
X161700000Y-106980000D01*
X158300000Y-106980000D01*
X158300000Y-105020000D01*
%TO.C,R39*%
X99050000Y-74820000D02*
X100950000Y-74820000D01*
X100950000Y-78180000D01*
X99050000Y-78180000D01*
X99050000Y-74820000D01*
%TO.C,R37*%
X134319200Y-78550000D02*
X137679200Y-78550000D01*
X137679200Y-80450000D01*
X134319200Y-80450000D01*
X134319200Y-78550000D01*
%TO.C,Q1*%
X133350000Y-91550000D02*
X144650000Y-91550000D01*
X144650000Y-108200000D01*
X133350000Y-108200000D01*
X133350000Y-91550000D01*
%TO.C,C6*%
X125800000Y-98520000D02*
X129200000Y-98520000D01*
X129200000Y-100480000D01*
X125800000Y-100480000D01*
X125800000Y-98520000D01*
%TO.C,J1*%
D11*
X136569200Y-36850000D02*
X169069200Y-36850000D01*
X136569200Y-73150000D02*
X136569200Y-36850000D01*
X169069200Y-36850000D02*
X169069200Y-73150000D01*
X169069200Y-73150000D02*
X136569200Y-73150000D01*
%TO.C,U2*%
X106181200Y-93512000D02*
X111381200Y-93512000D01*
X106181200Y-97962000D02*
X106181200Y-93512000D01*
X111381200Y-93512000D02*
X111381200Y-97962000D01*
X111381200Y-97962000D02*
X106181200Y-97962000D01*
%TO.C,IC4*%
D10*
X63025700Y-77063000D02*
X68525700Y-77063000D01*
X63025700Y-84513000D02*
X63025700Y-77063000D01*
X68525700Y-77063000D02*
X68525700Y-84513000D01*
X68525700Y-84513000D02*
X63025700Y-84513000D01*
%TO.C,C47*%
X120319200Y-104520000D02*
X123719200Y-104520000D01*
X123719200Y-106480000D01*
X120319200Y-106480000D01*
X120319200Y-104520000D01*
%TO.C,D2*%
X105650000Y-79100000D02*
X112350000Y-79100000D01*
X105650000Y-88900000D02*
X105650000Y-79100000D01*
X112350000Y-79100000D02*
X112350000Y-88900000D01*
X112350000Y-88900000D02*
X105650000Y-88900000D01*
%TD*%
D12*
X50069243Y-56000000D02*
X170069243Y-56000000D01*
X170069243Y-120000000D01*
X50069243Y-120000000D01*
X50069243Y-56000000D01*
M02*
