%TF.GenerationSoftware,KiCad,Pcbnew,9.0.0*%
%TF.CreationDate,2025-08-01T10:40:34+02:00*%
%TF.ProjectId,ECU,4543552e-6b69-4636-9164-5f7063625858,0.3*%
%TF.SameCoordinates,Original*%
%TF.FileFunction,Soldermask,Top*%
%TF.FilePolarity,Negative*%
%FSLAX46Y46*%
G04 Gerber Fmt 4.6, Leading zero omitted, Abs format (unit mm)*
G04 Created by KiCad (PCBNEW 9.0.0) date 2025-08-01 10:40:34*
%MOMM*%
%LPD*%
G01*
G04 APERTURE LIST*
G04 Aperture macros list*
%AMRoundRect*
0 Rectangle with rounded corners*
0 $1 Rounding radius*
0 $2 $3 $4 $5 $6 $7 $8 $9 X,Y pos of 4 corners*
0 Add a 4 corners polygon primitive as box body*
4,1,4,$2,$3,$4,$5,$6,$7,$8,$9,$2,$3,0*
0 Add four circle primitives for the rounded corners*
1,1,$1+$1,$2,$3*
1,1,$1+$1,$4,$5*
1,1,$1+$1,$6,$7*
1,1,$1+$1,$8,$9*
0 Add four rect primitives between the rounded corners*
20,1,$1+$1,$2,$3,$4,$5,0*
20,1,$1+$1,$4,$5,$6,$7,0*
20,1,$1+$1,$6,$7,$8,$9,0*
20,1,$1+$1,$8,$9,$2,$3,0*%
G04 Aperture macros list end*
%ADD10RoundRect,0.250000X0.250000X0.475000X-0.250000X0.475000X-0.250000X-0.475000X0.250000X-0.475000X0*%
%ADD11RoundRect,0.075000X-0.662500X-0.075000X0.662500X-0.075000X0.662500X0.075000X-0.662500X0.075000X0*%
%ADD12RoundRect,0.075000X-0.075000X-0.662500X0.075000X-0.662500X0.075000X0.662500X-0.075000X0.662500X0*%
%ADD13R,3.600000X3.600000*%
%ADD14RoundRect,0.250000X0.450000X-0.350000X0.450000X0.350000X-0.450000X0.350000X-0.450000X-0.350000X0*%
%ADD15RoundRect,0.250000X-1.500000X-0.550000X1.500000X-0.550000X1.500000X0.550000X-1.500000X0.550000X0*%
%ADD16RoundRect,0.243750X-0.456250X0.243750X-0.456250X-0.243750X0.456250X-0.243750X0.456250X0.243750X0*%
%ADD17R,1.000000X1.150000*%
%ADD18C,1.381000*%
%ADD19RoundRect,0.250000X0.450000X-0.325000X0.450000X0.325000X-0.450000X0.325000X-0.450000X-0.325000X0*%
%ADD20RoundRect,0.250000X-0.450000X0.262500X-0.450000X-0.262500X0.450000X-0.262500X0.450000X0.262500X0*%
%ADD21RoundRect,0.250000X0.262500X0.450000X-0.262500X0.450000X-0.262500X-0.450000X0.262500X-0.450000X0*%
%ADD22RoundRect,0.250000X-0.262500X-0.450000X0.262500X-0.450000X0.262500X0.450000X-0.262500X0.450000X0*%
%ADD23RoundRect,0.250000X0.650000X-1.500000X0.650000X1.500000X-0.650000X1.500000X-0.650000X-1.500000X0*%
%ADD24C,4.000000*%
%ADD25C,2.000000*%
%ADD26RoundRect,0.112500X-0.187500X-0.112500X0.187500X-0.112500X0.187500X0.112500X-0.187500X0.112500X0*%
%ADD27RoundRect,0.112500X0.187500X0.112500X-0.187500X0.112500X-0.187500X-0.112500X0.187500X-0.112500X0*%
%ADD28R,0.900000X1.700000*%
%ADD29RoundRect,0.250000X0.950000X0.500000X-0.950000X0.500000X-0.950000X-0.500000X0.950000X-0.500000X0*%
%ADD30RoundRect,0.250000X0.275000X0.500000X-0.275000X0.500000X-0.275000X-0.500000X0.275000X-0.500000X0*%
%ADD31RoundRect,0.250000X-0.420000X-0.945000X0.420000X-0.945000X0.420000X0.945000X-0.420000X0.945000X0*%
%ADD32RoundRect,0.250000X-0.475000X0.250000X-0.475000X-0.250000X0.475000X-0.250000X0.475000X0.250000X0*%
%ADD33R,1.600000X1.600000*%
%ADD34O,1.600000X1.600000*%
%ADD35RoundRect,0.250000X0.450000X-0.262500X0.450000X0.262500X-0.450000X0.262500X-0.450000X-0.262500X0*%
%ADD36RoundRect,0.100000X-0.225000X-0.100000X0.225000X-0.100000X0.225000X0.100000X-0.225000X0.100000X0*%
%ADD37R,2.070000X2.070000*%
%ADD38C,2.070000*%
%ADD39RoundRect,0.150000X-0.825000X-0.150000X0.825000X-0.150000X0.825000X0.150000X-0.825000X0.150000X0*%
%ADD40RoundRect,0.250000X0.475000X-0.250000X0.475000X0.250000X-0.475000X0.250000X-0.475000X-0.250000X0*%
%ADD41RoundRect,0.250000X-0.250000X-0.475000X0.250000X-0.475000X0.250000X0.475000X-0.250000X0.475000X0*%
%ADD42RoundRect,0.250000X-0.450000X0.350000X-0.450000X-0.350000X0.450000X-0.350000X0.450000X0.350000X0*%
%ADD43R,1.500000X1.000000*%
%ADD44RoundRect,0.150000X-0.150000X0.325000X-0.150000X-0.325000X0.150000X-0.325000X0.150000X0.325000X0*%
%ADD45RoundRect,0.150000X-0.325000X0.150000X-0.325000X-0.150000X0.325000X-0.150000X0.325000X0.150000X0*%
%ADD46RoundRect,0.250000X0.625000X-0.312500X0.625000X0.312500X-0.625000X0.312500X-0.625000X-0.312500X0*%
%ADD47RoundRect,0.112500X-0.112500X0.187500X-0.112500X-0.187500X0.112500X-0.187500X0.112500X0.187500X0*%
%ADD48RoundRect,0.162500X0.162500X-0.650000X0.162500X0.650000X-0.162500X0.650000X-0.162500X-0.650000X0*%
%ADD49R,1.000000X1.500000*%
%ADD50RoundRect,0.375000X-0.375000X0.625000X-0.375000X-0.625000X0.375000X-0.625000X0.375000X0.625000X0*%
%ADD51RoundRect,0.500000X-1.400000X0.500000X-1.400000X-0.500000X1.400000X-0.500000X1.400000X0.500000X0*%
%ADD52RoundRect,0.250000X-0.500000X0.950000X-0.500000X-0.950000X0.500000X-0.950000X0.500000X0.950000X0*%
%ADD53RoundRect,0.250000X-0.500000X0.275000X-0.500000X-0.275000X0.500000X-0.275000X0.500000X0.275000X0*%
%ADD54C,1.600000*%
%ADD55R,1.300000X1.300000*%
%ADD56C,1.300000*%
%ADD57R,0.431800X1.600200*%
%ADD58R,4.953000X4.953000*%
%ADD59RoundRect,0.218750X-0.256250X0.218750X-0.256250X-0.218750X0.256250X-0.218750X0.256250X0.218750X0*%
%ADD60RoundRect,0.150000X-0.150000X-0.200000X0.150000X-0.200000X0.150000X0.200000X-0.150000X0.200000X0*%
%ADD61RoundRect,0.250000X0.312500X1.450000X-0.312500X1.450000X-0.312500X-1.450000X0.312500X-1.450000X0*%
%ADD62C,2.979000*%
%ADD63RoundRect,0.102000X-1.980000X-1.980000X1.980000X-1.980000X1.980000X1.980000X-1.980000X1.980000X0*%
%ADD64RoundRect,0.100000X-0.100000X0.225000X-0.100000X-0.225000X0.100000X-0.225000X0.100000X0.225000X0*%
%ADD65RoundRect,0.250000X-0.625000X0.312500X-0.625000X-0.312500X0.625000X-0.312500X0.625000X0.312500X0*%
%ADD66RoundRect,0.150000X0.150000X-0.825000X0.150000X0.825000X-0.150000X0.825000X-0.150000X-0.825000X0*%
%ADD67RoundRect,0.100000X-0.100000X0.712500X-0.100000X-0.712500X0.100000X-0.712500X0.100000X0.712500X0*%
%ADD68RoundRect,0.250000X-0.945000X0.420000X-0.945000X-0.420000X0.945000X-0.420000X0.945000X0.420000X0*%
%ADD69RoundRect,0.250000X-0.550000X1.050000X-0.550000X-1.050000X0.550000X-1.050000X0.550000X1.050000X0*%
%ADD70RoundRect,0.250000X-0.650000X0.325000X-0.650000X-0.325000X0.650000X-0.325000X0.650000X0.325000X0*%
%ADD71RoundRect,0.150000X0.825000X0.150000X-0.825000X0.150000X-0.825000X-0.150000X0.825000X-0.150000X0*%
%ADD72R,1.700000X1.700000*%
%ADD73C,1.700000*%
%ADD74RoundRect,0.250000X-1.000000X-0.900000X1.000000X-0.900000X1.000000X0.900000X-1.000000X0.900000X0*%
%ADD75C,0.350000*%
%TA.AperFunction,Profile*%
%ADD76C,0.050000*%
%TD*%
G04 APERTURE END LIST*
%TO.C,JP5*%
G36*
X73350000Y-134500000D02*
G01*
X71850000Y-134500000D01*
X71850000Y-134800000D01*
X73350000Y-134800000D01*
X73350000Y-134500000D01*
G37*
%TO.C,JP1*%
G36*
X76400000Y-134500000D02*
G01*
X74900000Y-134500000D01*
X74900000Y-134800000D01*
X76400000Y-134800000D01*
X76400000Y-134500000D01*
G37*
%TO.C,JP4*%
G36*
X97000000Y-104250000D02*
G01*
X96700000Y-104250000D01*
X96700000Y-102750000D01*
X97000000Y-102750000D01*
X97000000Y-104250000D01*
G37*
%TO.C,JP3*%
G36*
X79550000Y-122750000D02*
G01*
X79250000Y-122750000D01*
X79250000Y-121250000D01*
X79550000Y-121250000D01*
X79550000Y-122750000D01*
G37*
%TO.C,JP2*%
G36*
X79550000Y-110750000D02*
G01*
X79250000Y-110750000D01*
X79250000Y-109250000D01*
X79550000Y-109250000D01*
X79550000Y-110750000D01*
G37*
%TD*%
D10*
%TO.C,C10*%
X112315000Y-138500000D03*
X110415000Y-138500000D03*
%TD*%
D11*
%TO.C,U15*%
X89137500Y-83250000D03*
X89137500Y-83750000D03*
X89137500Y-84250000D03*
X89137500Y-84750000D03*
X89137500Y-85250000D03*
X89137500Y-85750000D03*
X89137500Y-86250000D03*
X89137500Y-86750000D03*
X89137500Y-87250000D03*
X89137500Y-87750000D03*
X89137500Y-88250000D03*
X89137500Y-88750000D03*
D12*
X90550000Y-90162500D03*
X91050000Y-90162500D03*
X91550000Y-90162500D03*
X92050000Y-90162500D03*
X92550000Y-90162500D03*
X93050000Y-90162500D03*
X93550000Y-90162500D03*
X94050000Y-90162500D03*
X94550000Y-90162500D03*
X95050000Y-90162500D03*
X95550000Y-90162500D03*
X96050000Y-90162500D03*
D11*
X97462500Y-88750000D03*
X97462500Y-88250000D03*
X97462500Y-87750000D03*
X97462500Y-87250000D03*
X97462500Y-86750000D03*
X97462500Y-86250000D03*
X97462500Y-85750000D03*
X97462500Y-85250000D03*
X97462500Y-84750000D03*
X97462500Y-84250000D03*
X97462500Y-83750000D03*
X97462500Y-83250000D03*
D12*
X96050000Y-81837500D03*
X95550000Y-81837500D03*
X95050000Y-81837500D03*
X94550000Y-81837500D03*
X94050000Y-81837500D03*
X93550000Y-81837500D03*
X93050000Y-81837500D03*
X92550000Y-81837500D03*
X92050000Y-81837500D03*
X91550000Y-81837500D03*
X91050000Y-81837500D03*
X90550000Y-81837500D03*
D13*
X93300000Y-86000000D03*
%TD*%
D14*
%TO.C,R54*%
X190765000Y-116150000D03*
X190765000Y-114150000D03*
%TD*%
D15*
%TO.C,C38*%
X70300000Y-83000000D03*
X75700000Y-83000000D03*
%TD*%
D16*
%TO.C,D19*%
X184500000Y-60675000D03*
X184500000Y-62550000D03*
%TD*%
D17*
%TO.C,SW1*%
X91000000Y-110850000D03*
X93500000Y-110850000D03*
X96000000Y-110850000D03*
X91000000Y-116500000D03*
X93500000Y-116500000D03*
X96000000Y-116500000D03*
D18*
X92000000Y-113675000D03*
X95000000Y-113675000D03*
%TD*%
D19*
%TO.C,D34*%
X108000000Y-105000000D03*
X108000000Y-102950000D03*
%TD*%
D16*
%TO.C,D18*%
X173000000Y-60704166D03*
X173000000Y-62579166D03*
%TD*%
D20*
%TO.C,R67*%
X105500000Y-98675000D03*
X105500000Y-100500000D03*
%TD*%
D21*
%TO.C,R47*%
X130000000Y-55000000D03*
X128175000Y-55000000D03*
%TD*%
D10*
%TO.C,C13*%
X131500000Y-47000000D03*
X129600000Y-47000000D03*
%TD*%
D22*
%TO.C,R50*%
X126175000Y-53000000D03*
X128000000Y-53000000D03*
%TD*%
D10*
%TO.C,C18*%
X74500000Y-44000000D03*
X72600000Y-44000000D03*
%TD*%
D23*
%TO.C,D33*%
X72000000Y-64500000D03*
X72000000Y-59500000D03*
%TD*%
D19*
%TO.C,D36*%
X103000000Y-105000000D03*
X103000000Y-102950000D03*
%TD*%
D24*
%TO.C,J5*%
X206000000Y-36500000D03*
X167500000Y-36500000D03*
X134000000Y-36500000D03*
D25*
X198750000Y-50500000D03*
X195750000Y-50500000D03*
X192750000Y-50500000D03*
X189750000Y-50500000D03*
X186750000Y-50500000D03*
X183750000Y-50500000D03*
X180750000Y-50500000D03*
X177750000Y-50500000D03*
X174750000Y-50500000D03*
X197250000Y-48000000D03*
X194250000Y-48000000D03*
X191250000Y-48000000D03*
X188250000Y-48000000D03*
X185250000Y-48000000D03*
X182250000Y-48000000D03*
X179250000Y-48000000D03*
X176250000Y-48000000D03*
X197250000Y-45000000D03*
X194250000Y-45000000D03*
X191250000Y-45000000D03*
X188250000Y-45000000D03*
X185250000Y-45000000D03*
X182250000Y-45000000D03*
X179250000Y-45000000D03*
X176250000Y-45000000D03*
X198750000Y-42500000D03*
X195750000Y-42500000D03*
X192750000Y-42500000D03*
X189750000Y-42500000D03*
X186750000Y-42500000D03*
X183750000Y-42500000D03*
X180750000Y-42500000D03*
X177750000Y-42500000D03*
X174750000Y-42500000D03*
X160250000Y-50500000D03*
X157250000Y-50500000D03*
X154250000Y-50500000D03*
X151250000Y-50500000D03*
X148250000Y-50500000D03*
X145250000Y-50500000D03*
X142250000Y-50500000D03*
X158500000Y-48000000D03*
X155750000Y-48000000D03*
X152750000Y-48000000D03*
X149750000Y-48000000D03*
X146750000Y-48000000D03*
X143750000Y-48000000D03*
X158500000Y-45000000D03*
X155750000Y-45000000D03*
X152750000Y-45000000D03*
X149750000Y-45000000D03*
X146750000Y-45000000D03*
X143750000Y-45000000D03*
X160250000Y-42500000D03*
X157250000Y-42500000D03*
X154250000Y-42500000D03*
X151250000Y-42500000D03*
X148250000Y-42500000D03*
X145250000Y-42500000D03*
X142250000Y-42500000D03*
%TD*%
D22*
%TO.C,R43*%
X111000000Y-36000000D03*
X112825000Y-36000000D03*
%TD*%
D26*
%TO.C,D26*%
X186715000Y-128888500D03*
X188815000Y-128888500D03*
%TD*%
D27*
%TO.C,D30*%
X184315000Y-128888500D03*
X182215000Y-128888500D03*
%TD*%
D22*
%TO.C,R44*%
X110585000Y-42500000D03*
X112410000Y-42500000D03*
%TD*%
D10*
%TO.C,C20*%
X93950000Y-53000000D03*
X92050000Y-53000000D03*
%TD*%
D28*
%TO.C,IC2*%
X192060000Y-120238500D03*
X190530000Y-120238500D03*
X189000000Y-120238500D03*
X187470000Y-120238500D03*
X187470000Y-126538500D03*
X189000000Y-126538500D03*
X190530000Y-126538500D03*
X192060000Y-126538500D03*
%TD*%
D22*
%TO.C,R33*%
X95500000Y-53000000D03*
X97325000Y-53000000D03*
%TD*%
D15*
%TO.C,C31*%
X177100000Y-136738500D03*
X182500000Y-136738500D03*
%TD*%
D29*
%TO.C,D27*%
X158150000Y-125000000D03*
D30*
X160525000Y-125000000D03*
%TD*%
D31*
%TO.C,C36*%
X93960000Y-99500000D03*
X97040000Y-99500000D03*
%TD*%
D21*
%TO.C,R17*%
X197765000Y-82100000D03*
X195940000Y-82100000D03*
%TD*%
D32*
%TO.C,C6*%
X115415000Y-131550000D03*
X115415000Y-133450000D03*
%TD*%
D33*
%TO.C,A1*%
X173540000Y-128500000D03*
D34*
X171000000Y-128500000D03*
X168460000Y-128500000D03*
X165920000Y-128500000D03*
X163380000Y-128500000D03*
X160840000Y-128500000D03*
X158300000Y-128500000D03*
X155760000Y-128500000D03*
X155760000Y-141200000D03*
X158300000Y-141200000D03*
X160840000Y-141200000D03*
X163380000Y-141200000D03*
X165920000Y-141200000D03*
X168460000Y-141200000D03*
X171000000Y-141200000D03*
X173540000Y-141200000D03*
%TD*%
D35*
%TO.C,R10*%
X194400000Y-68725000D03*
X194400000Y-66900000D03*
%TD*%
D32*
%TO.C,C32*%
X96000000Y-73520000D03*
X96000000Y-75420000D03*
%TD*%
D21*
%TO.C,R31*%
X76500000Y-46000000D03*
X74675000Y-46000000D03*
%TD*%
D17*
%TO.C,SW2*%
X90500000Y-134675000D03*
X93000000Y-134675000D03*
X95500000Y-134675000D03*
X90500000Y-140325000D03*
X93000000Y-140325000D03*
X95500000Y-140325000D03*
D18*
X91500000Y-137500000D03*
X94500000Y-137500000D03*
%TD*%
D36*
%TO.C,Q2*%
X124600000Y-37000000D03*
X124600000Y-37650000D03*
X124600000Y-38300000D03*
X126500000Y-38300000D03*
X126500000Y-37650000D03*
X126500000Y-37000000D03*
%TD*%
D22*
%TO.C,R11*%
X192787500Y-65100000D03*
X194612500Y-65100000D03*
%TD*%
D37*
%TO.C,Q5*%
X195500000Y-61080000D03*
D38*
X195500000Y-58540000D03*
X195500000Y-56000000D03*
%TD*%
D20*
%TO.C,R13*%
X176900000Y-64145833D03*
X176900000Y-65970833D03*
%TD*%
D32*
%TO.C,C21*%
X97500000Y-59500000D03*
X97500000Y-61400000D03*
%TD*%
D39*
%TO.C,U14*%
X112025000Y-54190000D03*
X112025000Y-55460000D03*
X112025000Y-56730000D03*
X112025000Y-58000000D03*
X112025000Y-59270000D03*
X112025000Y-60540000D03*
X112025000Y-61810000D03*
X116975000Y-61810000D03*
X116975000Y-60540000D03*
X116975000Y-59270000D03*
X116975000Y-58000000D03*
X116975000Y-56730000D03*
X116975000Y-55460000D03*
X116975000Y-54190000D03*
%TD*%
D17*
%TO.C,SW4*%
X187765000Y-97650000D03*
X190265000Y-97650000D03*
X192765000Y-97650000D03*
X187765000Y-103300000D03*
X190265000Y-103300000D03*
X192765000Y-103300000D03*
D18*
X188765000Y-100475000D03*
X191765000Y-100475000D03*
%TD*%
D40*
%TO.C,C4*%
X75650000Y-140205000D03*
X75650000Y-138305000D03*
%TD*%
D16*
%TO.C,D5*%
X176900000Y-60645833D03*
X176900000Y-62520833D03*
%TD*%
D28*
%TO.C,IC4*%
X200560000Y-120238500D03*
X199030000Y-120238500D03*
X197500000Y-120238500D03*
X195970000Y-120238500D03*
X195970000Y-126538500D03*
X197500000Y-126538500D03*
X199030000Y-126538500D03*
X200560000Y-126538500D03*
%TD*%
D22*
%TO.C,R16*%
X203800000Y-65100000D03*
X205625000Y-65100000D03*
%TD*%
D41*
%TO.C,C40*%
X72300000Y-88000000D03*
X74200000Y-88000000D03*
%TD*%
D22*
%TO.C,R32*%
X74675000Y-35000000D03*
X76500000Y-35000000D03*
%TD*%
%TO.C,R51*%
X129675000Y-43000000D03*
X131500000Y-43000000D03*
%TD*%
D16*
%TO.C,D2*%
X196400000Y-64900000D03*
X196400000Y-66775000D03*
%TD*%
D35*
%TO.C,R35*%
X95500000Y-56650000D03*
X95500000Y-54825000D03*
%TD*%
D14*
%TO.C,R61*%
X194750000Y-116150000D03*
X194750000Y-114150000D03*
%TD*%
%TO.C,R60*%
X200750000Y-116150000D03*
X200750000Y-114150000D03*
%TD*%
D42*
%TO.C,R65*%
X196750000Y-114150000D03*
X196750000Y-116150000D03*
%TD*%
D14*
%TO.C,R53*%
X188765000Y-116150000D03*
X188765000Y-114150000D03*
%TD*%
D43*
%TO.C,JP5*%
X72600000Y-134000000D03*
X72600000Y-135300000D03*
%TD*%
D22*
%TO.C,R46*%
X110585000Y-45850000D03*
X112410000Y-45850000D03*
%TD*%
D32*
%TO.C,C37*%
X73500000Y-97350000D03*
X73500000Y-99250000D03*
%TD*%
D22*
%TO.C,R42*%
X116587500Y-42500000D03*
X118412500Y-42500000D03*
%TD*%
D20*
%TO.C,R21*%
X184500000Y-64175000D03*
X184500000Y-66000000D03*
%TD*%
D43*
%TO.C,JP1*%
X75650000Y-134000000D03*
X75650000Y-135300000D03*
%TD*%
D42*
%TO.C,R62*%
X178765000Y-114150000D03*
X178765000Y-116150000D03*
%TD*%
D35*
%TO.C,R9*%
X199900000Y-68712500D03*
X199900000Y-66887500D03*
%TD*%
D44*
%TO.C,U4*%
X125500000Y-123000000D03*
X124700000Y-123000000D03*
X123900000Y-123000000D03*
X123100000Y-123000000D03*
X122300000Y-123000000D03*
X121500000Y-123000000D03*
D45*
X121500000Y-124000000D03*
D44*
X121500000Y-125000000D03*
X122300000Y-125000000D03*
X123100000Y-125000000D03*
X123900000Y-125000000D03*
X124700000Y-125000000D03*
X125500000Y-125000000D03*
D45*
X125500000Y-124000000D03*
%TD*%
D46*
%TO.C,R6*%
X115415000Y-138500000D03*
X115415000Y-135575000D03*
%TD*%
D14*
%TO.C,R58*%
X180765000Y-116150000D03*
X180765000Y-114150000D03*
%TD*%
D27*
%TO.C,D25*%
X192815000Y-128888500D03*
X190715000Y-128888500D03*
%TD*%
D22*
%TO.C,R27*%
X72675000Y-50000000D03*
X74500000Y-50000000D03*
%TD*%
D16*
%TO.C,D1*%
X201900000Y-64900000D03*
X201900000Y-66775000D03*
%TD*%
D36*
%TO.C,Q1*%
X78450000Y-115700000D03*
X78450000Y-116350000D03*
X78450000Y-117000000D03*
X80350000Y-117000000D03*
X80350000Y-116350000D03*
X80350000Y-115700000D03*
%TD*%
D22*
%TO.C,R3*%
X78487500Y-113000000D03*
X80312500Y-113000000D03*
%TD*%
D47*
%TO.C,D11*%
X180600000Y-57208333D03*
X180600000Y-59308333D03*
%TD*%
D42*
%TO.C,R28*%
X76500000Y-54000000D03*
X76500000Y-56000000D03*
%TD*%
D41*
%TO.C,C29*%
X124100000Y-57315000D03*
X126000000Y-57315000D03*
%TD*%
D46*
%TO.C,R7*%
X107415000Y-138500000D03*
X107415000Y-135575000D03*
%TD*%
D41*
%TO.C,C11*%
X197315000Y-106650000D03*
X199215000Y-106650000D03*
%TD*%
D20*
%TO.C,R69*%
X143500000Y-78000000D03*
X143500000Y-79825000D03*
%TD*%
D16*
%TO.C,D22*%
X207400000Y-64900000D03*
X207400000Y-66775000D03*
%TD*%
D48*
%TO.C,U17*%
X154095000Y-98587500D03*
X155365000Y-98587500D03*
X156635000Y-98587500D03*
X157905000Y-98587500D03*
X157905000Y-91412500D03*
X156635000Y-91412500D03*
X155365000Y-91412500D03*
X154095000Y-91412500D03*
%TD*%
D14*
%TO.C,R55*%
X186765000Y-116150000D03*
X186765000Y-114150000D03*
%TD*%
D10*
%TO.C,C23*%
X116400000Y-36000000D03*
X114500000Y-36000000D03*
%TD*%
D22*
%TO.C,R57*%
X168000000Y-42500000D03*
X169825000Y-42500000D03*
%TD*%
D49*
%TO.C,JP4*%
X97500000Y-103500000D03*
X96200000Y-103500000D03*
%TD*%
D50*
%TO.C,Q3*%
X91300000Y-95850000D03*
X89000000Y-95850000D03*
D51*
X89000000Y-102150000D03*
D50*
X86700000Y-95850000D03*
%TD*%
D52*
%TO.C,D37*%
X146000000Y-79000000D03*
D53*
X146000000Y-76625000D03*
%TD*%
D39*
%TO.C,U12*%
X92500000Y-37730000D03*
X92500000Y-39000000D03*
X92500000Y-40270000D03*
X92500000Y-41540000D03*
X92500000Y-42810000D03*
X92500000Y-44080000D03*
X92500000Y-45350000D03*
X97450000Y-45350000D03*
X97450000Y-44080000D03*
X97450000Y-42810000D03*
X97450000Y-41540000D03*
X97450000Y-40270000D03*
X97450000Y-39000000D03*
X97450000Y-37730000D03*
%TD*%
D22*
%TO.C,R38*%
X111000000Y-34000000D03*
X112825000Y-34000000D03*
%TD*%
D33*
%TO.C,U1*%
X131380000Y-82790000D03*
D54*
X131380000Y-85330000D03*
X131380000Y-87870000D03*
X131380000Y-90410000D03*
X131380000Y-92950000D03*
X131380000Y-95490000D03*
X131380000Y-98030000D03*
X131380000Y-100570000D03*
X131380000Y-103110000D03*
X131380000Y-105650000D03*
X131380000Y-108190000D03*
X131380000Y-110730000D03*
X131380000Y-113270000D03*
X131380000Y-115810000D03*
X131380000Y-118350000D03*
X131380000Y-120890000D03*
X131380000Y-123430000D03*
X131380000Y-125970000D03*
X131380000Y-128510000D03*
X131380000Y-131050000D03*
X131380000Y-133590000D03*
X131380000Y-136130000D03*
X131380000Y-138670000D03*
X131380000Y-141210000D03*
X146620000Y-141210000D03*
X146620000Y-138670000D03*
X146620000Y-136130000D03*
X146620000Y-133590000D03*
X146620000Y-131050000D03*
X146620000Y-128510000D03*
X146620000Y-125970000D03*
X146620000Y-123430000D03*
X146620000Y-120890000D03*
X146620000Y-118350000D03*
X146620000Y-115810000D03*
X146620000Y-113270000D03*
X146620000Y-110730000D03*
X146620000Y-108190000D03*
X146620000Y-105650000D03*
X146620000Y-103110000D03*
X146620000Y-100570000D03*
X146620000Y-98030000D03*
X146620000Y-95490000D03*
X146620000Y-92950000D03*
X146620000Y-90410000D03*
X146620000Y-87870000D03*
X146620000Y-85330000D03*
X146620000Y-82790000D03*
X144080000Y-85330000D03*
X133920000Y-128510000D03*
X136460000Y-128510000D03*
X139000000Y-128510000D03*
X141540000Y-128510000D03*
X144080000Y-128510000D03*
D33*
X134430800Y-89089200D03*
D54*
X134430800Y-91629200D03*
X134430800Y-94169200D03*
X134430800Y-96709200D03*
X134430800Y-99249200D03*
D55*
X144181600Y-95760000D03*
D56*
X142181600Y-95760000D03*
X140181600Y-95760000D03*
X140181600Y-97760000D03*
X142181600Y-97760000D03*
X144181600Y-97760000D03*
X140270000Y-83520000D03*
X137730000Y-83520000D03*
%TD*%
D22*
%TO.C,R14*%
X187292500Y-65100000D03*
X189117500Y-65100000D03*
%TD*%
D41*
%TO.C,C34*%
X94590000Y-96787500D03*
X96490000Y-96787500D03*
%TD*%
D26*
%TO.C,D31*%
X178215000Y-128888500D03*
X180315000Y-128888500D03*
%TD*%
D57*
%TO.C,U7*%
X203641800Y-84401000D03*
X202981400Y-84401000D03*
X202346400Y-84401000D03*
X201686000Y-84401000D03*
X201051000Y-84401000D03*
X200390600Y-84401000D03*
X199730200Y-84401000D03*
X199095200Y-84401000D03*
X198434800Y-84401000D03*
X197799800Y-84401000D03*
X197139400Y-84401000D03*
X196479000Y-84401000D03*
X195844000Y-84401000D03*
X195183600Y-84401000D03*
X194548600Y-84401000D03*
X193888200Y-84401000D03*
X193888200Y-93799000D03*
X194548600Y-93799000D03*
X195183600Y-93799000D03*
X195844000Y-93799000D03*
X196479000Y-93799000D03*
X197139400Y-93799000D03*
X197799800Y-93799000D03*
X198434800Y-93799000D03*
X199095200Y-93799000D03*
X199730200Y-93799000D03*
X200390600Y-93799000D03*
X201051000Y-93799000D03*
X201686000Y-93799000D03*
X202346400Y-93799000D03*
X202981400Y-93799000D03*
X203641800Y-93799000D03*
D58*
X198765000Y-89100000D03*
%TD*%
D22*
%TO.C,R29*%
X129675000Y-45000000D03*
X131500000Y-45000000D03*
%TD*%
%TO.C,R12*%
X198287500Y-65100000D03*
X200112500Y-65100000D03*
%TD*%
%TO.C,R41*%
X105175000Y-45850000D03*
X107000000Y-45850000D03*
%TD*%
D19*
%TO.C,D35*%
X105500000Y-105000000D03*
X105500000Y-102950000D03*
%TD*%
D47*
%TO.C,D15*%
X184500000Y-57150000D03*
X184500000Y-59250000D03*
%TD*%
D22*
%TO.C,R4*%
X78487500Y-119500000D03*
X80312500Y-119500000D03*
%TD*%
%TO.C,R39*%
X105175000Y-42500000D03*
X107000000Y-42500000D03*
%TD*%
D40*
%TO.C,C24*%
X93500000Y-56725000D03*
X93500000Y-54825000D03*
%TD*%
D20*
%TO.C,R66*%
X108000000Y-98675000D03*
X108000000Y-100500000D03*
%TD*%
%TO.C,R20*%
X173000000Y-64204166D03*
X173000000Y-66029166D03*
%TD*%
D27*
%TO.C,D28*%
X201315000Y-128888500D03*
X199215000Y-128888500D03*
%TD*%
D28*
%TO.C,IC3*%
X183560000Y-120238500D03*
X182030000Y-120238500D03*
X180500000Y-120238500D03*
X178970000Y-120238500D03*
X178970000Y-126538500D03*
X180500000Y-126538500D03*
X182030000Y-126538500D03*
X183560000Y-126538500D03*
%TD*%
D22*
%TO.C,R45*%
X107000000Y-36000000D03*
X108825000Y-36000000D03*
%TD*%
D10*
%TO.C,C3*%
X84450000Y-122000000D03*
X82550000Y-122000000D03*
%TD*%
D59*
%TO.C,F2*%
X94000000Y-102212500D03*
X94000000Y-103787500D03*
%TD*%
D22*
%TO.C,R40*%
X107175000Y-34000000D03*
X109000000Y-34000000D03*
%TD*%
D35*
%TO.C,R23*%
X188950000Y-68725000D03*
X188950000Y-66900000D03*
%TD*%
D32*
%TO.C,C5*%
X72600000Y-138305000D03*
X72600000Y-140205000D03*
%TD*%
D35*
%TO.C,R36*%
X100000000Y-59000000D03*
X100000000Y-57175000D03*
%TD*%
D41*
%TO.C,C30*%
X124100000Y-55000000D03*
X126000000Y-55000000D03*
%TD*%
D22*
%TO.C,R52*%
X107675000Y-59500000D03*
X109500000Y-59500000D03*
%TD*%
D35*
%TO.C,R34*%
X97500000Y-56650000D03*
X97500000Y-54825000D03*
%TD*%
D21*
%TO.C,R30*%
X94825000Y-59500000D03*
X93000000Y-59500000D03*
%TD*%
D10*
%TO.C,C7*%
X112315000Y-133500000D03*
X110415000Y-133500000D03*
%TD*%
D60*
%TO.C,D3*%
X79900000Y-34000000D03*
X78500000Y-34000000D03*
%TD*%
D41*
%TO.C,C41*%
X109600000Y-40000000D03*
X111500000Y-40000000D03*
%TD*%
D35*
%TO.C,R15*%
X180600000Y-66058333D03*
X180600000Y-64233333D03*
%TD*%
D10*
%TO.C,C14*%
X74500000Y-48000000D03*
X72600000Y-48000000D03*
%TD*%
D61*
%TO.C,F1*%
X183902500Y-106150000D03*
X179627500Y-106150000D03*
%TD*%
D10*
%TO.C,C15*%
X91450000Y-62000000D03*
X89550000Y-62000000D03*
%TD*%
D62*
%TO.C,BT1*%
X151100000Y-73500000D03*
X159100000Y-73500000D03*
D63*
X155100000Y-73500000D03*
%TD*%
D16*
%TO.C,D7*%
X180600000Y-60733333D03*
X180600000Y-62608333D03*
%TD*%
D10*
%TO.C,C9*%
X112315000Y-136000000D03*
X110415000Y-136000000D03*
%TD*%
D41*
%TO.C,C12*%
X189500000Y-94000000D03*
X191400000Y-94000000D03*
%TD*%
D47*
%TO.C,D13*%
X173000000Y-57179166D03*
X173000000Y-59279166D03*
%TD*%
D42*
%TO.C,R63*%
X184765000Y-114150000D03*
X184765000Y-116150000D03*
%TD*%
%TO.C,R56*%
X192765000Y-114150000D03*
X192765000Y-116150000D03*
%TD*%
D14*
%TO.C,R64*%
X198750000Y-116150000D03*
X198750000Y-114150000D03*
%TD*%
D64*
%TO.C,U3*%
X125650000Y-119050000D03*
X125000000Y-119050000D03*
X124350000Y-119050000D03*
X124350000Y-120950000D03*
X125650000Y-120950000D03*
%TD*%
D35*
%TO.C,R24*%
X205400000Y-68712500D03*
X205400000Y-66887500D03*
%TD*%
D16*
%TO.C,D21*%
X190900000Y-64900000D03*
X190900000Y-66775000D03*
%TD*%
D65*
%TO.C,R5*%
X118415000Y-135575000D03*
X118415000Y-138500000D03*
%TD*%
D41*
%TO.C,C28*%
X116300000Y-44500000D03*
X118200000Y-44500000D03*
%TD*%
D21*
%TO.C,R37*%
X116325000Y-34000000D03*
X114500000Y-34000000D03*
%TD*%
D10*
%TO.C,C16*%
X106950000Y-40000000D03*
X105050000Y-40000000D03*
%TD*%
D49*
%TO.C,JP3*%
X80050000Y-122000000D03*
X78750000Y-122000000D03*
%TD*%
D66*
%TO.C,U9*%
X196562500Y-102100000D03*
X197832500Y-102100000D03*
X199102500Y-102100000D03*
X200372500Y-102100000D03*
X200372500Y-97150000D03*
X199102500Y-97150000D03*
X197832500Y-97150000D03*
X196562500Y-97150000D03*
%TD*%
D67*
%TO.C,IC1*%
X113675000Y-124225000D03*
X113040000Y-124225000D03*
X112405000Y-124225000D03*
X111770000Y-124225000D03*
X111135000Y-124225000D03*
X110500000Y-124225000D03*
X109865000Y-124225000D03*
X109230000Y-124225000D03*
X109230000Y-129500000D03*
X109865000Y-129500000D03*
X110500000Y-129500000D03*
X111135000Y-129500000D03*
X111770000Y-129500000D03*
X112405000Y-129500000D03*
X113040000Y-129500000D03*
X113675000Y-129500000D03*
%TD*%
D22*
%TO.C,R49*%
X107675000Y-57000000D03*
X109500000Y-57000000D03*
%TD*%
D49*
%TO.C,JP2*%
X80050000Y-110000000D03*
X78750000Y-110000000D03*
%TD*%
D46*
%TO.C,R8*%
X104415000Y-138500000D03*
X104415000Y-135575000D03*
%TD*%
D20*
%TO.C,R68*%
X103000000Y-98675000D03*
X103000000Y-100500000D03*
%TD*%
D68*
%TO.C,C33*%
X93000000Y-72920000D03*
X93000000Y-76000000D03*
%TD*%
D69*
%TO.C,C35*%
X79000000Y-96500000D03*
X79000000Y-100100000D03*
%TD*%
D70*
%TO.C,C27*%
X122500000Y-45500000D03*
X122500000Y-48450000D03*
%TD*%
D71*
%TO.C,U16*%
X107975000Y-86905000D03*
X107975000Y-85635000D03*
X107975000Y-84365000D03*
X107975000Y-83095000D03*
X103025000Y-83095000D03*
X103025000Y-84365000D03*
X103025000Y-85635000D03*
X103025000Y-86905000D03*
%TD*%
D37*
%TO.C,Q7*%
X206500000Y-61080000D03*
D38*
X206500000Y-58540000D03*
X206500000Y-56000000D03*
%TD*%
D40*
%TO.C,C8*%
X107415000Y-133500000D03*
X107415000Y-131600000D03*
%TD*%
D72*
%TO.C,J1*%
X127000000Y-80190000D03*
D73*
X127000000Y-82730000D03*
X127000000Y-85270000D03*
X127000000Y-87810000D03*
%TD*%
D74*
%TO.C,D32*%
X71050000Y-69500000D03*
X75350000Y-69500000D03*
%TD*%
D37*
%TO.C,Q6*%
X190000000Y-61080000D03*
D38*
X190000000Y-58540000D03*
X190000000Y-56000000D03*
%TD*%
D71*
%TO.C,U5*%
X201215000Y-79600000D03*
X201215000Y-78330000D03*
X201215000Y-77060000D03*
X201215000Y-75790000D03*
X196265000Y-75790000D03*
X196265000Y-77060000D03*
X196265000Y-78330000D03*
X196265000Y-79600000D03*
%TD*%
D21*
%TO.C,R70*%
X115325000Y-40000000D03*
X113500000Y-40000000D03*
%TD*%
D10*
%TO.C,C17*%
X78500000Y-49000000D03*
X76600000Y-49000000D03*
%TD*%
D14*
%TO.C,R59*%
X182765000Y-116150000D03*
X182765000Y-114150000D03*
%TD*%
D15*
%TO.C,C39*%
X70300000Y-75500000D03*
X75700000Y-75500000D03*
%TD*%
D37*
%TO.C,Q4*%
X201000000Y-61080000D03*
D38*
X201000000Y-58540000D03*
X201000000Y-56000000D03*
%TD*%
D41*
%TO.C,C26*%
X120500000Y-42500000D03*
X122400000Y-42500000D03*
%TD*%
D47*
%TO.C,D9*%
X176900000Y-57120833D03*
X176900000Y-59220833D03*
%TD*%
D26*
%TO.C,D29*%
X195215000Y-128888500D03*
X197315000Y-128888500D03*
%TD*%
D39*
%TO.C,U13*%
X80525000Y-37555000D03*
X80525000Y-38825000D03*
X80525000Y-40095000D03*
X80525000Y-41365000D03*
X80525000Y-42635000D03*
X80525000Y-43905000D03*
X80525000Y-45175000D03*
X80525000Y-46445000D03*
X85475000Y-46445000D03*
X85475000Y-45175000D03*
X85475000Y-43905000D03*
X85475000Y-42635000D03*
X85475000Y-41365000D03*
X85475000Y-40095000D03*
X85475000Y-38825000D03*
X85475000Y-37555000D03*
%TD*%
D41*
%TO.C,C25*%
X90000000Y-51000000D03*
X91900000Y-51000000D03*
%TD*%
D75*
X70175000Y-35500000D02*
G75*
G02*
X69825000Y-35500000I-175000J0D01*
G01*
X69825000Y-35500000D02*
G75*
G02*
X70175000Y-35500000I175000J0D01*
G01*
X206175000Y-140500000D02*
G75*
G02*
X205825000Y-140500000I-175000J0D01*
G01*
X205825000Y-140500000D02*
G75*
G02*
X206175000Y-140500000I175000J0D01*
G01*
D76*
X65000000Y-32000000D02*
X213000000Y-32000000D01*
X213000000Y-143500000D01*
X65000000Y-143500000D01*
X65000000Y-32000000D01*
M02*
