%TF.GenerationSoftware,KiCad,Pcbnew,9.0.0*%
%TF.CreationDate,2025-08-01T10:40:34+02:00*%
%TF.ProjectId,ECU,4543552e-6b69-4636-9164-5f7063625858,0.3*%
%TF.SameCoordinates,Original*%
%TF.FileFunction,OtherDrawing,Comment*%
%FSLAX46Y46*%
G04 Gerber Fmt 4.6, Leading zero omitted, Abs format (unit mm)*
G04 Created by KiCad (PCBNEW 9.0.0) date 2025-08-01 10:40:34*
%MOMM*%
%LPD*%
G01*
G04 APERTURE LIST*
%ADD10C,0.100000*%
%ADD11C,0.350000*%
%TA.AperFunction,Profile*%
%ADD12C,0.050000*%
%TD*%
G04 APERTURE END LIST*
D10*
X65000000Y-32000000D02*
X66100000Y-32000000D01*
X66500000Y-32000000D02*
X67000000Y-32000000D01*
X67000000Y-32000000D02*
X67000000Y-33100000D01*
X67000000Y-33500000D02*
X67000000Y-34600000D01*
X67000000Y-35000000D02*
X67000000Y-36100000D01*
X67000000Y-36500000D02*
X67000000Y-37600000D01*
X67000000Y-38000000D02*
X67000000Y-39100000D01*
X67000000Y-39500000D02*
X67000000Y-40600000D01*
X67000000Y-41000000D02*
X67000000Y-42100000D01*
X67000000Y-42500000D02*
X67000000Y-43600000D01*
X67000000Y-44000000D02*
X67000000Y-45100000D01*
X67000000Y-45500000D02*
X67000000Y-46600000D01*
X67000000Y-47000000D02*
X67000000Y-48100000D01*
X67000000Y-48500000D02*
X67000000Y-49600000D01*
X67000000Y-50000000D02*
X67000000Y-51100000D01*
X67000000Y-51500000D02*
X67000000Y-52600000D01*
X67000000Y-53000000D02*
X67000000Y-54100000D01*
X67000000Y-54500000D02*
X67000000Y-55600000D01*
X67000000Y-56000000D02*
X67000000Y-57100000D01*
X67000000Y-57500000D02*
X67000000Y-58600000D01*
X67000000Y-59000000D02*
X67000000Y-60100000D01*
X67000000Y-60500000D02*
X67000000Y-61600000D01*
X67000000Y-62000000D02*
X67000000Y-63100000D01*
X67000000Y-63500000D02*
X67000000Y-64600000D01*
X67000000Y-65000000D02*
X67000000Y-66100000D01*
X67000000Y-66500000D02*
X67000000Y-67600000D01*
X67000000Y-68000000D02*
X67000000Y-69100000D01*
X67000000Y-69500000D02*
X67000000Y-70600000D01*
X67000000Y-71000000D02*
X67000000Y-72100000D01*
X67000000Y-72500000D02*
X67000000Y-73600000D01*
X67000000Y-74000000D02*
X67000000Y-75100000D01*
X67000000Y-75500000D02*
X67000000Y-76600000D01*
X67000000Y-77000000D02*
X67000000Y-78100000D01*
X67000000Y-78500000D02*
X67000000Y-79600000D01*
X67000000Y-80000000D02*
X67000000Y-81100000D01*
X67000000Y-81500000D02*
X67000000Y-82600000D01*
X67000000Y-83000000D02*
X67000000Y-84100000D01*
X67000000Y-84500000D02*
X67000000Y-85600000D01*
X67000000Y-86000000D02*
X67000000Y-87100000D01*
X67000000Y-87500000D02*
X67000000Y-88600000D01*
X67000000Y-89000000D02*
X67000000Y-90100000D01*
X67000000Y-90500000D02*
X67000000Y-91600000D01*
X67000000Y-92000000D02*
X67000000Y-93100000D01*
X67000000Y-93500000D02*
X67000000Y-94600000D01*
X67000000Y-95000000D02*
X67000000Y-96100000D01*
X67000000Y-96500000D02*
X67000000Y-97600000D01*
X67000000Y-98000000D02*
X67000000Y-99100000D01*
X67000000Y-99500000D02*
X67000000Y-100600000D01*
X67000000Y-101000000D02*
X67000000Y-102100000D01*
X67000000Y-102500000D02*
X67000000Y-103600000D01*
X67000000Y-104000000D02*
X67000000Y-105100000D01*
X67000000Y-105500000D02*
X67000000Y-106600000D01*
X67000000Y-107000000D02*
X67000000Y-108100000D01*
X67000000Y-108500000D02*
X67000000Y-109600000D01*
X67000000Y-110000000D02*
X67000000Y-111100000D01*
X67000000Y-111500000D02*
X67000000Y-112600000D01*
X67000000Y-113000000D02*
X67000000Y-114100000D01*
X67000000Y-114500000D02*
X67000000Y-115600000D01*
X67000000Y-116000000D02*
X67000000Y-117100000D01*
X67000000Y-117500000D02*
X67000000Y-118600000D01*
X67000000Y-119000000D02*
X67000000Y-120100000D01*
X67000000Y-120500000D02*
X67000000Y-121600000D01*
X67000000Y-122000000D02*
X67000000Y-123100000D01*
X67000000Y-123500000D02*
X67000000Y-124600000D01*
X67000000Y-125000000D02*
X67000000Y-126100000D01*
X67000000Y-126500000D02*
X67000000Y-127600000D01*
X67000000Y-128000000D02*
X67000000Y-129100000D01*
X67000000Y-129500000D02*
X67000000Y-130600000D01*
X67000000Y-131000000D02*
X67000000Y-132100000D01*
X67000000Y-132500000D02*
X67000000Y-133600000D01*
X67000000Y-134000000D02*
X67000000Y-135100000D01*
X67000000Y-135500000D02*
X67000000Y-136600000D01*
X67000000Y-137000000D02*
X67000000Y-138100000D01*
X67000000Y-138500000D02*
X67000000Y-139600000D01*
X67000000Y-140000000D02*
X67000000Y-141100000D01*
X67000000Y-141500000D02*
X67000000Y-142600000D01*
X67000000Y-143000000D02*
X67000000Y-143500000D01*
X67000000Y-143500000D02*
X65900000Y-143500000D01*
X65500000Y-143500000D02*
X65000000Y-143500000D01*
X65000000Y-143500000D02*
X65000000Y-142400000D01*
X65000000Y-142000000D02*
X65000000Y-140900000D01*
X65000000Y-140500000D02*
X65000000Y-139400000D01*
X65000000Y-139000000D02*
X65000000Y-137900000D01*
X65000000Y-137500000D02*
X65000000Y-136400000D01*
X65000000Y-136000000D02*
X65000000Y-134900000D01*
X65000000Y-134500000D02*
X65000000Y-133400000D01*
X65000000Y-133000000D02*
X65000000Y-131900000D01*
X65000000Y-131500000D02*
X65000000Y-130400000D01*
X65000000Y-130000000D02*
X65000000Y-128900000D01*
X65000000Y-128500000D02*
X65000000Y-127400000D01*
X65000000Y-127000000D02*
X65000000Y-125900000D01*
X65000000Y-125500000D02*
X65000000Y-124400000D01*
X65000000Y-124000000D02*
X65000000Y-122900000D01*
X65000000Y-122500000D02*
X65000000Y-121400000D01*
X65000000Y-121000000D02*
X65000000Y-119900000D01*
X65000000Y-119500000D02*
X65000000Y-118400000D01*
X65000000Y-118000000D02*
X65000000Y-116900000D01*
X65000000Y-116500000D02*
X65000000Y-115400000D01*
X65000000Y-115000000D02*
X65000000Y-113900000D01*
X65000000Y-113500000D02*
X65000000Y-112400000D01*
X65000000Y-112000000D02*
X65000000Y-110900000D01*
X65000000Y-110500000D02*
X65000000Y-109400000D01*
X65000000Y-109000000D02*
X65000000Y-107900000D01*
X65000000Y-107500000D02*
X65000000Y-106400000D01*
X65000000Y-106000000D02*
X65000000Y-104900000D01*
X65000000Y-104500000D02*
X65000000Y-103400000D01*
X65000000Y-103000000D02*
X65000000Y-101900000D01*
X65000000Y-101500000D02*
X65000000Y-100400000D01*
X65000000Y-100000000D02*
X65000000Y-98900000D01*
X65000000Y-98500000D02*
X65000000Y-97400000D01*
X65000000Y-97000000D02*
X65000000Y-95900000D01*
X65000000Y-95500000D02*
X65000000Y-94400000D01*
X65000000Y-94000000D02*
X65000000Y-92900000D01*
X65000000Y-92500000D02*
X65000000Y-91400000D01*
X65000000Y-91000000D02*
X65000000Y-89900000D01*
X65000000Y-89500000D02*
X65000000Y-88400000D01*
X65000000Y-88000000D02*
X65000000Y-86900000D01*
X65000000Y-86500000D02*
X65000000Y-85400000D01*
X65000000Y-85000000D02*
X65000000Y-83900000D01*
X65000000Y-83500000D02*
X65000000Y-82400000D01*
X65000000Y-82000000D02*
X65000000Y-80900000D01*
X65000000Y-80500000D02*
X65000000Y-79400000D01*
X65000000Y-79000000D02*
X65000000Y-77900000D01*
X65000000Y-77500000D02*
X65000000Y-76400000D01*
X65000000Y-76000000D02*
X65000000Y-74900000D01*
X65000000Y-74500000D02*
X65000000Y-73400000D01*
X65000000Y-73000000D02*
X65000000Y-71900000D01*
X65000000Y-71500000D02*
X65000000Y-70400000D01*
X65000000Y-70000000D02*
X65000000Y-68900000D01*
X65000000Y-68500000D02*
X65000000Y-67400000D01*
X65000000Y-67000000D02*
X65000000Y-65900000D01*
X65000000Y-65500000D02*
X65000000Y-64400000D01*
X65000000Y-64000000D02*
X65000000Y-62900000D01*
X65000000Y-62500000D02*
X65000000Y-61400000D01*
X65000000Y-61000000D02*
X65000000Y-59900000D01*
X65000000Y-59500000D02*
X65000000Y-58400000D01*
X65000000Y-58000000D02*
X65000000Y-56900000D01*
X65000000Y-56500000D02*
X65000000Y-55400000D01*
X65000000Y-55000000D02*
X65000000Y-53900000D01*
X65000000Y-53500000D02*
X65000000Y-52400000D01*
X65000000Y-52000000D02*
X65000000Y-50900000D01*
X65000000Y-50500000D02*
X65000000Y-49400000D01*
X65000000Y-49000000D02*
X65000000Y-47900000D01*
X65000000Y-47500000D02*
X65000000Y-46400000D01*
X65000000Y-46000000D02*
X65000000Y-44900000D01*
X65000000Y-44500000D02*
X65000000Y-43400000D01*
X65000000Y-43000000D02*
X65000000Y-41900000D01*
X65000000Y-41500000D02*
X65000000Y-40400000D01*
X65000000Y-40000000D02*
X65000000Y-38900000D01*
X65000000Y-38500000D02*
X65000000Y-37400000D01*
X65000000Y-37000000D02*
X65000000Y-35900000D01*
X65000000Y-35500000D02*
X65000000Y-34400000D01*
X65000000Y-34000000D02*
X65000000Y-32900000D01*
X65000000Y-32500000D02*
X65000000Y-32000000D01*
X211000000Y-32000000D02*
X212100000Y-32000000D01*
X212500000Y-32000000D02*
X213000000Y-32000000D01*
X213000000Y-32000000D02*
X213000000Y-33100000D01*
X213000000Y-33500000D02*
X213000000Y-34600000D01*
X213000000Y-35000000D02*
X213000000Y-36100000D01*
X213000000Y-36500000D02*
X213000000Y-37600000D01*
X213000000Y-38000000D02*
X213000000Y-39100000D01*
X213000000Y-39500000D02*
X213000000Y-40600000D01*
X213000000Y-41000000D02*
X213000000Y-42100000D01*
X213000000Y-42500000D02*
X213000000Y-43600000D01*
X213000000Y-44000000D02*
X213000000Y-45100000D01*
X213000000Y-45500000D02*
X213000000Y-46600000D01*
X213000000Y-47000000D02*
X213000000Y-48100000D01*
X213000000Y-48500000D02*
X213000000Y-49600000D01*
X213000000Y-50000000D02*
X213000000Y-51100000D01*
X213000000Y-51500000D02*
X213000000Y-52600000D01*
X213000000Y-53000000D02*
X213000000Y-54100000D01*
X213000000Y-54500000D02*
X213000000Y-55600000D01*
X213000000Y-56000000D02*
X213000000Y-57100000D01*
X213000000Y-57500000D02*
X213000000Y-58600000D01*
X213000000Y-59000000D02*
X213000000Y-60100000D01*
X213000000Y-60500000D02*
X213000000Y-61600000D01*
X213000000Y-62000000D02*
X213000000Y-63100000D01*
X213000000Y-63500000D02*
X213000000Y-64600000D01*
X213000000Y-65000000D02*
X213000000Y-66100000D01*
X213000000Y-66500000D02*
X213000000Y-67600000D01*
X213000000Y-68000000D02*
X213000000Y-69100000D01*
X213000000Y-69500000D02*
X213000000Y-70600000D01*
X213000000Y-71000000D02*
X213000000Y-72100000D01*
X213000000Y-72500000D02*
X213000000Y-73600000D01*
X213000000Y-74000000D02*
X213000000Y-75100000D01*
X213000000Y-75500000D02*
X213000000Y-76600000D01*
X213000000Y-77000000D02*
X213000000Y-78100000D01*
X213000000Y-78500000D02*
X213000000Y-79600000D01*
X213000000Y-80000000D02*
X213000000Y-81100000D01*
X213000000Y-81500000D02*
X213000000Y-82600000D01*
X213000000Y-83000000D02*
X213000000Y-84100000D01*
X213000000Y-84500000D02*
X213000000Y-85600000D01*
X213000000Y-86000000D02*
X213000000Y-87100000D01*
X213000000Y-87500000D02*
X213000000Y-88600000D01*
X213000000Y-89000000D02*
X213000000Y-90100000D01*
X213000000Y-90500000D02*
X213000000Y-91600000D01*
X213000000Y-92000000D02*
X213000000Y-93100000D01*
X213000000Y-93500000D02*
X213000000Y-94600000D01*
X213000000Y-95000000D02*
X213000000Y-96100000D01*
X213000000Y-96500000D02*
X213000000Y-97600000D01*
X213000000Y-98000000D02*
X213000000Y-99100000D01*
X213000000Y-99500000D02*
X213000000Y-100600000D01*
X213000000Y-101000000D02*
X213000000Y-102100000D01*
X213000000Y-102500000D02*
X213000000Y-103600000D01*
X213000000Y-104000000D02*
X213000000Y-105100000D01*
X213000000Y-105500000D02*
X213000000Y-106600000D01*
X213000000Y-107000000D02*
X213000000Y-108100000D01*
X213000000Y-108500000D02*
X213000000Y-109600000D01*
X213000000Y-110000000D02*
X213000000Y-111100000D01*
X213000000Y-111500000D02*
X213000000Y-112600000D01*
X213000000Y-113000000D02*
X213000000Y-114100000D01*
X213000000Y-114500000D02*
X213000000Y-115600000D01*
X213000000Y-116000000D02*
X213000000Y-117100000D01*
X213000000Y-117500000D02*
X213000000Y-118600000D01*
X213000000Y-119000000D02*
X213000000Y-120100000D01*
X213000000Y-120500000D02*
X213000000Y-121600000D01*
X213000000Y-122000000D02*
X213000000Y-123100000D01*
X213000000Y-123500000D02*
X213000000Y-124600000D01*
X213000000Y-125000000D02*
X213000000Y-126100000D01*
X213000000Y-126500000D02*
X213000000Y-127600000D01*
X213000000Y-128000000D02*
X213000000Y-129100000D01*
X213000000Y-129500000D02*
X213000000Y-130600000D01*
X213000000Y-131000000D02*
X213000000Y-132100000D01*
X213000000Y-132500000D02*
X213000000Y-133600000D01*
X213000000Y-134000000D02*
X213000000Y-135100000D01*
X213000000Y-135500000D02*
X213000000Y-136600000D01*
X213000000Y-137000000D02*
X213000000Y-138100000D01*
X213000000Y-138500000D02*
X213000000Y-139600000D01*
X213000000Y-140000000D02*
X213000000Y-141100000D01*
X213000000Y-141500000D02*
X213000000Y-142600000D01*
X213000000Y-143000000D02*
X213000000Y-143500000D01*
X213000000Y-143500000D02*
X211900000Y-143500000D01*
X211500000Y-143500000D02*
X211000000Y-143500000D01*
X211000000Y-143500000D02*
X211000000Y-142400000D01*
X211000000Y-142000000D02*
X211000000Y-140900000D01*
X211000000Y-140500000D02*
X211000000Y-139400000D01*
X211000000Y-139000000D02*
X211000000Y-137900000D01*
X211000000Y-137500000D02*
X211000000Y-136400000D01*
X211000000Y-136000000D02*
X211000000Y-134900000D01*
X211000000Y-134500000D02*
X211000000Y-133400000D01*
X211000000Y-133000000D02*
X211000000Y-131900000D01*
X211000000Y-131500000D02*
X211000000Y-130400000D01*
X211000000Y-130000000D02*
X211000000Y-128900000D01*
X211000000Y-128500000D02*
X211000000Y-127400000D01*
X211000000Y-127000000D02*
X211000000Y-125900000D01*
X211000000Y-125500000D02*
X211000000Y-124400000D01*
X211000000Y-124000000D02*
X211000000Y-122900000D01*
X211000000Y-122500000D02*
X211000000Y-121400000D01*
X211000000Y-121000000D02*
X211000000Y-119900000D01*
X211000000Y-119500000D02*
X211000000Y-118400000D01*
X211000000Y-118000000D02*
X211000000Y-116900000D01*
X211000000Y-116500000D02*
X211000000Y-115400000D01*
X211000000Y-115000000D02*
X211000000Y-113900000D01*
X211000000Y-113500000D02*
X211000000Y-112400000D01*
X211000000Y-112000000D02*
X211000000Y-110900000D01*
X211000000Y-110500000D02*
X211000000Y-109400000D01*
X211000000Y-109000000D02*
X211000000Y-107900000D01*
X211000000Y-107500000D02*
X211000000Y-106400000D01*
X211000000Y-106000000D02*
X211000000Y-104900000D01*
X211000000Y-104500000D02*
X211000000Y-103400000D01*
X211000000Y-103000000D02*
X211000000Y-101900000D01*
X211000000Y-101500000D02*
X211000000Y-100400000D01*
X211000000Y-100000000D02*
X211000000Y-98900000D01*
X211000000Y-98500000D02*
X211000000Y-97400000D01*
X211000000Y-97000000D02*
X211000000Y-95900000D01*
X211000000Y-95500000D02*
X211000000Y-94400000D01*
X211000000Y-94000000D02*
X211000000Y-92900000D01*
X211000000Y-92500000D02*
X211000000Y-91400000D01*
X211000000Y-91000000D02*
X211000000Y-89900000D01*
X211000000Y-89500000D02*
X211000000Y-88400000D01*
X211000000Y-88000000D02*
X211000000Y-86900000D01*
X211000000Y-86500000D02*
X211000000Y-85400000D01*
X211000000Y-85000000D02*
X211000000Y-83900000D01*
X211000000Y-83500000D02*
X211000000Y-82400000D01*
X211000000Y-82000000D02*
X211000000Y-80900000D01*
X211000000Y-80500000D02*
X211000000Y-79400000D01*
X211000000Y-79000000D02*
X211000000Y-77900000D01*
X211000000Y-77500000D02*
X211000000Y-76400000D01*
X211000000Y-76000000D02*
X211000000Y-74900000D01*
X211000000Y-74500000D02*
X211000000Y-73400000D01*
X211000000Y-73000000D02*
X211000000Y-71900000D01*
X211000000Y-71500000D02*
X211000000Y-70400000D01*
X211000000Y-70000000D02*
X211000000Y-68900000D01*
X211000000Y-68500000D02*
X211000000Y-67400000D01*
X211000000Y-67000000D02*
X211000000Y-65900000D01*
X211000000Y-65500000D02*
X211000000Y-64400000D01*
X211000000Y-64000000D02*
X211000000Y-62900000D01*
X211000000Y-62500000D02*
X211000000Y-61400000D01*
X211000000Y-61000000D02*
X211000000Y-59900000D01*
X211000000Y-59500000D02*
X211000000Y-58400000D01*
X211000000Y-58000000D02*
X211000000Y-56900000D01*
X211000000Y-56500000D02*
X211000000Y-55400000D01*
X211000000Y-55000000D02*
X211000000Y-53900000D01*
X211000000Y-53500000D02*
X211000000Y-52400000D01*
X211000000Y-52000000D02*
X211000000Y-50900000D01*
X211000000Y-50500000D02*
X211000000Y-49400000D01*
X211000000Y-49000000D02*
X211000000Y-47900000D01*
X211000000Y-47500000D02*
X211000000Y-46400000D01*
X211000000Y-46000000D02*
X211000000Y-44900000D01*
X211000000Y-44500000D02*
X211000000Y-43400000D01*
X211000000Y-43000000D02*
X211000000Y-41900000D01*
X211000000Y-41500000D02*
X211000000Y-40400000D01*
X211000000Y-40000000D02*
X211000000Y-38900000D01*
X211000000Y-38500000D02*
X211000000Y-37400000D01*
X211000000Y-37000000D02*
X211000000Y-35900000D01*
X211000000Y-35500000D02*
X211000000Y-34400000D01*
X211000000Y-34000000D02*
X211000000Y-32900000D01*
X211000000Y-32500000D02*
X211000000Y-32000000D01*
D11*
X70175000Y-35500000D02*
G75*
G02*
X69825000Y-35500000I-175000J0D01*
G01*
X69825000Y-35500000D02*
G75*
G02*
X70175000Y-35500000I175000J0D01*
G01*
X206175000Y-140500000D02*
G75*
G02*
X205825000Y-140500000I-175000J0D01*
G01*
X205825000Y-140500000D02*
G75*
G02*
X206175000Y-140500000I175000J0D01*
G01*
D12*
X65000000Y-32000000D02*
X213000000Y-32000000D01*
X213000000Y-143500000D01*
X65000000Y-143500000D01*
X65000000Y-32000000D01*
M02*
