%TF.GenerationSoftware,KiCad,Pcbnew,9.0.0*%
%TF.CreationDate,2025-08-01T10:40:34+02:00*%
%TF.ProjectId,ECU,4543552e-6b69-4636-9164-5f7063625858,0.3*%
%TF.SameCoordinates,Original*%
%TF.FileFunction,Other,ECO2*%
%FSLAX46Y46*%
G04 Gerber Fmt 4.6, Leading zero omitted, Abs format (unit mm)*
G04 Created by KiCad (PCBNEW 9.0.0) date 2025-08-01 10:40:34*
%MOMM*%
%LPD*%
G01*
G04 APERTURE LIST*
%ADD10C,0.100000*%
%ADD11C,0.350000*%
%TA.AperFunction,Profile*%
%ADD12C,0.050000*%
%TD*%
G04 APERTURE END LIST*
D10*
%TO.C,U7*%
X193202400Y-85290000D02*
X193202400Y-92910000D01*
X193202400Y-92910000D02*
X204327600Y-92910000D01*
X193710400Y-83943800D02*
X193710400Y-85290000D01*
X193710400Y-85290000D02*
X194091400Y-85290000D01*
X193710400Y-92910000D02*
X193710400Y-94256200D01*
X193710400Y-94256200D02*
X194091400Y-94256200D01*
X194091400Y-83943800D02*
X193710400Y-83943800D01*
X194091400Y-85290000D02*
X194091400Y-83943800D01*
X194091400Y-92910000D02*
X193710400Y-92910000D01*
X194091400Y-94256200D02*
X194091400Y-92910000D01*
X194345400Y-83943800D02*
X194345400Y-85290000D01*
X194345400Y-85290000D02*
X194726400Y-85290000D01*
X194345400Y-92910000D02*
X194345400Y-94256200D01*
X194345400Y-94256200D02*
X194726400Y-94256200D01*
X194726400Y-83943800D02*
X194345400Y-83943800D01*
X194726400Y-85290000D02*
X194726400Y-83943800D01*
X194726400Y-92910000D02*
X194345400Y-92910000D01*
X194726400Y-94256200D02*
X194726400Y-92910000D01*
X195005800Y-83943800D02*
X195005800Y-85290000D01*
X195005800Y-85290000D02*
X195386800Y-85290000D01*
X195005800Y-92910000D02*
X195005800Y-94256200D01*
X195005800Y-94256200D02*
X195386800Y-94256200D01*
X195386800Y-83943800D02*
X195005800Y-83943800D01*
X195386800Y-85290000D02*
X195386800Y-83943800D01*
X195386800Y-92910000D02*
X195005800Y-92910000D01*
X195386800Y-94256200D02*
X195386800Y-92910000D01*
X195640800Y-83943800D02*
X195640800Y-85290000D01*
X195640800Y-85290000D02*
X196021800Y-85290000D01*
X195640800Y-92910000D02*
X195640800Y-94256200D01*
X195640800Y-94256200D02*
X196021800Y-94256200D01*
X196021800Y-83943800D02*
X195640800Y-83943800D01*
X196021800Y-85290000D02*
X196021800Y-83943800D01*
X196021800Y-92910000D02*
X195640800Y-92910000D01*
X196021800Y-94256200D02*
X196021800Y-92910000D01*
X196301200Y-83943800D02*
X196301200Y-85290000D01*
X196301200Y-85290000D02*
X196682200Y-85290000D01*
X196301200Y-92910000D02*
X196301200Y-94256200D01*
X196301200Y-94256200D02*
X196682200Y-94256200D01*
X196682200Y-83943800D02*
X196301200Y-83943800D01*
X196682200Y-85290000D02*
X196682200Y-83943800D01*
X196682200Y-92910000D02*
X196301200Y-92910000D01*
X196682200Y-94256200D02*
X196682200Y-92910000D01*
X196961600Y-83943800D02*
X196961600Y-85290000D01*
X196961600Y-85290000D02*
X197342600Y-85290000D01*
X196961600Y-92910000D02*
X196961600Y-94256200D01*
X196961600Y-94256200D02*
X197342600Y-94256200D01*
X197342600Y-83943800D02*
X196961600Y-83943800D01*
X197342600Y-85290000D02*
X197342600Y-83943800D01*
X197342600Y-92910000D02*
X196961600Y-92910000D01*
X197342600Y-94256200D02*
X197342600Y-92910000D01*
X197596600Y-83943800D02*
X197596600Y-85290000D01*
X197596600Y-85290000D02*
X197977600Y-85290000D01*
X197596600Y-92910000D02*
X197596600Y-94256200D01*
X197596600Y-94256200D02*
X197977600Y-94256200D01*
X197977600Y-83943800D02*
X197596600Y-83943800D01*
X197977600Y-85290000D02*
X197977600Y-83943800D01*
X197977600Y-92910000D02*
X197596600Y-92910000D01*
X197977600Y-94256200D02*
X197977600Y-92910000D01*
X198257000Y-83943800D02*
X198257000Y-85290000D01*
X198257000Y-85290000D02*
X198638000Y-85290000D01*
X198257000Y-92910000D02*
X198257000Y-94256200D01*
X198257000Y-94256200D02*
X198638000Y-94256200D01*
X198638000Y-83943800D02*
X198257000Y-83943800D01*
X198638000Y-85290000D02*
X198638000Y-83943800D01*
X198638000Y-92910000D02*
X198257000Y-92910000D01*
X198638000Y-94256200D02*
X198638000Y-92910000D01*
X198892000Y-83943800D02*
X198892000Y-85290000D01*
X198892000Y-85290000D02*
X199273000Y-85290000D01*
X198892000Y-92910000D02*
X198892000Y-94256200D01*
X198892000Y-94256200D02*
X199273000Y-94256200D01*
X199273000Y-83943800D02*
X198892000Y-83943800D01*
X199273000Y-85290000D02*
X199273000Y-83943800D01*
X199273000Y-92910000D02*
X198892000Y-92910000D01*
X199273000Y-94256200D02*
X199273000Y-92910000D01*
X199552400Y-83943800D02*
X199552400Y-85290000D01*
X199552400Y-85290000D02*
X199933400Y-85290000D01*
X199552400Y-92910000D02*
X199552400Y-94256200D01*
X199552400Y-94256200D02*
X199933400Y-94256200D01*
X199933400Y-83943800D02*
X199552400Y-83943800D01*
X199933400Y-85290000D02*
X199933400Y-83943800D01*
X199933400Y-92910000D02*
X199552400Y-92910000D01*
X199933400Y-94256200D02*
X199933400Y-92910000D01*
X200187400Y-83943800D02*
X200187400Y-85290000D01*
X200187400Y-85290000D02*
X200568400Y-85290000D01*
X200187400Y-92910000D02*
X200187400Y-94256200D01*
X200187400Y-94256200D02*
X200568400Y-94256200D01*
X200568400Y-83943800D02*
X200187400Y-83943800D01*
X200568400Y-85290000D02*
X200568400Y-83943800D01*
X200568400Y-92910000D02*
X200187400Y-92910000D01*
X200568400Y-94256200D02*
X200568400Y-92910000D01*
X200847800Y-83943800D02*
X200847800Y-85290000D01*
X200847800Y-85290000D02*
X201228800Y-85290000D01*
X200847800Y-92910000D02*
X200847800Y-94256200D01*
X200847800Y-94256200D02*
X201228800Y-94256200D01*
X201228800Y-83943800D02*
X200847800Y-83943800D01*
X201228800Y-85290000D02*
X201228800Y-83943800D01*
X201228800Y-92910000D02*
X200847800Y-92910000D01*
X201228800Y-94256200D02*
X201228800Y-92910000D01*
X201508200Y-83943800D02*
X201508200Y-85290000D01*
X201508200Y-85290000D02*
X201889200Y-85290000D01*
X201508200Y-92910000D02*
X201508200Y-94256200D01*
X201508200Y-94256200D02*
X201889200Y-94256200D01*
X201889200Y-83943800D02*
X201508200Y-83943800D01*
X201889200Y-85290000D02*
X201889200Y-83943800D01*
X201889200Y-92910000D02*
X201508200Y-92910000D01*
X201889200Y-94256200D02*
X201889200Y-92910000D01*
X202143200Y-83943800D02*
X202143200Y-85290000D01*
X202143200Y-85290000D02*
X202524200Y-85290000D01*
X202143200Y-92910000D02*
X202143200Y-94256200D01*
X202143200Y-94256200D02*
X202524200Y-94256200D01*
X202524200Y-83943800D02*
X202143200Y-83943800D01*
X202524200Y-85290000D02*
X202524200Y-83943800D01*
X202524200Y-92910000D02*
X202143200Y-92910000D01*
X202524200Y-94256200D02*
X202524200Y-92910000D01*
X202803600Y-83943800D02*
X202803600Y-85290000D01*
X202803600Y-85290000D02*
X203184600Y-85290000D01*
X202803600Y-92910000D02*
X202803600Y-94256200D01*
X202803600Y-94256200D02*
X203184600Y-94256200D01*
X203184600Y-83943800D02*
X202803600Y-83943800D01*
X203184600Y-85290000D02*
X203184600Y-83943800D01*
X203184600Y-92910000D02*
X202803600Y-92910000D01*
X203184600Y-94256200D02*
X203184600Y-92910000D01*
X203438600Y-83943800D02*
X203438600Y-85290000D01*
X203438600Y-85290000D02*
X203819600Y-85290000D01*
X203438600Y-92910000D02*
X203438600Y-94256200D01*
X203438600Y-94256200D02*
X203819600Y-94256200D01*
X203819600Y-83943800D02*
X203438600Y-83943800D01*
X203819600Y-85290000D02*
X203819600Y-83943800D01*
X203819600Y-92910000D02*
X203438600Y-92910000D01*
X203819600Y-94256200D02*
X203819600Y-92910000D01*
X204327600Y-85290000D02*
X193202400Y-85290000D01*
X204327600Y-88795200D02*
X204327600Y-85290000D01*
X204327600Y-89404800D02*
X204327600Y-88795200D01*
X204327600Y-92910000D02*
X204327600Y-89404800D01*
X204327600Y-89404800D02*
G75*
G02*
X204327600Y-88795200I0J304800D01*
G01*
%TD*%
D11*
X70175000Y-35500000D02*
G75*
G02*
X69825000Y-35500000I-175000J0D01*
G01*
X69825000Y-35500000D02*
G75*
G02*
X70175000Y-35500000I175000J0D01*
G01*
X206175000Y-140500000D02*
G75*
G02*
X205825000Y-140500000I-175000J0D01*
G01*
X205825000Y-140500000D02*
G75*
G02*
X206175000Y-140500000I175000J0D01*
G01*
D12*
X65000000Y-32000000D02*
X213000000Y-32000000D01*
X213000000Y-143500000D01*
X65000000Y-143500000D01*
X65000000Y-32000000D01*
M02*
