M48
; DRILL file KiCad 10.0.3 date 2026-08-24T14:43:56
; FORMAT={-:-/ absolute / metric / decimal}
; #@! TF.CreationDate,2026-08-24T14:43:56+02:00
; #@! TF.GenerationSoftware,Kicad,Pcbnew,10.0.3
; #@! TF.FileFunction,Plated,1,2,PTH
FMAT,2
METRIC
; #@! TA.AperFunction,Plated,PTH,ComponentDrill
T1C0.200
; #@! TA.AperFunction,Plated,PTH,ViaDrill
T2C0.300
; #@! TA.AperFunction,Plated,PTH,ComponentDrill
T3C0.300
; #@! TA.AperFunction,Plated,PTH,ViaDrill
T4C0.400
; #@! TA.AperFunction,Plated,PTH,ComponentDrill
T5C0.800
; #@! TA.AperFunction,Plated,PTH,ComponentDrill
T6C1.000
; #@! TA.AperFunction,Plated,PTH,ComponentDrill
T7C1.100
; #@! TA.AperFunction,Plated,PTH,ComponentDrill
T8C1.370
; #@! TA.AperFunction,Plated,PTH,ComponentDrill
T9C1.400
; #@! TA.AperFunction,Plated,PTH,ComponentDrill
T10C1.850
; #@! TA.AperFunction,Plated,PTH,ComponentDrill
T11C3.500
%
G90
G05
T1
X77.2Y-128.545
X77.2Y-130.455
X78.5Y-128.545
X78.5Y-130.455
X79.8Y-128.545
X79.8Y-130.455
T2
X71.949Y-115.587
X72.179Y-123.307
X72.5Y-43.062
X72.5Y-95.359
X74.849Y-125.919
X75.559Y-94.05
X75.778Y-96.971
X75.85Y-124.261
X77.513Y-78.193
X78.037Y-139.304
X78.336Y-96.581
X78.768Y-134.307
X78.81Y-107.763
X79.012Y-98.101
X81.491Y-90.115
X81.491Y-98.852
X81.695Y-126.917
X82.233Y-85.773
X83.282Y-83.877
X83.508Y-76.712
X84.038Y-77.465
X84.402Y-109.15
X85.154Y-90.45
X85.191Y-69.342
X86.549Y-78.058
X86.549Y-82.56
X87.306Y-118.047
X89.959Y-85.292
X89.959Y-89.5
X91.432Y-88.677
X91.454Y-74.138
X91.597Y-109.15
X91.989Y-59.249
X92.024Y-85.611
X92.581Y-62.951
X93.205Y-53.325
X93.983Y-67.787
X94.091Y-72.824
X94.307Y-90.729
X94.997Y-69.057
X95.99Y-71.436
X96.324Y-73.514
X96.457Y-140.0
X96.489Y-130.894
X96.5Y-80.158
X96.5Y-82.792
X96.94Y-70.897
X97.159Y-67.534
X99.103Y-53.323
X99.809Y-68.749
X99.942Y-67.5
X100.208Y-54.587
X100.754Y-64.201
X101.916Y-72.366
X102.447Y-140.0
X102.679Y-60.447
X102.702Y-75.422
X102.71Y-64.201
X102.819Y-68.11
X103.105Y-65.657
X103.207Y-41.006
X103.208Y-80.5
X103.934Y-42.885
X104.357Y-74.807
X104.546Y-39.642
X104.546Y-63.787
X105.137Y-107.674
X105.441Y-48.066
X105.441Y-51.69
X105.441Y-57.569
X106.252Y-72.635
X106.889Y-81.076
X107.437Y-74.464
X108.912Y-107.046
X109.365Y-117.237
X110.017Y-108.773
X110.976Y-63.978
X111.329Y-53.587
X111.332Y-66.587
X112.037Y-87.656
X112.083Y-133.184
X112.749Y-116.138
X113.172Y-70.589
X113.172Y-75.102
X113.318Y-85.522
X114.341Y-74.433
X114.631Y-89.245
X115.432Y-116.514
X115.895Y-83.803
X115.907Y-115.0
X116.162Y-69.196
X116.57Y-92.764
X116.614Y-117.528
X116.695Y-104.988
X116.699Y-74.682
X117.501Y-75.317
X117.515Y-103.599
X118.043Y-100.438
X118.632Y-122.566
X119.042Y-55.839
X119.688Y-65.703
X119.743Y-120.939
X119.918Y-119.016
X120.472Y-77.361
X120.524Y-99.5
X120.998Y-87.967
X121.579Y-67.044
X121.589Y-97.41
X121.982Y-83.748
X122.034Y-85.18
X122.043Y-77.27
X122.165Y-82.077
X123.175Y-126.85
X123.233Y-116.683
X123.235Y-84.438
X123.302Y-92.31
X123.342Y-85.307
X123.453Y-124.0
X123.644Y-120.813
X123.861Y-79.617
X124.14Y-69.797
X125.0Y-55.12
X125.076Y-66.266
X125.137Y-80.288
X125.266Y-130.339
X125.618Y-64.887
X125.648Y-86.502
X125.782Y-94.781
X125.883Y-91.609
X126.043Y-129.192
X126.061Y-126.999
X126.168Y-92.467
X126.306Y-124.837
X126.324Y-90.381
X126.414Y-100.118
X126.475Y-95.272
X126.697Y-68.774
X127.163Y-113.938
X127.329Y-74.047
X129.211Y-104.518
X129.237Y-106.087
X129.65Y-90.632
X129.657Y-112.231
X130.019Y-127.133
X130.29Y-89.67
X130.52Y-101.744
X130.79Y-76.087
X130.912Y-53.927
X130.912Y-70.399
X133.381Y-77.912
X134.062Y-133.151
X134.224Y-63.542
X134.224Y-74.818
X134.299Y-101.123
X134.317Y-134.019
X134.993Y-103.401
X135.067Y-62.941
X135.067Y-73.007
X135.218Y-104.304
X136.165Y-105.31
X137.34Y-107.157
X137.585Y-136.21
X137.732Y-109.111
X138.106Y-142.014
X138.443Y-126.571
X138.731Y-99.945
X138.877Y-96.263
X139.227Y-126.116
X139.71Y-120.97
X140.32Y-129.235
X142.3Y-93.03
X143.156Y-93.324
X143.508Y-123.51
X143.76Y-70.801
X144.095Y-81.778
X144.528Y-113.701
X145.01Y-115.33
X145.143Y-116.567
X148.999Y-138.225
X149.027Y-81.085
X149.171Y-71.413
X149.317Y-139.379
X149.416Y-54.976
X149.598Y-137.519
X149.823Y-77.912
X149.892Y-102.732
X150.012Y-78.936
X150.31Y-130.484
X150.495Y-93.824
X151.501Y-82.245
X152.555Y-115.803
X152.93Y-94.454
X153.879Y-118.57
X154.278Y-92.737
X154.752Y-120.8
X155.018Y-114.916
X155.895Y-141.885
X155.909Y-133.464
X155.962Y-104.236
X155.973Y-99.749
X156.222Y-140.378
X156.357Y-92.728
X156.928Y-131.337
X157.011Y-117.669
X157.239Y-100.456
X157.476Y-96.645
X157.956Y-93.847
X158.266Y-39.805
X158.528Y-99.899
X158.574Y-124.493
X158.742Y-91.873
X158.934Y-94.269
X159.301Y-96.777
X159.595Y-118.85
X159.677Y-128.064
X159.868Y-89.641
X160.132Y-88.529
X160.43Y-105.872
X160.514Y-108.996
X160.824Y-116.355
X161.011Y-138.805
X161.579Y-122.0
X161.616Y-92.416
X161.671Y-82.585
X162.334Y-131.296
X162.648Y-116.157
X163.467Y-95.05
X164.15Y-96.051
X164.188Y-110.21
X164.301Y-131.296
X164.528Y-88.863
X164.871Y-133.149
X166.265Y-54.309
X166.413Y-114.944
X166.42Y-88.863
X166.422Y-118.007
X166.422Y-122.117
X166.541Y-110.124
X166.659Y-97.914
X166.754Y-116.062
X166.814Y-119.195
X166.817Y-93.916
X167.23Y-115.144
X167.288Y-100.457
X167.411Y-62.336
X167.601Y-71.442
X167.8Y-63.377
X167.807Y-53.098
X167.807Y-72.386
X167.873Y-98.697
X167.976Y-50.672
X168.399Y-52.507
X168.399Y-71.202
X168.401Y-75.465
X168.45Y-96.865
X169.598Y-105.207
X169.956Y-110.426
X170.104Y-115.144
X170.179Y-133.804
X170.321Y-79.011
X170.749Y-41.208
X170.764Y-80.397
X171.535Y-139.737
X171.6Y-130.988
X171.954Y-117.0
X172.37Y-101.445
X172.766Y-55.915
X172.962Y-102.055
X173.531Y-124.573
X173.541Y-116.401
X173.796Y-53.593
X173.796Y-68.5
X175.294Y-114.931
X175.406Y-111.242
X176.397Y-107.194
X176.501Y-126.092
X177.014Y-121.516
X177.408Y-105.842
X178.009Y-124.001
X178.266Y-112.275
X178.877Y-137.074
X179.364Y-137.707
X179.451Y-80.45
X179.497Y-129.288
X179.534Y-110.624
X179.694Y-124.593
X180.028Y-138.162
X180.296Y-121.584
X180.549Y-95.5
X180.6Y-56.392
X180.694Y-118.121
X180.75Y-74.439
X181.122Y-96.648
X181.843Y-121.842
X182.069Y-123.469
X182.073Y-109.917
X182.379Y-67.205
X182.669Y-110.533
X183.117Y-93.916
X183.117Y-98.061
X183.162Y-112.205
X183.659Y-98.653
X183.687Y-115.757
X183.75Y-56.199
X183.873Y-135.922
X184.03Y-111.327
X184.564Y-71.825
X184.564Y-83.755
X185.343Y-91.794
X185.598Y-109.605
X185.756Y-69.657
X185.949Y-100.41
X185.954Y-95.098
X186.002Y-87.435
X186.129Y-57.392
X186.224Y-125.511
X186.4Y-97.731
X186.582Y-110.489
X186.745Y-136.804
X187.004Y-98.841
X187.305Y-124.984
X188.099Y-134.376
X188.32Y-103.533
X188.615Y-104.717
X188.689Y-53.298
X188.746Y-125.196
X188.756Y-113.137
X188.774Y-105.895
X189.547Y-101.566
X189.753Y-109.059
X189.816Y-61.982
X189.861Y-123.701
X190.247Y-99.427
X190.587Y-121.761
X190.587Y-124.309
X190.603Y-98.035
X191.198Y-82.902
X191.229Y-114.608
X191.263Y-99.679
X191.581Y-137.059
X191.82Y-129.077
X191.829Y-111.327
X192.335Y-100.944
X192.507Y-80.385
X192.707Y-69.526
X193.299Y-72.467
X193.459Y-83.099
X193.905Y-118.434
X194.414Y-86.169
X194.914Y-82.814
X194.95Y-75.435
X195.179Y-136.467
X195.458Y-66.032
X196.055Y-71.858
X196.727Y-81.097
X197.46Y-51.792
X198.068Y-139.0
X198.359Y-92.498
X198.809Y-133.959
X198.832Y-82.296
X198.883Y-73.757
X198.889Y-71.5
X199.401Y-118.771
X199.439Y-76.89
X199.445Y-92.505
X199.505Y-80.575
X200.112Y-66.308
X200.141Y-85.897
X200.758Y-79.046
X200.973Y-85.984
X201.592Y-80.802
X201.784Y-88.289
X202.387Y-135.912
X202.492Y-87.349
X202.725Y-113.65
X203.134Y-83.101
X203.5Y-86.641
X204.297Y-113.64
X205.053Y-66.301
X206.232Y-110.438
X206.386Y-79.33
X206.386Y-92.707
X206.655Y-122.125
X207.302Y-93.843
X207.645Y-69.639
X208.163Y-129.488
X208.611Y-52.762
X208.611Y-91.887
X210.067Y-115.34
T3
X180.6Y-104.375
X180.6Y-106.625
X182.2Y-104.375
X182.2Y-106.625
X183.8Y-104.375
X183.8Y-106.625
X185.4Y-104.375
X185.4Y-106.625
T4
X69.5Y-132.0
X71.6Y-132.15
X79.0Y-133.0
X81.25Y-139.0
X165.0Y-130.25
X166.75Y-130.25
X168.5Y-137.25
T5
X137.73Y-83.6
X140.182Y-95.84
X140.182Y-97.84
X140.27Y-83.6
X142.182Y-95.84
X142.182Y-97.84
X144.182Y-95.84
X144.182Y-97.84
T6
X127.0Y-80.19
X127.0Y-82.73
X127.0Y-85.27
X127.0Y-87.81
T7
X131.38Y-82.87
X131.38Y-85.41
X131.38Y-87.95
X131.38Y-90.49
X131.38Y-93.03
X131.38Y-95.57
X131.38Y-98.11
X131.38Y-100.65
X131.38Y-103.19
X131.38Y-105.73
X131.38Y-108.27
X131.38Y-110.81
X131.38Y-113.35
X131.38Y-115.89
X131.38Y-118.43
X131.38Y-120.97
X131.38Y-123.51
X131.38Y-126.05
X131.38Y-128.59
X131.38Y-131.13
X131.38Y-133.67
X131.38Y-136.21
X131.38Y-138.75
X131.38Y-141.29
X133.92Y-128.59
X134.431Y-89.169
X134.431Y-91.709
X134.431Y-94.249
X134.431Y-96.789
X134.431Y-99.329
X136.46Y-128.59
X139.0Y-128.59
X141.54Y-128.59
X144.08Y-85.41
X144.08Y-128.59
X146.62Y-82.87
X146.62Y-85.41
X146.62Y-87.95
X146.62Y-90.49
X146.62Y-93.03
X146.62Y-95.57
X146.62Y-98.11
X146.62Y-100.65
X146.62Y-103.19
X146.62Y-105.73
X146.62Y-108.27
X146.62Y-110.81
X146.62Y-113.35
X146.62Y-115.89
X146.62Y-118.43
X146.62Y-120.97
X146.62Y-123.51
X146.62Y-126.05
X146.62Y-128.59
X146.62Y-131.13
X146.62Y-133.67
X146.62Y-136.21
X146.62Y-138.75
X146.62Y-141.29
T8
X191.0Y-55.065
X191.0Y-57.6
X191.0Y-60.135
X196.1Y-55.065
X196.1Y-57.6
X196.1Y-60.135
X201.2Y-55.065
X201.2Y-57.6
X201.2Y-60.135
X206.3Y-55.065
X206.3Y-57.6
X206.3Y-60.135
T9
X142.25Y-42.5
X142.25Y-50.5
X143.75Y-45.0
X143.75Y-48.0
X145.25Y-42.5
X145.25Y-50.5
X146.75Y-45.0
X146.75Y-48.0
X148.25Y-42.5
X148.25Y-50.5
X149.75Y-45.0
X149.75Y-48.0
X151.25Y-42.5
X151.25Y-50.5
X152.75Y-45.0
X152.75Y-48.0
X154.25Y-42.5
X154.25Y-50.5
X155.75Y-45.0
X155.75Y-48.0
X157.25Y-42.5
X157.25Y-50.5
X158.5Y-45.0
X158.5Y-48.0
X160.25Y-42.5
X160.25Y-50.5
X174.75Y-42.5
X174.75Y-50.5
X176.25Y-45.0
X176.25Y-48.0
X177.75Y-42.5
X177.75Y-50.5
X179.25Y-45.0
X179.25Y-48.0
X180.75Y-42.5
X180.75Y-50.5
X182.25Y-45.0
X182.25Y-48.0
X183.75Y-42.5
X183.75Y-50.5
X185.25Y-45.0
X185.25Y-48.0
X186.75Y-42.5
X186.75Y-50.5
X188.25Y-45.0
X188.25Y-48.0
X189.75Y-42.5
X189.75Y-50.5
X191.25Y-45.0
X191.25Y-48.0
X192.75Y-42.5
X192.75Y-50.5
X194.25Y-45.0
X194.25Y-48.0
X195.75Y-42.5
X195.75Y-50.5
X197.25Y-45.0
X197.25Y-48.0
X198.75Y-42.5
X198.75Y-50.5
T10
X151.1Y-73.5
X159.1Y-73.5
T11
X134.0Y-36.5
X167.5Y-36.5
X206.0Y-36.5
M30
