M48
; DRILL file KiCad 10.0.5 date 2026-08-25T18:12:24
; FORMAT={-:-/ absolute / metric / decimal}
; #@! TF.CreationDate,2026-08-25T18:12:24+00:00
; #@! TF.GenerationSoftware,Kicad,Pcbnew,10.0.5
; #@! TF.FileFunction,MixedPlating,1,2
FMAT,2
METRIC
; #@! TA.AperFunction,Plated,PTH,ViaDrill
T1C0.300
; #@! TA.AperFunction,Plated,PTH,ViaDrill
T2C0.350
; #@! TA.AperFunction,Plated,PTH,ViaDrill
T3C0.400
; #@! TA.AperFunction,Plated,PTH,ViaDrill
T4C0.500
; #@! TA.AperFunction,Plated,PTH,ComponentDrill
T5C1.000
; #@! TA.AperFunction,Plated,PTH,ComponentDrill
T6C1.100
; #@! TA.AperFunction,Plated,PTH,ComponentDrill
T7C1.850
; #@! TA.AperFunction,Plated,PTH,ComponentDrill
T8C3.250
; #@! TA.AperFunction,NonPlated,NPTH,ComponentDrill
T9C2.930
%
G90
G05
T1
X53.406Y-112.848
X53.965Y-113.412
X54.358Y-90.054
X54.862Y-96.774
X55.017Y-117.48
X56.685Y-115.009
X59.215Y-88.05
X59.469Y-111.275
X60.23Y-77.062
X60.719Y-106.15
X65.141Y-82.274
X67.471Y-92.277
X68.104Y-84.716
X68.5Y-72.5
X68.588Y-80.424
X68.617Y-81.715
X69.151Y-82.486
X69.582Y-81.356
X69.855Y-84.514
X70.252Y-89.034
X71.0Y-68.0
X71.407Y-90.754
X72.172Y-80.276
X72.936Y-80.279
X74.29Y-88.423
X74.318Y-91.5
X75.256Y-89.91
X75.554Y-82.486
X76.185Y-84.307
X76.22Y-83.398
X76.659Y-90.821
X77.159Y-80.283
X77.35Y-91.5
X78.728Y-91.9
X80.025Y-89.91
X80.4Y-92.924
X81.014Y-88.65
X81.364Y-92.372
X84.651Y-72.791
X85.235Y-85.326
X86.028Y-91.923
X86.525Y-86.577
X88.158Y-86.081
X88.789Y-106.772
X88.838Y-95.259
X88.874Y-96.914
X89.374Y-75.977
X89.556Y-106.743
X90.37Y-77.062
X91.297Y-97.3
X91.382Y-95.221
X91.89Y-74.319
X92.059Y-104.947
X92.512Y-105.979
X92.969Y-96.9
X93.081Y-93.258
X93.324Y-77.764
X93.481Y-94.298
X94.016Y-102.819
X94.844Y-90.9
X94.891Y-105.405
X94.925Y-98.601
X95.014Y-102.467
X95.581Y-101.826
X96.073Y-67.772
X97.423Y-103.341
X98.388Y-102.599
X99.063Y-76.357
X99.249Y-96.533
X100.472Y-118.835
X100.629Y-102.196
X102.413Y-86.451
X103.053Y-90.208
X103.104Y-78.154
X103.756Y-96.5
X104.91Y-93.905
X104.985Y-91.292
X105.227Y-83.885
X105.467Y-82.285
X105.478Y-99.901
X105.648Y-93.082
X105.939Y-94.437
X106.108Y-93.685
X106.813Y-118.265
X107.889Y-94.604
X108.581Y-92.171
X109.324Y-97.562
X110.095Y-71.284
X110.703Y-101.386
X111.965Y-75.801
X112.166Y-101.297
X113.696Y-83.264
X113.85Y-89.903
X113.971Y-95.32
X114.635Y-89.111
X114.767Y-79.816
X114.913Y-66.668
X115.041Y-83.074
X115.064Y-75.772
X115.18Y-94.946
X115.252Y-106.355
X115.46Y-102.831
X115.751Y-92.198
X115.795Y-103.566
X116.032Y-105.803
X116.385Y-91.459
X116.419Y-97.219
X116.429Y-77.058
X116.603Y-94.418
X116.805Y-89.822
X116.935Y-110.841
X117.325Y-102.23
X117.509Y-91.526
X118.333Y-97.783
X119.96Y-94.529
X120.292Y-108.574
X120.322Y-89.461
X120.336Y-91.53
X120.542Y-77.07
X120.733Y-74.596
X120.863Y-97.329
X121.247Y-99.319
X122.318Y-101.46
X122.356Y-103.134
X123.431Y-99.173
X124.027Y-74.336
X125.108Y-99.288
X125.152Y-71.802
X125.202Y-74.579
X125.469Y-76.65
X125.56Y-108.231
X125.691Y-107.405
X125.705Y-80.017
X125.731Y-101.724
X127.044Y-84.935
X127.627Y-89.096
X129.094Y-77.525
X131.504Y-74.604
X131.64Y-78.683
X132.241Y-89.096
X132.666Y-115.5
X133.532Y-77.173
X135.817Y-78.5
X137.466Y-116.49
X144.971Y-74.46
X145.519Y-75.5
X145.585Y-109.148
X145.832Y-82.706
X146.646Y-118.266
X148.969Y-79.972
X154.603Y-75.163
X154.881Y-114.547
X156.16Y-96.606
X157.156Y-106.144
X157.707Y-81.344
X157.763Y-85.82
X157.776Y-95.684
X158.109Y-94.45
X159.221Y-83.548
T2
X55.035Y-89.087
X55.071Y-94.858
X66.219Y-79.65
X69.844Y-78.65
X76.844Y-79.4
X76.969Y-81.65
X84.969Y-77.275
X91.969Y-97.775
X92.094Y-91.275
X99.041Y-91.985
X99.594Y-90.65
X101.219Y-100.65
X104.182Y-91.499
X105.23Y-98.766
X106.719Y-107.275
X108.719Y-98.275
X114.594Y-102.65
X121.594Y-105.775
X122.969Y-100.525
X127.969Y-75.9
X131.344Y-107.025
X132.987Y-89.564
X137.469Y-77.525
X141.719Y-77.775
X142.594Y-80.65
X146.219Y-77.025
X156.469Y-111.65
X158.844Y-108.775
X158.969Y-106.775
X159.969Y-104.025
T3
X58.581Y-104.53
X66.094Y-109.886
X73.591Y-100.137
X86.089Y-105.64
X87.655Y-87.636
X89.065Y-73.195
X90.125Y-108.744
X93.884Y-81.985
X98.141Y-79.575
X100.23Y-93.444
X100.442Y-78.878
X110.143Y-84.915
X113.719Y-79.114
X115.123Y-104.123
X116.678Y-103.486
X120.906Y-84.265
X124.634Y-83.0
X127.23Y-95.248
X128.945Y-87.857
X131.785Y-100.528
X133.63Y-80.2
X139.689Y-82.694
X141.686Y-89.45
X147.495Y-73.079
X157.264Y-82.723
X157.475Y-103.767
T4
X63.821Y-94.382
X104.728Y-80.6
X106.511Y-86.541
X116.147Y-82.486
X122.28Y-89.897
T5
X136.3Y-111.2
X138.84Y-111.2
X141.38Y-111.2
X143.92Y-111.2
X146.46Y-111.2
X149.0Y-111.2
T6
X113.319Y-67.65
X113.319Y-70.65
X115.819Y-67.65
X115.819Y-70.65
X118.319Y-67.65
X118.319Y-70.65
X120.819Y-67.65
X120.819Y-70.65
X123.319Y-67.65
X123.319Y-70.65
X125.819Y-67.65
X125.819Y-70.65
X146.569Y-67.65
X146.569Y-70.65
X149.069Y-67.65
X149.069Y-70.65
X151.569Y-67.65
X151.569Y-70.65
X154.069Y-67.65
X154.069Y-70.65
X156.569Y-67.65
X156.569Y-70.65
X159.069Y-67.65
X159.069Y-70.65
T7
X68.569Y-61.5
X68.569Y-69.5
X70.569Y-65.5
X72.569Y-61.5
X72.569Y-69.5
X74.569Y-65.5
X76.569Y-61.5
X76.569Y-69.5
X78.569Y-65.5
X80.569Y-61.5
X80.569Y-69.5
X82.569Y-65.5
X84.569Y-61.5
X84.569Y-69.5
T8
X107.819Y-66.15
X131.319Y-66.15
X141.069Y-66.15
X164.569Y-66.15
T9
X62.069Y-65.0
X91.069Y-65.0
M30
