%TF.GenerationSoftware,KiCad,Pcbnew,10.0.5*%
%TF.CreationDate,2026-08-25T18:12:24+00:00*%
%TF.ProjectId,sensor-module,73656e73-6f72-42d6-9d6f-64756c652e6b,rev?*%
%TF.SameCoordinates,Original*%
%TF.FileFunction,Copper,L2,Bot*%
%TF.FilePolarity,Positive*%
%FSLAX46Y46*%
G04 Gerber Fmt 4.6, Leading zero omitted, Abs format (unit mm)*
G04 Created by KiCad (PCBNEW 10.0.5) date 2026-08-25 18:12:24*
%MOMM*%
%LPD*%
G01*
G04 APERTURE LIST*
G04 Aperture macros list*
%AMRoundRect*
0 Rectangle with rounded corners*
0 $1 Rounding radius*
0 $2 $3 $4 $5 $6 $7 $8 $9 X,Y pos of 4 corners*
0 Add a 4 corners polygon primitive as box body*
4,1,4,$2,$3,$4,$5,$6,$7,$8,$9,$2,$3,0*
0 Add four circle primitives for the rounded corners*
1,1,$1+$1,$2,$3*
1,1,$1+$1,$4,$5*
1,1,$1+$1,$6,$7*
1,1,$1+$1,$8,$9*
0 Add four rect primitives between the rounded corners*
20,1,$1+$1,$2,$3,$4,$5,0*
20,1,$1+$1,$4,$5,$6,$7,0*
20,1,$1+$1,$6,$7,$8,$9,0*
20,1,$1+$1,$8,$9,$2,$3,0*%
G04 Aperture macros list end*
%TA.AperFunction,ComponentPad*%
%ADD10R,1.700000X1.700000*%
%TD*%
%TA.AperFunction,ComponentPad*%
%ADD11C,1.700000*%
%TD*%
%TA.AperFunction,ComponentPad*%
%ADD12C,2.775000*%
%TD*%
%TA.AperFunction,ComponentPad*%
%ADD13C,1.650000*%
%TD*%
%TA.AperFunction,ComponentPad*%
%ADD14C,4.875000*%
%TD*%
%TA.AperFunction,SMDPad,CuDef*%
%ADD15RoundRect,0.250000X-0.475000X0.250000X-0.475000X-0.250000X0.475000X-0.250000X0.475000X0.250000X0*%
%TD*%
%TA.AperFunction,SMDPad,CuDef*%
%ADD16RoundRect,0.250000X0.250000X0.475000X-0.250000X0.475000X-0.250000X-0.475000X0.250000X-0.475000X0*%
%TD*%
%TA.AperFunction,SMDPad,CuDef*%
%ADD17R,1.150000X1.150000*%
%TD*%
%TA.AperFunction,SMDPad,CuDef*%
%ADD18RoundRect,0.250000X-0.450000X0.262500X-0.450000X-0.262500X0.450000X-0.262500X0.450000X0.262500X0*%
%TD*%
%TA.AperFunction,SMDPad,CuDef*%
%ADD19RoundRect,0.250000X-0.250000X-0.475000X0.250000X-0.475000X0.250000X0.475000X-0.250000X0.475000X0*%
%TD*%
%TA.AperFunction,ViaPad*%
%ADD20C,0.600000*%
%TD*%
%TA.AperFunction,ViaPad*%
%ADD21C,0.700000*%
%TD*%
%TA.AperFunction,ViaPad*%
%ADD22C,0.800000*%
%TD*%
%TA.AperFunction,ViaPad*%
%ADD23C,1.000000*%
%TD*%
%TA.AperFunction,Conductor*%
%ADD24C,0.200000*%
%TD*%
%TA.AperFunction,Conductor*%
%ADD25C,0.300000*%
%TD*%
%TA.AperFunction,Conductor*%
%ADD26C,0.400000*%
%TD*%
%TA.AperFunction,Conductor*%
%ADD27C,0.250000*%
%TD*%
%TA.AperFunction,Conductor*%
%ADD28C,1.000000*%
%TD*%
%TA.AperFunction,Conductor*%
%ADD29C,0.800000*%
%TD*%
%TA.AperFunction,Conductor*%
%ADD30C,0.500000*%
%TD*%
%TA.AperFunction,Conductor*%
%ADD31C,0.600000*%
%TD*%
G04 APERTURE END LIST*
D10*
%TO.P,J4,1,Pin_1_1*%
%TO.N,+3.3V*%
X149000000Y-111200000D03*
D11*
%TO.P,J4,2,Pin_2_2*%
%TO.N,GND*%
X146460000Y-111200000D03*
%TO.P,J4,3,Pin_3_3*%
%TO.N,MCU-NRST*%
X143920000Y-111200000D03*
%TO.P,J4,4,Pin_4_4*%
%TO.N,MCU-SWO*%
X141380000Y-111200000D03*
%TO.P,J4,5,Pin_5_5*%
%TO.N,MCU-SWCLK*%
X138840000Y-111200000D03*
%TO.P,J4,6,Pin_6_6*%
%TO.N,MCU-SWDIO*%
X136300000Y-111200000D03*
%TD*%
D12*
%TO.P,J3,1,1_1*%
%TO.N,Exhaust_Temp_1-*%
X84569200Y-69500000D03*
%TO.P,J3,2,2_2*%
%TO.N,Exhaust_Temp_2-*%
X80569200Y-69500000D03*
%TO.P,J3,3,3_3*%
%TO.N,Exhaust_Temp_3-*%
X76569200Y-69500000D03*
%TO.P,J3,4,4_4*%
%TO.N,Exhaust_Temp_4-*%
X72569200Y-69500000D03*
%TO.P,J3,5,5_5*%
%TO.N,GND*%
X68569200Y-69500000D03*
%TO.P,J3,6,6_6*%
%TO.N,Exhaust_Temp_1+*%
X82569200Y-65500000D03*
%TO.P,J3,7,7_7*%
%TO.N,Exhaust_Temp_2+*%
X78569200Y-65500000D03*
%TO.P,J3,8,8_8*%
%TO.N,Exhaust_Temp_3+*%
X74569200Y-65500000D03*
%TO.P,J3,9,9_9*%
%TO.N,Exhaust_Temp_4+*%
X70569200Y-65500000D03*
%TO.P,J3,10,10_10*%
%TO.N,/Connector_Sensor-Module/+5V-EXT3*%
X84569200Y-61500000D03*
%TO.P,J3,11,11_11*%
%TO.N,Exhaust_Pressure_Signal*%
X80569200Y-61500000D03*
%TO.P,J3,12,12_12*%
%TO.N,Intercooler-Fan-*%
X76569200Y-61500000D03*
%TO.P,J3,13,13_13*%
%TO.N,12V-SW*%
X72569200Y-61500000D03*
%TO.P,J3,14,14_14*%
%TO.N,unconnected-(J3-Pad14)*%
X68569200Y-61500000D03*
%TD*%
D13*
%TO.P,J2,1,1_1*%
%TO.N,/Connector_Sensor-Module/+5V-EXT1*%
X113319200Y-70650000D03*
%TO.P,J2,2,2_2*%
%TO.N,GND*%
X115819200Y-70650000D03*
%TO.P,J2,3,3_3*%
%TO.N,Fuel_Pressure_Signal*%
X118319200Y-70650000D03*
%TO.P,J2,4,4_4*%
%TO.N,Oil_Temp+*%
X120819200Y-70650000D03*
%TO.P,J2,5,5_5*%
%TO.N,GND*%
X123319200Y-70650000D03*
%TO.P,J2,6,6_6*%
%TO.N,LLK_Water_Temp1+*%
X125819200Y-70650000D03*
%TO.P,J2,7,7_7*%
%TO.N,GND*%
X113319200Y-67650000D03*
%TO.P,J2,8,8_8*%
%TO.N,/Connector_Sensor-Module/+5V-EXT2*%
X115819200Y-67650000D03*
%TO.P,J2,9,9_9*%
%TO.N,GND*%
X118319200Y-67650000D03*
%TO.P,J2,10,10_10*%
%TO.N,Oil_Pressure_Signal*%
X120819200Y-67650000D03*
%TO.P,J2,11,11_11*%
%TO.N,LLK_Water_Temp2+*%
X123319200Y-67650000D03*
%TO.P,J2,12,12_12*%
%TO.N,GND*%
X125819200Y-67650000D03*
D14*
%TO.P,J2,13,13_13*%
%TO.N,unconnected-(J2-Pad13)*%
X131319200Y-66150000D03*
%TO.P,J2,14,14_14*%
%TO.N,unconnected-(J2-Pad14)*%
X107819200Y-66150000D03*
%TD*%
D13*
%TO.P,J1,1,1_1*%
%TO.N,12V-SW*%
X146569200Y-70650000D03*
%TO.P,J1,2,2_2*%
%TO.N,GND*%
X149069200Y-70650000D03*
%TO.P,J1,3,3_3*%
%TO.N,CAN_H*%
X151569200Y-70650000D03*
%TO.P,J1,4,4_4*%
%TO.N,CAN_L*%
X154069200Y-70650000D03*
%TO.P,J1,5,5_5*%
%TO.N,unconnected-(J1-Pad5)*%
X156569200Y-70650000D03*
%TO.P,J1,6,6_6*%
%TO.N,unconnected-(J1-Pad6)*%
X159069200Y-70650000D03*
%TO.P,J1,7,7_7*%
%TO.N,unconnected-(J1-Pad7)*%
X146569200Y-67650000D03*
%TO.P,J1,8,8_8*%
%TO.N,Quickshift-Push+*%
X149069200Y-67650000D03*
%TO.P,J1,9,9_9*%
%TO.N,GND*%
X151569200Y-67650000D03*
%TO.P,J1,10,10_10*%
%TO.N,Quickshift-Pull+*%
X154069200Y-67650000D03*
%TO.P,J1,11,11_11*%
%TO.N,GND*%
X156569200Y-67650000D03*
%TO.P,J1,12,12_12*%
%TO.N,unconnected-(J1-Pad12)*%
X159069200Y-67650000D03*
D14*
%TO.P,J1,13,13_13*%
%TO.N,unconnected-(J1-Pad13)*%
X164569200Y-66150000D03*
%TO.P,J1,14,14_14*%
%TO.N,unconnected-(J1-Pad14)*%
X141069200Y-66150000D03*
%TD*%
D15*
%TO.P,C40,1*%
%TO.N,/VDDA_SM*%
X96091200Y-90612000D03*
%TO.P,C40,2*%
%TO.N,GND*%
X96091200Y-92512000D03*
%TD*%
D16*
%TO.P,C34,1*%
%TO.N,MCU-NRST*%
X99981200Y-95512000D03*
%TO.P,C34,2*%
%TO.N,GND*%
X98081200Y-95512000D03*
%TD*%
D17*
%TO.P,R12,1*%
%TO.N,Exhaust_Temp_2+*%
X78275700Y-78663000D03*
%TO.P,R12,2*%
%TO.N,/Exhaust Temp/TC2+*%
X78275700Y-81013000D03*
%TD*%
%TO.P,R4,1*%
%TO.N,Exhaust_Temp_3+*%
X71132800Y-78663000D03*
%TO.P,R4,2*%
%TO.N,/Exhaust Temp/TC3+*%
X71132800Y-81013000D03*
%TD*%
%TO.P,R13,1*%
%TO.N,Exhaust_Temp_4-*%
X67561400Y-78663000D03*
%TO.P,R13,2*%
%TO.N,/Exhaust Temp/TC4-*%
X67561400Y-81013000D03*
%TD*%
%TO.P,R3,1*%
%TO.N,Exhaust_Temp_3-*%
X74704200Y-78663000D03*
%TO.P,R3,2*%
%TO.N,/Exhaust Temp/TC3-*%
X74704200Y-81013000D03*
%TD*%
D16*
%TO.P,C37,1*%
%TO.N,+3.3V*%
X100081200Y-91012000D03*
%TO.P,C37,2*%
%TO.N,GND*%
X98181200Y-91012000D03*
%TD*%
D17*
%TO.P,R11,1*%
%TO.N,Exhaust_Temp_2-*%
X81847100Y-78663000D03*
%TO.P,R11,2*%
%TO.N,/Exhaust Temp/TC2-*%
X81847100Y-81013000D03*
%TD*%
D15*
%TO.P,C41,1*%
%TO.N,+3.3V*%
X92081200Y-90612000D03*
%TO.P,C41,2*%
%TO.N,GND*%
X92081200Y-92512000D03*
%TD*%
D18*
%TO.P,R45,1*%
%TO.N,GND*%
X96081200Y-96687000D03*
%TO.P,R45,2*%
%TO.N,Net-(IC5-PB8-BOOT0)*%
X96081200Y-98512000D03*
%TD*%
D17*
%TO.P,R1,1*%
%TO.N,Exhaust_Temp_1-*%
X88990000Y-78663000D03*
%TO.P,R1,2*%
%TO.N,/Exhaust Temp/TC1-*%
X88990000Y-81013000D03*
%TD*%
D16*
%TO.P,C53,1*%
%TO.N,+5V*%
X111569200Y-104000000D03*
%TO.P,C53,2*%
%TO.N,GND*%
X109669200Y-104000000D03*
%TD*%
%TO.P,C2,1*%
%TO.N,Exhaust_Temp_3-*%
X73940000Y-76013000D03*
%TO.P,C2,2*%
%TO.N,Exhaust_Temp_3+*%
X72040000Y-76013000D03*
%TD*%
D17*
%TO.P,R2,1*%
%TO.N,Exhaust_Temp_1+*%
X85418500Y-78663000D03*
%TO.P,R2,2*%
%TO.N,/Exhaust Temp/TC1+*%
X85418500Y-81013000D03*
%TD*%
D15*
%TO.P,C39,1*%
%TO.N,/VDDA_SM*%
X94081200Y-90612000D03*
%TO.P,C39,2*%
%TO.N,GND*%
X94081200Y-92512000D03*
%TD*%
D16*
%TO.P,C1,1*%
%TO.N,Exhaust_Temp_1-*%
X88390000Y-76013000D03*
%TO.P,C1,2*%
%TO.N,Exhaust_Temp_1+*%
X86490000Y-76013000D03*
%TD*%
%TO.P,C11,1*%
%TO.N,Exhaust_Temp_2-*%
X80990000Y-76013000D03*
%TO.P,C11,2*%
%TO.N,Exhaust_Temp_2+*%
X79090000Y-76013000D03*
%TD*%
%TO.P,C42,1*%
%TO.N,GND*%
X93481200Y-98512000D03*
%TO.P,C42,2*%
%TO.N,+3.3V*%
X91581200Y-98512000D03*
%TD*%
%TO.P,C12,1*%
%TO.N,Exhaust_Temp_4-*%
X66490000Y-76013000D03*
%TO.P,C12,2*%
%TO.N,Exhaust_Temp_4+*%
X64590000Y-76013000D03*
%TD*%
%TO.P,C36,1*%
%TO.N,+3.3V*%
X99866300Y-98503100D03*
%TO.P,C36,2*%
%TO.N,GND*%
X97966300Y-98503100D03*
%TD*%
D19*
%TO.P,C38,1*%
%TO.N,+3.3V*%
X100681200Y-100512000D03*
%TO.P,C38,2*%
%TO.N,GND*%
X102581200Y-100512000D03*
%TD*%
D17*
%TO.P,R14,1*%
%TO.N,Exhaust_Temp_4+*%
X63990000Y-78663000D03*
%TO.P,R14,2*%
%TO.N,/Exhaust Temp/TC4+*%
X63990000Y-81013000D03*
%TD*%
D20*
%TO.N,/Exhaust Temp/TC2+*%
X122317700Y-101459800D03*
X115794600Y-103565500D03*
X77159200Y-80282900D03*
X92059400Y-104947000D03*
X80399900Y-92923600D03*
%TO.N,GND*%
X146219000Y-77025000D03*
X106719000Y-107275000D03*
X92969243Y-96900000D03*
D21*
X104182200Y-91499200D03*
X55070700Y-94857800D03*
D20*
X68500000Y-72500000D03*
X114594000Y-102650000D03*
X122969000Y-100525000D03*
X71000000Y-68000000D03*
D21*
X55035100Y-89087500D03*
D20*
X142594000Y-80650000D03*
X108719000Y-98275000D03*
D21*
X132986500Y-89563700D03*
D20*
X76969200Y-81650000D03*
D22*
%TO.N,Net-(U4-SW)*%
X93883600Y-81985100D03*
X113719400Y-79114300D03*
X98141400Y-79575000D03*
X110143000Y-84914800D03*
%TO.N,+5V*%
X66094100Y-109886300D03*
X115122700Y-104123000D03*
X58580900Y-104529800D03*
X127230200Y-95248400D03*
X131785200Y-100527800D03*
X128945400Y-87857300D03*
X120905800Y-84264600D03*
X86089100Y-105640200D03*
X157475500Y-103766900D03*
X157264500Y-82722700D03*
X124634400Y-83000000D03*
D20*
%TO.N,ADC-Clamp-3*%
X129094243Y-77525000D03*
X125705300Y-80016800D03*
X113850100Y-89902700D03*
X125469243Y-76650000D03*
X117508800Y-91525600D03*
%TO.N,ADC-Clamp-1*%
X115751400Y-92198500D03*
X106108200Y-93685000D03*
X116429400Y-77058400D03*
X113696300Y-83263700D03*
%TO.N,ADC-Clamp-2*%
X105647600Y-93082400D03*
X116384800Y-91458700D03*
X120542300Y-77069700D03*
%TO.N,ADC-Clamp-4*%
X120335600Y-91530100D03*
X131639600Y-78683300D03*
X116603500Y-94418000D03*
X104909900Y-93905200D03*
%TO.N,ADC-Clamp-5*%
X103104000Y-78153600D03*
X102412800Y-86451400D03*
X120322500Y-89460900D03*
X115041500Y-83073800D03*
X105467200Y-82285200D03*
%TO.N,ADC-Clamp-6*%
X116805000Y-89821500D03*
X135817100Y-78500000D03*
X114634800Y-89110700D03*
%TO.N,ADC-Clamp-7*%
X108581000Y-92171300D03*
X119960000Y-94529500D03*
X144971000Y-74460400D03*
X115179600Y-94946400D03*
%TO.N,ADC-Clamp-8*%
X103052900Y-90208100D03*
X132240600Y-89096300D03*
X127627100Y-89096300D03*
X104985400Y-91292400D03*
X99062800Y-76357400D03*
X145519400Y-75500000D03*
%TO.N,+3.3V*%
X66219200Y-79650000D03*
X76844200Y-79400000D03*
X99594200Y-90650000D03*
X158969000Y-106775000D03*
X101219000Y-100650000D03*
X127969000Y-75900000D03*
X60719243Y-106150000D03*
X158844000Y-108775000D03*
X137469000Y-77525000D03*
X92094200Y-91275000D03*
X159969000Y-104025000D03*
X156469000Y-111650000D03*
X84969200Y-77275000D03*
X69844200Y-78650000D03*
X91969200Y-97775000D03*
X141719000Y-77775000D03*
X59469243Y-111275000D03*
X121594000Y-105775000D03*
X131344000Y-107025000D03*
D22*
%TO.N,/Connector_Sensor-Module/+5V-EXT2*%
X147495200Y-73078700D03*
X139688900Y-82694500D03*
D20*
%TO.N,MCU-NRST*%
X99248600Y-96532800D03*
X105477600Y-99901000D03*
X110703000Y-101386000D03*
%TO.N,MCU-SWO*%
X95581200Y-101826000D03*
%TO.N,MCU-SWCLK*%
X98388000Y-102599100D03*
%TO.N,MCU-SWDIO*%
X97423300Y-103341200D03*
D22*
%TO.N,/Connector_Sensor-Module/+5V-EXT3*%
X89064900Y-73195400D03*
X87654700Y-87636300D03*
D20*
%TO.N,CAN_H*%
X122356100Y-103133600D03*
X145831900Y-82705500D03*
%TO.N,/CANH_T*%
X145584700Y-109148200D03*
X120291800Y-108574400D03*
D22*
%TO.N,/12V-PROT*%
X100229800Y-93444100D03*
X141686100Y-89450000D03*
X100442300Y-78878000D03*
X116677800Y-103486300D03*
D23*
%TO.N,Intercooler-Fan-*%
X104727900Y-80600000D03*
X116146600Y-82485700D03*
X122279800Y-89897000D03*
D20*
%TO.N,Net-(U4-CB)*%
X114767400Y-79816100D03*
X115064100Y-75772400D03*
D22*
%TO.N,Net-(D9-A)*%
X73591300Y-100137500D03*
X90124700Y-108744200D03*
D23*
%TO.N,12V-SW*%
X106511200Y-86540700D03*
X63821100Y-94381800D03*
D20*
%TO.N,/Exhaust Temp/TC4-*%
X68588300Y-80423700D03*
X100472100Y-118834600D03*
%TO.N,/Exhaust Temp/TC1-*%
X88789100Y-106771600D03*
X56684900Y-115008800D03*
X88158500Y-86081100D03*
X70252500Y-89034300D03*
X90370200Y-77061800D03*
X54861900Y-96774400D03*
%TO.N,/Exhaust Temp/TC1+*%
X89374200Y-75977300D03*
X86524900Y-86577300D03*
X120863100Y-97328800D03*
X91889600Y-74319000D03*
%TO.N,SCK*%
X81014100Y-88649800D03*
X68103800Y-84715800D03*
X86028400Y-91923100D03*
X69855500Y-84514200D03*
X74289700Y-88423100D03*
%TO.N,PB6*%
X106812800Y-118265100D03*
X91381500Y-95221000D03*
X95014100Y-102467300D03*
%TO.N,MISO*%
X69151100Y-82485800D03*
X78727900Y-91900400D03*
X75553900Y-82485800D03*
%TO.N,/Exhaust Temp/TC2-*%
X84651200Y-72790700D03*
X116031900Y-105803100D03*
X125690600Y-107404900D03*
X85234700Y-85326300D03*
X81364200Y-92371900D03*
X53965500Y-113412500D03*
X92511700Y-105979100D03*
X54358100Y-90054400D03*
X67471000Y-92276600D03*
D22*
%TO.N,/Connector_Sensor-Module/+5V-EXT1*%
X133630300Y-80200200D03*
D20*
%TO.N,/Exhaust Temp/TC3+*%
X96072900Y-67771700D03*
X68617500Y-81715200D03*
X72172100Y-80276100D03*
X118333000Y-97782900D03*
%TO.N,/Exhaust Temp/TC3-*%
X72936300Y-80279400D03*
X127044400Y-84935000D03*
X53406000Y-112847900D03*
X110095100Y-71284100D03*
X69581900Y-81356400D03*
X59214700Y-88050000D03*
%TO.N,/TERM_MID*%
X157156500Y-106143600D03*
X158108600Y-94450000D03*
X159221200Y-83548300D03*
%TO.N,Exhaust_Pressure_Signal*%
X93324100Y-77764400D03*
%TO.N,Quickshift-Push+*%
X113970900Y-95319900D03*
%TO.N,/FB_SM*%
X111964600Y-75800600D03*
X154603100Y-75163100D03*
X157707400Y-81344400D03*
X114912700Y-66667800D03*
X154880600Y-114547300D03*
%TO.N,Oil_Pressure_Signal*%
X120733300Y-74596500D03*
%TO.N,MCU-OSC_IN*%
X109324100Y-97562000D03*
X103755600Y-96500000D03*
%TO.N,MCU-OSC_OUT*%
X105938800Y-94436800D03*
X107888600Y-94603600D03*
%TO.N,/5V-SENSE*%
X156159600Y-96605600D03*
X137465900Y-116489600D03*
X116935200Y-110840600D03*
X93480600Y-94298400D03*
D21*
%TO.N,/VDDA_SM*%
X105230300Y-98766100D03*
X99040800Y-91985200D03*
D20*
X94844243Y-90900000D03*
%TO.N,PB10*%
X76220300Y-83398000D03*
X80025100Y-89910300D03*
X132666400Y-115500000D03*
X93081200Y-93258000D03*
X75255800Y-89910300D03*
%TO.N,PB11*%
X76659200Y-90821000D03*
X76185200Y-84307000D03*
X71407100Y-90753800D03*
X55016900Y-117480300D03*
%TO.N,PB12*%
X65140800Y-82274300D03*
X77350500Y-91500000D03*
X74318400Y-91500000D03*
X146646400Y-118266100D03*
%TO.N,MCU-PA11*%
X88874300Y-96914300D03*
X94890700Y-105405000D03*
%TO.N,MCU-PA12*%
X100629400Y-102195900D03*
X91296600Y-97300500D03*
%TO.N,Net-(IC5-PB8-BOOT0)*%
X88838300Y-95258700D03*
X94925300Y-98601000D03*
X94016000Y-102818800D03*
%TO.N,CAN_L*%
X117325500Y-102230100D03*
X148968500Y-79972300D03*
%TO.N,Fuel_Pressure_Signal*%
X131504100Y-74603900D03*
%TO.N,Net-(Q1-G)*%
X125107800Y-99287600D03*
X123431000Y-99173100D03*
X125731200Y-101723900D03*
X105226800Y-83884900D03*
%TO.N,Net-(U3-STBY)*%
X112166400Y-101296800D03*
X121246700Y-99319500D03*
X116418800Y-97218600D03*
X115460500Y-102830600D03*
%TO.N,Oil_Temp+*%
X124027300Y-74335700D03*
%TO.N,LLK_Water_Temp1+*%
X125152000Y-71802400D03*
X125202100Y-74579000D03*
%TO.N,LLK_Water_Temp2+*%
X133532300Y-77173300D03*
%TO.N,/5V-DIV*%
X157775700Y-95683900D03*
X157763500Y-85819600D03*
%TO.N,/Exhaust Temp/TC4+*%
X60230500Y-77061800D03*
X89555900Y-106743000D03*
X125560000Y-108230900D03*
X115252300Y-106354800D03*
%TD*%
%TO.N,/Exhaust Temp/TC2+*%
D24*
X115794600Y-103565500D02*
X116012200Y-103347900D01*
X77215200Y-87438200D02*
X78799800Y-89022800D01*
X77090900Y-82875600D02*
X77090900Y-82989500D01*
X76389800Y-82130800D02*
X76739200Y-82480200D01*
X77123700Y-83590400D02*
X77215200Y-83681900D01*
X116012200Y-102752800D02*
X117305200Y-101459800D01*
X117305200Y-101459800D02*
X122317700Y-101459800D01*
X81594100Y-91806400D02*
X82460200Y-92672500D01*
X77159200Y-80282900D02*
X77159200Y-80645100D01*
X78799800Y-89022800D02*
X78799800Y-89520100D01*
X77120200Y-80684100D02*
X76389800Y-81414500D01*
X77159200Y-80645100D02*
X77120200Y-80684100D01*
X82460200Y-95347800D02*
X92059400Y-104947000D01*
X77090900Y-82989500D02*
X77123700Y-83022300D01*
X76739200Y-82523900D02*
X77090900Y-82875600D01*
X76389800Y-81414500D02*
X76389800Y-82130800D01*
X76739200Y-82480200D02*
X76739200Y-82523900D01*
X80319800Y-91040100D02*
X80319800Y-91726300D01*
X77449000Y-81013000D02*
X77120200Y-80684100D01*
X78799800Y-89520100D02*
X80319800Y-91040100D01*
X82460200Y-92672500D02*
X82460200Y-95347800D01*
X77215200Y-83681900D02*
X77215200Y-87438200D01*
X77123700Y-83022300D02*
X77123700Y-83590400D01*
X116012200Y-103347900D02*
X116012200Y-102752800D01*
X80399900Y-91806400D02*
X80399900Y-92923600D01*
X80319800Y-91726300D02*
X80399900Y-91806400D01*
X78275700Y-81013000D02*
X77449000Y-81013000D01*
X80399900Y-91806400D02*
X81594100Y-91806400D01*
%TO.N,GND*%
D25*
X109669000Y-104000000D02*
X109694000Y-104012500D01*
X92081200Y-92512000D02*
X92094200Y-92525000D01*
X109719000Y-104025000D02*
X109719000Y-100525000D01*
X92094200Y-92525000D02*
X94094200Y-92525000D01*
X152844000Y-71900000D02*
X152594000Y-72150000D01*
X101594000Y-98275000D02*
X101594000Y-99525000D01*
X102594000Y-100525000D02*
X108719000Y-100525000D01*
X146219000Y-77275000D02*
X146094000Y-77400000D01*
X102581100Y-100512100D02*
X102594000Y-100525000D01*
X98219200Y-91025000D02*
X96719200Y-92525000D01*
X142594000Y-80650000D02*
X142719000Y-80775000D01*
X94094200Y-97400000D02*
X94344200Y-97650000D01*
D26*
X108782400Y-86573900D02*
X104182200Y-91174100D01*
D25*
X109694000Y-104012500D02*
X109719000Y-104025000D01*
X156569200Y-67650000D02*
X156594000Y-67650000D01*
D27*
X93594243Y-96900000D02*
X94219243Y-97525000D01*
D25*
X96081200Y-96687000D02*
X96094200Y-96650000D01*
X149094000Y-70650000D02*
X150719000Y-72275000D01*
D26*
X133205600Y-90288400D02*
X133205600Y-89782800D01*
D25*
X149069200Y-70650000D02*
X149094000Y-70650000D01*
X98081200Y-95512000D02*
X98094200Y-95525000D01*
X106719000Y-107025000D02*
X109719000Y-104025000D01*
X98969200Y-97400000D02*
X100719000Y-97400000D01*
X87844200Y-92525000D02*
X92094200Y-92525000D01*
X152594000Y-72150000D02*
X151344000Y-72150000D01*
X94344200Y-97650000D02*
X96094200Y-97650000D01*
X102581100Y-100512100D02*
X102594000Y-100525000D01*
X151594000Y-68025000D02*
X152969000Y-69400000D01*
X133205600Y-90288400D02*
X122969000Y-100525000D01*
D26*
X109681700Y-104012500D02*
X109669200Y-104000000D01*
D25*
X146219000Y-77275000D02*
X146094000Y-77400000D01*
X96094200Y-96650000D02*
X96094200Y-97650000D01*
X115094000Y-100525000D02*
X122969000Y-100525000D01*
X100719000Y-97400000D02*
X101594000Y-98275000D01*
X94094200Y-92525000D02*
X94094200Y-97400000D01*
D26*
X108782400Y-71653800D02*
X108782400Y-86573900D01*
D25*
X97966300Y-98503100D02*
X97969200Y-98525000D01*
D26*
X96091200Y-92512000D02*
X96091200Y-92525000D01*
D25*
X146094000Y-77400000D02*
X142719000Y-80775000D01*
X97969200Y-98400000D02*
X98969200Y-97400000D01*
X94081200Y-92512000D02*
X94094200Y-92525000D01*
D27*
X92969243Y-96900000D02*
X93594243Y-96900000D01*
D25*
X142719000Y-80775000D02*
X133205600Y-90288400D01*
X98094200Y-96525000D02*
X98969200Y-97400000D01*
X93481200Y-98512000D02*
X93469200Y-98525000D01*
X146219000Y-77025000D02*
X146219000Y-77275000D01*
X106719000Y-107275000D02*
X106719000Y-107025000D01*
X97969200Y-98525000D02*
X97969200Y-98400000D01*
X108719000Y-100525000D02*
X109719000Y-100525000D01*
D26*
X113319200Y-67650000D02*
X112786200Y-67650000D01*
D25*
X76969200Y-81650000D02*
X87844200Y-92525000D01*
D26*
X109694000Y-104012500D02*
X109681700Y-104012500D01*
D25*
X96091200Y-92525000D02*
X94094200Y-92525000D01*
X151594000Y-67650000D02*
X151594000Y-68025000D01*
X150719000Y-72275000D02*
X151219000Y-72275000D01*
X114594000Y-101025000D02*
X115094000Y-100525000D01*
X152844000Y-69400000D02*
X152844000Y-71900000D01*
X96719200Y-92525000D02*
X96091200Y-92525000D01*
X156594000Y-67650000D02*
X154844000Y-69400000D01*
X151219000Y-72275000D02*
X146219000Y-77275000D01*
X93469200Y-98525000D02*
X94344200Y-97650000D01*
X108719000Y-98275000D02*
X108719000Y-100525000D01*
X114594000Y-102650000D02*
X114594000Y-101025000D01*
X98181200Y-91012000D02*
X98219200Y-91025000D01*
X154844000Y-69400000D02*
X152969000Y-69400000D01*
X109719000Y-100525000D02*
X115094000Y-100525000D01*
X152969000Y-69400000D02*
X152844000Y-69400000D01*
D26*
X104182200Y-91174100D02*
X104182200Y-91499200D01*
D25*
X92094200Y-92525000D02*
X92081200Y-92512000D01*
X101594000Y-99525000D02*
X102581000Y-100512000D01*
X151344000Y-72150000D02*
X151219000Y-72275000D01*
X97219200Y-97650000D02*
X97969200Y-98400000D01*
D26*
X112786200Y-67650000D02*
X108782400Y-71653800D01*
X133205600Y-89782800D02*
X132986500Y-89563700D01*
X55070700Y-94857800D02*
X55035100Y-94822200D01*
D25*
X98094200Y-95525000D02*
X98094200Y-96525000D01*
X96094200Y-97650000D02*
X97219200Y-97650000D01*
X151569200Y-67650000D02*
X151594000Y-67650000D01*
D26*
X55035100Y-94822200D02*
X55035100Y-89087500D01*
%TO.N,Net-(U4-SW)*%
D28*
X110143000Y-84914800D02*
X110143000Y-82690700D01*
D29*
X93883600Y-81985100D02*
X95731300Y-81985100D01*
D28*
X95731300Y-81985100D02*
X98141400Y-79575000D01*
X110143000Y-82690700D02*
X113719400Y-79114300D01*
%TO.N,+5V*%
D29*
X111569200Y-104000000D02*
X114999700Y-104000000D01*
D30*
X157055200Y-82932000D02*
X157055200Y-103346600D01*
D28*
X81843000Y-109886300D02*
X66094100Y-109886300D01*
D29*
X157264500Y-82722700D02*
X157055200Y-82932000D01*
D28*
X157475500Y-103766900D02*
X131785200Y-103766900D01*
X131065100Y-104487000D02*
X131785200Y-103766900D01*
X66094100Y-109886300D02*
X60737600Y-104529800D01*
D30*
X115486700Y-104487000D02*
X131065100Y-104487000D01*
D29*
X131785200Y-103766900D02*
X131785200Y-100527800D01*
X86089100Y-105640200D02*
X81843000Y-109886300D01*
X115122700Y-104123000D02*
X115486700Y-104487000D01*
D28*
X120905800Y-84264600D02*
X122170400Y-83000000D01*
D29*
X60737600Y-104529800D02*
X58580900Y-104529800D01*
D28*
X122170400Y-83000000D02*
X124634400Y-83000000D01*
D29*
X127230200Y-95248400D02*
X128945400Y-93533200D01*
X114999700Y-104000000D02*
X115122700Y-104123000D01*
X128945400Y-93533200D02*
X128945400Y-87857300D01*
D28*
X157055200Y-103346600D02*
X157475500Y-103766900D01*
%TO.N,ADC-Clamp-3*%
D24*
X114081900Y-88852300D02*
X114420600Y-88513600D01*
X114081900Y-89902700D02*
X113850100Y-89902700D01*
X125705300Y-87759200D02*
X125705300Y-80016800D01*
X114081900Y-89902700D02*
X114081900Y-88852300D01*
X129094243Y-77525000D02*
X126344243Y-77525000D01*
X117508800Y-91525600D02*
X115885900Y-89902700D01*
X122665700Y-90798800D02*
X125705300Y-87759200D01*
X120284100Y-90798800D02*
X122665700Y-90798800D01*
X115885900Y-89902700D02*
X114081900Y-89902700D01*
X114420600Y-88513600D02*
X117998900Y-88513600D01*
X117998900Y-88513600D02*
X120284100Y-90798800D01*
X126344243Y-77525000D02*
X125469243Y-76650000D01*
%TO.N,ADC-Clamp-1*%
X113696300Y-83263700D02*
X113696300Y-81667400D01*
X114800400Y-91247500D02*
X108160500Y-91247500D01*
X115751400Y-92198500D02*
X114800400Y-91247500D01*
X105095900Y-92854000D02*
X105214100Y-92735800D01*
X108160500Y-91247500D02*
X106358000Y-93050000D01*
X106358000Y-93050000D02*
X106358000Y-93435200D01*
X106358000Y-93435200D02*
X106108200Y-93685000D01*
X105095900Y-93310900D02*
X105095900Y-92854000D01*
X113696300Y-83361700D02*
X113696300Y-83263700D01*
X116429400Y-78934300D02*
X116429400Y-77058400D01*
X105214100Y-92735800D02*
X105214100Y-91843900D01*
X105214100Y-91843900D02*
X113696300Y-83361700D01*
X113696300Y-81667400D02*
X116429400Y-78934300D01*
X106108200Y-93685000D02*
X105470000Y-93685000D01*
X105470000Y-93685000D02*
X105095900Y-93310900D01*
%TO.N,ADC-Clamp-2*%
X113274700Y-90895800D02*
X107834200Y-90895800D01*
X116384800Y-91458700D02*
X115821900Y-90895800D01*
X113274700Y-90895800D02*
X113274700Y-84465500D01*
X114489800Y-82845400D02*
X120265500Y-77069700D01*
X115821900Y-90895800D02*
X113274700Y-90895800D01*
X114489800Y-83250400D02*
X114489800Y-82845400D01*
X120265500Y-77069700D02*
X120542300Y-77069700D01*
X113274700Y-84465500D02*
X114489800Y-83250400D01*
X107834200Y-90895800D02*
X105647600Y-93082400D01*
%TO.N,ADC-Clamp-4*%
X108093500Y-95216500D02*
X105938200Y-95216500D01*
X116603500Y-94418000D02*
X113784700Y-91599200D01*
X134285700Y-80541200D02*
X134285700Y-79881600D01*
X122441300Y-91530100D02*
X132746100Y-81225300D01*
X132746100Y-81225300D02*
X133601600Y-81225300D01*
X105938200Y-95216500D02*
X104909900Y-94188200D01*
X133601600Y-81225300D02*
X134285700Y-80541200D01*
X108440400Y-92810800D02*
X108440400Y-94869600D01*
X133087400Y-78683300D02*
X131639600Y-78683300D01*
X108440400Y-94869600D02*
X108093500Y-95216500D01*
X108016900Y-92387300D02*
X108440400Y-92810800D01*
X108016900Y-91888400D02*
X108016900Y-92387300D01*
X104909900Y-94188200D02*
X104909900Y-93905200D01*
X120335600Y-91530100D02*
X122441300Y-91530100D01*
X134285700Y-79881600D02*
X133087400Y-78683300D01*
X108306100Y-91599200D02*
X108016900Y-91888400D01*
X113784700Y-91599200D02*
X108306100Y-91599200D01*
%TO.N,ADC-Clamp-5*%
X103104000Y-80252800D02*
X105244700Y-82393500D01*
X102412800Y-86451400D02*
X102412800Y-85225400D01*
X103104000Y-78153600D02*
X103104000Y-80252800D01*
X105244700Y-82393500D02*
X105353000Y-82285200D01*
X105353000Y-82285200D02*
X105467200Y-82285200D01*
X120322500Y-89460900D02*
X115041500Y-84179900D01*
X102412800Y-85225400D02*
X105244700Y-82393500D01*
X115041500Y-84179900D02*
X115041500Y-83073800D01*
%TO.N,ADC-Clamp-6*%
X135817100Y-79512000D02*
X135817100Y-78500000D01*
X133575600Y-81753500D02*
X135817100Y-79512000D01*
X119065400Y-92081900D02*
X122386900Y-92081900D01*
X116094200Y-89110700D02*
X116805000Y-89821500D01*
X114634800Y-89110700D02*
X116094200Y-89110700D01*
X122386900Y-92081900D02*
X132715300Y-81753500D01*
X132715300Y-81753500D02*
X133575600Y-81753500D01*
X116805000Y-89821500D02*
X119065400Y-92081900D01*
%TO.N,ADC-Clamp-7*%
X120648100Y-94529500D02*
X119960000Y-94529500D01*
X112404500Y-92171300D02*
X115179600Y-94946400D01*
X108581000Y-92171300D02*
X112404500Y-92171300D01*
X119960000Y-94529500D02*
X119519700Y-94969800D01*
X115203000Y-94969800D02*
X115179600Y-94946400D01*
X144490400Y-74941000D02*
X144490400Y-75849900D01*
X144971000Y-74460400D02*
X144490400Y-74941000D01*
X144490400Y-75849900D02*
X138235100Y-82105200D01*
X138235100Y-82105200D02*
X133072400Y-82105200D01*
X133072400Y-82105200D02*
X120648100Y-94529500D01*
X119519700Y-94969800D02*
X115203000Y-94969800D01*
%TO.N,ADC-Clamp-8*%
X120799200Y-95924200D02*
X111259300Y-95924200D01*
X111086900Y-95751800D02*
X105976200Y-95751800D01*
X99062800Y-76357400D02*
X99414600Y-76357400D01*
X145519400Y-75817500D02*
X132240600Y-89096300D01*
X104785700Y-91492100D02*
X104985400Y-91292400D01*
X104339200Y-94114800D02*
X104339200Y-93095300D01*
X101509300Y-88664500D02*
X103052900Y-90208100D01*
X145519400Y-75500000D02*
X145519400Y-75817500D01*
X104339200Y-93095300D02*
X104785700Y-92648800D01*
X105976200Y-95751800D02*
X104339200Y-94114800D01*
X104785700Y-92648800D02*
X104785700Y-91492100D01*
X127627100Y-89096300D02*
X120799200Y-95924200D01*
X111259300Y-95924200D02*
X111086900Y-95751800D01*
X99414600Y-76357400D02*
X101509300Y-78452100D01*
X101509300Y-78452100D02*
X101509300Y-88664500D01*
%TO.N,+3.3V*%
D25*
X99844200Y-99650000D02*
X100719000Y-100525000D01*
X92969200Y-89775000D02*
X92094200Y-90650000D01*
X159969000Y-104025000D02*
X159969000Y-105775000D01*
X100681200Y-100512100D02*
X100719000Y-100525000D01*
X159969000Y-105775000D02*
X158969000Y-106775000D01*
X69719200Y-79650000D02*
X76719200Y-79650000D01*
X80844200Y-80650000D02*
X80344200Y-81150000D01*
X131219000Y-106900000D02*
X131219000Y-106775000D01*
X91581200Y-98512000D02*
X91594200Y-98525000D01*
D27*
X128094243Y-76025000D02*
X127969243Y-75900000D01*
D25*
X99844200Y-98525000D02*
X99844200Y-99650000D01*
D27*
X129844243Y-77275000D02*
X128594243Y-76025000D01*
D25*
X91969200Y-98150000D02*
X91594200Y-98525000D01*
X69844200Y-79525000D02*
X69719200Y-79650000D01*
D27*
X129844243Y-77775000D02*
X129844243Y-77275000D01*
D25*
X137594000Y-77775000D02*
X129844000Y-77775000D01*
X89969200Y-88525000D02*
X92094200Y-90650000D01*
X92594200Y-99650000D02*
X99844200Y-99650000D01*
X137594000Y-77650000D02*
X137594000Y-77775000D01*
X69844200Y-78650000D02*
X69844200Y-79525000D01*
X100081100Y-91012100D02*
X100094000Y-91025000D01*
D27*
X128594243Y-76025000D02*
X128094243Y-76025000D01*
D25*
X80844200Y-82025000D02*
X87344200Y-88525000D01*
X158844000Y-108775000D02*
X158844000Y-106775000D01*
X92081200Y-90612000D02*
X92094200Y-90650000D01*
X81219200Y-79650000D02*
X80844200Y-80025000D01*
X156469000Y-106900000D02*
X156344000Y-106775000D01*
X156344000Y-106775000D02*
X131219000Y-106775000D01*
X91594200Y-98650000D02*
X92594200Y-99650000D01*
X141719000Y-77775000D02*
X137594000Y-77775000D01*
D27*
X60719243Y-110025000D02*
X59469243Y-111275000D01*
D25*
X84969200Y-77275000D02*
X84844200Y-77275000D01*
X137469000Y-77525000D02*
X137594000Y-77650000D01*
X82844200Y-79650000D02*
X81219200Y-79650000D01*
X158969000Y-106775000D02*
X158844000Y-106775000D01*
X100094000Y-90900000D02*
X99719100Y-90525100D01*
X100719000Y-100525000D02*
X101094000Y-100525000D01*
X131344000Y-107025000D02*
X131219000Y-106900000D01*
X76844200Y-79400000D02*
X76719200Y-79525000D01*
X156469000Y-111650000D02*
X156469000Y-106900000D01*
X80844200Y-81650000D02*
X80844200Y-82025000D01*
X92094200Y-90650000D02*
X92094200Y-91275000D01*
X84844200Y-77275000D02*
X82844200Y-79275000D01*
X122594000Y-106775000D02*
X121594000Y-105775000D01*
X99866300Y-98503100D02*
X99844200Y-98525000D01*
X99719100Y-90525100D02*
X98969200Y-89775000D01*
X91969200Y-97775000D02*
X91969200Y-98150000D01*
X99594200Y-90650000D02*
X99719100Y-90525100D01*
D27*
X60719243Y-106150000D02*
X60719243Y-110025000D01*
D25*
X100094000Y-91025000D02*
X100094000Y-90900000D01*
X98969200Y-89775000D02*
X92969200Y-89775000D01*
X131219000Y-106775000D02*
X122594000Y-106775000D01*
X82844200Y-79275000D02*
X82844200Y-79650000D01*
X80844200Y-80025000D02*
X80844200Y-80650000D01*
X87344200Y-88525000D02*
X89969200Y-88525000D01*
X158844000Y-106775000D02*
X156344000Y-106775000D01*
X80344200Y-81150000D02*
X80844200Y-81650000D01*
X78844200Y-79650000D02*
X80344200Y-81150000D01*
X101094000Y-100525000D02*
X101219000Y-100650000D01*
X76719200Y-79650000D02*
X78844200Y-79650000D01*
X66219200Y-79650000D02*
X69719200Y-79650000D01*
X91594200Y-98525000D02*
X91594200Y-98650000D01*
X76719200Y-79525000D02*
X76719200Y-79650000D01*
%TO.N,/Connector_Sensor-Module/+5V-EXT2*%
D29*
X147495200Y-74653700D02*
X147495200Y-73078700D01*
D31*
X139688900Y-82460000D02*
X147495200Y-74653700D01*
X139688900Y-82694500D02*
X139688900Y-82460000D01*
%TO.N,MCU-NRST*%
D24*
X99981200Y-95936100D02*
X99981200Y-95512000D01*
X115279200Y-109149300D02*
X141869300Y-109149300D01*
X110703000Y-101386000D02*
X110703000Y-104573100D01*
X99981200Y-95936100D02*
X101512700Y-95936100D01*
X101512700Y-95936100D02*
X105477600Y-99901000D01*
X110703000Y-104573100D02*
X115279200Y-109149300D01*
X99845300Y-95936100D02*
X99981200Y-95936100D01*
X141869300Y-109149300D02*
X143920000Y-111200000D01*
X99248600Y-96532800D02*
X99845300Y-95936100D01*
%TO.N,MCU-SWO*%
X95581200Y-101826000D02*
X95581200Y-102302800D01*
X95581200Y-102302800D02*
X105581300Y-112302900D01*
X105581300Y-112302900D02*
X140277100Y-112302900D01*
X140277100Y-112302900D02*
X141380000Y-111200000D01*
%TO.N,MCU-SWCLK*%
X105874100Y-110085200D02*
X98388000Y-102599100D01*
X137725200Y-110085200D02*
X105874100Y-110085200D01*
X138840000Y-111200000D02*
X137725200Y-110085200D01*
%TO.N,MCU-SWDIO*%
X136107700Y-111392300D02*
X105474400Y-111392300D01*
X136300000Y-111200000D02*
X136107700Y-111392300D01*
X105474400Y-111392300D02*
X97423300Y-103341200D01*
%TO.N,/Connector_Sensor-Module/+5V-EXT3*%
D30*
X93081900Y-81653100D02*
X93081900Y-82209100D01*
D29*
X89064900Y-65995700D02*
X89064900Y-73195400D01*
D30*
X93081900Y-82209100D02*
X87654700Y-87636300D01*
X94033000Y-80702000D02*
X93081900Y-81653100D01*
D28*
X84569200Y-61500000D02*
X89064900Y-65995700D01*
D29*
X89064900Y-73195400D02*
X89747800Y-73195400D01*
D30*
X89747800Y-73195400D02*
X94033000Y-77480600D01*
X94033000Y-77480600D02*
X94033000Y-80702000D01*
%TO.N,CAN_H*%
D24*
X151079500Y-66571300D02*
X150477900Y-67172900D01*
X125599000Y-103133600D02*
X145831900Y-82900700D01*
X157722000Y-68029600D02*
X157722000Y-67242900D01*
X150477900Y-67172900D02*
X150477900Y-69558700D01*
X145831900Y-82705500D02*
X147087300Y-82705500D01*
X156212600Y-69449800D02*
X156301800Y-69449800D01*
X145831900Y-82900700D02*
X145831900Y-82705500D01*
X150477900Y-69558700D02*
X151569200Y-70650000D01*
X153501400Y-75439500D02*
X155279600Y-73661300D01*
X122356100Y-103133600D02*
X125599000Y-103133600D01*
X147087300Y-82705500D02*
X153501400Y-76291400D01*
X153501400Y-76291400D02*
X153501400Y-75439500D01*
X157050400Y-66571300D02*
X151079500Y-66571300D01*
X155279600Y-70382800D02*
X156212600Y-69449800D01*
X155279600Y-73661300D02*
X155279600Y-70382800D01*
X157722000Y-67242900D02*
X157050400Y-66571300D01*
X156301800Y-69449800D02*
X157722000Y-68029600D01*
%TO.N,/CANH_T*%
X145234100Y-108797600D02*
X145584700Y-109148200D01*
X120515000Y-108797600D02*
X145234100Y-108797600D01*
X120291800Y-108574400D02*
X120515000Y-108797600D01*
%TO.N,/12V-PROT*%
D30*
X127300800Y-103835300D02*
X141686100Y-89450000D01*
X116677800Y-103486300D02*
X117026800Y-103835300D01*
X117026800Y-103835300D02*
X127300800Y-103835300D01*
X100983900Y-92690000D02*
X100983900Y-90233000D01*
X100983900Y-90233000D02*
X100442300Y-89691400D01*
D29*
X100229800Y-93444100D02*
X100983900Y-92690000D01*
X100442300Y-89691400D02*
X100442300Y-78878000D01*
%TO.N,Intercooler-Fan-*%
D28*
X122279800Y-88618900D02*
X116146600Y-82485700D01*
X104727900Y-75010000D02*
X104727900Y-80600000D01*
X122279800Y-89897000D02*
X122279800Y-88618900D01*
D29*
X78668100Y-59401100D02*
X89119000Y-59401100D01*
X89119000Y-59401100D02*
X104727900Y-75010000D01*
D28*
X76569200Y-61500000D02*
X78668100Y-59401100D01*
%TO.N,Net-(U4-CB)*%
D24*
X115064100Y-79519400D02*
X114767400Y-79816100D01*
X115064100Y-75772400D02*
X115064100Y-79519400D01*
%TO.N,Net-(D9-A)*%
D30*
X81720200Y-100137500D02*
X87790000Y-106207300D01*
X87790000Y-106764800D02*
X89769400Y-108744200D01*
D28*
X89769400Y-108744200D02*
X90124700Y-108744200D01*
D30*
X87790000Y-106207300D02*
X87790000Y-106764800D01*
X73591300Y-100137500D02*
X81720200Y-100137500D01*
%TO.N,12V-SW*%
D28*
X75769800Y-58299400D02*
X72569200Y-61500000D01*
X146569200Y-70650000D02*
X131029500Y-70650000D01*
X106511200Y-72210400D02*
X92600200Y-58299400D01*
D31*
X92600200Y-58299400D02*
X75769800Y-58299400D01*
D29*
X62670400Y-70444200D02*
X71614600Y-61500000D01*
X131029500Y-70650000D02*
X126045600Y-65666100D01*
X106511200Y-86540700D02*
X106511200Y-72210400D01*
X62670400Y-93231100D02*
X62670400Y-70444200D01*
D28*
X71614600Y-61500000D02*
X72569200Y-61500000D01*
X63821100Y-94381800D02*
X62670400Y-93231100D01*
D29*
X126045600Y-65666100D02*
X113055500Y-65666100D01*
X113055500Y-65666100D02*
X106511200Y-72210400D01*
%TO.N,/Exhaust Temp/TC4-*%
D24*
X68388100Y-80623900D02*
X68588300Y-80423700D01*
X69071600Y-86536300D02*
X67501900Y-84966600D01*
X70134900Y-86536300D02*
X69071600Y-86536300D01*
X67501900Y-81899200D02*
X67561400Y-81839700D01*
X100472100Y-118834600D02*
X100472100Y-116873500D01*
X67561400Y-81013000D02*
X67561400Y-81839700D01*
X68388100Y-81013000D02*
X68388100Y-80623900D01*
X67501900Y-84966600D02*
X67501900Y-81899200D01*
X100472100Y-116873500D02*
X70134900Y-86536300D01*
X67561400Y-81013000D02*
X68388100Y-81013000D01*
%TO.N,/Exhaust Temp/TC1-*%
X71726200Y-90185500D02*
X74682800Y-93142100D01*
X88990000Y-81013000D02*
X88990000Y-80186300D01*
X88990000Y-85249600D02*
X88158500Y-86081100D01*
X90370200Y-79322800D02*
X90370200Y-77061800D01*
X70252500Y-90276300D02*
X70252500Y-90185500D01*
X54861900Y-113185800D02*
X54861900Y-96774400D01*
X88990000Y-80186300D02*
X89506700Y-80186300D01*
X56684900Y-115008800D02*
X54861900Y-113185800D01*
X74682800Y-93142100D02*
X75474500Y-93142100D01*
X88990000Y-81013000D02*
X88990000Y-85249600D01*
X70252500Y-90185500D02*
X71726200Y-90185500D01*
X75474500Y-93142100D02*
X88789100Y-106456700D01*
X89506700Y-80186300D02*
X90370200Y-79322800D01*
X70252500Y-90185500D02*
X70252500Y-89034300D01*
X54861900Y-96774400D02*
X63754400Y-96774400D01*
X88789100Y-106456700D02*
X88789100Y-106771600D01*
X63754400Y-96774400D02*
X70252500Y-90276300D01*
%TO.N,/Exhaust Temp/TC1+*%
X86469400Y-81995900D02*
X86469400Y-86521800D01*
X89374200Y-75977300D02*
X89818200Y-76421300D01*
X95342100Y-77771500D02*
X100317800Y-77771500D01*
X85574700Y-81995900D02*
X85418500Y-81839700D01*
X110650100Y-96806900D02*
X112178000Y-98334800D01*
X101157600Y-78611300D02*
X101157600Y-89092900D01*
X91889600Y-74319000D02*
X95342100Y-77771500D01*
X86469400Y-81995900D02*
X85574700Y-81995900D01*
X100317800Y-77771500D02*
X101157600Y-78611300D01*
X89818200Y-76421300D02*
X89818200Y-79358100D01*
X89586800Y-79589500D02*
X88875800Y-79589500D01*
X119857100Y-98334800D02*
X120863100Y-97328800D01*
X102829300Y-90764600D02*
X102829300Y-94096800D01*
X89818200Y-79358100D02*
X89586800Y-79589500D01*
X112178000Y-98334800D02*
X119857100Y-98334800D01*
X101157600Y-89092900D02*
X102829300Y-90764600D01*
X105539400Y-96806900D02*
X110650100Y-96806900D01*
X102829300Y-94096800D02*
X105539400Y-96806900D01*
X85418500Y-81013000D02*
X85418500Y-81839700D01*
X88875800Y-79589500D02*
X86469400Y-81995900D01*
X86469400Y-86521800D02*
X86524900Y-86577300D01*
%TO.N,SCK*%
X81014100Y-88649800D02*
X84287400Y-91923100D01*
X74289700Y-88423100D02*
X70380800Y-84514200D01*
X84287400Y-91923100D02*
X86028400Y-91923100D01*
X69653900Y-84715800D02*
X69855500Y-84514200D01*
X70380800Y-84514200D02*
X69855500Y-84514200D01*
X68103800Y-84715800D02*
X69653900Y-84715800D01*
%TO.N,PB6*%
X106812800Y-114266000D02*
X106812800Y-118265100D01*
X90091200Y-99466500D02*
X90091200Y-96511300D01*
X95014100Y-102467300D02*
X106812800Y-114266000D01*
X94709000Y-102162200D02*
X92786900Y-102162200D01*
X90091200Y-96511300D02*
X91381500Y-95221000D01*
X95014100Y-102467300D02*
X94709000Y-102162200D01*
X92786900Y-102162200D02*
X90091200Y-99466500D01*
%TO.N,MISO*%
X76089900Y-82485800D02*
X75553900Y-82485800D01*
X76772000Y-83167900D02*
X76089900Y-82485800D01*
X76772000Y-89944500D02*
X76772000Y-83167900D01*
X69151100Y-82485800D02*
X75553900Y-82485800D01*
X78727900Y-91900400D02*
X76772000Y-89944500D01*
%TO.N,/Exhaust Temp/TC2-*%
X125690600Y-107404900D02*
X125675700Y-107390000D01*
X117618800Y-107390000D02*
X116031900Y-105803100D01*
X84591800Y-81013000D02*
X81847100Y-81013000D01*
X85234700Y-85326300D02*
X84591800Y-84683400D01*
X54358100Y-90054400D02*
X54358100Y-95502400D01*
X85741400Y-79862200D02*
X87286700Y-78316900D01*
X67471000Y-92556300D02*
X67471000Y-92276600D01*
X84591800Y-80293200D02*
X85022800Y-79862200D01*
X81364200Y-92371900D02*
X81364200Y-95031900D01*
X84591800Y-84683400D02*
X84591800Y-81013000D01*
X85022800Y-79862200D02*
X85741400Y-79862200D01*
X54358100Y-95502400D02*
X54556200Y-95700500D01*
X92311400Y-105979100D02*
X92511700Y-105979100D01*
X53965500Y-113412500D02*
X53965500Y-96291200D01*
X54556200Y-95700500D02*
X64326800Y-95700500D01*
X53965500Y-96291200D02*
X54556200Y-95700500D01*
X64326800Y-95700500D02*
X67471000Y-92556300D01*
X87286700Y-78316900D02*
X87286700Y-75371400D01*
X84706000Y-72790700D02*
X84651200Y-72790700D01*
X87286700Y-75371400D02*
X84706000Y-72790700D01*
X125675700Y-107390000D02*
X117618800Y-107390000D01*
X81364200Y-95031900D02*
X92311400Y-105979100D01*
X84591800Y-81013000D02*
X84591800Y-80293200D01*
%TO.N,/Connector_Sensor-Module/+5V-EXT1*%
D30*
X118184200Y-75515000D02*
X123129600Y-75515000D01*
X113319200Y-70650000D02*
X118184200Y-75515000D01*
D29*
X123094243Y-75525000D02*
X127719243Y-80150000D01*
D28*
X127719243Y-80150000D02*
X127844243Y-80150000D01*
D29*
X127814800Y-80200200D02*
X133630300Y-80200200D01*
%TO.N,/Exhaust Temp/TC3+*%
D24*
X71959500Y-80488700D02*
X72172100Y-80276100D01*
X96072900Y-67771700D02*
X101861000Y-73559800D01*
X69311400Y-80786000D02*
X68617500Y-81479900D01*
X101861000Y-86969500D02*
X103604700Y-88713200D01*
X70306100Y-81013000D02*
X70079100Y-80786000D01*
X105685000Y-96455200D02*
X110795700Y-96455200D01*
X103604700Y-88713200D02*
X103604700Y-90592500D01*
X68617500Y-81479900D02*
X68617500Y-81715200D01*
X71959500Y-81013000D02*
X71959500Y-80488700D01*
X110795700Y-96455200D02*
X112123400Y-97782900D01*
X71132800Y-81013000D02*
X70306100Y-81013000D01*
X71959500Y-81013000D02*
X71132800Y-81013000D01*
X103181000Y-91016200D02*
X103181000Y-93951200D01*
X103604700Y-90592500D02*
X103181000Y-91016200D01*
X112123400Y-97782900D02*
X118333000Y-97782900D01*
X101861000Y-73559800D02*
X101861000Y-86969500D01*
X70079100Y-80786000D02*
X69311400Y-80786000D01*
X103181000Y-93951200D02*
X105685000Y-96455200D01*
%TO.N,/Exhaust Temp/TC3-*%
X127044400Y-80544300D02*
X122516800Y-76016700D01*
X127044400Y-84935000D02*
X127044400Y-80544300D01*
X70116100Y-81890600D02*
X69581900Y-81356400D01*
X115688200Y-75217600D02*
X113344100Y-75217600D01*
X116487300Y-76016700D02*
X115688200Y-75217600D01*
X72936300Y-80279400D02*
X73165600Y-80508600D01*
X112156500Y-76405200D02*
X111787500Y-76405200D01*
X122516800Y-76016700D02*
X116487300Y-76016700D01*
X53406000Y-89816300D02*
X53406000Y-112847900D01*
X73669900Y-81013000D02*
X74704200Y-81013000D01*
X59214700Y-88050000D02*
X55172300Y-88050000D01*
X71783600Y-81890600D02*
X70116100Y-81890600D01*
X110095100Y-74712800D02*
X110095100Y-71284100D01*
X73165600Y-80508600D02*
X73669900Y-81013000D01*
X73165600Y-80508600D02*
X71783600Y-81890600D01*
X55172300Y-88050000D02*
X53406000Y-89816300D01*
X113344100Y-75217600D02*
X112156500Y-76405200D01*
X111787500Y-76405200D02*
X110095100Y-74712800D01*
%TO.N,/TERM_MID*%
X157156500Y-106143600D02*
X158359300Y-104940800D01*
X158359300Y-104940800D02*
X158359300Y-94700700D01*
X158359300Y-94700700D02*
X158108600Y-94450000D01*
X159221200Y-83548300D02*
X159221200Y-93337400D01*
X159221200Y-93337400D02*
X158108600Y-94450000D01*
%TO.N,Exhaust_Temp_1-*%
X88390000Y-77236300D02*
X88390000Y-76013000D01*
X88990000Y-78663000D02*
X88990000Y-77836300D01*
X88390000Y-73939700D02*
X84569200Y-70118900D01*
X88390000Y-76013000D02*
X88390000Y-73939700D01*
X88990000Y-77836300D02*
X88390000Y-77236300D01*
X84569200Y-70118900D02*
X84569200Y-69500000D01*
%TO.N,Exhaust_Temp_2-*%
X81847100Y-78663000D02*
X81847100Y-77836300D01*
X80990000Y-76013000D02*
X80990000Y-69920800D01*
X80990000Y-76979200D02*
X80990000Y-76013000D01*
X81847100Y-77836300D02*
X80990000Y-76979200D01*
X80990000Y-69920800D02*
X80569200Y-69500000D01*
%TO.N,Exhaust_Temp_3-*%
X73940000Y-77072100D02*
X73940000Y-76013000D01*
X74704200Y-78663000D02*
X74704200Y-77836300D01*
X76569200Y-73383800D02*
X76569200Y-69500000D01*
X73940000Y-76013000D02*
X76569200Y-73383800D01*
X74704200Y-77836300D02*
X73940000Y-77072100D01*
%TO.N,Exhaust_Temp_4-*%
X67561400Y-78663000D02*
X67561400Y-77836300D01*
X66490000Y-76013000D02*
X72569200Y-69933800D01*
X66490000Y-76764900D02*
X66490000Y-76013000D01*
X67561400Y-77836300D02*
X66490000Y-76764900D01*
X72569200Y-69933800D02*
X72569200Y-69500000D01*
%TO.N,Exhaust_Temp_1+*%
X82569200Y-72092200D02*
X86490000Y-76013000D01*
X85418500Y-77836300D02*
X86490000Y-76764800D01*
X82569200Y-65500000D02*
X82569200Y-72092200D01*
X85418500Y-78663000D02*
X85418500Y-77836300D01*
X86490000Y-76764800D02*
X86490000Y-76013000D01*
%TO.N,Exhaust_Temp_2+*%
X79090000Y-76013000D02*
X78569200Y-75492200D01*
X78569200Y-75492200D02*
X78569200Y-65500000D01*
X79090000Y-77022000D02*
X79090000Y-76013000D01*
X78275700Y-78663000D02*
X78275700Y-77836300D01*
X78275700Y-77836300D02*
X79090000Y-77022000D01*
%TO.N,Exhaust_Temp_3+*%
X72040000Y-76013000D02*
X74569200Y-73483800D01*
X71132800Y-78663000D02*
X71132800Y-76920200D01*
X71132800Y-76920200D02*
X72040000Y-76013000D01*
X74569200Y-73483800D02*
X74569200Y-65500000D01*
%TO.N,Exhaust_Temp_4+*%
X70172100Y-65500000D02*
X70569200Y-65500000D01*
X64590000Y-71082100D02*
X70172100Y-65500000D01*
X63990000Y-78663000D02*
X63990000Y-76613000D01*
X63990000Y-76613000D02*
X64590000Y-76013000D01*
X64590000Y-76013000D02*
X64590000Y-71082100D01*
%TO.N,Exhaust_Pressure_Signal*%
X80913600Y-61500000D02*
X80569200Y-61500000D01*
X88390000Y-73442300D02*
X88390000Y-68976400D01*
X88390000Y-68976400D02*
X80913600Y-61500000D01*
X93324100Y-77764300D02*
X92712000Y-77764300D01*
X92712000Y-77764300D02*
X88390000Y-73442300D01*
%TO.N,Quickshift-Push+*%
X128558600Y-87116500D02*
X120176900Y-95498200D01*
X147925300Y-71727100D02*
X146843500Y-72808900D01*
X146843500Y-73371700D02*
X144963500Y-75251700D01*
X149069200Y-67650000D02*
X147925300Y-68793900D01*
X120176900Y-95498200D02*
X114149200Y-95498200D01*
X144963500Y-75251700D02*
X144963500Y-75876100D01*
X144963500Y-75876100D02*
X133723100Y-87116500D01*
X133723100Y-87116500D02*
X128558600Y-87116500D01*
X147925300Y-68793900D02*
X147925300Y-71727100D01*
X114149200Y-95498200D02*
X113970900Y-95319900D01*
X146843500Y-72808900D02*
X146843500Y-73371700D01*
%TO.N,/FB_SM*%
X154880600Y-114547300D02*
X160884900Y-108543000D01*
X157707400Y-78267400D02*
X154603100Y-75163100D01*
X111964600Y-70478100D02*
X111964600Y-75800600D01*
X114742500Y-66838000D02*
X114742500Y-67815400D01*
X157707400Y-81344400D02*
X157707400Y-78267400D01*
X114912700Y-66667800D02*
X114742500Y-66838000D01*
X160884900Y-83934500D02*
X158294900Y-81344500D01*
X158294900Y-81344500D02*
X157707400Y-81344500D01*
X160884900Y-108543000D02*
X160884900Y-83934500D01*
X113006600Y-69551300D02*
X112891400Y-69551300D01*
X112891400Y-69551300D02*
X111964600Y-70478100D01*
X114742500Y-67815400D02*
X113006600Y-69551300D01*
%TO.N,Oil_Pressure_Signal*%
X119725500Y-73588700D02*
X120733300Y-74596500D01*
X120819200Y-67650000D02*
X119725500Y-68743700D01*
X119725500Y-68743700D02*
X119725500Y-73588700D01*
%TO.N,MCU-OSC_IN*%
X103755600Y-96500000D02*
X104817600Y-97562000D01*
X104817600Y-97562000D02*
X109324100Y-97562000D01*
%TO.N,MCU-OSC_OUT*%
X107888600Y-94603600D02*
X106105600Y-94603600D01*
X106105600Y-94603600D02*
X105938800Y-94436800D01*
%TO.N,/5V-SENSE*%
X156998000Y-82057800D02*
X158510900Y-82057800D01*
X90442900Y-99320900D02*
X90442900Y-97336100D01*
X158510900Y-82057800D02*
X160533200Y-84080100D01*
X156477900Y-112437000D02*
X141518500Y-112437000D01*
X160533200Y-108381700D02*
X156477900Y-112437000D01*
X141518500Y-112437000D02*
X137465900Y-116489600D01*
X90442900Y-97336100D02*
X93480600Y-94298400D01*
X156159600Y-82896200D02*
X156998000Y-82057800D01*
X91876700Y-100754700D02*
X90442900Y-99320900D01*
X95723300Y-100754700D02*
X91876700Y-100754700D01*
X156159600Y-96605600D02*
X156159600Y-82896200D01*
X160533200Y-84080100D02*
X160533200Y-108381700D01*
X105809200Y-110840600D02*
X95723300Y-100754700D01*
X116935200Y-110840600D02*
X105809200Y-110840600D01*
%TO.N,/VDDA_SM*%
D26*
X99040800Y-93323500D02*
X99913100Y-94195800D01*
X99913100Y-94195800D02*
X100471200Y-94195800D01*
X99040800Y-91985200D02*
X99040800Y-93323500D01*
X100471200Y-94195800D02*
X105041500Y-98766100D01*
X105041500Y-98766100D02*
X105230300Y-98766100D01*
D27*
X94844243Y-90650000D02*
X94844243Y-90900000D01*
D26*
X94081200Y-90612000D02*
X96091200Y-90612000D01*
%TO.N,PB10*%
D24*
X92611100Y-104919000D02*
X106533100Y-118841000D01*
X91707200Y-94632000D02*
X88285500Y-94632000D01*
X106533100Y-118841000D02*
X129325400Y-118841000D01*
X80231300Y-89910300D02*
X80025100Y-89910300D01*
X92611100Y-103871300D02*
X92611100Y-104919000D01*
X88285500Y-94632000D02*
X88285500Y-99545700D01*
X88285500Y-94632000D02*
X84953000Y-94632000D01*
X88285500Y-99545700D02*
X92611100Y-103871300D01*
X75255800Y-89910300D02*
X75255800Y-84362500D01*
X93081200Y-93258000D02*
X91707200Y-94632000D01*
X75255800Y-84362500D02*
X76220300Y-83398000D01*
X129325400Y-118841000D02*
X132666400Y-115500000D01*
X84953000Y-94632000D02*
X80231300Y-89910300D01*
%TO.N,PB11*%
X76185200Y-90347000D02*
X76659200Y-90821000D01*
X55016900Y-117480300D02*
X57646300Y-114850900D01*
X76185200Y-84307000D02*
X76185200Y-90347000D01*
X57646300Y-114850900D02*
X57646300Y-104514600D01*
X57646300Y-104514600D02*
X71407100Y-90753800D01*
%TO.N,PB12*%
X70167300Y-88129300D02*
X70947700Y-88129300D01*
X77350500Y-91500000D02*
X77350500Y-91619800D01*
X77350500Y-91619800D02*
X104950900Y-119220200D01*
X145692300Y-119220200D02*
X146646400Y-118266100D01*
X104950900Y-119220200D02*
X145692300Y-119220200D01*
X70947700Y-88129300D02*
X74318400Y-91500000D01*
X65140800Y-83102800D02*
X70167300Y-88129300D01*
X65140800Y-82274300D02*
X65140800Y-83102800D01*
%TO.N,MCU-PA11*%
X88874300Y-99388600D02*
X94890700Y-105405000D01*
X88874300Y-96914300D02*
X88874300Y-99388600D01*
%TO.N,MCU-PA12*%
X90828500Y-97768600D02*
X91296600Y-97300500D01*
X90828500Y-99209200D02*
X90828500Y-97768600D01*
X98564800Y-100131300D02*
X91750600Y-100131300D01*
X100629400Y-102195900D02*
X98564800Y-100131300D01*
X91750600Y-100131300D02*
X90828500Y-99209200D01*
%TO.N,Net-(IC5-PB8-BOOT0)*%
X96081200Y-98512000D02*
X95992300Y-98600900D01*
X89460100Y-99354400D02*
X89460100Y-95880500D01*
X92924500Y-102818800D02*
X89460100Y-99354400D01*
X94016000Y-102818800D02*
X92924500Y-102818800D01*
X89460100Y-95880500D02*
X88838300Y-95258700D01*
X95992300Y-98600900D02*
X94925300Y-98600900D01*
%TO.N,CAN_L*%
X153717500Y-74726000D02*
X153026100Y-75417400D01*
X153129200Y-75811600D02*
X148968500Y-79972300D01*
X125959700Y-102275600D02*
X126282900Y-101952400D01*
X117371000Y-102275600D02*
X125959700Y-102275600D01*
X154069200Y-74290100D02*
X153717500Y-74641800D01*
X154069200Y-70650000D02*
X154069200Y-74290100D01*
X153717500Y-74641800D02*
X153717500Y-74726000D01*
X153026100Y-75417400D02*
X153026100Y-75708600D01*
X147768500Y-79972300D02*
X148968500Y-79972300D01*
X126282900Y-101457900D02*
X147768500Y-79972300D01*
X117325500Y-102230100D02*
X117371000Y-102275600D01*
X153026100Y-75708600D02*
X153129200Y-75811600D01*
X126282900Y-101952400D02*
X126282900Y-101457900D01*
%TO.N,Fuel_Pressure_Signal*%
X124569200Y-67330000D02*
X123801500Y-66562300D01*
X119375500Y-68598726D02*
X119375500Y-69593700D01*
X125918300Y-68729000D02*
X125368300Y-68729000D01*
X119500000Y-68474226D02*
X119375500Y-68598726D01*
X119512700Y-66562300D02*
X119500000Y-66575000D01*
X119500000Y-66575000D02*
X119500000Y-68474226D01*
X131504100Y-74314800D02*
X125918300Y-68729000D01*
X125368300Y-68729000D02*
X124569200Y-67929900D01*
X119375500Y-69593700D02*
X118319200Y-70650000D01*
X131504100Y-74603900D02*
X131504100Y-74314800D01*
X124569200Y-67929900D02*
X124569200Y-67330000D01*
X123801500Y-66562300D02*
X119512700Y-66562300D01*
%TO.N,Net-(Q1-G)*%
X105830600Y-96103500D02*
X103532700Y-93805600D01*
X105226800Y-89467700D02*
X105226800Y-83884900D01*
X123431000Y-98586200D02*
X121238900Y-96394100D01*
X110941300Y-96103500D02*
X105830600Y-96103500D01*
X125107800Y-101100500D02*
X125107800Y-99287600D01*
X111231900Y-96394100D02*
X110941300Y-96103500D01*
X121238900Y-96394100D02*
X111231900Y-96394100D01*
X103532700Y-91161800D02*
X105226800Y-89467700D01*
X103532700Y-93805600D02*
X103532700Y-91161800D01*
X125731200Y-101723900D02*
X125107800Y-101100500D01*
X123431000Y-99173100D02*
X123431000Y-98586200D01*
%TO.N,Net-(U3-STBY)*%
X116864400Y-96773000D02*
X121120500Y-96773000D01*
X115460500Y-102830600D02*
X115085700Y-103205400D01*
X116418800Y-97218600D02*
X116864400Y-96773000D01*
X121464100Y-99102100D02*
X121246700Y-99319500D01*
X121120500Y-96773000D02*
X121464100Y-97116600D01*
X121464100Y-97116600D02*
X121464100Y-99102100D01*
X114075000Y-103205400D02*
X112166400Y-101296800D01*
X115085700Y-103205400D02*
X114075000Y-103205400D01*
%TO.N,Oil_Temp+*%
X120819200Y-71127600D02*
X124027300Y-74335700D01*
X120819200Y-70650000D02*
X120819200Y-71127600D01*
%TO.N,LLK_Water_Temp1+*%
X125152000Y-74528900D02*
X125152000Y-71802400D01*
X125202100Y-74579000D02*
X125152000Y-74528900D01*
%TO.N,LLK_Water_Temp2+*%
X125242500Y-69573300D02*
X123319200Y-67650000D01*
X133532300Y-77173300D02*
X133252600Y-77173300D01*
X126265300Y-69573300D02*
X125242500Y-69573300D01*
X126895900Y-70203900D02*
X126265300Y-69573300D01*
X126895900Y-70816600D02*
X126895900Y-70203900D01*
X133252600Y-77173300D02*
X126895900Y-70816600D01*
%TO.N,/5V-DIV*%
X157556900Y-86026200D02*
X157763500Y-85819600D01*
X157556900Y-95465100D02*
X157556900Y-86026200D01*
X157775700Y-95683900D02*
X157556900Y-95465100D01*
%TO.N,/Exhaust Temp/TC4+*%
X70022900Y-88482200D02*
X65117300Y-93387800D01*
X116640200Y-107742700D02*
X115252300Y-106354800D01*
X89555900Y-106726100D02*
X89555900Y-106743000D01*
X63990000Y-81013000D02*
X63990000Y-82449300D01*
X63990000Y-82449300D02*
X70022900Y-88482200D01*
X75620200Y-92790400D02*
X89555900Y-106726100D01*
X63491400Y-95327400D02*
X60230500Y-92066500D01*
X70520200Y-88482200D02*
X74828400Y-92790400D01*
X74828400Y-92790400D02*
X75620200Y-92790400D01*
X70022900Y-88482200D02*
X70520200Y-88482200D01*
X60230500Y-92066500D02*
X60230500Y-77061800D01*
X65117300Y-93387800D02*
X65117300Y-94385400D01*
X65117300Y-94385400D02*
X64175300Y-95327400D01*
X64175300Y-95327400D02*
X63491400Y-95327400D01*
X125071800Y-107742700D02*
X116640200Y-107742700D01*
X125560000Y-108230900D02*
X125071800Y-107742700D01*
%TD*%
%TA.AperFunction,Conductor*%
%TO.N,GND*%
G36*
X130790676Y-107195185D02*
G01*
X130831024Y-107237499D01*
X130838759Y-107250897D01*
X130903491Y-107363015D01*
X131005985Y-107465509D01*
X131005986Y-107465510D01*
X131005988Y-107465511D01*
X131131511Y-107537982D01*
X131131512Y-107537982D01*
X131131515Y-107537984D01*
X131271525Y-107575500D01*
X131271528Y-107575500D01*
X131416472Y-107575500D01*
X131416475Y-107575500D01*
X131556485Y-107537984D01*
X131682015Y-107465509D01*
X131784509Y-107363015D01*
X131856976Y-107237499D01*
X131907543Y-107189284D01*
X131964363Y-107175500D01*
X155944500Y-107175500D01*
X156011539Y-107195185D01*
X156057294Y-107247989D01*
X156068500Y-107299500D01*
X156068500Y-111220614D01*
X156048815Y-111287653D01*
X156032181Y-111308295D01*
X156028493Y-111311982D01*
X156028488Y-111311988D01*
X155956017Y-111437511D01*
X155956016Y-111437515D01*
X155918500Y-111577525D01*
X155918500Y-111722475D01*
X155946106Y-111825500D01*
X155956017Y-111862489D01*
X155956018Y-111862490D01*
X155977963Y-111900499D01*
X155994437Y-111968399D01*
X155971585Y-112034426D01*
X155916664Y-112077617D01*
X155870577Y-112086500D01*
X150224500Y-112086500D01*
X150157461Y-112066815D01*
X150111706Y-112014011D01*
X150100500Y-111962500D01*
X150100500Y-110325323D01*
X150100499Y-110325321D01*
X150085967Y-110252264D01*
X150085966Y-110252260D01*
X150069697Y-110227912D01*
X150030601Y-110169399D01*
X149947740Y-110114034D01*
X149947739Y-110114033D01*
X149947735Y-110114032D01*
X149874677Y-110099500D01*
X149874674Y-110099500D01*
X148125326Y-110099500D01*
X148125323Y-110099500D01*
X148052264Y-110114032D01*
X148052260Y-110114033D01*
X147969399Y-110169399D01*
X147914033Y-110252260D01*
X147914032Y-110252264D01*
X147899500Y-110325321D01*
X147899500Y-111962500D01*
X147879815Y-112029539D01*
X147827011Y-112075294D01*
X147775500Y-112086500D01*
X147480762Y-112086500D01*
X147413723Y-112066815D01*
X147367968Y-112014011D01*
X147358024Y-111944853D01*
X147380444Y-111889615D01*
X147443565Y-111802734D01*
X147525747Y-111641447D01*
X147525748Y-111641444D01*
X147581682Y-111469293D01*
X147610000Y-111290506D01*
X147610000Y-111109493D01*
X147581682Y-110930706D01*
X147525748Y-110758555D01*
X147525747Y-110758552D01*
X147443571Y-110597275D01*
X147443566Y-110597267D01*
X147432085Y-110581466D01*
X146942962Y-111070589D01*
X146925925Y-111007007D01*
X146860099Y-110892993D01*
X146767007Y-110799901D01*
X146652993Y-110734075D01*
X146589409Y-110717037D01*
X147078533Y-110227913D01*
X147062730Y-110216431D01*
X146901447Y-110134252D01*
X146901444Y-110134251D01*
X146729293Y-110078317D01*
X146550506Y-110050000D01*
X146369494Y-110050000D01*
X146190706Y-110078317D01*
X146018555Y-110134251D01*
X146018547Y-110134254D01*
X145857269Y-110216432D01*
X145841466Y-110227912D01*
X145841466Y-110227913D01*
X146330591Y-110717037D01*
X146267007Y-110734075D01*
X146152993Y-110799901D01*
X146059901Y-110892993D01*
X145994075Y-111007007D01*
X145977037Y-111070590D01*
X145487913Y-110581466D01*
X145487912Y-110581466D01*
X145476432Y-110597269D01*
X145394254Y-110758547D01*
X145394251Y-110758555D01*
X145338317Y-110930706D01*
X145310000Y-111109493D01*
X145310000Y-111290506D01*
X145338317Y-111469293D01*
X145394251Y-111641444D01*
X145394252Y-111641447D01*
X145476434Y-111802734D01*
X145539556Y-111889615D01*
X145563036Y-111955421D01*
X145547210Y-112023475D01*
X145497105Y-112072170D01*
X145439238Y-112086500D01*
X144879576Y-112086500D01*
X144812537Y-112066815D01*
X144766782Y-112014011D01*
X144756838Y-111944853D01*
X144779258Y-111889615D01*
X144861232Y-111776788D01*
X144939873Y-111622445D01*
X144993402Y-111457701D01*
X145020500Y-111286611D01*
X145020500Y-111113389D01*
X144993402Y-110942299D01*
X144939873Y-110777555D01*
X144861232Y-110623212D01*
X144759414Y-110483072D01*
X144636928Y-110360586D01*
X144496788Y-110258768D01*
X144342445Y-110180127D01*
X144177701Y-110126598D01*
X144177699Y-110126597D01*
X144177698Y-110126597D01*
X144042681Y-110105213D01*
X144006611Y-110099500D01*
X143833389Y-110099500D01*
X143801192Y-110104599D01*
X143662301Y-110126597D01*
X143493028Y-110181597D01*
X143423186Y-110183592D01*
X143367029Y-110151347D01*
X142575463Y-109359781D01*
X142541978Y-109298458D01*
X142546962Y-109228766D01*
X142588834Y-109172833D01*
X142654298Y-109148416D01*
X142663144Y-109148100D01*
X144919605Y-109148100D01*
X144986644Y-109167785D01*
X145032399Y-109220589D01*
X145039379Y-109240003D01*
X145067563Y-109345185D01*
X145071717Y-109360688D01*
X145144188Y-109486211D01*
X145144190Y-109486213D01*
X145144191Y-109486215D01*
X145246685Y-109588709D01*
X145246686Y-109588710D01*
X145246688Y-109588711D01*
X145372211Y-109661182D01*
X145372212Y-109661182D01*
X145372215Y-109661184D01*
X145512225Y-109698700D01*
X145512228Y-109698700D01*
X145657172Y-109698700D01*
X145657175Y-109698700D01*
X145797185Y-109661184D01*
X145922715Y-109588709D01*
X146025209Y-109486215D01*
X146097684Y-109360685D01*
X146135200Y-109220675D01*
X146135200Y-109075725D01*
X146097684Y-108935715D01*
X146046738Y-108847475D01*
X146025211Y-108810188D01*
X146025206Y-108810182D01*
X145922717Y-108707693D01*
X145922711Y-108707688D01*
X145797188Y-108635217D01*
X145797189Y-108635217D01*
X145785706Y-108632140D01*
X145657175Y-108597700D01*
X145657172Y-108597700D01*
X145581244Y-108597700D01*
X145514205Y-108578015D01*
X145493563Y-108561381D01*
X145449313Y-108517131D01*
X145449308Y-108517127D01*
X145369390Y-108470987D01*
X145369389Y-108470986D01*
X145369388Y-108470986D01*
X145280244Y-108447100D01*
X145280243Y-108447100D01*
X126232973Y-108447100D01*
X126165934Y-108427415D01*
X126120179Y-108374611D01*
X126110722Y-108311502D01*
X126110500Y-108311502D01*
X126110500Y-108310023D01*
X126110034Y-108306914D01*
X126110500Y-108303374D01*
X126110500Y-108158427D01*
X126110500Y-108158425D01*
X126072984Y-108018415D01*
X126040992Y-107963004D01*
X126024520Y-107895106D01*
X126047372Y-107829079D01*
X126060688Y-107813335D01*
X126131109Y-107742915D01*
X126203584Y-107617385D01*
X126241100Y-107477375D01*
X126241100Y-107332425D01*
X126240876Y-107331589D01*
X126240893Y-107330858D01*
X126240039Y-107324369D01*
X126241051Y-107324235D01*
X126242541Y-107261739D01*
X126281706Y-107203878D01*
X126345935Y-107176376D01*
X126360652Y-107175500D01*
X130723637Y-107175500D01*
X130790676Y-107195185D01*
G37*
%TD.AperFunction*%
%TA.AperFunction,Conductor*%
G36*
X153097864Y-66941485D02*
G01*
X153143619Y-66994289D01*
X153153563Y-67063447D01*
X153141310Y-67102093D01*
X153138499Y-67107612D01*
X153072496Y-67237146D01*
X153020181Y-67398152D01*
X152993700Y-67565350D01*
X152993700Y-67734649D01*
X153020181Y-67901847D01*
X153072496Y-68062853D01*
X153103513Y-68123726D01*
X153148596Y-68212206D01*
X153149352Y-68213688D01*
X153248848Y-68350634D01*
X153248852Y-68350639D01*
X153368560Y-68470347D01*
X153368565Y-68470351D01*
X153481748Y-68552582D01*
X153505515Y-68569850D01*
X153572907Y-68604188D01*
X153656346Y-68646703D01*
X153656348Y-68646703D01*
X153656351Y-68646705D01*
X153700882Y-68661174D01*
X153817352Y-68699018D01*
X153984551Y-68725500D01*
X153984556Y-68725500D01*
X154153849Y-68725500D01*
X154321047Y-68699018D01*
X154340867Y-68692578D01*
X154482049Y-68646705D01*
X154632885Y-68569850D01*
X154769841Y-68470346D01*
X154889546Y-68350641D01*
X154989050Y-68213685D01*
X155065905Y-68062849D01*
X155118218Y-67901847D01*
X155118728Y-67898627D01*
X155144700Y-67734649D01*
X155144700Y-67565350D01*
X155118218Y-67398152D01*
X155081080Y-67283856D01*
X155065905Y-67237151D01*
X155065903Y-67237147D01*
X155065903Y-67237146D01*
X154999901Y-67107612D01*
X154997089Y-67102093D01*
X154984194Y-67033426D01*
X155010470Y-66968686D01*
X155067576Y-66928428D01*
X155107575Y-66921800D01*
X155475269Y-66921800D01*
X155542308Y-66941485D01*
X155588063Y-66994289D01*
X155598007Y-67063447D01*
X155585754Y-67102095D01*
X155526620Y-67218149D01*
X155526619Y-67218152D01*
X155471901Y-67386560D01*
X155444200Y-67561455D01*
X155444200Y-67738544D01*
X155471901Y-67913439D01*
X155526619Y-68081847D01*
X155526623Y-68081855D01*
X155607008Y-68239621D01*
X155607016Y-68239635D01*
X155615009Y-68250634D01*
X155615010Y-68250635D01*
X156045412Y-67820233D01*
X156056682Y-67862292D01*
X156129090Y-67987708D01*
X156231492Y-68090110D01*
X156356908Y-68162518D01*
X156398964Y-68173787D01*
X155968563Y-68604188D01*
X155979568Y-68612185D01*
X156137349Y-68692579D01*
X156137355Y-68692581D01*
X156266423Y-68734517D01*
X156324099Y-68773954D01*
X156351298Y-68838312D01*
X156339384Y-68907159D01*
X156315787Y-68940129D01*
X156176510Y-69079406D01*
X156120924Y-69111499D01*
X156087286Y-69120512D01*
X156087287Y-69120513D01*
X156077310Y-69123186D01*
X156077306Y-69123188D01*
X155997394Y-69169326D01*
X155997385Y-69169333D01*
X155130153Y-70036563D01*
X155068830Y-70070048D01*
X154999138Y-70065064D01*
X154943205Y-70023192D01*
X154942154Y-70021767D01*
X154889551Y-69949364D01*
X154769839Y-69829652D01*
X154769834Y-69829648D01*
X154632888Y-69730152D01*
X154632887Y-69730151D01*
X154632885Y-69730150D01*
X154574631Y-69700468D01*
X154482053Y-69653296D01*
X154321047Y-69600981D01*
X154153849Y-69574500D01*
X154153844Y-69574500D01*
X153984556Y-69574500D01*
X153984551Y-69574500D01*
X153817352Y-69600981D01*
X153656346Y-69653296D01*
X153505511Y-69730152D01*
X153368565Y-69829648D01*
X153368560Y-69829652D01*
X153248852Y-69949360D01*
X153248848Y-69949365D01*
X153149352Y-70086311D01*
X153072496Y-70237146D01*
X153020181Y-70398152D01*
X152993700Y-70565350D01*
X152993700Y-70734649D01*
X153020181Y-70901847D01*
X153072496Y-71062853D01*
X153119716Y-71155525D01*
X153148301Y-71211627D01*
X153149352Y-71213688D01*
X153248848Y-71350634D01*
X153248852Y-71350639D01*
X153368560Y-71470347D01*
X153368565Y-71470351D01*
X153421046Y-71508480D01*
X153505515Y-71569850D01*
X153617091Y-71626701D01*
X153650995Y-71643976D01*
X153701791Y-71691951D01*
X153718700Y-71754461D01*
X153718700Y-74093556D01*
X153699015Y-74160595D01*
X153682381Y-74181237D01*
X153437032Y-74426585D01*
X153437030Y-74426588D01*
X153409477Y-74474312D01*
X153396037Y-74497590D01*
X153390886Y-74506511D01*
X153381029Y-74543296D01*
X153348936Y-74598881D01*
X152745632Y-75202185D01*
X152745627Y-75202191D01*
X152702445Y-75276984D01*
X152702446Y-75276985D01*
X152699485Y-75282113D01*
X152675600Y-75371256D01*
X152675600Y-75654428D01*
X152675574Y-75654827D01*
X152675600Y-75707412D01*
X152675600Y-75718156D01*
X152655915Y-75785195D01*
X152639281Y-75805837D01*
X149059637Y-79385481D01*
X148998314Y-79418966D01*
X148971956Y-79421800D01*
X148896025Y-79421800D01*
X148767493Y-79456240D01*
X148756011Y-79459317D01*
X148630488Y-79531788D01*
X148630482Y-79531793D01*
X148576795Y-79585481D01*
X148515472Y-79618966D01*
X148489114Y-79621800D01*
X147722356Y-79621800D01*
X147633212Y-79645686D01*
X147633209Y-79645687D01*
X147553291Y-79691827D01*
X147553286Y-79691831D01*
X126065695Y-101179421D01*
X126004372Y-101212906D01*
X125945921Y-101211515D01*
X125826145Y-101179421D01*
X125803675Y-101173400D01*
X125803674Y-101173400D01*
X125727744Y-101173400D01*
X125660705Y-101153715D01*
X125640063Y-101137081D01*
X125494619Y-100991637D01*
X125461134Y-100930314D01*
X125458300Y-100903956D01*
X125458300Y-99766986D01*
X125477985Y-99699947D01*
X125494619Y-99679305D01*
X125516413Y-99657511D01*
X125548309Y-99625615D01*
X125620784Y-99500085D01*
X125658300Y-99360075D01*
X125658300Y-99215125D01*
X125620784Y-99075115D01*
X125592413Y-99025976D01*
X125548311Y-98949588D01*
X125548306Y-98949582D01*
X125445817Y-98847093D01*
X125445811Y-98847088D01*
X125320288Y-98774617D01*
X125320289Y-98774617D01*
X125302106Y-98769745D01*
X125180275Y-98737100D01*
X125035325Y-98737100D01*
X124913494Y-98769745D01*
X124895311Y-98774617D01*
X124769788Y-98847088D01*
X124769782Y-98847093D01*
X124667293Y-98949582D01*
X124667288Y-98949588D01*
X124594817Y-99075111D01*
X124594816Y-99075115D01*
X124557300Y-99215125D01*
X124557300Y-99360075D01*
X124590542Y-99484134D01*
X124594817Y-99500088D01*
X124667288Y-99625611D01*
X124667293Y-99625617D01*
X124720981Y-99679305D01*
X124754466Y-99740628D01*
X124757300Y-99766986D01*
X124757300Y-101146644D01*
X124771731Y-101200501D01*
X124781185Y-101235786D01*
X124827327Y-101315708D01*
X124827331Y-101315713D01*
X125144381Y-101632763D01*
X125177866Y-101694086D01*
X125180700Y-101720444D01*
X125180700Y-101801100D01*
X125161015Y-101868139D01*
X125108211Y-101913894D01*
X125056700Y-101925100D01*
X122899495Y-101925100D01*
X122832456Y-101905415D01*
X122786701Y-101852611D01*
X122776757Y-101783453D01*
X122792106Y-101739102D01*
X122830684Y-101672285D01*
X122868200Y-101532275D01*
X122868200Y-101387325D01*
X122830684Y-101247315D01*
X122820303Y-101229335D01*
X122758211Y-101121788D01*
X122758206Y-101121782D01*
X122655717Y-101019293D01*
X122655711Y-101019288D01*
X122530188Y-100946817D01*
X122530189Y-100946817D01*
X122518706Y-100943740D01*
X122390175Y-100909300D01*
X122245225Y-100909300D01*
X122116693Y-100943740D01*
X122105211Y-100946817D01*
X121979688Y-101019288D01*
X121979682Y-101019293D01*
X121925995Y-101072981D01*
X121864672Y-101106466D01*
X121838314Y-101109300D01*
X117259056Y-101109300D01*
X117177006Y-101131284D01*
X117177007Y-101131285D01*
X117169912Y-101133186D01*
X117169909Y-101133187D01*
X117089991Y-101179327D01*
X117089986Y-101179331D01*
X115916964Y-102352353D01*
X115855641Y-102385838D01*
X115785949Y-102380854D01*
X115767286Y-102372060D01*
X115672985Y-102317616D01*
X115532975Y-102280100D01*
X115388025Y-102280100D01*
X115275774Y-102310178D01*
X115248011Y-102317617D01*
X115122488Y-102390088D01*
X115122482Y-102390093D01*
X115019993Y-102492582D01*
X115019988Y-102492588D01*
X114947517Y-102618111D01*
X114947516Y-102618115D01*
X114910000Y-102758125D01*
X114910000Y-102758127D01*
X114908696Y-102762994D01*
X114872331Y-102822654D01*
X114809484Y-102853183D01*
X114788921Y-102854900D01*
X114271544Y-102854900D01*
X114204505Y-102835215D01*
X114183863Y-102818581D01*
X112753219Y-101387937D01*
X112719734Y-101326614D01*
X112716900Y-101300256D01*
X112716900Y-101224327D01*
X112716900Y-101224325D01*
X112679384Y-101084315D01*
X112672840Y-101072981D01*
X112606911Y-100958788D01*
X112606906Y-100958782D01*
X112504417Y-100856293D01*
X112504411Y-100856288D01*
X112378888Y-100783817D01*
X112378889Y-100783817D01*
X112367406Y-100780740D01*
X112238875Y-100746300D01*
X112093925Y-100746300D01*
X111965393Y-100780740D01*
X111953911Y-100783817D01*
X111828388Y-100856288D01*
X111828382Y-100856293D01*
X111725893Y-100958782D01*
X111725888Y-100958788D01*
X111653417Y-101084311D01*
X111653416Y-101084315D01*
X111615900Y-101224325D01*
X111615900Y-101369275D01*
X111649406Y-101494319D01*
X111653417Y-101509288D01*
X111725888Y-101634811D01*
X111725890Y-101634813D01*
X111725891Y-101634815D01*
X111828385Y-101737309D01*
X111828386Y-101737310D01*
X111828388Y-101737311D01*
X111953911Y-101809782D01*
X111953912Y-101809782D01*
X111953915Y-101809784D01*
X112093925Y-101847300D01*
X112169856Y-101847300D01*
X112236895Y-101866985D01*
X112257537Y-101883619D01*
X113511737Y-103137819D01*
X113545222Y-103199142D01*
X113540238Y-103268834D01*
X113498366Y-103324767D01*
X113432902Y-103349184D01*
X113424056Y-103349500D01*
X112373061Y-103349500D01*
X112306022Y-103329815D01*
X112268562Y-103289581D01*
X112268312Y-103289769D01*
X112266564Y-103287434D01*
X112264227Y-103284924D01*
X112262997Y-103282673D01*
X112262996Y-103282669D01*
X112259380Y-103277839D01*
X112176747Y-103167455D01*
X112176744Y-103167452D01*
X112061535Y-103081206D01*
X112061528Y-103081202D01*
X111926686Y-103030910D01*
X111926685Y-103030909D01*
X111926683Y-103030909D01*
X111867073Y-103024500D01*
X111867063Y-103024500D01*
X111271329Y-103024500D01*
X111271323Y-103024501D01*
X111211713Y-103030909D01*
X111206014Y-103032256D01*
X111136245Y-103028515D01*
X111079573Y-102987647D01*
X111053993Y-102922629D01*
X111053500Y-102911579D01*
X111053500Y-101865386D01*
X111073185Y-101798347D01*
X111089819Y-101777705D01*
X111113999Y-101753525D01*
X111143509Y-101724015D01*
X111215984Y-101598485D01*
X111253500Y-101458475D01*
X111253500Y-101313525D01*
X111215984Y-101173515D01*
X111204552Y-101153715D01*
X111143511Y-101047988D01*
X111143506Y-101047982D01*
X111041017Y-100945493D01*
X111041011Y-100945488D01*
X110915488Y-100873017D01*
X110915489Y-100873017D01*
X110876183Y-100862485D01*
X110775475Y-100835500D01*
X110630525Y-100835500D01*
X110529817Y-100862485D01*
X110490511Y-100873017D01*
X110364988Y-100945488D01*
X110364982Y-100945493D01*
X110262493Y-101047982D01*
X110262488Y-101047988D01*
X110190017Y-101173511D01*
X110190016Y-101173515D01*
X110152500Y-101313525D01*
X110152500Y-101458475D01*
X110173541Y-101537000D01*
X110190017Y-101598488D01*
X110262488Y-101724011D01*
X110262493Y-101724017D01*
X110316181Y-101777705D01*
X110349666Y-101839028D01*
X110352500Y-101865386D01*
X110352500Y-102922457D01*
X110332815Y-102989496D01*
X110280011Y-103035251D01*
X110210853Y-103045195D01*
X110183010Y-103037812D01*
X110050643Y-102985613D01*
X109962254Y-102975000D01*
X109919200Y-102975000D01*
X109919200Y-105025000D01*
X109962254Y-105025000D01*
X110050643Y-105014386D01*
X110191297Y-104958919D01*
X110311765Y-104867564D01*
X110317763Y-104861567D01*
X110319991Y-104863795D01*
X110363963Y-104831293D01*
X110433683Y-104826731D01*
X110494272Y-104860054D01*
X115063988Y-109429770D01*
X115136491Y-109471629D01*
X115136493Y-109471631D01*
X115143910Y-109475913D01*
X115143912Y-109475914D01*
X115199935Y-109490925D01*
X115259596Y-109527290D01*
X115290125Y-109590137D01*
X115281830Y-109659512D01*
X115237345Y-109713390D01*
X115170793Y-109734665D01*
X115167842Y-109734700D01*
X106070644Y-109734700D01*
X106003605Y-109715015D01*
X105982963Y-109698381D01*
X100802635Y-104518053D01*
X108869200Y-104518053D01*
X108879813Y-104606443D01*
X108935279Y-104747095D01*
X109026635Y-104867564D01*
X109147104Y-104958920D01*
X109287756Y-105014386D01*
X109376146Y-105025000D01*
X109419200Y-105025000D01*
X109419200Y-104250000D01*
X108869200Y-104250000D01*
X108869200Y-104518053D01*
X100802635Y-104518053D01*
X99766528Y-103481946D01*
X108869200Y-103481946D01*
X108869200Y-103750000D01*
X109419200Y-103750000D01*
X109419200Y-102975000D01*
X109376146Y-102975000D01*
X109287756Y-102985613D01*
X109147104Y-103041079D01*
X109026635Y-103132435D01*
X108935279Y-103252904D01*
X108879813Y-103393556D01*
X108869200Y-103481946D01*
X99766528Y-103481946D01*
X98974819Y-102690237D01*
X98941334Y-102628914D01*
X98938500Y-102602556D01*
X98938500Y-102526627D01*
X98938500Y-102526625D01*
X98900984Y-102386615D01*
X98900535Y-102385838D01*
X98828511Y-102261088D01*
X98828506Y-102261082D01*
X98726017Y-102158593D01*
X98726011Y-102158588D01*
X98600488Y-102086117D01*
X98600489Y-102086117D01*
X98589006Y-102083040D01*
X98460475Y-102048600D01*
X98315525Y-102048600D01*
X98186993Y-102083040D01*
X98175511Y-102086117D01*
X98049988Y-102158588D01*
X98049982Y-102158593D01*
X97947493Y-102261082D01*
X97947484Y-102261094D01*
X97946980Y-102261968D01*
X97946362Y-102262557D01*
X97942543Y-102267534D01*
X97941766Y-102266938D01*
X97896408Y-102310178D01*
X97827799Y-102323393D01*
X97762938Y-102297418D01*
X97751919Y-102287637D01*
X96157763Y-100693481D01*
X96124278Y-100632158D01*
X96129262Y-100562466D01*
X96171134Y-100506533D01*
X96236598Y-100482116D01*
X96245444Y-100481800D01*
X98368256Y-100481800D01*
X98435295Y-100501485D01*
X98455937Y-100518119D01*
X100042581Y-102104762D01*
X100076066Y-102166085D01*
X100078900Y-102192443D01*
X100078900Y-102268375D01*
X100111514Y-102390091D01*
X100116417Y-102408388D01*
X100188888Y-102533911D01*
X100188890Y-102533913D01*
X100188891Y-102533915D01*
X100291385Y-102636409D01*
X100291386Y-102636410D01*
X100291388Y-102636411D01*
X100416911Y-102708882D01*
X100416912Y-102708882D01*
X100416915Y-102708884D01*
X100556925Y-102746400D01*
X100556928Y-102746400D01*
X100701872Y-102746400D01*
X100701875Y-102746400D01*
X100841885Y-102708884D01*
X100967415Y-102636409D01*
X101069909Y-102533915D01*
X101142384Y-102408385D01*
X101179900Y-102268375D01*
X101179900Y-102123425D01*
X101142384Y-101983415D01*
X101089654Y-101892085D01*
X101069911Y-101857888D01*
X101069906Y-101857882D01*
X100967417Y-101755393D01*
X100967415Y-101755391D01*
X100913074Y-101724017D01*
X100904187Y-101718886D01*
X100855971Y-101668319D01*
X100842749Y-101599712D01*
X100868717Y-101534847D01*
X100925631Y-101494319D01*
X100966187Y-101487499D01*
X100979071Y-101487499D01*
X100979072Y-101487499D01*
X101038683Y-101481091D01*
X101173531Y-101430796D01*
X101288746Y-101344546D01*
X101374996Y-101229331D01*
X101375448Y-101228118D01*
X101376224Y-101227080D01*
X101379247Y-101221546D01*
X101380042Y-101221980D01*
X101417311Y-101172181D01*
X101429634Y-101164052D01*
X101431482Y-101162984D01*
X101431485Y-101162984D01*
X101557015Y-101090509D01*
X101584411Y-101063112D01*
X101645730Y-101029629D01*
X101715422Y-101034613D01*
X101771356Y-101076483D01*
X101788014Y-101111397D01*
X101788898Y-101111049D01*
X101847279Y-101259095D01*
X101938635Y-101379564D01*
X102059104Y-101470920D01*
X102199756Y-101526386D01*
X102288146Y-101537000D01*
X102331200Y-101537000D01*
X102831200Y-101537000D01*
X102874254Y-101537000D01*
X102962643Y-101526386D01*
X103103295Y-101470920D01*
X103223764Y-101379564D01*
X103315120Y-101259095D01*
X103370586Y-101118443D01*
X103381200Y-101030053D01*
X103381200Y-100762000D01*
X102831200Y-100762000D01*
X102831200Y-101537000D01*
X102331200Y-101537000D01*
X102331200Y-100262000D01*
X102831200Y-100262000D01*
X103381200Y-100262000D01*
X103381200Y-99993946D01*
X103370586Y-99905556D01*
X103315120Y-99764904D01*
X103223764Y-99644435D01*
X103103295Y-99553079D01*
X102962643Y-99497613D01*
X102874254Y-99487000D01*
X102831200Y-99487000D01*
X102831200Y-100262000D01*
X102331200Y-100262000D01*
X102331200Y-99487000D01*
X102288146Y-99487000D01*
X102199756Y-99497613D01*
X102059104Y-99553079D01*
X101938635Y-99644435D01*
X101847279Y-99764904D01*
X101791813Y-99905556D01*
X101781200Y-99993946D01*
X101781200Y-100134314D01*
X101761515Y-100201353D01*
X101708711Y-100247108D01*
X101639553Y-100257052D01*
X101575997Y-100228027D01*
X101569519Y-100221995D01*
X101557017Y-100209493D01*
X101557015Y-100209491D01*
X101493696Y-100172933D01*
X101445483Y-100122367D01*
X101431699Y-100065548D01*
X101431699Y-99989129D01*
X101431698Y-99989123D01*
X101427251Y-99947755D01*
X101425291Y-99929517D01*
X101415139Y-99902299D01*
X101374997Y-99794671D01*
X101374993Y-99794664D01*
X101288747Y-99679455D01*
X101288744Y-99679452D01*
X101173535Y-99593206D01*
X101173528Y-99593202D01*
X101038686Y-99542910D01*
X101038685Y-99542909D01*
X101038683Y-99542909D01*
X100979073Y-99536500D01*
X100979064Y-99536500D01*
X100571208Y-99536500D01*
X100504169Y-99516815D01*
X100458414Y-99464011D01*
X100448470Y-99394853D01*
X100471942Y-99338188D01*
X100473843Y-99335647D01*
X100473846Y-99335646D01*
X100560096Y-99220431D01*
X100610391Y-99085583D01*
X100616800Y-99025973D01*
X100616799Y-97980228D01*
X100610391Y-97920617D01*
X100608014Y-97914245D01*
X100560097Y-97785771D01*
X100560093Y-97785764D01*
X100473847Y-97670555D01*
X100473844Y-97670552D01*
X100358635Y-97584306D01*
X100358628Y-97584302D01*
X100223786Y-97534010D01*
X100223785Y-97534009D01*
X100223783Y-97534009D01*
X100164173Y-97527600D01*
X100164163Y-97527600D01*
X99568429Y-97527600D01*
X99568423Y-97527601D01*
X99508816Y-97534008D01*
X99373971Y-97584302D01*
X99373964Y-97584306D01*
X99258755Y-97670552D01*
X99258752Y-97670555D01*
X99172506Y-97785764D01*
X99172502Y-97785771D01*
X99122208Y-97920617D01*
X99115801Y-97980216D01*
X99115801Y-97980223D01*
X99115800Y-97980235D01*
X99115800Y-99025970D01*
X99115801Y-99025976D01*
X99122209Y-99085587D01*
X99123992Y-99093131D01*
X99121755Y-99093659D01*
X99125921Y-99151850D01*
X99092440Y-99213176D01*
X99031119Y-99246665D01*
X99004753Y-99249500D01*
X98878661Y-99249500D01*
X98811622Y-99229815D01*
X98765867Y-99177011D01*
X98755545Y-99110716D01*
X98766300Y-99021153D01*
X98766300Y-98753100D01*
X98090300Y-98753100D01*
X98023261Y-98733415D01*
X97977506Y-98680611D01*
X97966300Y-98629100D01*
X97966300Y-98503100D01*
X97840300Y-98503100D01*
X97773261Y-98483415D01*
X97727506Y-98430611D01*
X97716300Y-98379100D01*
X97716300Y-98253100D01*
X98216300Y-98253100D01*
X98766300Y-98253100D01*
X98766300Y-97985046D01*
X98755686Y-97896656D01*
X98700220Y-97756004D01*
X98608864Y-97635535D01*
X98488395Y-97544179D01*
X98347743Y-97488713D01*
X98259354Y-97478100D01*
X98216300Y-97478100D01*
X98216300Y-98253100D01*
X97716300Y-98253100D01*
X97716300Y-97478100D01*
X97673246Y-97478100D01*
X97584856Y-97488713D01*
X97444204Y-97544179D01*
X97323735Y-97635535D01*
X97232379Y-97756004D01*
X97176912Y-97896660D01*
X97174465Y-97917038D01*
X97146926Y-97981252D01*
X97089043Y-98020383D01*
X97019192Y-98022009D01*
X96959551Y-97985612D01*
X96952089Y-97976569D01*
X96888746Y-97891954D01*
X96821728Y-97841784D01*
X96773535Y-97805706D01*
X96773528Y-97805702D01*
X96638682Y-97755408D01*
X96638683Y-97755408D01*
X96579083Y-97749001D01*
X96579081Y-97749000D01*
X96579073Y-97749000D01*
X96579064Y-97749000D01*
X95583329Y-97749000D01*
X95583323Y-97749001D01*
X95523716Y-97755408D01*
X95388871Y-97805702D01*
X95388864Y-97805706D01*
X95273655Y-97891952D01*
X95273652Y-97891955D01*
X95182088Y-98014269D01*
X95180170Y-98012833D01*
X95139879Y-98053118D01*
X95071605Y-98067964D01*
X95048369Y-98064056D01*
X94997776Y-98050500D01*
X94997775Y-98050500D01*
X94852825Y-98050500D01*
X94761451Y-98074984D01*
X94712811Y-98088017D01*
X94587288Y-98160488D01*
X94587282Y-98160493D01*
X94492881Y-98254895D01*
X94431558Y-98288380D01*
X94361866Y-98283396D01*
X94305933Y-98241524D01*
X94281516Y-98176060D01*
X94281200Y-98167214D01*
X94281200Y-97993946D01*
X94270586Y-97905556D01*
X94215120Y-97764904D01*
X94123764Y-97644435D01*
X94003295Y-97553079D01*
X93862643Y-97497613D01*
X93774254Y-97487000D01*
X93731200Y-97487000D01*
X93731200Y-98388000D01*
X93711515Y-98455039D01*
X93658711Y-98500794D01*
X93607200Y-98512000D01*
X93481200Y-98512000D01*
X93481200Y-98638000D01*
X93461515Y-98705039D01*
X93408711Y-98750794D01*
X93357200Y-98762000D01*
X92681200Y-98762000D01*
X92681200Y-98871246D01*
X92661515Y-98938285D01*
X92608711Y-98984040D01*
X92539553Y-98993984D01*
X92475997Y-98964959D01*
X92469519Y-98958927D01*
X92368018Y-98857426D01*
X92334533Y-98796103D01*
X92331699Y-98769745D01*
X92331699Y-98355103D01*
X92341139Y-98307647D01*
X92342401Y-98304598D01*
X92342407Y-98304588D01*
X92369700Y-98202727D01*
X92369700Y-98202718D01*
X92370761Y-98194667D01*
X92372487Y-98194894D01*
X92389385Y-98137347D01*
X92406019Y-98116705D01*
X92409709Y-98113015D01*
X92449813Y-98043552D01*
X92500380Y-97995337D01*
X92568987Y-97982114D01*
X92633852Y-98008083D01*
X92674380Y-98064997D01*
X92681200Y-98105553D01*
X92681200Y-98262000D01*
X93231200Y-98262000D01*
X93231200Y-97487000D01*
X93188146Y-97487000D01*
X93099756Y-97497613D01*
X92959104Y-97553079D01*
X92838635Y-97644435D01*
X92742504Y-97771202D01*
X92686311Y-97812725D01*
X92616590Y-97817276D01*
X92555476Y-97783411D01*
X92522372Y-97721881D01*
X92521187Y-97710528D01*
X92520761Y-97710585D01*
X92519700Y-97702528D01*
X92519700Y-97702525D01*
X92482184Y-97562515D01*
X92465725Y-97534008D01*
X92409711Y-97436988D01*
X92409706Y-97436982D01*
X92307217Y-97334493D01*
X92307211Y-97334488D01*
X92181688Y-97262017D01*
X92181689Y-97262017D01*
X92160446Y-97256325D01*
X92041675Y-97224500D01*
X91941303Y-97224500D01*
X91874264Y-97204815D01*
X91830277Y-97155719D01*
X91824745Y-97144596D01*
X91809584Y-97088015D01*
X91754469Y-96992553D01*
X95081200Y-96992553D01*
X95091813Y-97080943D01*
X95147279Y-97221595D01*
X95238635Y-97342064D01*
X95359104Y-97433420D01*
X95499756Y-97488886D01*
X95588146Y-97499500D01*
X95831200Y-97499500D01*
X96331200Y-97499500D01*
X96574254Y-97499500D01*
X96662643Y-97488886D01*
X96803295Y-97433420D01*
X96923764Y-97342064D01*
X97015120Y-97221595D01*
X97070586Y-97080943D01*
X97081200Y-96992553D01*
X97081200Y-96937000D01*
X96331200Y-96937000D01*
X96331200Y-97499500D01*
X95831200Y-97499500D01*
X95831200Y-96937000D01*
X95081200Y-96937000D01*
X95081200Y-96992553D01*
X91754469Y-96992553D01*
X91737109Y-96962485D01*
X91634615Y-96859991D01*
X91621921Y-96852662D01*
X91610952Y-96842058D01*
X91600923Y-96824408D01*
X91586919Y-96809720D01*
X91584015Y-96794653D01*
X91576434Y-96781310D01*
X91577539Y-96761041D01*
X91573699Y-96741112D01*
X91579402Y-96726867D01*
X91580238Y-96711544D01*
X91592125Y-96695090D01*
X91599670Y-96676249D01*
X91609447Y-96665233D01*
X91893234Y-96381446D01*
X95081200Y-96381446D01*
X95081200Y-96437000D01*
X95831200Y-96437000D01*
X96331200Y-96437000D01*
X97081200Y-96437000D01*
X97081200Y-96381446D01*
X97070586Y-96293056D01*
X97015120Y-96152404D01*
X96923764Y-96031935D01*
X96921282Y-96030053D01*
X97281200Y-96030053D01*
X97291813Y-96118443D01*
X97347279Y-96259095D01*
X97438635Y-96379564D01*
X97559104Y-96470920D01*
X97699756Y-96526386D01*
X97788146Y-96537000D01*
X97831200Y-96537000D01*
X97831200Y-95762000D01*
X97281200Y-95762000D01*
X97281200Y-96030053D01*
X96921282Y-96030053D01*
X96803295Y-95940579D01*
X96662643Y-95885113D01*
X96574254Y-95874500D01*
X96331200Y-95874500D01*
X96331200Y-96437000D01*
X95831200Y-96437000D01*
X95831200Y-95874500D01*
X95588146Y-95874500D01*
X95499756Y-95885113D01*
X95359104Y-95940579D01*
X95238635Y-96031935D01*
X95147279Y-96152404D01*
X95091813Y-96293056D01*
X95081200Y-96381446D01*
X91893234Y-96381446D01*
X93280736Y-94993946D01*
X97281200Y-94993946D01*
X97281200Y-95262000D01*
X97831200Y-95262000D01*
X98331200Y-95262000D01*
X98881200Y-95262000D01*
X98881200Y-94993946D01*
X98870586Y-94905556D01*
X98815120Y-94764904D01*
X98723764Y-94644435D01*
X98603295Y-94553079D01*
X98462643Y-94497613D01*
X98374254Y-94487000D01*
X98331200Y-94487000D01*
X98331200Y-95262000D01*
X97831200Y-95262000D01*
X97831200Y-94487000D01*
X97788146Y-94487000D01*
X97699756Y-94497613D01*
X97559104Y-94553079D01*
X97438635Y-94644435D01*
X97347279Y-94764904D01*
X97291813Y-94905556D01*
X97281200Y-94993946D01*
X93280736Y-94993946D01*
X93389463Y-94885219D01*
X93450786Y-94851734D01*
X93477144Y-94848900D01*
X93553072Y-94848900D01*
X93553075Y-94848900D01*
X93693085Y-94811384D01*
X93818615Y-94738909D01*
X93921109Y-94636415D01*
X93993584Y-94510885D01*
X94031100Y-94370875D01*
X94031100Y-94225925D01*
X93993584Y-94085915D01*
X93990160Y-94079985D01*
X93921111Y-93960388D01*
X93921106Y-93960382D01*
X93818617Y-93857893D01*
X93818611Y-93857888D01*
X93693088Y-93785417D01*
X93693089Y-93785417D01*
X93647875Y-93773302D01*
X93606060Y-93762097D01*
X93546401Y-93725732D01*
X93515872Y-93662885D01*
X93524167Y-93593510D01*
X93530758Y-93580340D01*
X93594184Y-93470485D01*
X93612024Y-93403904D01*
X93648388Y-93344246D01*
X93711235Y-93313717D01*
X93731798Y-93312000D01*
X93831200Y-93312000D01*
X94331200Y-93312000D01*
X94599254Y-93312000D01*
X94687643Y-93301386D01*
X94828295Y-93245920D01*
X94948766Y-93154563D01*
X94987396Y-93103623D01*
X95043589Y-93062099D01*
X95113310Y-93057548D01*
X95174424Y-93091413D01*
X95185004Y-93103623D01*
X95223633Y-93154563D01*
X95344104Y-93245920D01*
X95484756Y-93301386D01*
X95573146Y-93312000D01*
X95841200Y-93312000D01*
X96341200Y-93312000D01*
X96609254Y-93312000D01*
X96697643Y-93301386D01*
X96838295Y-93245920D01*
X96958764Y-93154564D01*
X97050120Y-93034095D01*
X97105586Y-92893443D01*
X97116200Y-92805053D01*
X97116200Y-92762000D01*
X96341200Y-92762000D01*
X96341200Y-93312000D01*
X95841200Y-93312000D01*
X95841200Y-92762000D01*
X94331200Y-92762000D01*
X94331200Y-93312000D01*
X93831200Y-93312000D01*
X93831200Y-92762000D01*
X93356328Y-92762000D01*
X93301534Y-92747317D01*
X93301199Y-92748128D01*
X93295038Y-92745576D01*
X93294324Y-92745385D01*
X93293685Y-92745016D01*
X93153675Y-92707500D01*
X93008725Y-92707500D01*
X92868715Y-92745016D01*
X92868713Y-92745016D01*
X92868713Y-92745017D01*
X92868076Y-92745385D01*
X92867361Y-92745576D01*
X92861201Y-92748128D01*
X92860865Y-92747317D01*
X92806072Y-92762000D01*
X92331200Y-92762000D01*
X92331200Y-93312000D01*
X92343678Y-93324478D01*
X92377163Y-93385801D01*
X92372179Y-93455493D01*
X92343678Y-93499840D01*
X91598337Y-94245181D01*
X91537014Y-94278666D01*
X91510656Y-94281500D01*
X85149544Y-94281500D01*
X85082505Y-94261815D01*
X85061863Y-94245181D01*
X83621735Y-92805053D01*
X91056200Y-92805053D01*
X91066813Y-92893443D01*
X91122279Y-93034095D01*
X91213635Y-93154564D01*
X91334104Y-93245920D01*
X91474756Y-93301386D01*
X91563146Y-93312000D01*
X91831200Y-93312000D01*
X91831200Y-92762000D01*
X91056200Y-92762000D01*
X91056200Y-92805053D01*
X83621735Y-92805053D01*
X80570212Y-89753530D01*
X80542154Y-89704930D01*
X80541196Y-89705327D01*
X80538179Y-89698046D01*
X80538117Y-89697937D01*
X80538084Y-89697815D01*
X80534795Y-89692118D01*
X80465609Y-89572285D01*
X80363115Y-89469791D01*
X80363113Y-89469790D01*
X80363111Y-89469788D01*
X80237588Y-89397317D01*
X80237589Y-89397317D01*
X80220306Y-89392686D01*
X80097575Y-89359800D01*
X79952625Y-89359800D01*
X79829894Y-89392686D01*
X79812611Y-89397317D01*
X79687088Y-89469788D01*
X79687082Y-89469793D01*
X79584593Y-89572282D01*
X79584588Y-89572288D01*
X79578668Y-89582543D01*
X79528099Y-89630757D01*
X79459491Y-89643977D01*
X79394628Y-89618007D01*
X79383602Y-89608220D01*
X79186619Y-89411237D01*
X79153134Y-89349914D01*
X79150300Y-89323556D01*
X79150300Y-88976658D01*
X79150300Y-88976656D01*
X79126414Y-88887512D01*
X79090034Y-88824499D01*
X79080272Y-88807591D01*
X79080268Y-88807586D01*
X78850007Y-88577325D01*
X80463600Y-88577325D01*
X80463600Y-88722275D01*
X80496613Y-88845479D01*
X80501117Y-88862288D01*
X80573588Y-88987811D01*
X80573590Y-88987813D01*
X80573591Y-88987815D01*
X80676085Y-89090309D01*
X80676086Y-89090310D01*
X80676088Y-89090311D01*
X80801611Y-89162782D01*
X80801612Y-89162782D01*
X80801615Y-89162784D01*
X80941625Y-89200300D01*
X81017556Y-89200300D01*
X81084595Y-89219985D01*
X81105237Y-89236619D01*
X82591094Y-90722475D01*
X84006931Y-92138312D01*
X84072188Y-92203569D01*
X84072191Y-92203570D01*
X84072194Y-92203573D01*
X84152106Y-92249711D01*
X84152107Y-92249711D01*
X84152112Y-92249714D01*
X84241256Y-92273600D01*
X85549014Y-92273600D01*
X85616053Y-92293285D01*
X85636695Y-92309919D01*
X85690385Y-92363609D01*
X85690386Y-92363610D01*
X85690388Y-92363611D01*
X85815911Y-92436082D01*
X85815912Y-92436082D01*
X85815915Y-92436084D01*
X85955925Y-92473600D01*
X85955928Y-92473600D01*
X86100872Y-92473600D01*
X86100875Y-92473600D01*
X86240885Y-92436084D01*
X86366415Y-92363609D01*
X86468909Y-92261115D01*
X86541384Y-92135585D01*
X86578900Y-91995575D01*
X86578900Y-91850625D01*
X86541384Y-91710615D01*
X86535493Y-91700412D01*
X86468911Y-91585088D01*
X86468906Y-91585082D01*
X86366417Y-91482593D01*
X86366411Y-91482588D01*
X86240888Y-91410117D01*
X86240889Y-91410117D01*
X86225431Y-91405975D01*
X86100875Y-91372600D01*
X85955925Y-91372600D01*
X85831369Y-91405975D01*
X85815911Y-91410117D01*
X85690388Y-91482588D01*
X85690382Y-91482593D01*
X85636695Y-91536281D01*
X85575372Y-91569766D01*
X85549014Y-91572600D01*
X84483943Y-91572600D01*
X84416904Y-91552915D01*
X84396262Y-91536281D01*
X81600919Y-88740937D01*
X81567434Y-88679614D01*
X81564600Y-88653256D01*
X81564600Y-88577327D01*
X81564600Y-88577325D01*
X81527084Y-88437315D01*
X81507076Y-88402661D01*
X81454611Y-88311788D01*
X81454606Y-88311782D01*
X81352117Y-88209293D01*
X81352111Y-88209288D01*
X81226588Y-88136817D01*
X81226589Y-88136817D01*
X81215106Y-88133740D01*
X81086575Y-88099300D01*
X80941625Y-88099300D01*
X80813093Y-88133740D01*
X80801611Y-88136817D01*
X80676088Y-88209288D01*
X80676082Y-88209293D01*
X80573593Y-88311782D01*
X80573588Y-88311788D01*
X80501117Y-88437311D01*
X80501116Y-88437315D01*
X80463600Y-88577325D01*
X78850007Y-88577325D01*
X77602019Y-87329337D01*
X77568534Y-87268014D01*
X77565700Y-87241656D01*
X77565700Y-83635758D01*
X77565700Y-83635756D01*
X77541814Y-83546612D01*
X77523164Y-83514309D01*
X77495670Y-83466688D01*
X77495669Y-83466687D01*
X77491606Y-83459649D01*
X77494384Y-83458044D01*
X77474627Y-83406901D01*
X77474200Y-83396615D01*
X77474200Y-82976158D01*
X77474200Y-82976156D01*
X77450314Y-82887012D01*
X77450313Y-82887010D01*
X77448210Y-82879161D01*
X77448983Y-82878953D01*
X77441400Y-82840827D01*
X77441400Y-82829458D01*
X77441400Y-82829456D01*
X77417514Y-82740312D01*
X77417512Y-82740308D01*
X77414900Y-82735784D01*
X77414900Y-82735783D01*
X77414897Y-82735780D01*
X77371370Y-82660388D01*
X77090270Y-82379288D01*
X77071414Y-82351064D01*
X77069879Y-82351951D01*
X77058528Y-82332291D01*
X77058527Y-82332290D01*
X77019672Y-82264991D01*
X77019671Y-82264989D01*
X77019670Y-82264988D01*
X76776619Y-82021937D01*
X76743134Y-81960614D01*
X76740300Y-81934256D01*
X76740300Y-81611043D01*
X76759985Y-81544004D01*
X76776615Y-81523366D01*
X77032467Y-81267513D01*
X77093790Y-81234029D01*
X77163482Y-81239013D01*
X77207841Y-81267525D01*
X77233745Y-81293437D01*
X77233752Y-81293441D01*
X77233787Y-81293468D01*
X77233788Y-81293469D01*
X77234483Y-81293870D01*
X77271859Y-81315450D01*
X77271857Y-81315451D01*
X77271869Y-81315455D01*
X77313248Y-81339354D01*
X77313719Y-81339631D01*
X77313727Y-81339634D01*
X77314895Y-81339931D01*
X77358295Y-81351559D01*
X77417952Y-81387921D01*
X77448483Y-81450767D01*
X77450200Y-81471333D01*
X77450200Y-81612678D01*
X77464732Y-81685735D01*
X77464733Y-81685739D01*
X77482788Y-81712760D01*
X77520099Y-81768601D01*
X77590876Y-81815892D01*
X77602960Y-81823966D01*
X77602964Y-81823967D01*
X77676021Y-81838499D01*
X77676024Y-81838500D01*
X77676026Y-81838500D01*
X78875376Y-81838500D01*
X78875377Y-81838499D01*
X78948440Y-81823966D01*
X79031301Y-81768601D01*
X79086666Y-81685740D01*
X79101200Y-81612674D01*
X79101200Y-80772755D01*
X79120885Y-80705716D01*
X79173689Y-80659961D01*
X79242847Y-80650017D01*
X79306403Y-80679042D01*
X79312881Y-80685074D01*
X80023720Y-81395913D01*
X80407381Y-81779573D01*
X80440866Y-81840896D01*
X80443700Y-81867254D01*
X80443700Y-82077726D01*
X80470993Y-82179589D01*
X80489870Y-82212284D01*
X80523720Y-82270913D01*
X87098287Y-88845480D01*
X87189612Y-88898207D01*
X87291473Y-88925500D01*
X89751945Y-88925500D01*
X89818984Y-88945185D01*
X89839626Y-88961819D01*
X91072121Y-90194314D01*
X91105606Y-90255637D01*
X91107729Y-90295246D01*
X91106060Y-90310784D01*
X91105700Y-90314128D01*
X91105700Y-90909870D01*
X91105701Y-90909876D01*
X91112108Y-90969483D01*
X91162402Y-91104328D01*
X91162406Y-91104335D01*
X91248652Y-91219544D01*
X91248655Y-91219547D01*
X91363864Y-91305793D01*
X91363871Y-91305797D01*
X91395557Y-91317615D01*
X91473361Y-91346634D01*
X91491363Y-91353348D01*
X91547297Y-91395219D01*
X91567804Y-91437435D01*
X91581214Y-91487481D01*
X91581217Y-91487488D01*
X91607320Y-91532699D01*
X91623793Y-91600599D01*
X91600941Y-91666626D01*
X91546020Y-91709816D01*
X91514718Y-91717814D01*
X91474760Y-91722612D01*
X91334104Y-91778079D01*
X91213635Y-91869435D01*
X91122279Y-91989904D01*
X91066813Y-92130556D01*
X91056200Y-92218946D01*
X91056200Y-92262000D01*
X93831200Y-92262000D01*
X94331200Y-92262000D01*
X95841200Y-92262000D01*
X96341200Y-92262000D01*
X97116200Y-92262000D01*
X97116200Y-92218946D01*
X97105586Y-92130556D01*
X97050120Y-91989904D01*
X96958764Y-91869435D01*
X96838295Y-91778079D01*
X96697643Y-91722613D01*
X96609254Y-91712000D01*
X96341200Y-91712000D01*
X96341200Y-92262000D01*
X95841200Y-92262000D01*
X95841200Y-91712000D01*
X95573146Y-91712000D01*
X95484756Y-91722613D01*
X95344104Y-91778079D01*
X95223632Y-91869437D01*
X95185003Y-91920377D01*
X95128810Y-91961900D01*
X95059089Y-91966451D01*
X94997975Y-91932585D01*
X94987397Y-91920377D01*
X94948767Y-91869437D01*
X94828295Y-91778079D01*
X94687643Y-91722613D01*
X94599254Y-91712000D01*
X94331200Y-91712000D01*
X94331200Y-92262000D01*
X93831200Y-92262000D01*
X93831200Y-91712000D01*
X93563146Y-91712000D01*
X93474756Y-91722613D01*
X93334104Y-91778079D01*
X93213635Y-91869435D01*
X93180004Y-91913784D01*
X93123811Y-91955307D01*
X93054090Y-91959858D01*
X92992976Y-91925993D01*
X92982396Y-91913784D01*
X92948764Y-91869435D01*
X92828295Y-91778079D01*
X92687642Y-91722613D01*
X92671997Y-91720735D01*
X92607782Y-91693198D01*
X92568649Y-91635316D01*
X92567021Y-91565465D01*
X92579394Y-91535618D01*
X92582607Y-91530053D01*
X97381200Y-91530053D01*
X97391813Y-91618443D01*
X97447279Y-91759095D01*
X97538635Y-91879564D01*
X97659104Y-91970920D01*
X97799756Y-92026386D01*
X97888146Y-92037000D01*
X97931200Y-92037000D01*
X97931200Y-91262000D01*
X97381200Y-91262000D01*
X97381200Y-91530053D01*
X92582607Y-91530053D01*
X92607184Y-91487485D01*
X92623481Y-91426662D01*
X92659844Y-91367003D01*
X92699921Y-91342574D01*
X92777658Y-91313581D01*
X92798526Y-91305798D01*
X92798526Y-91305797D01*
X92798531Y-91305796D01*
X92913746Y-91219546D01*
X92981934Y-91128457D01*
X93037867Y-91086588D01*
X93107559Y-91081604D01*
X93168882Y-91115089D01*
X93180461Y-91128452D01*
X93248654Y-91219546D01*
X93284393Y-91246300D01*
X93363864Y-91305793D01*
X93363871Y-91305797D01*
X93498717Y-91356091D01*
X93498716Y-91356091D01*
X93505644Y-91356835D01*
X93558327Y-91362500D01*
X94511089Y-91362499D01*
X94573087Y-91379110D01*
X94631758Y-91412984D01*
X94771768Y-91450500D01*
X94771771Y-91450500D01*
X94916715Y-91450500D01*
X94916718Y-91450500D01*
X95056728Y-91412984D01*
X95182258Y-91340509D01*
X95208164Y-91314602D01*
X95269486Y-91281117D01*
X95339178Y-91286101D01*
X95370153Y-91303014D01*
X95373869Y-91305796D01*
X95485528Y-91347442D01*
X95508717Y-91356091D01*
X95508716Y-91356091D01*
X95515644Y-91356835D01*
X95568327Y-91362500D01*
X96614072Y-91362499D01*
X96673683Y-91356091D01*
X96808531Y-91305796D01*
X96923746Y-91219546D01*
X96976332Y-91149300D01*
X96986045Y-91136326D01*
X96993715Y-91126079D01*
X97009996Y-91104331D01*
X97060291Y-90969483D01*
X97066700Y-90909873D01*
X97066699Y-90314128D01*
X97066552Y-90312761D01*
X97066608Y-90312446D01*
X97066521Y-90310805D01*
X97066908Y-90310784D01*
X97078954Y-90244002D01*
X97126561Y-90192862D01*
X97189841Y-90175500D01*
X97300343Y-90175500D01*
X97367382Y-90195185D01*
X97413137Y-90247989D01*
X97423081Y-90317147D01*
X97415698Y-90344989D01*
X97391814Y-90405555D01*
X97381200Y-90493946D01*
X97381200Y-90762000D01*
X98959143Y-90762000D01*
X99026182Y-90781685D01*
X99071937Y-90834489D01*
X99078916Y-90853901D01*
X99081216Y-90862485D01*
X99081217Y-90862488D01*
X99153688Y-90988011D01*
X99153690Y-90988013D01*
X99153691Y-90988015D01*
X99256185Y-91090509D01*
X99256186Y-91090510D01*
X99256188Y-91090511D01*
X99268696Y-91097732D01*
X99316914Y-91148297D01*
X99330700Y-91205121D01*
X99330700Y-91279595D01*
X99311015Y-91346634D01*
X99258211Y-91392389D01*
X99189053Y-91402333D01*
X99174608Y-91399370D01*
X99119858Y-91384700D01*
X99119857Y-91384700D01*
X99105200Y-91384700D01*
X99038161Y-91365015D01*
X98992406Y-91312211D01*
X98981561Y-91262361D01*
X98981200Y-91262000D01*
X98431200Y-91262000D01*
X98431200Y-92052402D01*
X98442253Y-92071546D01*
X98481223Y-92216983D01*
X98481226Y-92216990D01*
X98560273Y-92353906D01*
X98560277Y-92353912D01*
X98560280Y-92353916D01*
X98560282Y-92353918D01*
X98564672Y-92359638D01*
X98589869Y-92424806D01*
X98590300Y-92435130D01*
X98590300Y-93382809D01*
X98600680Y-93421549D01*
X98609670Y-93455099D01*
X98609671Y-93455102D01*
X98620999Y-93497385D01*
X98639206Y-93528919D01*
X98680311Y-93600114D01*
X98680313Y-93600116D01*
X99493211Y-94413014D01*
X99526696Y-94474337D01*
X99521712Y-94544029D01*
X99479842Y-94599961D01*
X99373652Y-94679455D01*
X99287406Y-94794664D01*
X99287402Y-94794671D01*
X99237108Y-94929517D01*
X99230701Y-94989116D01*
X99230700Y-94989135D01*
X99230700Y-95872528D01*
X99211015Y-95939567D01*
X99158211Y-95985322D01*
X99138794Y-95992303D01*
X99043501Y-96017837D01*
X99037294Y-96019500D01*
X98967444Y-96017837D01*
X98909581Y-95978675D01*
X98882077Y-95914446D01*
X98881200Y-95899725D01*
X98881200Y-95762000D01*
X98331200Y-95762000D01*
X98331200Y-96537000D01*
X98374254Y-96537000D01*
X98462646Y-96526385D01*
X98528901Y-96500258D01*
X98598487Y-96493976D01*
X98660424Y-96526312D01*
X98695045Y-96587001D01*
X98697330Y-96599425D01*
X98698099Y-96605271D01*
X98698100Y-96605274D01*
X98698100Y-96605275D01*
X98735432Y-96744600D01*
X98735617Y-96745288D01*
X98808088Y-96870811D01*
X98808090Y-96870813D01*
X98808091Y-96870815D01*
X98910585Y-96973309D01*
X98910586Y-96973310D01*
X98910588Y-96973311D01*
X99036111Y-97045782D01*
X99036112Y-97045782D01*
X99036115Y-97045784D01*
X99176125Y-97083300D01*
X99176128Y-97083300D01*
X99321072Y-97083300D01*
X99321075Y-97083300D01*
X99461085Y-97045784D01*
X99586615Y-96973309D01*
X99689109Y-96870815D01*
X99761584Y-96745285D01*
X99799100Y-96605275D01*
X99799100Y-96605271D01*
X99800161Y-96597215D01*
X99803177Y-96597612D01*
X99818785Y-96544460D01*
X99871589Y-96498705D01*
X99923100Y-96487499D01*
X100279071Y-96487499D01*
X100279072Y-96487499D01*
X100338683Y-96481091D01*
X100473531Y-96430796D01*
X100588746Y-96344546D01*
X100594929Y-96336287D01*
X100650864Y-96294417D01*
X100694194Y-96286600D01*
X101316156Y-96286600D01*
X101383195Y-96306285D01*
X101403837Y-96322919D01*
X104890781Y-99809862D01*
X104924266Y-99871185D01*
X104927100Y-99897543D01*
X104927100Y-99973475D01*
X104964520Y-100113127D01*
X104964617Y-100113488D01*
X105037088Y-100239011D01*
X105037090Y-100239013D01*
X105037091Y-100239015D01*
X105139585Y-100341509D01*
X105139586Y-100341510D01*
X105139588Y-100341511D01*
X105265111Y-100413982D01*
X105265112Y-100413982D01*
X105265115Y-100413984D01*
X105405125Y-100451500D01*
X105405128Y-100451500D01*
X105550072Y-100451500D01*
X105550075Y-100451500D01*
X105690085Y-100413984D01*
X105815615Y-100341509D01*
X105918109Y-100239015D01*
X105990584Y-100113485D01*
X106028100Y-99973475D01*
X106028100Y-99828525D01*
X105990584Y-99688515D01*
X105989180Y-99686084D01*
X105918111Y-99562988D01*
X105918106Y-99562982D01*
X105815617Y-99460493D01*
X105815611Y-99460488D01*
X105683047Y-99383952D01*
X105684775Y-99380958D01*
X105642781Y-99347142D01*
X105620693Y-99280855D01*
X105637948Y-99213150D01*
X105656924Y-99188711D01*
X105710820Y-99134816D01*
X105789877Y-98997884D01*
X105830800Y-98845157D01*
X105830800Y-98687043D01*
X105789877Y-98534316D01*
X105741724Y-98450912D01*
X105710824Y-98397390D01*
X105710818Y-98397382D01*
X105599017Y-98285581D01*
X105599009Y-98285575D01*
X105462090Y-98206526D01*
X105462086Y-98206524D01*
X105462084Y-98206523D01*
X105309357Y-98165600D01*
X105151243Y-98165600D01*
X105151240Y-98165600D01*
X105147237Y-98166127D01*
X105143858Y-98165600D01*
X105143116Y-98165600D01*
X105143116Y-98165484D01*
X105078202Y-98155361D01*
X105043372Y-98130869D01*
X105036684Y-98124181D01*
X105003199Y-98062858D01*
X105008183Y-97993166D01*
X105050055Y-97937233D01*
X105115519Y-97912816D01*
X105124365Y-97912500D01*
X108844714Y-97912500D01*
X108911753Y-97932185D01*
X108932395Y-97948819D01*
X108986085Y-98002509D01*
X108986086Y-98002510D01*
X108986088Y-98002511D01*
X109111611Y-98074982D01*
X109111612Y-98074982D01*
X109111615Y-98074984D01*
X109251625Y-98112500D01*
X109251628Y-98112500D01*
X109396572Y-98112500D01*
X109396575Y-98112500D01*
X109536585Y-98074984D01*
X109662115Y-98002509D01*
X109764609Y-97900015D01*
X109837084Y-97774485D01*
X109874600Y-97634475D01*
X109874600Y-97489525D01*
X109837084Y-97349515D01*
X109833553Y-97343400D01*
X109817081Y-97275501D01*
X109839933Y-97209474D01*
X109894854Y-97166283D01*
X109940941Y-97157400D01*
X110453556Y-97157400D01*
X110520595Y-97177085D01*
X110541237Y-97193719D01*
X111962788Y-98615270D01*
X112040460Y-98660113D01*
X112040462Y-98660116D01*
X112042705Y-98661410D01*
X112042712Y-98661414D01*
X112131856Y-98685300D01*
X112131858Y-98685300D01*
X119903242Y-98685300D01*
X119903244Y-98685300D01*
X119992388Y-98661414D01*
X119994636Y-98660116D01*
X120072312Y-98615270D01*
X120771963Y-97915619D01*
X120833286Y-97882134D01*
X120859644Y-97879300D01*
X120935572Y-97879300D01*
X120935575Y-97879300D01*
X120957507Y-97873423D01*
X121027353Y-97875084D01*
X121085217Y-97914245D01*
X121112723Y-97978472D01*
X121113600Y-97993197D01*
X121113600Y-98690779D01*
X121093915Y-98757818D01*
X121041111Y-98803573D01*
X121037054Y-98805340D01*
X121034211Y-98806517D01*
X120908688Y-98878988D01*
X120908682Y-98878993D01*
X120806193Y-98981482D01*
X120806188Y-98981488D01*
X120733717Y-99107011D01*
X120733716Y-99107015D01*
X120696200Y-99247025D01*
X120696200Y-99391975D01*
X120728360Y-99511997D01*
X120733717Y-99531988D01*
X120806188Y-99657511D01*
X120806190Y-99657513D01*
X120806191Y-99657515D01*
X120908685Y-99760009D01*
X120908686Y-99760010D01*
X120908688Y-99760011D01*
X121034211Y-99832482D01*
X121034212Y-99832482D01*
X121034215Y-99832484D01*
X121174225Y-99870000D01*
X121174228Y-99870000D01*
X121319172Y-99870000D01*
X121319175Y-99870000D01*
X121459185Y-99832484D01*
X121584715Y-99760009D01*
X121687209Y-99657515D01*
X121759684Y-99531985D01*
X121797200Y-99391975D01*
X121797200Y-99247025D01*
X121797200Y-99238896D01*
X121798080Y-99238896D01*
X121800595Y-99200509D01*
X121814600Y-99148244D01*
X121814600Y-97764844D01*
X121834285Y-97697805D01*
X121887089Y-97652050D01*
X121956247Y-97642106D01*
X122019803Y-97671131D01*
X122026281Y-97677163D01*
X122999666Y-98650548D01*
X123033151Y-98711871D01*
X123028167Y-98781563D01*
X122999666Y-98825910D01*
X122990493Y-98835082D01*
X122990488Y-98835088D01*
X122918017Y-98960611D01*
X122918016Y-98960615D01*
X122880500Y-99100625D01*
X122880500Y-99245575D01*
X122918016Y-99385585D01*
X122918017Y-99385588D01*
X122990488Y-99511111D01*
X122990490Y-99511113D01*
X122990491Y-99511115D01*
X123092985Y-99613609D01*
X123092986Y-99613610D01*
X123092988Y-99613611D01*
X123218511Y-99686082D01*
X123218512Y-99686082D01*
X123218515Y-99686084D01*
X123358525Y-99723600D01*
X123358528Y-99723600D01*
X123503472Y-99723600D01*
X123503475Y-99723600D01*
X123643485Y-99686084D01*
X123769015Y-99613609D01*
X123871509Y-99511115D01*
X123943984Y-99385585D01*
X123981500Y-99245575D01*
X123981500Y-99100625D01*
X123943984Y-98960615D01*
X123943009Y-98958927D01*
X123871511Y-98835088D01*
X123871506Y-98835082D01*
X123817819Y-98781395D01*
X123784334Y-98720072D01*
X123781500Y-98693714D01*
X123781500Y-98540058D01*
X123781500Y-98540056D01*
X123757614Y-98450912D01*
X123721292Y-98388000D01*
X123711472Y-98370991D01*
X123711468Y-98370986D01*
X121454113Y-96113631D01*
X121454108Y-96113627D01*
X121373019Y-96066811D01*
X121324804Y-96016245D01*
X121311580Y-95947638D01*
X121337548Y-95882773D01*
X121347330Y-95871751D01*
X127535963Y-89683119D01*
X127597286Y-89649634D01*
X127623644Y-89646800D01*
X127699572Y-89646800D01*
X127699575Y-89646800D01*
X127839585Y-89609284D01*
X127965115Y-89536809D01*
X128067609Y-89434315D01*
X128067613Y-89434307D01*
X128072523Y-89427910D01*
X128128951Y-89386706D01*
X128198697Y-89382551D01*
X128259617Y-89416762D01*
X128292371Y-89478479D01*
X128294900Y-89503395D01*
X128294900Y-93212391D01*
X128275215Y-93279430D01*
X128258581Y-93300072D01*
X126724927Y-94833725D01*
X126724926Y-94833726D01*
X126672314Y-94912468D01*
X126672312Y-94912470D01*
X126653739Y-94940264D01*
X126653733Y-94940275D01*
X126604699Y-95058655D01*
X126604697Y-95058661D01*
X126579700Y-95184328D01*
X126579700Y-95312471D01*
X126603418Y-95431703D01*
X126603418Y-95431706D01*
X126603419Y-95431706D01*
X126603420Y-95431712D01*
X126604699Y-95438144D01*
X126653735Y-95556527D01*
X126724923Y-95663069D01*
X126724926Y-95663073D01*
X126815525Y-95753672D01*
X126815532Y-95753678D01*
X126908207Y-95815601D01*
X126908209Y-95815602D01*
X126922065Y-95824860D01*
X126922070Y-95824863D01*
X126922073Y-95824865D01*
X127040456Y-95873901D01*
X127040460Y-95873901D01*
X127040461Y-95873902D01*
X127166128Y-95898900D01*
X127166131Y-95898900D01*
X127294271Y-95898900D01*
X127378815Y-95882082D01*
X127419944Y-95873901D01*
X127538327Y-95824865D01*
X127543607Y-95821337D01*
X127552191Y-95815602D01*
X127552193Y-95815601D01*
X127621542Y-95769263D01*
X127644869Y-95753677D01*
X129450677Y-93947869D01*
X129521865Y-93841327D01*
X129570901Y-93722944D01*
X129572598Y-93714414D01*
X129595335Y-93600113D01*
X129595900Y-93597271D01*
X129595900Y-87793228D01*
X129570902Y-87667561D01*
X129570901Y-87667560D01*
X129570901Y-87667556D01*
X129558845Y-87638452D01*
X129551377Y-87568983D01*
X129582652Y-87506504D01*
X129642741Y-87470852D01*
X129673407Y-87467000D01*
X133074856Y-87467000D01*
X133141895Y-87486685D01*
X133187650Y-87539489D01*
X133197594Y-87608647D01*
X133168569Y-87672203D01*
X133162537Y-87678681D01*
X132331737Y-88509481D01*
X132270414Y-88542966D01*
X132244056Y-88545800D01*
X132168125Y-88545800D01*
X132050466Y-88577327D01*
X132028111Y-88583317D01*
X131902588Y-88655788D01*
X131902582Y-88655793D01*
X131800093Y-88758282D01*
X131800088Y-88758288D01*
X131727617Y-88883811D01*
X131727616Y-88883815D01*
X131690100Y-89023825D01*
X131690100Y-89168775D01*
X131726945Y-89306281D01*
X131727617Y-89308788D01*
X131800088Y-89434311D01*
X131800090Y-89434313D01*
X131800091Y-89434315D01*
X131902585Y-89536809D01*
X131902586Y-89536810D01*
X131902588Y-89536811D01*
X132028111Y-89609282D01*
X132028112Y-89609282D01*
X132028115Y-89609284D01*
X132168125Y-89646800D01*
X132168128Y-89646800D01*
X132313072Y-89646800D01*
X132313075Y-89646800D01*
X132453085Y-89609284D01*
X132578615Y-89536809D01*
X132681109Y-89434315D01*
X132753584Y-89308785D01*
X132791100Y-89168775D01*
X132791100Y-89092843D01*
X132810785Y-89025804D01*
X132827414Y-89005167D01*
X138898475Y-82934105D01*
X138959796Y-82900622D01*
X139029488Y-82905606D01*
X139085421Y-82947478D01*
X139100714Y-82974333D01*
X139112432Y-83002621D01*
X139112438Y-83002633D01*
X139183623Y-83109168D01*
X139183626Y-83109172D01*
X139274227Y-83199773D01*
X139274231Y-83199776D01*
X139380766Y-83270961D01*
X139380772Y-83270964D01*
X139380773Y-83270965D01*
X139499156Y-83320001D01*
X139499160Y-83320001D01*
X139499161Y-83320002D01*
X139624828Y-83345000D01*
X139624831Y-83345000D01*
X139752971Y-83345000D01*
X139837515Y-83328182D01*
X139878644Y-83320001D01*
X139997027Y-83270965D01*
X140103569Y-83199776D01*
X140194176Y-83109169D01*
X140265365Y-83002627D01*
X140314401Y-82884244D01*
X140324057Y-82835700D01*
X140339400Y-82758571D01*
X140339400Y-82639386D01*
X140359085Y-82572347D01*
X140375719Y-82551705D01*
X143978538Y-78948886D01*
X147612509Y-75314914D01*
X147673830Y-75281431D01*
X147675884Y-75281002D01*
X147684944Y-75279201D01*
X147803327Y-75230165D01*
X147909869Y-75158976D01*
X148000476Y-75068369D01*
X148071665Y-74961827D01*
X148120701Y-74843444D01*
X148144105Y-74725788D01*
X148145700Y-74717771D01*
X148145700Y-73014628D01*
X148120702Y-72888961D01*
X148120701Y-72888960D01*
X148120701Y-72888956D01*
X148071665Y-72770573D01*
X148071664Y-72770572D01*
X148071661Y-72770566D01*
X148000476Y-72664031D01*
X148000473Y-72664027D01*
X147909872Y-72573426D01*
X147909868Y-72573423D01*
X147834553Y-72523099D01*
X147789748Y-72469487D01*
X147781041Y-72400162D01*
X147811195Y-72337134D01*
X147815722Y-72332358D01*
X148205769Y-71942312D01*
X148251914Y-71862388D01*
X148275800Y-71773244D01*
X148275800Y-71707502D01*
X148295485Y-71640463D01*
X148348289Y-71594708D01*
X148417447Y-71584764D01*
X148472690Y-71607187D01*
X148479571Y-71612186D01*
X148637349Y-71692578D01*
X148637352Y-71692580D01*
X148805760Y-71747298D01*
X148980656Y-71775000D01*
X149157744Y-71775000D01*
X149332639Y-71747298D01*
X149501047Y-71692580D01*
X149501050Y-71692578D01*
X149658833Y-71612184D01*
X149669834Y-71604189D01*
X149669835Y-71604189D01*
X149239433Y-71173787D01*
X149281492Y-71162518D01*
X149406908Y-71090110D01*
X149509310Y-70987708D01*
X149581718Y-70862292D01*
X149592987Y-70820233D01*
X150023389Y-71250635D01*
X150023389Y-71250634D01*
X150031384Y-71239633D01*
X150111778Y-71081850D01*
X150111780Y-71081847D01*
X150166498Y-70913439D01*
X150194200Y-70738544D01*
X150194200Y-70561455D01*
X150166498Y-70386560D01*
X150111780Y-70218152D01*
X150111779Y-70218149D01*
X150031385Y-70060368D01*
X150023389Y-70049364D01*
X149592987Y-70479765D01*
X149581718Y-70437708D01*
X149509310Y-70312292D01*
X149406908Y-70209890D01*
X149281492Y-70137482D01*
X149239433Y-70126212D01*
X149669835Y-69695810D01*
X149669834Y-69695809D01*
X149658835Y-69687816D01*
X149658821Y-69687808D01*
X149501055Y-69607423D01*
X149501047Y-69607419D01*
X149332639Y-69552701D01*
X149157744Y-69525000D01*
X148980656Y-69525000D01*
X148805760Y-69552701D01*
X148637352Y-69607419D01*
X148637349Y-69607421D01*
X148479567Y-69687814D01*
X148472684Y-69692816D01*
X148406877Y-69716295D01*
X148338823Y-69700468D01*
X148290129Y-69650362D01*
X148275800Y-69592497D01*
X148275800Y-68990443D01*
X148295485Y-68923404D01*
X148312115Y-68902766D01*
X148536070Y-68678810D01*
X148597391Y-68645327D01*
X148662065Y-68648561D01*
X148725334Y-68669119D01*
X148817352Y-68699018D01*
X148984551Y-68725500D01*
X148984556Y-68725500D01*
X149153849Y-68725500D01*
X149321047Y-68699018D01*
X149340867Y-68692578D01*
X149482049Y-68646705D01*
X149632885Y-68569850D01*
X149769841Y-68470346D01*
X149889546Y-68350641D01*
X149903081Y-68332012D01*
X149958410Y-68289346D01*
X150028023Y-68283365D01*
X150089819Y-68315970D01*
X150124177Y-68376809D01*
X150127400Y-68404896D01*
X150127400Y-69604844D01*
X150128090Y-69607419D01*
X150140391Y-69653329D01*
X150151285Y-69693985D01*
X150151287Y-69693990D01*
X150197427Y-69773908D01*
X150197431Y-69773913D01*
X150540387Y-70116869D01*
X150573872Y-70178192D01*
X150570637Y-70242868D01*
X150520182Y-70398148D01*
X150520182Y-70398151D01*
X150493700Y-70565350D01*
X150493700Y-70734649D01*
X150520181Y-70901847D01*
X150572496Y-71062853D01*
X150619716Y-71155525D01*
X150648301Y-71211627D01*
X150649352Y-71213688D01*
X150748848Y-71350634D01*
X150748852Y-71350639D01*
X150868560Y-71470347D01*
X150868565Y-71470351D01*
X150921046Y-71508480D01*
X151005515Y-71569850D01*
X151101625Y-71618820D01*
X151156346Y-71646703D01*
X151156348Y-71646703D01*
X151156351Y-71646705D01*
X151242650Y-71674745D01*
X151317352Y-71699018D01*
X151484551Y-71725500D01*
X151484556Y-71725500D01*
X151653849Y-71725500D01*
X151821047Y-71699018D01*
X151842797Y-71691951D01*
X151982049Y-71646705D01*
X152132885Y-71569850D01*
X152269841Y-71470346D01*
X152389546Y-71350641D01*
X152489050Y-71213685D01*
X152565905Y-71062849D01*
X152618218Y-70901847D01*
X152625000Y-70859026D01*
X152644700Y-70734649D01*
X152644700Y-70565350D01*
X152618218Y-70398152D01*
X152584202Y-70293462D01*
X152565905Y-70237151D01*
X152565903Y-70237148D01*
X152565903Y-70237146D01*
X152538020Y-70182425D01*
X152489050Y-70086315D01*
X152473610Y-70065064D01*
X152389551Y-69949365D01*
X152389547Y-69949360D01*
X152269839Y-69829652D01*
X152269834Y-69829648D01*
X152132888Y-69730152D01*
X152132887Y-69730151D01*
X152132885Y-69730150D01*
X152074631Y-69700468D01*
X151982053Y-69653296D01*
X151821047Y-69600981D01*
X151653849Y-69574500D01*
X151653844Y-69574500D01*
X151484556Y-69574500D01*
X151484551Y-69574500D01*
X151317351Y-69600982D01*
X151317348Y-69600982D01*
X151162068Y-69651437D01*
X151092227Y-69653432D01*
X151036069Y-69621187D01*
X150864719Y-69449837D01*
X150831234Y-69388514D01*
X150828400Y-69362156D01*
X150828400Y-68737511D01*
X150848085Y-68670472D01*
X150900889Y-68624717D01*
X150970047Y-68614773D01*
X151008695Y-68627026D01*
X151137349Y-68692579D01*
X151137352Y-68692580D01*
X151305760Y-68747298D01*
X151480656Y-68775000D01*
X151657744Y-68775000D01*
X151832639Y-68747298D01*
X152001047Y-68692580D01*
X152001050Y-68692578D01*
X152158833Y-68612184D01*
X152169834Y-68604189D01*
X152169835Y-68604189D01*
X151739433Y-68173787D01*
X151781492Y-68162518D01*
X151906908Y-68090110D01*
X152009310Y-67987708D01*
X152081718Y-67862292D01*
X152092987Y-67820233D01*
X152523389Y-68250635D01*
X152523389Y-68250634D01*
X152531384Y-68239633D01*
X152611778Y-68081850D01*
X152611780Y-68081847D01*
X152666498Y-67913439D01*
X152694200Y-67738544D01*
X152694200Y-67561455D01*
X152666498Y-67386560D01*
X152611780Y-67218152D01*
X152611779Y-67218149D01*
X152552646Y-67102095D01*
X152539750Y-67033426D01*
X152566026Y-66968685D01*
X152623133Y-66928428D01*
X152663131Y-66921800D01*
X153030825Y-66921800D01*
X153097864Y-66941485D01*
G37*
%TD.AperFunction*%
%TA.AperFunction,Conductor*%
G36*
X59844717Y-88373720D02*
G01*
X59877471Y-88435436D01*
X59880000Y-88460353D01*
X59880000Y-92112645D01*
X59895927Y-92172087D01*
X59903884Y-92201783D01*
X59903887Y-92201790D01*
X59950027Y-92281708D01*
X59950031Y-92281713D01*
X62806637Y-95138319D01*
X62840122Y-95199642D01*
X62835138Y-95269334D01*
X62793266Y-95325267D01*
X62727802Y-95349684D01*
X62718956Y-95350000D01*
X54832600Y-95350000D01*
X54765561Y-95330315D01*
X54719806Y-95277511D01*
X54708600Y-95226000D01*
X54708600Y-90533786D01*
X54728285Y-90466747D01*
X54744919Y-90446105D01*
X54769724Y-90421300D01*
X54798609Y-90392415D01*
X54871084Y-90266885D01*
X54908600Y-90126875D01*
X54908600Y-89981925D01*
X54871084Y-89841915D01*
X54871026Y-89841815D01*
X54798611Y-89716388D01*
X54798606Y-89716382D01*
X54696117Y-89613893D01*
X54696111Y-89613888D01*
X54570588Y-89541417D01*
X54570589Y-89541417D01*
X54524573Y-89529087D01*
X54467285Y-89513736D01*
X54407626Y-89477371D01*
X54377097Y-89414524D01*
X54385392Y-89345149D01*
X54411696Y-89306284D01*
X55281162Y-88436819D01*
X55342485Y-88403334D01*
X55368843Y-88400500D01*
X58735314Y-88400500D01*
X58802353Y-88420185D01*
X58822995Y-88436819D01*
X58876685Y-88490509D01*
X58876686Y-88490510D01*
X58876688Y-88490511D01*
X59002211Y-88562982D01*
X59002212Y-88562982D01*
X59002215Y-88562984D01*
X59142225Y-88600500D01*
X59142228Y-88600500D01*
X59287172Y-88600500D01*
X59287175Y-88600500D01*
X59427185Y-88562984D01*
X59552715Y-88490509D01*
X59655209Y-88388015D01*
X59655213Y-88388007D01*
X59657623Y-88384868D01*
X59660339Y-88382884D01*
X59660956Y-88382268D01*
X59661052Y-88382364D01*
X59714050Y-88343665D01*
X59783796Y-88339509D01*
X59844717Y-88373720D01*
G37*
%TD.AperFunction*%
%TA.AperFunction,Conductor*%
G36*
X104432130Y-90860564D02*
G01*
X104488064Y-90902435D01*
X104512481Y-90967900D01*
X104497629Y-91036173D01*
X104496184Y-91038745D01*
X104472418Y-91079907D01*
X104472417Y-91079910D01*
X104458050Y-91133530D01*
X104434900Y-91219925D01*
X104434900Y-91219927D01*
X104434900Y-91364878D01*
X104437313Y-91373882D01*
X104437314Y-91438065D01*
X104435200Y-91445953D01*
X104435200Y-92452256D01*
X104415515Y-92519295D01*
X104398881Y-92539937D01*
X104094881Y-92843937D01*
X104033558Y-92877422D01*
X103963866Y-92872438D01*
X103907933Y-92830566D01*
X103883516Y-92765102D01*
X103883200Y-92756256D01*
X103883200Y-91358344D01*
X103902885Y-91291305D01*
X103919519Y-91270663D01*
X104110275Y-91079907D01*
X104301118Y-90889063D01*
X104362439Y-90855580D01*
X104432130Y-90860564D01*
G37*
%TD.AperFunction*%
%TA.AperFunction,Conductor*%
G36*
X112122984Y-67691785D02*
G01*
X112178917Y-67733657D01*
X112202123Y-67788569D01*
X112221900Y-67913438D01*
X112276619Y-68081847D01*
X112276623Y-68081855D01*
X112357008Y-68239621D01*
X112357016Y-68239635D01*
X112365009Y-68250634D01*
X112365010Y-68250635D01*
X112795412Y-67820232D01*
X112806682Y-67862292D01*
X112879090Y-67987708D01*
X112981492Y-68090110D01*
X113106908Y-68162518D01*
X113148966Y-68173787D01*
X112718564Y-68604189D01*
X112729568Y-68612185D01*
X112887349Y-68692579D01*
X112887355Y-68692581D01*
X113058917Y-68748324D01*
X113116593Y-68787761D01*
X113143792Y-68852119D01*
X113131878Y-68920966D01*
X113108281Y-68953936D01*
X112890827Y-69171390D01*
X112835239Y-69203484D01*
X112763150Y-69222800D01*
X112763149Y-69222800D01*
X112756113Y-69224684D01*
X112756113Y-69224685D01*
X112676191Y-69270827D01*
X112676186Y-69270831D01*
X111684132Y-70262885D01*
X111684130Y-70262887D01*
X111684130Y-70262888D01*
X111652202Y-70318189D01*
X111652201Y-70318189D01*
X111637987Y-70342809D01*
X111637986Y-70342812D01*
X111614100Y-70431956D01*
X111614100Y-75321214D01*
X111594415Y-75388253D01*
X111577781Y-75408895D01*
X111520010Y-75466666D01*
X111458687Y-75500151D01*
X111388995Y-75495167D01*
X111344648Y-75466666D01*
X110481919Y-74603937D01*
X110448434Y-74542614D01*
X110445600Y-74516256D01*
X110445600Y-71763486D01*
X110465285Y-71696447D01*
X110481919Y-71675805D01*
X110490761Y-71666963D01*
X110535609Y-71622115D01*
X110608084Y-71496585D01*
X110645600Y-71356575D01*
X110645600Y-71211625D01*
X110608084Y-71071615D01*
X110603025Y-71062853D01*
X110535611Y-70946088D01*
X110535606Y-70946082D01*
X110433117Y-70843593D01*
X110433111Y-70843588D01*
X110307588Y-70771117D01*
X110307589Y-70771117D01*
X110296106Y-70768040D01*
X110167575Y-70733600D01*
X110022625Y-70733600D01*
X109894093Y-70768040D01*
X109882611Y-70771117D01*
X109757088Y-70843588D01*
X109757082Y-70843593D01*
X109654593Y-70946082D01*
X109654588Y-70946088D01*
X109582117Y-71071611D01*
X109579372Y-71081855D01*
X109544600Y-71211625D01*
X109544600Y-71356575D01*
X109575087Y-71470351D01*
X109582117Y-71496588D01*
X109654588Y-71622111D01*
X109654593Y-71622117D01*
X109708281Y-71675805D01*
X109741766Y-71737128D01*
X109744600Y-71763486D01*
X109744600Y-74758943D01*
X109764170Y-74831982D01*
X109768485Y-74848085D01*
X109768487Y-74848090D01*
X109814627Y-74928008D01*
X109814629Y-74928011D01*
X109814630Y-74928012D01*
X111572288Y-76685670D01*
X111639544Y-76724500D01*
X111651988Y-76731685D01*
X111652212Y-76731814D01*
X111741356Y-76755700D01*
X111741358Y-76755700D01*
X112202642Y-76755700D01*
X112202644Y-76755700D01*
X112291788Y-76731814D01*
X112304456Y-76724500D01*
X112371712Y-76685670D01*
X113452963Y-75604419D01*
X113514286Y-75570934D01*
X113540644Y-75568100D01*
X114389600Y-75568100D01*
X114456639Y-75587785D01*
X114502394Y-75640589D01*
X114513600Y-75692100D01*
X114513600Y-75699925D01*
X114513600Y-75844875D01*
X114547790Y-75972472D01*
X114551117Y-75984888D01*
X114623588Y-76110411D01*
X114623593Y-76110417D01*
X114677281Y-76164105D01*
X114710766Y-76225428D01*
X114713600Y-76251786D01*
X114713600Y-79006551D01*
X114693915Y-79073590D01*
X114641111Y-79119345D01*
X114571953Y-79129289D01*
X114508397Y-79100264D01*
X114470623Y-79041486D01*
X114467983Y-79030743D01*
X114441059Y-78895393D01*
X114441058Y-78895392D01*
X114441058Y-78895388D01*
X114441056Y-78895383D01*
X114384487Y-78758812D01*
X114384480Y-78758799D01*
X114302351Y-78635885D01*
X114302348Y-78635881D01*
X114197818Y-78531351D01*
X114197814Y-78531348D01*
X114074900Y-78449219D01*
X114074887Y-78449212D01*
X113938316Y-78392643D01*
X113938306Y-78392640D01*
X113793319Y-78363800D01*
X113793317Y-78363800D01*
X113645482Y-78363800D01*
X113645480Y-78363800D01*
X113500492Y-78392640D01*
X113500482Y-78392643D01*
X113363911Y-78449212D01*
X113363898Y-78449219D01*
X113240984Y-78531348D01*
X113240980Y-78531351D01*
X109560048Y-82212283D01*
X109549424Y-82228184D01*
X109514916Y-82279831D01*
X109477914Y-82335207D01*
X109477913Y-82335209D01*
X109421343Y-82471782D01*
X109421340Y-82471792D01*
X109392500Y-82616779D01*
X109392500Y-82616782D01*
X109392500Y-84988718D01*
X109392500Y-84988720D01*
X109392499Y-84988720D01*
X109421340Y-85133707D01*
X109421343Y-85133717D01*
X109477912Y-85270288D01*
X109477919Y-85270301D01*
X109560048Y-85393215D01*
X109560051Y-85393219D01*
X109664580Y-85497748D01*
X109664584Y-85497751D01*
X109787498Y-85579880D01*
X109787511Y-85579887D01*
X109924082Y-85636456D01*
X109924087Y-85636458D01*
X109924091Y-85636458D01*
X109924092Y-85636459D01*
X110069079Y-85665300D01*
X110069082Y-85665300D01*
X110216920Y-85665300D01*
X110341125Y-85640593D01*
X110361913Y-85636458D01*
X110498495Y-85579884D01*
X110621416Y-85497751D01*
X110725951Y-85393216D01*
X110808084Y-85270295D01*
X110813304Y-85257694D01*
X110832515Y-85211314D01*
X110864658Y-85133713D01*
X110878428Y-85064490D01*
X110893500Y-84988720D01*
X110893500Y-83052928D01*
X110913185Y-82985889D01*
X110929814Y-82965252D01*
X114020569Y-79874496D01*
X114081890Y-79841013D01*
X114151582Y-79845997D01*
X114207515Y-79887869D01*
X114228022Y-79930083D01*
X114252975Y-80023206D01*
X114254417Y-80028588D01*
X114326888Y-80154111D01*
X114326893Y-80154117D01*
X114432715Y-80259939D01*
X114466200Y-80321262D01*
X114461216Y-80390954D01*
X114432715Y-80435301D01*
X113415831Y-81452186D01*
X113415825Y-81452194D01*
X113380670Y-81513086D01*
X113380670Y-81513087D01*
X113369686Y-81532110D01*
X113345800Y-81621256D01*
X113345800Y-82784314D01*
X113326115Y-82851353D01*
X113309481Y-82871995D01*
X113255793Y-82925682D01*
X113255788Y-82925688D01*
X113183317Y-83051211D01*
X113183316Y-83051215D01*
X113145800Y-83191225D01*
X113145800Y-83336175D01*
X113145801Y-83336178D01*
X113146861Y-83344229D01*
X113143909Y-83344617D01*
X113142591Y-83400225D01*
X113112156Y-83450161D01*
X105604601Y-90957715D01*
X105543278Y-90991200D01*
X105473586Y-90986216D01*
X105429239Y-90957715D01*
X105323417Y-90851893D01*
X105323411Y-90851888D01*
X105197888Y-90779417D01*
X105197889Y-90779417D01*
X105186406Y-90776340D01*
X105057875Y-90741900D01*
X104912925Y-90741900D01*
X104814508Y-90768270D01*
X104772910Y-90779417D01*
X104772907Y-90779418D01*
X104731745Y-90803184D01*
X104663845Y-90819657D01*
X104597818Y-90796804D01*
X104554628Y-90741883D01*
X104547987Y-90672329D01*
X104580003Y-90610227D01*
X104582022Y-90608159D01*
X105507270Y-89682912D01*
X105553414Y-89602988D01*
X105558135Y-89585369D01*
X105560757Y-89575586D01*
X105567288Y-89551209D01*
X105577300Y-89513844D01*
X105577300Y-86992656D01*
X105596985Y-86925617D01*
X105649789Y-86879862D01*
X105718947Y-86869918D01*
X105782503Y-86898943D01*
X105804402Y-86923765D01*
X105889410Y-87050988D01*
X105889413Y-87050992D01*
X106000907Y-87162486D01*
X106000911Y-87162489D01*
X106132014Y-87250090D01*
X106132027Y-87250097D01*
X106277698Y-87310435D01*
X106277703Y-87310437D01*
X106432353Y-87341199D01*
X106432356Y-87341200D01*
X106432358Y-87341200D01*
X106590044Y-87341200D01*
X106590045Y-87341199D01*
X106744697Y-87310437D01*
X106890379Y-87250094D01*
X107021489Y-87162489D01*
X107132989Y-87050989D01*
X107220594Y-86919879D01*
X107222485Y-86915315D01*
X107274480Y-86789785D01*
X107280937Y-86774197D01*
X107311700Y-86619542D01*
X107311700Y-86461858D01*
X107311700Y-86461855D01*
X107311699Y-86461853D01*
X107289641Y-86350961D01*
X107280937Y-86307203D01*
X107252805Y-86239285D01*
X107221139Y-86162836D01*
X107211700Y-86115384D01*
X107211700Y-72635716D01*
X107221139Y-72588264D01*
X107250765Y-72516738D01*
X107280392Y-72445210D01*
X107307269Y-72404986D01*
X111991972Y-67720283D01*
X112053292Y-67686801D01*
X112122984Y-67691785D01*
G37*
%TD.AperFunction*%
%TA.AperFunction,Conductor*%
G36*
X77804899Y-58919585D02*
G01*
X77850654Y-58972389D01*
X77860598Y-59041547D01*
X77831573Y-59105103D01*
X77825541Y-59111581D01*
X77105226Y-59831894D01*
X77043903Y-59865379D01*
X76985452Y-59863988D01*
X76978033Y-59862000D01*
X76899219Y-59840882D01*
X76899213Y-59840881D01*
X76899208Y-59840880D01*
X76679847Y-59812001D01*
X76679842Y-59812000D01*
X76679837Y-59812000D01*
X76458563Y-59812000D01*
X76458557Y-59812000D01*
X76458552Y-59812001D01*
X76239191Y-59840880D01*
X76239184Y-59840881D01*
X76239181Y-59840882D01*
X76197253Y-59852116D01*
X76025443Y-59898152D01*
X75821018Y-59982828D01*
X75821007Y-59982833D01*
X75629392Y-60093463D01*
X75629376Y-60093474D01*
X75453837Y-60228169D01*
X75453830Y-60228175D01*
X75297375Y-60384630D01*
X75297369Y-60384637D01*
X75162674Y-60560176D01*
X75162663Y-60560192D01*
X75052033Y-60751807D01*
X75052028Y-60751818D01*
X74967352Y-60956243D01*
X74910083Y-61169978D01*
X74910080Y-61169991D01*
X74881201Y-61389352D01*
X74881200Y-61389369D01*
X74881200Y-61610630D01*
X74881201Y-61610647D01*
X74910080Y-61830008D01*
X74910081Y-61830013D01*
X74910082Y-61830019D01*
X74910083Y-61830021D01*
X74967352Y-62043756D01*
X75052028Y-62248181D01*
X75052033Y-62248192D01*
X75162663Y-62439807D01*
X75162674Y-62439823D01*
X75297369Y-62615362D01*
X75297375Y-62615369D01*
X75453830Y-62771824D01*
X75453836Y-62771829D01*
X75629385Y-62906532D01*
X75629392Y-62906536D01*
X75821007Y-63017166D01*
X75821012Y-63017168D01*
X75821015Y-63017170D01*
X75923230Y-63059509D01*
X76025443Y-63101847D01*
X76025444Y-63101847D01*
X76025446Y-63101848D01*
X76239181Y-63159118D01*
X76458563Y-63188000D01*
X76458570Y-63188000D01*
X76679830Y-63188000D01*
X76679837Y-63188000D01*
X76899219Y-63159118D01*
X77112954Y-63101848D01*
X77317385Y-63017170D01*
X77509015Y-62906532D01*
X77684564Y-62771829D01*
X77841029Y-62615364D01*
X77975732Y-62439815D01*
X78086370Y-62248185D01*
X78171048Y-62043754D01*
X78228318Y-61830019D01*
X78257200Y-61610637D01*
X78257200Y-61389363D01*
X78228318Y-61169981D01*
X78205211Y-61083745D01*
X78206874Y-61013895D01*
X78237303Y-60963973D01*
X79063359Y-60137919D01*
X79124682Y-60104434D01*
X79151040Y-60101600D01*
X79351757Y-60101600D01*
X79418796Y-60121285D01*
X79464551Y-60174089D01*
X79474495Y-60243247D01*
X79445470Y-60306803D01*
X79439438Y-60313281D01*
X79319806Y-60432912D01*
X79319806Y-60432913D01*
X79319804Y-60432915D01*
X79254720Y-60522494D01*
X79168257Y-60641500D01*
X79051207Y-60871221D01*
X78971532Y-61116433D01*
X78931200Y-61371081D01*
X78931200Y-61628918D01*
X78971532Y-61883566D01*
X79051207Y-62128778D01*
X79168257Y-62358499D01*
X79319804Y-62567085D01*
X79502115Y-62749396D01*
X79710701Y-62900943D01*
X79819236Y-62956244D01*
X79940421Y-63017992D01*
X79940423Y-63017992D01*
X79940426Y-63017994D01*
X80070356Y-63060211D01*
X80185633Y-63097667D01*
X80440282Y-63138000D01*
X80440287Y-63138000D01*
X80698118Y-63138000D01*
X80952766Y-63097667D01*
X81197974Y-63017994D01*
X81427699Y-62900943D01*
X81568580Y-62798586D01*
X81634382Y-62775108D01*
X81702436Y-62790933D01*
X81729143Y-62811225D01*
X82202418Y-63284500D01*
X82568238Y-63650319D01*
X82601723Y-63711642D01*
X82596739Y-63781333D01*
X82554867Y-63837267D01*
X82489403Y-63861684D01*
X82480557Y-63862000D01*
X82440282Y-63862000D01*
X82185633Y-63902332D01*
X81940421Y-63982007D01*
X81710700Y-64099057D01*
X81591694Y-64185520D01*
X81502115Y-64250604D01*
X81502113Y-64250606D01*
X81502112Y-64250606D01*
X81319806Y-64432912D01*
X81319806Y-64432913D01*
X81319804Y-64432915D01*
X81254720Y-64522494D01*
X81168257Y-64641500D01*
X81051207Y-64871221D01*
X80971532Y-65116433D01*
X80931200Y-65371081D01*
X80931200Y-65628918D01*
X80971532Y-65883566D01*
X81051207Y-66128778D01*
X81134654Y-66292550D01*
X81168257Y-66358499D01*
X81319804Y-66567085D01*
X81502115Y-66749396D01*
X81710701Y-66900943D01*
X81940426Y-67017994D01*
X82133018Y-67080571D01*
X82190694Y-67120009D01*
X82217892Y-67184367D01*
X82218700Y-67198502D01*
X82218700Y-68612824D01*
X82199015Y-68679863D01*
X82146211Y-68725618D01*
X82077053Y-68735562D01*
X82013497Y-68706537D01*
X81984215Y-68669119D01*
X81970143Y-68641501D01*
X81818596Y-68432915D01*
X81636285Y-68250604D01*
X81427699Y-68099057D01*
X81197978Y-67982007D01*
X80952766Y-67902332D01*
X80698118Y-67862000D01*
X80698113Y-67862000D01*
X80440287Y-67862000D01*
X80440282Y-67862000D01*
X80185633Y-67902332D01*
X79940421Y-67982007D01*
X79710700Y-68099057D01*
X79594986Y-68183129D01*
X79502115Y-68250604D01*
X79502113Y-68250606D01*
X79502112Y-68250606D01*
X79319806Y-68432912D01*
X79319806Y-68432913D01*
X79319804Y-68432915D01*
X79266481Y-68506308D01*
X79168257Y-68641500D01*
X79154185Y-68669119D01*
X79106210Y-68719915D01*
X79038389Y-68736710D01*
X78972254Y-68714173D01*
X78928803Y-68659457D01*
X78919700Y-68612824D01*
X78919700Y-67198502D01*
X78939385Y-67131463D01*
X78992189Y-67085708D01*
X79005382Y-67080571D01*
X79197974Y-67017994D01*
X79427699Y-66900943D01*
X79636285Y-66749396D01*
X79818596Y-66567085D01*
X79970143Y-66358499D01*
X80087194Y-66128774D01*
X80166867Y-65883566D01*
X80207200Y-65628918D01*
X80207200Y-65371081D01*
X80166867Y-65116433D01*
X80117858Y-64965600D01*
X80087194Y-64871226D01*
X80087192Y-64871223D01*
X80087192Y-64871221D01*
X80025444Y-64750036D01*
X79970143Y-64641501D01*
X79818596Y-64432915D01*
X79636285Y-64250604D01*
X79427699Y-64099057D01*
X79389503Y-64079595D01*
X79197978Y-63982007D01*
X78952766Y-63902332D01*
X78698118Y-63862000D01*
X78698113Y-63862000D01*
X78440287Y-63862000D01*
X78440282Y-63862000D01*
X78185633Y-63902332D01*
X77940421Y-63982007D01*
X77710700Y-64099057D01*
X77591694Y-64185520D01*
X77502115Y-64250604D01*
X77502113Y-64250606D01*
X77502112Y-64250606D01*
X77319806Y-64432912D01*
X77319806Y-64432913D01*
X77319804Y-64432915D01*
X77254720Y-64522494D01*
X77168257Y-64641500D01*
X77051207Y-64871221D01*
X76971532Y-65116433D01*
X76931200Y-65371081D01*
X76931200Y-65628918D01*
X76971532Y-65883566D01*
X77051207Y-66128778D01*
X77134654Y-66292550D01*
X77168257Y-66358499D01*
X77319804Y-66567085D01*
X77502115Y-66749396D01*
X77710701Y-66900943D01*
X77940426Y-67017994D01*
X78133018Y-67080571D01*
X78190694Y-67120009D01*
X78217892Y-67184367D01*
X78218700Y-67198502D01*
X78218700Y-68612824D01*
X78199015Y-68679863D01*
X78146211Y-68725618D01*
X78077053Y-68735562D01*
X78013497Y-68706537D01*
X77984215Y-68669119D01*
X77970143Y-68641501D01*
X77818596Y-68432915D01*
X77636285Y-68250604D01*
X77427699Y-68099057D01*
X77197978Y-67982007D01*
X76952766Y-67902332D01*
X76698118Y-67862000D01*
X76698113Y-67862000D01*
X76440287Y-67862000D01*
X76440282Y-67862000D01*
X76185633Y-67902332D01*
X75940421Y-67982007D01*
X75710700Y-68099057D01*
X75594986Y-68183129D01*
X75502115Y-68250604D01*
X75502113Y-68250606D01*
X75502112Y-68250606D01*
X75319806Y-68432912D01*
X75319806Y-68432913D01*
X75319804Y-68432915D01*
X75266481Y-68506308D01*
X75168257Y-68641500D01*
X75154185Y-68669119D01*
X75106210Y-68719915D01*
X75038389Y-68736710D01*
X74972254Y-68714173D01*
X74928803Y-68659457D01*
X74919700Y-68612824D01*
X74919700Y-67198502D01*
X74939385Y-67131463D01*
X74992189Y-67085708D01*
X75005382Y-67080571D01*
X75197974Y-67017994D01*
X75427699Y-66900943D01*
X75636285Y-66749396D01*
X75818596Y-66567085D01*
X75970143Y-66358499D01*
X76087194Y-66128774D01*
X76166867Y-65883566D01*
X76207200Y-65628918D01*
X76207200Y-65371081D01*
X76166867Y-65116433D01*
X76117858Y-64965600D01*
X76087194Y-64871226D01*
X76087192Y-64871223D01*
X76087192Y-64871221D01*
X76025444Y-64750036D01*
X75970143Y-64641501D01*
X75818596Y-64432915D01*
X75636285Y-64250604D01*
X75427699Y-64099057D01*
X75389503Y-64079595D01*
X75197978Y-63982007D01*
X74952766Y-63902332D01*
X74698118Y-63862000D01*
X74698113Y-63862000D01*
X74440287Y-63862000D01*
X74440282Y-63862000D01*
X74185633Y-63902332D01*
X73940421Y-63982007D01*
X73710700Y-64099057D01*
X73591694Y-64185520D01*
X73502115Y-64250604D01*
X73502113Y-64250606D01*
X73502112Y-64250606D01*
X73319806Y-64432912D01*
X73319806Y-64432913D01*
X73319804Y-64432915D01*
X73254720Y-64522494D01*
X73168257Y-64641500D01*
X73051207Y-64871221D01*
X72971532Y-65116433D01*
X72931200Y-65371081D01*
X72931200Y-65628918D01*
X72971532Y-65883566D01*
X73051207Y-66128778D01*
X73134654Y-66292550D01*
X73168257Y-66358499D01*
X73319804Y-66567085D01*
X73502115Y-66749396D01*
X73710701Y-66900943D01*
X73940426Y-67017994D01*
X74133018Y-67080571D01*
X74190694Y-67120009D01*
X74217892Y-67184367D01*
X74218700Y-67198502D01*
X74218700Y-68612824D01*
X74199015Y-68679863D01*
X74146211Y-68725618D01*
X74077053Y-68735562D01*
X74013497Y-68706537D01*
X73984215Y-68669119D01*
X73970143Y-68641501D01*
X73818596Y-68432915D01*
X73636285Y-68250604D01*
X73427699Y-68099057D01*
X73197978Y-67982007D01*
X72952766Y-67902332D01*
X72698118Y-67862000D01*
X72698113Y-67862000D01*
X72440287Y-67862000D01*
X72440282Y-67862000D01*
X72185633Y-67902332D01*
X71940421Y-67982007D01*
X71710700Y-68099057D01*
X71594986Y-68183129D01*
X71502115Y-68250604D01*
X71502113Y-68250606D01*
X71502112Y-68250606D01*
X71319806Y-68432912D01*
X71319806Y-68432913D01*
X71319804Y-68432915D01*
X71266481Y-68506308D01*
X71168257Y-68641500D01*
X71051207Y-68871221D01*
X70971532Y-69116433D01*
X70931200Y-69371081D01*
X70931200Y-69628918D01*
X70971532Y-69883566D01*
X71051207Y-70128778D01*
X71160264Y-70342812D01*
X71168257Y-70358499D01*
X71308231Y-70551157D01*
X71331711Y-70616961D01*
X71315886Y-70685015D01*
X71295594Y-70711722D01*
X66988265Y-75019051D01*
X66926942Y-75052536D01*
X66857251Y-75047552D01*
X66847486Y-75043910D01*
X66847485Y-75043909D01*
X66847483Y-75043909D01*
X66787873Y-75037500D01*
X66787863Y-75037500D01*
X66192129Y-75037500D01*
X66192123Y-75037501D01*
X66132516Y-75043908D01*
X65997671Y-75094202D01*
X65997664Y-75094206D01*
X65882455Y-75180452D01*
X65882452Y-75180455D01*
X65796206Y-75295664D01*
X65796202Y-75295671D01*
X65745908Y-75430517D01*
X65739501Y-75490116D01*
X65739501Y-75490123D01*
X65739500Y-75490135D01*
X65739500Y-76535870D01*
X65739501Y-76535876D01*
X65745908Y-76595483D01*
X65796202Y-76730328D01*
X65796206Y-76730335D01*
X65882452Y-76845544D01*
X65882455Y-76845547D01*
X65997664Y-76931793D01*
X65997671Y-76931797D01*
X66132517Y-76982091D01*
X66132515Y-76982091D01*
X66177532Y-76986931D01*
X66242083Y-77013669D01*
X66251957Y-77022539D01*
X66897390Y-77667972D01*
X66930875Y-77729295D01*
X66925891Y-77798987D01*
X66884019Y-77854920D01*
X66878600Y-77858755D01*
X66805799Y-77907398D01*
X66750433Y-77990260D01*
X66750432Y-77990264D01*
X66735900Y-78063321D01*
X66735900Y-79097880D01*
X66716215Y-79164919D01*
X66663411Y-79210674D01*
X66594253Y-79220618D01*
X66549900Y-79205267D01*
X66431688Y-79137017D01*
X66431689Y-79137017D01*
X66420206Y-79133940D01*
X66291675Y-79099500D01*
X66146725Y-79099500D01*
X66018193Y-79133940D01*
X66006711Y-79137017D01*
X65881188Y-79209488D01*
X65881182Y-79209493D01*
X65778693Y-79311982D01*
X65778688Y-79311988D01*
X65706217Y-79437511D01*
X65706216Y-79437515D01*
X65668700Y-79577525D01*
X65668700Y-79722475D01*
X65690703Y-79804589D01*
X65706217Y-79862488D01*
X65778688Y-79988011D01*
X65778690Y-79988013D01*
X65778691Y-79988015D01*
X65881185Y-80090509D01*
X65881186Y-80090510D01*
X65881188Y-80090511D01*
X66006711Y-80162982D01*
X66006712Y-80162982D01*
X66006715Y-80162984D01*
X66146725Y-80200500D01*
X66146728Y-80200500D01*
X66291672Y-80200500D01*
X66291675Y-80200500D01*
X66431685Y-80162984D01*
X66557215Y-80090509D01*
X66560905Y-80086819D01*
X66622228Y-80053334D01*
X66648586Y-80050500D01*
X66713336Y-80050500D01*
X66780375Y-80070185D01*
X66826130Y-80122989D01*
X66836074Y-80192147D01*
X66811303Y-80246387D01*
X66812585Y-80247244D01*
X66807299Y-80255154D01*
X66807049Y-80255703D01*
X66806638Y-80256144D01*
X66750433Y-80340260D01*
X66750432Y-80340264D01*
X66735900Y-80413321D01*
X66735900Y-81612678D01*
X66750432Y-81685735D01*
X66750433Y-81685739D01*
X66768488Y-81712760D01*
X66805799Y-81768601D01*
X66876576Y-81815892D01*
X66888660Y-81823966D01*
X66888664Y-81823967D01*
X66961721Y-81838499D01*
X66961724Y-81838500D01*
X66961726Y-81838500D01*
X67027400Y-81838500D01*
X67094439Y-81858185D01*
X67140194Y-81910989D01*
X67151400Y-81962500D01*
X67151400Y-84318356D01*
X67131715Y-84385395D01*
X67078911Y-84431150D01*
X67009753Y-84441094D01*
X66946197Y-84412069D01*
X66939719Y-84406037D01*
X65527619Y-82993937D01*
X65494134Y-82932614D01*
X65491300Y-82906256D01*
X65491300Y-82753686D01*
X65510985Y-82686647D01*
X65527619Y-82666005D01*
X65554238Y-82639386D01*
X65581309Y-82612315D01*
X65653784Y-82486785D01*
X65691300Y-82346775D01*
X65691300Y-82201825D01*
X65653784Y-82061815D01*
X65648818Y-82053214D01*
X65581311Y-81936288D01*
X65581306Y-81936282D01*
X65478817Y-81833793D01*
X65478811Y-81833788D01*
X65353288Y-81761317D01*
X65353289Y-81761317D01*
X65328594Y-81754700D01*
X65213275Y-81723800D01*
X65068325Y-81723800D01*
X64970462Y-81750022D01*
X64900612Y-81748359D01*
X64842750Y-81709196D01*
X64815246Y-81644967D01*
X64814966Y-81618091D01*
X64815499Y-81612677D01*
X64815500Y-81612674D01*
X64815500Y-80413326D01*
X64815500Y-80413323D01*
X64815499Y-80413321D01*
X64800967Y-80340264D01*
X64800966Y-80340260D01*
X64791193Y-80325634D01*
X64745601Y-80257399D01*
X64676481Y-80211215D01*
X64662739Y-80202033D01*
X64662735Y-80202032D01*
X64589677Y-80187500D01*
X64589674Y-80187500D01*
X63494900Y-80187500D01*
X63427861Y-80167815D01*
X63382106Y-80115011D01*
X63370900Y-80063500D01*
X63370900Y-79612500D01*
X63390585Y-79545461D01*
X63443389Y-79499706D01*
X63494900Y-79488500D01*
X64589676Y-79488500D01*
X64589677Y-79488499D01*
X64662740Y-79473966D01*
X64745601Y-79418601D01*
X64800966Y-79335740D01*
X64815500Y-79262674D01*
X64815500Y-78063326D01*
X64815500Y-78063323D01*
X64815499Y-78063321D01*
X64800967Y-77990264D01*
X64800966Y-77990260D01*
X64796439Y-77983485D01*
X64745601Y-77907399D01*
X64672799Y-77858755D01*
X64662739Y-77852033D01*
X64662735Y-77852032D01*
X64589677Y-77837500D01*
X64589674Y-77837500D01*
X64464500Y-77837500D01*
X64397461Y-77817815D01*
X64351706Y-77765011D01*
X64340500Y-77713500D01*
X64340500Y-77112499D01*
X64360185Y-77045460D01*
X64412989Y-76999705D01*
X64464500Y-76988499D01*
X64887871Y-76988499D01*
X64887872Y-76988499D01*
X64947483Y-76982091D01*
X65082331Y-76931796D01*
X65197546Y-76845546D01*
X65283796Y-76730331D01*
X65334091Y-76595483D01*
X65340500Y-76535873D01*
X65340499Y-75490128D01*
X65334091Y-75430517D01*
X65317866Y-75387016D01*
X65283797Y-75295671D01*
X65283793Y-75295664D01*
X65197547Y-75180455D01*
X65197544Y-75180452D01*
X65082335Y-75094206D01*
X65082328Y-75094202D01*
X65021167Y-75071391D01*
X64965233Y-75029520D01*
X64940816Y-74964056D01*
X64940500Y-74955209D01*
X64940500Y-71278643D01*
X64960185Y-71211604D01*
X64976814Y-71190967D01*
X66670020Y-69497761D01*
X66731342Y-69464277D01*
X66801034Y-69469261D01*
X66856967Y-69511133D01*
X66881384Y-69576597D01*
X66881700Y-69585443D01*
X66881700Y-69610605D01*
X66910572Y-69829917D01*
X66967827Y-70043593D01*
X67052474Y-70247952D01*
X67052481Y-70247966D01*
X67163084Y-70439536D01*
X67212157Y-70503488D01*
X67760697Y-69954947D01*
X67850705Y-70089653D01*
X67979547Y-70218495D01*
X68114250Y-70308501D01*
X67565710Y-70857040D01*
X67565710Y-70857042D01*
X67629653Y-70906108D01*
X67629670Y-70906119D01*
X67821233Y-71016718D01*
X67821247Y-71016725D01*
X68025606Y-71101372D01*
X68239282Y-71158627D01*
X68458594Y-71187500D01*
X68679806Y-71187500D01*
X68899117Y-71158627D01*
X69112793Y-71101372D01*
X69317152Y-71016725D01*
X69317166Y-71016718D01*
X69508732Y-70906117D01*
X69572688Y-70857041D01*
X69572688Y-70857040D01*
X69024149Y-70308501D01*
X69158853Y-70218495D01*
X69287695Y-70089653D01*
X69377701Y-69954949D01*
X69926240Y-70503488D01*
X69926241Y-70503488D01*
X69975317Y-70439532D01*
X70085918Y-70247966D01*
X70085925Y-70247952D01*
X70170572Y-70043593D01*
X70227827Y-69829917D01*
X70256700Y-69610605D01*
X70256700Y-69389394D01*
X70227827Y-69170082D01*
X70170572Y-68956406D01*
X70085925Y-68752047D01*
X70085918Y-68752033D01*
X69975319Y-68560470D01*
X69975308Y-68560453D01*
X69926242Y-68496510D01*
X69926240Y-68496510D01*
X69377700Y-69045050D01*
X69287695Y-68910347D01*
X69158853Y-68781505D01*
X69024147Y-68691497D01*
X69572688Y-68142957D01*
X69508736Y-68093884D01*
X69317166Y-67983281D01*
X69317152Y-67983274D01*
X69112793Y-67898627D01*
X68899117Y-67841372D01*
X68679806Y-67812500D01*
X68654642Y-67812500D01*
X68587603Y-67792815D01*
X68541848Y-67740011D01*
X68531904Y-67670853D01*
X68560929Y-67607297D01*
X68566944Y-67600836D01*
X69378734Y-66789046D01*
X69440055Y-66755563D01*
X69509747Y-66760547D01*
X69539294Y-66776408D01*
X69710701Y-66900943D01*
X69805732Y-66949364D01*
X69940421Y-67017992D01*
X69940423Y-67017992D01*
X69940426Y-67017994D01*
X70036970Y-67049363D01*
X70185633Y-67097667D01*
X70440282Y-67138000D01*
X70440287Y-67138000D01*
X70698118Y-67138000D01*
X70952766Y-67097667D01*
X71005382Y-67080571D01*
X71197974Y-67017994D01*
X71427699Y-66900943D01*
X71636285Y-66749396D01*
X71818596Y-66567085D01*
X71970143Y-66358499D01*
X72087194Y-66128774D01*
X72166867Y-65883566D01*
X72207200Y-65628918D01*
X72207200Y-65371081D01*
X72166867Y-65116433D01*
X72117858Y-64965600D01*
X72087194Y-64871226D01*
X72087192Y-64871223D01*
X72087192Y-64871221D01*
X72025444Y-64750036D01*
X71970143Y-64641501D01*
X71818596Y-64432915D01*
X71636285Y-64250604D01*
X71427699Y-64099057D01*
X71389503Y-64079595D01*
X71197978Y-63982007D01*
X70952766Y-63902332D01*
X70698118Y-63862000D01*
X70698113Y-63862000D01*
X70542618Y-63862000D01*
X70475579Y-63842315D01*
X70429824Y-63789511D01*
X70419880Y-63720353D01*
X70448905Y-63656797D01*
X70454937Y-63650319D01*
X70791404Y-63313852D01*
X71308813Y-62796443D01*
X71370134Y-62762960D01*
X71439826Y-62767944D01*
X71471978Y-62785750D01*
X71629385Y-62906532D01*
X71629392Y-62906536D01*
X71821007Y-63017166D01*
X71821012Y-63017168D01*
X71821015Y-63017170D01*
X71923230Y-63059509D01*
X72025443Y-63101847D01*
X72025444Y-63101847D01*
X72025446Y-63101848D01*
X72239181Y-63159118D01*
X72458563Y-63188000D01*
X72458570Y-63188000D01*
X72679830Y-63188000D01*
X72679837Y-63188000D01*
X72899219Y-63159118D01*
X73112954Y-63101848D01*
X73317385Y-63017170D01*
X73509015Y-62906532D01*
X73684564Y-62771829D01*
X73841029Y-62615364D01*
X73975732Y-62439815D01*
X74086370Y-62248185D01*
X74171048Y-62043754D01*
X74228318Y-61830019D01*
X74257200Y-61610637D01*
X74257200Y-61389363D01*
X74228318Y-61169981D01*
X74205211Y-61083745D01*
X74206874Y-61013895D01*
X74237303Y-60963973D01*
X76265059Y-58936219D01*
X76326382Y-58902734D01*
X76352740Y-58899900D01*
X77737860Y-58899900D01*
X77804899Y-58919585D01*
G37*
%TD.AperFunction*%
%TA.AperFunction,Conductor*%
G36*
X127090279Y-67721702D02*
G01*
X127141330Y-67752487D01*
X130233428Y-70844585D01*
X130260308Y-70884814D01*
X130320102Y-71029172D01*
X130320109Y-71029185D01*
X130407710Y-71160288D01*
X130407713Y-71160292D01*
X130519207Y-71271786D01*
X130519211Y-71271789D01*
X130650314Y-71359390D01*
X130650327Y-71359397D01*
X130792908Y-71418455D01*
X130796003Y-71419737D01*
X130915809Y-71443568D01*
X130950653Y-71450499D01*
X130950656Y-71450500D01*
X130950658Y-71450500D01*
X145726641Y-71450500D01*
X145793680Y-71470185D01*
X145814322Y-71486819D01*
X145835986Y-71508483D01*
X145979310Y-71612614D01*
X146040861Y-71643976D01*
X146137157Y-71693042D01*
X146137160Y-71693043D01*
X146195887Y-71712124D01*
X146305645Y-71747786D01*
X146480621Y-71775500D01*
X146480622Y-71775500D01*
X146657778Y-71775500D01*
X146657779Y-71775500D01*
X146832755Y-71747786D01*
X147001242Y-71693042D01*
X147159090Y-71612614D01*
X147292382Y-71515771D01*
X147358184Y-71492293D01*
X147426238Y-71508118D01*
X147474933Y-71558223D01*
X147488809Y-71626701D01*
X147463460Y-71691811D01*
X147452945Y-71703772D01*
X146563031Y-72593686D01*
X146563025Y-72593694D01*
X146522417Y-72664031D01*
X146522415Y-72664036D01*
X146516886Y-72673611D01*
X146493000Y-72762756D01*
X146493000Y-73175155D01*
X146473315Y-73242194D01*
X146456681Y-73262836D01*
X145592001Y-74127515D01*
X145530678Y-74161000D01*
X145460986Y-74156016D01*
X145416639Y-74127515D01*
X145309017Y-74019893D01*
X145309011Y-74019888D01*
X145183488Y-73947417D01*
X145183489Y-73947417D01*
X145172006Y-73944340D01*
X145043475Y-73909900D01*
X144898525Y-73909900D01*
X144769993Y-73944340D01*
X144758511Y-73947417D01*
X144632988Y-74019888D01*
X144632982Y-74019893D01*
X144530493Y-74122382D01*
X144530488Y-74122388D01*
X144458017Y-74247911D01*
X144458016Y-74247915D01*
X144420500Y-74387925D01*
X144420500Y-74387927D01*
X144420500Y-74463856D01*
X144400815Y-74530895D01*
X144384181Y-74551537D01*
X144209931Y-74725786D01*
X144209929Y-74725789D01*
X144180820Y-74776209D01*
X144163785Y-74805713D01*
X144139900Y-74894856D01*
X144139900Y-75653355D01*
X144120215Y-75720394D01*
X144103581Y-75741036D01*
X142364596Y-77480020D01*
X142303273Y-77513505D01*
X142233581Y-77508521D01*
X142177648Y-77466649D01*
X142169533Y-77454347D01*
X142159509Y-77436985D01*
X142057015Y-77334491D01*
X142057013Y-77334490D01*
X142057011Y-77334488D01*
X141931488Y-77262017D01*
X141931489Y-77262017D01*
X141913250Y-77257130D01*
X141791475Y-77224500D01*
X141646525Y-77224500D01*
X141524750Y-77257130D01*
X141506511Y-77262017D01*
X141380988Y-77334488D01*
X141380982Y-77334493D01*
X141377295Y-77338181D01*
X141315972Y-77371666D01*
X141289614Y-77374500D01*
X138089363Y-77374500D01*
X138022324Y-77354815D01*
X137981976Y-77312501D01*
X137971198Y-77293834D01*
X137909509Y-77186985D01*
X137807015Y-77084491D01*
X137807013Y-77084490D01*
X137807011Y-77084488D01*
X137681488Y-77012017D01*
X137681489Y-77012017D01*
X137669651Y-77008845D01*
X137541475Y-76974500D01*
X137396525Y-76974500D01*
X137268349Y-77008845D01*
X137256511Y-77012017D01*
X137130988Y-77084488D01*
X137130982Y-77084493D01*
X137028493Y-77186982D01*
X137028491Y-77186985D01*
X136956024Y-77312501D01*
X136905457Y-77360716D01*
X136848637Y-77374500D01*
X134206800Y-77374500D01*
X134139761Y-77354815D01*
X134094006Y-77302011D01*
X134082800Y-77250500D01*
X134082800Y-77100827D01*
X134082800Y-77100825D01*
X134045284Y-76960815D01*
X134045160Y-76960601D01*
X133972811Y-76835288D01*
X133972806Y-76835282D01*
X133870317Y-76732793D01*
X133870311Y-76732788D01*
X133744788Y-76660317D01*
X133744789Y-76660317D01*
X133713003Y-76651800D01*
X133604775Y-76622800D01*
X133459825Y-76622800D01*
X133322308Y-76659647D01*
X133252460Y-76657985D01*
X133202535Y-76627554D01*
X131815181Y-75240199D01*
X131781696Y-75178876D01*
X131786680Y-75109184D01*
X131828552Y-75053251D01*
X131840851Y-75045138D01*
X131842115Y-75044409D01*
X131944609Y-74941915D01*
X132017084Y-74816385D01*
X132054600Y-74676375D01*
X132054600Y-74531425D01*
X132017084Y-74391415D01*
X132015235Y-74388213D01*
X131944611Y-74265888D01*
X131944610Y-74265887D01*
X131944609Y-74265885D01*
X131842115Y-74163391D01*
X131839824Y-74162068D01*
X131837953Y-74160197D01*
X131835672Y-74158447D01*
X131835902Y-74158146D01*
X131794439Y-74116682D01*
X131784570Y-74099588D01*
X126446813Y-68761831D01*
X126413328Y-68700508D01*
X126416136Y-68661235D01*
X126415353Y-68661174D01*
X126419835Y-68604189D01*
X125989433Y-68173787D01*
X126031492Y-68162518D01*
X126156908Y-68090110D01*
X126259310Y-67987708D01*
X126331718Y-67862292D01*
X126342987Y-67820233D01*
X126773389Y-68250635D01*
X126773389Y-68250634D01*
X126781384Y-68239633D01*
X126861778Y-68081850D01*
X126861780Y-68081847D01*
X126916499Y-67913438D01*
X126931176Y-67820771D01*
X126961105Y-67757636D01*
X127020416Y-67720704D01*
X127090279Y-67721702D01*
G37*
%TD.AperFunction*%
%TA.AperFunction,Conductor*%
G36*
X117912654Y-66386285D02*
G01*
X117958409Y-66439089D01*
X117968353Y-66508247D01*
X117939328Y-66571803D01*
X117891109Y-66603770D01*
X117891850Y-66605557D01*
X117887349Y-66607421D01*
X117729566Y-66687815D01*
X117718564Y-66695809D01*
X117718563Y-66695810D01*
X118148965Y-67126212D01*
X118106908Y-67137482D01*
X117981492Y-67209890D01*
X117879090Y-67312292D01*
X117806682Y-67437708D01*
X117795412Y-67479765D01*
X117365010Y-67049363D01*
X117365009Y-67049364D01*
X117357015Y-67060366D01*
X117276621Y-67218149D01*
X117276619Y-67218152D01*
X117221901Y-67386560D01*
X117194200Y-67561455D01*
X117194200Y-67738544D01*
X117221901Y-67913439D01*
X117276619Y-68081847D01*
X117276623Y-68081855D01*
X117357008Y-68239621D01*
X117357016Y-68239635D01*
X117365009Y-68250634D01*
X117365011Y-68250635D01*
X117795412Y-67820233D01*
X117806682Y-67862292D01*
X117879090Y-67987708D01*
X117981492Y-68090110D01*
X118106908Y-68162518D01*
X118148964Y-68173787D01*
X117718563Y-68604188D01*
X117729568Y-68612185D01*
X117887349Y-68692579D01*
X117887352Y-68692580D01*
X118055760Y-68747298D01*
X118230656Y-68775000D01*
X118407744Y-68775000D01*
X118582639Y-68747298D01*
X118751047Y-68692580D01*
X118751050Y-68692579D01*
X118844705Y-68644859D01*
X118913374Y-68631963D01*
X118978114Y-68658239D01*
X119018372Y-68715345D01*
X119025000Y-68755344D01*
X119025000Y-69397155D01*
X119005315Y-69464194D01*
X118988681Y-69484837D01*
X118852329Y-69621188D01*
X118791006Y-69654672D01*
X118726331Y-69651437D01*
X118657025Y-69628918D01*
X118571047Y-69600981D01*
X118403849Y-69574500D01*
X118403844Y-69574500D01*
X118234556Y-69574500D01*
X118234551Y-69574500D01*
X118067352Y-69600981D01*
X117906346Y-69653296D01*
X117755511Y-69730152D01*
X117618565Y-69829648D01*
X117618560Y-69829652D01*
X117498852Y-69949360D01*
X117498848Y-69949365D01*
X117399352Y-70086311D01*
X117322496Y-70237146D01*
X117270181Y-70398152D01*
X117243700Y-70565350D01*
X117243700Y-70734649D01*
X117270181Y-70901847D01*
X117322496Y-71062853D01*
X117369716Y-71155525D01*
X117398301Y-71211627D01*
X117399352Y-71213688D01*
X117498848Y-71350634D01*
X117498852Y-71350639D01*
X117618560Y-71470347D01*
X117618565Y-71470351D01*
X117671046Y-71508480D01*
X117755515Y-71569850D01*
X117851625Y-71618820D01*
X117906346Y-71646703D01*
X117906348Y-71646703D01*
X117906351Y-71646705D01*
X117992650Y-71674745D01*
X118067352Y-71699018D01*
X118234551Y-71725500D01*
X118234556Y-71725500D01*
X118403849Y-71725500D01*
X118571047Y-71699018D01*
X118592797Y-71691951D01*
X118732049Y-71646705D01*
X118882885Y-71569850D01*
X119019841Y-71470346D01*
X119139546Y-71350641D01*
X119150680Y-71335315D01*
X119206009Y-71292649D01*
X119275622Y-71286668D01*
X119337418Y-71319272D01*
X119371777Y-71380110D01*
X119375000Y-71408199D01*
X119375000Y-73634843D01*
X119392007Y-73698315D01*
X119392007Y-73698316D01*
X119398884Y-73723984D01*
X119398885Y-73723986D01*
X119445027Y-73803908D01*
X119445029Y-73803911D01*
X119445030Y-73803912D01*
X119806661Y-74165543D01*
X120146481Y-74505362D01*
X120179966Y-74566685D01*
X120182800Y-74593043D01*
X120182800Y-74668975D01*
X120220316Y-74808985D01*
X120220317Y-74808987D01*
X120231582Y-74828498D01*
X120248056Y-74896398D01*
X120225205Y-74962425D01*
X120170284Y-75005617D01*
X120124196Y-75014500D01*
X118442876Y-75014500D01*
X118375837Y-74994815D01*
X118355195Y-74978181D01*
X115281873Y-71904859D01*
X115248388Y-71843536D01*
X115253372Y-71773844D01*
X115295244Y-71717911D01*
X115360708Y-71693494D01*
X115407872Y-71699247D01*
X115555760Y-71747298D01*
X115730656Y-71775000D01*
X115907744Y-71775000D01*
X116082639Y-71747298D01*
X116251047Y-71692580D01*
X116251050Y-71692578D01*
X116408833Y-71612184D01*
X116419834Y-71604189D01*
X116419835Y-71604189D01*
X115989433Y-71173787D01*
X116031492Y-71162518D01*
X116156908Y-71090110D01*
X116259310Y-70987708D01*
X116331718Y-70862292D01*
X116342987Y-70820233D01*
X116773389Y-71250635D01*
X116773389Y-71250634D01*
X116781384Y-71239633D01*
X116861778Y-71081850D01*
X116861780Y-71081847D01*
X116916498Y-70913439D01*
X116944200Y-70738544D01*
X116944200Y-70561455D01*
X116916498Y-70386560D01*
X116861780Y-70218152D01*
X116861779Y-70218149D01*
X116781385Y-70060368D01*
X116773389Y-70049364D01*
X116342987Y-70479765D01*
X116331718Y-70437708D01*
X116259310Y-70312292D01*
X116156908Y-70209890D01*
X116031492Y-70137482D01*
X115989434Y-70126212D01*
X116419835Y-69695811D01*
X116419834Y-69695809D01*
X116408835Y-69687816D01*
X116408821Y-69687808D01*
X116251055Y-69607423D01*
X116251047Y-69607419D01*
X116082639Y-69552701D01*
X115907744Y-69525000D01*
X115730656Y-69525000D01*
X115555760Y-69552701D01*
X115387352Y-69607419D01*
X115387349Y-69607421D01*
X115229566Y-69687815D01*
X115218564Y-69695809D01*
X115218563Y-69695810D01*
X115648966Y-70126212D01*
X115606908Y-70137482D01*
X115481492Y-70209890D01*
X115379090Y-70312292D01*
X115306682Y-70437708D01*
X115295412Y-70479766D01*
X114865010Y-70049363D01*
X114865009Y-70049364D01*
X114857015Y-70060366D01*
X114776621Y-70218149D01*
X114776619Y-70218152D01*
X114721901Y-70386560D01*
X114694200Y-70561455D01*
X114694200Y-70738544D01*
X114721901Y-70913439D01*
X114769952Y-71061327D01*
X114771947Y-71131169D01*
X114735866Y-71191001D01*
X114673165Y-71221829D01*
X114603751Y-71213864D01*
X114564340Y-71187326D01*
X114400022Y-71023008D01*
X114366537Y-70961685D01*
X114367131Y-70906374D01*
X114368218Y-70901845D01*
X114394700Y-70734649D01*
X114394700Y-70565350D01*
X114368218Y-70398152D01*
X114334202Y-70293462D01*
X114315905Y-70237151D01*
X114315903Y-70237148D01*
X114315903Y-70237146D01*
X114288020Y-70182425D01*
X114239050Y-70086315D01*
X114223610Y-70065064D01*
X114139551Y-69949365D01*
X114139547Y-69949360D01*
X114019839Y-69829652D01*
X114019834Y-69829648D01*
X113882888Y-69730152D01*
X113882887Y-69730151D01*
X113882885Y-69730150D01*
X113815491Y-69695811D01*
X113732049Y-69653294D01*
X113674090Y-69634462D01*
X113616415Y-69595024D01*
X113589218Y-69530665D01*
X113601133Y-69461819D01*
X113624726Y-69428854D01*
X114771670Y-68281909D01*
X114832991Y-68248426D01*
X114902683Y-68253410D01*
X114958616Y-68295282D01*
X114959667Y-68296706D01*
X114998852Y-68350639D01*
X115118560Y-68470347D01*
X115118565Y-68470351D01*
X115231748Y-68552582D01*
X115255515Y-68569850D01*
X115322907Y-68604188D01*
X115406346Y-68646703D01*
X115406348Y-68646703D01*
X115406351Y-68646705D01*
X115450882Y-68661174D01*
X115567352Y-68699018D01*
X115734551Y-68725500D01*
X115734556Y-68725500D01*
X115903849Y-68725500D01*
X116071047Y-68699018D01*
X116090867Y-68692578D01*
X116232049Y-68646705D01*
X116382885Y-68569850D01*
X116519841Y-68470346D01*
X116639546Y-68350641D01*
X116739050Y-68213685D01*
X116815905Y-68062849D01*
X116868218Y-67901847D01*
X116868728Y-67898627D01*
X116894700Y-67734649D01*
X116894700Y-67565353D01*
X116894699Y-67565347D01*
X116868218Y-67398152D01*
X116831080Y-67283856D01*
X116815905Y-67237151D01*
X116815903Y-67237147D01*
X116815903Y-67237146D01*
X116775748Y-67158339D01*
X116739050Y-67086315D01*
X116726337Y-67068817D01*
X116639551Y-66949365D01*
X116639547Y-66949360D01*
X116519839Y-66829652D01*
X116519834Y-66829648D01*
X116382888Y-66730152D01*
X116382887Y-66730151D01*
X116382885Y-66730150D01*
X116335782Y-66706150D01*
X116232053Y-66653296D01*
X116094281Y-66608531D01*
X116036606Y-66569093D01*
X116009408Y-66504734D01*
X116021323Y-66435888D01*
X116068567Y-66384412D01*
X116132600Y-66366600D01*
X117845615Y-66366600D01*
X117912654Y-66386285D01*
G37*
%TD.AperFunction*%
%TA.AperFunction,Conductor*%
G36*
X122352450Y-66932485D02*
G01*
X122398205Y-66985289D01*
X122408149Y-67054447D01*
X122395896Y-67093091D01*
X122382182Y-67120009D01*
X122322496Y-67237147D01*
X122270181Y-67398152D01*
X122243700Y-67565350D01*
X122243700Y-67734649D01*
X122270181Y-67901847D01*
X122322496Y-68062853D01*
X122353513Y-68123726D01*
X122398596Y-68212206D01*
X122399352Y-68213688D01*
X122498848Y-68350634D01*
X122498852Y-68350639D01*
X122618560Y-68470347D01*
X122618565Y-68470351D01*
X122731748Y-68552582D01*
X122755515Y-68569850D01*
X122822907Y-68604188D01*
X122906346Y-68646703D01*
X122906348Y-68646703D01*
X122906351Y-68646705D01*
X122950882Y-68661174D01*
X123067352Y-68699018D01*
X123234551Y-68725500D01*
X123234556Y-68725500D01*
X123403849Y-68725500D01*
X123571047Y-68699018D01*
X123726334Y-68648561D01*
X123796171Y-68646566D01*
X123852330Y-68678812D01*
X124976156Y-69802638D01*
X125009641Y-69863961D01*
X125004657Y-69933653D01*
X124988794Y-69963204D01*
X124899349Y-70086315D01*
X124822496Y-70237146D01*
X124770181Y-70398152D01*
X124743700Y-70565350D01*
X124743700Y-70734649D01*
X124770181Y-70901847D01*
X124822496Y-71062853D01*
X124884873Y-71185273D01*
X124897769Y-71253942D01*
X124871493Y-71318683D01*
X124836393Y-71348953D01*
X124813985Y-71361891D01*
X124813982Y-71361893D01*
X124711493Y-71464382D01*
X124711488Y-71464388D01*
X124639017Y-71589911D01*
X124639016Y-71589915D01*
X124601500Y-71729925D01*
X124601500Y-71874875D01*
X124619570Y-71942312D01*
X124639017Y-72014888D01*
X124711488Y-72140411D01*
X124711493Y-72140417D01*
X124765181Y-72194105D01*
X124798666Y-72255428D01*
X124801500Y-72281786D01*
X124801500Y-74149714D01*
X124781815Y-74216753D01*
X124765149Y-74237427D01*
X124763775Y-74238800D01*
X124702440Y-74272263D01*
X124632750Y-74267253D01*
X124576832Y-74225361D01*
X124556352Y-74183183D01*
X124540284Y-74123215D01*
X124532588Y-74109886D01*
X124467811Y-73997688D01*
X124467806Y-73997682D01*
X124365317Y-73895193D01*
X124365311Y-73895188D01*
X124239788Y-73822717D01*
X124239789Y-73822717D01*
X124228306Y-73819640D01*
X124099775Y-73785200D01*
X124099772Y-73785200D01*
X124023844Y-73785200D01*
X123956805Y-73765515D01*
X123936163Y-73748881D01*
X121671668Y-71484386D01*
X121638183Y-71423063D01*
X121643167Y-71353371D01*
X121659028Y-71323825D01*
X121739050Y-71213685D01*
X121815905Y-71062849D01*
X121868218Y-70901847D01*
X121875000Y-70859026D01*
X121894700Y-70734649D01*
X121894700Y-70565353D01*
X121894699Y-70565347D01*
X121894083Y-70561455D01*
X122194200Y-70561455D01*
X122194200Y-70738544D01*
X122221901Y-70913439D01*
X122276619Y-71081847D01*
X122276623Y-71081855D01*
X122357008Y-71239621D01*
X122357016Y-71239635D01*
X122365009Y-71250634D01*
X122365011Y-71250635D01*
X122795412Y-70820233D01*
X122806682Y-70862292D01*
X122879090Y-70987708D01*
X122981492Y-71090110D01*
X123106908Y-71162518D01*
X123148966Y-71173787D01*
X122718564Y-71604189D01*
X122729568Y-71612185D01*
X122887349Y-71692579D01*
X122887352Y-71692580D01*
X123055760Y-71747298D01*
X123230656Y-71775000D01*
X123407744Y-71775000D01*
X123582639Y-71747298D01*
X123751047Y-71692580D01*
X123751050Y-71692578D01*
X123908833Y-71612184D01*
X123919834Y-71604189D01*
X123919835Y-71604188D01*
X123489434Y-71173787D01*
X123531492Y-71162518D01*
X123656908Y-71090110D01*
X123759310Y-70987708D01*
X123831718Y-70862292D01*
X123842987Y-70820233D01*
X124273388Y-71250635D01*
X124273389Y-71250634D01*
X124281384Y-71239633D01*
X124361778Y-71081850D01*
X124361780Y-71081847D01*
X124416498Y-70913439D01*
X124444200Y-70738544D01*
X124444200Y-70561455D01*
X124416498Y-70386560D01*
X124361780Y-70218152D01*
X124361779Y-70218149D01*
X124281385Y-70060368D01*
X124273389Y-70049364D01*
X123842987Y-70479765D01*
X123831718Y-70437708D01*
X123759310Y-70312292D01*
X123656908Y-70209890D01*
X123531492Y-70137482D01*
X123489434Y-70126212D01*
X123919835Y-69695811D01*
X123919834Y-69695809D01*
X123908835Y-69687816D01*
X123908821Y-69687808D01*
X123751055Y-69607423D01*
X123751047Y-69607419D01*
X123582639Y-69552701D01*
X123407744Y-69525000D01*
X123230656Y-69525000D01*
X123055760Y-69552701D01*
X122887352Y-69607419D01*
X122887349Y-69607421D01*
X122729566Y-69687815D01*
X122718564Y-69695809D01*
X122718563Y-69695810D01*
X123148966Y-70126212D01*
X123106908Y-70137482D01*
X122981492Y-70209890D01*
X122879090Y-70312292D01*
X122806682Y-70437708D01*
X122795412Y-70479765D01*
X122365010Y-70049363D01*
X122365009Y-70049364D01*
X122357015Y-70060366D01*
X122276621Y-70218149D01*
X122276619Y-70218152D01*
X122221901Y-70386560D01*
X122194200Y-70561455D01*
X121894083Y-70561455D01*
X121868218Y-70398152D01*
X121834202Y-70293462D01*
X121815905Y-70237151D01*
X121815903Y-70237148D01*
X121815903Y-70237146D01*
X121788020Y-70182425D01*
X121739050Y-70086315D01*
X121723610Y-70065064D01*
X121639551Y-69949365D01*
X121639547Y-69949360D01*
X121519839Y-69829652D01*
X121519834Y-69829648D01*
X121382888Y-69730152D01*
X121382887Y-69730151D01*
X121382885Y-69730150D01*
X121324631Y-69700468D01*
X121232053Y-69653296D01*
X121071047Y-69600981D01*
X120903849Y-69574500D01*
X120903844Y-69574500D01*
X120734556Y-69574500D01*
X120734551Y-69574500D01*
X120567352Y-69600981D01*
X120406346Y-69653296D01*
X120256295Y-69729752D01*
X120187625Y-69742648D01*
X120122885Y-69716372D01*
X120082628Y-69659265D01*
X120076000Y-69619267D01*
X120076000Y-68940243D01*
X120095685Y-68873204D01*
X120112319Y-68852562D01*
X120190927Y-68773954D01*
X120286070Y-68678810D01*
X120347391Y-68645327D01*
X120412065Y-68648561D01*
X120475334Y-68669119D01*
X120567352Y-68699018D01*
X120734551Y-68725500D01*
X120734556Y-68725500D01*
X120903849Y-68725500D01*
X121071047Y-68699018D01*
X121090867Y-68692578D01*
X121232049Y-68646705D01*
X121382885Y-68569850D01*
X121519841Y-68470346D01*
X121639546Y-68350641D01*
X121739050Y-68213685D01*
X121815905Y-68062849D01*
X121868218Y-67901847D01*
X121868728Y-67898627D01*
X121894700Y-67734649D01*
X121894700Y-67565350D01*
X121868218Y-67398152D01*
X121831080Y-67283856D01*
X121815905Y-67237151D01*
X121742503Y-67093093D01*
X121729608Y-67024426D01*
X121755884Y-66959686D01*
X121812990Y-66919428D01*
X121852989Y-66912800D01*
X122285411Y-66912800D01*
X122352450Y-66932485D01*
G37*
%TD.AperFunction*%
%TA.AperFunction,Conductor*%
G36*
X125412654Y-66386285D02*
G01*
X125458409Y-66439089D01*
X125468353Y-66508247D01*
X125439328Y-66571803D01*
X125391109Y-66603770D01*
X125391850Y-66605557D01*
X125387349Y-66607421D01*
X125229566Y-66687815D01*
X125218564Y-66695809D01*
X125218563Y-66695810D01*
X125648966Y-67126212D01*
X125606908Y-67137482D01*
X125481492Y-67209890D01*
X125379090Y-67312292D01*
X125306682Y-67437708D01*
X125295412Y-67479766D01*
X124865010Y-67049363D01*
X124847125Y-67050771D01*
X124778748Y-67036406D01*
X124749716Y-67014834D01*
X124313163Y-66578281D01*
X124279678Y-66516958D01*
X124284662Y-66447266D01*
X124326534Y-66391333D01*
X124391998Y-66366916D01*
X124400844Y-66366600D01*
X125345615Y-66366600D01*
X125412654Y-66386285D01*
G37*
%TD.AperFunction*%
%TA.AperFunction,Conductor*%
G36*
X114328926Y-66386285D02*
G01*
X114374681Y-66439089D01*
X114384625Y-66508247D01*
X114381662Y-66522691D01*
X114362200Y-66595325D01*
X114362200Y-66740275D01*
X114387775Y-66835720D01*
X114392000Y-66867814D01*
X114392000Y-66924556D01*
X114372315Y-66991595D01*
X114319511Y-67037350D01*
X114278079Y-67044673D01*
X113842987Y-67479765D01*
X113831718Y-67437708D01*
X113759310Y-67312292D01*
X113656908Y-67209890D01*
X113531492Y-67137482D01*
X113489432Y-67126212D01*
X113919835Y-66695810D01*
X113919834Y-66695809D01*
X113908835Y-66687816D01*
X113908821Y-66687808D01*
X113751055Y-66607423D01*
X113746550Y-66605557D01*
X113747338Y-66603654D01*
X113696797Y-66569101D01*
X113669594Y-66504744D01*
X113681503Y-66435897D01*
X113728744Y-66384418D01*
X113792785Y-66366600D01*
X114261887Y-66366600D01*
X114328926Y-66386285D01*
G37*
%TD.AperFunction*%
%TD*%
M02*
