%TF.GenerationSoftware,KiCad,Pcbnew,10.0.5*%
%TF.CreationDate,2026-08-25T18:12:24+00:00*%
%TF.ProjectId,sensor-module,73656e73-6f72-42d6-9d6f-64756c652e6b,rev?*%
%TF.SameCoordinates,Original*%
%TF.FileFunction,Legend,Bot*%
%TF.FilePolarity,Positive*%
%FSLAX46Y46*%
G04 Gerber Fmt 4.6, Leading zero omitted, Abs format (unit mm)*
G04 Created by KiCad (PCBNEW 10.0.5) date 2026-08-25 18:12:24*
%MOMM*%
%LPD*%
G01*
G04 APERTURE LIST*
G04 Aperture macros list*
%AMRoundRect*
0 Rectangle with rounded corners*
0 $1 Rounding radius*
0 $2 $3 $4 $5 $6 $7 $8 $9 X,Y pos of 4 corners*
0 Add a 4 corners polygon primitive as box body*
4,1,4,$2,$3,$4,$5,$6,$7,$8,$9,$2,$3,0*
0 Add four circle primitives for the rounded corners*
1,1,$1+$1,$2,$3*
1,1,$1+$1,$4,$5*
1,1,$1+$1,$6,$7*
1,1,$1+$1,$8,$9*
0 Add four rect primitives between the rounded corners*
20,1,$1+$1,$2,$3,$4,$5,0*
20,1,$1+$1,$4,$5,$6,$7,0*
20,1,$1+$1,$6,$7,$8,$9,0*
20,1,$1+$1,$8,$9,$2,$3,0*%
G04 Aperture macros list end*
%ADD10C,0.120000*%
%ADD11C,0.200000*%
%ADD12R,1.700000X1.700000*%
%ADD13C,1.700000*%
%ADD14C,2.930000*%
%ADD15C,2.775000*%
%ADD16C,1.650000*%
%ADD17C,4.875000*%
%ADD18RoundRect,0.250000X-0.475000X0.250000X-0.475000X-0.250000X0.475000X-0.250000X0.475000X0.250000X0*%
%ADD19RoundRect,0.250000X0.250000X0.475000X-0.250000X0.475000X-0.250000X-0.475000X0.250000X-0.475000X0*%
%ADD20R,1.150000X1.150000*%
%ADD21RoundRect,0.250000X-0.450000X0.262500X-0.450000X-0.262500X0.450000X-0.262500X0.450000X0.262500X0*%
%ADD22RoundRect,0.250000X-0.250000X-0.475000X0.250000X-0.475000X0.250000X0.475000X-0.250000X0.475000X0*%
G04 APERTURE END LIST*
D10*
X96605485Y-87324664D02*
X96643581Y-87362760D01*
X96643581Y-87362760D02*
X96757866Y-87400855D01*
X96757866Y-87400855D02*
X96834057Y-87400855D01*
X96834057Y-87400855D02*
X96948343Y-87362760D01*
X96948343Y-87362760D02*
X97024533Y-87286569D01*
X97024533Y-87286569D02*
X97062628Y-87210379D01*
X97062628Y-87210379D02*
X97100724Y-87057998D01*
X97100724Y-87057998D02*
X97100724Y-86943712D01*
X97100724Y-86943712D02*
X97062628Y-86791331D01*
X97062628Y-86791331D02*
X97024533Y-86715140D01*
X97024533Y-86715140D02*
X96948343Y-86638950D01*
X96948343Y-86638950D02*
X96834057Y-86600855D01*
X96834057Y-86600855D02*
X96757866Y-86600855D01*
X96757866Y-86600855D02*
X96643581Y-86638950D01*
X96643581Y-86638950D02*
X96605485Y-86677045D01*
X95919771Y-86867521D02*
X95919771Y-87400855D01*
X96110247Y-86562760D02*
X96300724Y-87134188D01*
X96300724Y-87134188D02*
X95805485Y-87134188D01*
X95348342Y-86600855D02*
X95272152Y-86600855D01*
X95272152Y-86600855D02*
X95195961Y-86638950D01*
X95195961Y-86638950D02*
X95157866Y-86677045D01*
X95157866Y-86677045D02*
X95119771Y-86753236D01*
X95119771Y-86753236D02*
X95081676Y-86905617D01*
X95081676Y-86905617D02*
X95081676Y-87096093D01*
X95081676Y-87096093D02*
X95119771Y-87248474D01*
X95119771Y-87248474D02*
X95157866Y-87324664D01*
X95157866Y-87324664D02*
X95195961Y-87362760D01*
X95195961Y-87362760D02*
X95272152Y-87400855D01*
X95272152Y-87400855D02*
X95348342Y-87400855D01*
X95348342Y-87400855D02*
X95424533Y-87362760D01*
X95424533Y-87362760D02*
X95462628Y-87324664D01*
X95462628Y-87324664D02*
X95500723Y-87248474D01*
X95500723Y-87248474D02*
X95538819Y-87096093D01*
X95538819Y-87096093D02*
X95538819Y-86905617D01*
X95538819Y-86905617D02*
X95500723Y-86753236D01*
X95500723Y-86753236D02*
X95462628Y-86677045D01*
X95462628Y-86677045D02*
X95424533Y-86638950D01*
X95424533Y-86638950D02*
X95348342Y-86600855D01*
X99545485Y-94119664D02*
X99583581Y-94157760D01*
X99583581Y-94157760D02*
X99697866Y-94195855D01*
X99697866Y-94195855D02*
X99774057Y-94195855D01*
X99774057Y-94195855D02*
X99888343Y-94157760D01*
X99888343Y-94157760D02*
X99964533Y-94081569D01*
X99964533Y-94081569D02*
X100002628Y-94005379D01*
X100002628Y-94005379D02*
X100040724Y-93852998D01*
X100040724Y-93852998D02*
X100040724Y-93738712D01*
X100040724Y-93738712D02*
X100002628Y-93586331D01*
X100002628Y-93586331D02*
X99964533Y-93510140D01*
X99964533Y-93510140D02*
X99888343Y-93433950D01*
X99888343Y-93433950D02*
X99774057Y-93395855D01*
X99774057Y-93395855D02*
X99697866Y-93395855D01*
X99697866Y-93395855D02*
X99583581Y-93433950D01*
X99583581Y-93433950D02*
X99545485Y-93472045D01*
X99278819Y-93395855D02*
X98783581Y-93395855D01*
X98783581Y-93395855D02*
X99050247Y-93700617D01*
X99050247Y-93700617D02*
X98935962Y-93700617D01*
X98935962Y-93700617D02*
X98859771Y-93738712D01*
X98859771Y-93738712D02*
X98821676Y-93776807D01*
X98821676Y-93776807D02*
X98783581Y-93852998D01*
X98783581Y-93852998D02*
X98783581Y-94043474D01*
X98783581Y-94043474D02*
X98821676Y-94119664D01*
X98821676Y-94119664D02*
X98859771Y-94157760D01*
X98859771Y-94157760D02*
X98935962Y-94195855D01*
X98935962Y-94195855D02*
X99164533Y-94195855D01*
X99164533Y-94195855D02*
X99240724Y-94157760D01*
X99240724Y-94157760D02*
X99278819Y-94119664D01*
X98097866Y-93662521D02*
X98097866Y-94195855D01*
X98288342Y-93357760D02*
X98478819Y-93929188D01*
X98478819Y-93929188D02*
X97983580Y-93929188D01*
X83264985Y-85801855D02*
X83531652Y-85420902D01*
X83722128Y-85801855D02*
X83722128Y-85001855D01*
X83722128Y-85001855D02*
X83417366Y-85001855D01*
X83417366Y-85001855D02*
X83341176Y-85039950D01*
X83341176Y-85039950D02*
X83303081Y-85078045D01*
X83303081Y-85078045D02*
X83264985Y-85154236D01*
X83264985Y-85154236D02*
X83264985Y-85268521D01*
X83264985Y-85268521D02*
X83303081Y-85344712D01*
X83303081Y-85344712D02*
X83341176Y-85382807D01*
X83341176Y-85382807D02*
X83417366Y-85420902D01*
X83417366Y-85420902D02*
X83722128Y-85420902D01*
X82503081Y-85801855D02*
X82960224Y-85801855D01*
X82731652Y-85801855D02*
X82731652Y-85001855D01*
X82731652Y-85001855D02*
X82807843Y-85116140D01*
X82807843Y-85116140D02*
X82884033Y-85192331D01*
X82884033Y-85192331D02*
X82960224Y-85230426D01*
X82198319Y-85078045D02*
X82160223Y-85039950D01*
X82160223Y-85039950D02*
X82084033Y-85001855D01*
X82084033Y-85001855D02*
X81893557Y-85001855D01*
X81893557Y-85001855D02*
X81817366Y-85039950D01*
X81817366Y-85039950D02*
X81779271Y-85078045D01*
X81779271Y-85078045D02*
X81741176Y-85154236D01*
X81741176Y-85154236D02*
X81741176Y-85230426D01*
X81741176Y-85230426D02*
X81779271Y-85344712D01*
X81779271Y-85344712D02*
X82236414Y-85801855D01*
X82236414Y-85801855D02*
X81741176Y-85801855D01*
X69291132Y-77101855D02*
X69557799Y-76720902D01*
X69748275Y-77101855D02*
X69748275Y-76301855D01*
X69748275Y-76301855D02*
X69443513Y-76301855D01*
X69443513Y-76301855D02*
X69367323Y-76339950D01*
X69367323Y-76339950D02*
X69329228Y-76378045D01*
X69329228Y-76378045D02*
X69291132Y-76454236D01*
X69291132Y-76454236D02*
X69291132Y-76568521D01*
X69291132Y-76568521D02*
X69329228Y-76644712D01*
X69329228Y-76644712D02*
X69367323Y-76682807D01*
X69367323Y-76682807D02*
X69443513Y-76720902D01*
X69443513Y-76720902D02*
X69748275Y-76720902D01*
X68605418Y-76568521D02*
X68605418Y-77101855D01*
X68795894Y-76263760D02*
X68986371Y-76835188D01*
X68986371Y-76835188D02*
X68491132Y-76835188D01*
X63600685Y-85801855D02*
X63867352Y-85420902D01*
X64057828Y-85801855D02*
X64057828Y-85001855D01*
X64057828Y-85001855D02*
X63753066Y-85001855D01*
X63753066Y-85001855D02*
X63676876Y-85039950D01*
X63676876Y-85039950D02*
X63638781Y-85078045D01*
X63638781Y-85078045D02*
X63600685Y-85154236D01*
X63600685Y-85154236D02*
X63600685Y-85268521D01*
X63600685Y-85268521D02*
X63638781Y-85344712D01*
X63638781Y-85344712D02*
X63676876Y-85382807D01*
X63676876Y-85382807D02*
X63753066Y-85420902D01*
X63753066Y-85420902D02*
X64057828Y-85420902D01*
X62838781Y-85801855D02*
X63295924Y-85801855D01*
X63067352Y-85801855D02*
X63067352Y-85001855D01*
X63067352Y-85001855D02*
X63143543Y-85116140D01*
X63143543Y-85116140D02*
X63219733Y-85192331D01*
X63219733Y-85192331D02*
X63295924Y-85230426D01*
X62572114Y-85001855D02*
X62076876Y-85001855D01*
X62076876Y-85001855D02*
X62343542Y-85306617D01*
X62343542Y-85306617D02*
X62229257Y-85306617D01*
X62229257Y-85306617D02*
X62153066Y-85344712D01*
X62153066Y-85344712D02*
X62114971Y-85382807D01*
X62114971Y-85382807D02*
X62076876Y-85458998D01*
X62076876Y-85458998D02*
X62076876Y-85649474D01*
X62076876Y-85649474D02*
X62114971Y-85725664D01*
X62114971Y-85725664D02*
X62153066Y-85763760D01*
X62153066Y-85763760D02*
X62229257Y-85801855D01*
X62229257Y-85801855D02*
X62457828Y-85801855D01*
X62457828Y-85801855D02*
X62534019Y-85763760D01*
X62534019Y-85763760D02*
X62572114Y-85725664D01*
X70362532Y-74601855D02*
X70629199Y-74220902D01*
X70819675Y-74601855D02*
X70819675Y-73801855D01*
X70819675Y-73801855D02*
X70514913Y-73801855D01*
X70514913Y-73801855D02*
X70438723Y-73839950D01*
X70438723Y-73839950D02*
X70400628Y-73878045D01*
X70400628Y-73878045D02*
X70362532Y-73954236D01*
X70362532Y-73954236D02*
X70362532Y-74068521D01*
X70362532Y-74068521D02*
X70400628Y-74144712D01*
X70400628Y-74144712D02*
X70438723Y-74182807D01*
X70438723Y-74182807D02*
X70514913Y-74220902D01*
X70514913Y-74220902D02*
X70819675Y-74220902D01*
X70095866Y-73801855D02*
X69600628Y-73801855D01*
X69600628Y-73801855D02*
X69867294Y-74106617D01*
X69867294Y-74106617D02*
X69753009Y-74106617D01*
X69753009Y-74106617D02*
X69676818Y-74144712D01*
X69676818Y-74144712D02*
X69638723Y-74182807D01*
X69638723Y-74182807D02*
X69600628Y-74258998D01*
X69600628Y-74258998D02*
X69600628Y-74449474D01*
X69600628Y-74449474D02*
X69638723Y-74525664D01*
X69638723Y-74525664D02*
X69676818Y-74563760D01*
X69676818Y-74563760D02*
X69753009Y-74601855D01*
X69753009Y-74601855D02*
X69981580Y-74601855D01*
X69981580Y-74601855D02*
X70057771Y-74563760D01*
X70057771Y-74563760D02*
X70095866Y-74525664D01*
X102770485Y-88894664D02*
X102808581Y-88932760D01*
X102808581Y-88932760D02*
X102922866Y-88970855D01*
X102922866Y-88970855D02*
X102999057Y-88970855D01*
X102999057Y-88970855D02*
X103113343Y-88932760D01*
X103113343Y-88932760D02*
X103189533Y-88856569D01*
X103189533Y-88856569D02*
X103227628Y-88780379D01*
X103227628Y-88780379D02*
X103265724Y-88627998D01*
X103265724Y-88627998D02*
X103265724Y-88513712D01*
X103265724Y-88513712D02*
X103227628Y-88361331D01*
X103227628Y-88361331D02*
X103189533Y-88285140D01*
X103189533Y-88285140D02*
X103113343Y-88208950D01*
X103113343Y-88208950D02*
X102999057Y-88170855D01*
X102999057Y-88170855D02*
X102922866Y-88170855D01*
X102922866Y-88170855D02*
X102808581Y-88208950D01*
X102808581Y-88208950D02*
X102770485Y-88247045D01*
X102503819Y-88170855D02*
X102008581Y-88170855D01*
X102008581Y-88170855D02*
X102275247Y-88475617D01*
X102275247Y-88475617D02*
X102160962Y-88475617D01*
X102160962Y-88475617D02*
X102084771Y-88513712D01*
X102084771Y-88513712D02*
X102046676Y-88551807D01*
X102046676Y-88551807D02*
X102008581Y-88627998D01*
X102008581Y-88627998D02*
X102008581Y-88818474D01*
X102008581Y-88818474D02*
X102046676Y-88894664D01*
X102046676Y-88894664D02*
X102084771Y-88932760D01*
X102084771Y-88932760D02*
X102160962Y-88970855D01*
X102160962Y-88970855D02*
X102389533Y-88970855D01*
X102389533Y-88970855D02*
X102465724Y-88932760D01*
X102465724Y-88932760D02*
X102503819Y-88894664D01*
X101741914Y-88170855D02*
X101208580Y-88170855D01*
X101208580Y-88170855D02*
X101551438Y-88970855D01*
X84185955Y-79323714D02*
X83805002Y-79057047D01*
X84185955Y-78866571D02*
X83385955Y-78866571D01*
X83385955Y-78866571D02*
X83385955Y-79171333D01*
X83385955Y-79171333D02*
X83424050Y-79247523D01*
X83424050Y-79247523D02*
X83462145Y-79285618D01*
X83462145Y-79285618D02*
X83538336Y-79323714D01*
X83538336Y-79323714D02*
X83652621Y-79323714D01*
X83652621Y-79323714D02*
X83728812Y-79285618D01*
X83728812Y-79285618D02*
X83766907Y-79247523D01*
X83766907Y-79247523D02*
X83805002Y-79171333D01*
X83805002Y-79171333D02*
X83805002Y-78866571D01*
X84185955Y-80085618D02*
X84185955Y-79628475D01*
X84185955Y-79857047D02*
X83385955Y-79857047D01*
X83385955Y-79857047D02*
X83500240Y-79780856D01*
X83500240Y-79780856D02*
X83576431Y-79704666D01*
X83576431Y-79704666D02*
X83614526Y-79628475D01*
X84185955Y-80847523D02*
X84185955Y-80390380D01*
X84185955Y-80618952D02*
X83385955Y-80618952D01*
X83385955Y-80618952D02*
X83500240Y-80542761D01*
X83500240Y-80542761D02*
X83576431Y-80466571D01*
X83576431Y-80466571D02*
X83614526Y-80390380D01*
X90790485Y-89324664D02*
X90828581Y-89362760D01*
X90828581Y-89362760D02*
X90942866Y-89400855D01*
X90942866Y-89400855D02*
X91019057Y-89400855D01*
X91019057Y-89400855D02*
X91133343Y-89362760D01*
X91133343Y-89362760D02*
X91209533Y-89286569D01*
X91209533Y-89286569D02*
X91247628Y-89210379D01*
X91247628Y-89210379D02*
X91285724Y-89057998D01*
X91285724Y-89057998D02*
X91285724Y-88943712D01*
X91285724Y-88943712D02*
X91247628Y-88791331D01*
X91247628Y-88791331D02*
X91209533Y-88715140D01*
X91209533Y-88715140D02*
X91133343Y-88638950D01*
X91133343Y-88638950D02*
X91019057Y-88600855D01*
X91019057Y-88600855D02*
X90942866Y-88600855D01*
X90942866Y-88600855D02*
X90828581Y-88638950D01*
X90828581Y-88638950D02*
X90790485Y-88677045D01*
X90104771Y-88867521D02*
X90104771Y-89400855D01*
X90295247Y-88562760D02*
X90485724Y-89134188D01*
X90485724Y-89134188D02*
X89990485Y-89134188D01*
X89266676Y-89400855D02*
X89723819Y-89400855D01*
X89495247Y-89400855D02*
X89495247Y-88600855D01*
X89495247Y-88600855D02*
X89571438Y-88715140D01*
X89571438Y-88715140D02*
X89647628Y-88791331D01*
X89647628Y-88791331D02*
X89723819Y-88829426D01*
X96595485Y-95458355D02*
X96862152Y-95077402D01*
X97052628Y-95458355D02*
X97052628Y-94658355D01*
X97052628Y-94658355D02*
X96747866Y-94658355D01*
X96747866Y-94658355D02*
X96671676Y-94696450D01*
X96671676Y-94696450D02*
X96633581Y-94734545D01*
X96633581Y-94734545D02*
X96595485Y-94810736D01*
X96595485Y-94810736D02*
X96595485Y-94925021D01*
X96595485Y-94925021D02*
X96633581Y-95001212D01*
X96633581Y-95001212D02*
X96671676Y-95039307D01*
X96671676Y-95039307D02*
X96747866Y-95077402D01*
X96747866Y-95077402D02*
X97052628Y-95077402D01*
X95909771Y-94925021D02*
X95909771Y-95458355D01*
X96100247Y-94620260D02*
X96290724Y-95191688D01*
X96290724Y-95191688D02*
X95795485Y-95191688D01*
X95109771Y-94658355D02*
X95490723Y-94658355D01*
X95490723Y-94658355D02*
X95528819Y-95039307D01*
X95528819Y-95039307D02*
X95490723Y-95001212D01*
X95490723Y-95001212D02*
X95414533Y-94963117D01*
X95414533Y-94963117D02*
X95224057Y-94963117D01*
X95224057Y-94963117D02*
X95147866Y-95001212D01*
X95147866Y-95001212D02*
X95109771Y-95039307D01*
X95109771Y-95039307D02*
X95071676Y-95115498D01*
X95071676Y-95115498D02*
X95071676Y-95305974D01*
X95071676Y-95305974D02*
X95109771Y-95382164D01*
X95109771Y-95382164D02*
X95147866Y-95420260D01*
X95147866Y-95420260D02*
X95224057Y-95458355D01*
X95224057Y-95458355D02*
X95414533Y-95458355D01*
X95414533Y-95458355D02*
X95490723Y-95420260D01*
X95490723Y-95420260D02*
X95528819Y-95382164D01*
X91098332Y-80201855D02*
X91364999Y-79820902D01*
X91555475Y-80201855D02*
X91555475Y-79401855D01*
X91555475Y-79401855D02*
X91250713Y-79401855D01*
X91250713Y-79401855D02*
X91174523Y-79439950D01*
X91174523Y-79439950D02*
X91136428Y-79478045D01*
X91136428Y-79478045D02*
X91098332Y-79554236D01*
X91098332Y-79554236D02*
X91098332Y-79668521D01*
X91098332Y-79668521D02*
X91136428Y-79744712D01*
X91136428Y-79744712D02*
X91174523Y-79782807D01*
X91174523Y-79782807D02*
X91250713Y-79820902D01*
X91250713Y-79820902D02*
X91555475Y-79820902D01*
X90336428Y-80201855D02*
X90793571Y-80201855D01*
X90564999Y-80201855D02*
X90564999Y-79401855D01*
X90564999Y-79401855D02*
X90641190Y-79516140D01*
X90641190Y-79516140D02*
X90717380Y-79592331D01*
X90717380Y-79592331D02*
X90793571Y-79630426D01*
X111133485Y-106092664D02*
X111171581Y-106130760D01*
X111171581Y-106130760D02*
X111285866Y-106168855D01*
X111285866Y-106168855D02*
X111362057Y-106168855D01*
X111362057Y-106168855D02*
X111476343Y-106130760D01*
X111476343Y-106130760D02*
X111552533Y-106054569D01*
X111552533Y-106054569D02*
X111590628Y-105978379D01*
X111590628Y-105978379D02*
X111628724Y-105825998D01*
X111628724Y-105825998D02*
X111628724Y-105711712D01*
X111628724Y-105711712D02*
X111590628Y-105559331D01*
X111590628Y-105559331D02*
X111552533Y-105483140D01*
X111552533Y-105483140D02*
X111476343Y-105406950D01*
X111476343Y-105406950D02*
X111362057Y-105368855D01*
X111362057Y-105368855D02*
X111285866Y-105368855D01*
X111285866Y-105368855D02*
X111171581Y-105406950D01*
X111171581Y-105406950D02*
X111133485Y-105445045D01*
X110409676Y-105368855D02*
X110790628Y-105368855D01*
X110790628Y-105368855D02*
X110828724Y-105749807D01*
X110828724Y-105749807D02*
X110790628Y-105711712D01*
X110790628Y-105711712D02*
X110714438Y-105673617D01*
X110714438Y-105673617D02*
X110523962Y-105673617D01*
X110523962Y-105673617D02*
X110447771Y-105711712D01*
X110447771Y-105711712D02*
X110409676Y-105749807D01*
X110409676Y-105749807D02*
X110371581Y-105825998D01*
X110371581Y-105825998D02*
X110371581Y-106016474D01*
X110371581Y-106016474D02*
X110409676Y-106092664D01*
X110409676Y-106092664D02*
X110447771Y-106130760D01*
X110447771Y-106130760D02*
X110523962Y-106168855D01*
X110523962Y-106168855D02*
X110714438Y-106168855D01*
X110714438Y-106168855D02*
X110790628Y-106130760D01*
X110790628Y-106130760D02*
X110828724Y-106092664D01*
X110104914Y-105368855D02*
X109609676Y-105368855D01*
X109609676Y-105368855D02*
X109876342Y-105673617D01*
X109876342Y-105673617D02*
X109762057Y-105673617D01*
X109762057Y-105673617D02*
X109685866Y-105711712D01*
X109685866Y-105711712D02*
X109647771Y-105749807D01*
X109647771Y-105749807D02*
X109609676Y-105825998D01*
X109609676Y-105825998D02*
X109609676Y-106016474D01*
X109609676Y-106016474D02*
X109647771Y-106092664D01*
X109647771Y-106092664D02*
X109685866Y-106130760D01*
X109685866Y-106130760D02*
X109762057Y-106168855D01*
X109762057Y-106168855D02*
X109990628Y-106168855D01*
X109990628Y-106168855D02*
X110066819Y-106130760D01*
X110066819Y-106130760D02*
X110104914Y-106092664D01*
X73123332Y-74620664D02*
X73161428Y-74658760D01*
X73161428Y-74658760D02*
X73275713Y-74696855D01*
X73275713Y-74696855D02*
X73351904Y-74696855D01*
X73351904Y-74696855D02*
X73466190Y-74658760D01*
X73466190Y-74658760D02*
X73542380Y-74582569D01*
X73542380Y-74582569D02*
X73580475Y-74506379D01*
X73580475Y-74506379D02*
X73618571Y-74353998D01*
X73618571Y-74353998D02*
X73618571Y-74239712D01*
X73618571Y-74239712D02*
X73580475Y-74087331D01*
X73580475Y-74087331D02*
X73542380Y-74011140D01*
X73542380Y-74011140D02*
X73466190Y-73934950D01*
X73466190Y-73934950D02*
X73351904Y-73896855D01*
X73351904Y-73896855D02*
X73275713Y-73896855D01*
X73275713Y-73896855D02*
X73161428Y-73934950D01*
X73161428Y-73934950D02*
X73123332Y-73973045D01*
X72818571Y-73973045D02*
X72780475Y-73934950D01*
X72780475Y-73934950D02*
X72704285Y-73896855D01*
X72704285Y-73896855D02*
X72513809Y-73896855D01*
X72513809Y-73896855D02*
X72437618Y-73934950D01*
X72437618Y-73934950D02*
X72399523Y-73973045D01*
X72399523Y-73973045D02*
X72361428Y-74049236D01*
X72361428Y-74049236D02*
X72361428Y-74125426D01*
X72361428Y-74125426D02*
X72399523Y-74239712D01*
X72399523Y-74239712D02*
X72856666Y-74696855D01*
X72856666Y-74696855D02*
X72361428Y-74696855D01*
X83576832Y-77101855D02*
X83843499Y-76720902D01*
X84033975Y-77101855D02*
X84033975Y-76301855D01*
X84033975Y-76301855D02*
X83729213Y-76301855D01*
X83729213Y-76301855D02*
X83653023Y-76339950D01*
X83653023Y-76339950D02*
X83614928Y-76378045D01*
X83614928Y-76378045D02*
X83576832Y-76454236D01*
X83576832Y-76454236D02*
X83576832Y-76568521D01*
X83576832Y-76568521D02*
X83614928Y-76644712D01*
X83614928Y-76644712D02*
X83653023Y-76682807D01*
X83653023Y-76682807D02*
X83729213Y-76720902D01*
X83729213Y-76720902D02*
X84033975Y-76720902D01*
X83272071Y-76378045D02*
X83233975Y-76339950D01*
X83233975Y-76339950D02*
X83157785Y-76301855D01*
X83157785Y-76301855D02*
X82967309Y-76301855D01*
X82967309Y-76301855D02*
X82891118Y-76339950D01*
X82891118Y-76339950D02*
X82853023Y-76378045D01*
X82853023Y-76378045D02*
X82814928Y-76454236D01*
X82814928Y-76454236D02*
X82814928Y-76530426D01*
X82814928Y-76530426D02*
X82853023Y-76644712D01*
X82853023Y-76644712D02*
X83310166Y-77101855D01*
X83310166Y-77101855D02*
X82814928Y-77101855D01*
X90790485Y-87324664D02*
X90828581Y-87362760D01*
X90828581Y-87362760D02*
X90942866Y-87400855D01*
X90942866Y-87400855D02*
X91019057Y-87400855D01*
X91019057Y-87400855D02*
X91133343Y-87362760D01*
X91133343Y-87362760D02*
X91209533Y-87286569D01*
X91209533Y-87286569D02*
X91247628Y-87210379D01*
X91247628Y-87210379D02*
X91285724Y-87057998D01*
X91285724Y-87057998D02*
X91285724Y-86943712D01*
X91285724Y-86943712D02*
X91247628Y-86791331D01*
X91247628Y-86791331D02*
X91209533Y-86715140D01*
X91209533Y-86715140D02*
X91133343Y-86638950D01*
X91133343Y-86638950D02*
X91019057Y-86600855D01*
X91019057Y-86600855D02*
X90942866Y-86600855D01*
X90942866Y-86600855D02*
X90828581Y-86638950D01*
X90828581Y-86638950D02*
X90790485Y-86677045D01*
X90523819Y-86600855D02*
X90028581Y-86600855D01*
X90028581Y-86600855D02*
X90295247Y-86905617D01*
X90295247Y-86905617D02*
X90180962Y-86905617D01*
X90180962Y-86905617D02*
X90104771Y-86943712D01*
X90104771Y-86943712D02*
X90066676Y-86981807D01*
X90066676Y-86981807D02*
X90028581Y-87057998D01*
X90028581Y-87057998D02*
X90028581Y-87248474D01*
X90028581Y-87248474D02*
X90066676Y-87324664D01*
X90066676Y-87324664D02*
X90104771Y-87362760D01*
X90104771Y-87362760D02*
X90180962Y-87400855D01*
X90180962Y-87400855D02*
X90409533Y-87400855D01*
X90409533Y-87400855D02*
X90485724Y-87362760D01*
X90485724Y-87362760D02*
X90523819Y-87324664D01*
X89647628Y-87400855D02*
X89495247Y-87400855D01*
X89495247Y-87400855D02*
X89419057Y-87362760D01*
X89419057Y-87362760D02*
X89380961Y-87324664D01*
X89380961Y-87324664D02*
X89304771Y-87210379D01*
X89304771Y-87210379D02*
X89266676Y-87057998D01*
X89266676Y-87057998D02*
X89266676Y-86753236D01*
X89266676Y-86753236D02*
X89304771Y-86677045D01*
X89304771Y-86677045D02*
X89342866Y-86638950D01*
X89342866Y-86638950D02*
X89419057Y-86600855D01*
X89419057Y-86600855D02*
X89571438Y-86600855D01*
X89571438Y-86600855D02*
X89647628Y-86638950D01*
X89647628Y-86638950D02*
X89685723Y-86677045D01*
X89685723Y-86677045D02*
X89723819Y-86753236D01*
X89723819Y-86753236D02*
X89723819Y-86943712D01*
X89723819Y-86943712D02*
X89685723Y-87019902D01*
X89685723Y-87019902D02*
X89647628Y-87057998D01*
X89647628Y-87057998D02*
X89571438Y-87096093D01*
X89571438Y-87096093D02*
X89419057Y-87096093D01*
X89419057Y-87096093D02*
X89342866Y-87057998D01*
X89342866Y-87057998D02*
X89304771Y-87019902D01*
X89304771Y-87019902D02*
X89266676Y-86943712D01*
X87573332Y-74620664D02*
X87611428Y-74658760D01*
X87611428Y-74658760D02*
X87725713Y-74696855D01*
X87725713Y-74696855D02*
X87801904Y-74696855D01*
X87801904Y-74696855D02*
X87916190Y-74658760D01*
X87916190Y-74658760D02*
X87992380Y-74582569D01*
X87992380Y-74582569D02*
X88030475Y-74506379D01*
X88030475Y-74506379D02*
X88068571Y-74353998D01*
X88068571Y-74353998D02*
X88068571Y-74239712D01*
X88068571Y-74239712D02*
X88030475Y-74087331D01*
X88030475Y-74087331D02*
X87992380Y-74011140D01*
X87992380Y-74011140D02*
X87916190Y-73934950D01*
X87916190Y-73934950D02*
X87801904Y-73896855D01*
X87801904Y-73896855D02*
X87725713Y-73896855D01*
X87725713Y-73896855D02*
X87611428Y-73934950D01*
X87611428Y-73934950D02*
X87573332Y-73973045D01*
X86811428Y-74696855D02*
X87268571Y-74696855D01*
X87039999Y-74696855D02*
X87039999Y-73896855D01*
X87039999Y-73896855D02*
X87116190Y-74011140D01*
X87116190Y-74011140D02*
X87192380Y-74087331D01*
X87192380Y-74087331D02*
X87268571Y-74125426D01*
X76829285Y-76300664D02*
X76867381Y-76338760D01*
X76867381Y-76338760D02*
X76981666Y-76376855D01*
X76981666Y-76376855D02*
X77057857Y-76376855D01*
X77057857Y-76376855D02*
X77172143Y-76338760D01*
X77172143Y-76338760D02*
X77248333Y-76262569D01*
X77248333Y-76262569D02*
X77286428Y-76186379D01*
X77286428Y-76186379D02*
X77324524Y-76033998D01*
X77324524Y-76033998D02*
X77324524Y-75919712D01*
X77324524Y-75919712D02*
X77286428Y-75767331D01*
X77286428Y-75767331D02*
X77248333Y-75691140D01*
X77248333Y-75691140D02*
X77172143Y-75614950D01*
X77172143Y-75614950D02*
X77057857Y-75576855D01*
X77057857Y-75576855D02*
X76981666Y-75576855D01*
X76981666Y-75576855D02*
X76867381Y-75614950D01*
X76867381Y-75614950D02*
X76829285Y-75653045D01*
X76067381Y-76376855D02*
X76524524Y-76376855D01*
X76295952Y-76376855D02*
X76295952Y-75576855D01*
X76295952Y-75576855D02*
X76372143Y-75691140D01*
X76372143Y-75691140D02*
X76448333Y-75767331D01*
X76448333Y-75767331D02*
X76524524Y-75805426D01*
X75305476Y-76376855D02*
X75762619Y-76376855D01*
X75534047Y-76376855D02*
X75534047Y-75576855D01*
X75534047Y-75576855D02*
X75610238Y-75691140D01*
X75610238Y-75691140D02*
X75686428Y-75767331D01*
X75686428Y-75767331D02*
X75762619Y-75805426D01*
X90520485Y-100604664D02*
X90558581Y-100642760D01*
X90558581Y-100642760D02*
X90672866Y-100680855D01*
X90672866Y-100680855D02*
X90749057Y-100680855D01*
X90749057Y-100680855D02*
X90863343Y-100642760D01*
X90863343Y-100642760D02*
X90939533Y-100566569D01*
X90939533Y-100566569D02*
X90977628Y-100490379D01*
X90977628Y-100490379D02*
X91015724Y-100337998D01*
X91015724Y-100337998D02*
X91015724Y-100223712D01*
X91015724Y-100223712D02*
X90977628Y-100071331D01*
X90977628Y-100071331D02*
X90939533Y-99995140D01*
X90939533Y-99995140D02*
X90863343Y-99918950D01*
X90863343Y-99918950D02*
X90749057Y-99880855D01*
X90749057Y-99880855D02*
X90672866Y-99880855D01*
X90672866Y-99880855D02*
X90558581Y-99918950D01*
X90558581Y-99918950D02*
X90520485Y-99957045D01*
X89834771Y-100147521D02*
X89834771Y-100680855D01*
X90025247Y-99842760D02*
X90215724Y-100414188D01*
X90215724Y-100414188D02*
X89720485Y-100414188D01*
X89453819Y-99957045D02*
X89415723Y-99918950D01*
X89415723Y-99918950D02*
X89339533Y-99880855D01*
X89339533Y-99880855D02*
X89149057Y-99880855D01*
X89149057Y-99880855D02*
X89072866Y-99918950D01*
X89072866Y-99918950D02*
X89034771Y-99957045D01*
X89034771Y-99957045D02*
X88996676Y-100033236D01*
X88996676Y-100033236D02*
X88996676Y-100109426D01*
X88996676Y-100109426D02*
X89034771Y-100223712D01*
X89034771Y-100223712D02*
X89491914Y-100680855D01*
X89491914Y-100680855D02*
X88996676Y-100680855D01*
X66054285Y-74620664D02*
X66092381Y-74658760D01*
X66092381Y-74658760D02*
X66206666Y-74696855D01*
X66206666Y-74696855D02*
X66282857Y-74696855D01*
X66282857Y-74696855D02*
X66397143Y-74658760D01*
X66397143Y-74658760D02*
X66473333Y-74582569D01*
X66473333Y-74582569D02*
X66511428Y-74506379D01*
X66511428Y-74506379D02*
X66549524Y-74353998D01*
X66549524Y-74353998D02*
X66549524Y-74239712D01*
X66549524Y-74239712D02*
X66511428Y-74087331D01*
X66511428Y-74087331D02*
X66473333Y-74011140D01*
X66473333Y-74011140D02*
X66397143Y-73934950D01*
X66397143Y-73934950D02*
X66282857Y-73896855D01*
X66282857Y-73896855D02*
X66206666Y-73896855D01*
X66206666Y-73896855D02*
X66092381Y-73934950D01*
X66092381Y-73934950D02*
X66054285Y-73973045D01*
X65292381Y-74696855D02*
X65749524Y-74696855D01*
X65520952Y-74696855D02*
X65520952Y-73896855D01*
X65520952Y-73896855D02*
X65597143Y-74011140D01*
X65597143Y-74011140D02*
X65673333Y-74087331D01*
X65673333Y-74087331D02*
X65749524Y-74125426D01*
X64987619Y-73973045D02*
X64949523Y-73934950D01*
X64949523Y-73934950D02*
X64873333Y-73896855D01*
X64873333Y-73896855D02*
X64682857Y-73896855D01*
X64682857Y-73896855D02*
X64606666Y-73934950D01*
X64606666Y-73934950D02*
X64568571Y-73973045D01*
X64568571Y-73973045D02*
X64530476Y-74049236D01*
X64530476Y-74049236D02*
X64530476Y-74125426D01*
X64530476Y-74125426D02*
X64568571Y-74239712D01*
X64568571Y-74239712D02*
X65025714Y-74696855D01*
X65025714Y-74696855D02*
X64530476Y-74696855D01*
X103955585Y-102595764D02*
X103993681Y-102633860D01*
X103993681Y-102633860D02*
X104107966Y-102671955D01*
X104107966Y-102671955D02*
X104184157Y-102671955D01*
X104184157Y-102671955D02*
X104298443Y-102633860D01*
X104298443Y-102633860D02*
X104374633Y-102557669D01*
X104374633Y-102557669D02*
X104412728Y-102481479D01*
X104412728Y-102481479D02*
X104450824Y-102329098D01*
X104450824Y-102329098D02*
X104450824Y-102214812D01*
X104450824Y-102214812D02*
X104412728Y-102062431D01*
X104412728Y-102062431D02*
X104374633Y-101986240D01*
X104374633Y-101986240D02*
X104298443Y-101910050D01*
X104298443Y-101910050D02*
X104184157Y-101871955D01*
X104184157Y-101871955D02*
X104107966Y-101871955D01*
X104107966Y-101871955D02*
X103993681Y-101910050D01*
X103993681Y-101910050D02*
X103955585Y-101948145D01*
X103688919Y-101871955D02*
X103193681Y-101871955D01*
X103193681Y-101871955D02*
X103460347Y-102176717D01*
X103460347Y-102176717D02*
X103346062Y-102176717D01*
X103346062Y-102176717D02*
X103269871Y-102214812D01*
X103269871Y-102214812D02*
X103231776Y-102252907D01*
X103231776Y-102252907D02*
X103193681Y-102329098D01*
X103193681Y-102329098D02*
X103193681Y-102519574D01*
X103193681Y-102519574D02*
X103231776Y-102595764D01*
X103231776Y-102595764D02*
X103269871Y-102633860D01*
X103269871Y-102633860D02*
X103346062Y-102671955D01*
X103346062Y-102671955D02*
X103574633Y-102671955D01*
X103574633Y-102671955D02*
X103650824Y-102633860D01*
X103650824Y-102633860D02*
X103688919Y-102595764D01*
X102507966Y-101871955D02*
X102660347Y-101871955D01*
X102660347Y-101871955D02*
X102736538Y-101910050D01*
X102736538Y-101910050D02*
X102774633Y-101948145D01*
X102774633Y-101948145D02*
X102850823Y-102062431D01*
X102850823Y-102062431D02*
X102888919Y-102214812D01*
X102888919Y-102214812D02*
X102888919Y-102519574D01*
X102888919Y-102519574D02*
X102850823Y-102595764D01*
X102850823Y-102595764D02*
X102812728Y-102633860D01*
X102812728Y-102633860D02*
X102736538Y-102671955D01*
X102736538Y-102671955D02*
X102584157Y-102671955D01*
X102584157Y-102671955D02*
X102507966Y-102633860D01*
X102507966Y-102633860D02*
X102469871Y-102595764D01*
X102469871Y-102595764D02*
X102431776Y-102519574D01*
X102431776Y-102519574D02*
X102431776Y-102329098D01*
X102431776Y-102329098D02*
X102469871Y-102252907D01*
X102469871Y-102252907D02*
X102507966Y-102214812D01*
X102507966Y-102214812D02*
X102584157Y-102176717D01*
X102584157Y-102176717D02*
X102736538Y-102176717D01*
X102736538Y-102176717D02*
X102812728Y-102214812D01*
X102812728Y-102214812D02*
X102850823Y-102252907D01*
X102850823Y-102252907D02*
X102888919Y-102329098D01*
X102145485Y-104604664D02*
X102183581Y-104642760D01*
X102183581Y-104642760D02*
X102297866Y-104680855D01*
X102297866Y-104680855D02*
X102374057Y-104680855D01*
X102374057Y-104680855D02*
X102488343Y-104642760D01*
X102488343Y-104642760D02*
X102564533Y-104566569D01*
X102564533Y-104566569D02*
X102602628Y-104490379D01*
X102602628Y-104490379D02*
X102640724Y-104337998D01*
X102640724Y-104337998D02*
X102640724Y-104223712D01*
X102640724Y-104223712D02*
X102602628Y-104071331D01*
X102602628Y-104071331D02*
X102564533Y-103995140D01*
X102564533Y-103995140D02*
X102488343Y-103918950D01*
X102488343Y-103918950D02*
X102374057Y-103880855D01*
X102374057Y-103880855D02*
X102297866Y-103880855D01*
X102297866Y-103880855D02*
X102183581Y-103918950D01*
X102183581Y-103918950D02*
X102145485Y-103957045D01*
X101878819Y-103880855D02*
X101383581Y-103880855D01*
X101383581Y-103880855D02*
X101650247Y-104185617D01*
X101650247Y-104185617D02*
X101535962Y-104185617D01*
X101535962Y-104185617D02*
X101459771Y-104223712D01*
X101459771Y-104223712D02*
X101421676Y-104261807D01*
X101421676Y-104261807D02*
X101383581Y-104337998D01*
X101383581Y-104337998D02*
X101383581Y-104528474D01*
X101383581Y-104528474D02*
X101421676Y-104604664D01*
X101421676Y-104604664D02*
X101459771Y-104642760D01*
X101459771Y-104642760D02*
X101535962Y-104680855D01*
X101535962Y-104680855D02*
X101764533Y-104680855D01*
X101764533Y-104680855D02*
X101840724Y-104642760D01*
X101840724Y-104642760D02*
X101878819Y-104604664D01*
X100926438Y-104223712D02*
X101002628Y-104185617D01*
X101002628Y-104185617D02*
X101040723Y-104147521D01*
X101040723Y-104147521D02*
X101078819Y-104071331D01*
X101078819Y-104071331D02*
X101078819Y-104033236D01*
X101078819Y-104033236D02*
X101040723Y-103957045D01*
X101040723Y-103957045D02*
X101002628Y-103918950D01*
X101002628Y-103918950D02*
X100926438Y-103880855D01*
X100926438Y-103880855D02*
X100774057Y-103880855D01*
X100774057Y-103880855D02*
X100697866Y-103918950D01*
X100697866Y-103918950D02*
X100659771Y-103957045D01*
X100659771Y-103957045D02*
X100621676Y-104033236D01*
X100621676Y-104033236D02*
X100621676Y-104071331D01*
X100621676Y-104071331D02*
X100659771Y-104147521D01*
X100659771Y-104147521D02*
X100697866Y-104185617D01*
X100697866Y-104185617D02*
X100774057Y-104223712D01*
X100774057Y-104223712D02*
X100926438Y-104223712D01*
X100926438Y-104223712D02*
X101002628Y-104261807D01*
X101002628Y-104261807D02*
X101040723Y-104299902D01*
X101040723Y-104299902D02*
X101078819Y-104376093D01*
X101078819Y-104376093D02*
X101078819Y-104528474D01*
X101078819Y-104528474D02*
X101040723Y-104604664D01*
X101040723Y-104604664D02*
X101002628Y-104642760D01*
X101002628Y-104642760D02*
X100926438Y-104680855D01*
X100926438Y-104680855D02*
X100774057Y-104680855D01*
X100774057Y-104680855D02*
X100697866Y-104642760D01*
X100697866Y-104642760D02*
X100659771Y-104604664D01*
X100659771Y-104604664D02*
X100621676Y-104528474D01*
X100621676Y-104528474D02*
X100621676Y-104376093D01*
X100621676Y-104376093D02*
X100659771Y-104299902D01*
X100659771Y-104299902D02*
X100697866Y-104261807D01*
X100697866Y-104261807D02*
X100774057Y-104223712D01*
X62529285Y-77101855D02*
X62795952Y-76720902D01*
X62986428Y-77101855D02*
X62986428Y-76301855D01*
X62986428Y-76301855D02*
X62681666Y-76301855D01*
X62681666Y-76301855D02*
X62605476Y-76339950D01*
X62605476Y-76339950D02*
X62567381Y-76378045D01*
X62567381Y-76378045D02*
X62529285Y-76454236D01*
X62529285Y-76454236D02*
X62529285Y-76568521D01*
X62529285Y-76568521D02*
X62567381Y-76644712D01*
X62567381Y-76644712D02*
X62605476Y-76682807D01*
X62605476Y-76682807D02*
X62681666Y-76720902D01*
X62681666Y-76720902D02*
X62986428Y-76720902D01*
X61767381Y-77101855D02*
X62224524Y-77101855D01*
X61995952Y-77101855D02*
X61995952Y-76301855D01*
X61995952Y-76301855D02*
X62072143Y-76416140D01*
X62072143Y-76416140D02*
X62148333Y-76492331D01*
X62148333Y-76492331D02*
X62224524Y-76530426D01*
X61081666Y-76568521D02*
X61081666Y-77101855D01*
X61272142Y-76263760D02*
X61462619Y-76835188D01*
X61462619Y-76835188D02*
X60967380Y-76835188D01*
%TO.C,C40*%
X95356200Y-91300748D02*
X95356200Y-91823252D01*
X96826200Y-91300748D02*
X96826200Y-91823252D01*
%TO.C,C34*%
X99292452Y-94777000D02*
X98769948Y-94777000D01*
X99292452Y-96247000D02*
X98769948Y-96247000D01*
%TO.C,R12*%
D11*
X77750700Y-79838000D02*
X78800700Y-79838000D01*
X78175700Y-77638000D02*
X78175700Y-77638000D01*
X78375700Y-77638000D02*
X78375700Y-77638000D01*
X78175700Y-77638000D02*
G75*
G02*
X78375700Y-77638000I100000J0D01*
G01*
X78375700Y-77638000D02*
G75*
G02*
X78175700Y-77638000I-100000J0D01*
G01*
%TO.C,R4*%
X70607800Y-79838000D02*
X71657800Y-79838000D01*
X71032800Y-77638000D02*
X71032800Y-77638000D01*
X71232800Y-77638000D02*
X71232800Y-77638000D01*
X71032800Y-77638000D02*
G75*
G02*
X71232800Y-77638000I100000J0D01*
G01*
X71232800Y-77638000D02*
G75*
G02*
X71032800Y-77638000I-100000J0D01*
G01*
%TO.C,R13*%
X67036400Y-79838000D02*
X68086400Y-79838000D01*
X67461400Y-77638000D02*
X67461400Y-77638000D01*
X67661400Y-77638000D02*
X67661400Y-77638000D01*
X67461400Y-77638000D02*
G75*
G02*
X67661400Y-77638000I100000J0D01*
G01*
X67661400Y-77638000D02*
G75*
G02*
X67461400Y-77638000I-100000J0D01*
G01*
%TO.C,R3*%
X74179200Y-79838000D02*
X75229200Y-79838000D01*
X74604200Y-77638000D02*
X74604200Y-77638000D01*
X74804200Y-77638000D02*
X74804200Y-77638000D01*
X74604200Y-77638000D02*
G75*
G02*
X74804200Y-77638000I100000J0D01*
G01*
X74804200Y-77638000D02*
G75*
G02*
X74604200Y-77638000I-100000J0D01*
G01*
%TO.C,C37*%
D10*
X99392452Y-90277000D02*
X98869948Y-90277000D01*
X99392452Y-91747000D02*
X98869948Y-91747000D01*
%TO.C,R11*%
D11*
X81322100Y-79838000D02*
X82372100Y-79838000D01*
X81747100Y-77638000D02*
X81747100Y-77638000D01*
X81947100Y-77638000D02*
X81947100Y-77638000D01*
X81747100Y-77638000D02*
G75*
G02*
X81947100Y-77638000I100000J0D01*
G01*
X81947100Y-77638000D02*
G75*
G02*
X81747100Y-77638000I-100000J0D01*
G01*
%TO.C,C41*%
D10*
X91346200Y-91300748D02*
X91346200Y-91823252D01*
X92816200Y-91300748D02*
X92816200Y-91823252D01*
%TO.C,R45*%
X95346200Y-97372436D02*
X95346200Y-97826564D01*
X96816200Y-97372436D02*
X96816200Y-97826564D01*
%TO.C,R1*%
D11*
X88465000Y-79838000D02*
X89515000Y-79838000D01*
X88890000Y-77638000D02*
X88890000Y-77638000D01*
X89090000Y-77638000D02*
X89090000Y-77638000D01*
X88890000Y-77638000D02*
G75*
G02*
X89090000Y-77638000I100000J0D01*
G01*
X89090000Y-77638000D02*
G75*
G02*
X88890000Y-77638000I-100000J0D01*
G01*
%TO.C,C53*%
D10*
X110880452Y-103265000D02*
X110357948Y-103265000D01*
X110880452Y-104735000D02*
X110357948Y-104735000D01*
%TO.C,C2*%
X73251252Y-75278000D02*
X72728748Y-75278000D01*
X73251252Y-76748000D02*
X72728748Y-76748000D01*
%TO.C,R2*%
D11*
X84893500Y-79838000D02*
X85943500Y-79838000D01*
X85318500Y-77638000D02*
X85318500Y-77638000D01*
X85518500Y-77638000D02*
X85518500Y-77638000D01*
X85318500Y-77638000D02*
G75*
G02*
X85518500Y-77638000I100000J0D01*
G01*
X85518500Y-77638000D02*
G75*
G02*
X85318500Y-77638000I-100000J0D01*
G01*
%TO.C,C39*%
D10*
X93346200Y-91300748D02*
X93346200Y-91823252D01*
X94816200Y-91300748D02*
X94816200Y-91823252D01*
%TO.C,C1*%
X87701252Y-75278000D02*
X87178748Y-75278000D01*
X87701252Y-76748000D02*
X87178748Y-76748000D01*
%TO.C,C11*%
X80301252Y-75278000D02*
X79778748Y-75278000D01*
X80301252Y-76748000D02*
X79778748Y-76748000D01*
%TO.C,C42*%
X92792452Y-97777000D02*
X92269948Y-97777000D01*
X92792452Y-99247000D02*
X92269948Y-99247000D01*
%TO.C,C12*%
X65801252Y-75278000D02*
X65278748Y-75278000D01*
X65801252Y-76748000D02*
X65278748Y-76748000D01*
%TO.C,C36*%
X99177552Y-97768100D02*
X98655048Y-97768100D01*
X99177552Y-99238100D02*
X98655048Y-99238100D01*
%TO.C,C38*%
X101369948Y-99777000D02*
X101892452Y-99777000D01*
X101369948Y-101247000D02*
X101892452Y-101247000D01*
%TO.C,R14*%
D11*
X63465000Y-79838000D02*
X64515000Y-79838000D01*
X63890000Y-77638000D02*
X63890000Y-77638000D01*
X64090000Y-77638000D02*
X64090000Y-77638000D01*
X63890000Y-77638000D02*
G75*
G02*
X64090000Y-77638000I100000J0D01*
G01*
X64090000Y-77638000D02*
G75*
G02*
X63890000Y-77638000I-100000J0D01*
G01*
%TD*%
%LPC*%
D12*
%TO.C,J4*%
X149000000Y-111200000D03*
D13*
X146460000Y-111200000D03*
X143920000Y-111200000D03*
X141380000Y-111200000D03*
X138840000Y-111200000D03*
X136300000Y-111200000D03*
%TD*%
D14*
%TO.C,J3*%
X91069200Y-65000000D03*
X62069200Y-65000000D03*
D15*
X84569200Y-69500000D03*
X80569200Y-69500000D03*
X76569200Y-69500000D03*
X72569200Y-69500000D03*
X68569200Y-69500000D03*
X82569200Y-65500000D03*
X78569200Y-65500000D03*
X74569200Y-65500000D03*
X70569200Y-65500000D03*
X84569200Y-61500000D03*
X80569200Y-61500000D03*
X76569200Y-61500000D03*
X72569200Y-61500000D03*
X68569200Y-61500000D03*
%TD*%
D16*
%TO.C,J2*%
X113319200Y-70650000D03*
X115819200Y-70650000D03*
X118319200Y-70650000D03*
X120819200Y-70650000D03*
X123319200Y-70650000D03*
X125819200Y-70650000D03*
X113319200Y-67650000D03*
X115819200Y-67650000D03*
X118319200Y-67650000D03*
X120819200Y-67650000D03*
X123319200Y-67650000D03*
X125819200Y-67650000D03*
D17*
X131319200Y-66150000D03*
X107819200Y-66150000D03*
%TD*%
D16*
%TO.C,J1*%
X146569200Y-70650000D03*
X149069200Y-70650000D03*
X151569200Y-70650000D03*
X154069200Y-70650000D03*
X156569200Y-70650000D03*
X159069200Y-70650000D03*
X146569200Y-67650000D03*
X149069200Y-67650000D03*
X151569200Y-67650000D03*
X154069200Y-67650000D03*
X156569200Y-67650000D03*
X159069200Y-67650000D03*
D17*
X164569200Y-66150000D03*
X141069200Y-66150000D03*
%TD*%
D18*
%TO.C,C40*%
X96091200Y-90612000D03*
X96091200Y-92512000D03*
%TD*%
D19*
%TO.C,C34*%
X99981200Y-95512000D03*
X98081200Y-95512000D03*
%TD*%
D20*
%TO.C,R12*%
X78275700Y-78663000D03*
X78275700Y-81013000D03*
%TD*%
%TO.C,R4*%
X71132800Y-78663000D03*
X71132800Y-81013000D03*
%TD*%
%TO.C,R13*%
X67561400Y-78663000D03*
X67561400Y-81013000D03*
%TD*%
%TO.C,R3*%
X74704200Y-78663000D03*
X74704200Y-81013000D03*
%TD*%
D19*
%TO.C,C37*%
X100081200Y-91012000D03*
X98181200Y-91012000D03*
%TD*%
D20*
%TO.C,R11*%
X81847100Y-78663000D03*
X81847100Y-81013000D03*
%TD*%
D18*
%TO.C,C41*%
X92081200Y-90612000D03*
X92081200Y-92512000D03*
%TD*%
D21*
%TO.C,R45*%
X96081200Y-96687000D03*
X96081200Y-98512000D03*
%TD*%
D20*
%TO.C,R1*%
X88990000Y-78663000D03*
X88990000Y-81013000D03*
%TD*%
D19*
%TO.C,C53*%
X111569200Y-104000000D03*
X109669200Y-104000000D03*
%TD*%
%TO.C,C2*%
X73940000Y-76013000D03*
X72040000Y-76013000D03*
%TD*%
D20*
%TO.C,R2*%
X85418500Y-78663000D03*
X85418500Y-81013000D03*
%TD*%
D18*
%TO.C,C39*%
X94081200Y-90612000D03*
X94081200Y-92512000D03*
%TD*%
D19*
%TO.C,C1*%
X88390000Y-76013000D03*
X86490000Y-76013000D03*
%TD*%
%TO.C,C11*%
X80990000Y-76013000D03*
X79090000Y-76013000D03*
%TD*%
%TO.C,C42*%
X93481200Y-98512000D03*
X91581200Y-98512000D03*
%TD*%
%TO.C,C12*%
X66490000Y-76013000D03*
X64590000Y-76013000D03*
%TD*%
%TO.C,C36*%
X99866300Y-98503100D03*
X97966300Y-98503100D03*
%TD*%
D22*
%TO.C,C38*%
X100681200Y-100512000D03*
X102581200Y-100512000D03*
%TD*%
D20*
%TO.C,R14*%
X63990000Y-78663000D03*
X63990000Y-81013000D03*
%TD*%
%LPD*%
M02*
