%TF.GenerationSoftware,KiCad,Pcbnew,10.0.5*%
%TF.CreationDate,2026-08-25T18:12:24+00:00*%
%TF.ProjectId,sensor-module,73656e73-6f72-42d6-9d6f-64756c652e6b,rev?*%
%TF.SameCoordinates,Original*%
%TF.FileFunction,Paste,Bot*%
%TF.FilePolarity,Positive*%
%FSLAX46Y46*%
G04 Gerber Fmt 4.6, Leading zero omitted, Abs format (unit mm)*
G04 Created by KiCad (PCBNEW 10.0.5) date 2026-08-25 18:12:24*
%MOMM*%
%LPD*%
G01*
G04 APERTURE LIST*
G04 Aperture macros list*
%AMRoundRect*
0 Rectangle with rounded corners*
0 $1 Rounding radius*
0 $2 $3 $4 $5 $6 $7 $8 $9 X,Y pos of 4 corners*
0 Add a 4 corners polygon primitive as box body*
4,1,4,$2,$3,$4,$5,$6,$7,$8,$9,$2,$3,0*
0 Add four circle primitives for the rounded corners*
1,1,$1+$1,$2,$3*
1,1,$1+$1,$4,$5*
1,1,$1+$1,$6,$7*
1,1,$1+$1,$8,$9*
0 Add four rect primitives between the rounded corners*
20,1,$1+$1,$2,$3,$4,$5,0*
20,1,$1+$1,$4,$5,$6,$7,0*
20,1,$1+$1,$6,$7,$8,$9,0*
20,1,$1+$1,$8,$9,$2,$3,0*%
G04 Aperture macros list end*
%ADD10RoundRect,0.250000X-0.475000X0.250000X-0.475000X-0.250000X0.475000X-0.250000X0.475000X0.250000X0*%
%ADD11RoundRect,0.250000X0.250000X0.475000X-0.250000X0.475000X-0.250000X-0.475000X0.250000X-0.475000X0*%
%ADD12R,1.150000X1.150000*%
%ADD13RoundRect,0.250000X-0.450000X0.262500X-0.450000X-0.262500X0.450000X-0.262500X0.450000X0.262500X0*%
%ADD14RoundRect,0.250000X-0.250000X-0.475000X0.250000X-0.475000X0.250000X0.475000X-0.250000X0.475000X0*%
G04 APERTURE END LIST*
D10*
%TO.C,C40*%
X96091200Y-90612000D03*
X96091200Y-92512000D03*
%TD*%
D11*
%TO.C,C34*%
X99981200Y-95512000D03*
X98081200Y-95512000D03*
%TD*%
D12*
%TO.C,R12*%
X78275700Y-78663000D03*
X78275700Y-81013000D03*
%TD*%
%TO.C,R4*%
X71132800Y-78663000D03*
X71132800Y-81013000D03*
%TD*%
%TO.C,R13*%
X67561400Y-78663000D03*
X67561400Y-81013000D03*
%TD*%
%TO.C,R3*%
X74704200Y-78663000D03*
X74704200Y-81013000D03*
%TD*%
D11*
%TO.C,C37*%
X100081200Y-91012000D03*
X98181200Y-91012000D03*
%TD*%
D12*
%TO.C,R11*%
X81847100Y-78663000D03*
X81847100Y-81013000D03*
%TD*%
D10*
%TO.C,C41*%
X92081200Y-90612000D03*
X92081200Y-92512000D03*
%TD*%
D13*
%TO.C,R45*%
X96081200Y-96687000D03*
X96081200Y-98512000D03*
%TD*%
D12*
%TO.C,R1*%
X88990000Y-78663000D03*
X88990000Y-81013000D03*
%TD*%
D11*
%TO.C,C53*%
X111569200Y-104000000D03*
X109669200Y-104000000D03*
%TD*%
%TO.C,C2*%
X73940000Y-76013000D03*
X72040000Y-76013000D03*
%TD*%
D12*
%TO.C,R2*%
X85418500Y-78663000D03*
X85418500Y-81013000D03*
%TD*%
D10*
%TO.C,C39*%
X94081200Y-90612000D03*
X94081200Y-92512000D03*
%TD*%
D11*
%TO.C,C1*%
X88390000Y-76013000D03*
X86490000Y-76013000D03*
%TD*%
%TO.C,C11*%
X80990000Y-76013000D03*
X79090000Y-76013000D03*
%TD*%
%TO.C,C42*%
X93481200Y-98512000D03*
X91581200Y-98512000D03*
%TD*%
%TO.C,C12*%
X66490000Y-76013000D03*
X64590000Y-76013000D03*
%TD*%
%TO.C,C36*%
X99866300Y-98503100D03*
X97966300Y-98503100D03*
%TD*%
D14*
%TO.C,C38*%
X100681200Y-100512000D03*
X102581200Y-100512000D03*
%TD*%
D12*
%TO.C,R14*%
X63990000Y-78663000D03*
X63990000Y-81013000D03*
%TD*%
M02*
