%TF.GenerationSoftware,KiCad,Pcbnew,10.0.5*%
%TF.CreationDate,2026-08-25T18:12:24+00:00*%
%TF.ProjectId,sensor-module,73656e73-6f72-42d6-9d6f-64756c652e6b,rev?*%
%TF.SameCoordinates,Original*%
%TF.FileFunction,AssemblyDrawing,Bot*%
%FSLAX46Y46*%
G04 Gerber Fmt 4.6, Leading zero omitted, Abs format (unit mm)*
G04 Created by KiCad (PCBNEW 10.0.5) date 2026-08-25 18:12:24*
%MOMM*%
%LPD*%
G01*
G04 APERTURE LIST*
%ADD10C,0.150000*%
%ADD11C,0.080000*%
%ADD12C,0.254000*%
%ADD13C,0.100000*%
G04 APERTURE END LIST*
D10*
X97226019Y-89919143D02*
X97226019Y-90014381D01*
X97226019Y-90014381D02*
X97273638Y-90109619D01*
X97273638Y-90109619D02*
X97321257Y-90157238D01*
X97321257Y-90157238D02*
X97416495Y-90204857D01*
X97416495Y-90204857D02*
X97606971Y-90252476D01*
X97606971Y-90252476D02*
X97845066Y-90252476D01*
X97845066Y-90252476D02*
X98035542Y-90204857D01*
X98035542Y-90204857D02*
X98130780Y-90157238D01*
X98130780Y-90157238D02*
X98178400Y-90109619D01*
X98178400Y-90109619D02*
X98226019Y-90014381D01*
X98226019Y-90014381D02*
X98226019Y-89919143D01*
X98226019Y-89919143D02*
X98178400Y-89823905D01*
X98178400Y-89823905D02*
X98130780Y-89776286D01*
X98130780Y-89776286D02*
X98035542Y-89728667D01*
X98035542Y-89728667D02*
X97845066Y-89681048D01*
X97845066Y-89681048D02*
X97606971Y-89681048D01*
X97606971Y-89681048D02*
X97416495Y-89728667D01*
X97416495Y-89728667D02*
X97321257Y-89776286D01*
X97321257Y-89776286D02*
X97273638Y-89823905D01*
X97273638Y-89823905D02*
X97226019Y-89919143D01*
X98130780Y-90681048D02*
X98178400Y-90728667D01*
X98178400Y-90728667D02*
X98226019Y-90681048D01*
X98226019Y-90681048D02*
X98178400Y-90633429D01*
X98178400Y-90633429D02*
X98130780Y-90681048D01*
X98130780Y-90681048D02*
X98226019Y-90681048D01*
X98226019Y-91681047D02*
X98226019Y-91109619D01*
X98226019Y-91395333D02*
X97226019Y-91395333D01*
X97226019Y-91395333D02*
X97368876Y-91300095D01*
X97368876Y-91300095D02*
X97464114Y-91204857D01*
X97464114Y-91204857D02*
X97511733Y-91109619D01*
X97559352Y-92538190D02*
X98226019Y-92538190D01*
X97559352Y-92109619D02*
X98083161Y-92109619D01*
X98083161Y-92109619D02*
X98178400Y-92157238D01*
X98178400Y-92157238D02*
X98226019Y-92252476D01*
X98226019Y-92252476D02*
X98226019Y-92395333D01*
X98226019Y-92395333D02*
X98178400Y-92490571D01*
X98178400Y-92490571D02*
X98130780Y-92538190D01*
X97702209Y-93347714D02*
X97702209Y-93014381D01*
X98226019Y-93014381D02*
X97226019Y-93014381D01*
X97226019Y-93014381D02*
X97226019Y-93490571D01*
D11*
X96270730Y-91240571D02*
X96294540Y-91216762D01*
X96294540Y-91216762D02*
X96318349Y-91145333D01*
X96318349Y-91145333D02*
X96318349Y-91097714D01*
X96318349Y-91097714D02*
X96294540Y-91026286D01*
X96294540Y-91026286D02*
X96246920Y-90978667D01*
X96246920Y-90978667D02*
X96199301Y-90954857D01*
X96199301Y-90954857D02*
X96104063Y-90931048D01*
X96104063Y-90931048D02*
X96032635Y-90931048D01*
X96032635Y-90931048D02*
X95937397Y-90954857D01*
X95937397Y-90954857D02*
X95889778Y-90978667D01*
X95889778Y-90978667D02*
X95842159Y-91026286D01*
X95842159Y-91026286D02*
X95818349Y-91097714D01*
X95818349Y-91097714D02*
X95818349Y-91145333D01*
X95818349Y-91145333D02*
X95842159Y-91216762D01*
X95842159Y-91216762D02*
X95865968Y-91240571D01*
X95985016Y-91669143D02*
X96318349Y-91669143D01*
X95794540Y-91550095D02*
X96151682Y-91431048D01*
X96151682Y-91431048D02*
X96151682Y-91740571D01*
X95818349Y-92026285D02*
X95818349Y-92073904D01*
X95818349Y-92073904D02*
X95842159Y-92121523D01*
X95842159Y-92121523D02*
X95865968Y-92145333D01*
X95865968Y-92145333D02*
X95913587Y-92169142D01*
X95913587Y-92169142D02*
X96008825Y-92192952D01*
X96008825Y-92192952D02*
X96127873Y-92192952D01*
X96127873Y-92192952D02*
X96223111Y-92169142D01*
X96223111Y-92169142D02*
X96270730Y-92145333D01*
X96270730Y-92145333D02*
X96294540Y-92121523D01*
X96294540Y-92121523D02*
X96318349Y-92073904D01*
X96318349Y-92073904D02*
X96318349Y-92026285D01*
X96318349Y-92026285D02*
X96294540Y-91978666D01*
X96294540Y-91978666D02*
X96270730Y-91954857D01*
X96270730Y-91954857D02*
X96223111Y-91931047D01*
X96223111Y-91931047D02*
X96127873Y-91907238D01*
X96127873Y-91907238D02*
X96008825Y-91907238D01*
X96008825Y-91907238D02*
X95913587Y-91931047D01*
X95913587Y-91931047D02*
X95865968Y-91954857D01*
X95865968Y-91954857D02*
X95842159Y-91978666D01*
X95842159Y-91978666D02*
X95818349Y-92026285D01*
D10*
X100674056Y-96646819D02*
X100578818Y-96646819D01*
X100578818Y-96646819D02*
X100483580Y-96694438D01*
X100483580Y-96694438D02*
X100435961Y-96742057D01*
X100435961Y-96742057D02*
X100388342Y-96837295D01*
X100388342Y-96837295D02*
X100340723Y-97027771D01*
X100340723Y-97027771D02*
X100340723Y-97265866D01*
X100340723Y-97265866D02*
X100388342Y-97456342D01*
X100388342Y-97456342D02*
X100435961Y-97551580D01*
X100435961Y-97551580D02*
X100483580Y-97599200D01*
X100483580Y-97599200D02*
X100578818Y-97646819D01*
X100578818Y-97646819D02*
X100674056Y-97646819D01*
X100674056Y-97646819D02*
X100769294Y-97599200D01*
X100769294Y-97599200D02*
X100816913Y-97551580D01*
X100816913Y-97551580D02*
X100864532Y-97456342D01*
X100864532Y-97456342D02*
X100912151Y-97265866D01*
X100912151Y-97265866D02*
X100912151Y-97027771D01*
X100912151Y-97027771D02*
X100864532Y-96837295D01*
X100864532Y-96837295D02*
X100816913Y-96742057D01*
X100816913Y-96742057D02*
X100769294Y-96694438D01*
X100769294Y-96694438D02*
X100674056Y-96646819D01*
X99912151Y-97551580D02*
X99864532Y-97599200D01*
X99864532Y-97599200D02*
X99912151Y-97646819D01*
X99912151Y-97646819D02*
X99959770Y-97599200D01*
X99959770Y-97599200D02*
X99912151Y-97551580D01*
X99912151Y-97551580D02*
X99912151Y-97646819D01*
X98912152Y-97646819D02*
X99483580Y-97646819D01*
X99197866Y-97646819D02*
X99197866Y-96646819D01*
X99197866Y-96646819D02*
X99293104Y-96789676D01*
X99293104Y-96789676D02*
X99388342Y-96884914D01*
X99388342Y-96884914D02*
X99483580Y-96932533D01*
X98055009Y-96980152D02*
X98055009Y-97646819D01*
X98483580Y-96980152D02*
X98483580Y-97503961D01*
X98483580Y-97503961D02*
X98435961Y-97599200D01*
X98435961Y-97599200D02*
X98340723Y-97646819D01*
X98340723Y-97646819D02*
X98197866Y-97646819D01*
X98197866Y-97646819D02*
X98102628Y-97599200D01*
X98102628Y-97599200D02*
X98055009Y-97551580D01*
X97245485Y-97123009D02*
X97578818Y-97123009D01*
X97578818Y-97646819D02*
X97578818Y-96646819D01*
X97578818Y-96646819D02*
X97102628Y-96646819D01*
D11*
X99352628Y-95691530D02*
X99376437Y-95715340D01*
X99376437Y-95715340D02*
X99447866Y-95739149D01*
X99447866Y-95739149D02*
X99495485Y-95739149D01*
X99495485Y-95739149D02*
X99566913Y-95715340D01*
X99566913Y-95715340D02*
X99614532Y-95667720D01*
X99614532Y-95667720D02*
X99638342Y-95620101D01*
X99638342Y-95620101D02*
X99662151Y-95524863D01*
X99662151Y-95524863D02*
X99662151Y-95453435D01*
X99662151Y-95453435D02*
X99638342Y-95358197D01*
X99638342Y-95358197D02*
X99614532Y-95310578D01*
X99614532Y-95310578D02*
X99566913Y-95262959D01*
X99566913Y-95262959D02*
X99495485Y-95239149D01*
X99495485Y-95239149D02*
X99447866Y-95239149D01*
X99447866Y-95239149D02*
X99376437Y-95262959D01*
X99376437Y-95262959D02*
X99352628Y-95286768D01*
X99185961Y-95239149D02*
X98876437Y-95239149D01*
X98876437Y-95239149D02*
X99043104Y-95429625D01*
X99043104Y-95429625D02*
X98971675Y-95429625D01*
X98971675Y-95429625D02*
X98924056Y-95453435D01*
X98924056Y-95453435D02*
X98900247Y-95477244D01*
X98900247Y-95477244D02*
X98876437Y-95524863D01*
X98876437Y-95524863D02*
X98876437Y-95643911D01*
X98876437Y-95643911D02*
X98900247Y-95691530D01*
X98900247Y-95691530D02*
X98924056Y-95715340D01*
X98924056Y-95715340D02*
X98971675Y-95739149D01*
X98971675Y-95739149D02*
X99114532Y-95739149D01*
X99114532Y-95739149D02*
X99162151Y-95715340D01*
X99162151Y-95715340D02*
X99185961Y-95691530D01*
X98447866Y-95405816D02*
X98447866Y-95739149D01*
X98566914Y-95215340D02*
X98685961Y-95572482D01*
X98685961Y-95572482D02*
X98376438Y-95572482D01*
D12*
X78850018Y-79021571D02*
X78245256Y-78598237D01*
X78850018Y-78295856D02*
X77580018Y-78295856D01*
X77580018Y-78295856D02*
X77580018Y-78779666D01*
X77580018Y-78779666D02*
X77640494Y-78900618D01*
X77640494Y-78900618D02*
X77700970Y-78961095D01*
X77700970Y-78961095D02*
X77821922Y-79021571D01*
X77821922Y-79021571D02*
X78003351Y-79021571D01*
X78003351Y-79021571D02*
X78124303Y-78961095D01*
X78124303Y-78961095D02*
X78184780Y-78900618D01*
X78184780Y-78900618D02*
X78245256Y-78779666D01*
X78245256Y-78779666D02*
X78245256Y-78295856D01*
X78850018Y-80231095D02*
X78850018Y-79505380D01*
X78850018Y-79868237D02*
X77580018Y-79868237D01*
X77580018Y-79868237D02*
X77761446Y-79747285D01*
X77761446Y-79747285D02*
X77882399Y-79626333D01*
X77882399Y-79626333D02*
X77942875Y-79505380D01*
X77700970Y-80714904D02*
X77640494Y-80775380D01*
X77640494Y-80775380D02*
X77580018Y-80896333D01*
X77580018Y-80896333D02*
X77580018Y-81198714D01*
X77580018Y-81198714D02*
X77640494Y-81319666D01*
X77640494Y-81319666D02*
X77700970Y-81380142D01*
X77700970Y-81380142D02*
X77821922Y-81440619D01*
X77821922Y-81440619D02*
X77942875Y-81440619D01*
X77942875Y-81440619D02*
X78124303Y-81380142D01*
X78124303Y-81380142D02*
X78850018Y-80654428D01*
X78850018Y-80654428D02*
X78850018Y-81440619D01*
X71707118Y-79626333D02*
X71102356Y-79202999D01*
X71707118Y-78900618D02*
X70437118Y-78900618D01*
X70437118Y-78900618D02*
X70437118Y-79384428D01*
X70437118Y-79384428D02*
X70497594Y-79505380D01*
X70497594Y-79505380D02*
X70558070Y-79565857D01*
X70558070Y-79565857D02*
X70679022Y-79626333D01*
X70679022Y-79626333D02*
X70860451Y-79626333D01*
X70860451Y-79626333D02*
X70981403Y-79565857D01*
X70981403Y-79565857D02*
X71041880Y-79505380D01*
X71041880Y-79505380D02*
X71102356Y-79384428D01*
X71102356Y-79384428D02*
X71102356Y-78900618D01*
X70860451Y-80714904D02*
X71707118Y-80714904D01*
X70376642Y-80412523D02*
X71283784Y-80110142D01*
X71283784Y-80110142D02*
X71283784Y-80896333D01*
X68135718Y-79021571D02*
X67530956Y-78598237D01*
X68135718Y-78295856D02*
X66865718Y-78295856D01*
X66865718Y-78295856D02*
X66865718Y-78779666D01*
X66865718Y-78779666D02*
X66926194Y-78900618D01*
X66926194Y-78900618D02*
X66986670Y-78961095D01*
X66986670Y-78961095D02*
X67107622Y-79021571D01*
X67107622Y-79021571D02*
X67289051Y-79021571D01*
X67289051Y-79021571D02*
X67410003Y-78961095D01*
X67410003Y-78961095D02*
X67470480Y-78900618D01*
X67470480Y-78900618D02*
X67530956Y-78779666D01*
X67530956Y-78779666D02*
X67530956Y-78295856D01*
X68135718Y-80231095D02*
X68135718Y-79505380D01*
X68135718Y-79868237D02*
X66865718Y-79868237D01*
X66865718Y-79868237D02*
X67047146Y-79747285D01*
X67047146Y-79747285D02*
X67168099Y-79626333D01*
X67168099Y-79626333D02*
X67228575Y-79505380D01*
X66865718Y-80654428D02*
X66865718Y-81440619D01*
X66865718Y-81440619D02*
X67349527Y-81017285D01*
X67349527Y-81017285D02*
X67349527Y-81198714D01*
X67349527Y-81198714D02*
X67410003Y-81319666D01*
X67410003Y-81319666D02*
X67470480Y-81380142D01*
X67470480Y-81380142D02*
X67591432Y-81440619D01*
X67591432Y-81440619D02*
X67893813Y-81440619D01*
X67893813Y-81440619D02*
X68014765Y-81380142D01*
X68014765Y-81380142D02*
X68075242Y-81319666D01*
X68075242Y-81319666D02*
X68135718Y-81198714D01*
X68135718Y-81198714D02*
X68135718Y-80835857D01*
X68135718Y-80835857D02*
X68075242Y-80714904D01*
X68075242Y-80714904D02*
X68014765Y-80654428D01*
X75278518Y-79626333D02*
X74673756Y-79202999D01*
X75278518Y-78900618D02*
X74008518Y-78900618D01*
X74008518Y-78900618D02*
X74008518Y-79384428D01*
X74008518Y-79384428D02*
X74068994Y-79505380D01*
X74068994Y-79505380D02*
X74129470Y-79565857D01*
X74129470Y-79565857D02*
X74250422Y-79626333D01*
X74250422Y-79626333D02*
X74431851Y-79626333D01*
X74431851Y-79626333D02*
X74552803Y-79565857D01*
X74552803Y-79565857D02*
X74613280Y-79505380D01*
X74613280Y-79505380D02*
X74673756Y-79384428D01*
X74673756Y-79384428D02*
X74673756Y-78900618D01*
X74008518Y-80049666D02*
X74008518Y-80835857D01*
X74008518Y-80835857D02*
X74492327Y-80412523D01*
X74492327Y-80412523D02*
X74492327Y-80593952D01*
X74492327Y-80593952D02*
X74552803Y-80714904D01*
X74552803Y-80714904D02*
X74613280Y-80775380D01*
X74613280Y-80775380D02*
X74734232Y-80835857D01*
X74734232Y-80835857D02*
X75036613Y-80835857D01*
X75036613Y-80835857D02*
X75157565Y-80775380D01*
X75157565Y-80775380D02*
X75218042Y-80714904D01*
X75218042Y-80714904D02*
X75278518Y-80593952D01*
X75278518Y-80593952D02*
X75278518Y-80231095D01*
X75278518Y-80231095D02*
X75218042Y-80110142D01*
X75218042Y-80110142D02*
X75157565Y-80049666D01*
D10*
X100774056Y-92146819D02*
X100678818Y-92146819D01*
X100678818Y-92146819D02*
X100583580Y-92194438D01*
X100583580Y-92194438D02*
X100535961Y-92242057D01*
X100535961Y-92242057D02*
X100488342Y-92337295D01*
X100488342Y-92337295D02*
X100440723Y-92527771D01*
X100440723Y-92527771D02*
X100440723Y-92765866D01*
X100440723Y-92765866D02*
X100488342Y-92956342D01*
X100488342Y-92956342D02*
X100535961Y-93051580D01*
X100535961Y-93051580D02*
X100583580Y-93099200D01*
X100583580Y-93099200D02*
X100678818Y-93146819D01*
X100678818Y-93146819D02*
X100774056Y-93146819D01*
X100774056Y-93146819D02*
X100869294Y-93099200D01*
X100869294Y-93099200D02*
X100916913Y-93051580D01*
X100916913Y-93051580D02*
X100964532Y-92956342D01*
X100964532Y-92956342D02*
X101012151Y-92765866D01*
X101012151Y-92765866D02*
X101012151Y-92527771D01*
X101012151Y-92527771D02*
X100964532Y-92337295D01*
X100964532Y-92337295D02*
X100916913Y-92242057D01*
X100916913Y-92242057D02*
X100869294Y-92194438D01*
X100869294Y-92194438D02*
X100774056Y-92146819D01*
X100012151Y-93051580D02*
X99964532Y-93099200D01*
X99964532Y-93099200D02*
X100012151Y-93146819D01*
X100012151Y-93146819D02*
X100059770Y-93099200D01*
X100059770Y-93099200D02*
X100012151Y-93051580D01*
X100012151Y-93051580D02*
X100012151Y-93146819D01*
X99012152Y-93146819D02*
X99583580Y-93146819D01*
X99297866Y-93146819D02*
X99297866Y-92146819D01*
X99297866Y-92146819D02*
X99393104Y-92289676D01*
X99393104Y-92289676D02*
X99488342Y-92384914D01*
X99488342Y-92384914D02*
X99583580Y-92432533D01*
X98155009Y-92480152D02*
X98155009Y-93146819D01*
X98583580Y-92480152D02*
X98583580Y-93003961D01*
X98583580Y-93003961D02*
X98535961Y-93099200D01*
X98535961Y-93099200D02*
X98440723Y-93146819D01*
X98440723Y-93146819D02*
X98297866Y-93146819D01*
X98297866Y-93146819D02*
X98202628Y-93099200D01*
X98202628Y-93099200D02*
X98155009Y-93051580D01*
X97345485Y-92623009D02*
X97678818Y-92623009D01*
X97678818Y-93146819D02*
X97678818Y-92146819D01*
X97678818Y-92146819D02*
X97202628Y-92146819D01*
D11*
X99452628Y-91191530D02*
X99476437Y-91215340D01*
X99476437Y-91215340D02*
X99547866Y-91239149D01*
X99547866Y-91239149D02*
X99595485Y-91239149D01*
X99595485Y-91239149D02*
X99666913Y-91215340D01*
X99666913Y-91215340D02*
X99714532Y-91167720D01*
X99714532Y-91167720D02*
X99738342Y-91120101D01*
X99738342Y-91120101D02*
X99762151Y-91024863D01*
X99762151Y-91024863D02*
X99762151Y-90953435D01*
X99762151Y-90953435D02*
X99738342Y-90858197D01*
X99738342Y-90858197D02*
X99714532Y-90810578D01*
X99714532Y-90810578D02*
X99666913Y-90762959D01*
X99666913Y-90762959D02*
X99595485Y-90739149D01*
X99595485Y-90739149D02*
X99547866Y-90739149D01*
X99547866Y-90739149D02*
X99476437Y-90762959D01*
X99476437Y-90762959D02*
X99452628Y-90786768D01*
X99285961Y-90739149D02*
X98976437Y-90739149D01*
X98976437Y-90739149D02*
X99143104Y-90929625D01*
X99143104Y-90929625D02*
X99071675Y-90929625D01*
X99071675Y-90929625D02*
X99024056Y-90953435D01*
X99024056Y-90953435D02*
X99000247Y-90977244D01*
X99000247Y-90977244D02*
X98976437Y-91024863D01*
X98976437Y-91024863D02*
X98976437Y-91143911D01*
X98976437Y-91143911D02*
X99000247Y-91191530D01*
X99000247Y-91191530D02*
X99024056Y-91215340D01*
X99024056Y-91215340D02*
X99071675Y-91239149D01*
X99071675Y-91239149D02*
X99214532Y-91239149D01*
X99214532Y-91239149D02*
X99262151Y-91215340D01*
X99262151Y-91215340D02*
X99285961Y-91191530D01*
X98809771Y-90739149D02*
X98476438Y-90739149D01*
X98476438Y-90739149D02*
X98690723Y-91239149D01*
D12*
X82421418Y-79021571D02*
X81816656Y-78598237D01*
X82421418Y-78295856D02*
X81151418Y-78295856D01*
X81151418Y-78295856D02*
X81151418Y-78779666D01*
X81151418Y-78779666D02*
X81211894Y-78900618D01*
X81211894Y-78900618D02*
X81272370Y-78961095D01*
X81272370Y-78961095D02*
X81393322Y-79021571D01*
X81393322Y-79021571D02*
X81574751Y-79021571D01*
X81574751Y-79021571D02*
X81695703Y-78961095D01*
X81695703Y-78961095D02*
X81756180Y-78900618D01*
X81756180Y-78900618D02*
X81816656Y-78779666D01*
X81816656Y-78779666D02*
X81816656Y-78295856D01*
X82421418Y-80231095D02*
X82421418Y-79505380D01*
X82421418Y-79868237D02*
X81151418Y-79868237D01*
X81151418Y-79868237D02*
X81332846Y-79747285D01*
X81332846Y-79747285D02*
X81453799Y-79626333D01*
X81453799Y-79626333D02*
X81514275Y-79505380D01*
X82421418Y-81440619D02*
X82421418Y-80714904D01*
X82421418Y-81077761D02*
X81151418Y-81077761D01*
X81151418Y-81077761D02*
X81332846Y-80956809D01*
X81332846Y-80956809D02*
X81453799Y-80835857D01*
X81453799Y-80835857D02*
X81514275Y-80714904D01*
D10*
X93216019Y-89919143D02*
X93216019Y-90014381D01*
X93216019Y-90014381D02*
X93263638Y-90109619D01*
X93263638Y-90109619D02*
X93311257Y-90157238D01*
X93311257Y-90157238D02*
X93406495Y-90204857D01*
X93406495Y-90204857D02*
X93596971Y-90252476D01*
X93596971Y-90252476D02*
X93835066Y-90252476D01*
X93835066Y-90252476D02*
X94025542Y-90204857D01*
X94025542Y-90204857D02*
X94120780Y-90157238D01*
X94120780Y-90157238D02*
X94168400Y-90109619D01*
X94168400Y-90109619D02*
X94216019Y-90014381D01*
X94216019Y-90014381D02*
X94216019Y-89919143D01*
X94216019Y-89919143D02*
X94168400Y-89823905D01*
X94168400Y-89823905D02*
X94120780Y-89776286D01*
X94120780Y-89776286D02*
X94025542Y-89728667D01*
X94025542Y-89728667D02*
X93835066Y-89681048D01*
X93835066Y-89681048D02*
X93596971Y-89681048D01*
X93596971Y-89681048D02*
X93406495Y-89728667D01*
X93406495Y-89728667D02*
X93311257Y-89776286D01*
X93311257Y-89776286D02*
X93263638Y-89823905D01*
X93263638Y-89823905D02*
X93216019Y-89919143D01*
X94120780Y-90681048D02*
X94168400Y-90728667D01*
X94168400Y-90728667D02*
X94216019Y-90681048D01*
X94216019Y-90681048D02*
X94168400Y-90633429D01*
X94168400Y-90633429D02*
X94120780Y-90681048D01*
X94120780Y-90681048D02*
X94216019Y-90681048D01*
X94216019Y-91681047D02*
X94216019Y-91109619D01*
X94216019Y-91395333D02*
X93216019Y-91395333D01*
X93216019Y-91395333D02*
X93358876Y-91300095D01*
X93358876Y-91300095D02*
X93454114Y-91204857D01*
X93454114Y-91204857D02*
X93501733Y-91109619D01*
X93549352Y-92538190D02*
X94216019Y-92538190D01*
X93549352Y-92109619D02*
X94073161Y-92109619D01*
X94073161Y-92109619D02*
X94168400Y-92157238D01*
X94168400Y-92157238D02*
X94216019Y-92252476D01*
X94216019Y-92252476D02*
X94216019Y-92395333D01*
X94216019Y-92395333D02*
X94168400Y-92490571D01*
X94168400Y-92490571D02*
X94120780Y-92538190D01*
X93692209Y-93347714D02*
X93692209Y-93014381D01*
X94216019Y-93014381D02*
X93216019Y-93014381D01*
X93216019Y-93014381D02*
X93216019Y-93490571D01*
D11*
X92260730Y-91240571D02*
X92284540Y-91216762D01*
X92284540Y-91216762D02*
X92308349Y-91145333D01*
X92308349Y-91145333D02*
X92308349Y-91097714D01*
X92308349Y-91097714D02*
X92284540Y-91026286D01*
X92284540Y-91026286D02*
X92236920Y-90978667D01*
X92236920Y-90978667D02*
X92189301Y-90954857D01*
X92189301Y-90954857D02*
X92094063Y-90931048D01*
X92094063Y-90931048D02*
X92022635Y-90931048D01*
X92022635Y-90931048D02*
X91927397Y-90954857D01*
X91927397Y-90954857D02*
X91879778Y-90978667D01*
X91879778Y-90978667D02*
X91832159Y-91026286D01*
X91832159Y-91026286D02*
X91808349Y-91097714D01*
X91808349Y-91097714D02*
X91808349Y-91145333D01*
X91808349Y-91145333D02*
X91832159Y-91216762D01*
X91832159Y-91216762D02*
X91855968Y-91240571D01*
X91975016Y-91669143D02*
X92308349Y-91669143D01*
X91784540Y-91550095D02*
X92141682Y-91431048D01*
X92141682Y-91431048D02*
X92141682Y-91740571D01*
X92308349Y-92192952D02*
X92308349Y-91907238D01*
X92308349Y-92050095D02*
X91808349Y-92050095D01*
X91808349Y-92050095D02*
X91879778Y-92002476D01*
X91879778Y-92002476D02*
X91927397Y-91954857D01*
X91927397Y-91954857D02*
X91951206Y-91907238D01*
D10*
X98186019Y-97004261D02*
X98186019Y-96432833D01*
X98186019Y-96718547D02*
X97186019Y-96718547D01*
X97186019Y-96718547D02*
X97328876Y-96623309D01*
X97328876Y-96623309D02*
X97424114Y-96528071D01*
X97424114Y-96528071D02*
X97471733Y-96432833D01*
X97186019Y-97623309D02*
X97186019Y-97718547D01*
X97186019Y-97718547D02*
X97233638Y-97813785D01*
X97233638Y-97813785D02*
X97281257Y-97861404D01*
X97281257Y-97861404D02*
X97376495Y-97909023D01*
X97376495Y-97909023D02*
X97566971Y-97956642D01*
X97566971Y-97956642D02*
X97805066Y-97956642D01*
X97805066Y-97956642D02*
X97995542Y-97909023D01*
X97995542Y-97909023D02*
X98090780Y-97861404D01*
X98090780Y-97861404D02*
X98138400Y-97813785D01*
X98138400Y-97813785D02*
X98186019Y-97718547D01*
X98186019Y-97718547D02*
X98186019Y-97623309D01*
X98186019Y-97623309D02*
X98138400Y-97528071D01*
X98138400Y-97528071D02*
X98090780Y-97480452D01*
X98090780Y-97480452D02*
X97995542Y-97432833D01*
X97995542Y-97432833D02*
X97805066Y-97385214D01*
X97805066Y-97385214D02*
X97566971Y-97385214D01*
X97566971Y-97385214D02*
X97376495Y-97432833D01*
X97376495Y-97432833D02*
X97281257Y-97480452D01*
X97281257Y-97480452D02*
X97233638Y-97528071D01*
X97233638Y-97528071D02*
X97186019Y-97623309D01*
X98186019Y-98385214D02*
X97186019Y-98385214D01*
X97805066Y-98480452D02*
X98186019Y-98766166D01*
X97519352Y-98766166D02*
X97900304Y-98385214D01*
D11*
X96308349Y-97278071D02*
X96070254Y-97111405D01*
X96308349Y-96992357D02*
X95808349Y-96992357D01*
X95808349Y-96992357D02*
X95808349Y-97182833D01*
X95808349Y-97182833D02*
X95832159Y-97230452D01*
X95832159Y-97230452D02*
X95855968Y-97254262D01*
X95855968Y-97254262D02*
X95903587Y-97278071D01*
X95903587Y-97278071D02*
X95975016Y-97278071D01*
X95975016Y-97278071D02*
X96022635Y-97254262D01*
X96022635Y-97254262D02*
X96046444Y-97230452D01*
X96046444Y-97230452D02*
X96070254Y-97182833D01*
X96070254Y-97182833D02*
X96070254Y-96992357D01*
X95975016Y-97706643D02*
X96308349Y-97706643D01*
X95784540Y-97587595D02*
X96141682Y-97468548D01*
X96141682Y-97468548D02*
X96141682Y-97778071D01*
X95808349Y-98206642D02*
X95808349Y-97968547D01*
X95808349Y-97968547D02*
X96046444Y-97944738D01*
X96046444Y-97944738D02*
X96022635Y-97968547D01*
X96022635Y-97968547D02*
X95998825Y-98016166D01*
X95998825Y-98016166D02*
X95998825Y-98135214D01*
X95998825Y-98135214D02*
X96022635Y-98182833D01*
X96022635Y-98182833D02*
X96046444Y-98206642D01*
X96046444Y-98206642D02*
X96094063Y-98230452D01*
X96094063Y-98230452D02*
X96213111Y-98230452D01*
X96213111Y-98230452D02*
X96260730Y-98206642D01*
X96260730Y-98206642D02*
X96284540Y-98182833D01*
X96284540Y-98182833D02*
X96308349Y-98135214D01*
X96308349Y-98135214D02*
X96308349Y-98016166D01*
X96308349Y-98016166D02*
X96284540Y-97968547D01*
X96284540Y-97968547D02*
X96260730Y-97944738D01*
D12*
X89564318Y-79626333D02*
X88959556Y-79202999D01*
X89564318Y-78900618D02*
X88294318Y-78900618D01*
X88294318Y-78900618D02*
X88294318Y-79384428D01*
X88294318Y-79384428D02*
X88354794Y-79505380D01*
X88354794Y-79505380D02*
X88415270Y-79565857D01*
X88415270Y-79565857D02*
X88536222Y-79626333D01*
X88536222Y-79626333D02*
X88717651Y-79626333D01*
X88717651Y-79626333D02*
X88838603Y-79565857D01*
X88838603Y-79565857D02*
X88899080Y-79505380D01*
X88899080Y-79505380D02*
X88959556Y-79384428D01*
X88959556Y-79384428D02*
X88959556Y-78900618D01*
X89564318Y-80835857D02*
X89564318Y-80110142D01*
X89564318Y-80472999D02*
X88294318Y-80472999D01*
X88294318Y-80472999D02*
X88475746Y-80352047D01*
X88475746Y-80352047D02*
X88596699Y-80231095D01*
X88596699Y-80231095D02*
X88657175Y-80110142D01*
D10*
X112262056Y-105134819D02*
X112166818Y-105134819D01*
X112166818Y-105134819D02*
X112071580Y-105182438D01*
X112071580Y-105182438D02*
X112023961Y-105230057D01*
X112023961Y-105230057D02*
X111976342Y-105325295D01*
X111976342Y-105325295D02*
X111928723Y-105515771D01*
X111928723Y-105515771D02*
X111928723Y-105753866D01*
X111928723Y-105753866D02*
X111976342Y-105944342D01*
X111976342Y-105944342D02*
X112023961Y-106039580D01*
X112023961Y-106039580D02*
X112071580Y-106087200D01*
X112071580Y-106087200D02*
X112166818Y-106134819D01*
X112166818Y-106134819D02*
X112262056Y-106134819D01*
X112262056Y-106134819D02*
X112357294Y-106087200D01*
X112357294Y-106087200D02*
X112404913Y-106039580D01*
X112404913Y-106039580D02*
X112452532Y-105944342D01*
X112452532Y-105944342D02*
X112500151Y-105753866D01*
X112500151Y-105753866D02*
X112500151Y-105515771D01*
X112500151Y-105515771D02*
X112452532Y-105325295D01*
X112452532Y-105325295D02*
X112404913Y-105230057D01*
X112404913Y-105230057D02*
X112357294Y-105182438D01*
X112357294Y-105182438D02*
X112262056Y-105134819D01*
X111500151Y-106039580D02*
X111452532Y-106087200D01*
X111452532Y-106087200D02*
X111500151Y-106134819D01*
X111500151Y-106134819D02*
X111547770Y-106087200D01*
X111547770Y-106087200D02*
X111500151Y-106039580D01*
X111500151Y-106039580D02*
X111500151Y-106134819D01*
X110500152Y-106134819D02*
X111071580Y-106134819D01*
X110785866Y-106134819D02*
X110785866Y-105134819D01*
X110785866Y-105134819D02*
X110881104Y-105277676D01*
X110881104Y-105277676D02*
X110976342Y-105372914D01*
X110976342Y-105372914D02*
X111071580Y-105420533D01*
X109643009Y-105468152D02*
X109643009Y-106134819D01*
X110071580Y-105468152D02*
X110071580Y-105991961D01*
X110071580Y-105991961D02*
X110023961Y-106087200D01*
X110023961Y-106087200D02*
X109928723Y-106134819D01*
X109928723Y-106134819D02*
X109785866Y-106134819D01*
X109785866Y-106134819D02*
X109690628Y-106087200D01*
X109690628Y-106087200D02*
X109643009Y-106039580D01*
X108833485Y-105611009D02*
X109166818Y-105611009D01*
X109166818Y-106134819D02*
X109166818Y-105134819D01*
X109166818Y-105134819D02*
X108690628Y-105134819D01*
D11*
X110940628Y-104179530D02*
X110964437Y-104203340D01*
X110964437Y-104203340D02*
X111035866Y-104227149D01*
X111035866Y-104227149D02*
X111083485Y-104227149D01*
X111083485Y-104227149D02*
X111154913Y-104203340D01*
X111154913Y-104203340D02*
X111202532Y-104155720D01*
X111202532Y-104155720D02*
X111226342Y-104108101D01*
X111226342Y-104108101D02*
X111250151Y-104012863D01*
X111250151Y-104012863D02*
X111250151Y-103941435D01*
X111250151Y-103941435D02*
X111226342Y-103846197D01*
X111226342Y-103846197D02*
X111202532Y-103798578D01*
X111202532Y-103798578D02*
X111154913Y-103750959D01*
X111154913Y-103750959D02*
X111083485Y-103727149D01*
X111083485Y-103727149D02*
X111035866Y-103727149D01*
X111035866Y-103727149D02*
X110964437Y-103750959D01*
X110964437Y-103750959D02*
X110940628Y-103774768D01*
X110488247Y-103727149D02*
X110726342Y-103727149D01*
X110726342Y-103727149D02*
X110750151Y-103965244D01*
X110750151Y-103965244D02*
X110726342Y-103941435D01*
X110726342Y-103941435D02*
X110678723Y-103917625D01*
X110678723Y-103917625D02*
X110559675Y-103917625D01*
X110559675Y-103917625D02*
X110512056Y-103941435D01*
X110512056Y-103941435D02*
X110488247Y-103965244D01*
X110488247Y-103965244D02*
X110464437Y-104012863D01*
X110464437Y-104012863D02*
X110464437Y-104131911D01*
X110464437Y-104131911D02*
X110488247Y-104179530D01*
X110488247Y-104179530D02*
X110512056Y-104203340D01*
X110512056Y-104203340D02*
X110559675Y-104227149D01*
X110559675Y-104227149D02*
X110678723Y-104227149D01*
X110678723Y-104227149D02*
X110726342Y-104203340D01*
X110726342Y-104203340D02*
X110750151Y-104179530D01*
X110297771Y-103727149D02*
X109988247Y-103727149D01*
X109988247Y-103727149D02*
X110154914Y-103917625D01*
X110154914Y-103917625D02*
X110083485Y-103917625D01*
X110083485Y-103917625D02*
X110035866Y-103941435D01*
X110035866Y-103941435D02*
X110012057Y-103965244D01*
X110012057Y-103965244D02*
X109988247Y-104012863D01*
X109988247Y-104012863D02*
X109988247Y-104131911D01*
X109988247Y-104131911D02*
X110012057Y-104179530D01*
X110012057Y-104179530D02*
X110035866Y-104203340D01*
X110035866Y-104203340D02*
X110083485Y-104227149D01*
X110083485Y-104227149D02*
X110226342Y-104227149D01*
X110226342Y-104227149D02*
X110273961Y-104203340D01*
X110273961Y-104203340D02*
X110297771Y-104179530D01*
D10*
X75109047Y-77147819D02*
X75013809Y-77147819D01*
X75013809Y-77147819D02*
X74918571Y-77195438D01*
X74918571Y-77195438D02*
X74870952Y-77243057D01*
X74870952Y-77243057D02*
X74823333Y-77338295D01*
X74823333Y-77338295D02*
X74775714Y-77528771D01*
X74775714Y-77528771D02*
X74775714Y-77766866D01*
X74775714Y-77766866D02*
X74823333Y-77957342D01*
X74823333Y-77957342D02*
X74870952Y-78052580D01*
X74870952Y-78052580D02*
X74918571Y-78100200D01*
X74918571Y-78100200D02*
X75013809Y-78147819D01*
X75013809Y-78147819D02*
X75109047Y-78147819D01*
X75109047Y-78147819D02*
X75204285Y-78100200D01*
X75204285Y-78100200D02*
X75251904Y-78052580D01*
X75251904Y-78052580D02*
X75299523Y-77957342D01*
X75299523Y-77957342D02*
X75347142Y-77766866D01*
X75347142Y-77766866D02*
X75347142Y-77528771D01*
X75347142Y-77528771D02*
X75299523Y-77338295D01*
X75299523Y-77338295D02*
X75251904Y-77243057D01*
X75251904Y-77243057D02*
X75204285Y-77195438D01*
X75204285Y-77195438D02*
X75109047Y-77147819D01*
X74347142Y-78052580D02*
X74299523Y-78100200D01*
X74299523Y-78100200D02*
X74347142Y-78147819D01*
X74347142Y-78147819D02*
X74394761Y-78100200D01*
X74394761Y-78100200D02*
X74347142Y-78052580D01*
X74347142Y-78052580D02*
X74347142Y-78147819D01*
X73680476Y-77147819D02*
X73585238Y-77147819D01*
X73585238Y-77147819D02*
X73490000Y-77195438D01*
X73490000Y-77195438D02*
X73442381Y-77243057D01*
X73442381Y-77243057D02*
X73394762Y-77338295D01*
X73394762Y-77338295D02*
X73347143Y-77528771D01*
X73347143Y-77528771D02*
X73347143Y-77766866D01*
X73347143Y-77766866D02*
X73394762Y-77957342D01*
X73394762Y-77957342D02*
X73442381Y-78052580D01*
X73442381Y-78052580D02*
X73490000Y-78100200D01*
X73490000Y-78100200D02*
X73585238Y-78147819D01*
X73585238Y-78147819D02*
X73680476Y-78147819D01*
X73680476Y-78147819D02*
X73775714Y-78100200D01*
X73775714Y-78100200D02*
X73823333Y-78052580D01*
X73823333Y-78052580D02*
X73870952Y-77957342D01*
X73870952Y-77957342D02*
X73918571Y-77766866D01*
X73918571Y-77766866D02*
X73918571Y-77528771D01*
X73918571Y-77528771D02*
X73870952Y-77338295D01*
X73870952Y-77338295D02*
X73823333Y-77243057D01*
X73823333Y-77243057D02*
X73775714Y-77195438D01*
X73775714Y-77195438D02*
X73680476Y-77147819D01*
X72394762Y-78147819D02*
X72966190Y-78147819D01*
X72680476Y-78147819D02*
X72680476Y-77147819D01*
X72680476Y-77147819D02*
X72775714Y-77290676D01*
X72775714Y-77290676D02*
X72870952Y-77385914D01*
X72870952Y-77385914D02*
X72966190Y-77433533D01*
X71537619Y-77481152D02*
X71537619Y-78147819D01*
X71966190Y-77481152D02*
X71966190Y-78004961D01*
X71966190Y-78004961D02*
X71918571Y-78100200D01*
X71918571Y-78100200D02*
X71823333Y-78147819D01*
X71823333Y-78147819D02*
X71680476Y-78147819D01*
X71680476Y-78147819D02*
X71585238Y-78100200D01*
X71585238Y-78100200D02*
X71537619Y-78052580D01*
X70728095Y-77624009D02*
X71061428Y-77624009D01*
X71061428Y-78147819D02*
X71061428Y-77147819D01*
X71061428Y-77147819D02*
X70585238Y-77147819D01*
D11*
X73073333Y-76192530D02*
X73097142Y-76216340D01*
X73097142Y-76216340D02*
X73168571Y-76240149D01*
X73168571Y-76240149D02*
X73216190Y-76240149D01*
X73216190Y-76240149D02*
X73287618Y-76216340D01*
X73287618Y-76216340D02*
X73335237Y-76168720D01*
X73335237Y-76168720D02*
X73359047Y-76121101D01*
X73359047Y-76121101D02*
X73382856Y-76025863D01*
X73382856Y-76025863D02*
X73382856Y-75954435D01*
X73382856Y-75954435D02*
X73359047Y-75859197D01*
X73359047Y-75859197D02*
X73335237Y-75811578D01*
X73335237Y-75811578D02*
X73287618Y-75763959D01*
X73287618Y-75763959D02*
X73216190Y-75740149D01*
X73216190Y-75740149D02*
X73168571Y-75740149D01*
X73168571Y-75740149D02*
X73097142Y-75763959D01*
X73097142Y-75763959D02*
X73073333Y-75787768D01*
X72882856Y-75787768D02*
X72859047Y-75763959D01*
X72859047Y-75763959D02*
X72811428Y-75740149D01*
X72811428Y-75740149D02*
X72692380Y-75740149D01*
X72692380Y-75740149D02*
X72644761Y-75763959D01*
X72644761Y-75763959D02*
X72620952Y-75787768D01*
X72620952Y-75787768D02*
X72597142Y-75835387D01*
X72597142Y-75835387D02*
X72597142Y-75883006D01*
X72597142Y-75883006D02*
X72620952Y-75954435D01*
X72620952Y-75954435D02*
X72906666Y-76240149D01*
X72906666Y-76240149D02*
X72597142Y-76240149D01*
D12*
X85992818Y-79626333D02*
X85388056Y-79202999D01*
X85992818Y-78900618D02*
X84722818Y-78900618D01*
X84722818Y-78900618D02*
X84722818Y-79384428D01*
X84722818Y-79384428D02*
X84783294Y-79505380D01*
X84783294Y-79505380D02*
X84843770Y-79565857D01*
X84843770Y-79565857D02*
X84964722Y-79626333D01*
X84964722Y-79626333D02*
X85146151Y-79626333D01*
X85146151Y-79626333D02*
X85267103Y-79565857D01*
X85267103Y-79565857D02*
X85327580Y-79505380D01*
X85327580Y-79505380D02*
X85388056Y-79384428D01*
X85388056Y-79384428D02*
X85388056Y-78900618D01*
X84843770Y-80110142D02*
X84783294Y-80170618D01*
X84783294Y-80170618D02*
X84722818Y-80291571D01*
X84722818Y-80291571D02*
X84722818Y-80593952D01*
X84722818Y-80593952D02*
X84783294Y-80714904D01*
X84783294Y-80714904D02*
X84843770Y-80775380D01*
X84843770Y-80775380D02*
X84964722Y-80835857D01*
X84964722Y-80835857D02*
X85085675Y-80835857D01*
X85085675Y-80835857D02*
X85267103Y-80775380D01*
X85267103Y-80775380D02*
X85992818Y-80049666D01*
X85992818Y-80049666D02*
X85992818Y-80835857D01*
D10*
X96216019Y-90966761D02*
X96216019Y-90395333D01*
X96216019Y-90681047D02*
X95216019Y-90681047D01*
X95216019Y-90681047D02*
X95358876Y-90585809D01*
X95358876Y-90585809D02*
X95454114Y-90490571D01*
X95454114Y-90490571D02*
X95501733Y-90395333D01*
X95549352Y-91823904D02*
X96216019Y-91823904D01*
X95549352Y-91395333D02*
X96073161Y-91395333D01*
X96073161Y-91395333D02*
X96168400Y-91442952D01*
X96168400Y-91442952D02*
X96216019Y-91538190D01*
X96216019Y-91538190D02*
X96216019Y-91681047D01*
X96216019Y-91681047D02*
X96168400Y-91776285D01*
X96168400Y-91776285D02*
X96120780Y-91823904D01*
X95692209Y-92633428D02*
X95692209Y-92300095D01*
X96216019Y-92300095D02*
X95216019Y-92300095D01*
X95216019Y-92300095D02*
X95216019Y-92776285D01*
D11*
X94260730Y-91240571D02*
X94284540Y-91216762D01*
X94284540Y-91216762D02*
X94308349Y-91145333D01*
X94308349Y-91145333D02*
X94308349Y-91097714D01*
X94308349Y-91097714D02*
X94284540Y-91026286D01*
X94284540Y-91026286D02*
X94236920Y-90978667D01*
X94236920Y-90978667D02*
X94189301Y-90954857D01*
X94189301Y-90954857D02*
X94094063Y-90931048D01*
X94094063Y-90931048D02*
X94022635Y-90931048D01*
X94022635Y-90931048D02*
X93927397Y-90954857D01*
X93927397Y-90954857D02*
X93879778Y-90978667D01*
X93879778Y-90978667D02*
X93832159Y-91026286D01*
X93832159Y-91026286D02*
X93808349Y-91097714D01*
X93808349Y-91097714D02*
X93808349Y-91145333D01*
X93808349Y-91145333D02*
X93832159Y-91216762D01*
X93832159Y-91216762D02*
X93855968Y-91240571D01*
X93808349Y-91407238D02*
X93808349Y-91716762D01*
X93808349Y-91716762D02*
X93998825Y-91550095D01*
X93998825Y-91550095D02*
X93998825Y-91621524D01*
X93998825Y-91621524D02*
X94022635Y-91669143D01*
X94022635Y-91669143D02*
X94046444Y-91692952D01*
X94046444Y-91692952D02*
X94094063Y-91716762D01*
X94094063Y-91716762D02*
X94213111Y-91716762D01*
X94213111Y-91716762D02*
X94260730Y-91692952D01*
X94260730Y-91692952D02*
X94284540Y-91669143D01*
X94284540Y-91669143D02*
X94308349Y-91621524D01*
X94308349Y-91621524D02*
X94308349Y-91478667D01*
X94308349Y-91478667D02*
X94284540Y-91431048D01*
X94284540Y-91431048D02*
X94260730Y-91407238D01*
X94308349Y-91954857D02*
X94308349Y-92050095D01*
X94308349Y-92050095D02*
X94284540Y-92097714D01*
X94284540Y-92097714D02*
X94260730Y-92121523D01*
X94260730Y-92121523D02*
X94189301Y-92169142D01*
X94189301Y-92169142D02*
X94094063Y-92192952D01*
X94094063Y-92192952D02*
X93903587Y-92192952D01*
X93903587Y-92192952D02*
X93855968Y-92169142D01*
X93855968Y-92169142D02*
X93832159Y-92145333D01*
X93832159Y-92145333D02*
X93808349Y-92097714D01*
X93808349Y-92097714D02*
X93808349Y-92002476D01*
X93808349Y-92002476D02*
X93832159Y-91954857D01*
X93832159Y-91954857D02*
X93855968Y-91931047D01*
X93855968Y-91931047D02*
X93903587Y-91907238D01*
X93903587Y-91907238D02*
X94022635Y-91907238D01*
X94022635Y-91907238D02*
X94070254Y-91931047D01*
X94070254Y-91931047D02*
X94094063Y-91954857D01*
X94094063Y-91954857D02*
X94117873Y-92002476D01*
X94117873Y-92002476D02*
X94117873Y-92097714D01*
X94117873Y-92097714D02*
X94094063Y-92145333D01*
X94094063Y-92145333D02*
X94070254Y-92169142D01*
X94070254Y-92169142D02*
X94022635Y-92192952D01*
D10*
X89559047Y-77147819D02*
X89463809Y-77147819D01*
X89463809Y-77147819D02*
X89368571Y-77195438D01*
X89368571Y-77195438D02*
X89320952Y-77243057D01*
X89320952Y-77243057D02*
X89273333Y-77338295D01*
X89273333Y-77338295D02*
X89225714Y-77528771D01*
X89225714Y-77528771D02*
X89225714Y-77766866D01*
X89225714Y-77766866D02*
X89273333Y-77957342D01*
X89273333Y-77957342D02*
X89320952Y-78052580D01*
X89320952Y-78052580D02*
X89368571Y-78100200D01*
X89368571Y-78100200D02*
X89463809Y-78147819D01*
X89463809Y-78147819D02*
X89559047Y-78147819D01*
X89559047Y-78147819D02*
X89654285Y-78100200D01*
X89654285Y-78100200D02*
X89701904Y-78052580D01*
X89701904Y-78052580D02*
X89749523Y-77957342D01*
X89749523Y-77957342D02*
X89797142Y-77766866D01*
X89797142Y-77766866D02*
X89797142Y-77528771D01*
X89797142Y-77528771D02*
X89749523Y-77338295D01*
X89749523Y-77338295D02*
X89701904Y-77243057D01*
X89701904Y-77243057D02*
X89654285Y-77195438D01*
X89654285Y-77195438D02*
X89559047Y-77147819D01*
X88797142Y-78052580D02*
X88749523Y-78100200D01*
X88749523Y-78100200D02*
X88797142Y-78147819D01*
X88797142Y-78147819D02*
X88844761Y-78100200D01*
X88844761Y-78100200D02*
X88797142Y-78052580D01*
X88797142Y-78052580D02*
X88797142Y-78147819D01*
X88130476Y-77147819D02*
X88035238Y-77147819D01*
X88035238Y-77147819D02*
X87940000Y-77195438D01*
X87940000Y-77195438D02*
X87892381Y-77243057D01*
X87892381Y-77243057D02*
X87844762Y-77338295D01*
X87844762Y-77338295D02*
X87797143Y-77528771D01*
X87797143Y-77528771D02*
X87797143Y-77766866D01*
X87797143Y-77766866D02*
X87844762Y-77957342D01*
X87844762Y-77957342D02*
X87892381Y-78052580D01*
X87892381Y-78052580D02*
X87940000Y-78100200D01*
X87940000Y-78100200D02*
X88035238Y-78147819D01*
X88035238Y-78147819D02*
X88130476Y-78147819D01*
X88130476Y-78147819D02*
X88225714Y-78100200D01*
X88225714Y-78100200D02*
X88273333Y-78052580D01*
X88273333Y-78052580D02*
X88320952Y-77957342D01*
X88320952Y-77957342D02*
X88368571Y-77766866D01*
X88368571Y-77766866D02*
X88368571Y-77528771D01*
X88368571Y-77528771D02*
X88320952Y-77338295D01*
X88320952Y-77338295D02*
X88273333Y-77243057D01*
X88273333Y-77243057D02*
X88225714Y-77195438D01*
X88225714Y-77195438D02*
X88130476Y-77147819D01*
X86844762Y-78147819D02*
X87416190Y-78147819D01*
X87130476Y-78147819D02*
X87130476Y-77147819D01*
X87130476Y-77147819D02*
X87225714Y-77290676D01*
X87225714Y-77290676D02*
X87320952Y-77385914D01*
X87320952Y-77385914D02*
X87416190Y-77433533D01*
X85987619Y-77481152D02*
X85987619Y-78147819D01*
X86416190Y-77481152D02*
X86416190Y-78004961D01*
X86416190Y-78004961D02*
X86368571Y-78100200D01*
X86368571Y-78100200D02*
X86273333Y-78147819D01*
X86273333Y-78147819D02*
X86130476Y-78147819D01*
X86130476Y-78147819D02*
X86035238Y-78100200D01*
X86035238Y-78100200D02*
X85987619Y-78052580D01*
X85178095Y-77624009D02*
X85511428Y-77624009D01*
X85511428Y-78147819D02*
X85511428Y-77147819D01*
X85511428Y-77147819D02*
X85035238Y-77147819D01*
D11*
X87523333Y-76192530D02*
X87547142Y-76216340D01*
X87547142Y-76216340D02*
X87618571Y-76240149D01*
X87618571Y-76240149D02*
X87666190Y-76240149D01*
X87666190Y-76240149D02*
X87737618Y-76216340D01*
X87737618Y-76216340D02*
X87785237Y-76168720D01*
X87785237Y-76168720D02*
X87809047Y-76121101D01*
X87809047Y-76121101D02*
X87832856Y-76025863D01*
X87832856Y-76025863D02*
X87832856Y-75954435D01*
X87832856Y-75954435D02*
X87809047Y-75859197D01*
X87809047Y-75859197D02*
X87785237Y-75811578D01*
X87785237Y-75811578D02*
X87737618Y-75763959D01*
X87737618Y-75763959D02*
X87666190Y-75740149D01*
X87666190Y-75740149D02*
X87618571Y-75740149D01*
X87618571Y-75740149D02*
X87547142Y-75763959D01*
X87547142Y-75763959D02*
X87523333Y-75787768D01*
X87047142Y-76240149D02*
X87332856Y-76240149D01*
X87189999Y-76240149D02*
X87189999Y-75740149D01*
X87189999Y-75740149D02*
X87237618Y-75811578D01*
X87237618Y-75811578D02*
X87285237Y-75859197D01*
X87285237Y-75859197D02*
X87332856Y-75883006D01*
D10*
X82159047Y-77147819D02*
X82063809Y-77147819D01*
X82063809Y-77147819D02*
X81968571Y-77195438D01*
X81968571Y-77195438D02*
X81920952Y-77243057D01*
X81920952Y-77243057D02*
X81873333Y-77338295D01*
X81873333Y-77338295D02*
X81825714Y-77528771D01*
X81825714Y-77528771D02*
X81825714Y-77766866D01*
X81825714Y-77766866D02*
X81873333Y-77957342D01*
X81873333Y-77957342D02*
X81920952Y-78052580D01*
X81920952Y-78052580D02*
X81968571Y-78100200D01*
X81968571Y-78100200D02*
X82063809Y-78147819D01*
X82063809Y-78147819D02*
X82159047Y-78147819D01*
X82159047Y-78147819D02*
X82254285Y-78100200D01*
X82254285Y-78100200D02*
X82301904Y-78052580D01*
X82301904Y-78052580D02*
X82349523Y-77957342D01*
X82349523Y-77957342D02*
X82397142Y-77766866D01*
X82397142Y-77766866D02*
X82397142Y-77528771D01*
X82397142Y-77528771D02*
X82349523Y-77338295D01*
X82349523Y-77338295D02*
X82301904Y-77243057D01*
X82301904Y-77243057D02*
X82254285Y-77195438D01*
X82254285Y-77195438D02*
X82159047Y-77147819D01*
X81397142Y-78052580D02*
X81349523Y-78100200D01*
X81349523Y-78100200D02*
X81397142Y-78147819D01*
X81397142Y-78147819D02*
X81444761Y-78100200D01*
X81444761Y-78100200D02*
X81397142Y-78052580D01*
X81397142Y-78052580D02*
X81397142Y-78147819D01*
X80730476Y-77147819D02*
X80635238Y-77147819D01*
X80635238Y-77147819D02*
X80540000Y-77195438D01*
X80540000Y-77195438D02*
X80492381Y-77243057D01*
X80492381Y-77243057D02*
X80444762Y-77338295D01*
X80444762Y-77338295D02*
X80397143Y-77528771D01*
X80397143Y-77528771D02*
X80397143Y-77766866D01*
X80397143Y-77766866D02*
X80444762Y-77957342D01*
X80444762Y-77957342D02*
X80492381Y-78052580D01*
X80492381Y-78052580D02*
X80540000Y-78100200D01*
X80540000Y-78100200D02*
X80635238Y-78147819D01*
X80635238Y-78147819D02*
X80730476Y-78147819D01*
X80730476Y-78147819D02*
X80825714Y-78100200D01*
X80825714Y-78100200D02*
X80873333Y-78052580D01*
X80873333Y-78052580D02*
X80920952Y-77957342D01*
X80920952Y-77957342D02*
X80968571Y-77766866D01*
X80968571Y-77766866D02*
X80968571Y-77528771D01*
X80968571Y-77528771D02*
X80920952Y-77338295D01*
X80920952Y-77338295D02*
X80873333Y-77243057D01*
X80873333Y-77243057D02*
X80825714Y-77195438D01*
X80825714Y-77195438D02*
X80730476Y-77147819D01*
X79444762Y-78147819D02*
X80016190Y-78147819D01*
X79730476Y-78147819D02*
X79730476Y-77147819D01*
X79730476Y-77147819D02*
X79825714Y-77290676D01*
X79825714Y-77290676D02*
X79920952Y-77385914D01*
X79920952Y-77385914D02*
X80016190Y-77433533D01*
X78587619Y-77481152D02*
X78587619Y-78147819D01*
X79016190Y-77481152D02*
X79016190Y-78004961D01*
X79016190Y-78004961D02*
X78968571Y-78100200D01*
X78968571Y-78100200D02*
X78873333Y-78147819D01*
X78873333Y-78147819D02*
X78730476Y-78147819D01*
X78730476Y-78147819D02*
X78635238Y-78100200D01*
X78635238Y-78100200D02*
X78587619Y-78052580D01*
X77778095Y-77624009D02*
X78111428Y-77624009D01*
X78111428Y-78147819D02*
X78111428Y-77147819D01*
X78111428Y-77147819D02*
X77635238Y-77147819D01*
D11*
X80361428Y-76192530D02*
X80385237Y-76216340D01*
X80385237Y-76216340D02*
X80456666Y-76240149D01*
X80456666Y-76240149D02*
X80504285Y-76240149D01*
X80504285Y-76240149D02*
X80575713Y-76216340D01*
X80575713Y-76216340D02*
X80623332Y-76168720D01*
X80623332Y-76168720D02*
X80647142Y-76121101D01*
X80647142Y-76121101D02*
X80670951Y-76025863D01*
X80670951Y-76025863D02*
X80670951Y-75954435D01*
X80670951Y-75954435D02*
X80647142Y-75859197D01*
X80647142Y-75859197D02*
X80623332Y-75811578D01*
X80623332Y-75811578D02*
X80575713Y-75763959D01*
X80575713Y-75763959D02*
X80504285Y-75740149D01*
X80504285Y-75740149D02*
X80456666Y-75740149D01*
X80456666Y-75740149D02*
X80385237Y-75763959D01*
X80385237Y-75763959D02*
X80361428Y-75787768D01*
X79885237Y-76240149D02*
X80170951Y-76240149D01*
X80028094Y-76240149D02*
X80028094Y-75740149D01*
X80028094Y-75740149D02*
X80075713Y-75811578D01*
X80075713Y-75811578D02*
X80123332Y-75859197D01*
X80123332Y-75859197D02*
X80170951Y-75883006D01*
X79409047Y-76240149D02*
X79694761Y-76240149D01*
X79551904Y-76240149D02*
X79551904Y-75740149D01*
X79551904Y-75740149D02*
X79599523Y-75811578D01*
X79599523Y-75811578D02*
X79647142Y-75859197D01*
X79647142Y-75859197D02*
X79694761Y-75883006D01*
D10*
X94174056Y-99646819D02*
X94078818Y-99646819D01*
X94078818Y-99646819D02*
X93983580Y-99694438D01*
X93983580Y-99694438D02*
X93935961Y-99742057D01*
X93935961Y-99742057D02*
X93888342Y-99837295D01*
X93888342Y-99837295D02*
X93840723Y-100027771D01*
X93840723Y-100027771D02*
X93840723Y-100265866D01*
X93840723Y-100265866D02*
X93888342Y-100456342D01*
X93888342Y-100456342D02*
X93935961Y-100551580D01*
X93935961Y-100551580D02*
X93983580Y-100599200D01*
X93983580Y-100599200D02*
X94078818Y-100646819D01*
X94078818Y-100646819D02*
X94174056Y-100646819D01*
X94174056Y-100646819D02*
X94269294Y-100599200D01*
X94269294Y-100599200D02*
X94316913Y-100551580D01*
X94316913Y-100551580D02*
X94364532Y-100456342D01*
X94364532Y-100456342D02*
X94412151Y-100265866D01*
X94412151Y-100265866D02*
X94412151Y-100027771D01*
X94412151Y-100027771D02*
X94364532Y-99837295D01*
X94364532Y-99837295D02*
X94316913Y-99742057D01*
X94316913Y-99742057D02*
X94269294Y-99694438D01*
X94269294Y-99694438D02*
X94174056Y-99646819D01*
X93412151Y-100551580D02*
X93364532Y-100599200D01*
X93364532Y-100599200D02*
X93412151Y-100646819D01*
X93412151Y-100646819D02*
X93459770Y-100599200D01*
X93459770Y-100599200D02*
X93412151Y-100551580D01*
X93412151Y-100551580D02*
X93412151Y-100646819D01*
X92412152Y-100646819D02*
X92983580Y-100646819D01*
X92697866Y-100646819D02*
X92697866Y-99646819D01*
X92697866Y-99646819D02*
X92793104Y-99789676D01*
X92793104Y-99789676D02*
X92888342Y-99884914D01*
X92888342Y-99884914D02*
X92983580Y-99932533D01*
X91555009Y-99980152D02*
X91555009Y-100646819D01*
X91983580Y-99980152D02*
X91983580Y-100503961D01*
X91983580Y-100503961D02*
X91935961Y-100599200D01*
X91935961Y-100599200D02*
X91840723Y-100646819D01*
X91840723Y-100646819D02*
X91697866Y-100646819D01*
X91697866Y-100646819D02*
X91602628Y-100599200D01*
X91602628Y-100599200D02*
X91555009Y-100551580D01*
X90745485Y-100123009D02*
X91078818Y-100123009D01*
X91078818Y-100646819D02*
X91078818Y-99646819D01*
X91078818Y-99646819D02*
X90602628Y-99646819D01*
D11*
X92852628Y-98691530D02*
X92876437Y-98715340D01*
X92876437Y-98715340D02*
X92947866Y-98739149D01*
X92947866Y-98739149D02*
X92995485Y-98739149D01*
X92995485Y-98739149D02*
X93066913Y-98715340D01*
X93066913Y-98715340D02*
X93114532Y-98667720D01*
X93114532Y-98667720D02*
X93138342Y-98620101D01*
X93138342Y-98620101D02*
X93162151Y-98524863D01*
X93162151Y-98524863D02*
X93162151Y-98453435D01*
X93162151Y-98453435D02*
X93138342Y-98358197D01*
X93138342Y-98358197D02*
X93114532Y-98310578D01*
X93114532Y-98310578D02*
X93066913Y-98262959D01*
X93066913Y-98262959D02*
X92995485Y-98239149D01*
X92995485Y-98239149D02*
X92947866Y-98239149D01*
X92947866Y-98239149D02*
X92876437Y-98262959D01*
X92876437Y-98262959D02*
X92852628Y-98286768D01*
X92424056Y-98405816D02*
X92424056Y-98739149D01*
X92543104Y-98215340D02*
X92662151Y-98572482D01*
X92662151Y-98572482D02*
X92352628Y-98572482D01*
X92185961Y-98286768D02*
X92162152Y-98262959D01*
X92162152Y-98262959D02*
X92114533Y-98239149D01*
X92114533Y-98239149D02*
X91995485Y-98239149D01*
X91995485Y-98239149D02*
X91947866Y-98262959D01*
X91947866Y-98262959D02*
X91924057Y-98286768D01*
X91924057Y-98286768D02*
X91900247Y-98334387D01*
X91900247Y-98334387D02*
X91900247Y-98382006D01*
X91900247Y-98382006D02*
X91924057Y-98453435D01*
X91924057Y-98453435D02*
X92209771Y-98739149D01*
X92209771Y-98739149D02*
X91900247Y-98739149D01*
D10*
X67659047Y-77147819D02*
X67563809Y-77147819D01*
X67563809Y-77147819D02*
X67468571Y-77195438D01*
X67468571Y-77195438D02*
X67420952Y-77243057D01*
X67420952Y-77243057D02*
X67373333Y-77338295D01*
X67373333Y-77338295D02*
X67325714Y-77528771D01*
X67325714Y-77528771D02*
X67325714Y-77766866D01*
X67325714Y-77766866D02*
X67373333Y-77957342D01*
X67373333Y-77957342D02*
X67420952Y-78052580D01*
X67420952Y-78052580D02*
X67468571Y-78100200D01*
X67468571Y-78100200D02*
X67563809Y-78147819D01*
X67563809Y-78147819D02*
X67659047Y-78147819D01*
X67659047Y-78147819D02*
X67754285Y-78100200D01*
X67754285Y-78100200D02*
X67801904Y-78052580D01*
X67801904Y-78052580D02*
X67849523Y-77957342D01*
X67849523Y-77957342D02*
X67897142Y-77766866D01*
X67897142Y-77766866D02*
X67897142Y-77528771D01*
X67897142Y-77528771D02*
X67849523Y-77338295D01*
X67849523Y-77338295D02*
X67801904Y-77243057D01*
X67801904Y-77243057D02*
X67754285Y-77195438D01*
X67754285Y-77195438D02*
X67659047Y-77147819D01*
X66897142Y-78052580D02*
X66849523Y-78100200D01*
X66849523Y-78100200D02*
X66897142Y-78147819D01*
X66897142Y-78147819D02*
X66944761Y-78100200D01*
X66944761Y-78100200D02*
X66897142Y-78052580D01*
X66897142Y-78052580D02*
X66897142Y-78147819D01*
X66230476Y-77147819D02*
X66135238Y-77147819D01*
X66135238Y-77147819D02*
X66040000Y-77195438D01*
X66040000Y-77195438D02*
X65992381Y-77243057D01*
X65992381Y-77243057D02*
X65944762Y-77338295D01*
X65944762Y-77338295D02*
X65897143Y-77528771D01*
X65897143Y-77528771D02*
X65897143Y-77766866D01*
X65897143Y-77766866D02*
X65944762Y-77957342D01*
X65944762Y-77957342D02*
X65992381Y-78052580D01*
X65992381Y-78052580D02*
X66040000Y-78100200D01*
X66040000Y-78100200D02*
X66135238Y-78147819D01*
X66135238Y-78147819D02*
X66230476Y-78147819D01*
X66230476Y-78147819D02*
X66325714Y-78100200D01*
X66325714Y-78100200D02*
X66373333Y-78052580D01*
X66373333Y-78052580D02*
X66420952Y-77957342D01*
X66420952Y-77957342D02*
X66468571Y-77766866D01*
X66468571Y-77766866D02*
X66468571Y-77528771D01*
X66468571Y-77528771D02*
X66420952Y-77338295D01*
X66420952Y-77338295D02*
X66373333Y-77243057D01*
X66373333Y-77243057D02*
X66325714Y-77195438D01*
X66325714Y-77195438D02*
X66230476Y-77147819D01*
X64944762Y-78147819D02*
X65516190Y-78147819D01*
X65230476Y-78147819D02*
X65230476Y-77147819D01*
X65230476Y-77147819D02*
X65325714Y-77290676D01*
X65325714Y-77290676D02*
X65420952Y-77385914D01*
X65420952Y-77385914D02*
X65516190Y-77433533D01*
X64087619Y-77481152D02*
X64087619Y-78147819D01*
X64516190Y-77481152D02*
X64516190Y-78004961D01*
X64516190Y-78004961D02*
X64468571Y-78100200D01*
X64468571Y-78100200D02*
X64373333Y-78147819D01*
X64373333Y-78147819D02*
X64230476Y-78147819D01*
X64230476Y-78147819D02*
X64135238Y-78100200D01*
X64135238Y-78100200D02*
X64087619Y-78052580D01*
X63278095Y-77624009D02*
X63611428Y-77624009D01*
X63611428Y-78147819D02*
X63611428Y-77147819D01*
X63611428Y-77147819D02*
X63135238Y-77147819D01*
D11*
X65861428Y-76192530D02*
X65885237Y-76216340D01*
X65885237Y-76216340D02*
X65956666Y-76240149D01*
X65956666Y-76240149D02*
X66004285Y-76240149D01*
X66004285Y-76240149D02*
X66075713Y-76216340D01*
X66075713Y-76216340D02*
X66123332Y-76168720D01*
X66123332Y-76168720D02*
X66147142Y-76121101D01*
X66147142Y-76121101D02*
X66170951Y-76025863D01*
X66170951Y-76025863D02*
X66170951Y-75954435D01*
X66170951Y-75954435D02*
X66147142Y-75859197D01*
X66147142Y-75859197D02*
X66123332Y-75811578D01*
X66123332Y-75811578D02*
X66075713Y-75763959D01*
X66075713Y-75763959D02*
X66004285Y-75740149D01*
X66004285Y-75740149D02*
X65956666Y-75740149D01*
X65956666Y-75740149D02*
X65885237Y-75763959D01*
X65885237Y-75763959D02*
X65861428Y-75787768D01*
X65385237Y-76240149D02*
X65670951Y-76240149D01*
X65528094Y-76240149D02*
X65528094Y-75740149D01*
X65528094Y-75740149D02*
X65575713Y-75811578D01*
X65575713Y-75811578D02*
X65623332Y-75859197D01*
X65623332Y-75859197D02*
X65670951Y-75883006D01*
X65194761Y-75787768D02*
X65170952Y-75763959D01*
X65170952Y-75763959D02*
X65123333Y-75740149D01*
X65123333Y-75740149D02*
X65004285Y-75740149D01*
X65004285Y-75740149D02*
X64956666Y-75763959D01*
X64956666Y-75763959D02*
X64932857Y-75787768D01*
X64932857Y-75787768D02*
X64909047Y-75835387D01*
X64909047Y-75835387D02*
X64909047Y-75883006D01*
X64909047Y-75883006D02*
X64932857Y-75954435D01*
X64932857Y-75954435D02*
X65218571Y-76240149D01*
X65218571Y-76240149D02*
X64909047Y-76240149D01*
D10*
X100559156Y-99637919D02*
X100463918Y-99637919D01*
X100463918Y-99637919D02*
X100368680Y-99685538D01*
X100368680Y-99685538D02*
X100321061Y-99733157D01*
X100321061Y-99733157D02*
X100273442Y-99828395D01*
X100273442Y-99828395D02*
X100225823Y-100018871D01*
X100225823Y-100018871D02*
X100225823Y-100256966D01*
X100225823Y-100256966D02*
X100273442Y-100447442D01*
X100273442Y-100447442D02*
X100321061Y-100542680D01*
X100321061Y-100542680D02*
X100368680Y-100590300D01*
X100368680Y-100590300D02*
X100463918Y-100637919D01*
X100463918Y-100637919D02*
X100559156Y-100637919D01*
X100559156Y-100637919D02*
X100654394Y-100590300D01*
X100654394Y-100590300D02*
X100702013Y-100542680D01*
X100702013Y-100542680D02*
X100749632Y-100447442D01*
X100749632Y-100447442D02*
X100797251Y-100256966D01*
X100797251Y-100256966D02*
X100797251Y-100018871D01*
X100797251Y-100018871D02*
X100749632Y-99828395D01*
X100749632Y-99828395D02*
X100702013Y-99733157D01*
X100702013Y-99733157D02*
X100654394Y-99685538D01*
X100654394Y-99685538D02*
X100559156Y-99637919D01*
X99797251Y-100542680D02*
X99749632Y-100590300D01*
X99749632Y-100590300D02*
X99797251Y-100637919D01*
X99797251Y-100637919D02*
X99844870Y-100590300D01*
X99844870Y-100590300D02*
X99797251Y-100542680D01*
X99797251Y-100542680D02*
X99797251Y-100637919D01*
X98797252Y-100637919D02*
X99368680Y-100637919D01*
X99082966Y-100637919D02*
X99082966Y-99637919D01*
X99082966Y-99637919D02*
X99178204Y-99780776D01*
X99178204Y-99780776D02*
X99273442Y-99876014D01*
X99273442Y-99876014D02*
X99368680Y-99923633D01*
X97940109Y-99971252D02*
X97940109Y-100637919D01*
X98368680Y-99971252D02*
X98368680Y-100495061D01*
X98368680Y-100495061D02*
X98321061Y-100590300D01*
X98321061Y-100590300D02*
X98225823Y-100637919D01*
X98225823Y-100637919D02*
X98082966Y-100637919D01*
X98082966Y-100637919D02*
X97987728Y-100590300D01*
X97987728Y-100590300D02*
X97940109Y-100542680D01*
X97130585Y-100114109D02*
X97463918Y-100114109D01*
X97463918Y-100637919D02*
X97463918Y-99637919D01*
X97463918Y-99637919D02*
X96987728Y-99637919D01*
D11*
X99237728Y-98682630D02*
X99261537Y-98706440D01*
X99261537Y-98706440D02*
X99332966Y-98730249D01*
X99332966Y-98730249D02*
X99380585Y-98730249D01*
X99380585Y-98730249D02*
X99452013Y-98706440D01*
X99452013Y-98706440D02*
X99499632Y-98658820D01*
X99499632Y-98658820D02*
X99523442Y-98611201D01*
X99523442Y-98611201D02*
X99547251Y-98515963D01*
X99547251Y-98515963D02*
X99547251Y-98444535D01*
X99547251Y-98444535D02*
X99523442Y-98349297D01*
X99523442Y-98349297D02*
X99499632Y-98301678D01*
X99499632Y-98301678D02*
X99452013Y-98254059D01*
X99452013Y-98254059D02*
X99380585Y-98230249D01*
X99380585Y-98230249D02*
X99332966Y-98230249D01*
X99332966Y-98230249D02*
X99261537Y-98254059D01*
X99261537Y-98254059D02*
X99237728Y-98277868D01*
X99071061Y-98230249D02*
X98761537Y-98230249D01*
X98761537Y-98230249D02*
X98928204Y-98420725D01*
X98928204Y-98420725D02*
X98856775Y-98420725D01*
X98856775Y-98420725D02*
X98809156Y-98444535D01*
X98809156Y-98444535D02*
X98785347Y-98468344D01*
X98785347Y-98468344D02*
X98761537Y-98515963D01*
X98761537Y-98515963D02*
X98761537Y-98635011D01*
X98761537Y-98635011D02*
X98785347Y-98682630D01*
X98785347Y-98682630D02*
X98809156Y-98706440D01*
X98809156Y-98706440D02*
X98856775Y-98730249D01*
X98856775Y-98730249D02*
X98999632Y-98730249D01*
X98999632Y-98730249D02*
X99047251Y-98706440D01*
X99047251Y-98706440D02*
X99071061Y-98682630D01*
X98332966Y-98230249D02*
X98428204Y-98230249D01*
X98428204Y-98230249D02*
X98475823Y-98254059D01*
X98475823Y-98254059D02*
X98499633Y-98277868D01*
X98499633Y-98277868D02*
X98547252Y-98349297D01*
X98547252Y-98349297D02*
X98571061Y-98444535D01*
X98571061Y-98444535D02*
X98571061Y-98635011D01*
X98571061Y-98635011D02*
X98547252Y-98682630D01*
X98547252Y-98682630D02*
X98523442Y-98706440D01*
X98523442Y-98706440D02*
X98475823Y-98730249D01*
X98475823Y-98730249D02*
X98380585Y-98730249D01*
X98380585Y-98730249D02*
X98332966Y-98706440D01*
X98332966Y-98706440D02*
X98309157Y-98682630D01*
X98309157Y-98682630D02*
X98285347Y-98635011D01*
X98285347Y-98635011D02*
X98285347Y-98515963D01*
X98285347Y-98515963D02*
X98309157Y-98468344D01*
X98309157Y-98468344D02*
X98332966Y-98444535D01*
X98332966Y-98444535D02*
X98380585Y-98420725D01*
X98380585Y-98420725D02*
X98475823Y-98420725D01*
X98475823Y-98420725D02*
X98523442Y-98444535D01*
X98523442Y-98444535D02*
X98547252Y-98468344D01*
X98547252Y-98468344D02*
X98571061Y-98515963D01*
D10*
X103274056Y-98286819D02*
X103178818Y-98286819D01*
X103178818Y-98286819D02*
X103083580Y-98334438D01*
X103083580Y-98334438D02*
X103035961Y-98382057D01*
X103035961Y-98382057D02*
X102988342Y-98477295D01*
X102988342Y-98477295D02*
X102940723Y-98667771D01*
X102940723Y-98667771D02*
X102940723Y-98905866D01*
X102940723Y-98905866D02*
X102988342Y-99096342D01*
X102988342Y-99096342D02*
X103035961Y-99191580D01*
X103035961Y-99191580D02*
X103083580Y-99239200D01*
X103083580Y-99239200D02*
X103178818Y-99286819D01*
X103178818Y-99286819D02*
X103274056Y-99286819D01*
X103274056Y-99286819D02*
X103369294Y-99239200D01*
X103369294Y-99239200D02*
X103416913Y-99191580D01*
X103416913Y-99191580D02*
X103464532Y-99096342D01*
X103464532Y-99096342D02*
X103512151Y-98905866D01*
X103512151Y-98905866D02*
X103512151Y-98667771D01*
X103512151Y-98667771D02*
X103464532Y-98477295D01*
X103464532Y-98477295D02*
X103416913Y-98382057D01*
X103416913Y-98382057D02*
X103369294Y-98334438D01*
X103369294Y-98334438D02*
X103274056Y-98286819D01*
X102512151Y-99191580D02*
X102464532Y-99239200D01*
X102464532Y-99239200D02*
X102512151Y-99286819D01*
X102512151Y-99286819D02*
X102559770Y-99239200D01*
X102559770Y-99239200D02*
X102512151Y-99191580D01*
X102512151Y-99191580D02*
X102512151Y-99286819D01*
X101512152Y-99286819D02*
X102083580Y-99286819D01*
X101797866Y-99286819D02*
X101797866Y-98286819D01*
X101797866Y-98286819D02*
X101893104Y-98429676D01*
X101893104Y-98429676D02*
X101988342Y-98524914D01*
X101988342Y-98524914D02*
X102083580Y-98572533D01*
X100655009Y-98620152D02*
X100655009Y-99286819D01*
X101083580Y-98620152D02*
X101083580Y-99143961D01*
X101083580Y-99143961D02*
X101035961Y-99239200D01*
X101035961Y-99239200D02*
X100940723Y-99286819D01*
X100940723Y-99286819D02*
X100797866Y-99286819D01*
X100797866Y-99286819D02*
X100702628Y-99239200D01*
X100702628Y-99239200D02*
X100655009Y-99191580D01*
X99845485Y-98763009D02*
X100178818Y-98763009D01*
X100178818Y-99286819D02*
X100178818Y-98286819D01*
X100178818Y-98286819D02*
X99702628Y-98286819D01*
D11*
X101952628Y-100691530D02*
X101976437Y-100715340D01*
X101976437Y-100715340D02*
X102047866Y-100739149D01*
X102047866Y-100739149D02*
X102095485Y-100739149D01*
X102095485Y-100739149D02*
X102166913Y-100715340D01*
X102166913Y-100715340D02*
X102214532Y-100667720D01*
X102214532Y-100667720D02*
X102238342Y-100620101D01*
X102238342Y-100620101D02*
X102262151Y-100524863D01*
X102262151Y-100524863D02*
X102262151Y-100453435D01*
X102262151Y-100453435D02*
X102238342Y-100358197D01*
X102238342Y-100358197D02*
X102214532Y-100310578D01*
X102214532Y-100310578D02*
X102166913Y-100262959D01*
X102166913Y-100262959D02*
X102095485Y-100239149D01*
X102095485Y-100239149D02*
X102047866Y-100239149D01*
X102047866Y-100239149D02*
X101976437Y-100262959D01*
X101976437Y-100262959D02*
X101952628Y-100286768D01*
X101785961Y-100239149D02*
X101476437Y-100239149D01*
X101476437Y-100239149D02*
X101643104Y-100429625D01*
X101643104Y-100429625D02*
X101571675Y-100429625D01*
X101571675Y-100429625D02*
X101524056Y-100453435D01*
X101524056Y-100453435D02*
X101500247Y-100477244D01*
X101500247Y-100477244D02*
X101476437Y-100524863D01*
X101476437Y-100524863D02*
X101476437Y-100643911D01*
X101476437Y-100643911D02*
X101500247Y-100691530D01*
X101500247Y-100691530D02*
X101524056Y-100715340D01*
X101524056Y-100715340D02*
X101571675Y-100739149D01*
X101571675Y-100739149D02*
X101714532Y-100739149D01*
X101714532Y-100739149D02*
X101762151Y-100715340D01*
X101762151Y-100715340D02*
X101785961Y-100691530D01*
X101190723Y-100453435D02*
X101238342Y-100429625D01*
X101238342Y-100429625D02*
X101262152Y-100405816D01*
X101262152Y-100405816D02*
X101285961Y-100358197D01*
X101285961Y-100358197D02*
X101285961Y-100334387D01*
X101285961Y-100334387D02*
X101262152Y-100286768D01*
X101262152Y-100286768D02*
X101238342Y-100262959D01*
X101238342Y-100262959D02*
X101190723Y-100239149D01*
X101190723Y-100239149D02*
X101095485Y-100239149D01*
X101095485Y-100239149D02*
X101047866Y-100262959D01*
X101047866Y-100262959D02*
X101024057Y-100286768D01*
X101024057Y-100286768D02*
X101000247Y-100334387D01*
X101000247Y-100334387D02*
X101000247Y-100358197D01*
X101000247Y-100358197D02*
X101024057Y-100405816D01*
X101024057Y-100405816D02*
X101047866Y-100429625D01*
X101047866Y-100429625D02*
X101095485Y-100453435D01*
X101095485Y-100453435D02*
X101190723Y-100453435D01*
X101190723Y-100453435D02*
X101238342Y-100477244D01*
X101238342Y-100477244D02*
X101262152Y-100501054D01*
X101262152Y-100501054D02*
X101285961Y-100548673D01*
X101285961Y-100548673D02*
X101285961Y-100643911D01*
X101285961Y-100643911D02*
X101262152Y-100691530D01*
X101262152Y-100691530D02*
X101238342Y-100715340D01*
X101238342Y-100715340D02*
X101190723Y-100739149D01*
X101190723Y-100739149D02*
X101095485Y-100739149D01*
X101095485Y-100739149D02*
X101047866Y-100715340D01*
X101047866Y-100715340D02*
X101024057Y-100691530D01*
X101024057Y-100691530D02*
X101000247Y-100643911D01*
X101000247Y-100643911D02*
X101000247Y-100548673D01*
X101000247Y-100548673D02*
X101024057Y-100501054D01*
X101024057Y-100501054D02*
X101047866Y-100477244D01*
X101047866Y-100477244D02*
X101095485Y-100453435D01*
D12*
X64564318Y-79021571D02*
X63959556Y-78598237D01*
X64564318Y-78295856D02*
X63294318Y-78295856D01*
X63294318Y-78295856D02*
X63294318Y-78779666D01*
X63294318Y-78779666D02*
X63354794Y-78900618D01*
X63354794Y-78900618D02*
X63415270Y-78961095D01*
X63415270Y-78961095D02*
X63536222Y-79021571D01*
X63536222Y-79021571D02*
X63717651Y-79021571D01*
X63717651Y-79021571D02*
X63838603Y-78961095D01*
X63838603Y-78961095D02*
X63899080Y-78900618D01*
X63899080Y-78900618D02*
X63959556Y-78779666D01*
X63959556Y-78779666D02*
X63959556Y-78295856D01*
X64564318Y-80231095D02*
X64564318Y-79505380D01*
X64564318Y-79868237D02*
X63294318Y-79868237D01*
X63294318Y-79868237D02*
X63475746Y-79747285D01*
X63475746Y-79747285D02*
X63596699Y-79626333D01*
X63596699Y-79626333D02*
X63657175Y-79505380D01*
X63717651Y-81319666D02*
X64564318Y-81319666D01*
X63233842Y-81017285D02*
X64140984Y-80714904D01*
X64140984Y-80714904D02*
X64140984Y-81501095D01*
%TO.C,C40*%
D13*
X95466200Y-90562000D02*
X96716200Y-90562000D01*
X96716200Y-92562000D01*
X95466200Y-92562000D01*
X95466200Y-90562000D01*
%TO.C,C34*%
X98031200Y-94887000D02*
X100031200Y-94887000D01*
X100031200Y-96137000D01*
X98031200Y-96137000D01*
X98031200Y-94887000D01*
%TO.C,R12*%
X77650700Y-78838000D02*
X77650700Y-80838000D01*
X77650700Y-80838000D02*
X78900700Y-80838000D01*
X78900700Y-78838000D02*
X77650700Y-78838000D01*
X78900700Y-80838000D02*
X78900700Y-78838000D01*
%TO.C,R4*%
X70507800Y-78838000D02*
X70507800Y-80838000D01*
X70507800Y-80838000D02*
X71757800Y-80838000D01*
X71757800Y-78838000D02*
X70507800Y-78838000D01*
X71757800Y-80838000D02*
X71757800Y-78838000D01*
%TO.C,R13*%
X66936400Y-78838000D02*
X66936400Y-80838000D01*
X66936400Y-80838000D02*
X68186400Y-80838000D01*
X68186400Y-78838000D02*
X66936400Y-78838000D01*
X68186400Y-80838000D02*
X68186400Y-78838000D01*
%TO.C,R3*%
X74079200Y-78838000D02*
X74079200Y-80838000D01*
X74079200Y-80838000D02*
X75329200Y-80838000D01*
X75329200Y-78838000D02*
X74079200Y-78838000D01*
X75329200Y-80838000D02*
X75329200Y-78838000D01*
%TO.C,C37*%
X98131200Y-90387000D02*
X100131200Y-90387000D01*
X100131200Y-91637000D01*
X98131200Y-91637000D01*
X98131200Y-90387000D01*
%TO.C,R11*%
X81222100Y-78838000D02*
X81222100Y-80838000D01*
X81222100Y-80838000D02*
X82472100Y-80838000D01*
X82472100Y-78838000D02*
X81222100Y-78838000D01*
X82472100Y-80838000D02*
X82472100Y-78838000D01*
%TO.C,C41*%
X91456200Y-90562000D02*
X92706200Y-90562000D01*
X92706200Y-92562000D01*
X91456200Y-92562000D01*
X91456200Y-90562000D01*
%TO.C,R45*%
X95456200Y-96599500D02*
X96706200Y-96599500D01*
X96706200Y-98599500D01*
X95456200Y-98599500D01*
X95456200Y-96599500D01*
%TO.C,R1*%
X88365000Y-78838000D02*
X88365000Y-80838000D01*
X88365000Y-80838000D02*
X89615000Y-80838000D01*
X89615000Y-78838000D02*
X88365000Y-78838000D01*
X89615000Y-80838000D02*
X89615000Y-78838000D01*
%TO.C,C53*%
X109619200Y-103375000D02*
X111619200Y-103375000D01*
X111619200Y-104625000D01*
X109619200Y-104625000D01*
X109619200Y-103375000D01*
%TO.C,C2*%
X71990000Y-75388000D02*
X73990000Y-75388000D01*
X73990000Y-76638000D01*
X71990000Y-76638000D01*
X71990000Y-75388000D01*
%TO.C,R2*%
X84793500Y-78838000D02*
X84793500Y-80838000D01*
X84793500Y-80838000D02*
X86043500Y-80838000D01*
X86043500Y-78838000D02*
X84793500Y-78838000D01*
X86043500Y-80838000D02*
X86043500Y-78838000D01*
%TO.C,C39*%
X93456200Y-90562000D02*
X94706200Y-90562000D01*
X94706200Y-92562000D01*
X93456200Y-92562000D01*
X93456200Y-90562000D01*
%TO.C,C1*%
X86440000Y-75388000D02*
X88440000Y-75388000D01*
X88440000Y-76638000D01*
X86440000Y-76638000D01*
X86440000Y-75388000D01*
%TO.C,C11*%
X79040000Y-75388000D02*
X81040000Y-75388000D01*
X81040000Y-76638000D01*
X79040000Y-76638000D01*
X79040000Y-75388000D01*
%TO.C,C42*%
X91531200Y-97887000D02*
X93531200Y-97887000D01*
X93531200Y-99137000D01*
X91531200Y-99137000D01*
X91531200Y-97887000D01*
%TO.C,C12*%
X64540000Y-75388000D02*
X66540000Y-75388000D01*
X66540000Y-76638000D01*
X64540000Y-76638000D01*
X64540000Y-75388000D01*
%TO.C,C36*%
X97916300Y-97878100D02*
X99916300Y-97878100D01*
X99916300Y-99128100D01*
X97916300Y-99128100D01*
X97916300Y-97878100D01*
%TO.C,C38*%
X100631200Y-99887000D02*
X102631200Y-99887000D01*
X102631200Y-101137000D01*
X100631200Y-101137000D01*
X100631200Y-99887000D01*
%TO.C,R14*%
X63365000Y-78838000D02*
X63365000Y-80838000D01*
X63365000Y-80838000D02*
X64615000Y-80838000D01*
X64615000Y-78838000D02*
X63365000Y-78838000D01*
X64615000Y-80838000D02*
X64615000Y-78838000D01*
%TD*%
M02*
