%TF.GenerationSoftware,KiCad,Pcbnew,10.0.5*%
%TF.CreationDate,2026-08-25T18:12:24+00:00*%
%TF.ProjectId,sensor-module,73656e73-6f72-42d6-9d6f-64756c652e6b,rev?*%
%TF.SameCoordinates,Original*%
%TF.FileFunction,Drillmap*%
%TF.FilePolarity,Positive*%
%FSLAX45Y45*%
G04 Gerber Fmt 4.5, Leading zero omitted, Abs format (unit mm)*
G04 Created by KiCad (PCBNEW 10.0.5) date 2026-08-25 18:12:24*
%MOMM*%
%LPD*%
G01*
G04 APERTURE LIST*
%ADD10C,0.200000*%
%ADD11C,0.100000*%
%ADD12C,0.110000*%
%ADD13C,0.185000*%
%ADD14C,0.325000*%
%ADD15C,0.293000*%
G04 APERTURE END LIST*
D10*
X5006924Y-5600000D02*
X17006924Y-5600000D01*
X17006924Y-12000000D01*
X5006924Y-12000000D01*
X5006924Y-5600000D01*
D11*
X5325600Y-11269790D02*
X5355600Y-11299790D01*
X5355600Y-11269790D02*
X5325600Y-11299790D01*
X5381550Y-11326250D02*
X5411550Y-11356250D01*
X5411550Y-11326250D02*
X5381550Y-11356250D01*
X5420810Y-8990440D02*
X5450810Y-9020440D01*
X5450810Y-8990440D02*
X5420810Y-9020440D01*
X5471190Y-9662440D02*
X5501190Y-9692440D01*
X5501190Y-9662440D02*
X5471190Y-9692440D01*
X5486690Y-11733030D02*
X5516690Y-11763030D01*
X5516690Y-11733030D02*
X5486690Y-11763030D01*
X5653490Y-11485880D02*
X5683490Y-11515880D01*
X5683490Y-11485880D02*
X5653490Y-11515880D01*
X5906470Y-8790000D02*
X5936470Y-8820000D01*
X5936470Y-8790000D02*
X5906470Y-8820000D01*
X5931924Y-11112500D02*
X5961924Y-11142500D01*
X5961924Y-11112500D02*
X5931924Y-11142500D01*
X6008050Y-7691180D02*
X6038050Y-7721180D01*
X6038050Y-7691180D02*
X6008050Y-7721180D01*
X6056924Y-10600000D02*
X6086924Y-10630000D01*
X6086924Y-10600000D02*
X6056924Y-10630000D01*
X6499080Y-8212430D02*
X6529080Y-8242430D01*
X6529080Y-8212430D02*
X6499080Y-8242430D01*
X6732100Y-9212660D02*
X6762100Y-9242660D01*
X6762100Y-9212660D02*
X6732100Y-9242660D01*
X6795380Y-8456580D02*
X6825380Y-8486580D01*
X6825380Y-8456580D02*
X6795380Y-8486580D01*
X6835000Y-7235000D02*
X6865000Y-7265000D01*
X6865000Y-7235000D02*
X6835000Y-7265000D01*
X6843830Y-8027370D02*
X6873830Y-8057370D01*
X6873830Y-8027370D02*
X6843830Y-8057370D01*
X6846750Y-8156520D02*
X6876750Y-8186520D01*
X6876750Y-8156520D02*
X6846750Y-8186520D01*
X6900110Y-8233580D02*
X6930110Y-8263580D01*
X6930110Y-8233580D02*
X6900110Y-8263580D01*
X6943190Y-8120640D02*
X6973190Y-8150640D01*
X6973190Y-8120640D02*
X6943190Y-8150640D01*
X6970550Y-8436420D02*
X7000550Y-8466420D01*
X7000550Y-8436420D02*
X6970550Y-8466420D01*
X7010250Y-8888430D02*
X7040250Y-8918430D01*
X7040250Y-8888430D02*
X7010250Y-8918430D01*
X7085000Y-6785000D02*
X7115000Y-6815000D01*
X7115000Y-6785000D02*
X7085000Y-6815000D01*
X7125710Y-9060380D02*
X7155710Y-9090380D01*
X7155710Y-9060380D02*
X7125710Y-9090380D01*
X7202210Y-8012610D02*
X7232210Y-8042610D01*
X7232210Y-8012610D02*
X7202210Y-8042610D01*
X7278630Y-8012940D02*
X7308630Y-8042940D01*
X7308630Y-8012940D02*
X7278630Y-8042940D01*
X7413970Y-8827310D02*
X7443970Y-8857310D01*
X7443970Y-8827310D02*
X7413970Y-8857310D01*
X7416840Y-9135000D02*
X7446840Y-9165000D01*
X7446840Y-9135000D02*
X7416840Y-9165000D01*
X7510580Y-8976030D02*
X7540580Y-9006030D01*
X7540580Y-8976030D02*
X7510580Y-9006030D01*
X7540390Y-8233580D02*
X7570390Y-8263580D01*
X7570390Y-8233580D02*
X7540390Y-8263580D01*
X7603520Y-8415700D02*
X7633520Y-8445700D01*
X7633520Y-8415700D02*
X7603520Y-8445700D01*
X7607030Y-8324800D02*
X7637030Y-8354800D01*
X7637030Y-8324800D02*
X7607030Y-8354800D01*
X7650920Y-9067100D02*
X7680920Y-9097100D01*
X7680920Y-9067100D02*
X7650920Y-9097100D01*
X7700920Y-8013290D02*
X7730920Y-8043290D01*
X7730920Y-8013290D02*
X7700920Y-8043290D01*
X7720050Y-9135000D02*
X7750050Y-9165000D01*
X7750050Y-9135000D02*
X7720050Y-9165000D01*
X7857790Y-9175040D02*
X7887790Y-9205040D01*
X7887790Y-9175040D02*
X7857790Y-9205040D01*
X7987510Y-8976030D02*
X8017510Y-9006030D01*
X8017510Y-8976030D02*
X7987510Y-9006030D01*
X8024990Y-9277360D02*
X8054990Y-9307360D01*
X8054990Y-9277360D02*
X8024990Y-9307360D01*
X8086410Y-8849980D02*
X8116410Y-8879980D01*
X8116410Y-8849980D02*
X8086410Y-8879980D01*
X8121420Y-9222190D02*
X8151420Y-9252190D01*
X8151420Y-9222190D02*
X8121420Y-9252190D01*
X8450120Y-7264070D02*
X8480120Y-7294070D01*
X8480120Y-7264070D02*
X8450120Y-7294070D01*
X8508470Y-8517630D02*
X8538470Y-8547630D01*
X8538470Y-8517630D02*
X8508470Y-8547630D01*
X8587840Y-9177310D02*
X8617840Y-9207310D01*
X8617840Y-9177310D02*
X8587840Y-9207310D01*
X8637490Y-8642730D02*
X8667490Y-8672730D01*
X8667490Y-8642730D02*
X8637490Y-8672730D01*
X8800850Y-8593110D02*
X8830850Y-8623110D01*
X8830850Y-8593110D02*
X8800850Y-8623110D01*
X8863910Y-10662160D02*
X8893910Y-10692160D01*
X8893910Y-10662160D02*
X8863910Y-10692160D01*
X8868830Y-9510870D02*
X8898830Y-9540870D01*
X8898830Y-9510870D02*
X8868830Y-9540870D01*
X8872430Y-9676430D02*
X8902430Y-9706430D01*
X8902430Y-9676430D02*
X8872430Y-9706430D01*
X8922420Y-7582730D02*
X8952420Y-7612730D01*
X8952420Y-7582730D02*
X8922420Y-7612730D01*
X8940590Y-10659300D02*
X8970590Y-10689300D01*
X8970590Y-10659300D02*
X8940590Y-10689300D01*
X9022020Y-7691180D02*
X9052020Y-7721180D01*
X9052020Y-7691180D02*
X9022020Y-7721180D01*
X9114660Y-9715050D02*
X9144660Y-9745050D01*
X9144660Y-9715050D02*
X9114660Y-9745050D01*
X9123150Y-9507100D02*
X9153150Y-9537100D01*
X9153150Y-9507100D02*
X9123150Y-9537100D01*
X9173960Y-7416900D02*
X9203960Y-7446900D01*
X9203960Y-7416900D02*
X9173960Y-7446900D01*
X9190940Y-10479700D02*
X9220940Y-10509700D01*
X9220940Y-10479700D02*
X9190940Y-10509700D01*
X9236170Y-10582910D02*
X9266170Y-10612910D01*
X9266170Y-10582910D02*
X9236170Y-10612910D01*
X9281924Y-9675000D02*
X9311924Y-9705000D01*
X9311924Y-9675000D02*
X9281924Y-9705000D01*
X9293120Y-9310800D02*
X9323120Y-9340800D01*
X9323120Y-9310800D02*
X9293120Y-9340800D01*
X9317410Y-7761440D02*
X9347410Y-7791440D01*
X9347410Y-7761440D02*
X9317410Y-7791440D01*
X9333060Y-9414840D02*
X9363060Y-9444840D01*
X9363060Y-9414840D02*
X9333060Y-9444840D01*
X9386600Y-10266880D02*
X9416600Y-10296880D01*
X9416600Y-10266880D02*
X9386600Y-10296880D01*
X9469424Y-9075000D02*
X9499424Y-9105000D01*
X9499424Y-9075000D02*
X9469424Y-9105000D01*
X9474070Y-10525500D02*
X9504070Y-10555500D01*
X9504070Y-10525500D02*
X9474070Y-10555500D01*
X9477530Y-9845100D02*
X9507530Y-9875100D01*
X9507530Y-9845100D02*
X9477530Y-9875100D01*
X9486410Y-10231730D02*
X9516410Y-10261730D01*
X9516410Y-10231730D02*
X9486410Y-10261730D01*
X9543120Y-10167600D02*
X9573120Y-10197600D01*
X9573120Y-10167600D02*
X9543120Y-10197600D01*
X9592290Y-6762170D02*
X9622290Y-6792170D01*
X9622290Y-6762170D02*
X9592290Y-6792170D01*
X9727330Y-10319120D02*
X9757330Y-10349120D01*
X9757330Y-10319120D02*
X9727330Y-10349120D01*
X9823800Y-10244910D02*
X9853800Y-10274910D01*
X9853800Y-10244910D02*
X9823800Y-10274910D01*
X9891280Y-7620740D02*
X9921280Y-7650740D01*
X9921280Y-7620740D02*
X9891280Y-7650740D01*
X9909860Y-9638280D02*
X9939860Y-9668280D01*
X9939860Y-9638280D02*
X9909860Y-9668280D01*
X10032210Y-11868460D02*
X10062210Y-11898460D01*
X10062210Y-11868460D02*
X10032210Y-11898460D01*
X10047940Y-10204590D02*
X10077940Y-10234590D01*
X10077940Y-10204590D02*
X10047940Y-10234590D01*
X10226280Y-8630140D02*
X10256280Y-8660140D01*
X10256280Y-8630140D02*
X10226280Y-8660140D01*
X10290290Y-9005810D02*
X10320290Y-9035810D01*
X10320290Y-9005810D02*
X10290290Y-9035810D01*
X10295400Y-7800360D02*
X10325400Y-7830360D01*
X10325400Y-7800360D02*
X10295400Y-7830360D01*
X10360560Y-9635000D02*
X10390560Y-9665000D01*
X10390560Y-9635000D02*
X10360560Y-9665000D01*
X10475990Y-9375520D02*
X10505990Y-9405520D01*
X10505990Y-9375520D02*
X10475990Y-9405520D01*
X10483540Y-9114240D02*
X10513540Y-9144240D01*
X10513540Y-9114240D02*
X10483540Y-9144240D01*
X10507680Y-8373490D02*
X10537680Y-8403490D01*
X10537680Y-8373490D02*
X10507680Y-8403490D01*
X10531720Y-8213520D02*
X10561720Y-8243520D01*
X10561720Y-8213520D02*
X10531720Y-8243520D01*
X10532760Y-9975100D02*
X10562760Y-10005100D01*
X10562760Y-9975100D02*
X10532760Y-10005100D01*
X10549760Y-9293240D02*
X10579760Y-9323240D01*
X10579760Y-9293240D02*
X10549760Y-9323240D01*
X10578880Y-9428680D02*
X10608880Y-9458680D01*
X10608880Y-9428680D02*
X10578880Y-9458680D01*
X10595820Y-9353500D02*
X10625820Y-9383500D01*
X10625820Y-9353500D02*
X10595820Y-9383500D01*
X10666280Y-11811510D02*
X10696280Y-11841510D01*
X10696280Y-11811510D02*
X10666280Y-11841510D01*
X10773860Y-9445360D02*
X10803860Y-9475360D01*
X10803860Y-9445360D02*
X10773860Y-9475360D01*
X10843100Y-9202130D02*
X10873100Y-9232130D01*
X10873100Y-9202130D02*
X10843100Y-9232130D01*
X10917410Y-9741200D02*
X10947410Y-9771200D01*
X10947410Y-9741200D02*
X10917410Y-9771200D01*
X10994510Y-7113410D02*
X11024510Y-7143410D01*
X11024510Y-7113410D02*
X10994510Y-7143410D01*
X11055300Y-10123600D02*
X11085300Y-10153600D01*
X11085300Y-10123600D02*
X11055300Y-10153600D01*
X11181460Y-7565060D02*
X11211460Y-7595060D01*
X11211460Y-7565060D02*
X11181460Y-7595060D01*
X11201640Y-10114680D02*
X11231640Y-10144680D01*
X11231640Y-10114680D02*
X11201640Y-10144680D01*
X11354630Y-8311370D02*
X11384630Y-8341370D01*
X11384630Y-8311370D02*
X11354630Y-8341370D01*
X11370010Y-8975270D02*
X11400010Y-9005270D01*
X11400010Y-8975270D02*
X11370010Y-9005270D01*
X11382090Y-9516990D02*
X11412090Y-9546990D01*
X11412090Y-9516990D02*
X11382090Y-9546990D01*
X11448480Y-8896070D02*
X11478480Y-8926070D01*
X11478480Y-8896070D02*
X11448480Y-8926070D01*
X11461740Y-7966610D02*
X11491740Y-7996610D01*
X11491740Y-7966610D02*
X11461740Y-7996610D01*
X11476270Y-6651780D02*
X11506270Y-6681780D01*
X11506270Y-6651780D02*
X11476270Y-6681780D01*
X11489150Y-8292380D02*
X11519150Y-8322380D01*
X11519150Y-8292380D02*
X11489150Y-8322380D01*
X11491410Y-7562240D02*
X11521410Y-7592240D01*
X11521410Y-7562240D02*
X11491410Y-7592240D01*
X11502960Y-9479640D02*
X11532960Y-9509640D01*
X11532960Y-9479640D02*
X11502960Y-9509640D01*
X11510230Y-10620480D02*
X11540230Y-10650480D01*
X11540230Y-10620480D02*
X11510230Y-10650480D01*
X11531050Y-10268060D02*
X11561050Y-10298060D01*
X11561050Y-10268060D02*
X11531050Y-10298060D01*
X11560140Y-9204850D02*
X11590140Y-9234850D01*
X11590140Y-9204850D02*
X11560140Y-9234850D01*
X11564460Y-10341550D02*
X11594460Y-10371550D01*
X11594460Y-10341550D02*
X11564460Y-10371550D01*
X11588190Y-10565310D02*
X11618190Y-10595310D01*
X11618190Y-10565310D02*
X11588190Y-10595310D01*
X11623480Y-9130870D02*
X11653480Y-9160870D01*
X11653480Y-9130870D02*
X11623480Y-9160870D01*
X11626880Y-9706860D02*
X11656880Y-9736860D01*
X11656880Y-9706860D02*
X11626880Y-9736860D01*
X11627940Y-7690840D02*
X11657940Y-7720840D01*
X11657940Y-7690840D02*
X11627940Y-7720840D01*
X11645350Y-9426800D02*
X11675350Y-9456800D01*
X11675350Y-9426800D02*
X11645350Y-9456800D01*
X11665500Y-8967150D02*
X11695500Y-8997150D01*
X11695500Y-8967150D02*
X11665500Y-8997150D01*
X11678520Y-11069060D02*
X11708520Y-11099060D01*
X11708520Y-11069060D02*
X11678520Y-11099060D01*
X11717550Y-10208010D02*
X11747550Y-10238010D01*
X11747550Y-10208010D02*
X11717550Y-10238010D01*
X11735880Y-9137560D02*
X11765880Y-9167560D01*
X11765880Y-9137560D02*
X11735880Y-9167560D01*
X11818300Y-9763290D02*
X11848300Y-9793290D01*
X11848300Y-9763290D02*
X11818300Y-9793290D01*
X11981000Y-9437950D02*
X12011000Y-9467950D01*
X12011000Y-9437950D02*
X11981000Y-9467950D01*
X12014180Y-10842440D02*
X12044180Y-10872440D01*
X12044180Y-10842440D02*
X12014180Y-10872440D01*
X12017250Y-8931090D02*
X12047250Y-8961090D01*
X12047250Y-8931090D02*
X12017250Y-8961090D01*
X12018560Y-9138010D02*
X12048560Y-9168010D01*
X12048560Y-9138010D02*
X12018560Y-9168010D01*
X12039230Y-7691970D02*
X12069230Y-7721970D01*
X12069230Y-7691970D02*
X12039230Y-7721970D01*
X12058330Y-7444650D02*
X12088330Y-7474650D01*
X12088330Y-7444650D02*
X12058330Y-7474650D01*
X12071310Y-9717880D02*
X12101310Y-9747880D01*
X12101310Y-9717880D02*
X12071310Y-9747880D01*
X12109670Y-9916950D02*
X12139670Y-9946950D01*
X12139670Y-9916950D02*
X12109670Y-9946950D01*
X12216770Y-10130980D02*
X12246770Y-10160980D01*
X12246770Y-10130980D02*
X12216770Y-10160980D01*
X12220610Y-10298360D02*
X12250610Y-10328360D01*
X12250610Y-10298360D02*
X12220610Y-10328360D01*
X12328100Y-9902310D02*
X12358100Y-9932310D01*
X12358100Y-9902310D02*
X12328100Y-9932310D01*
X12387730Y-7418570D02*
X12417730Y-7448570D01*
X12417730Y-7418570D02*
X12387730Y-7448570D01*
X12495780Y-9913760D02*
X12525780Y-9943760D01*
X12525780Y-9913760D02*
X12495780Y-9943760D01*
X12500200Y-7165240D02*
X12530200Y-7195240D01*
X12530200Y-7165240D02*
X12500200Y-7195240D01*
X12505210Y-7442900D02*
X12535210Y-7472900D01*
X12535210Y-7442900D02*
X12505210Y-7472900D01*
X12531924Y-7650000D02*
X12561924Y-7680000D01*
X12561924Y-7650000D02*
X12531924Y-7680000D01*
X12541000Y-10808090D02*
X12571000Y-10838090D01*
X12571000Y-10808090D02*
X12541000Y-10838090D01*
X12554060Y-10725490D02*
X12584060Y-10755490D01*
X12584060Y-10725490D02*
X12554060Y-10755490D01*
X12555530Y-7986680D02*
X12585530Y-8016680D01*
X12585530Y-7986680D02*
X12555530Y-8016680D01*
X12558120Y-10157390D02*
X12588120Y-10187390D01*
X12588120Y-10157390D02*
X12558120Y-10187390D01*
X12689440Y-8478500D02*
X12719440Y-8508500D01*
X12719440Y-8478500D02*
X12689440Y-8508500D01*
X12747710Y-8894630D02*
X12777710Y-8924630D01*
X12777710Y-8894630D02*
X12747710Y-8924630D01*
X12894424Y-7737500D02*
X12924424Y-7767500D01*
X12924424Y-7737500D02*
X12894424Y-7767500D01*
X13135410Y-7445390D02*
X13165410Y-7475390D01*
X13165410Y-7445390D02*
X13135410Y-7475390D01*
X13148960Y-7853330D02*
X13178960Y-7883330D01*
X13178960Y-7853330D02*
X13148960Y-7883330D01*
X13209060Y-8894630D02*
X13239060Y-8924630D01*
X13239060Y-8894630D02*
X13209060Y-8924630D01*
X13251640Y-11535000D02*
X13281640Y-11565000D01*
X13281640Y-11535000D02*
X13251640Y-11565000D01*
X13338230Y-7702330D02*
X13368230Y-7732330D01*
X13368230Y-7702330D02*
X13338230Y-7732330D01*
X13566710Y-7835000D02*
X13596710Y-7865000D01*
X13596710Y-7835000D02*
X13566710Y-7865000D01*
X13731590Y-11633960D02*
X13761590Y-11663960D01*
X13761590Y-11633960D02*
X13731590Y-11663960D01*
X14482100Y-7431040D02*
X14512100Y-7461040D01*
X14512100Y-7431040D02*
X14482100Y-7461040D01*
X14536940Y-7535000D02*
X14566940Y-7565000D01*
X14566940Y-7535000D02*
X14536940Y-7565000D01*
X14543470Y-10899820D02*
X14573470Y-10929820D01*
X14573470Y-10899820D02*
X14543470Y-10929820D01*
X14568190Y-8255550D02*
X14598190Y-8285550D01*
X14598190Y-8255550D02*
X14568190Y-8285550D01*
X14649640Y-11811610D02*
X14679640Y-11841610D01*
X14679640Y-11811610D02*
X14649640Y-11841610D01*
X14881850Y-7982230D02*
X14911850Y-8012230D01*
X14911850Y-7982230D02*
X14881850Y-8012230D01*
X15445310Y-7501310D02*
X15475310Y-7531310D01*
X15475310Y-7501310D02*
X15445310Y-7531310D01*
X15473060Y-11439730D02*
X15503060Y-11469730D01*
X15503060Y-11439730D02*
X15473060Y-11469730D01*
X15600960Y-9645560D02*
X15630960Y-9675560D01*
X15630960Y-9645560D02*
X15600960Y-9675560D01*
X15700650Y-10599360D02*
X15730650Y-10629360D01*
X15730650Y-10599360D02*
X15700650Y-10629360D01*
X15755740Y-8119440D02*
X15785740Y-8149440D01*
X15785740Y-8119440D02*
X15755740Y-8149440D01*
X15761350Y-8566960D02*
X15791350Y-8596960D01*
X15791350Y-8566960D02*
X15761350Y-8596960D01*
X15762570Y-9553390D02*
X15792570Y-9583390D01*
X15792570Y-9553390D02*
X15762570Y-9583390D01*
X15795860Y-9430000D02*
X15825860Y-9460000D01*
X15825860Y-9430000D02*
X15795860Y-9460000D01*
X15907120Y-8339830D02*
X15937120Y-8369830D01*
X15937120Y-8339830D02*
X15907120Y-8369830D01*
X5521010Y-8908750D02*
G75*
G02*
X5486010Y-8908750I-17500J0D01*
G01*
X5486010Y-8908750D02*
G75*
G02*
X5521010Y-8908750I17500J0D01*
G01*
X5524570Y-9485780D02*
G75*
G02*
X5489570Y-9485780I-17500J0D01*
G01*
X5489570Y-9485780D02*
G75*
G02*
X5524570Y-9485780I17500J0D01*
G01*
X6639420Y-7965000D02*
G75*
G02*
X6604420Y-7965000I-17500J0D01*
G01*
X6604420Y-7965000D02*
G75*
G02*
X6639420Y-7965000I17500J0D01*
G01*
X7001920Y-7865000D02*
G75*
G02*
X6966920Y-7865000I-17500J0D01*
G01*
X6966920Y-7865000D02*
G75*
G02*
X7001920Y-7865000I17500J0D01*
G01*
X7701920Y-7940000D02*
G75*
G02*
X7666920Y-7940000I-17500J0D01*
G01*
X7666920Y-7940000D02*
G75*
G02*
X7701920Y-7940000I17500J0D01*
G01*
X7714420Y-8165000D02*
G75*
G02*
X7679420Y-8165000I-17500J0D01*
G01*
X7679420Y-8165000D02*
G75*
G02*
X7714420Y-8165000I17500J0D01*
G01*
X8514420Y-7727500D02*
G75*
G02*
X8479420Y-7727500I-17500J0D01*
G01*
X8479420Y-7727500D02*
G75*
G02*
X8514420Y-7727500I17500J0D01*
G01*
X9214420Y-9777500D02*
G75*
G02*
X9179420Y-9777500I-17500J0D01*
G01*
X9179420Y-9777500D02*
G75*
G02*
X9214420Y-9777500I17500J0D01*
G01*
X9226920Y-9127500D02*
G75*
G02*
X9191920Y-9127500I-17500J0D01*
G01*
X9191920Y-9127500D02*
G75*
G02*
X9226920Y-9127500I17500J0D01*
G01*
X9921580Y-9198520D02*
G75*
G02*
X9886580Y-9198520I-17500J0D01*
G01*
X9886580Y-9198520D02*
G75*
G02*
X9921580Y-9198520I17500J0D01*
G01*
X9976920Y-9065000D02*
G75*
G02*
X9941920Y-9065000I-17500J0D01*
G01*
X9941920Y-9065000D02*
G75*
G02*
X9976920Y-9065000I17500J0D01*
G01*
X10139400Y-10065000D02*
G75*
G02*
X10104400Y-10065000I-17500J0D01*
G01*
X10104400Y-10065000D02*
G75*
G02*
X10139400Y-10065000I17500J0D01*
G01*
X10435720Y-9149920D02*
G75*
G02*
X10400720Y-9149920I-17500J0D01*
G01*
X10400720Y-9149920D02*
G75*
G02*
X10435720Y-9149920I17500J0D01*
G01*
X10540530Y-9876610D02*
G75*
G02*
X10505530Y-9876610I-17500J0D01*
G01*
X10505530Y-9876610D02*
G75*
G02*
X10540530Y-9876610I17500J0D01*
G01*
X10689400Y-10727500D02*
G75*
G02*
X10654400Y-10727500I-17500J0D01*
G01*
X10654400Y-10727500D02*
G75*
G02*
X10689400Y-10727500I17500J0D01*
G01*
X10889400Y-9827500D02*
G75*
G02*
X10854400Y-9827500I-17500J0D01*
G01*
X10854400Y-9827500D02*
G75*
G02*
X10889400Y-9827500I17500J0D01*
G01*
X11476900Y-10265000D02*
G75*
G02*
X11441900Y-10265000I-17500J0D01*
G01*
X11441900Y-10265000D02*
G75*
G02*
X11476900Y-10265000I17500J0D01*
G01*
X12176900Y-10577500D02*
G75*
G02*
X12141900Y-10577500I-17500J0D01*
G01*
X12141900Y-10577500D02*
G75*
G02*
X12176900Y-10577500I17500J0D01*
G01*
X12314400Y-10052500D02*
G75*
G02*
X12279400Y-10052500I-17500J0D01*
G01*
X12279400Y-10052500D02*
G75*
G02*
X12314400Y-10052500I17500J0D01*
G01*
X12814400Y-7590000D02*
G75*
G02*
X12779400Y-7590000I-17500J0D01*
G01*
X12779400Y-7590000D02*
G75*
G02*
X12814400Y-7590000I17500J0D01*
G01*
X13151900Y-10702500D02*
G75*
G02*
X13116900Y-10702500I-17500J0D01*
G01*
X13116900Y-10702500D02*
G75*
G02*
X13151900Y-10702500I17500J0D01*
G01*
X13316150Y-8956370D02*
G75*
G02*
X13281150Y-8956370I-17500J0D01*
G01*
X13281150Y-8956370D02*
G75*
G02*
X13316150Y-8956370I17500J0D01*
G01*
X13764400Y-7752500D02*
G75*
G02*
X13729400Y-7752500I-17500J0D01*
G01*
X13729400Y-7752500D02*
G75*
G02*
X13764400Y-7752500I17500J0D01*
G01*
X14189400Y-7777500D02*
G75*
G02*
X14154400Y-7777500I-17500J0D01*
G01*
X14154400Y-7777500D02*
G75*
G02*
X14189400Y-7777500I17500J0D01*
G01*
X14276900Y-8065000D02*
G75*
G02*
X14241900Y-8065000I-17500J0D01*
G01*
X14241900Y-8065000D02*
G75*
G02*
X14276900Y-8065000I17500J0D01*
G01*
X14639400Y-7702500D02*
G75*
G02*
X14604400Y-7702500I-17500J0D01*
G01*
X14604400Y-7702500D02*
G75*
G02*
X14639400Y-7702500I17500J0D01*
G01*
X15664400Y-11165000D02*
G75*
G02*
X15629400Y-11165000I-17500J0D01*
G01*
X15629400Y-11165000D02*
G75*
G02*
X15664400Y-11165000I17500J0D01*
G01*
X15901900Y-10877500D02*
G75*
G02*
X15866900Y-10877500I-17500J0D01*
G01*
X15866900Y-10877500D02*
G75*
G02*
X15901900Y-10877500I17500J0D01*
G01*
X15914400Y-10677500D02*
G75*
G02*
X15879400Y-10677500I-17500J0D01*
G01*
X15879400Y-10677500D02*
G75*
G02*
X15914400Y-10677500I17500J0D01*
G01*
X16014400Y-10402500D02*
G75*
G02*
X15979400Y-10402500I-17500J0D01*
G01*
X15979400Y-10402500D02*
G75*
G02*
X16014400Y-10402500I17500J0D01*
G01*
X5858090Y-10432980D02*
X5858090Y-10472980D01*
X5838090Y-10452980D02*
X5878090Y-10452980D01*
X6609410Y-10968630D02*
X6609410Y-11008630D01*
X6589410Y-10988630D02*
X6629410Y-10988630D01*
X7359130Y-9993750D02*
X7359130Y-10033750D01*
X7339130Y-10013750D02*
X7379130Y-10013750D01*
X8608910Y-10544020D02*
X8608910Y-10584020D01*
X8588910Y-10564020D02*
X8628910Y-10564020D01*
X8765470Y-8743630D02*
X8765470Y-8783630D01*
X8745470Y-8763630D02*
X8785470Y-8763630D01*
X8906490Y-7299540D02*
X8906490Y-7339540D01*
X8886490Y-7319540D02*
X8926490Y-7319540D01*
X9012470Y-10854420D02*
X9012470Y-10894420D01*
X8992470Y-10874420D02*
X9032470Y-10874420D01*
X9388360Y-8178510D02*
X9388360Y-8218510D01*
X9368360Y-8198510D02*
X9408360Y-8198510D01*
X9814140Y-7937500D02*
X9814140Y-7977500D01*
X9794140Y-7957500D02*
X9834140Y-7957500D01*
X10022980Y-9324410D02*
X10022980Y-9364410D01*
X10002980Y-9344410D02*
X10042980Y-9344410D01*
X10044230Y-7867800D02*
X10044230Y-7907800D01*
X10024230Y-7887800D02*
X10064230Y-7887800D01*
X11014300Y-8471480D02*
X11014300Y-8511480D01*
X10994300Y-8491480D02*
X11034300Y-8491480D01*
X11371940Y-7891430D02*
X11371940Y-7931430D01*
X11351940Y-7911430D02*
X11391940Y-7911430D01*
X11512270Y-10392300D02*
X11512270Y-10432300D01*
X11492270Y-10412300D02*
X11532270Y-10412300D01*
X11667780Y-10328630D02*
X11667780Y-10368630D01*
X11647780Y-10348630D02*
X11687780Y-10348630D01*
X12090580Y-8406460D02*
X12090580Y-8446460D01*
X12070580Y-8426460D02*
X12110580Y-8426460D01*
X12463440Y-8280000D02*
X12463440Y-8320000D01*
X12443440Y-8300000D02*
X12483440Y-8300000D01*
X12723020Y-9504840D02*
X12723020Y-9544840D01*
X12703020Y-9524840D02*
X12743020Y-9524840D01*
X12894540Y-8765730D02*
X12894540Y-8805730D01*
X12874540Y-8785730D02*
X12914540Y-8785730D01*
X13178520Y-10032780D02*
X13178520Y-10072780D01*
X13158520Y-10052780D02*
X13198520Y-10052780D01*
X13363030Y-8000020D02*
X13363030Y-8040020D01*
X13343030Y-8020020D02*
X13383030Y-8020020D01*
X13968890Y-8249450D02*
X13968890Y-8289450D01*
X13948890Y-8269450D02*
X13988890Y-8269450D01*
X14168610Y-8925000D02*
X14168610Y-8965000D01*
X14148610Y-8945000D02*
X14188610Y-8945000D01*
X14749520Y-7287870D02*
X14749520Y-7327870D01*
X14729520Y-7307870D02*
X14769520Y-7307870D01*
X15726450Y-8252270D02*
X15726450Y-8292270D01*
X15706450Y-8272270D02*
X15746450Y-8272270D01*
X15747550Y-10356690D02*
X15747550Y-10396690D01*
X15727550Y-10376690D02*
X15767550Y-10376690D01*
X6399788Y-9455858D02*
X6399788Y-9420502D01*
X6364432Y-9420502D01*
X6364432Y-9455858D01*
X6399788Y-9455858D01*
X10490468Y-8077678D02*
X10490468Y-8042322D01*
X10455112Y-8042322D01*
X10455112Y-8077678D01*
X10490468Y-8077678D01*
X10668798Y-8671748D02*
X10668798Y-8636392D01*
X10633442Y-8636392D01*
X10633442Y-8671748D01*
X10668798Y-8671748D01*
X11632338Y-8266248D02*
X11632338Y-8230892D01*
X11596982Y-8230892D01*
X11596982Y-8266248D01*
X11632338Y-8266248D01*
X12245658Y-9007378D02*
X12245658Y-8972022D01*
X12210302Y-8972022D01*
X12210302Y-9007378D01*
X12245658Y-9007378D01*
X13630000Y-11170000D02*
X13680000Y-11120000D01*
X13630000Y-11070000D01*
X13580000Y-11120000D01*
X13630000Y-11170000D01*
X13884000Y-11170000D02*
X13934000Y-11120000D01*
X13884000Y-11070000D01*
X13834000Y-11120000D01*
X13884000Y-11170000D01*
X14138000Y-11170000D02*
X14188000Y-11120000D01*
X14138000Y-11070000D01*
X14088000Y-11120000D01*
X14138000Y-11170000D01*
X14392000Y-11170000D02*
X14442000Y-11120000D01*
X14392000Y-11070000D01*
X14342000Y-11120000D01*
X14392000Y-11170000D01*
X14646000Y-11170000D02*
X14696000Y-11120000D01*
X14646000Y-11070000D01*
X14596000Y-11120000D01*
X14646000Y-11170000D01*
X14900000Y-11170000D02*
X14950000Y-11120000D01*
X14900000Y-11070000D01*
X14850000Y-11120000D01*
X14900000Y-11170000D01*
D12*
X11276920Y-6710000D02*
X11386920Y-6820000D01*
X11386920Y-6710000D02*
X11276920Y-6820000D01*
X11386920Y-6765000D02*
G75*
G02*
X11276920Y-6765000I-55000J0D01*
G01*
X11276920Y-6765000D02*
G75*
G02*
X11386920Y-6765000I55000J0D01*
G01*
X11276920Y-7010000D02*
X11386920Y-7120000D01*
X11386920Y-7010000D02*
X11276920Y-7120000D01*
X11386920Y-7065000D02*
G75*
G02*
X11276920Y-7065000I-55000J0D01*
G01*
X11276920Y-7065000D02*
G75*
G02*
X11386920Y-7065000I55000J0D01*
G01*
X11526920Y-6710000D02*
X11636920Y-6820000D01*
X11636920Y-6710000D02*
X11526920Y-6820000D01*
X11636920Y-6765000D02*
G75*
G02*
X11526920Y-6765000I-55000J0D01*
G01*
X11526920Y-6765000D02*
G75*
G02*
X11636920Y-6765000I55000J0D01*
G01*
X11526920Y-7010000D02*
X11636920Y-7120000D01*
X11636920Y-7010000D02*
X11526920Y-7120000D01*
X11636920Y-7065000D02*
G75*
G02*
X11526920Y-7065000I-55000J0D01*
G01*
X11526920Y-7065000D02*
G75*
G02*
X11636920Y-7065000I55000J0D01*
G01*
X11776920Y-6710000D02*
X11886920Y-6820000D01*
X11886920Y-6710000D02*
X11776920Y-6820000D01*
X11886920Y-6765000D02*
G75*
G02*
X11776920Y-6765000I-55000J0D01*
G01*
X11776920Y-6765000D02*
G75*
G02*
X11886920Y-6765000I55000J0D01*
G01*
X11776920Y-7010000D02*
X11886920Y-7120000D01*
X11886920Y-7010000D02*
X11776920Y-7120000D01*
X11886920Y-7065000D02*
G75*
G02*
X11776920Y-7065000I-55000J0D01*
G01*
X11776920Y-7065000D02*
G75*
G02*
X11886920Y-7065000I55000J0D01*
G01*
X12026920Y-6710000D02*
X12136920Y-6820000D01*
X12136920Y-6710000D02*
X12026920Y-6820000D01*
X12136920Y-6765000D02*
G75*
G02*
X12026920Y-6765000I-55000J0D01*
G01*
X12026920Y-6765000D02*
G75*
G02*
X12136920Y-6765000I55000J0D01*
G01*
X12026920Y-7010000D02*
X12136920Y-7120000D01*
X12136920Y-7010000D02*
X12026920Y-7120000D01*
X12136920Y-7065000D02*
G75*
G02*
X12026920Y-7065000I-55000J0D01*
G01*
X12026920Y-7065000D02*
G75*
G02*
X12136920Y-7065000I55000J0D01*
G01*
X12276920Y-6710000D02*
X12386920Y-6820000D01*
X12386920Y-6710000D02*
X12276920Y-6820000D01*
X12386920Y-6765000D02*
G75*
G02*
X12276920Y-6765000I-55000J0D01*
G01*
X12276920Y-6765000D02*
G75*
G02*
X12386920Y-6765000I55000J0D01*
G01*
X12276920Y-7010000D02*
X12386920Y-7120000D01*
X12386920Y-7010000D02*
X12276920Y-7120000D01*
X12386920Y-7065000D02*
G75*
G02*
X12276920Y-7065000I-55000J0D01*
G01*
X12276920Y-7065000D02*
G75*
G02*
X12386920Y-7065000I55000J0D01*
G01*
X12526920Y-6710000D02*
X12636920Y-6820000D01*
X12636920Y-6710000D02*
X12526920Y-6820000D01*
X12636920Y-6765000D02*
G75*
G02*
X12526920Y-6765000I-55000J0D01*
G01*
X12526920Y-6765000D02*
G75*
G02*
X12636920Y-6765000I55000J0D01*
G01*
X12526920Y-7010000D02*
X12636920Y-7120000D01*
X12636920Y-7010000D02*
X12526920Y-7120000D01*
X12636920Y-7065000D02*
G75*
G02*
X12526920Y-7065000I-55000J0D01*
G01*
X12526920Y-7065000D02*
G75*
G02*
X12636920Y-7065000I55000J0D01*
G01*
X14601920Y-6710000D02*
X14711920Y-6820000D01*
X14711920Y-6710000D02*
X14601920Y-6820000D01*
X14711920Y-6765000D02*
G75*
G02*
X14601920Y-6765000I-55000J0D01*
G01*
X14601920Y-6765000D02*
G75*
G02*
X14711920Y-6765000I55000J0D01*
G01*
X14601920Y-7010000D02*
X14711920Y-7120000D01*
X14711920Y-7010000D02*
X14601920Y-7120000D01*
X14711920Y-7065000D02*
G75*
G02*
X14601920Y-7065000I-55000J0D01*
G01*
X14601920Y-7065000D02*
G75*
G02*
X14711920Y-7065000I55000J0D01*
G01*
X14851920Y-6710000D02*
X14961920Y-6820000D01*
X14961920Y-6710000D02*
X14851920Y-6820000D01*
X14961920Y-6765000D02*
G75*
G02*
X14851920Y-6765000I-55000J0D01*
G01*
X14851920Y-6765000D02*
G75*
G02*
X14961920Y-6765000I55000J0D01*
G01*
X14851920Y-7010000D02*
X14961920Y-7120000D01*
X14961920Y-7010000D02*
X14851920Y-7120000D01*
X14961920Y-7065000D02*
G75*
G02*
X14851920Y-7065000I-55000J0D01*
G01*
X14851920Y-7065000D02*
G75*
G02*
X14961920Y-7065000I55000J0D01*
G01*
X15101920Y-6710000D02*
X15211920Y-6820000D01*
X15211920Y-6710000D02*
X15101920Y-6820000D01*
X15211920Y-6765000D02*
G75*
G02*
X15101920Y-6765000I-55000J0D01*
G01*
X15101920Y-6765000D02*
G75*
G02*
X15211920Y-6765000I55000J0D01*
G01*
X15101920Y-7010000D02*
X15211920Y-7120000D01*
X15211920Y-7010000D02*
X15101920Y-7120000D01*
X15211920Y-7065000D02*
G75*
G02*
X15101920Y-7065000I-55000J0D01*
G01*
X15101920Y-7065000D02*
G75*
G02*
X15211920Y-7065000I55000J0D01*
G01*
X15351920Y-6710000D02*
X15461920Y-6820000D01*
X15461920Y-6710000D02*
X15351920Y-6820000D01*
X15461920Y-6765000D02*
G75*
G02*
X15351920Y-6765000I-55000J0D01*
G01*
X15351920Y-6765000D02*
G75*
G02*
X15461920Y-6765000I55000J0D01*
G01*
X15351920Y-7010000D02*
X15461920Y-7120000D01*
X15461920Y-7010000D02*
X15351920Y-7120000D01*
X15461920Y-7065000D02*
G75*
G02*
X15351920Y-7065000I-55000J0D01*
G01*
X15351920Y-7065000D02*
G75*
G02*
X15461920Y-7065000I55000J0D01*
G01*
X15601920Y-6710000D02*
X15711920Y-6820000D01*
X15711920Y-6710000D02*
X15601920Y-6820000D01*
X15711920Y-6765000D02*
G75*
G02*
X15601920Y-6765000I-55000J0D01*
G01*
X15601920Y-6765000D02*
G75*
G02*
X15711920Y-6765000I55000J0D01*
G01*
X15601920Y-7010000D02*
X15711920Y-7120000D01*
X15711920Y-7010000D02*
X15601920Y-7120000D01*
X15711920Y-7065000D02*
G75*
G02*
X15601920Y-7065000I-55000J0D01*
G01*
X15601920Y-7065000D02*
G75*
G02*
X15711920Y-7065000I55000J0D01*
G01*
X15851920Y-6710000D02*
X15961920Y-6820000D01*
X15961920Y-6710000D02*
X15851920Y-6820000D01*
X15961920Y-6765000D02*
G75*
G02*
X15851920Y-6765000I-55000J0D01*
G01*
X15851920Y-6765000D02*
G75*
G02*
X15961920Y-6765000I55000J0D01*
G01*
X15851920Y-7010000D02*
X15961920Y-7120000D01*
X15961920Y-7010000D02*
X15851920Y-7120000D01*
X15961920Y-7065000D02*
G75*
G02*
X15851920Y-7065000I-55000J0D01*
G01*
X15851920Y-7065000D02*
G75*
G02*
X15961920Y-7065000I55000J0D01*
G01*
D13*
X6764420Y-6057500D02*
X6949420Y-6242500D01*
X6949420Y-6057500D02*
X6764420Y-6242500D01*
X6856920Y-6057500D02*
X6856920Y-6242500D01*
X6764420Y-6150000D02*
X6949420Y-6150000D01*
X6764420Y-6857500D02*
X6949420Y-7042500D01*
X6949420Y-6857500D02*
X6764420Y-7042500D01*
X6856920Y-6857500D02*
X6856920Y-7042500D01*
X6764420Y-6950000D02*
X6949420Y-6950000D01*
X6964420Y-6457500D02*
X7149420Y-6642500D01*
X7149420Y-6457500D02*
X6964420Y-6642500D01*
X7056920Y-6457500D02*
X7056920Y-6642500D01*
X6964420Y-6550000D02*
X7149420Y-6550000D01*
X7164420Y-6057500D02*
X7349420Y-6242500D01*
X7349420Y-6057500D02*
X7164420Y-6242500D01*
X7256920Y-6057500D02*
X7256920Y-6242500D01*
X7164420Y-6150000D02*
X7349420Y-6150000D01*
X7164420Y-6857500D02*
X7349420Y-7042500D01*
X7349420Y-6857500D02*
X7164420Y-7042500D01*
X7256920Y-6857500D02*
X7256920Y-7042500D01*
X7164420Y-6950000D02*
X7349420Y-6950000D01*
X7364420Y-6457500D02*
X7549420Y-6642500D01*
X7549420Y-6457500D02*
X7364420Y-6642500D01*
X7456920Y-6457500D02*
X7456920Y-6642500D01*
X7364420Y-6550000D02*
X7549420Y-6550000D01*
X7564420Y-6057500D02*
X7749420Y-6242500D01*
X7749420Y-6057500D02*
X7564420Y-6242500D01*
X7656920Y-6057500D02*
X7656920Y-6242500D01*
X7564420Y-6150000D02*
X7749420Y-6150000D01*
X7564420Y-6857500D02*
X7749420Y-7042500D01*
X7749420Y-6857500D02*
X7564420Y-7042500D01*
X7656920Y-6857500D02*
X7656920Y-7042500D01*
X7564420Y-6950000D02*
X7749420Y-6950000D01*
X7764420Y-6457500D02*
X7949420Y-6642500D01*
X7949420Y-6457500D02*
X7764420Y-6642500D01*
X7856920Y-6457500D02*
X7856920Y-6642500D01*
X7764420Y-6550000D02*
X7949420Y-6550000D01*
X7964420Y-6057500D02*
X8149420Y-6242500D01*
X8149420Y-6057500D02*
X7964420Y-6242500D01*
X8056920Y-6057500D02*
X8056920Y-6242500D01*
X7964420Y-6150000D02*
X8149420Y-6150000D01*
X7964420Y-6857500D02*
X8149420Y-7042500D01*
X8149420Y-6857500D02*
X7964420Y-7042500D01*
X8056920Y-6857500D02*
X8056920Y-7042500D01*
X7964420Y-6950000D02*
X8149420Y-6950000D01*
X8164420Y-6457500D02*
X8349420Y-6642500D01*
X8349420Y-6457500D02*
X8164420Y-6642500D01*
X8256920Y-6457500D02*
X8256920Y-6642500D01*
X8164420Y-6550000D02*
X8349420Y-6550000D01*
X8364420Y-6057500D02*
X8549420Y-6242500D01*
X8549420Y-6057500D02*
X8364420Y-6242500D01*
X8456920Y-6057500D02*
X8456920Y-6242500D01*
X8364420Y-6150000D02*
X8549420Y-6150000D01*
X8364420Y-6857500D02*
X8549420Y-7042500D01*
X8549420Y-6857500D02*
X8364420Y-7042500D01*
X8456920Y-6857500D02*
X8456920Y-7042500D01*
X8364420Y-6950000D02*
X8549420Y-6950000D01*
D14*
X10619420Y-6452500D02*
X10944420Y-6777500D01*
X10944420Y-6452500D02*
X10619420Y-6777500D01*
X10896826Y-6729906D02*
X10896826Y-6500094D01*
X10667014Y-6500094D01*
X10667014Y-6729906D01*
X10896826Y-6729906D01*
X12969420Y-6452500D02*
X13294420Y-6777500D01*
X13294420Y-6452500D02*
X12969420Y-6777500D01*
X13246826Y-6729906D02*
X13246826Y-6500094D01*
X13017014Y-6500094D01*
X13017014Y-6729906D01*
X13246826Y-6729906D01*
X13944420Y-6452500D02*
X14269420Y-6777500D01*
X14269420Y-6452500D02*
X13944420Y-6777500D01*
X14221826Y-6729906D02*
X14221826Y-6500094D01*
X13992014Y-6500094D01*
X13992014Y-6729906D01*
X14221826Y-6729906D01*
X16294420Y-6452500D02*
X16619420Y-6777500D01*
X16619420Y-6452500D02*
X16294420Y-6777500D01*
X16571826Y-6729906D02*
X16571826Y-6500094D01*
X16342014Y-6500094D01*
X16342014Y-6729906D01*
X16571826Y-6729906D01*
D15*
X6060420Y-6353500D02*
X6353420Y-6646500D01*
X6353420Y-6353500D02*
X6060420Y-6646500D01*
X6206920Y-6646500D02*
X6353420Y-6500000D01*
X6206920Y-6353500D01*
X6060420Y-6500000D01*
X6206920Y-6646500D01*
X8960420Y-6353500D02*
X9253420Y-6646500D01*
X9253420Y-6353500D02*
X8960420Y-6646500D01*
X9106920Y-6646500D02*
X9253420Y-6500000D01*
X9106920Y-6353500D01*
X8960420Y-6500000D01*
X9106920Y-6646500D01*
D10*
X5257701Y-12321484D02*
X5257701Y-12121484D01*
X5257701Y-12121484D02*
X5305320Y-12121484D01*
X5305320Y-12121484D02*
X5333892Y-12131008D01*
X5333892Y-12131008D02*
X5352939Y-12150055D01*
X5352939Y-12150055D02*
X5362463Y-12169103D01*
X5362463Y-12169103D02*
X5371987Y-12207198D01*
X5371987Y-12207198D02*
X5371987Y-12235769D01*
X5371987Y-12235769D02*
X5362463Y-12273865D01*
X5362463Y-12273865D02*
X5352939Y-12292912D01*
X5352939Y-12292912D02*
X5333892Y-12311960D01*
X5333892Y-12311960D02*
X5305320Y-12321484D01*
X5305320Y-12321484D02*
X5257701Y-12321484D01*
X5457701Y-12321484D02*
X5457701Y-12188150D01*
X5457701Y-12226246D02*
X5467225Y-12207198D01*
X5467225Y-12207198D02*
X5476749Y-12197674D01*
X5476749Y-12197674D02*
X5495796Y-12188150D01*
X5495796Y-12188150D02*
X5514844Y-12188150D01*
X5581511Y-12321484D02*
X5581511Y-12188150D01*
X5581511Y-12121484D02*
X5571987Y-12131008D01*
X5571987Y-12131008D02*
X5581511Y-12140531D01*
X5581511Y-12140531D02*
X5591034Y-12131008D01*
X5591034Y-12131008D02*
X5581511Y-12121484D01*
X5581511Y-12121484D02*
X5581511Y-12140531D01*
X5705320Y-12321484D02*
X5686272Y-12311960D01*
X5686272Y-12311960D02*
X5676749Y-12292912D01*
X5676749Y-12292912D02*
X5676749Y-12121484D01*
X5810082Y-12321484D02*
X5791034Y-12311960D01*
X5791034Y-12311960D02*
X5781511Y-12292912D01*
X5781511Y-12292912D02*
X5781511Y-12121484D01*
X6038653Y-12321484D02*
X6038653Y-12121484D01*
X6038653Y-12121484D02*
X6105320Y-12264341D01*
X6105320Y-12264341D02*
X6171987Y-12121484D01*
X6171987Y-12121484D02*
X6171987Y-12321484D01*
X6352939Y-12321484D02*
X6352939Y-12216722D01*
X6352939Y-12216722D02*
X6343415Y-12197674D01*
X6343415Y-12197674D02*
X6324368Y-12188150D01*
X6324368Y-12188150D02*
X6286272Y-12188150D01*
X6286272Y-12188150D02*
X6267225Y-12197674D01*
X6352939Y-12311960D02*
X6333892Y-12321484D01*
X6333892Y-12321484D02*
X6286272Y-12321484D01*
X6286272Y-12321484D02*
X6267225Y-12311960D01*
X6267225Y-12311960D02*
X6257701Y-12292912D01*
X6257701Y-12292912D02*
X6257701Y-12273865D01*
X6257701Y-12273865D02*
X6267225Y-12254817D01*
X6267225Y-12254817D02*
X6286272Y-12245293D01*
X6286272Y-12245293D02*
X6333892Y-12245293D01*
X6333892Y-12245293D02*
X6352939Y-12235769D01*
X6448177Y-12188150D02*
X6448177Y-12388150D01*
X6448177Y-12197674D02*
X6467225Y-12188150D01*
X6467225Y-12188150D02*
X6505320Y-12188150D01*
X6505320Y-12188150D02*
X6524368Y-12197674D01*
X6524368Y-12197674D02*
X6533892Y-12207198D01*
X6533892Y-12207198D02*
X6543415Y-12226246D01*
X6543415Y-12226246D02*
X6543415Y-12283388D01*
X6543415Y-12283388D02*
X6533892Y-12302436D01*
X6533892Y-12302436D02*
X6524368Y-12311960D01*
X6524368Y-12311960D02*
X6505320Y-12321484D01*
X6505320Y-12321484D02*
X6467225Y-12321484D01*
X6467225Y-12321484D02*
X6448177Y-12311960D01*
X6629130Y-12302436D02*
X6638653Y-12311960D01*
X6638653Y-12311960D02*
X6629130Y-12321484D01*
X6629130Y-12321484D02*
X6619606Y-12311960D01*
X6619606Y-12311960D02*
X6629130Y-12302436D01*
X6629130Y-12302436D02*
X6629130Y-12321484D01*
X6629130Y-12197674D02*
X6638653Y-12207198D01*
X6638653Y-12207198D02*
X6629130Y-12216722D01*
X6629130Y-12216722D02*
X6619606Y-12207198D01*
X6619606Y-12207198D02*
X6629130Y-12197674D01*
X6629130Y-12197674D02*
X6629130Y-12216722D01*
D11*
X4966924Y-12635000D02*
X4996924Y-12665000D01*
X4996924Y-12635000D02*
X4966924Y-12665000D01*
D10*
X5295796Y-12541484D02*
X5314844Y-12541484D01*
X5314844Y-12541484D02*
X5333892Y-12551008D01*
X5333892Y-12551008D02*
X5343415Y-12560531D01*
X5343415Y-12560531D02*
X5352939Y-12579579D01*
X5352939Y-12579579D02*
X5362463Y-12617674D01*
X5362463Y-12617674D02*
X5362463Y-12665293D01*
X5362463Y-12665293D02*
X5352939Y-12703388D01*
X5352939Y-12703388D02*
X5343415Y-12722436D01*
X5343415Y-12722436D02*
X5333892Y-12731960D01*
X5333892Y-12731960D02*
X5314844Y-12741484D01*
X5314844Y-12741484D02*
X5295796Y-12741484D01*
X5295796Y-12741484D02*
X5276749Y-12731960D01*
X5276749Y-12731960D02*
X5267225Y-12722436D01*
X5267225Y-12722436D02*
X5257701Y-12703388D01*
X5257701Y-12703388D02*
X5248177Y-12665293D01*
X5248177Y-12665293D02*
X5248177Y-12617674D01*
X5248177Y-12617674D02*
X5257701Y-12579579D01*
X5257701Y-12579579D02*
X5267225Y-12560531D01*
X5267225Y-12560531D02*
X5276749Y-12551008D01*
X5276749Y-12551008D02*
X5295796Y-12541484D01*
X5448177Y-12722436D02*
X5457701Y-12731960D01*
X5457701Y-12731960D02*
X5448177Y-12741484D01*
X5448177Y-12741484D02*
X5438654Y-12731960D01*
X5438654Y-12731960D02*
X5448177Y-12722436D01*
X5448177Y-12722436D02*
X5448177Y-12741484D01*
X5524368Y-12541484D02*
X5648177Y-12541484D01*
X5648177Y-12541484D02*
X5581511Y-12617674D01*
X5581511Y-12617674D02*
X5610082Y-12617674D01*
X5610082Y-12617674D02*
X5629130Y-12627198D01*
X5629130Y-12627198D02*
X5638653Y-12636722D01*
X5638653Y-12636722D02*
X5648177Y-12655769D01*
X5648177Y-12655769D02*
X5648177Y-12703388D01*
X5648177Y-12703388D02*
X5638653Y-12722436D01*
X5638653Y-12722436D02*
X5629130Y-12731960D01*
X5629130Y-12731960D02*
X5610082Y-12741484D01*
X5610082Y-12741484D02*
X5552939Y-12741484D01*
X5552939Y-12741484D02*
X5533892Y-12731960D01*
X5533892Y-12731960D02*
X5524368Y-12722436D01*
X5771987Y-12541484D02*
X5791034Y-12541484D01*
X5791034Y-12541484D02*
X5810082Y-12551008D01*
X5810082Y-12551008D02*
X5819606Y-12560531D01*
X5819606Y-12560531D02*
X5829130Y-12579579D01*
X5829130Y-12579579D02*
X5838653Y-12617674D01*
X5838653Y-12617674D02*
X5838653Y-12665293D01*
X5838653Y-12665293D02*
X5829130Y-12703388D01*
X5829130Y-12703388D02*
X5819606Y-12722436D01*
X5819606Y-12722436D02*
X5810082Y-12731960D01*
X5810082Y-12731960D02*
X5791034Y-12741484D01*
X5791034Y-12741484D02*
X5771987Y-12741484D01*
X5771987Y-12741484D02*
X5752939Y-12731960D01*
X5752939Y-12731960D02*
X5743415Y-12722436D01*
X5743415Y-12722436D02*
X5733892Y-12703388D01*
X5733892Y-12703388D02*
X5724368Y-12665293D01*
X5724368Y-12665293D02*
X5724368Y-12617674D01*
X5724368Y-12617674D02*
X5733892Y-12579579D01*
X5733892Y-12579579D02*
X5743415Y-12560531D01*
X5743415Y-12560531D02*
X5752939Y-12551008D01*
X5752939Y-12551008D02*
X5771987Y-12541484D01*
X5962463Y-12541484D02*
X5981511Y-12541484D01*
X5981511Y-12541484D02*
X6000558Y-12551008D01*
X6000558Y-12551008D02*
X6010082Y-12560531D01*
X6010082Y-12560531D02*
X6019606Y-12579579D01*
X6019606Y-12579579D02*
X6029130Y-12617674D01*
X6029130Y-12617674D02*
X6029130Y-12665293D01*
X6029130Y-12665293D02*
X6019606Y-12703388D01*
X6019606Y-12703388D02*
X6010082Y-12722436D01*
X6010082Y-12722436D02*
X6000558Y-12731960D01*
X6000558Y-12731960D02*
X5981511Y-12741484D01*
X5981511Y-12741484D02*
X5962463Y-12741484D01*
X5962463Y-12741484D02*
X5943415Y-12731960D01*
X5943415Y-12731960D02*
X5933892Y-12722436D01*
X5933892Y-12722436D02*
X5924368Y-12703388D01*
X5924368Y-12703388D02*
X5914844Y-12665293D01*
X5914844Y-12665293D02*
X5914844Y-12617674D01*
X5914844Y-12617674D02*
X5924368Y-12579579D01*
X5924368Y-12579579D02*
X5933892Y-12560531D01*
X5933892Y-12560531D02*
X5943415Y-12551008D01*
X5943415Y-12551008D02*
X5962463Y-12541484D01*
X6114844Y-12741484D02*
X6114844Y-12608150D01*
X6114844Y-12627198D02*
X6124368Y-12617674D01*
X6124368Y-12617674D02*
X6143415Y-12608150D01*
X6143415Y-12608150D02*
X6171987Y-12608150D01*
X6171987Y-12608150D02*
X6191034Y-12617674D01*
X6191034Y-12617674D02*
X6200558Y-12636722D01*
X6200558Y-12636722D02*
X6200558Y-12741484D01*
X6200558Y-12636722D02*
X6210082Y-12617674D01*
X6210082Y-12617674D02*
X6229130Y-12608150D01*
X6229130Y-12608150D02*
X6257701Y-12608150D01*
X6257701Y-12608150D02*
X6276749Y-12617674D01*
X6276749Y-12617674D02*
X6286273Y-12636722D01*
X6286273Y-12636722D02*
X6286273Y-12741484D01*
X6381511Y-12741484D02*
X6381511Y-12608150D01*
X6381511Y-12627198D02*
X6391034Y-12617674D01*
X6391034Y-12617674D02*
X6410082Y-12608150D01*
X6410082Y-12608150D02*
X6438654Y-12608150D01*
X6438654Y-12608150D02*
X6457701Y-12617674D01*
X6457701Y-12617674D02*
X6467225Y-12636722D01*
X6467225Y-12636722D02*
X6467225Y-12741484D01*
X6467225Y-12636722D02*
X6476749Y-12617674D01*
X6476749Y-12617674D02*
X6495796Y-12608150D01*
X6495796Y-12608150D02*
X6524368Y-12608150D01*
X6524368Y-12608150D02*
X6543415Y-12617674D01*
X6543415Y-12617674D02*
X6552939Y-12636722D01*
X6552939Y-12636722D02*
X6552939Y-12741484D01*
X6943415Y-12531960D02*
X6771987Y-12789103D01*
X7200558Y-12541484D02*
X7219606Y-12541484D01*
X7219606Y-12541484D02*
X7238654Y-12551008D01*
X7238654Y-12551008D02*
X7248177Y-12560531D01*
X7248177Y-12560531D02*
X7257701Y-12579579D01*
X7257701Y-12579579D02*
X7267225Y-12617674D01*
X7267225Y-12617674D02*
X7267225Y-12665293D01*
X7267225Y-12665293D02*
X7257701Y-12703388D01*
X7257701Y-12703388D02*
X7248177Y-12722436D01*
X7248177Y-12722436D02*
X7238654Y-12731960D01*
X7238654Y-12731960D02*
X7219606Y-12741484D01*
X7219606Y-12741484D02*
X7200558Y-12741484D01*
X7200558Y-12741484D02*
X7181511Y-12731960D01*
X7181511Y-12731960D02*
X7171987Y-12722436D01*
X7171987Y-12722436D02*
X7162463Y-12703388D01*
X7162463Y-12703388D02*
X7152939Y-12665293D01*
X7152939Y-12665293D02*
X7152939Y-12617674D01*
X7152939Y-12617674D02*
X7162463Y-12579579D01*
X7162463Y-12579579D02*
X7171987Y-12560531D01*
X7171987Y-12560531D02*
X7181511Y-12551008D01*
X7181511Y-12551008D02*
X7200558Y-12541484D01*
X7352939Y-12722436D02*
X7362463Y-12731960D01*
X7362463Y-12731960D02*
X7352939Y-12741484D01*
X7352939Y-12741484D02*
X7343416Y-12731960D01*
X7343416Y-12731960D02*
X7352939Y-12722436D01*
X7352939Y-12722436D02*
X7352939Y-12741484D01*
X7486273Y-12541484D02*
X7505320Y-12541484D01*
X7505320Y-12541484D02*
X7524368Y-12551008D01*
X7524368Y-12551008D02*
X7533892Y-12560531D01*
X7533892Y-12560531D02*
X7543416Y-12579579D01*
X7543416Y-12579579D02*
X7552939Y-12617674D01*
X7552939Y-12617674D02*
X7552939Y-12665293D01*
X7552939Y-12665293D02*
X7543416Y-12703388D01*
X7543416Y-12703388D02*
X7533892Y-12722436D01*
X7533892Y-12722436D02*
X7524368Y-12731960D01*
X7524368Y-12731960D02*
X7505320Y-12741484D01*
X7505320Y-12741484D02*
X7486273Y-12741484D01*
X7486273Y-12741484D02*
X7467225Y-12731960D01*
X7467225Y-12731960D02*
X7457701Y-12722436D01*
X7457701Y-12722436D02*
X7448177Y-12703388D01*
X7448177Y-12703388D02*
X7438654Y-12665293D01*
X7438654Y-12665293D02*
X7438654Y-12617674D01*
X7438654Y-12617674D02*
X7448177Y-12579579D01*
X7448177Y-12579579D02*
X7457701Y-12560531D01*
X7457701Y-12560531D02*
X7467225Y-12551008D01*
X7467225Y-12551008D02*
X7486273Y-12541484D01*
X7743416Y-12741484D02*
X7629130Y-12741484D01*
X7686273Y-12741484D02*
X7686273Y-12541484D01*
X7686273Y-12541484D02*
X7667225Y-12570055D01*
X7667225Y-12570055D02*
X7648177Y-12589103D01*
X7648177Y-12589103D02*
X7629130Y-12598627D01*
X7933892Y-12741484D02*
X7819606Y-12741484D01*
X7876749Y-12741484D02*
X7876749Y-12541484D01*
X7876749Y-12541484D02*
X7857701Y-12570055D01*
X7857701Y-12570055D02*
X7838654Y-12589103D01*
X7838654Y-12589103D02*
X7819606Y-12598627D01*
X8048177Y-12627198D02*
X8029130Y-12617674D01*
X8029130Y-12617674D02*
X8019606Y-12608150D01*
X8019606Y-12608150D02*
X8010082Y-12589103D01*
X8010082Y-12589103D02*
X8010082Y-12579579D01*
X8010082Y-12579579D02*
X8019606Y-12560531D01*
X8019606Y-12560531D02*
X8029130Y-12551008D01*
X8029130Y-12551008D02*
X8048177Y-12541484D01*
X8048177Y-12541484D02*
X8086273Y-12541484D01*
X8086273Y-12541484D02*
X8105320Y-12551008D01*
X8105320Y-12551008D02*
X8114844Y-12560531D01*
X8114844Y-12560531D02*
X8124368Y-12579579D01*
X8124368Y-12579579D02*
X8124368Y-12589103D01*
X8124368Y-12589103D02*
X8114844Y-12608150D01*
X8114844Y-12608150D02*
X8105320Y-12617674D01*
X8105320Y-12617674D02*
X8086273Y-12627198D01*
X8086273Y-12627198D02*
X8048177Y-12627198D01*
X8048177Y-12627198D02*
X8029130Y-12636722D01*
X8029130Y-12636722D02*
X8019606Y-12646246D01*
X8019606Y-12646246D02*
X8010082Y-12665293D01*
X8010082Y-12665293D02*
X8010082Y-12703388D01*
X8010082Y-12703388D02*
X8019606Y-12722436D01*
X8019606Y-12722436D02*
X8029130Y-12731960D01*
X8029130Y-12731960D02*
X8048177Y-12741484D01*
X8048177Y-12741484D02*
X8086273Y-12741484D01*
X8086273Y-12741484D02*
X8105320Y-12731960D01*
X8105320Y-12731960D02*
X8114844Y-12722436D01*
X8114844Y-12722436D02*
X8124368Y-12703388D01*
X8124368Y-12703388D02*
X8124368Y-12665293D01*
X8124368Y-12665293D02*
X8114844Y-12646246D01*
X8114844Y-12646246D02*
X8105320Y-12636722D01*
X8105320Y-12636722D02*
X8086273Y-12627198D01*
X8200558Y-12541484D02*
X8200558Y-12579579D01*
X8276749Y-12541484D02*
X8276749Y-12579579D01*
X8571987Y-12817674D02*
X8562463Y-12808150D01*
X8562463Y-12808150D02*
X8543416Y-12779579D01*
X8543416Y-12779579D02*
X8533892Y-12760531D01*
X8533892Y-12760531D02*
X8524368Y-12731960D01*
X8524368Y-12731960D02*
X8514844Y-12684341D01*
X8514844Y-12684341D02*
X8514844Y-12646246D01*
X8514844Y-12646246D02*
X8524368Y-12598627D01*
X8524368Y-12598627D02*
X8533892Y-12570055D01*
X8533892Y-12570055D02*
X8543416Y-12551008D01*
X8543416Y-12551008D02*
X8562463Y-12522436D01*
X8562463Y-12522436D02*
X8571987Y-12512912D01*
X8752940Y-12741484D02*
X8638654Y-12741484D01*
X8695797Y-12741484D02*
X8695797Y-12541484D01*
X8695797Y-12541484D02*
X8676749Y-12570055D01*
X8676749Y-12570055D02*
X8657701Y-12589103D01*
X8657701Y-12589103D02*
X8638654Y-12598627D01*
X8933892Y-12541484D02*
X8838654Y-12541484D01*
X8838654Y-12541484D02*
X8829130Y-12636722D01*
X8829130Y-12636722D02*
X8838654Y-12627198D01*
X8838654Y-12627198D02*
X8857701Y-12617674D01*
X8857701Y-12617674D02*
X8905321Y-12617674D01*
X8905321Y-12617674D02*
X8924368Y-12627198D01*
X8924368Y-12627198D02*
X8933892Y-12636722D01*
X8933892Y-12636722D02*
X8943416Y-12655769D01*
X8943416Y-12655769D02*
X8943416Y-12703388D01*
X8943416Y-12703388D02*
X8933892Y-12722436D01*
X8933892Y-12722436D02*
X8924368Y-12731960D01*
X8924368Y-12731960D02*
X8905321Y-12741484D01*
X8905321Y-12741484D02*
X8857701Y-12741484D01*
X8857701Y-12741484D02*
X8838654Y-12731960D01*
X8838654Y-12731960D02*
X8829130Y-12722436D01*
X9038654Y-12741484D02*
X9076749Y-12741484D01*
X9076749Y-12741484D02*
X9095797Y-12731960D01*
X9095797Y-12731960D02*
X9105321Y-12722436D01*
X9105321Y-12722436D02*
X9124368Y-12693865D01*
X9124368Y-12693865D02*
X9133892Y-12655769D01*
X9133892Y-12655769D02*
X9133892Y-12579579D01*
X9133892Y-12579579D02*
X9124368Y-12560531D01*
X9124368Y-12560531D02*
X9114844Y-12551008D01*
X9114844Y-12551008D02*
X9095797Y-12541484D01*
X9095797Y-12541484D02*
X9057701Y-12541484D01*
X9057701Y-12541484D02*
X9038654Y-12551008D01*
X9038654Y-12551008D02*
X9029130Y-12560531D01*
X9029130Y-12560531D02*
X9019606Y-12579579D01*
X9019606Y-12579579D02*
X9019606Y-12627198D01*
X9019606Y-12627198D02*
X9029130Y-12646246D01*
X9029130Y-12646246D02*
X9038654Y-12655769D01*
X9038654Y-12655769D02*
X9057701Y-12665293D01*
X9057701Y-12665293D02*
X9095797Y-12665293D01*
X9095797Y-12665293D02*
X9114844Y-12655769D01*
X9114844Y-12655769D02*
X9124368Y-12646246D01*
X9124368Y-12646246D02*
X9133892Y-12627198D01*
X9371987Y-12741484D02*
X9371987Y-12541484D01*
X9457702Y-12741484D02*
X9457702Y-12636722D01*
X9457702Y-12636722D02*
X9448178Y-12617674D01*
X9448178Y-12617674D02*
X9429130Y-12608150D01*
X9429130Y-12608150D02*
X9400559Y-12608150D01*
X9400559Y-12608150D02*
X9381511Y-12617674D01*
X9381511Y-12617674D02*
X9371987Y-12627198D01*
X9581511Y-12741484D02*
X9562463Y-12731960D01*
X9562463Y-12731960D02*
X9552940Y-12722436D01*
X9552940Y-12722436D02*
X9543416Y-12703388D01*
X9543416Y-12703388D02*
X9543416Y-12646246D01*
X9543416Y-12646246D02*
X9552940Y-12627198D01*
X9552940Y-12627198D02*
X9562463Y-12617674D01*
X9562463Y-12617674D02*
X9581511Y-12608150D01*
X9581511Y-12608150D02*
X9610083Y-12608150D01*
X9610083Y-12608150D02*
X9629130Y-12617674D01*
X9629130Y-12617674D02*
X9638654Y-12627198D01*
X9638654Y-12627198D02*
X9648178Y-12646246D01*
X9648178Y-12646246D02*
X9648178Y-12703388D01*
X9648178Y-12703388D02*
X9638654Y-12722436D01*
X9638654Y-12722436D02*
X9629130Y-12731960D01*
X9629130Y-12731960D02*
X9610083Y-12741484D01*
X9610083Y-12741484D02*
X9581511Y-12741484D01*
X9762463Y-12741484D02*
X9743416Y-12731960D01*
X9743416Y-12731960D02*
X9733892Y-12712912D01*
X9733892Y-12712912D02*
X9733892Y-12541484D01*
X9914844Y-12731960D02*
X9895797Y-12741484D01*
X9895797Y-12741484D02*
X9857702Y-12741484D01*
X9857702Y-12741484D02*
X9838654Y-12731960D01*
X9838654Y-12731960D02*
X9829130Y-12712912D01*
X9829130Y-12712912D02*
X9829130Y-12636722D01*
X9829130Y-12636722D02*
X9838654Y-12617674D01*
X9838654Y-12617674D02*
X9857702Y-12608150D01*
X9857702Y-12608150D02*
X9895797Y-12608150D01*
X9895797Y-12608150D02*
X9914844Y-12617674D01*
X9914844Y-12617674D02*
X9924368Y-12636722D01*
X9924368Y-12636722D02*
X9924368Y-12655769D01*
X9924368Y-12655769D02*
X9829130Y-12674817D01*
X10000559Y-12731960D02*
X10019606Y-12741484D01*
X10019606Y-12741484D02*
X10057702Y-12741484D01*
X10057702Y-12741484D02*
X10076749Y-12731960D01*
X10076749Y-12731960D02*
X10086273Y-12712912D01*
X10086273Y-12712912D02*
X10086273Y-12703388D01*
X10086273Y-12703388D02*
X10076749Y-12684341D01*
X10076749Y-12684341D02*
X10057702Y-12674817D01*
X10057702Y-12674817D02*
X10029130Y-12674817D01*
X10029130Y-12674817D02*
X10010083Y-12665293D01*
X10010083Y-12665293D02*
X10000559Y-12646246D01*
X10000559Y-12646246D02*
X10000559Y-12636722D01*
X10000559Y-12636722D02*
X10010083Y-12617674D01*
X10010083Y-12617674D02*
X10029130Y-12608150D01*
X10029130Y-12608150D02*
X10057702Y-12608150D01*
X10057702Y-12608150D02*
X10076749Y-12617674D01*
X10152940Y-12817674D02*
X10162464Y-12808150D01*
X10162464Y-12808150D02*
X10181511Y-12779579D01*
X10181511Y-12779579D02*
X10191035Y-12760531D01*
X10191035Y-12760531D02*
X10200559Y-12731960D01*
X10200559Y-12731960D02*
X10210083Y-12684341D01*
X10210083Y-12684341D02*
X10210083Y-12646246D01*
X10210083Y-12646246D02*
X10200559Y-12598627D01*
X10200559Y-12598627D02*
X10191035Y-12570055D01*
X10191035Y-12570055D02*
X10181511Y-12551008D01*
X10181511Y-12551008D02*
X10162464Y-12522436D01*
X10162464Y-12522436D02*
X10152940Y-12512912D01*
D11*
X4996924Y-12914000D02*
G75*
G02*
X4961924Y-12914000I-17500J0D01*
G01*
X4961924Y-12914000D02*
G75*
G02*
X4996924Y-12914000I17500J0D01*
G01*
D10*
X5295796Y-12805484D02*
X5314844Y-12805484D01*
X5314844Y-12805484D02*
X5333892Y-12815008D01*
X5333892Y-12815008D02*
X5343415Y-12824531D01*
X5343415Y-12824531D02*
X5352939Y-12843579D01*
X5352939Y-12843579D02*
X5362463Y-12881674D01*
X5362463Y-12881674D02*
X5362463Y-12929293D01*
X5362463Y-12929293D02*
X5352939Y-12967388D01*
X5352939Y-12967388D02*
X5343415Y-12986436D01*
X5343415Y-12986436D02*
X5333892Y-12995960D01*
X5333892Y-12995960D02*
X5314844Y-13005484D01*
X5314844Y-13005484D02*
X5295796Y-13005484D01*
X5295796Y-13005484D02*
X5276749Y-12995960D01*
X5276749Y-12995960D02*
X5267225Y-12986436D01*
X5267225Y-12986436D02*
X5257701Y-12967388D01*
X5257701Y-12967388D02*
X5248177Y-12929293D01*
X5248177Y-12929293D02*
X5248177Y-12881674D01*
X5248177Y-12881674D02*
X5257701Y-12843579D01*
X5257701Y-12843579D02*
X5267225Y-12824531D01*
X5267225Y-12824531D02*
X5276749Y-12815008D01*
X5276749Y-12815008D02*
X5295796Y-12805484D01*
X5448177Y-12986436D02*
X5457701Y-12995960D01*
X5457701Y-12995960D02*
X5448177Y-13005484D01*
X5448177Y-13005484D02*
X5438654Y-12995960D01*
X5438654Y-12995960D02*
X5448177Y-12986436D01*
X5448177Y-12986436D02*
X5448177Y-13005484D01*
X5524368Y-12805484D02*
X5648177Y-12805484D01*
X5648177Y-12805484D02*
X5581511Y-12881674D01*
X5581511Y-12881674D02*
X5610082Y-12881674D01*
X5610082Y-12881674D02*
X5629130Y-12891198D01*
X5629130Y-12891198D02*
X5638653Y-12900722D01*
X5638653Y-12900722D02*
X5648177Y-12919769D01*
X5648177Y-12919769D02*
X5648177Y-12967388D01*
X5648177Y-12967388D02*
X5638653Y-12986436D01*
X5638653Y-12986436D02*
X5629130Y-12995960D01*
X5629130Y-12995960D02*
X5610082Y-13005484D01*
X5610082Y-13005484D02*
X5552939Y-13005484D01*
X5552939Y-13005484D02*
X5533892Y-12995960D01*
X5533892Y-12995960D02*
X5524368Y-12986436D01*
X5829130Y-12805484D02*
X5733892Y-12805484D01*
X5733892Y-12805484D02*
X5724368Y-12900722D01*
X5724368Y-12900722D02*
X5733892Y-12891198D01*
X5733892Y-12891198D02*
X5752939Y-12881674D01*
X5752939Y-12881674D02*
X5800558Y-12881674D01*
X5800558Y-12881674D02*
X5819606Y-12891198D01*
X5819606Y-12891198D02*
X5829130Y-12900722D01*
X5829130Y-12900722D02*
X5838653Y-12919769D01*
X5838653Y-12919769D02*
X5838653Y-12967388D01*
X5838653Y-12967388D02*
X5829130Y-12986436D01*
X5829130Y-12986436D02*
X5819606Y-12995960D01*
X5819606Y-12995960D02*
X5800558Y-13005484D01*
X5800558Y-13005484D02*
X5752939Y-13005484D01*
X5752939Y-13005484D02*
X5733892Y-12995960D01*
X5733892Y-12995960D02*
X5724368Y-12986436D01*
X5962463Y-12805484D02*
X5981511Y-12805484D01*
X5981511Y-12805484D02*
X6000558Y-12815008D01*
X6000558Y-12815008D02*
X6010082Y-12824531D01*
X6010082Y-12824531D02*
X6019606Y-12843579D01*
X6019606Y-12843579D02*
X6029130Y-12881674D01*
X6029130Y-12881674D02*
X6029130Y-12929293D01*
X6029130Y-12929293D02*
X6019606Y-12967388D01*
X6019606Y-12967388D02*
X6010082Y-12986436D01*
X6010082Y-12986436D02*
X6000558Y-12995960D01*
X6000558Y-12995960D02*
X5981511Y-13005484D01*
X5981511Y-13005484D02*
X5962463Y-13005484D01*
X5962463Y-13005484D02*
X5943415Y-12995960D01*
X5943415Y-12995960D02*
X5933892Y-12986436D01*
X5933892Y-12986436D02*
X5924368Y-12967388D01*
X5924368Y-12967388D02*
X5914844Y-12929293D01*
X5914844Y-12929293D02*
X5914844Y-12881674D01*
X5914844Y-12881674D02*
X5924368Y-12843579D01*
X5924368Y-12843579D02*
X5933892Y-12824531D01*
X5933892Y-12824531D02*
X5943415Y-12815008D01*
X5943415Y-12815008D02*
X5962463Y-12805484D01*
X6114844Y-13005484D02*
X6114844Y-12872150D01*
X6114844Y-12891198D02*
X6124368Y-12881674D01*
X6124368Y-12881674D02*
X6143415Y-12872150D01*
X6143415Y-12872150D02*
X6171987Y-12872150D01*
X6171987Y-12872150D02*
X6191034Y-12881674D01*
X6191034Y-12881674D02*
X6200558Y-12900722D01*
X6200558Y-12900722D02*
X6200558Y-13005484D01*
X6200558Y-12900722D02*
X6210082Y-12881674D01*
X6210082Y-12881674D02*
X6229130Y-12872150D01*
X6229130Y-12872150D02*
X6257701Y-12872150D01*
X6257701Y-12872150D02*
X6276749Y-12881674D01*
X6276749Y-12881674D02*
X6286273Y-12900722D01*
X6286273Y-12900722D02*
X6286273Y-13005484D01*
X6381511Y-13005484D02*
X6381511Y-12872150D01*
X6381511Y-12891198D02*
X6391034Y-12881674D01*
X6391034Y-12881674D02*
X6410082Y-12872150D01*
X6410082Y-12872150D02*
X6438654Y-12872150D01*
X6438654Y-12872150D02*
X6457701Y-12881674D01*
X6457701Y-12881674D02*
X6467225Y-12900722D01*
X6467225Y-12900722D02*
X6467225Y-13005484D01*
X6467225Y-12900722D02*
X6476749Y-12881674D01*
X6476749Y-12881674D02*
X6495796Y-12872150D01*
X6495796Y-12872150D02*
X6524368Y-12872150D01*
X6524368Y-12872150D02*
X6543415Y-12881674D01*
X6543415Y-12881674D02*
X6552939Y-12900722D01*
X6552939Y-12900722D02*
X6552939Y-13005484D01*
X6943415Y-12795960D02*
X6771987Y-13053103D01*
X7200558Y-12805484D02*
X7219606Y-12805484D01*
X7219606Y-12805484D02*
X7238654Y-12815008D01*
X7238654Y-12815008D02*
X7248177Y-12824531D01*
X7248177Y-12824531D02*
X7257701Y-12843579D01*
X7257701Y-12843579D02*
X7267225Y-12881674D01*
X7267225Y-12881674D02*
X7267225Y-12929293D01*
X7267225Y-12929293D02*
X7257701Y-12967388D01*
X7257701Y-12967388D02*
X7248177Y-12986436D01*
X7248177Y-12986436D02*
X7238654Y-12995960D01*
X7238654Y-12995960D02*
X7219606Y-13005484D01*
X7219606Y-13005484D02*
X7200558Y-13005484D01*
X7200558Y-13005484D02*
X7181511Y-12995960D01*
X7181511Y-12995960D02*
X7171987Y-12986436D01*
X7171987Y-12986436D02*
X7162463Y-12967388D01*
X7162463Y-12967388D02*
X7152939Y-12929293D01*
X7152939Y-12929293D02*
X7152939Y-12881674D01*
X7152939Y-12881674D02*
X7162463Y-12843579D01*
X7162463Y-12843579D02*
X7171987Y-12824531D01*
X7171987Y-12824531D02*
X7181511Y-12815008D01*
X7181511Y-12815008D02*
X7200558Y-12805484D01*
X7352939Y-12986436D02*
X7362463Y-12995960D01*
X7362463Y-12995960D02*
X7352939Y-13005484D01*
X7352939Y-13005484D02*
X7343416Y-12995960D01*
X7343416Y-12995960D02*
X7352939Y-12986436D01*
X7352939Y-12986436D02*
X7352939Y-13005484D01*
X7486273Y-12805484D02*
X7505320Y-12805484D01*
X7505320Y-12805484D02*
X7524368Y-12815008D01*
X7524368Y-12815008D02*
X7533892Y-12824531D01*
X7533892Y-12824531D02*
X7543416Y-12843579D01*
X7543416Y-12843579D02*
X7552939Y-12881674D01*
X7552939Y-12881674D02*
X7552939Y-12929293D01*
X7552939Y-12929293D02*
X7543416Y-12967388D01*
X7543416Y-12967388D02*
X7533892Y-12986436D01*
X7533892Y-12986436D02*
X7524368Y-12995960D01*
X7524368Y-12995960D02*
X7505320Y-13005484D01*
X7505320Y-13005484D02*
X7486273Y-13005484D01*
X7486273Y-13005484D02*
X7467225Y-12995960D01*
X7467225Y-12995960D02*
X7457701Y-12986436D01*
X7457701Y-12986436D02*
X7448177Y-12967388D01*
X7448177Y-12967388D02*
X7438654Y-12929293D01*
X7438654Y-12929293D02*
X7438654Y-12881674D01*
X7438654Y-12881674D02*
X7448177Y-12843579D01*
X7448177Y-12843579D02*
X7457701Y-12824531D01*
X7457701Y-12824531D02*
X7467225Y-12815008D01*
X7467225Y-12815008D02*
X7486273Y-12805484D01*
X7743416Y-13005484D02*
X7629130Y-13005484D01*
X7686273Y-13005484D02*
X7686273Y-12805484D01*
X7686273Y-12805484D02*
X7667225Y-12834055D01*
X7667225Y-12834055D02*
X7648177Y-12853103D01*
X7648177Y-12853103D02*
X7629130Y-12862627D01*
X7810082Y-12805484D02*
X7933892Y-12805484D01*
X7933892Y-12805484D02*
X7867225Y-12881674D01*
X7867225Y-12881674D02*
X7895797Y-12881674D01*
X7895797Y-12881674D02*
X7914844Y-12891198D01*
X7914844Y-12891198D02*
X7924368Y-12900722D01*
X7924368Y-12900722D02*
X7933892Y-12919769D01*
X7933892Y-12919769D02*
X7933892Y-12967388D01*
X7933892Y-12967388D02*
X7924368Y-12986436D01*
X7924368Y-12986436D02*
X7914844Y-12995960D01*
X7914844Y-12995960D02*
X7895797Y-13005484D01*
X7895797Y-13005484D02*
X7838654Y-13005484D01*
X7838654Y-13005484D02*
X7819606Y-12995960D01*
X7819606Y-12995960D02*
X7810082Y-12986436D01*
X8048177Y-12891198D02*
X8029130Y-12881674D01*
X8029130Y-12881674D02*
X8019606Y-12872150D01*
X8019606Y-12872150D02*
X8010082Y-12853103D01*
X8010082Y-12853103D02*
X8010082Y-12843579D01*
X8010082Y-12843579D02*
X8019606Y-12824531D01*
X8019606Y-12824531D02*
X8029130Y-12815008D01*
X8029130Y-12815008D02*
X8048177Y-12805484D01*
X8048177Y-12805484D02*
X8086273Y-12805484D01*
X8086273Y-12805484D02*
X8105320Y-12815008D01*
X8105320Y-12815008D02*
X8114844Y-12824531D01*
X8114844Y-12824531D02*
X8124368Y-12843579D01*
X8124368Y-12843579D02*
X8124368Y-12853103D01*
X8124368Y-12853103D02*
X8114844Y-12872150D01*
X8114844Y-12872150D02*
X8105320Y-12881674D01*
X8105320Y-12881674D02*
X8086273Y-12891198D01*
X8086273Y-12891198D02*
X8048177Y-12891198D01*
X8048177Y-12891198D02*
X8029130Y-12900722D01*
X8029130Y-12900722D02*
X8019606Y-12910246D01*
X8019606Y-12910246D02*
X8010082Y-12929293D01*
X8010082Y-12929293D02*
X8010082Y-12967388D01*
X8010082Y-12967388D02*
X8019606Y-12986436D01*
X8019606Y-12986436D02*
X8029130Y-12995960D01*
X8029130Y-12995960D02*
X8048177Y-13005484D01*
X8048177Y-13005484D02*
X8086273Y-13005484D01*
X8086273Y-13005484D02*
X8105320Y-12995960D01*
X8105320Y-12995960D02*
X8114844Y-12986436D01*
X8114844Y-12986436D02*
X8124368Y-12967388D01*
X8124368Y-12967388D02*
X8124368Y-12929293D01*
X8124368Y-12929293D02*
X8114844Y-12910246D01*
X8114844Y-12910246D02*
X8105320Y-12900722D01*
X8105320Y-12900722D02*
X8086273Y-12891198D01*
X8200558Y-12805484D02*
X8200558Y-12843579D01*
X8276749Y-12805484D02*
X8276749Y-12843579D01*
X8571987Y-13081674D02*
X8562463Y-13072150D01*
X8562463Y-13072150D02*
X8543416Y-13043579D01*
X8543416Y-13043579D02*
X8533892Y-13024531D01*
X8533892Y-13024531D02*
X8524368Y-12995960D01*
X8524368Y-12995960D02*
X8514844Y-12948341D01*
X8514844Y-12948341D02*
X8514844Y-12910246D01*
X8514844Y-12910246D02*
X8524368Y-12862627D01*
X8524368Y-12862627D02*
X8533892Y-12834055D01*
X8533892Y-12834055D02*
X8543416Y-12815008D01*
X8543416Y-12815008D02*
X8562463Y-12786436D01*
X8562463Y-12786436D02*
X8571987Y-12776912D01*
X8629130Y-12805484D02*
X8752940Y-12805484D01*
X8752940Y-12805484D02*
X8686273Y-12881674D01*
X8686273Y-12881674D02*
X8714844Y-12881674D01*
X8714844Y-12881674D02*
X8733892Y-12891198D01*
X8733892Y-12891198D02*
X8743416Y-12900722D01*
X8743416Y-12900722D02*
X8752940Y-12919769D01*
X8752940Y-12919769D02*
X8752940Y-12967388D01*
X8752940Y-12967388D02*
X8743416Y-12986436D01*
X8743416Y-12986436D02*
X8733892Y-12995960D01*
X8733892Y-12995960D02*
X8714844Y-13005484D01*
X8714844Y-13005484D02*
X8657701Y-13005484D01*
X8657701Y-13005484D02*
X8638654Y-12995960D01*
X8638654Y-12995960D02*
X8629130Y-12986436D01*
X8876749Y-12805484D02*
X8895797Y-12805484D01*
X8895797Y-12805484D02*
X8914844Y-12815008D01*
X8914844Y-12815008D02*
X8924368Y-12824531D01*
X8924368Y-12824531D02*
X8933892Y-12843579D01*
X8933892Y-12843579D02*
X8943416Y-12881674D01*
X8943416Y-12881674D02*
X8943416Y-12929293D01*
X8943416Y-12929293D02*
X8933892Y-12967388D01*
X8933892Y-12967388D02*
X8924368Y-12986436D01*
X8924368Y-12986436D02*
X8914844Y-12995960D01*
X8914844Y-12995960D02*
X8895797Y-13005484D01*
X8895797Y-13005484D02*
X8876749Y-13005484D01*
X8876749Y-13005484D02*
X8857701Y-12995960D01*
X8857701Y-12995960D02*
X8848178Y-12986436D01*
X8848178Y-12986436D02*
X8838654Y-12967388D01*
X8838654Y-12967388D02*
X8829130Y-12929293D01*
X8829130Y-12929293D02*
X8829130Y-12881674D01*
X8829130Y-12881674D02*
X8838654Y-12843579D01*
X8838654Y-12843579D02*
X8848178Y-12824531D01*
X8848178Y-12824531D02*
X8857701Y-12815008D01*
X8857701Y-12815008D02*
X8876749Y-12805484D01*
X9181511Y-13005484D02*
X9181511Y-12805484D01*
X9267225Y-13005484D02*
X9267225Y-12900722D01*
X9267225Y-12900722D02*
X9257702Y-12881674D01*
X9257702Y-12881674D02*
X9238654Y-12872150D01*
X9238654Y-12872150D02*
X9210082Y-12872150D01*
X9210082Y-12872150D02*
X9191035Y-12881674D01*
X9191035Y-12881674D02*
X9181511Y-12891198D01*
X9391035Y-13005484D02*
X9371987Y-12995960D01*
X9371987Y-12995960D02*
X9362463Y-12986436D01*
X9362463Y-12986436D02*
X9352940Y-12967388D01*
X9352940Y-12967388D02*
X9352940Y-12910246D01*
X9352940Y-12910246D02*
X9362463Y-12891198D01*
X9362463Y-12891198D02*
X9371987Y-12881674D01*
X9371987Y-12881674D02*
X9391035Y-12872150D01*
X9391035Y-12872150D02*
X9419606Y-12872150D01*
X9419606Y-12872150D02*
X9438654Y-12881674D01*
X9438654Y-12881674D02*
X9448178Y-12891198D01*
X9448178Y-12891198D02*
X9457702Y-12910246D01*
X9457702Y-12910246D02*
X9457702Y-12967388D01*
X9457702Y-12967388D02*
X9448178Y-12986436D01*
X9448178Y-12986436D02*
X9438654Y-12995960D01*
X9438654Y-12995960D02*
X9419606Y-13005484D01*
X9419606Y-13005484D02*
X9391035Y-13005484D01*
X9571987Y-13005484D02*
X9552940Y-12995960D01*
X9552940Y-12995960D02*
X9543416Y-12976912D01*
X9543416Y-12976912D02*
X9543416Y-12805484D01*
X9724368Y-12995960D02*
X9705321Y-13005484D01*
X9705321Y-13005484D02*
X9667225Y-13005484D01*
X9667225Y-13005484D02*
X9648178Y-12995960D01*
X9648178Y-12995960D02*
X9638654Y-12976912D01*
X9638654Y-12976912D02*
X9638654Y-12900722D01*
X9638654Y-12900722D02*
X9648178Y-12881674D01*
X9648178Y-12881674D02*
X9667225Y-12872150D01*
X9667225Y-12872150D02*
X9705321Y-12872150D01*
X9705321Y-12872150D02*
X9724368Y-12881674D01*
X9724368Y-12881674D02*
X9733892Y-12900722D01*
X9733892Y-12900722D02*
X9733892Y-12919769D01*
X9733892Y-12919769D02*
X9638654Y-12938817D01*
X9810083Y-12995960D02*
X9829130Y-13005484D01*
X9829130Y-13005484D02*
X9867225Y-13005484D01*
X9867225Y-13005484D02*
X9886273Y-12995960D01*
X9886273Y-12995960D02*
X9895797Y-12976912D01*
X9895797Y-12976912D02*
X9895797Y-12967388D01*
X9895797Y-12967388D02*
X9886273Y-12948341D01*
X9886273Y-12948341D02*
X9867225Y-12938817D01*
X9867225Y-12938817D02*
X9838654Y-12938817D01*
X9838654Y-12938817D02*
X9819606Y-12929293D01*
X9819606Y-12929293D02*
X9810083Y-12910246D01*
X9810083Y-12910246D02*
X9810083Y-12900722D01*
X9810083Y-12900722D02*
X9819606Y-12881674D01*
X9819606Y-12881674D02*
X9838654Y-12872150D01*
X9838654Y-12872150D02*
X9867225Y-12872150D01*
X9867225Y-12872150D02*
X9886273Y-12881674D01*
X9962464Y-13081674D02*
X9971987Y-13072150D01*
X9971987Y-13072150D02*
X9991035Y-13043579D01*
X9991035Y-13043579D02*
X10000559Y-13024531D01*
X10000559Y-13024531D02*
X10010083Y-12995960D01*
X10010083Y-12995960D02*
X10019606Y-12948341D01*
X10019606Y-12948341D02*
X10019606Y-12910246D01*
X10019606Y-12910246D02*
X10010083Y-12862627D01*
X10010083Y-12862627D02*
X10000559Y-12834055D01*
X10000559Y-12834055D02*
X9991035Y-12815008D01*
X9991035Y-12815008D02*
X9971987Y-12786436D01*
X9971987Y-12786436D02*
X9962464Y-12776912D01*
D11*
X4976924Y-13158000D02*
X4976924Y-13198000D01*
X4956924Y-13178000D02*
X4996924Y-13178000D01*
D10*
X5295796Y-13069484D02*
X5314844Y-13069484D01*
X5314844Y-13069484D02*
X5333892Y-13079008D01*
X5333892Y-13079008D02*
X5343415Y-13088531D01*
X5343415Y-13088531D02*
X5352939Y-13107579D01*
X5352939Y-13107579D02*
X5362463Y-13145674D01*
X5362463Y-13145674D02*
X5362463Y-13193293D01*
X5362463Y-13193293D02*
X5352939Y-13231388D01*
X5352939Y-13231388D02*
X5343415Y-13250436D01*
X5343415Y-13250436D02*
X5333892Y-13259960D01*
X5333892Y-13259960D02*
X5314844Y-13269484D01*
X5314844Y-13269484D02*
X5295796Y-13269484D01*
X5295796Y-13269484D02*
X5276749Y-13259960D01*
X5276749Y-13259960D02*
X5267225Y-13250436D01*
X5267225Y-13250436D02*
X5257701Y-13231388D01*
X5257701Y-13231388D02*
X5248177Y-13193293D01*
X5248177Y-13193293D02*
X5248177Y-13145674D01*
X5248177Y-13145674D02*
X5257701Y-13107579D01*
X5257701Y-13107579D02*
X5267225Y-13088531D01*
X5267225Y-13088531D02*
X5276749Y-13079008D01*
X5276749Y-13079008D02*
X5295796Y-13069484D01*
X5448177Y-13250436D02*
X5457701Y-13259960D01*
X5457701Y-13259960D02*
X5448177Y-13269484D01*
X5448177Y-13269484D02*
X5438654Y-13259960D01*
X5438654Y-13259960D02*
X5448177Y-13250436D01*
X5448177Y-13250436D02*
X5448177Y-13269484D01*
X5629130Y-13136150D02*
X5629130Y-13269484D01*
X5581511Y-13059960D02*
X5533892Y-13202817D01*
X5533892Y-13202817D02*
X5657701Y-13202817D01*
X5771987Y-13069484D02*
X5791034Y-13069484D01*
X5791034Y-13069484D02*
X5810082Y-13079008D01*
X5810082Y-13079008D02*
X5819606Y-13088531D01*
X5819606Y-13088531D02*
X5829130Y-13107579D01*
X5829130Y-13107579D02*
X5838653Y-13145674D01*
X5838653Y-13145674D02*
X5838653Y-13193293D01*
X5838653Y-13193293D02*
X5829130Y-13231388D01*
X5829130Y-13231388D02*
X5819606Y-13250436D01*
X5819606Y-13250436D02*
X5810082Y-13259960D01*
X5810082Y-13259960D02*
X5791034Y-13269484D01*
X5791034Y-13269484D02*
X5771987Y-13269484D01*
X5771987Y-13269484D02*
X5752939Y-13259960D01*
X5752939Y-13259960D02*
X5743415Y-13250436D01*
X5743415Y-13250436D02*
X5733892Y-13231388D01*
X5733892Y-13231388D02*
X5724368Y-13193293D01*
X5724368Y-13193293D02*
X5724368Y-13145674D01*
X5724368Y-13145674D02*
X5733892Y-13107579D01*
X5733892Y-13107579D02*
X5743415Y-13088531D01*
X5743415Y-13088531D02*
X5752939Y-13079008D01*
X5752939Y-13079008D02*
X5771987Y-13069484D01*
X5962463Y-13069484D02*
X5981511Y-13069484D01*
X5981511Y-13069484D02*
X6000558Y-13079008D01*
X6000558Y-13079008D02*
X6010082Y-13088531D01*
X6010082Y-13088531D02*
X6019606Y-13107579D01*
X6019606Y-13107579D02*
X6029130Y-13145674D01*
X6029130Y-13145674D02*
X6029130Y-13193293D01*
X6029130Y-13193293D02*
X6019606Y-13231388D01*
X6019606Y-13231388D02*
X6010082Y-13250436D01*
X6010082Y-13250436D02*
X6000558Y-13259960D01*
X6000558Y-13259960D02*
X5981511Y-13269484D01*
X5981511Y-13269484D02*
X5962463Y-13269484D01*
X5962463Y-13269484D02*
X5943415Y-13259960D01*
X5943415Y-13259960D02*
X5933892Y-13250436D01*
X5933892Y-13250436D02*
X5924368Y-13231388D01*
X5924368Y-13231388D02*
X5914844Y-13193293D01*
X5914844Y-13193293D02*
X5914844Y-13145674D01*
X5914844Y-13145674D02*
X5924368Y-13107579D01*
X5924368Y-13107579D02*
X5933892Y-13088531D01*
X5933892Y-13088531D02*
X5943415Y-13079008D01*
X5943415Y-13079008D02*
X5962463Y-13069484D01*
X6114844Y-13269484D02*
X6114844Y-13136150D01*
X6114844Y-13155198D02*
X6124368Y-13145674D01*
X6124368Y-13145674D02*
X6143415Y-13136150D01*
X6143415Y-13136150D02*
X6171987Y-13136150D01*
X6171987Y-13136150D02*
X6191034Y-13145674D01*
X6191034Y-13145674D02*
X6200558Y-13164722D01*
X6200558Y-13164722D02*
X6200558Y-13269484D01*
X6200558Y-13164722D02*
X6210082Y-13145674D01*
X6210082Y-13145674D02*
X6229130Y-13136150D01*
X6229130Y-13136150D02*
X6257701Y-13136150D01*
X6257701Y-13136150D02*
X6276749Y-13145674D01*
X6276749Y-13145674D02*
X6286273Y-13164722D01*
X6286273Y-13164722D02*
X6286273Y-13269484D01*
X6381511Y-13269484D02*
X6381511Y-13136150D01*
X6381511Y-13155198D02*
X6391034Y-13145674D01*
X6391034Y-13145674D02*
X6410082Y-13136150D01*
X6410082Y-13136150D02*
X6438654Y-13136150D01*
X6438654Y-13136150D02*
X6457701Y-13145674D01*
X6457701Y-13145674D02*
X6467225Y-13164722D01*
X6467225Y-13164722D02*
X6467225Y-13269484D01*
X6467225Y-13164722D02*
X6476749Y-13145674D01*
X6476749Y-13145674D02*
X6495796Y-13136150D01*
X6495796Y-13136150D02*
X6524368Y-13136150D01*
X6524368Y-13136150D02*
X6543415Y-13145674D01*
X6543415Y-13145674D02*
X6552939Y-13164722D01*
X6552939Y-13164722D02*
X6552939Y-13269484D01*
X6943415Y-13059960D02*
X6771987Y-13317103D01*
X7200558Y-13069484D02*
X7219606Y-13069484D01*
X7219606Y-13069484D02*
X7238654Y-13079008D01*
X7238654Y-13079008D02*
X7248177Y-13088531D01*
X7248177Y-13088531D02*
X7257701Y-13107579D01*
X7257701Y-13107579D02*
X7267225Y-13145674D01*
X7267225Y-13145674D02*
X7267225Y-13193293D01*
X7267225Y-13193293D02*
X7257701Y-13231388D01*
X7257701Y-13231388D02*
X7248177Y-13250436D01*
X7248177Y-13250436D02*
X7238654Y-13259960D01*
X7238654Y-13259960D02*
X7219606Y-13269484D01*
X7219606Y-13269484D02*
X7200558Y-13269484D01*
X7200558Y-13269484D02*
X7181511Y-13259960D01*
X7181511Y-13259960D02*
X7171987Y-13250436D01*
X7171987Y-13250436D02*
X7162463Y-13231388D01*
X7162463Y-13231388D02*
X7152939Y-13193293D01*
X7152939Y-13193293D02*
X7152939Y-13145674D01*
X7152939Y-13145674D02*
X7162463Y-13107579D01*
X7162463Y-13107579D02*
X7171987Y-13088531D01*
X7171987Y-13088531D02*
X7181511Y-13079008D01*
X7181511Y-13079008D02*
X7200558Y-13069484D01*
X7352939Y-13250436D02*
X7362463Y-13259960D01*
X7362463Y-13259960D02*
X7352939Y-13269484D01*
X7352939Y-13269484D02*
X7343416Y-13259960D01*
X7343416Y-13259960D02*
X7352939Y-13250436D01*
X7352939Y-13250436D02*
X7352939Y-13269484D01*
X7486273Y-13069484D02*
X7505320Y-13069484D01*
X7505320Y-13069484D02*
X7524368Y-13079008D01*
X7524368Y-13079008D02*
X7533892Y-13088531D01*
X7533892Y-13088531D02*
X7543416Y-13107579D01*
X7543416Y-13107579D02*
X7552939Y-13145674D01*
X7552939Y-13145674D02*
X7552939Y-13193293D01*
X7552939Y-13193293D02*
X7543416Y-13231388D01*
X7543416Y-13231388D02*
X7533892Y-13250436D01*
X7533892Y-13250436D02*
X7524368Y-13259960D01*
X7524368Y-13259960D02*
X7505320Y-13269484D01*
X7505320Y-13269484D02*
X7486273Y-13269484D01*
X7486273Y-13269484D02*
X7467225Y-13259960D01*
X7467225Y-13259960D02*
X7457701Y-13250436D01*
X7457701Y-13250436D02*
X7448177Y-13231388D01*
X7448177Y-13231388D02*
X7438654Y-13193293D01*
X7438654Y-13193293D02*
X7438654Y-13145674D01*
X7438654Y-13145674D02*
X7448177Y-13107579D01*
X7448177Y-13107579D02*
X7457701Y-13088531D01*
X7457701Y-13088531D02*
X7467225Y-13079008D01*
X7467225Y-13079008D02*
X7486273Y-13069484D01*
X7743416Y-13269484D02*
X7629130Y-13269484D01*
X7686273Y-13269484D02*
X7686273Y-13069484D01*
X7686273Y-13069484D02*
X7667225Y-13098055D01*
X7667225Y-13098055D02*
X7648177Y-13117103D01*
X7648177Y-13117103D02*
X7629130Y-13126627D01*
X7924368Y-13069484D02*
X7829130Y-13069484D01*
X7829130Y-13069484D02*
X7819606Y-13164722D01*
X7819606Y-13164722D02*
X7829130Y-13155198D01*
X7829130Y-13155198D02*
X7848177Y-13145674D01*
X7848177Y-13145674D02*
X7895797Y-13145674D01*
X7895797Y-13145674D02*
X7914844Y-13155198D01*
X7914844Y-13155198D02*
X7924368Y-13164722D01*
X7924368Y-13164722D02*
X7933892Y-13183769D01*
X7933892Y-13183769D02*
X7933892Y-13231388D01*
X7933892Y-13231388D02*
X7924368Y-13250436D01*
X7924368Y-13250436D02*
X7914844Y-13259960D01*
X7914844Y-13259960D02*
X7895797Y-13269484D01*
X7895797Y-13269484D02*
X7848177Y-13269484D01*
X7848177Y-13269484D02*
X7829130Y-13259960D01*
X7829130Y-13259960D02*
X7819606Y-13250436D01*
X8000558Y-13069484D02*
X8133892Y-13069484D01*
X8133892Y-13069484D02*
X8048177Y-13269484D01*
X8200558Y-13069484D02*
X8200558Y-13107579D01*
X8276749Y-13069484D02*
X8276749Y-13107579D01*
X8571987Y-13345674D02*
X8562463Y-13336150D01*
X8562463Y-13336150D02*
X8543416Y-13307579D01*
X8543416Y-13307579D02*
X8533892Y-13288531D01*
X8533892Y-13288531D02*
X8524368Y-13259960D01*
X8524368Y-13259960D02*
X8514844Y-13212341D01*
X8514844Y-13212341D02*
X8514844Y-13174246D01*
X8514844Y-13174246D02*
X8524368Y-13126627D01*
X8524368Y-13126627D02*
X8533892Y-13098055D01*
X8533892Y-13098055D02*
X8543416Y-13079008D01*
X8543416Y-13079008D02*
X8562463Y-13050436D01*
X8562463Y-13050436D02*
X8571987Y-13040912D01*
X8638654Y-13088531D02*
X8648178Y-13079008D01*
X8648178Y-13079008D02*
X8667225Y-13069484D01*
X8667225Y-13069484D02*
X8714844Y-13069484D01*
X8714844Y-13069484D02*
X8733892Y-13079008D01*
X8733892Y-13079008D02*
X8743416Y-13088531D01*
X8743416Y-13088531D02*
X8752940Y-13107579D01*
X8752940Y-13107579D02*
X8752940Y-13126627D01*
X8752940Y-13126627D02*
X8743416Y-13155198D01*
X8743416Y-13155198D02*
X8629130Y-13269484D01*
X8629130Y-13269484D02*
X8752940Y-13269484D01*
X8924368Y-13069484D02*
X8886273Y-13069484D01*
X8886273Y-13069484D02*
X8867225Y-13079008D01*
X8867225Y-13079008D02*
X8857701Y-13088531D01*
X8857701Y-13088531D02*
X8838654Y-13117103D01*
X8838654Y-13117103D02*
X8829130Y-13155198D01*
X8829130Y-13155198D02*
X8829130Y-13231388D01*
X8829130Y-13231388D02*
X8838654Y-13250436D01*
X8838654Y-13250436D02*
X8848178Y-13259960D01*
X8848178Y-13259960D02*
X8867225Y-13269484D01*
X8867225Y-13269484D02*
X8905321Y-13269484D01*
X8905321Y-13269484D02*
X8924368Y-13259960D01*
X8924368Y-13259960D02*
X8933892Y-13250436D01*
X8933892Y-13250436D02*
X8943416Y-13231388D01*
X8943416Y-13231388D02*
X8943416Y-13183769D01*
X8943416Y-13183769D02*
X8933892Y-13164722D01*
X8933892Y-13164722D02*
X8924368Y-13155198D01*
X8924368Y-13155198D02*
X8905321Y-13145674D01*
X8905321Y-13145674D02*
X8867225Y-13145674D01*
X8867225Y-13145674D02*
X8848178Y-13155198D01*
X8848178Y-13155198D02*
X8838654Y-13164722D01*
X8838654Y-13164722D02*
X8829130Y-13183769D01*
X9181511Y-13269484D02*
X9181511Y-13069484D01*
X9267225Y-13269484D02*
X9267225Y-13164722D01*
X9267225Y-13164722D02*
X9257702Y-13145674D01*
X9257702Y-13145674D02*
X9238654Y-13136150D01*
X9238654Y-13136150D02*
X9210082Y-13136150D01*
X9210082Y-13136150D02*
X9191035Y-13145674D01*
X9191035Y-13145674D02*
X9181511Y-13155198D01*
X9391035Y-13269484D02*
X9371987Y-13259960D01*
X9371987Y-13259960D02*
X9362463Y-13250436D01*
X9362463Y-13250436D02*
X9352940Y-13231388D01*
X9352940Y-13231388D02*
X9352940Y-13174246D01*
X9352940Y-13174246D02*
X9362463Y-13155198D01*
X9362463Y-13155198D02*
X9371987Y-13145674D01*
X9371987Y-13145674D02*
X9391035Y-13136150D01*
X9391035Y-13136150D02*
X9419606Y-13136150D01*
X9419606Y-13136150D02*
X9438654Y-13145674D01*
X9438654Y-13145674D02*
X9448178Y-13155198D01*
X9448178Y-13155198D02*
X9457702Y-13174246D01*
X9457702Y-13174246D02*
X9457702Y-13231388D01*
X9457702Y-13231388D02*
X9448178Y-13250436D01*
X9448178Y-13250436D02*
X9438654Y-13259960D01*
X9438654Y-13259960D02*
X9419606Y-13269484D01*
X9419606Y-13269484D02*
X9391035Y-13269484D01*
X9571987Y-13269484D02*
X9552940Y-13259960D01*
X9552940Y-13259960D02*
X9543416Y-13240912D01*
X9543416Y-13240912D02*
X9543416Y-13069484D01*
X9724368Y-13259960D02*
X9705321Y-13269484D01*
X9705321Y-13269484D02*
X9667225Y-13269484D01*
X9667225Y-13269484D02*
X9648178Y-13259960D01*
X9648178Y-13259960D02*
X9638654Y-13240912D01*
X9638654Y-13240912D02*
X9638654Y-13164722D01*
X9638654Y-13164722D02*
X9648178Y-13145674D01*
X9648178Y-13145674D02*
X9667225Y-13136150D01*
X9667225Y-13136150D02*
X9705321Y-13136150D01*
X9705321Y-13136150D02*
X9724368Y-13145674D01*
X9724368Y-13145674D02*
X9733892Y-13164722D01*
X9733892Y-13164722D02*
X9733892Y-13183769D01*
X9733892Y-13183769D02*
X9638654Y-13202817D01*
X9810083Y-13259960D02*
X9829130Y-13269484D01*
X9829130Y-13269484D02*
X9867225Y-13269484D01*
X9867225Y-13269484D02*
X9886273Y-13259960D01*
X9886273Y-13259960D02*
X9895797Y-13240912D01*
X9895797Y-13240912D02*
X9895797Y-13231388D01*
X9895797Y-13231388D02*
X9886273Y-13212341D01*
X9886273Y-13212341D02*
X9867225Y-13202817D01*
X9867225Y-13202817D02*
X9838654Y-13202817D01*
X9838654Y-13202817D02*
X9819606Y-13193293D01*
X9819606Y-13193293D02*
X9810083Y-13174246D01*
X9810083Y-13174246D02*
X9810083Y-13164722D01*
X9810083Y-13164722D02*
X9819606Y-13145674D01*
X9819606Y-13145674D02*
X9838654Y-13136150D01*
X9838654Y-13136150D02*
X9867225Y-13136150D01*
X9867225Y-13136150D02*
X9886273Y-13145674D01*
X9962464Y-13345674D02*
X9971987Y-13336150D01*
X9971987Y-13336150D02*
X9991035Y-13307579D01*
X9991035Y-13307579D02*
X10000559Y-13288531D01*
X10000559Y-13288531D02*
X10010083Y-13259960D01*
X10010083Y-13259960D02*
X10019606Y-13212341D01*
X10019606Y-13212341D02*
X10019606Y-13174246D01*
X10019606Y-13174246D02*
X10010083Y-13126627D01*
X10010083Y-13126627D02*
X10000559Y-13098055D01*
X10000559Y-13098055D02*
X9991035Y-13079008D01*
X9991035Y-13079008D02*
X9971987Y-13050436D01*
X9971987Y-13050436D02*
X9962464Y-13040912D01*
D11*
X4989602Y-13459678D02*
X4989602Y-13424322D01*
X4954247Y-13424322D01*
X4954247Y-13459678D01*
X4989602Y-13459678D01*
D10*
X5295796Y-13333484D02*
X5314844Y-13333484D01*
X5314844Y-13333484D02*
X5333892Y-13343008D01*
X5333892Y-13343008D02*
X5343415Y-13352531D01*
X5343415Y-13352531D02*
X5352939Y-13371579D01*
X5352939Y-13371579D02*
X5362463Y-13409674D01*
X5362463Y-13409674D02*
X5362463Y-13457293D01*
X5362463Y-13457293D02*
X5352939Y-13495388D01*
X5352939Y-13495388D02*
X5343415Y-13514436D01*
X5343415Y-13514436D02*
X5333892Y-13523960D01*
X5333892Y-13523960D02*
X5314844Y-13533484D01*
X5314844Y-13533484D02*
X5295796Y-13533484D01*
X5295796Y-13533484D02*
X5276749Y-13523960D01*
X5276749Y-13523960D02*
X5267225Y-13514436D01*
X5267225Y-13514436D02*
X5257701Y-13495388D01*
X5257701Y-13495388D02*
X5248177Y-13457293D01*
X5248177Y-13457293D02*
X5248177Y-13409674D01*
X5248177Y-13409674D02*
X5257701Y-13371579D01*
X5257701Y-13371579D02*
X5267225Y-13352531D01*
X5267225Y-13352531D02*
X5276749Y-13343008D01*
X5276749Y-13343008D02*
X5295796Y-13333484D01*
X5448177Y-13514436D02*
X5457701Y-13523960D01*
X5457701Y-13523960D02*
X5448177Y-13533484D01*
X5448177Y-13533484D02*
X5438654Y-13523960D01*
X5438654Y-13523960D02*
X5448177Y-13514436D01*
X5448177Y-13514436D02*
X5448177Y-13533484D01*
X5638653Y-13333484D02*
X5543415Y-13333484D01*
X5543415Y-13333484D02*
X5533892Y-13428722D01*
X5533892Y-13428722D02*
X5543415Y-13419198D01*
X5543415Y-13419198D02*
X5562463Y-13409674D01*
X5562463Y-13409674D02*
X5610082Y-13409674D01*
X5610082Y-13409674D02*
X5629130Y-13419198D01*
X5629130Y-13419198D02*
X5638653Y-13428722D01*
X5638653Y-13428722D02*
X5648177Y-13447769D01*
X5648177Y-13447769D02*
X5648177Y-13495388D01*
X5648177Y-13495388D02*
X5638653Y-13514436D01*
X5638653Y-13514436D02*
X5629130Y-13523960D01*
X5629130Y-13523960D02*
X5610082Y-13533484D01*
X5610082Y-13533484D02*
X5562463Y-13533484D01*
X5562463Y-13533484D02*
X5543415Y-13523960D01*
X5543415Y-13523960D02*
X5533892Y-13514436D01*
X5771987Y-13333484D02*
X5791034Y-13333484D01*
X5791034Y-13333484D02*
X5810082Y-13343008D01*
X5810082Y-13343008D02*
X5819606Y-13352531D01*
X5819606Y-13352531D02*
X5829130Y-13371579D01*
X5829130Y-13371579D02*
X5838653Y-13409674D01*
X5838653Y-13409674D02*
X5838653Y-13457293D01*
X5838653Y-13457293D02*
X5829130Y-13495388D01*
X5829130Y-13495388D02*
X5819606Y-13514436D01*
X5819606Y-13514436D02*
X5810082Y-13523960D01*
X5810082Y-13523960D02*
X5791034Y-13533484D01*
X5791034Y-13533484D02*
X5771987Y-13533484D01*
X5771987Y-13533484D02*
X5752939Y-13523960D01*
X5752939Y-13523960D02*
X5743415Y-13514436D01*
X5743415Y-13514436D02*
X5733892Y-13495388D01*
X5733892Y-13495388D02*
X5724368Y-13457293D01*
X5724368Y-13457293D02*
X5724368Y-13409674D01*
X5724368Y-13409674D02*
X5733892Y-13371579D01*
X5733892Y-13371579D02*
X5743415Y-13352531D01*
X5743415Y-13352531D02*
X5752939Y-13343008D01*
X5752939Y-13343008D02*
X5771987Y-13333484D01*
X5962463Y-13333484D02*
X5981511Y-13333484D01*
X5981511Y-13333484D02*
X6000558Y-13343008D01*
X6000558Y-13343008D02*
X6010082Y-13352531D01*
X6010082Y-13352531D02*
X6019606Y-13371579D01*
X6019606Y-13371579D02*
X6029130Y-13409674D01*
X6029130Y-13409674D02*
X6029130Y-13457293D01*
X6029130Y-13457293D02*
X6019606Y-13495388D01*
X6019606Y-13495388D02*
X6010082Y-13514436D01*
X6010082Y-13514436D02*
X6000558Y-13523960D01*
X6000558Y-13523960D02*
X5981511Y-13533484D01*
X5981511Y-13533484D02*
X5962463Y-13533484D01*
X5962463Y-13533484D02*
X5943415Y-13523960D01*
X5943415Y-13523960D02*
X5933892Y-13514436D01*
X5933892Y-13514436D02*
X5924368Y-13495388D01*
X5924368Y-13495388D02*
X5914844Y-13457293D01*
X5914844Y-13457293D02*
X5914844Y-13409674D01*
X5914844Y-13409674D02*
X5924368Y-13371579D01*
X5924368Y-13371579D02*
X5933892Y-13352531D01*
X5933892Y-13352531D02*
X5943415Y-13343008D01*
X5943415Y-13343008D02*
X5962463Y-13333484D01*
X6114844Y-13533484D02*
X6114844Y-13400150D01*
X6114844Y-13419198D02*
X6124368Y-13409674D01*
X6124368Y-13409674D02*
X6143415Y-13400150D01*
X6143415Y-13400150D02*
X6171987Y-13400150D01*
X6171987Y-13400150D02*
X6191034Y-13409674D01*
X6191034Y-13409674D02*
X6200558Y-13428722D01*
X6200558Y-13428722D02*
X6200558Y-13533484D01*
X6200558Y-13428722D02*
X6210082Y-13409674D01*
X6210082Y-13409674D02*
X6229130Y-13400150D01*
X6229130Y-13400150D02*
X6257701Y-13400150D01*
X6257701Y-13400150D02*
X6276749Y-13409674D01*
X6276749Y-13409674D02*
X6286273Y-13428722D01*
X6286273Y-13428722D02*
X6286273Y-13533484D01*
X6381511Y-13533484D02*
X6381511Y-13400150D01*
X6381511Y-13419198D02*
X6391034Y-13409674D01*
X6391034Y-13409674D02*
X6410082Y-13400150D01*
X6410082Y-13400150D02*
X6438654Y-13400150D01*
X6438654Y-13400150D02*
X6457701Y-13409674D01*
X6457701Y-13409674D02*
X6467225Y-13428722D01*
X6467225Y-13428722D02*
X6467225Y-13533484D01*
X6467225Y-13428722D02*
X6476749Y-13409674D01*
X6476749Y-13409674D02*
X6495796Y-13400150D01*
X6495796Y-13400150D02*
X6524368Y-13400150D01*
X6524368Y-13400150D02*
X6543415Y-13409674D01*
X6543415Y-13409674D02*
X6552939Y-13428722D01*
X6552939Y-13428722D02*
X6552939Y-13533484D01*
X6943415Y-13323960D02*
X6771987Y-13581103D01*
X7200558Y-13333484D02*
X7219606Y-13333484D01*
X7219606Y-13333484D02*
X7238654Y-13343008D01*
X7238654Y-13343008D02*
X7248177Y-13352531D01*
X7248177Y-13352531D02*
X7257701Y-13371579D01*
X7257701Y-13371579D02*
X7267225Y-13409674D01*
X7267225Y-13409674D02*
X7267225Y-13457293D01*
X7267225Y-13457293D02*
X7257701Y-13495388D01*
X7257701Y-13495388D02*
X7248177Y-13514436D01*
X7248177Y-13514436D02*
X7238654Y-13523960D01*
X7238654Y-13523960D02*
X7219606Y-13533484D01*
X7219606Y-13533484D02*
X7200558Y-13533484D01*
X7200558Y-13533484D02*
X7181511Y-13523960D01*
X7181511Y-13523960D02*
X7171987Y-13514436D01*
X7171987Y-13514436D02*
X7162463Y-13495388D01*
X7162463Y-13495388D02*
X7152939Y-13457293D01*
X7152939Y-13457293D02*
X7152939Y-13409674D01*
X7152939Y-13409674D02*
X7162463Y-13371579D01*
X7162463Y-13371579D02*
X7171987Y-13352531D01*
X7171987Y-13352531D02*
X7181511Y-13343008D01*
X7181511Y-13343008D02*
X7200558Y-13333484D01*
X7352939Y-13514436D02*
X7362463Y-13523960D01*
X7362463Y-13523960D02*
X7352939Y-13533484D01*
X7352939Y-13533484D02*
X7343416Y-13523960D01*
X7343416Y-13523960D02*
X7352939Y-13514436D01*
X7352939Y-13514436D02*
X7352939Y-13533484D01*
X7486273Y-13333484D02*
X7505320Y-13333484D01*
X7505320Y-13333484D02*
X7524368Y-13343008D01*
X7524368Y-13343008D02*
X7533892Y-13352531D01*
X7533892Y-13352531D02*
X7543416Y-13371579D01*
X7543416Y-13371579D02*
X7552939Y-13409674D01*
X7552939Y-13409674D02*
X7552939Y-13457293D01*
X7552939Y-13457293D02*
X7543416Y-13495388D01*
X7543416Y-13495388D02*
X7533892Y-13514436D01*
X7533892Y-13514436D02*
X7524368Y-13523960D01*
X7524368Y-13523960D02*
X7505320Y-13533484D01*
X7505320Y-13533484D02*
X7486273Y-13533484D01*
X7486273Y-13533484D02*
X7467225Y-13523960D01*
X7467225Y-13523960D02*
X7457701Y-13514436D01*
X7457701Y-13514436D02*
X7448177Y-13495388D01*
X7448177Y-13495388D02*
X7438654Y-13457293D01*
X7438654Y-13457293D02*
X7438654Y-13409674D01*
X7438654Y-13409674D02*
X7448177Y-13371579D01*
X7448177Y-13371579D02*
X7457701Y-13352531D01*
X7457701Y-13352531D02*
X7467225Y-13343008D01*
X7467225Y-13343008D02*
X7486273Y-13333484D01*
X7743416Y-13533484D02*
X7629130Y-13533484D01*
X7686273Y-13533484D02*
X7686273Y-13333484D01*
X7686273Y-13333484D02*
X7667225Y-13362055D01*
X7667225Y-13362055D02*
X7648177Y-13381103D01*
X7648177Y-13381103D02*
X7629130Y-13390627D01*
X7838654Y-13533484D02*
X7876749Y-13533484D01*
X7876749Y-13533484D02*
X7895797Y-13523960D01*
X7895797Y-13523960D02*
X7905320Y-13514436D01*
X7905320Y-13514436D02*
X7924368Y-13485865D01*
X7924368Y-13485865D02*
X7933892Y-13447769D01*
X7933892Y-13447769D02*
X7933892Y-13371579D01*
X7933892Y-13371579D02*
X7924368Y-13352531D01*
X7924368Y-13352531D02*
X7914844Y-13343008D01*
X7914844Y-13343008D02*
X7895797Y-13333484D01*
X7895797Y-13333484D02*
X7857701Y-13333484D01*
X7857701Y-13333484D02*
X7838654Y-13343008D01*
X7838654Y-13343008D02*
X7829130Y-13352531D01*
X7829130Y-13352531D02*
X7819606Y-13371579D01*
X7819606Y-13371579D02*
X7819606Y-13419198D01*
X7819606Y-13419198D02*
X7829130Y-13438246D01*
X7829130Y-13438246D02*
X7838654Y-13447769D01*
X7838654Y-13447769D02*
X7857701Y-13457293D01*
X7857701Y-13457293D02*
X7895797Y-13457293D01*
X7895797Y-13457293D02*
X7914844Y-13447769D01*
X7914844Y-13447769D02*
X7924368Y-13438246D01*
X7924368Y-13438246D02*
X7933892Y-13419198D01*
X8000558Y-13333484D02*
X8133892Y-13333484D01*
X8133892Y-13333484D02*
X8048177Y-13533484D01*
X8200558Y-13333484D02*
X8200558Y-13371579D01*
X8276749Y-13333484D02*
X8276749Y-13371579D01*
X8571987Y-13609674D02*
X8562463Y-13600150D01*
X8562463Y-13600150D02*
X8543416Y-13571579D01*
X8543416Y-13571579D02*
X8533892Y-13552531D01*
X8533892Y-13552531D02*
X8524368Y-13523960D01*
X8524368Y-13523960D02*
X8514844Y-13476341D01*
X8514844Y-13476341D02*
X8514844Y-13438246D01*
X8514844Y-13438246D02*
X8524368Y-13390627D01*
X8524368Y-13390627D02*
X8533892Y-13362055D01*
X8533892Y-13362055D02*
X8543416Y-13343008D01*
X8543416Y-13343008D02*
X8562463Y-13314436D01*
X8562463Y-13314436D02*
X8571987Y-13304912D01*
X8743416Y-13333484D02*
X8648178Y-13333484D01*
X8648178Y-13333484D02*
X8638654Y-13428722D01*
X8638654Y-13428722D02*
X8648178Y-13419198D01*
X8648178Y-13419198D02*
X8667225Y-13409674D01*
X8667225Y-13409674D02*
X8714844Y-13409674D01*
X8714844Y-13409674D02*
X8733892Y-13419198D01*
X8733892Y-13419198D02*
X8743416Y-13428722D01*
X8743416Y-13428722D02*
X8752940Y-13447769D01*
X8752940Y-13447769D02*
X8752940Y-13495388D01*
X8752940Y-13495388D02*
X8743416Y-13514436D01*
X8743416Y-13514436D02*
X8733892Y-13523960D01*
X8733892Y-13523960D02*
X8714844Y-13533484D01*
X8714844Y-13533484D02*
X8667225Y-13533484D01*
X8667225Y-13533484D02*
X8648178Y-13523960D01*
X8648178Y-13523960D02*
X8638654Y-13514436D01*
X8991035Y-13533484D02*
X8991035Y-13333484D01*
X9076749Y-13533484D02*
X9076749Y-13428722D01*
X9076749Y-13428722D02*
X9067225Y-13409674D01*
X9067225Y-13409674D02*
X9048178Y-13400150D01*
X9048178Y-13400150D02*
X9019606Y-13400150D01*
X9019606Y-13400150D02*
X9000559Y-13409674D01*
X9000559Y-13409674D02*
X8991035Y-13419198D01*
X9200559Y-13533484D02*
X9181511Y-13523960D01*
X9181511Y-13523960D02*
X9171987Y-13514436D01*
X9171987Y-13514436D02*
X9162463Y-13495388D01*
X9162463Y-13495388D02*
X9162463Y-13438246D01*
X9162463Y-13438246D02*
X9171987Y-13419198D01*
X9171987Y-13419198D02*
X9181511Y-13409674D01*
X9181511Y-13409674D02*
X9200559Y-13400150D01*
X9200559Y-13400150D02*
X9229130Y-13400150D01*
X9229130Y-13400150D02*
X9248178Y-13409674D01*
X9248178Y-13409674D02*
X9257702Y-13419198D01*
X9257702Y-13419198D02*
X9267225Y-13438246D01*
X9267225Y-13438246D02*
X9267225Y-13495388D01*
X9267225Y-13495388D02*
X9257702Y-13514436D01*
X9257702Y-13514436D02*
X9248178Y-13523960D01*
X9248178Y-13523960D02*
X9229130Y-13533484D01*
X9229130Y-13533484D02*
X9200559Y-13533484D01*
X9381511Y-13533484D02*
X9362463Y-13523960D01*
X9362463Y-13523960D02*
X9352940Y-13504912D01*
X9352940Y-13504912D02*
X9352940Y-13333484D01*
X9533892Y-13523960D02*
X9514844Y-13533484D01*
X9514844Y-13533484D02*
X9476749Y-13533484D01*
X9476749Y-13533484D02*
X9457702Y-13523960D01*
X9457702Y-13523960D02*
X9448178Y-13504912D01*
X9448178Y-13504912D02*
X9448178Y-13428722D01*
X9448178Y-13428722D02*
X9457702Y-13409674D01*
X9457702Y-13409674D02*
X9476749Y-13400150D01*
X9476749Y-13400150D02*
X9514844Y-13400150D01*
X9514844Y-13400150D02*
X9533892Y-13409674D01*
X9533892Y-13409674D02*
X9543416Y-13428722D01*
X9543416Y-13428722D02*
X9543416Y-13447769D01*
X9543416Y-13447769D02*
X9448178Y-13466817D01*
X9619606Y-13523960D02*
X9638654Y-13533484D01*
X9638654Y-13533484D02*
X9676749Y-13533484D01*
X9676749Y-13533484D02*
X9695797Y-13523960D01*
X9695797Y-13523960D02*
X9705321Y-13504912D01*
X9705321Y-13504912D02*
X9705321Y-13495388D01*
X9705321Y-13495388D02*
X9695797Y-13476341D01*
X9695797Y-13476341D02*
X9676749Y-13466817D01*
X9676749Y-13466817D02*
X9648178Y-13466817D01*
X9648178Y-13466817D02*
X9629130Y-13457293D01*
X9629130Y-13457293D02*
X9619606Y-13438246D01*
X9619606Y-13438246D02*
X9619606Y-13428722D01*
X9619606Y-13428722D02*
X9629130Y-13409674D01*
X9629130Y-13409674D02*
X9648178Y-13400150D01*
X9648178Y-13400150D02*
X9676749Y-13400150D01*
X9676749Y-13400150D02*
X9695797Y-13409674D01*
X9771987Y-13609674D02*
X9781511Y-13600150D01*
X9781511Y-13600150D02*
X9800559Y-13571579D01*
X9800559Y-13571579D02*
X9810083Y-13552531D01*
X9810083Y-13552531D02*
X9819606Y-13523960D01*
X9819606Y-13523960D02*
X9829130Y-13476341D01*
X9829130Y-13476341D02*
X9829130Y-13438246D01*
X9829130Y-13438246D02*
X9819606Y-13390627D01*
X9819606Y-13390627D02*
X9810083Y-13362055D01*
X9810083Y-13362055D02*
X9800559Y-13343008D01*
X9800559Y-13343008D02*
X9781511Y-13314436D01*
X9781511Y-13314436D02*
X9771987Y-13304912D01*
D11*
X4946924Y-13756000D02*
X4996924Y-13706000D01*
X4946924Y-13656000D01*
X4896924Y-13706000D01*
X4946924Y-13756000D01*
D10*
X5362463Y-13797484D02*
X5248177Y-13797484D01*
X5305320Y-13797484D02*
X5305320Y-13597484D01*
X5305320Y-13597484D02*
X5286273Y-13626055D01*
X5286273Y-13626055D02*
X5267225Y-13645103D01*
X5267225Y-13645103D02*
X5248177Y-13654627D01*
X5448177Y-13778436D02*
X5457701Y-13787960D01*
X5457701Y-13787960D02*
X5448177Y-13797484D01*
X5448177Y-13797484D02*
X5438654Y-13787960D01*
X5438654Y-13787960D02*
X5448177Y-13778436D01*
X5448177Y-13778436D02*
X5448177Y-13797484D01*
X5581511Y-13597484D02*
X5600558Y-13597484D01*
X5600558Y-13597484D02*
X5619606Y-13607008D01*
X5619606Y-13607008D02*
X5629130Y-13616531D01*
X5629130Y-13616531D02*
X5638653Y-13635579D01*
X5638653Y-13635579D02*
X5648177Y-13673674D01*
X5648177Y-13673674D02*
X5648177Y-13721293D01*
X5648177Y-13721293D02*
X5638653Y-13759388D01*
X5638653Y-13759388D02*
X5629130Y-13778436D01*
X5629130Y-13778436D02*
X5619606Y-13787960D01*
X5619606Y-13787960D02*
X5600558Y-13797484D01*
X5600558Y-13797484D02*
X5581511Y-13797484D01*
X5581511Y-13797484D02*
X5562463Y-13787960D01*
X5562463Y-13787960D02*
X5552939Y-13778436D01*
X5552939Y-13778436D02*
X5543415Y-13759388D01*
X5543415Y-13759388D02*
X5533892Y-13721293D01*
X5533892Y-13721293D02*
X5533892Y-13673674D01*
X5533892Y-13673674D02*
X5543415Y-13635579D01*
X5543415Y-13635579D02*
X5552939Y-13616531D01*
X5552939Y-13616531D02*
X5562463Y-13607008D01*
X5562463Y-13607008D02*
X5581511Y-13597484D01*
X5771987Y-13597484D02*
X5791034Y-13597484D01*
X5791034Y-13597484D02*
X5810082Y-13607008D01*
X5810082Y-13607008D02*
X5819606Y-13616531D01*
X5819606Y-13616531D02*
X5829130Y-13635579D01*
X5829130Y-13635579D02*
X5838653Y-13673674D01*
X5838653Y-13673674D02*
X5838653Y-13721293D01*
X5838653Y-13721293D02*
X5829130Y-13759388D01*
X5829130Y-13759388D02*
X5819606Y-13778436D01*
X5819606Y-13778436D02*
X5810082Y-13787960D01*
X5810082Y-13787960D02*
X5791034Y-13797484D01*
X5791034Y-13797484D02*
X5771987Y-13797484D01*
X5771987Y-13797484D02*
X5752939Y-13787960D01*
X5752939Y-13787960D02*
X5743415Y-13778436D01*
X5743415Y-13778436D02*
X5733892Y-13759388D01*
X5733892Y-13759388D02*
X5724368Y-13721293D01*
X5724368Y-13721293D02*
X5724368Y-13673674D01*
X5724368Y-13673674D02*
X5733892Y-13635579D01*
X5733892Y-13635579D02*
X5743415Y-13616531D01*
X5743415Y-13616531D02*
X5752939Y-13607008D01*
X5752939Y-13607008D02*
X5771987Y-13597484D01*
X5962463Y-13597484D02*
X5981511Y-13597484D01*
X5981511Y-13597484D02*
X6000558Y-13607008D01*
X6000558Y-13607008D02*
X6010082Y-13616531D01*
X6010082Y-13616531D02*
X6019606Y-13635579D01*
X6019606Y-13635579D02*
X6029130Y-13673674D01*
X6029130Y-13673674D02*
X6029130Y-13721293D01*
X6029130Y-13721293D02*
X6019606Y-13759388D01*
X6019606Y-13759388D02*
X6010082Y-13778436D01*
X6010082Y-13778436D02*
X6000558Y-13787960D01*
X6000558Y-13787960D02*
X5981511Y-13797484D01*
X5981511Y-13797484D02*
X5962463Y-13797484D01*
X5962463Y-13797484D02*
X5943415Y-13787960D01*
X5943415Y-13787960D02*
X5933892Y-13778436D01*
X5933892Y-13778436D02*
X5924368Y-13759388D01*
X5924368Y-13759388D02*
X5914844Y-13721293D01*
X5914844Y-13721293D02*
X5914844Y-13673674D01*
X5914844Y-13673674D02*
X5924368Y-13635579D01*
X5924368Y-13635579D02*
X5933892Y-13616531D01*
X5933892Y-13616531D02*
X5943415Y-13607008D01*
X5943415Y-13607008D02*
X5962463Y-13597484D01*
X6114844Y-13797484D02*
X6114844Y-13664150D01*
X6114844Y-13683198D02*
X6124368Y-13673674D01*
X6124368Y-13673674D02*
X6143415Y-13664150D01*
X6143415Y-13664150D02*
X6171987Y-13664150D01*
X6171987Y-13664150D02*
X6191034Y-13673674D01*
X6191034Y-13673674D02*
X6200558Y-13692722D01*
X6200558Y-13692722D02*
X6200558Y-13797484D01*
X6200558Y-13692722D02*
X6210082Y-13673674D01*
X6210082Y-13673674D02*
X6229130Y-13664150D01*
X6229130Y-13664150D02*
X6257701Y-13664150D01*
X6257701Y-13664150D02*
X6276749Y-13673674D01*
X6276749Y-13673674D02*
X6286273Y-13692722D01*
X6286273Y-13692722D02*
X6286273Y-13797484D01*
X6381511Y-13797484D02*
X6381511Y-13664150D01*
X6381511Y-13683198D02*
X6391034Y-13673674D01*
X6391034Y-13673674D02*
X6410082Y-13664150D01*
X6410082Y-13664150D02*
X6438654Y-13664150D01*
X6438654Y-13664150D02*
X6457701Y-13673674D01*
X6457701Y-13673674D02*
X6467225Y-13692722D01*
X6467225Y-13692722D02*
X6467225Y-13797484D01*
X6467225Y-13692722D02*
X6476749Y-13673674D01*
X6476749Y-13673674D02*
X6495796Y-13664150D01*
X6495796Y-13664150D02*
X6524368Y-13664150D01*
X6524368Y-13664150D02*
X6543415Y-13673674D01*
X6543415Y-13673674D02*
X6552939Y-13692722D01*
X6552939Y-13692722D02*
X6552939Y-13797484D01*
X6943415Y-13587960D02*
X6771987Y-13845103D01*
X7200558Y-13597484D02*
X7219606Y-13597484D01*
X7219606Y-13597484D02*
X7238654Y-13607008D01*
X7238654Y-13607008D02*
X7248177Y-13616531D01*
X7248177Y-13616531D02*
X7257701Y-13635579D01*
X7257701Y-13635579D02*
X7267225Y-13673674D01*
X7267225Y-13673674D02*
X7267225Y-13721293D01*
X7267225Y-13721293D02*
X7257701Y-13759388D01*
X7257701Y-13759388D02*
X7248177Y-13778436D01*
X7248177Y-13778436D02*
X7238654Y-13787960D01*
X7238654Y-13787960D02*
X7219606Y-13797484D01*
X7219606Y-13797484D02*
X7200558Y-13797484D01*
X7200558Y-13797484D02*
X7181511Y-13787960D01*
X7181511Y-13787960D02*
X7171987Y-13778436D01*
X7171987Y-13778436D02*
X7162463Y-13759388D01*
X7162463Y-13759388D02*
X7152939Y-13721293D01*
X7152939Y-13721293D02*
X7152939Y-13673674D01*
X7152939Y-13673674D02*
X7162463Y-13635579D01*
X7162463Y-13635579D02*
X7171987Y-13616531D01*
X7171987Y-13616531D02*
X7181511Y-13607008D01*
X7181511Y-13607008D02*
X7200558Y-13597484D01*
X7352939Y-13778436D02*
X7362463Y-13787960D01*
X7362463Y-13787960D02*
X7352939Y-13797484D01*
X7352939Y-13797484D02*
X7343416Y-13787960D01*
X7343416Y-13787960D02*
X7352939Y-13778436D01*
X7352939Y-13778436D02*
X7352939Y-13797484D01*
X7486273Y-13597484D02*
X7505320Y-13597484D01*
X7505320Y-13597484D02*
X7524368Y-13607008D01*
X7524368Y-13607008D02*
X7533892Y-13616531D01*
X7533892Y-13616531D02*
X7543416Y-13635579D01*
X7543416Y-13635579D02*
X7552939Y-13673674D01*
X7552939Y-13673674D02*
X7552939Y-13721293D01*
X7552939Y-13721293D02*
X7543416Y-13759388D01*
X7543416Y-13759388D02*
X7533892Y-13778436D01*
X7533892Y-13778436D02*
X7524368Y-13787960D01*
X7524368Y-13787960D02*
X7505320Y-13797484D01*
X7505320Y-13797484D02*
X7486273Y-13797484D01*
X7486273Y-13797484D02*
X7467225Y-13787960D01*
X7467225Y-13787960D02*
X7457701Y-13778436D01*
X7457701Y-13778436D02*
X7448177Y-13759388D01*
X7448177Y-13759388D02*
X7438654Y-13721293D01*
X7438654Y-13721293D02*
X7438654Y-13673674D01*
X7438654Y-13673674D02*
X7448177Y-13635579D01*
X7448177Y-13635579D02*
X7457701Y-13616531D01*
X7457701Y-13616531D02*
X7467225Y-13607008D01*
X7467225Y-13607008D02*
X7486273Y-13597484D01*
X7619606Y-13597484D02*
X7743416Y-13597484D01*
X7743416Y-13597484D02*
X7676749Y-13673674D01*
X7676749Y-13673674D02*
X7705320Y-13673674D01*
X7705320Y-13673674D02*
X7724368Y-13683198D01*
X7724368Y-13683198D02*
X7733892Y-13692722D01*
X7733892Y-13692722D02*
X7743416Y-13711769D01*
X7743416Y-13711769D02*
X7743416Y-13759388D01*
X7743416Y-13759388D02*
X7733892Y-13778436D01*
X7733892Y-13778436D02*
X7724368Y-13787960D01*
X7724368Y-13787960D02*
X7705320Y-13797484D01*
X7705320Y-13797484D02*
X7648177Y-13797484D01*
X7648177Y-13797484D02*
X7629130Y-13787960D01*
X7629130Y-13787960D02*
X7619606Y-13778436D01*
X7838654Y-13797484D02*
X7876749Y-13797484D01*
X7876749Y-13797484D02*
X7895797Y-13787960D01*
X7895797Y-13787960D02*
X7905320Y-13778436D01*
X7905320Y-13778436D02*
X7924368Y-13749865D01*
X7924368Y-13749865D02*
X7933892Y-13711769D01*
X7933892Y-13711769D02*
X7933892Y-13635579D01*
X7933892Y-13635579D02*
X7924368Y-13616531D01*
X7924368Y-13616531D02*
X7914844Y-13607008D01*
X7914844Y-13607008D02*
X7895797Y-13597484D01*
X7895797Y-13597484D02*
X7857701Y-13597484D01*
X7857701Y-13597484D02*
X7838654Y-13607008D01*
X7838654Y-13607008D02*
X7829130Y-13616531D01*
X7829130Y-13616531D02*
X7819606Y-13635579D01*
X7819606Y-13635579D02*
X7819606Y-13683198D01*
X7819606Y-13683198D02*
X7829130Y-13702246D01*
X7829130Y-13702246D02*
X7838654Y-13711769D01*
X7838654Y-13711769D02*
X7857701Y-13721293D01*
X7857701Y-13721293D02*
X7895797Y-13721293D01*
X7895797Y-13721293D02*
X7914844Y-13711769D01*
X7914844Y-13711769D02*
X7924368Y-13702246D01*
X7924368Y-13702246D02*
X7933892Y-13683198D01*
X8105320Y-13664150D02*
X8105320Y-13797484D01*
X8057701Y-13587960D02*
X8010082Y-13730817D01*
X8010082Y-13730817D02*
X8133892Y-13730817D01*
X8200558Y-13597484D02*
X8200558Y-13635579D01*
X8276749Y-13597484D02*
X8276749Y-13635579D01*
X8571987Y-13873674D02*
X8562463Y-13864150D01*
X8562463Y-13864150D02*
X8543416Y-13835579D01*
X8543416Y-13835579D02*
X8533892Y-13816531D01*
X8533892Y-13816531D02*
X8524368Y-13787960D01*
X8524368Y-13787960D02*
X8514844Y-13740341D01*
X8514844Y-13740341D02*
X8514844Y-13702246D01*
X8514844Y-13702246D02*
X8524368Y-13654627D01*
X8524368Y-13654627D02*
X8533892Y-13626055D01*
X8533892Y-13626055D02*
X8543416Y-13607008D01*
X8543416Y-13607008D02*
X8562463Y-13578436D01*
X8562463Y-13578436D02*
X8571987Y-13568912D01*
X8733892Y-13597484D02*
X8695797Y-13597484D01*
X8695797Y-13597484D02*
X8676749Y-13607008D01*
X8676749Y-13607008D02*
X8667225Y-13616531D01*
X8667225Y-13616531D02*
X8648178Y-13645103D01*
X8648178Y-13645103D02*
X8638654Y-13683198D01*
X8638654Y-13683198D02*
X8638654Y-13759388D01*
X8638654Y-13759388D02*
X8648178Y-13778436D01*
X8648178Y-13778436D02*
X8657701Y-13787960D01*
X8657701Y-13787960D02*
X8676749Y-13797484D01*
X8676749Y-13797484D02*
X8714844Y-13797484D01*
X8714844Y-13797484D02*
X8733892Y-13787960D01*
X8733892Y-13787960D02*
X8743416Y-13778436D01*
X8743416Y-13778436D02*
X8752940Y-13759388D01*
X8752940Y-13759388D02*
X8752940Y-13711769D01*
X8752940Y-13711769D02*
X8743416Y-13692722D01*
X8743416Y-13692722D02*
X8733892Y-13683198D01*
X8733892Y-13683198D02*
X8714844Y-13673674D01*
X8714844Y-13673674D02*
X8676749Y-13673674D01*
X8676749Y-13673674D02*
X8657701Y-13683198D01*
X8657701Y-13683198D02*
X8648178Y-13692722D01*
X8648178Y-13692722D02*
X8638654Y-13711769D01*
X8991035Y-13797484D02*
X8991035Y-13597484D01*
X9076749Y-13797484D02*
X9076749Y-13692722D01*
X9076749Y-13692722D02*
X9067225Y-13673674D01*
X9067225Y-13673674D02*
X9048178Y-13664150D01*
X9048178Y-13664150D02*
X9019606Y-13664150D01*
X9019606Y-13664150D02*
X9000559Y-13673674D01*
X9000559Y-13673674D02*
X8991035Y-13683198D01*
X9200559Y-13797484D02*
X9181511Y-13787960D01*
X9181511Y-13787960D02*
X9171987Y-13778436D01*
X9171987Y-13778436D02*
X9162463Y-13759388D01*
X9162463Y-13759388D02*
X9162463Y-13702246D01*
X9162463Y-13702246D02*
X9171987Y-13683198D01*
X9171987Y-13683198D02*
X9181511Y-13673674D01*
X9181511Y-13673674D02*
X9200559Y-13664150D01*
X9200559Y-13664150D02*
X9229130Y-13664150D01*
X9229130Y-13664150D02*
X9248178Y-13673674D01*
X9248178Y-13673674D02*
X9257702Y-13683198D01*
X9257702Y-13683198D02*
X9267225Y-13702246D01*
X9267225Y-13702246D02*
X9267225Y-13759388D01*
X9267225Y-13759388D02*
X9257702Y-13778436D01*
X9257702Y-13778436D02*
X9248178Y-13787960D01*
X9248178Y-13787960D02*
X9229130Y-13797484D01*
X9229130Y-13797484D02*
X9200559Y-13797484D01*
X9381511Y-13797484D02*
X9362463Y-13787960D01*
X9362463Y-13787960D02*
X9352940Y-13768912D01*
X9352940Y-13768912D02*
X9352940Y-13597484D01*
X9533892Y-13787960D02*
X9514844Y-13797484D01*
X9514844Y-13797484D02*
X9476749Y-13797484D01*
X9476749Y-13797484D02*
X9457702Y-13787960D01*
X9457702Y-13787960D02*
X9448178Y-13768912D01*
X9448178Y-13768912D02*
X9448178Y-13692722D01*
X9448178Y-13692722D02*
X9457702Y-13673674D01*
X9457702Y-13673674D02*
X9476749Y-13664150D01*
X9476749Y-13664150D02*
X9514844Y-13664150D01*
X9514844Y-13664150D02*
X9533892Y-13673674D01*
X9533892Y-13673674D02*
X9543416Y-13692722D01*
X9543416Y-13692722D02*
X9543416Y-13711769D01*
X9543416Y-13711769D02*
X9448178Y-13730817D01*
X9619606Y-13787960D02*
X9638654Y-13797484D01*
X9638654Y-13797484D02*
X9676749Y-13797484D01*
X9676749Y-13797484D02*
X9695797Y-13787960D01*
X9695797Y-13787960D02*
X9705321Y-13768912D01*
X9705321Y-13768912D02*
X9705321Y-13759388D01*
X9705321Y-13759388D02*
X9695797Y-13740341D01*
X9695797Y-13740341D02*
X9676749Y-13730817D01*
X9676749Y-13730817D02*
X9648178Y-13730817D01*
X9648178Y-13730817D02*
X9629130Y-13721293D01*
X9629130Y-13721293D02*
X9619606Y-13702246D01*
X9619606Y-13702246D02*
X9619606Y-13692722D01*
X9619606Y-13692722D02*
X9629130Y-13673674D01*
X9629130Y-13673674D02*
X9648178Y-13664150D01*
X9648178Y-13664150D02*
X9676749Y-13664150D01*
X9676749Y-13664150D02*
X9695797Y-13673674D01*
X9771987Y-13873674D02*
X9781511Y-13864150D01*
X9781511Y-13864150D02*
X9800559Y-13835579D01*
X9800559Y-13835579D02*
X9810083Y-13816531D01*
X9810083Y-13816531D02*
X9819606Y-13787960D01*
X9819606Y-13787960D02*
X9829130Y-13740341D01*
X9829130Y-13740341D02*
X9829130Y-13702246D01*
X9829130Y-13702246D02*
X9819606Y-13654627D01*
X9819606Y-13654627D02*
X9810083Y-13626055D01*
X9810083Y-13626055D02*
X9800559Y-13607008D01*
X9800559Y-13607008D02*
X9781511Y-13578436D01*
X9781511Y-13578436D02*
X9771987Y-13568912D01*
D12*
X4886924Y-13915000D02*
X4996924Y-14025000D01*
X4996924Y-13915000D02*
X4886924Y-14025000D01*
X4996924Y-13970000D02*
G75*
G02*
X4886924Y-13970000I-55000J0D01*
G01*
X4886924Y-13970000D02*
G75*
G02*
X4996924Y-13970000I55000J0D01*
G01*
D10*
X5362463Y-14061484D02*
X5248177Y-14061484D01*
X5305320Y-14061484D02*
X5305320Y-13861484D01*
X5305320Y-13861484D02*
X5286273Y-13890055D01*
X5286273Y-13890055D02*
X5267225Y-13909103D01*
X5267225Y-13909103D02*
X5248177Y-13918627D01*
X5448177Y-14042436D02*
X5457701Y-14051960D01*
X5457701Y-14051960D02*
X5448177Y-14061484D01*
X5448177Y-14061484D02*
X5438654Y-14051960D01*
X5438654Y-14051960D02*
X5448177Y-14042436D01*
X5448177Y-14042436D02*
X5448177Y-14061484D01*
X5648177Y-14061484D02*
X5533892Y-14061484D01*
X5591034Y-14061484D02*
X5591034Y-13861484D01*
X5591034Y-13861484D02*
X5571987Y-13890055D01*
X5571987Y-13890055D02*
X5552939Y-13909103D01*
X5552939Y-13909103D02*
X5533892Y-13918627D01*
X5771987Y-13861484D02*
X5791034Y-13861484D01*
X5791034Y-13861484D02*
X5810082Y-13871008D01*
X5810082Y-13871008D02*
X5819606Y-13880531D01*
X5819606Y-13880531D02*
X5829130Y-13899579D01*
X5829130Y-13899579D02*
X5838653Y-13937674D01*
X5838653Y-13937674D02*
X5838653Y-13985293D01*
X5838653Y-13985293D02*
X5829130Y-14023388D01*
X5829130Y-14023388D02*
X5819606Y-14042436D01*
X5819606Y-14042436D02*
X5810082Y-14051960D01*
X5810082Y-14051960D02*
X5791034Y-14061484D01*
X5791034Y-14061484D02*
X5771987Y-14061484D01*
X5771987Y-14061484D02*
X5752939Y-14051960D01*
X5752939Y-14051960D02*
X5743415Y-14042436D01*
X5743415Y-14042436D02*
X5733892Y-14023388D01*
X5733892Y-14023388D02*
X5724368Y-13985293D01*
X5724368Y-13985293D02*
X5724368Y-13937674D01*
X5724368Y-13937674D02*
X5733892Y-13899579D01*
X5733892Y-13899579D02*
X5743415Y-13880531D01*
X5743415Y-13880531D02*
X5752939Y-13871008D01*
X5752939Y-13871008D02*
X5771987Y-13861484D01*
X5962463Y-13861484D02*
X5981511Y-13861484D01*
X5981511Y-13861484D02*
X6000558Y-13871008D01*
X6000558Y-13871008D02*
X6010082Y-13880531D01*
X6010082Y-13880531D02*
X6019606Y-13899579D01*
X6019606Y-13899579D02*
X6029130Y-13937674D01*
X6029130Y-13937674D02*
X6029130Y-13985293D01*
X6029130Y-13985293D02*
X6019606Y-14023388D01*
X6019606Y-14023388D02*
X6010082Y-14042436D01*
X6010082Y-14042436D02*
X6000558Y-14051960D01*
X6000558Y-14051960D02*
X5981511Y-14061484D01*
X5981511Y-14061484D02*
X5962463Y-14061484D01*
X5962463Y-14061484D02*
X5943415Y-14051960D01*
X5943415Y-14051960D02*
X5933892Y-14042436D01*
X5933892Y-14042436D02*
X5924368Y-14023388D01*
X5924368Y-14023388D02*
X5914844Y-13985293D01*
X5914844Y-13985293D02*
X5914844Y-13937674D01*
X5914844Y-13937674D02*
X5924368Y-13899579D01*
X5924368Y-13899579D02*
X5933892Y-13880531D01*
X5933892Y-13880531D02*
X5943415Y-13871008D01*
X5943415Y-13871008D02*
X5962463Y-13861484D01*
X6114844Y-14061484D02*
X6114844Y-13928150D01*
X6114844Y-13947198D02*
X6124368Y-13937674D01*
X6124368Y-13937674D02*
X6143415Y-13928150D01*
X6143415Y-13928150D02*
X6171987Y-13928150D01*
X6171987Y-13928150D02*
X6191034Y-13937674D01*
X6191034Y-13937674D02*
X6200558Y-13956722D01*
X6200558Y-13956722D02*
X6200558Y-14061484D01*
X6200558Y-13956722D02*
X6210082Y-13937674D01*
X6210082Y-13937674D02*
X6229130Y-13928150D01*
X6229130Y-13928150D02*
X6257701Y-13928150D01*
X6257701Y-13928150D02*
X6276749Y-13937674D01*
X6276749Y-13937674D02*
X6286273Y-13956722D01*
X6286273Y-13956722D02*
X6286273Y-14061484D01*
X6381511Y-14061484D02*
X6381511Y-13928150D01*
X6381511Y-13947198D02*
X6391034Y-13937674D01*
X6391034Y-13937674D02*
X6410082Y-13928150D01*
X6410082Y-13928150D02*
X6438654Y-13928150D01*
X6438654Y-13928150D02*
X6457701Y-13937674D01*
X6457701Y-13937674D02*
X6467225Y-13956722D01*
X6467225Y-13956722D02*
X6467225Y-14061484D01*
X6467225Y-13956722D02*
X6476749Y-13937674D01*
X6476749Y-13937674D02*
X6495796Y-13928150D01*
X6495796Y-13928150D02*
X6524368Y-13928150D01*
X6524368Y-13928150D02*
X6543415Y-13937674D01*
X6543415Y-13937674D02*
X6552939Y-13956722D01*
X6552939Y-13956722D02*
X6552939Y-14061484D01*
X6943415Y-13851960D02*
X6771987Y-14109103D01*
X7200558Y-13861484D02*
X7219606Y-13861484D01*
X7219606Y-13861484D02*
X7238654Y-13871008D01*
X7238654Y-13871008D02*
X7248177Y-13880531D01*
X7248177Y-13880531D02*
X7257701Y-13899579D01*
X7257701Y-13899579D02*
X7267225Y-13937674D01*
X7267225Y-13937674D02*
X7267225Y-13985293D01*
X7267225Y-13985293D02*
X7257701Y-14023388D01*
X7257701Y-14023388D02*
X7248177Y-14042436D01*
X7248177Y-14042436D02*
X7238654Y-14051960D01*
X7238654Y-14051960D02*
X7219606Y-14061484D01*
X7219606Y-14061484D02*
X7200558Y-14061484D01*
X7200558Y-14061484D02*
X7181511Y-14051960D01*
X7181511Y-14051960D02*
X7171987Y-14042436D01*
X7171987Y-14042436D02*
X7162463Y-14023388D01*
X7162463Y-14023388D02*
X7152939Y-13985293D01*
X7152939Y-13985293D02*
X7152939Y-13937674D01*
X7152939Y-13937674D02*
X7162463Y-13899579D01*
X7162463Y-13899579D02*
X7171987Y-13880531D01*
X7171987Y-13880531D02*
X7181511Y-13871008D01*
X7181511Y-13871008D02*
X7200558Y-13861484D01*
X7352939Y-14042436D02*
X7362463Y-14051960D01*
X7362463Y-14051960D02*
X7352939Y-14061484D01*
X7352939Y-14061484D02*
X7343416Y-14051960D01*
X7343416Y-14051960D02*
X7352939Y-14042436D01*
X7352939Y-14042436D02*
X7352939Y-14061484D01*
X7486273Y-13861484D02*
X7505320Y-13861484D01*
X7505320Y-13861484D02*
X7524368Y-13871008D01*
X7524368Y-13871008D02*
X7533892Y-13880531D01*
X7533892Y-13880531D02*
X7543416Y-13899579D01*
X7543416Y-13899579D02*
X7552939Y-13937674D01*
X7552939Y-13937674D02*
X7552939Y-13985293D01*
X7552939Y-13985293D02*
X7543416Y-14023388D01*
X7543416Y-14023388D02*
X7533892Y-14042436D01*
X7533892Y-14042436D02*
X7524368Y-14051960D01*
X7524368Y-14051960D02*
X7505320Y-14061484D01*
X7505320Y-14061484D02*
X7486273Y-14061484D01*
X7486273Y-14061484D02*
X7467225Y-14051960D01*
X7467225Y-14051960D02*
X7457701Y-14042436D01*
X7457701Y-14042436D02*
X7448177Y-14023388D01*
X7448177Y-14023388D02*
X7438654Y-13985293D01*
X7438654Y-13985293D02*
X7438654Y-13937674D01*
X7438654Y-13937674D02*
X7448177Y-13899579D01*
X7448177Y-13899579D02*
X7457701Y-13880531D01*
X7457701Y-13880531D02*
X7467225Y-13871008D01*
X7467225Y-13871008D02*
X7486273Y-13861484D01*
X7724368Y-13928150D02*
X7724368Y-14061484D01*
X7676749Y-13851960D02*
X7629130Y-13994817D01*
X7629130Y-13994817D02*
X7752939Y-13994817D01*
X7810082Y-13861484D02*
X7933892Y-13861484D01*
X7933892Y-13861484D02*
X7867225Y-13937674D01*
X7867225Y-13937674D02*
X7895797Y-13937674D01*
X7895797Y-13937674D02*
X7914844Y-13947198D01*
X7914844Y-13947198D02*
X7924368Y-13956722D01*
X7924368Y-13956722D02*
X7933892Y-13975769D01*
X7933892Y-13975769D02*
X7933892Y-14023388D01*
X7933892Y-14023388D02*
X7924368Y-14042436D01*
X7924368Y-14042436D02*
X7914844Y-14051960D01*
X7914844Y-14051960D02*
X7895797Y-14061484D01*
X7895797Y-14061484D02*
X7838654Y-14061484D01*
X7838654Y-14061484D02*
X7819606Y-14051960D01*
X7819606Y-14051960D02*
X7810082Y-14042436D01*
X8000558Y-13861484D02*
X8124368Y-13861484D01*
X8124368Y-13861484D02*
X8057701Y-13937674D01*
X8057701Y-13937674D02*
X8086273Y-13937674D01*
X8086273Y-13937674D02*
X8105320Y-13947198D01*
X8105320Y-13947198D02*
X8114844Y-13956722D01*
X8114844Y-13956722D02*
X8124368Y-13975769D01*
X8124368Y-13975769D02*
X8124368Y-14023388D01*
X8124368Y-14023388D02*
X8114844Y-14042436D01*
X8114844Y-14042436D02*
X8105320Y-14051960D01*
X8105320Y-14051960D02*
X8086273Y-14061484D01*
X8086273Y-14061484D02*
X8029130Y-14061484D01*
X8029130Y-14061484D02*
X8010082Y-14051960D01*
X8010082Y-14051960D02*
X8000558Y-14042436D01*
X8200558Y-13861484D02*
X8200558Y-13899579D01*
X8276749Y-13861484D02*
X8276749Y-13899579D01*
X8571987Y-14137674D02*
X8562463Y-14128150D01*
X8562463Y-14128150D02*
X8543416Y-14099579D01*
X8543416Y-14099579D02*
X8533892Y-14080531D01*
X8533892Y-14080531D02*
X8524368Y-14051960D01*
X8524368Y-14051960D02*
X8514844Y-14004341D01*
X8514844Y-14004341D02*
X8514844Y-13966246D01*
X8514844Y-13966246D02*
X8524368Y-13918627D01*
X8524368Y-13918627D02*
X8533892Y-13890055D01*
X8533892Y-13890055D02*
X8543416Y-13871008D01*
X8543416Y-13871008D02*
X8562463Y-13842436D01*
X8562463Y-13842436D02*
X8571987Y-13832912D01*
X8638654Y-13880531D02*
X8648178Y-13871008D01*
X8648178Y-13871008D02*
X8667225Y-13861484D01*
X8667225Y-13861484D02*
X8714844Y-13861484D01*
X8714844Y-13861484D02*
X8733892Y-13871008D01*
X8733892Y-13871008D02*
X8743416Y-13880531D01*
X8743416Y-13880531D02*
X8752940Y-13899579D01*
X8752940Y-13899579D02*
X8752940Y-13918627D01*
X8752940Y-13918627D02*
X8743416Y-13947198D01*
X8743416Y-13947198D02*
X8629130Y-14061484D01*
X8629130Y-14061484D02*
X8752940Y-14061484D01*
X8924368Y-13928150D02*
X8924368Y-14061484D01*
X8876749Y-13851960D02*
X8829130Y-13994817D01*
X8829130Y-13994817D02*
X8952940Y-13994817D01*
X9181511Y-14061484D02*
X9181511Y-13861484D01*
X9267225Y-14061484D02*
X9267225Y-13956722D01*
X9267225Y-13956722D02*
X9257702Y-13937674D01*
X9257702Y-13937674D02*
X9238654Y-13928150D01*
X9238654Y-13928150D02*
X9210082Y-13928150D01*
X9210082Y-13928150D02*
X9191035Y-13937674D01*
X9191035Y-13937674D02*
X9181511Y-13947198D01*
X9391035Y-14061484D02*
X9371987Y-14051960D01*
X9371987Y-14051960D02*
X9362463Y-14042436D01*
X9362463Y-14042436D02*
X9352940Y-14023388D01*
X9352940Y-14023388D02*
X9352940Y-13966246D01*
X9352940Y-13966246D02*
X9362463Y-13947198D01*
X9362463Y-13947198D02*
X9371987Y-13937674D01*
X9371987Y-13937674D02*
X9391035Y-13928150D01*
X9391035Y-13928150D02*
X9419606Y-13928150D01*
X9419606Y-13928150D02*
X9438654Y-13937674D01*
X9438654Y-13937674D02*
X9448178Y-13947198D01*
X9448178Y-13947198D02*
X9457702Y-13966246D01*
X9457702Y-13966246D02*
X9457702Y-14023388D01*
X9457702Y-14023388D02*
X9448178Y-14042436D01*
X9448178Y-14042436D02*
X9438654Y-14051960D01*
X9438654Y-14051960D02*
X9419606Y-14061484D01*
X9419606Y-14061484D02*
X9391035Y-14061484D01*
X9571987Y-14061484D02*
X9552940Y-14051960D01*
X9552940Y-14051960D02*
X9543416Y-14032912D01*
X9543416Y-14032912D02*
X9543416Y-13861484D01*
X9724368Y-14051960D02*
X9705321Y-14061484D01*
X9705321Y-14061484D02*
X9667225Y-14061484D01*
X9667225Y-14061484D02*
X9648178Y-14051960D01*
X9648178Y-14051960D02*
X9638654Y-14032912D01*
X9638654Y-14032912D02*
X9638654Y-13956722D01*
X9638654Y-13956722D02*
X9648178Y-13937674D01*
X9648178Y-13937674D02*
X9667225Y-13928150D01*
X9667225Y-13928150D02*
X9705321Y-13928150D01*
X9705321Y-13928150D02*
X9724368Y-13937674D01*
X9724368Y-13937674D02*
X9733892Y-13956722D01*
X9733892Y-13956722D02*
X9733892Y-13975769D01*
X9733892Y-13975769D02*
X9638654Y-13994817D01*
X9810083Y-14051960D02*
X9829130Y-14061484D01*
X9829130Y-14061484D02*
X9867225Y-14061484D01*
X9867225Y-14061484D02*
X9886273Y-14051960D01*
X9886273Y-14051960D02*
X9895797Y-14032912D01*
X9895797Y-14032912D02*
X9895797Y-14023388D01*
X9895797Y-14023388D02*
X9886273Y-14004341D01*
X9886273Y-14004341D02*
X9867225Y-13994817D01*
X9867225Y-13994817D02*
X9838654Y-13994817D01*
X9838654Y-13994817D02*
X9819606Y-13985293D01*
X9819606Y-13985293D02*
X9810083Y-13966246D01*
X9810083Y-13966246D02*
X9810083Y-13956722D01*
X9810083Y-13956722D02*
X9819606Y-13937674D01*
X9819606Y-13937674D02*
X9838654Y-13928150D01*
X9838654Y-13928150D02*
X9867225Y-13928150D01*
X9867225Y-13928150D02*
X9886273Y-13937674D01*
X9962464Y-14137674D02*
X9971987Y-14128150D01*
X9971987Y-14128150D02*
X9991035Y-14099579D01*
X9991035Y-14099579D02*
X10000559Y-14080531D01*
X10000559Y-14080531D02*
X10010083Y-14051960D01*
X10010083Y-14051960D02*
X10019606Y-14004341D01*
X10019606Y-14004341D02*
X10019606Y-13966246D01*
X10019606Y-13966246D02*
X10010083Y-13918627D01*
X10010083Y-13918627D02*
X10000559Y-13890055D01*
X10000559Y-13890055D02*
X9991035Y-13871008D01*
X9991035Y-13871008D02*
X9971987Y-13842436D01*
X9971987Y-13842436D02*
X9962464Y-13832912D01*
D13*
X4811924Y-14141500D02*
X4996924Y-14326500D01*
X4996924Y-14141500D02*
X4811924Y-14326500D01*
X4904424Y-14141500D02*
X4904424Y-14326500D01*
X4811924Y-14234000D02*
X4996924Y-14234000D01*
D10*
X5362463Y-14325484D02*
X5248177Y-14325484D01*
X5305320Y-14325484D02*
X5305320Y-14125484D01*
X5305320Y-14125484D02*
X5286273Y-14154055D01*
X5286273Y-14154055D02*
X5267225Y-14173103D01*
X5267225Y-14173103D02*
X5248177Y-14182627D01*
X5448177Y-14306436D02*
X5457701Y-14315960D01*
X5457701Y-14315960D02*
X5448177Y-14325484D01*
X5448177Y-14325484D02*
X5438654Y-14315960D01*
X5438654Y-14315960D02*
X5448177Y-14306436D01*
X5448177Y-14306436D02*
X5448177Y-14325484D01*
X5571987Y-14211198D02*
X5552939Y-14201674D01*
X5552939Y-14201674D02*
X5543415Y-14192150D01*
X5543415Y-14192150D02*
X5533892Y-14173103D01*
X5533892Y-14173103D02*
X5533892Y-14163579D01*
X5533892Y-14163579D02*
X5543415Y-14144531D01*
X5543415Y-14144531D02*
X5552939Y-14135008D01*
X5552939Y-14135008D02*
X5571987Y-14125484D01*
X5571987Y-14125484D02*
X5610082Y-14125484D01*
X5610082Y-14125484D02*
X5629130Y-14135008D01*
X5629130Y-14135008D02*
X5638653Y-14144531D01*
X5638653Y-14144531D02*
X5648177Y-14163579D01*
X5648177Y-14163579D02*
X5648177Y-14173103D01*
X5648177Y-14173103D02*
X5638653Y-14192150D01*
X5638653Y-14192150D02*
X5629130Y-14201674D01*
X5629130Y-14201674D02*
X5610082Y-14211198D01*
X5610082Y-14211198D02*
X5571987Y-14211198D01*
X5571987Y-14211198D02*
X5552939Y-14220722D01*
X5552939Y-14220722D02*
X5543415Y-14230246D01*
X5543415Y-14230246D02*
X5533892Y-14249293D01*
X5533892Y-14249293D02*
X5533892Y-14287388D01*
X5533892Y-14287388D02*
X5543415Y-14306436D01*
X5543415Y-14306436D02*
X5552939Y-14315960D01*
X5552939Y-14315960D02*
X5571987Y-14325484D01*
X5571987Y-14325484D02*
X5610082Y-14325484D01*
X5610082Y-14325484D02*
X5629130Y-14315960D01*
X5629130Y-14315960D02*
X5638653Y-14306436D01*
X5638653Y-14306436D02*
X5648177Y-14287388D01*
X5648177Y-14287388D02*
X5648177Y-14249293D01*
X5648177Y-14249293D02*
X5638653Y-14230246D01*
X5638653Y-14230246D02*
X5629130Y-14220722D01*
X5629130Y-14220722D02*
X5610082Y-14211198D01*
X5829130Y-14125484D02*
X5733892Y-14125484D01*
X5733892Y-14125484D02*
X5724368Y-14220722D01*
X5724368Y-14220722D02*
X5733892Y-14211198D01*
X5733892Y-14211198D02*
X5752939Y-14201674D01*
X5752939Y-14201674D02*
X5800558Y-14201674D01*
X5800558Y-14201674D02*
X5819606Y-14211198D01*
X5819606Y-14211198D02*
X5829130Y-14220722D01*
X5829130Y-14220722D02*
X5838653Y-14239769D01*
X5838653Y-14239769D02*
X5838653Y-14287388D01*
X5838653Y-14287388D02*
X5829130Y-14306436D01*
X5829130Y-14306436D02*
X5819606Y-14315960D01*
X5819606Y-14315960D02*
X5800558Y-14325484D01*
X5800558Y-14325484D02*
X5752939Y-14325484D01*
X5752939Y-14325484D02*
X5733892Y-14315960D01*
X5733892Y-14315960D02*
X5724368Y-14306436D01*
X5962463Y-14125484D02*
X5981511Y-14125484D01*
X5981511Y-14125484D02*
X6000558Y-14135008D01*
X6000558Y-14135008D02*
X6010082Y-14144531D01*
X6010082Y-14144531D02*
X6019606Y-14163579D01*
X6019606Y-14163579D02*
X6029130Y-14201674D01*
X6029130Y-14201674D02*
X6029130Y-14249293D01*
X6029130Y-14249293D02*
X6019606Y-14287388D01*
X6019606Y-14287388D02*
X6010082Y-14306436D01*
X6010082Y-14306436D02*
X6000558Y-14315960D01*
X6000558Y-14315960D02*
X5981511Y-14325484D01*
X5981511Y-14325484D02*
X5962463Y-14325484D01*
X5962463Y-14325484D02*
X5943415Y-14315960D01*
X5943415Y-14315960D02*
X5933892Y-14306436D01*
X5933892Y-14306436D02*
X5924368Y-14287388D01*
X5924368Y-14287388D02*
X5914844Y-14249293D01*
X5914844Y-14249293D02*
X5914844Y-14201674D01*
X5914844Y-14201674D02*
X5924368Y-14163579D01*
X5924368Y-14163579D02*
X5933892Y-14144531D01*
X5933892Y-14144531D02*
X5943415Y-14135008D01*
X5943415Y-14135008D02*
X5962463Y-14125484D01*
X6114844Y-14325484D02*
X6114844Y-14192150D01*
X6114844Y-14211198D02*
X6124368Y-14201674D01*
X6124368Y-14201674D02*
X6143415Y-14192150D01*
X6143415Y-14192150D02*
X6171987Y-14192150D01*
X6171987Y-14192150D02*
X6191034Y-14201674D01*
X6191034Y-14201674D02*
X6200558Y-14220722D01*
X6200558Y-14220722D02*
X6200558Y-14325484D01*
X6200558Y-14220722D02*
X6210082Y-14201674D01*
X6210082Y-14201674D02*
X6229130Y-14192150D01*
X6229130Y-14192150D02*
X6257701Y-14192150D01*
X6257701Y-14192150D02*
X6276749Y-14201674D01*
X6276749Y-14201674D02*
X6286273Y-14220722D01*
X6286273Y-14220722D02*
X6286273Y-14325484D01*
X6381511Y-14325484D02*
X6381511Y-14192150D01*
X6381511Y-14211198D02*
X6391034Y-14201674D01*
X6391034Y-14201674D02*
X6410082Y-14192150D01*
X6410082Y-14192150D02*
X6438654Y-14192150D01*
X6438654Y-14192150D02*
X6457701Y-14201674D01*
X6457701Y-14201674D02*
X6467225Y-14220722D01*
X6467225Y-14220722D02*
X6467225Y-14325484D01*
X6467225Y-14220722D02*
X6476749Y-14201674D01*
X6476749Y-14201674D02*
X6495796Y-14192150D01*
X6495796Y-14192150D02*
X6524368Y-14192150D01*
X6524368Y-14192150D02*
X6543415Y-14201674D01*
X6543415Y-14201674D02*
X6552939Y-14220722D01*
X6552939Y-14220722D02*
X6552939Y-14325484D01*
X6943415Y-14115960D02*
X6771987Y-14373103D01*
X7200558Y-14125484D02*
X7219606Y-14125484D01*
X7219606Y-14125484D02*
X7238654Y-14135008D01*
X7238654Y-14135008D02*
X7248177Y-14144531D01*
X7248177Y-14144531D02*
X7257701Y-14163579D01*
X7257701Y-14163579D02*
X7267225Y-14201674D01*
X7267225Y-14201674D02*
X7267225Y-14249293D01*
X7267225Y-14249293D02*
X7257701Y-14287388D01*
X7257701Y-14287388D02*
X7248177Y-14306436D01*
X7248177Y-14306436D02*
X7238654Y-14315960D01*
X7238654Y-14315960D02*
X7219606Y-14325484D01*
X7219606Y-14325484D02*
X7200558Y-14325484D01*
X7200558Y-14325484D02*
X7181511Y-14315960D01*
X7181511Y-14315960D02*
X7171987Y-14306436D01*
X7171987Y-14306436D02*
X7162463Y-14287388D01*
X7162463Y-14287388D02*
X7152939Y-14249293D01*
X7152939Y-14249293D02*
X7152939Y-14201674D01*
X7152939Y-14201674D02*
X7162463Y-14163579D01*
X7162463Y-14163579D02*
X7171987Y-14144531D01*
X7171987Y-14144531D02*
X7181511Y-14135008D01*
X7181511Y-14135008D02*
X7200558Y-14125484D01*
X7352939Y-14306436D02*
X7362463Y-14315960D01*
X7362463Y-14315960D02*
X7352939Y-14325484D01*
X7352939Y-14325484D02*
X7343416Y-14315960D01*
X7343416Y-14315960D02*
X7352939Y-14306436D01*
X7352939Y-14306436D02*
X7352939Y-14325484D01*
X7486273Y-14125484D02*
X7505320Y-14125484D01*
X7505320Y-14125484D02*
X7524368Y-14135008D01*
X7524368Y-14135008D02*
X7533892Y-14144531D01*
X7533892Y-14144531D02*
X7543416Y-14163579D01*
X7543416Y-14163579D02*
X7552939Y-14201674D01*
X7552939Y-14201674D02*
X7552939Y-14249293D01*
X7552939Y-14249293D02*
X7543416Y-14287388D01*
X7543416Y-14287388D02*
X7533892Y-14306436D01*
X7533892Y-14306436D02*
X7524368Y-14315960D01*
X7524368Y-14315960D02*
X7505320Y-14325484D01*
X7505320Y-14325484D02*
X7486273Y-14325484D01*
X7486273Y-14325484D02*
X7467225Y-14315960D01*
X7467225Y-14315960D02*
X7457701Y-14306436D01*
X7457701Y-14306436D02*
X7448177Y-14287388D01*
X7448177Y-14287388D02*
X7438654Y-14249293D01*
X7438654Y-14249293D02*
X7438654Y-14201674D01*
X7438654Y-14201674D02*
X7448177Y-14163579D01*
X7448177Y-14163579D02*
X7457701Y-14144531D01*
X7457701Y-14144531D02*
X7467225Y-14135008D01*
X7467225Y-14135008D02*
X7486273Y-14125484D01*
X7619606Y-14125484D02*
X7752939Y-14125484D01*
X7752939Y-14125484D02*
X7667225Y-14325484D01*
X7819606Y-14144531D02*
X7829130Y-14135008D01*
X7829130Y-14135008D02*
X7848177Y-14125484D01*
X7848177Y-14125484D02*
X7895797Y-14125484D01*
X7895797Y-14125484D02*
X7914844Y-14135008D01*
X7914844Y-14135008D02*
X7924368Y-14144531D01*
X7924368Y-14144531D02*
X7933892Y-14163579D01*
X7933892Y-14163579D02*
X7933892Y-14182627D01*
X7933892Y-14182627D02*
X7924368Y-14211198D01*
X7924368Y-14211198D02*
X7810082Y-14325484D01*
X7810082Y-14325484D02*
X7933892Y-14325484D01*
X8048177Y-14211198D02*
X8029130Y-14201674D01*
X8029130Y-14201674D02*
X8019606Y-14192150D01*
X8019606Y-14192150D02*
X8010082Y-14173103D01*
X8010082Y-14173103D02*
X8010082Y-14163579D01*
X8010082Y-14163579D02*
X8019606Y-14144531D01*
X8019606Y-14144531D02*
X8029130Y-14135008D01*
X8029130Y-14135008D02*
X8048177Y-14125484D01*
X8048177Y-14125484D02*
X8086273Y-14125484D01*
X8086273Y-14125484D02*
X8105320Y-14135008D01*
X8105320Y-14135008D02*
X8114844Y-14144531D01*
X8114844Y-14144531D02*
X8124368Y-14163579D01*
X8124368Y-14163579D02*
X8124368Y-14173103D01*
X8124368Y-14173103D02*
X8114844Y-14192150D01*
X8114844Y-14192150D02*
X8105320Y-14201674D01*
X8105320Y-14201674D02*
X8086273Y-14211198D01*
X8086273Y-14211198D02*
X8048177Y-14211198D01*
X8048177Y-14211198D02*
X8029130Y-14220722D01*
X8029130Y-14220722D02*
X8019606Y-14230246D01*
X8019606Y-14230246D02*
X8010082Y-14249293D01*
X8010082Y-14249293D02*
X8010082Y-14287388D01*
X8010082Y-14287388D02*
X8019606Y-14306436D01*
X8019606Y-14306436D02*
X8029130Y-14315960D01*
X8029130Y-14315960D02*
X8048177Y-14325484D01*
X8048177Y-14325484D02*
X8086273Y-14325484D01*
X8086273Y-14325484D02*
X8105320Y-14315960D01*
X8105320Y-14315960D02*
X8114844Y-14306436D01*
X8114844Y-14306436D02*
X8124368Y-14287388D01*
X8124368Y-14287388D02*
X8124368Y-14249293D01*
X8124368Y-14249293D02*
X8114844Y-14230246D01*
X8114844Y-14230246D02*
X8105320Y-14220722D01*
X8105320Y-14220722D02*
X8086273Y-14211198D01*
X8200558Y-14125484D02*
X8200558Y-14163579D01*
X8276749Y-14125484D02*
X8276749Y-14163579D01*
X8571987Y-14401674D02*
X8562463Y-14392150D01*
X8562463Y-14392150D02*
X8543416Y-14363579D01*
X8543416Y-14363579D02*
X8533892Y-14344531D01*
X8533892Y-14344531D02*
X8524368Y-14315960D01*
X8524368Y-14315960D02*
X8514844Y-14268341D01*
X8514844Y-14268341D02*
X8514844Y-14230246D01*
X8514844Y-14230246D02*
X8524368Y-14182627D01*
X8524368Y-14182627D02*
X8533892Y-14154055D01*
X8533892Y-14154055D02*
X8543416Y-14135008D01*
X8543416Y-14135008D02*
X8562463Y-14106436D01*
X8562463Y-14106436D02*
X8571987Y-14096912D01*
X8752940Y-14325484D02*
X8638654Y-14325484D01*
X8695797Y-14325484D02*
X8695797Y-14125484D01*
X8695797Y-14125484D02*
X8676749Y-14154055D01*
X8676749Y-14154055D02*
X8657701Y-14173103D01*
X8657701Y-14173103D02*
X8638654Y-14182627D01*
X8924368Y-14192150D02*
X8924368Y-14325484D01*
X8876749Y-14115960D02*
X8829130Y-14258817D01*
X8829130Y-14258817D02*
X8952940Y-14258817D01*
X9181511Y-14325484D02*
X9181511Y-14125484D01*
X9267225Y-14325484D02*
X9267225Y-14220722D01*
X9267225Y-14220722D02*
X9257702Y-14201674D01*
X9257702Y-14201674D02*
X9238654Y-14192150D01*
X9238654Y-14192150D02*
X9210082Y-14192150D01*
X9210082Y-14192150D02*
X9191035Y-14201674D01*
X9191035Y-14201674D02*
X9181511Y-14211198D01*
X9391035Y-14325484D02*
X9371987Y-14315960D01*
X9371987Y-14315960D02*
X9362463Y-14306436D01*
X9362463Y-14306436D02*
X9352940Y-14287388D01*
X9352940Y-14287388D02*
X9352940Y-14230246D01*
X9352940Y-14230246D02*
X9362463Y-14211198D01*
X9362463Y-14211198D02*
X9371987Y-14201674D01*
X9371987Y-14201674D02*
X9391035Y-14192150D01*
X9391035Y-14192150D02*
X9419606Y-14192150D01*
X9419606Y-14192150D02*
X9438654Y-14201674D01*
X9438654Y-14201674D02*
X9448178Y-14211198D01*
X9448178Y-14211198D02*
X9457702Y-14230246D01*
X9457702Y-14230246D02*
X9457702Y-14287388D01*
X9457702Y-14287388D02*
X9448178Y-14306436D01*
X9448178Y-14306436D02*
X9438654Y-14315960D01*
X9438654Y-14315960D02*
X9419606Y-14325484D01*
X9419606Y-14325484D02*
X9391035Y-14325484D01*
X9571987Y-14325484D02*
X9552940Y-14315960D01*
X9552940Y-14315960D02*
X9543416Y-14296912D01*
X9543416Y-14296912D02*
X9543416Y-14125484D01*
X9724368Y-14315960D02*
X9705321Y-14325484D01*
X9705321Y-14325484D02*
X9667225Y-14325484D01*
X9667225Y-14325484D02*
X9648178Y-14315960D01*
X9648178Y-14315960D02*
X9638654Y-14296912D01*
X9638654Y-14296912D02*
X9638654Y-14220722D01*
X9638654Y-14220722D02*
X9648178Y-14201674D01*
X9648178Y-14201674D02*
X9667225Y-14192150D01*
X9667225Y-14192150D02*
X9705321Y-14192150D01*
X9705321Y-14192150D02*
X9724368Y-14201674D01*
X9724368Y-14201674D02*
X9733892Y-14220722D01*
X9733892Y-14220722D02*
X9733892Y-14239769D01*
X9733892Y-14239769D02*
X9638654Y-14258817D01*
X9810083Y-14315960D02*
X9829130Y-14325484D01*
X9829130Y-14325484D02*
X9867225Y-14325484D01*
X9867225Y-14325484D02*
X9886273Y-14315960D01*
X9886273Y-14315960D02*
X9895797Y-14296912D01*
X9895797Y-14296912D02*
X9895797Y-14287388D01*
X9895797Y-14287388D02*
X9886273Y-14268341D01*
X9886273Y-14268341D02*
X9867225Y-14258817D01*
X9867225Y-14258817D02*
X9838654Y-14258817D01*
X9838654Y-14258817D02*
X9819606Y-14249293D01*
X9819606Y-14249293D02*
X9810083Y-14230246D01*
X9810083Y-14230246D02*
X9810083Y-14220722D01*
X9810083Y-14220722D02*
X9819606Y-14201674D01*
X9819606Y-14201674D02*
X9838654Y-14192150D01*
X9838654Y-14192150D02*
X9867225Y-14192150D01*
X9867225Y-14192150D02*
X9886273Y-14201674D01*
X9962464Y-14401674D02*
X9971987Y-14392150D01*
X9971987Y-14392150D02*
X9991035Y-14363579D01*
X9991035Y-14363579D02*
X10000559Y-14344531D01*
X10000559Y-14344531D02*
X10010083Y-14315960D01*
X10010083Y-14315960D02*
X10019606Y-14268341D01*
X10019606Y-14268341D02*
X10019606Y-14230246D01*
X10019606Y-14230246D02*
X10010083Y-14182627D01*
X10010083Y-14182627D02*
X10000559Y-14154055D01*
X10000559Y-14154055D02*
X9991035Y-14135008D01*
X9991035Y-14135008D02*
X9971987Y-14106436D01*
X9971987Y-14106436D02*
X9962464Y-14096912D01*
X4796924Y-14439000D02*
X4996924Y-14639000D01*
X4996924Y-14439000D02*
X4796924Y-14639000D01*
X4967636Y-14609711D02*
X4967636Y-14468289D01*
X4826213Y-14468289D01*
X4826213Y-14609711D01*
X4967636Y-14609711D01*
X5238654Y-14430484D02*
X5362463Y-14430484D01*
X5362463Y-14430484D02*
X5295796Y-14506674D01*
X5295796Y-14506674D02*
X5324368Y-14506674D01*
X5324368Y-14506674D02*
X5343415Y-14516198D01*
X5343415Y-14516198D02*
X5352939Y-14525722D01*
X5352939Y-14525722D02*
X5362463Y-14544769D01*
X5362463Y-14544769D02*
X5362463Y-14592388D01*
X5362463Y-14592388D02*
X5352939Y-14611436D01*
X5352939Y-14611436D02*
X5343415Y-14620960D01*
X5343415Y-14620960D02*
X5324368Y-14630484D01*
X5324368Y-14630484D02*
X5267225Y-14630484D01*
X5267225Y-14630484D02*
X5248177Y-14620960D01*
X5248177Y-14620960D02*
X5238654Y-14611436D01*
X5448177Y-14611436D02*
X5457701Y-14620960D01*
X5457701Y-14620960D02*
X5448177Y-14630484D01*
X5448177Y-14630484D02*
X5438654Y-14620960D01*
X5438654Y-14620960D02*
X5448177Y-14611436D01*
X5448177Y-14611436D02*
X5448177Y-14630484D01*
X5533892Y-14449531D02*
X5543415Y-14440008D01*
X5543415Y-14440008D02*
X5562463Y-14430484D01*
X5562463Y-14430484D02*
X5610082Y-14430484D01*
X5610082Y-14430484D02*
X5629130Y-14440008D01*
X5629130Y-14440008D02*
X5638653Y-14449531D01*
X5638653Y-14449531D02*
X5648177Y-14468579D01*
X5648177Y-14468579D02*
X5648177Y-14487627D01*
X5648177Y-14487627D02*
X5638653Y-14516198D01*
X5638653Y-14516198D02*
X5524368Y-14630484D01*
X5524368Y-14630484D02*
X5648177Y-14630484D01*
X5829130Y-14430484D02*
X5733892Y-14430484D01*
X5733892Y-14430484D02*
X5724368Y-14525722D01*
X5724368Y-14525722D02*
X5733892Y-14516198D01*
X5733892Y-14516198D02*
X5752939Y-14506674D01*
X5752939Y-14506674D02*
X5800558Y-14506674D01*
X5800558Y-14506674D02*
X5819606Y-14516198D01*
X5819606Y-14516198D02*
X5829130Y-14525722D01*
X5829130Y-14525722D02*
X5838653Y-14544769D01*
X5838653Y-14544769D02*
X5838653Y-14592388D01*
X5838653Y-14592388D02*
X5829130Y-14611436D01*
X5829130Y-14611436D02*
X5819606Y-14620960D01*
X5819606Y-14620960D02*
X5800558Y-14630484D01*
X5800558Y-14630484D02*
X5752939Y-14630484D01*
X5752939Y-14630484D02*
X5733892Y-14620960D01*
X5733892Y-14620960D02*
X5724368Y-14611436D01*
X5962463Y-14430484D02*
X5981511Y-14430484D01*
X5981511Y-14430484D02*
X6000558Y-14440008D01*
X6000558Y-14440008D02*
X6010082Y-14449531D01*
X6010082Y-14449531D02*
X6019606Y-14468579D01*
X6019606Y-14468579D02*
X6029130Y-14506674D01*
X6029130Y-14506674D02*
X6029130Y-14554293D01*
X6029130Y-14554293D02*
X6019606Y-14592388D01*
X6019606Y-14592388D02*
X6010082Y-14611436D01*
X6010082Y-14611436D02*
X6000558Y-14620960D01*
X6000558Y-14620960D02*
X5981511Y-14630484D01*
X5981511Y-14630484D02*
X5962463Y-14630484D01*
X5962463Y-14630484D02*
X5943415Y-14620960D01*
X5943415Y-14620960D02*
X5933892Y-14611436D01*
X5933892Y-14611436D02*
X5924368Y-14592388D01*
X5924368Y-14592388D02*
X5914844Y-14554293D01*
X5914844Y-14554293D02*
X5914844Y-14506674D01*
X5914844Y-14506674D02*
X5924368Y-14468579D01*
X5924368Y-14468579D02*
X5933892Y-14449531D01*
X5933892Y-14449531D02*
X5943415Y-14440008D01*
X5943415Y-14440008D02*
X5962463Y-14430484D01*
X6114844Y-14630484D02*
X6114844Y-14497150D01*
X6114844Y-14516198D02*
X6124368Y-14506674D01*
X6124368Y-14506674D02*
X6143415Y-14497150D01*
X6143415Y-14497150D02*
X6171987Y-14497150D01*
X6171987Y-14497150D02*
X6191034Y-14506674D01*
X6191034Y-14506674D02*
X6200558Y-14525722D01*
X6200558Y-14525722D02*
X6200558Y-14630484D01*
X6200558Y-14525722D02*
X6210082Y-14506674D01*
X6210082Y-14506674D02*
X6229130Y-14497150D01*
X6229130Y-14497150D02*
X6257701Y-14497150D01*
X6257701Y-14497150D02*
X6276749Y-14506674D01*
X6276749Y-14506674D02*
X6286273Y-14525722D01*
X6286273Y-14525722D02*
X6286273Y-14630484D01*
X6381511Y-14630484D02*
X6381511Y-14497150D01*
X6381511Y-14516198D02*
X6391034Y-14506674D01*
X6391034Y-14506674D02*
X6410082Y-14497150D01*
X6410082Y-14497150D02*
X6438654Y-14497150D01*
X6438654Y-14497150D02*
X6457701Y-14506674D01*
X6457701Y-14506674D02*
X6467225Y-14525722D01*
X6467225Y-14525722D02*
X6467225Y-14630484D01*
X6467225Y-14525722D02*
X6476749Y-14506674D01*
X6476749Y-14506674D02*
X6495796Y-14497150D01*
X6495796Y-14497150D02*
X6524368Y-14497150D01*
X6524368Y-14497150D02*
X6543415Y-14506674D01*
X6543415Y-14506674D02*
X6552939Y-14525722D01*
X6552939Y-14525722D02*
X6552939Y-14630484D01*
X6943415Y-14420960D02*
X6771987Y-14678103D01*
X7200558Y-14430484D02*
X7219606Y-14430484D01*
X7219606Y-14430484D02*
X7238654Y-14440008D01*
X7238654Y-14440008D02*
X7248177Y-14449531D01*
X7248177Y-14449531D02*
X7257701Y-14468579D01*
X7257701Y-14468579D02*
X7267225Y-14506674D01*
X7267225Y-14506674D02*
X7267225Y-14554293D01*
X7267225Y-14554293D02*
X7257701Y-14592388D01*
X7257701Y-14592388D02*
X7248177Y-14611436D01*
X7248177Y-14611436D02*
X7238654Y-14620960D01*
X7238654Y-14620960D02*
X7219606Y-14630484D01*
X7219606Y-14630484D02*
X7200558Y-14630484D01*
X7200558Y-14630484D02*
X7181511Y-14620960D01*
X7181511Y-14620960D02*
X7171987Y-14611436D01*
X7171987Y-14611436D02*
X7162463Y-14592388D01*
X7162463Y-14592388D02*
X7152939Y-14554293D01*
X7152939Y-14554293D02*
X7152939Y-14506674D01*
X7152939Y-14506674D02*
X7162463Y-14468579D01*
X7162463Y-14468579D02*
X7171987Y-14449531D01*
X7171987Y-14449531D02*
X7181511Y-14440008D01*
X7181511Y-14440008D02*
X7200558Y-14430484D01*
X7352939Y-14611436D02*
X7362463Y-14620960D01*
X7362463Y-14620960D02*
X7352939Y-14630484D01*
X7352939Y-14630484D02*
X7343416Y-14620960D01*
X7343416Y-14620960D02*
X7352939Y-14611436D01*
X7352939Y-14611436D02*
X7352939Y-14630484D01*
X7552939Y-14630484D02*
X7438654Y-14630484D01*
X7495796Y-14630484D02*
X7495796Y-14430484D01*
X7495796Y-14430484D02*
X7476749Y-14459055D01*
X7476749Y-14459055D02*
X7457701Y-14478103D01*
X7457701Y-14478103D02*
X7438654Y-14487627D01*
X7629130Y-14449531D02*
X7638654Y-14440008D01*
X7638654Y-14440008D02*
X7657701Y-14430484D01*
X7657701Y-14430484D02*
X7705320Y-14430484D01*
X7705320Y-14430484D02*
X7724368Y-14440008D01*
X7724368Y-14440008D02*
X7733892Y-14449531D01*
X7733892Y-14449531D02*
X7743416Y-14468579D01*
X7743416Y-14468579D02*
X7743416Y-14487627D01*
X7743416Y-14487627D02*
X7733892Y-14516198D01*
X7733892Y-14516198D02*
X7619606Y-14630484D01*
X7619606Y-14630484D02*
X7743416Y-14630484D01*
X7857701Y-14516198D02*
X7838654Y-14506674D01*
X7838654Y-14506674D02*
X7829130Y-14497150D01*
X7829130Y-14497150D02*
X7819606Y-14478103D01*
X7819606Y-14478103D02*
X7819606Y-14468579D01*
X7819606Y-14468579D02*
X7829130Y-14449531D01*
X7829130Y-14449531D02*
X7838654Y-14440008D01*
X7838654Y-14440008D02*
X7857701Y-14430484D01*
X7857701Y-14430484D02*
X7895797Y-14430484D01*
X7895797Y-14430484D02*
X7914844Y-14440008D01*
X7914844Y-14440008D02*
X7924368Y-14449531D01*
X7924368Y-14449531D02*
X7933892Y-14468579D01*
X7933892Y-14468579D02*
X7933892Y-14478103D01*
X7933892Y-14478103D02*
X7924368Y-14497150D01*
X7924368Y-14497150D02*
X7914844Y-14506674D01*
X7914844Y-14506674D02*
X7895797Y-14516198D01*
X7895797Y-14516198D02*
X7857701Y-14516198D01*
X7857701Y-14516198D02*
X7838654Y-14525722D01*
X7838654Y-14525722D02*
X7829130Y-14535246D01*
X7829130Y-14535246D02*
X7819606Y-14554293D01*
X7819606Y-14554293D02*
X7819606Y-14592388D01*
X7819606Y-14592388D02*
X7829130Y-14611436D01*
X7829130Y-14611436D02*
X7838654Y-14620960D01*
X7838654Y-14620960D02*
X7857701Y-14630484D01*
X7857701Y-14630484D02*
X7895797Y-14630484D01*
X7895797Y-14630484D02*
X7914844Y-14620960D01*
X7914844Y-14620960D02*
X7924368Y-14611436D01*
X7924368Y-14611436D02*
X7933892Y-14592388D01*
X7933892Y-14592388D02*
X7933892Y-14554293D01*
X7933892Y-14554293D02*
X7924368Y-14535246D01*
X7924368Y-14535246D02*
X7914844Y-14525722D01*
X7914844Y-14525722D02*
X7895797Y-14516198D01*
X8057701Y-14430484D02*
X8076749Y-14430484D01*
X8076749Y-14430484D02*
X8095797Y-14440008D01*
X8095797Y-14440008D02*
X8105320Y-14449531D01*
X8105320Y-14449531D02*
X8114844Y-14468579D01*
X8114844Y-14468579D02*
X8124368Y-14506674D01*
X8124368Y-14506674D02*
X8124368Y-14554293D01*
X8124368Y-14554293D02*
X8114844Y-14592388D01*
X8114844Y-14592388D02*
X8105320Y-14611436D01*
X8105320Y-14611436D02*
X8095797Y-14620960D01*
X8095797Y-14620960D02*
X8076749Y-14630484D01*
X8076749Y-14630484D02*
X8057701Y-14630484D01*
X8057701Y-14630484D02*
X8038654Y-14620960D01*
X8038654Y-14620960D02*
X8029130Y-14611436D01*
X8029130Y-14611436D02*
X8019606Y-14592388D01*
X8019606Y-14592388D02*
X8010082Y-14554293D01*
X8010082Y-14554293D02*
X8010082Y-14506674D01*
X8010082Y-14506674D02*
X8019606Y-14468579D01*
X8019606Y-14468579D02*
X8029130Y-14449531D01*
X8029130Y-14449531D02*
X8038654Y-14440008D01*
X8038654Y-14440008D02*
X8057701Y-14430484D01*
X8200558Y-14430484D02*
X8200558Y-14468579D01*
X8276749Y-14430484D02*
X8276749Y-14468579D01*
X8571987Y-14706674D02*
X8562463Y-14697150D01*
X8562463Y-14697150D02*
X8543416Y-14668579D01*
X8543416Y-14668579D02*
X8533892Y-14649531D01*
X8533892Y-14649531D02*
X8524368Y-14620960D01*
X8524368Y-14620960D02*
X8514844Y-14573341D01*
X8514844Y-14573341D02*
X8514844Y-14535246D01*
X8514844Y-14535246D02*
X8524368Y-14487627D01*
X8524368Y-14487627D02*
X8533892Y-14459055D01*
X8533892Y-14459055D02*
X8543416Y-14440008D01*
X8543416Y-14440008D02*
X8562463Y-14411436D01*
X8562463Y-14411436D02*
X8571987Y-14401912D01*
X8733892Y-14497150D02*
X8733892Y-14630484D01*
X8686273Y-14420960D02*
X8638654Y-14563817D01*
X8638654Y-14563817D02*
X8762463Y-14563817D01*
X8991035Y-14630484D02*
X8991035Y-14430484D01*
X9076749Y-14630484D02*
X9076749Y-14525722D01*
X9076749Y-14525722D02*
X9067225Y-14506674D01*
X9067225Y-14506674D02*
X9048178Y-14497150D01*
X9048178Y-14497150D02*
X9019606Y-14497150D01*
X9019606Y-14497150D02*
X9000559Y-14506674D01*
X9000559Y-14506674D02*
X8991035Y-14516198D01*
X9200559Y-14630484D02*
X9181511Y-14620960D01*
X9181511Y-14620960D02*
X9171987Y-14611436D01*
X9171987Y-14611436D02*
X9162463Y-14592388D01*
X9162463Y-14592388D02*
X9162463Y-14535246D01*
X9162463Y-14535246D02*
X9171987Y-14516198D01*
X9171987Y-14516198D02*
X9181511Y-14506674D01*
X9181511Y-14506674D02*
X9200559Y-14497150D01*
X9200559Y-14497150D02*
X9229130Y-14497150D01*
X9229130Y-14497150D02*
X9248178Y-14506674D01*
X9248178Y-14506674D02*
X9257702Y-14516198D01*
X9257702Y-14516198D02*
X9267225Y-14535246D01*
X9267225Y-14535246D02*
X9267225Y-14592388D01*
X9267225Y-14592388D02*
X9257702Y-14611436D01*
X9257702Y-14611436D02*
X9248178Y-14620960D01*
X9248178Y-14620960D02*
X9229130Y-14630484D01*
X9229130Y-14630484D02*
X9200559Y-14630484D01*
X9381511Y-14630484D02*
X9362463Y-14620960D01*
X9362463Y-14620960D02*
X9352940Y-14601912D01*
X9352940Y-14601912D02*
X9352940Y-14430484D01*
X9533892Y-14620960D02*
X9514844Y-14630484D01*
X9514844Y-14630484D02*
X9476749Y-14630484D01*
X9476749Y-14630484D02*
X9457702Y-14620960D01*
X9457702Y-14620960D02*
X9448178Y-14601912D01*
X9448178Y-14601912D02*
X9448178Y-14525722D01*
X9448178Y-14525722D02*
X9457702Y-14506674D01*
X9457702Y-14506674D02*
X9476749Y-14497150D01*
X9476749Y-14497150D02*
X9514844Y-14497150D01*
X9514844Y-14497150D02*
X9533892Y-14506674D01*
X9533892Y-14506674D02*
X9543416Y-14525722D01*
X9543416Y-14525722D02*
X9543416Y-14544769D01*
X9543416Y-14544769D02*
X9448178Y-14563817D01*
X9619606Y-14620960D02*
X9638654Y-14630484D01*
X9638654Y-14630484D02*
X9676749Y-14630484D01*
X9676749Y-14630484D02*
X9695797Y-14620960D01*
X9695797Y-14620960D02*
X9705321Y-14601912D01*
X9705321Y-14601912D02*
X9705321Y-14592388D01*
X9705321Y-14592388D02*
X9695797Y-14573341D01*
X9695797Y-14573341D02*
X9676749Y-14563817D01*
X9676749Y-14563817D02*
X9648178Y-14563817D01*
X9648178Y-14563817D02*
X9629130Y-14554293D01*
X9629130Y-14554293D02*
X9619606Y-14535246D01*
X9619606Y-14535246D02*
X9619606Y-14525722D01*
X9619606Y-14525722D02*
X9629130Y-14506674D01*
X9629130Y-14506674D02*
X9648178Y-14497150D01*
X9648178Y-14497150D02*
X9676749Y-14497150D01*
X9676749Y-14497150D02*
X9695797Y-14506674D01*
X9771987Y-14706674D02*
X9781511Y-14697150D01*
X9781511Y-14697150D02*
X9800559Y-14668579D01*
X9800559Y-14668579D02*
X9810083Y-14649531D01*
X9810083Y-14649531D02*
X9819606Y-14620960D01*
X9819606Y-14620960D02*
X9829130Y-14573341D01*
X9829130Y-14573341D02*
X9829130Y-14535246D01*
X9829130Y-14535246D02*
X9819606Y-14487627D01*
X9819606Y-14487627D02*
X9810083Y-14459055D01*
X9810083Y-14459055D02*
X9800559Y-14440008D01*
X9800559Y-14440008D02*
X9781511Y-14411436D01*
X9781511Y-14411436D02*
X9771987Y-14401912D01*
X4796924Y-14759000D02*
X4996924Y-14959000D01*
X4996924Y-14759000D02*
X4796924Y-14959000D01*
X4896924Y-14959000D02*
X4996924Y-14859000D01*
X4896924Y-14759000D01*
X4796924Y-14859000D01*
X4896924Y-14959000D01*
X5248177Y-14769531D02*
X5257701Y-14760008D01*
X5257701Y-14760008D02*
X5276749Y-14750484D01*
X5276749Y-14750484D02*
X5324368Y-14750484D01*
X5324368Y-14750484D02*
X5343415Y-14760008D01*
X5343415Y-14760008D02*
X5352939Y-14769531D01*
X5352939Y-14769531D02*
X5362463Y-14788579D01*
X5362463Y-14788579D02*
X5362463Y-14807627D01*
X5362463Y-14807627D02*
X5352939Y-14836198D01*
X5352939Y-14836198D02*
X5238654Y-14950484D01*
X5238654Y-14950484D02*
X5362463Y-14950484D01*
X5448177Y-14931436D02*
X5457701Y-14940960D01*
X5457701Y-14940960D02*
X5448177Y-14950484D01*
X5448177Y-14950484D02*
X5438654Y-14940960D01*
X5438654Y-14940960D02*
X5448177Y-14931436D01*
X5448177Y-14931436D02*
X5448177Y-14950484D01*
X5552939Y-14950484D02*
X5591034Y-14950484D01*
X5591034Y-14950484D02*
X5610082Y-14940960D01*
X5610082Y-14940960D02*
X5619606Y-14931436D01*
X5619606Y-14931436D02*
X5638653Y-14902865D01*
X5638653Y-14902865D02*
X5648177Y-14864769D01*
X5648177Y-14864769D02*
X5648177Y-14788579D01*
X5648177Y-14788579D02*
X5638653Y-14769531D01*
X5638653Y-14769531D02*
X5629130Y-14760008D01*
X5629130Y-14760008D02*
X5610082Y-14750484D01*
X5610082Y-14750484D02*
X5571987Y-14750484D01*
X5571987Y-14750484D02*
X5552939Y-14760008D01*
X5552939Y-14760008D02*
X5543415Y-14769531D01*
X5543415Y-14769531D02*
X5533892Y-14788579D01*
X5533892Y-14788579D02*
X5533892Y-14836198D01*
X5533892Y-14836198D02*
X5543415Y-14855246D01*
X5543415Y-14855246D02*
X5552939Y-14864769D01*
X5552939Y-14864769D02*
X5571987Y-14874293D01*
X5571987Y-14874293D02*
X5610082Y-14874293D01*
X5610082Y-14874293D02*
X5629130Y-14864769D01*
X5629130Y-14864769D02*
X5638653Y-14855246D01*
X5638653Y-14855246D02*
X5648177Y-14836198D01*
X5714844Y-14750484D02*
X5838653Y-14750484D01*
X5838653Y-14750484D02*
X5771987Y-14826674D01*
X5771987Y-14826674D02*
X5800558Y-14826674D01*
X5800558Y-14826674D02*
X5819606Y-14836198D01*
X5819606Y-14836198D02*
X5829130Y-14845722D01*
X5829130Y-14845722D02*
X5838653Y-14864769D01*
X5838653Y-14864769D02*
X5838653Y-14912388D01*
X5838653Y-14912388D02*
X5829130Y-14931436D01*
X5829130Y-14931436D02*
X5819606Y-14940960D01*
X5819606Y-14940960D02*
X5800558Y-14950484D01*
X5800558Y-14950484D02*
X5743415Y-14950484D01*
X5743415Y-14950484D02*
X5724368Y-14940960D01*
X5724368Y-14940960D02*
X5714844Y-14931436D01*
X5962463Y-14750484D02*
X5981511Y-14750484D01*
X5981511Y-14750484D02*
X6000558Y-14760008D01*
X6000558Y-14760008D02*
X6010082Y-14769531D01*
X6010082Y-14769531D02*
X6019606Y-14788579D01*
X6019606Y-14788579D02*
X6029130Y-14826674D01*
X6029130Y-14826674D02*
X6029130Y-14874293D01*
X6029130Y-14874293D02*
X6019606Y-14912388D01*
X6019606Y-14912388D02*
X6010082Y-14931436D01*
X6010082Y-14931436D02*
X6000558Y-14940960D01*
X6000558Y-14940960D02*
X5981511Y-14950484D01*
X5981511Y-14950484D02*
X5962463Y-14950484D01*
X5962463Y-14950484D02*
X5943415Y-14940960D01*
X5943415Y-14940960D02*
X5933892Y-14931436D01*
X5933892Y-14931436D02*
X5924368Y-14912388D01*
X5924368Y-14912388D02*
X5914844Y-14874293D01*
X5914844Y-14874293D02*
X5914844Y-14826674D01*
X5914844Y-14826674D02*
X5924368Y-14788579D01*
X5924368Y-14788579D02*
X5933892Y-14769531D01*
X5933892Y-14769531D02*
X5943415Y-14760008D01*
X5943415Y-14760008D02*
X5962463Y-14750484D01*
X6114844Y-14950484D02*
X6114844Y-14817150D01*
X6114844Y-14836198D02*
X6124368Y-14826674D01*
X6124368Y-14826674D02*
X6143415Y-14817150D01*
X6143415Y-14817150D02*
X6171987Y-14817150D01*
X6171987Y-14817150D02*
X6191034Y-14826674D01*
X6191034Y-14826674D02*
X6200558Y-14845722D01*
X6200558Y-14845722D02*
X6200558Y-14950484D01*
X6200558Y-14845722D02*
X6210082Y-14826674D01*
X6210082Y-14826674D02*
X6229130Y-14817150D01*
X6229130Y-14817150D02*
X6257701Y-14817150D01*
X6257701Y-14817150D02*
X6276749Y-14826674D01*
X6276749Y-14826674D02*
X6286273Y-14845722D01*
X6286273Y-14845722D02*
X6286273Y-14950484D01*
X6381511Y-14950484D02*
X6381511Y-14817150D01*
X6381511Y-14836198D02*
X6391034Y-14826674D01*
X6391034Y-14826674D02*
X6410082Y-14817150D01*
X6410082Y-14817150D02*
X6438654Y-14817150D01*
X6438654Y-14817150D02*
X6457701Y-14826674D01*
X6457701Y-14826674D02*
X6467225Y-14845722D01*
X6467225Y-14845722D02*
X6467225Y-14950484D01*
X6467225Y-14845722D02*
X6476749Y-14826674D01*
X6476749Y-14826674D02*
X6495796Y-14817150D01*
X6495796Y-14817150D02*
X6524368Y-14817150D01*
X6524368Y-14817150D02*
X6543415Y-14826674D01*
X6543415Y-14826674D02*
X6552939Y-14845722D01*
X6552939Y-14845722D02*
X6552939Y-14950484D01*
X6943415Y-14740960D02*
X6771987Y-14998103D01*
X7200558Y-14750484D02*
X7219606Y-14750484D01*
X7219606Y-14750484D02*
X7238654Y-14760008D01*
X7238654Y-14760008D02*
X7248177Y-14769531D01*
X7248177Y-14769531D02*
X7257701Y-14788579D01*
X7257701Y-14788579D02*
X7267225Y-14826674D01*
X7267225Y-14826674D02*
X7267225Y-14874293D01*
X7267225Y-14874293D02*
X7257701Y-14912388D01*
X7257701Y-14912388D02*
X7248177Y-14931436D01*
X7248177Y-14931436D02*
X7238654Y-14940960D01*
X7238654Y-14940960D02*
X7219606Y-14950484D01*
X7219606Y-14950484D02*
X7200558Y-14950484D01*
X7200558Y-14950484D02*
X7181511Y-14940960D01*
X7181511Y-14940960D02*
X7171987Y-14931436D01*
X7171987Y-14931436D02*
X7162463Y-14912388D01*
X7162463Y-14912388D02*
X7152939Y-14874293D01*
X7152939Y-14874293D02*
X7152939Y-14826674D01*
X7152939Y-14826674D02*
X7162463Y-14788579D01*
X7162463Y-14788579D02*
X7171987Y-14769531D01*
X7171987Y-14769531D02*
X7181511Y-14760008D01*
X7181511Y-14760008D02*
X7200558Y-14750484D01*
X7352939Y-14931436D02*
X7362463Y-14940960D01*
X7362463Y-14940960D02*
X7352939Y-14950484D01*
X7352939Y-14950484D02*
X7343416Y-14940960D01*
X7343416Y-14940960D02*
X7352939Y-14931436D01*
X7352939Y-14931436D02*
X7352939Y-14950484D01*
X7552939Y-14950484D02*
X7438654Y-14950484D01*
X7495796Y-14950484D02*
X7495796Y-14750484D01*
X7495796Y-14750484D02*
X7476749Y-14779055D01*
X7476749Y-14779055D02*
X7457701Y-14798103D01*
X7457701Y-14798103D02*
X7438654Y-14807627D01*
X7743416Y-14950484D02*
X7629130Y-14950484D01*
X7686273Y-14950484D02*
X7686273Y-14750484D01*
X7686273Y-14750484D02*
X7667225Y-14779055D01*
X7667225Y-14779055D02*
X7648177Y-14798103D01*
X7648177Y-14798103D02*
X7629130Y-14807627D01*
X7924368Y-14750484D02*
X7829130Y-14750484D01*
X7829130Y-14750484D02*
X7819606Y-14845722D01*
X7819606Y-14845722D02*
X7829130Y-14836198D01*
X7829130Y-14836198D02*
X7848177Y-14826674D01*
X7848177Y-14826674D02*
X7895797Y-14826674D01*
X7895797Y-14826674D02*
X7914844Y-14836198D01*
X7914844Y-14836198D02*
X7924368Y-14845722D01*
X7924368Y-14845722D02*
X7933892Y-14864769D01*
X7933892Y-14864769D02*
X7933892Y-14912388D01*
X7933892Y-14912388D02*
X7924368Y-14931436D01*
X7924368Y-14931436D02*
X7914844Y-14940960D01*
X7914844Y-14940960D02*
X7895797Y-14950484D01*
X7895797Y-14950484D02*
X7848177Y-14950484D01*
X7848177Y-14950484D02*
X7829130Y-14940960D01*
X7829130Y-14940960D02*
X7819606Y-14931436D01*
X8105320Y-14817150D02*
X8105320Y-14950484D01*
X8057701Y-14740960D02*
X8010082Y-14883817D01*
X8010082Y-14883817D02*
X8133892Y-14883817D01*
X8200558Y-14750484D02*
X8200558Y-14788579D01*
X8276749Y-14750484D02*
X8276749Y-14788579D01*
X8571987Y-15026674D02*
X8562463Y-15017150D01*
X8562463Y-15017150D02*
X8543416Y-14988579D01*
X8543416Y-14988579D02*
X8533892Y-14969531D01*
X8533892Y-14969531D02*
X8524368Y-14940960D01*
X8524368Y-14940960D02*
X8514844Y-14893341D01*
X8514844Y-14893341D02*
X8514844Y-14855246D01*
X8514844Y-14855246D02*
X8524368Y-14807627D01*
X8524368Y-14807627D02*
X8533892Y-14779055D01*
X8533892Y-14779055D02*
X8543416Y-14760008D01*
X8543416Y-14760008D02*
X8562463Y-14731436D01*
X8562463Y-14731436D02*
X8571987Y-14721912D01*
X8638654Y-14769531D02*
X8648178Y-14760008D01*
X8648178Y-14760008D02*
X8667225Y-14750484D01*
X8667225Y-14750484D02*
X8714844Y-14750484D01*
X8714844Y-14750484D02*
X8733892Y-14760008D01*
X8733892Y-14760008D02*
X8743416Y-14769531D01*
X8743416Y-14769531D02*
X8752940Y-14788579D01*
X8752940Y-14788579D02*
X8752940Y-14807627D01*
X8752940Y-14807627D02*
X8743416Y-14836198D01*
X8743416Y-14836198D02*
X8629130Y-14950484D01*
X8629130Y-14950484D02*
X8752940Y-14950484D01*
X8991035Y-14950484D02*
X8991035Y-14750484D01*
X9076749Y-14950484D02*
X9076749Y-14845722D01*
X9076749Y-14845722D02*
X9067225Y-14826674D01*
X9067225Y-14826674D02*
X9048178Y-14817150D01*
X9048178Y-14817150D02*
X9019606Y-14817150D01*
X9019606Y-14817150D02*
X9000559Y-14826674D01*
X9000559Y-14826674D02*
X8991035Y-14836198D01*
X9200559Y-14950484D02*
X9181511Y-14940960D01*
X9181511Y-14940960D02*
X9171987Y-14931436D01*
X9171987Y-14931436D02*
X9162463Y-14912388D01*
X9162463Y-14912388D02*
X9162463Y-14855246D01*
X9162463Y-14855246D02*
X9171987Y-14836198D01*
X9171987Y-14836198D02*
X9181511Y-14826674D01*
X9181511Y-14826674D02*
X9200559Y-14817150D01*
X9200559Y-14817150D02*
X9229130Y-14817150D01*
X9229130Y-14817150D02*
X9248178Y-14826674D01*
X9248178Y-14826674D02*
X9257702Y-14836198D01*
X9257702Y-14836198D02*
X9267225Y-14855246D01*
X9267225Y-14855246D02*
X9267225Y-14912388D01*
X9267225Y-14912388D02*
X9257702Y-14931436D01*
X9257702Y-14931436D02*
X9248178Y-14940960D01*
X9248178Y-14940960D02*
X9229130Y-14950484D01*
X9229130Y-14950484D02*
X9200559Y-14950484D01*
X9381511Y-14950484D02*
X9362463Y-14940960D01*
X9362463Y-14940960D02*
X9352940Y-14921912D01*
X9352940Y-14921912D02*
X9352940Y-14750484D01*
X9533892Y-14940960D02*
X9514844Y-14950484D01*
X9514844Y-14950484D02*
X9476749Y-14950484D01*
X9476749Y-14950484D02*
X9457702Y-14940960D01*
X9457702Y-14940960D02*
X9448178Y-14921912D01*
X9448178Y-14921912D02*
X9448178Y-14845722D01*
X9448178Y-14845722D02*
X9457702Y-14826674D01*
X9457702Y-14826674D02*
X9476749Y-14817150D01*
X9476749Y-14817150D02*
X9514844Y-14817150D01*
X9514844Y-14817150D02*
X9533892Y-14826674D01*
X9533892Y-14826674D02*
X9543416Y-14845722D01*
X9543416Y-14845722D02*
X9543416Y-14864769D01*
X9543416Y-14864769D02*
X9448178Y-14883817D01*
X9619606Y-14940960D02*
X9638654Y-14950484D01*
X9638654Y-14950484D02*
X9676749Y-14950484D01*
X9676749Y-14950484D02*
X9695797Y-14940960D01*
X9695797Y-14940960D02*
X9705321Y-14921912D01*
X9705321Y-14921912D02*
X9705321Y-14912388D01*
X9705321Y-14912388D02*
X9695797Y-14893341D01*
X9695797Y-14893341D02*
X9676749Y-14883817D01*
X9676749Y-14883817D02*
X9648178Y-14883817D01*
X9648178Y-14883817D02*
X9629130Y-14874293D01*
X9629130Y-14874293D02*
X9619606Y-14855246D01*
X9619606Y-14855246D02*
X9619606Y-14845722D01*
X9619606Y-14845722D02*
X9629130Y-14826674D01*
X9629130Y-14826674D02*
X9648178Y-14817150D01*
X9648178Y-14817150D02*
X9676749Y-14817150D01*
X9676749Y-14817150D02*
X9695797Y-14826674D01*
X9771987Y-15026674D02*
X9781511Y-15017150D01*
X9781511Y-15017150D02*
X9800559Y-14988579D01*
X9800559Y-14988579D02*
X9810083Y-14969531D01*
X9810083Y-14969531D02*
X9819606Y-14940960D01*
X9819606Y-14940960D02*
X9829130Y-14893341D01*
X9829130Y-14893341D02*
X9829130Y-14855246D01*
X9829130Y-14855246D02*
X9819606Y-14807627D01*
X9819606Y-14807627D02*
X9810083Y-14779055D01*
X9810083Y-14779055D02*
X9800559Y-14760008D01*
X9800559Y-14760008D02*
X9781511Y-14731436D01*
X9781511Y-14731436D02*
X9771987Y-14721912D01*
X10133892Y-15026674D02*
X10124368Y-15017150D01*
X10124368Y-15017150D02*
X10105321Y-14988579D01*
X10105321Y-14988579D02*
X10095797Y-14969531D01*
X10095797Y-14969531D02*
X10086273Y-14940960D01*
X10086273Y-14940960D02*
X10076749Y-14893341D01*
X10076749Y-14893341D02*
X10076749Y-14855246D01*
X10076749Y-14855246D02*
X10086273Y-14807627D01*
X10086273Y-14807627D02*
X10095797Y-14779055D01*
X10095797Y-14779055D02*
X10105321Y-14760008D01*
X10105321Y-14760008D02*
X10124368Y-14731436D01*
X10124368Y-14731436D02*
X10133892Y-14721912D01*
X10210083Y-14817150D02*
X10210083Y-14950484D01*
X10210083Y-14836198D02*
X10219606Y-14826674D01*
X10219606Y-14826674D02*
X10238654Y-14817150D01*
X10238654Y-14817150D02*
X10267225Y-14817150D01*
X10267225Y-14817150D02*
X10286273Y-14826674D01*
X10286273Y-14826674D02*
X10295797Y-14845722D01*
X10295797Y-14845722D02*
X10295797Y-14950484D01*
X10419606Y-14950484D02*
X10400559Y-14940960D01*
X10400559Y-14940960D02*
X10391035Y-14931436D01*
X10391035Y-14931436D02*
X10381511Y-14912388D01*
X10381511Y-14912388D02*
X10381511Y-14855246D01*
X10381511Y-14855246D02*
X10391035Y-14836198D01*
X10391035Y-14836198D02*
X10400559Y-14826674D01*
X10400559Y-14826674D02*
X10419606Y-14817150D01*
X10419606Y-14817150D02*
X10448178Y-14817150D01*
X10448178Y-14817150D02*
X10467225Y-14826674D01*
X10467225Y-14826674D02*
X10476749Y-14836198D01*
X10476749Y-14836198D02*
X10486273Y-14855246D01*
X10486273Y-14855246D02*
X10486273Y-14912388D01*
X10486273Y-14912388D02*
X10476749Y-14931436D01*
X10476749Y-14931436D02*
X10467225Y-14940960D01*
X10467225Y-14940960D02*
X10448178Y-14950484D01*
X10448178Y-14950484D02*
X10419606Y-14950484D01*
X10543416Y-14817150D02*
X10619606Y-14817150D01*
X10571987Y-14750484D02*
X10571987Y-14921912D01*
X10571987Y-14921912D02*
X10581511Y-14940960D01*
X10581511Y-14940960D02*
X10600559Y-14950484D01*
X10600559Y-14950484D02*
X10619606Y-14950484D01*
X10838654Y-14817150D02*
X10838654Y-15017150D01*
X10838654Y-14826674D02*
X10857702Y-14817150D01*
X10857702Y-14817150D02*
X10895797Y-14817150D01*
X10895797Y-14817150D02*
X10914845Y-14826674D01*
X10914845Y-14826674D02*
X10924368Y-14836198D01*
X10924368Y-14836198D02*
X10933892Y-14855246D01*
X10933892Y-14855246D02*
X10933892Y-14912388D01*
X10933892Y-14912388D02*
X10924368Y-14931436D01*
X10924368Y-14931436D02*
X10914845Y-14940960D01*
X10914845Y-14940960D02*
X10895797Y-14950484D01*
X10895797Y-14950484D02*
X10857702Y-14950484D01*
X10857702Y-14950484D02*
X10838654Y-14940960D01*
X11048178Y-14950484D02*
X11029130Y-14940960D01*
X11029130Y-14940960D02*
X11019606Y-14921912D01*
X11019606Y-14921912D02*
X11019606Y-14750484D01*
X11210083Y-14950484D02*
X11210083Y-14845722D01*
X11210083Y-14845722D02*
X11200559Y-14826674D01*
X11200559Y-14826674D02*
X11181511Y-14817150D01*
X11181511Y-14817150D02*
X11143416Y-14817150D01*
X11143416Y-14817150D02*
X11124368Y-14826674D01*
X11210083Y-14940960D02*
X11191035Y-14950484D01*
X11191035Y-14950484D02*
X11143416Y-14950484D01*
X11143416Y-14950484D02*
X11124368Y-14940960D01*
X11124368Y-14940960D02*
X11114845Y-14921912D01*
X11114845Y-14921912D02*
X11114845Y-14902865D01*
X11114845Y-14902865D02*
X11124368Y-14883817D01*
X11124368Y-14883817D02*
X11143416Y-14874293D01*
X11143416Y-14874293D02*
X11191035Y-14874293D01*
X11191035Y-14874293D02*
X11210083Y-14864769D01*
X11276749Y-14817150D02*
X11352940Y-14817150D01*
X11305321Y-14750484D02*
X11305321Y-14921912D01*
X11305321Y-14921912D02*
X11314844Y-14940960D01*
X11314844Y-14940960D02*
X11333892Y-14950484D01*
X11333892Y-14950484D02*
X11352940Y-14950484D01*
X11495797Y-14940960D02*
X11476749Y-14950484D01*
X11476749Y-14950484D02*
X11438654Y-14950484D01*
X11438654Y-14950484D02*
X11419606Y-14940960D01*
X11419606Y-14940960D02*
X11410083Y-14921912D01*
X11410083Y-14921912D02*
X11410083Y-14845722D01*
X11410083Y-14845722D02*
X11419606Y-14826674D01*
X11419606Y-14826674D02*
X11438654Y-14817150D01*
X11438654Y-14817150D02*
X11476749Y-14817150D01*
X11476749Y-14817150D02*
X11495797Y-14826674D01*
X11495797Y-14826674D02*
X11505321Y-14845722D01*
X11505321Y-14845722D02*
X11505321Y-14864769D01*
X11505321Y-14864769D02*
X11410083Y-14883817D01*
X11676749Y-14950484D02*
X11676749Y-14750484D01*
X11676749Y-14940960D02*
X11657702Y-14950484D01*
X11657702Y-14950484D02*
X11619606Y-14950484D01*
X11619606Y-14950484D02*
X11600559Y-14940960D01*
X11600559Y-14940960D02*
X11591035Y-14931436D01*
X11591035Y-14931436D02*
X11581511Y-14912388D01*
X11581511Y-14912388D02*
X11581511Y-14855246D01*
X11581511Y-14855246D02*
X11591035Y-14836198D01*
X11591035Y-14836198D02*
X11600559Y-14826674D01*
X11600559Y-14826674D02*
X11619606Y-14817150D01*
X11619606Y-14817150D02*
X11657702Y-14817150D01*
X11657702Y-14817150D02*
X11676749Y-14826674D01*
X11752940Y-15026674D02*
X11762464Y-15017150D01*
X11762464Y-15017150D02*
X11781511Y-14988579D01*
X11781511Y-14988579D02*
X11791035Y-14969531D01*
X11791035Y-14969531D02*
X11800559Y-14940960D01*
X11800559Y-14940960D02*
X11810083Y-14893341D01*
X11810083Y-14893341D02*
X11810083Y-14855246D01*
X11810083Y-14855246D02*
X11800559Y-14807627D01*
X11800559Y-14807627D02*
X11791035Y-14779055D01*
X11791035Y-14779055D02*
X11781511Y-14760008D01*
X11781511Y-14760008D02*
X11762464Y-14731436D01*
X11762464Y-14731436D02*
X11752940Y-14721912D01*
M02*
