%TF.GenerationSoftware,KiCad,Pcbnew,10.0.5*%
%TF.CreationDate,2026-08-25T18:12:21+00:00*%
%TF.ProjectId,ECU,4543552e-6b69-4636-9164-5f7063625858,0.3*%
%TF.SameCoordinates,Original*%
%TF.FileFunction,Legend,Bot*%
%TF.FilePolarity,Positive*%
%FSLAX46Y46*%
G04 Gerber Fmt 4.6, Leading zero omitted, Abs format (unit mm)*
G04 Created by KiCad (PCBNEW 10.0.5) date 2026-08-25 18:12:21*
%MOMM*%
%LPD*%
G01*
G04 APERTURE LIST*
G04 Aperture macros list*
%AMRoundRect*
0 Rectangle with rounded corners*
0 $1 Rounding radius*
0 $2 $3 $4 $5 $6 $7 $8 $9 X,Y pos of 4 corners*
0 Add a 4 corners polygon primitive as box body*
4,1,4,$2,$3,$4,$5,$6,$7,$8,$9,$2,$3,0*
0 Add four circle primitives for the rounded corners*
1,1,$1+$1,$2,$3*
1,1,$1+$1,$4,$5*
1,1,$1+$1,$6,$7*
1,1,$1+$1,$8,$9*
0 Add four rect primitives between the rounded corners*
20,1,$1+$1,$2,$3,$4,$5,0*
20,1,$1+$1,$4,$5,$6,$7,0*
20,1,$1+$1,$6,$7,$8,$9,0*
20,1,$1+$1,$8,$9,$2,$3,0*%
G04 Aperture macros list end*
%ADD10C,0.120000*%
%ADD11R,2.055000X2.055000*%
%ADD12C,2.055000*%
%ADD13C,3.300000*%
%ADD14C,2.000000*%
%ADD15R,1.700000X1.700000*%
%ADD16C,1.700000*%
%ADD17C,3.200000*%
%ADD18R,1.600000X1.600000*%
%ADD19C,1.600000*%
%ADD20R,1.300000X1.300000*%
%ADD21C,1.300000*%
%ADD22RoundRect,0.250000X-0.262500X-0.450000X0.262500X-0.450000X0.262500X0.450000X-0.262500X0.450000X0*%
G04 APERTURE END LIST*
D10*
X201000471Y-46171968D02*
X201267138Y-45791015D01*
X201457614Y-46171968D02*
X201457614Y-45371968D01*
X201457614Y-45371968D02*
X201152852Y-45371968D01*
X201152852Y-45371968D02*
X201076662Y-45410063D01*
X201076662Y-45410063D02*
X201038567Y-45448158D01*
X201038567Y-45448158D02*
X201000471Y-45524349D01*
X201000471Y-45524349D02*
X201000471Y-45638634D01*
X201000471Y-45638634D02*
X201038567Y-45714825D01*
X201038567Y-45714825D02*
X201076662Y-45752920D01*
X201076662Y-45752920D02*
X201152852Y-45791015D01*
X201152852Y-45791015D02*
X201457614Y-45791015D01*
X200733805Y-45371968D02*
X200200471Y-45371968D01*
X200200471Y-45371968D02*
X200543329Y-46171968D01*
X199476662Y-46171968D02*
X199933805Y-46171968D01*
X199705233Y-46171968D02*
X199705233Y-45371968D01*
X199705233Y-45371968D02*
X199781424Y-45486253D01*
X199781424Y-45486253D02*
X199857614Y-45562444D01*
X199857614Y-45562444D02*
X199933805Y-45600539D01*
%TO.C,R71*%
X200259122Y-46848113D02*
X200713250Y-46848113D01*
X200259122Y-48318113D02*
X200713250Y-48318113D01*
%TD*%
%LPC*%
D11*
%TO.C,Q4*%
X206300000Y-60135000D03*
D12*
X206300000Y-57600000D03*
X206300000Y-55065000D03*
%TD*%
D13*
%TO.C,J2*%
X206000000Y-36500000D03*
X167500000Y-36500000D03*
X134000000Y-36500000D03*
D14*
X198750000Y-50500000D03*
X195750000Y-50500000D03*
X192750000Y-50500000D03*
X189750000Y-50500000D03*
X186750000Y-50500000D03*
X183750000Y-50500000D03*
X180750000Y-50500000D03*
X177750000Y-50500000D03*
X174750000Y-50500000D03*
X197250000Y-48000000D03*
X194250000Y-48000000D03*
X191250000Y-48000000D03*
X188250000Y-48000000D03*
X185250000Y-48000000D03*
X182250000Y-48000000D03*
X179250000Y-48000000D03*
X176250000Y-48000000D03*
X197250000Y-45000000D03*
X194250000Y-45000000D03*
X191250000Y-45000000D03*
X188250000Y-45000000D03*
X185250000Y-45000000D03*
X182250000Y-45000000D03*
X179250000Y-45000000D03*
X176250000Y-45000000D03*
X198750000Y-42500000D03*
X195750000Y-42500000D03*
X192750000Y-42500000D03*
X189750000Y-42500000D03*
X186750000Y-42500000D03*
X183750000Y-42500000D03*
X180750000Y-42500000D03*
X177750000Y-42500000D03*
X174750000Y-42500000D03*
X160250000Y-50500000D03*
X157250000Y-50500000D03*
X154250000Y-50500000D03*
X151250000Y-50500000D03*
X148250000Y-50500000D03*
X145250000Y-50500000D03*
X142250000Y-50500000D03*
X158500000Y-48000000D03*
X155750000Y-48000000D03*
X152750000Y-48000000D03*
X149750000Y-48000000D03*
X146750000Y-48000000D03*
X143750000Y-48000000D03*
X158500000Y-45000000D03*
X155750000Y-45000000D03*
X152750000Y-45000000D03*
X149750000Y-45000000D03*
X146750000Y-45000000D03*
X143750000Y-45000000D03*
X160250000Y-42500000D03*
X157250000Y-42500000D03*
X154250000Y-42500000D03*
X151250000Y-42500000D03*
X148250000Y-42500000D03*
X145250000Y-42500000D03*
X142250000Y-42500000D03*
%TD*%
D15*
%TO.C,J1*%
X127000000Y-80190000D03*
D16*
X127000000Y-82730000D03*
X127000000Y-85270000D03*
X127000000Y-87810000D03*
%TD*%
D17*
%TO.C,H3*%
X69975000Y-36975000D03*
%TD*%
D11*
%TO.C,Q2*%
X201200000Y-60135000D03*
D12*
X201200000Y-57600000D03*
X201200000Y-55065000D03*
%TD*%
D17*
%TO.C,H2*%
X208025000Y-138525000D03*
%TD*%
%TO.C,H1*%
X69975000Y-138525000D03*
%TD*%
D11*
%TO.C,Q1*%
X196100000Y-60135000D03*
D12*
X196100000Y-57600000D03*
X196100000Y-55065000D03*
%TD*%
D11*
%TO.C,Q3*%
X191000000Y-60135000D03*
D12*
X191000000Y-57600000D03*
X191000000Y-55065000D03*
%TD*%
D18*
%TO.C,U1*%
X131380000Y-82870000D03*
D19*
X131380000Y-85410000D03*
X131380000Y-87950000D03*
X131380000Y-90490000D03*
X131380000Y-93030000D03*
X131380000Y-95570000D03*
X131380000Y-98110000D03*
X131380000Y-100650000D03*
X131380000Y-103190000D03*
X131380000Y-105730000D03*
X131380000Y-108270000D03*
X131380000Y-110810000D03*
X131380000Y-113350000D03*
X131380000Y-115890000D03*
X131380000Y-118430000D03*
X131380000Y-120970000D03*
X131380000Y-123510000D03*
X131380000Y-126050000D03*
X131380000Y-128590000D03*
X131380000Y-131130000D03*
X131380000Y-133670000D03*
X131380000Y-136210000D03*
X131380000Y-138750000D03*
X131380000Y-141290000D03*
X146620000Y-141290000D03*
X146620000Y-138750000D03*
X146620000Y-136210000D03*
X146620000Y-133670000D03*
X146620000Y-131130000D03*
X146620000Y-128590000D03*
X146620000Y-126050000D03*
X146620000Y-123510000D03*
X146620000Y-120970000D03*
X146620000Y-118430000D03*
X146620000Y-115890000D03*
X146620000Y-113350000D03*
X146620000Y-110810000D03*
X146620000Y-108270000D03*
X146620000Y-105730000D03*
X146620000Y-103190000D03*
X146620000Y-100650000D03*
X146620000Y-98110000D03*
X146620000Y-95570000D03*
X146620000Y-93030000D03*
X146620000Y-90490000D03*
X146620000Y-87950000D03*
X146620000Y-85410000D03*
X146620000Y-82870000D03*
X144080000Y-85410000D03*
X133920000Y-128590000D03*
X136460000Y-128590000D03*
X139000000Y-128590000D03*
X141540000Y-128590000D03*
X144080000Y-128590000D03*
D18*
X134430800Y-89169200D03*
D19*
X134430800Y-91709200D03*
X134430800Y-94249200D03*
X134430800Y-96789200D03*
X134430800Y-99329200D03*
D20*
X144181600Y-95840000D03*
D21*
X142181600Y-95840000D03*
X140181600Y-95840000D03*
X140181600Y-97840000D03*
X142181600Y-97840000D03*
X144181600Y-97840000D03*
X140270000Y-83600000D03*
X137730000Y-83600000D03*
%TD*%
D22*
%TO.C,R71*%
X199573686Y-47583113D03*
X201398686Y-47583113D03*
%TD*%
%LPD*%
M02*
