%TF.GenerationSoftware,KiCad,Pcbnew,10.0.5*%
%TF.CreationDate,2026-08-25T18:12:21+00:00*%
%TF.ProjectId,ECU,4543552e-6b69-4636-9164-5f7063625858,0.3*%
%TF.SameCoordinates,Original*%
%TF.FileFunction,Soldermask,Top*%
%TF.FilePolarity,Negative*%
%FSLAX46Y46*%
G04 Gerber Fmt 4.6, Leading zero omitted, Abs format (unit mm)*
G04 Created by KiCad (PCBNEW 10.0.5) date 2026-08-25 18:12:21*
%MOMM*%
%LPD*%
G01*
G04 APERTURE LIST*
G04 Aperture macros list*
%AMRoundRect*
0 Rectangle with rounded corners*
0 $1 Rounding radius*
0 $2 $3 $4 $5 $6 $7 $8 $9 X,Y pos of 4 corners*
0 Add a 4 corners polygon primitive as box body*
4,1,4,$2,$3,$4,$5,$6,$7,$8,$9,$2,$3,0*
0 Add four circle primitives for the rounded corners*
1,1,$1+$1,$2,$3*
1,1,$1+$1,$4,$5*
1,1,$1+$1,$6,$7*
1,1,$1+$1,$8,$9*
0 Add four rect primitives between the rounded corners*
20,1,$1+$1,$2,$3,$4,$5,0*
20,1,$1+$1,$4,$5,$6,$7,0*
20,1,$1+$1,$6,$7,$8,$9,0*
20,1,$1+$1,$8,$9,$2,$3,0*%
G04 Aperture macros list end*
%ADD10RoundRect,0.150000X0.150000X-0.587500X0.150000X0.587500X-0.150000X0.587500X-0.150000X-0.587500X0*%
%ADD11R,1.700000X0.900000*%
%ADD12RoundRect,0.250000X-0.262500X-0.450000X0.262500X-0.450000X0.262500X0.450000X-0.262500X0.450000X0*%
%ADD13RoundRect,0.375000X0.375000X-0.625000X0.375000X0.625000X-0.375000X0.625000X-0.375000X-0.625000X0*%
%ADD14RoundRect,0.500000X1.400000X-0.500000X1.400000X0.500000X-1.400000X0.500000X-1.400000X-0.500000X0*%
%ADD15RoundRect,0.250000X0.475000X-0.250000X0.475000X0.250000X-0.475000X0.250000X-0.475000X-0.250000X0*%
%ADD16RoundRect,0.250000X-0.450000X0.262500X-0.450000X-0.262500X0.450000X-0.262500X0.450000X0.262500X0*%
%ADD17RoundRect,0.250000X-0.250000X-0.475000X0.250000X-0.475000X0.250000X0.475000X-0.250000X0.475000X0*%
%ADD18RoundRect,0.250000X-0.312500X-0.625000X0.312500X-0.625000X0.312500X0.625000X-0.312500X0.625000X0*%
%ADD19RoundRect,0.150000X-0.875000X-0.150000X0.875000X-0.150000X0.875000X0.150000X-0.875000X0.150000X0*%
%ADD20RoundRect,0.250000X0.450000X-0.262500X0.450000X0.262500X-0.450000X0.262500X-0.450000X-0.262500X0*%
%ADD21R,2.055000X2.055000*%
%ADD22C,2.055000*%
%ADD23RoundRect,0.250000X-1.000000X-0.650000X1.000000X-0.650000X1.000000X0.650000X-1.000000X0.650000X0*%
%ADD24C,3.300000*%
%ADD25C,2.000000*%
%ADD26RoundRect,0.100000X-0.637500X-0.100000X0.637500X-0.100000X0.637500X0.100000X-0.637500X0.100000X0*%
%ADD27RoundRect,0.250000X-0.325000X-1.100000X0.325000X-1.100000X0.325000X1.100000X-0.325000X1.100000X0*%
%ADD28RoundRect,0.250000X0.625000X-0.312500X0.625000X0.312500X-0.625000X0.312500X-0.625000X-0.312500X0*%
%ADD29RoundRect,0.150000X-0.825000X-0.150000X0.825000X-0.150000X0.825000X0.150000X-0.825000X0.150000X0*%
%ADD30RoundRect,0.087500X0.087500X-0.425000X0.087500X0.425000X-0.087500X0.425000X-0.087500X-0.425000X0*%
%ADD31R,1.700000X1.700000*%
%ADD32C,1.700000*%
%ADD33C,3.200000*%
%ADD34RoundRect,0.200000X0.200000X-0.900000X0.200000X0.900000X-0.200000X0.900000X-0.200000X-0.900000X0*%
%ADD35RoundRect,0.249997X2.650003X-2.950003X2.650003X2.950003X-2.650003X2.950003X-2.650003X-2.950003X0*%
%ADD36RoundRect,0.150000X-0.587500X-0.150000X0.587500X-0.150000X0.587500X0.150000X-0.587500X0.150000X0*%
%ADD37RoundRect,0.250000X-1.500000X-1.000000X1.500000X-1.000000X1.500000X1.000000X-1.500000X1.000000X0*%
%ADD38RoundRect,0.087500X-0.087500X0.425000X-0.087500X-0.425000X0.087500X-0.425000X0.087500X0.425000X0*%
%ADD39RoundRect,0.250000X-0.325000X-0.650000X0.325000X-0.650000X0.325000X0.650000X-0.325000X0.650000X0*%
%ADD40RoundRect,0.243750X-0.456250X0.243750X-0.456250X-0.243750X0.456250X-0.243750X0.456250X0.243750X0*%
%ADD41RoundRect,0.087500X-0.425000X-0.087500X0.425000X-0.087500X0.425000X0.087500X-0.425000X0.087500X0*%
%ADD42C,1.500000*%
%ADD43RoundRect,0.150000X-0.512500X-0.150000X0.512500X-0.150000X0.512500X0.150000X-0.512500X0.150000X0*%
%ADD44RoundRect,0.250000X0.650000X-0.325000X0.650000X0.325000X-0.650000X0.325000X-0.650000X-0.325000X0*%
%ADD45RoundRect,0.125000X0.275000X-0.125000X0.275000X0.125000X-0.275000X0.125000X-0.275000X-0.125000X0*%
%ADD46R,0.400000X1.700000*%
%ADD47RoundRect,0.112500X-0.112500X0.187500X-0.112500X-0.187500X0.112500X-0.187500X0.112500X0.187500X0*%
%ADD48RoundRect,0.250000X-0.500000X0.950000X-0.500000X-0.950000X0.500000X-0.950000X0.500000X0.950000X0*%
%ADD49RoundRect,0.250000X-0.500000X0.275000X-0.500000X-0.275000X0.500000X-0.275000X0.500000X0.275000X0*%
%ADD50RoundRect,0.100000X-0.712500X-0.100000X0.712500X-0.100000X0.712500X0.100000X-0.712500X0.100000X0*%
%ADD51RoundRect,0.150000X0.150000X-0.825000X0.150000X0.825000X-0.150000X0.825000X-0.150000X-0.825000X0*%
%ADD52RoundRect,0.250000X1.000000X-1.400000X1.000000X1.400000X-1.000000X1.400000X-1.000000X-1.400000X0*%
%ADD53RoundRect,0.225000X0.375000X-0.225000X0.375000X0.225000X-0.375000X0.225000X-0.375000X-0.225000X0*%
%ADD54RoundRect,0.243750X-0.243750X-0.456250X0.243750X-0.456250X0.243750X0.456250X-0.243750X0.456250X0*%
%ADD55RoundRect,0.150000X0.150000X-0.512500X0.150000X0.512500X-0.150000X0.512500X-0.150000X-0.512500X0*%
%ADD56RoundRect,0.150000X0.150000X-0.650000X0.150000X0.650000X-0.150000X0.650000X-0.150000X-0.650000X0*%
%ADD57R,3.100000X2.410000*%
%ADD58RoundRect,0.250000X0.650000X-1.000000X0.650000X1.000000X-0.650000X1.000000X-0.650000X-1.000000X0*%
%ADD59RoundRect,0.243750X0.456250X-0.243750X0.456250X0.243750X-0.456250X0.243750X-0.456250X-0.243750X0*%
%ADD60R,0.900000X1.700000*%
%ADD61R,1.600000X1.600000*%
%ADD62C,1.600000*%
%ADD63R,1.300000X1.300000*%
%ADD64C,1.300000*%
%ADD65RoundRect,0.150000X-0.150000X0.325000X-0.150000X-0.325000X0.150000X-0.325000X0.150000X0.325000X0*%
%ADD66RoundRect,0.150000X-0.325000X0.150000X-0.325000X-0.150000X0.325000X-0.150000X0.325000X0.150000X0*%
%ADD67RoundRect,0.250000X-0.312500X-1.450000X0.312500X-1.450000X0.312500X1.450000X-0.312500X1.450000X0*%
%ADD68RoundRect,0.250000X-0.475000X0.250000X-0.475000X-0.250000X0.475000X-0.250000X0.475000X0.250000X0*%
%ADD69RoundRect,0.250000X1.425000X-0.362500X1.425000X0.362500X-1.425000X0.362500X-1.425000X-0.362500X0*%
%ADD70R,2.900000X5.400000*%
%ADD71R,0.431800X1.600200*%
%ADD72R,4.953000X4.953000*%
%ADD73R,11.000000X9.500000*%
%ADD74R,3.500000X3.000000*%
%ADD75RoundRect,0.162500X0.162500X-0.650000X0.162500X0.650000X-0.162500X0.650000X-0.162500X-0.650000X0*%
%ADD76R,2.850000X5.400000*%
%ADD77RoundRect,0.250000X-0.375000X-0.625000X0.375000X-0.625000X0.375000X0.625000X-0.375000X0.625000X0*%
%ADD78RoundRect,0.250000X0.262500X0.450000X-0.262500X0.450000X-0.262500X-0.450000X0.262500X-0.450000X0*%
%ADD79RoundRect,0.250000X-1.500000X-0.550000X1.500000X-0.550000X1.500000X0.550000X-1.500000X0.550000X0*%
%ADD80RoundRect,0.250000X0.300000X-2.050000X0.300000X2.050000X-0.300000X2.050000X-0.300000X-2.050000X0*%
%ADD81RoundRect,0.250002X5.149998X-4.449998X5.149998X4.449998X-5.149998X4.449998X-5.149998X-4.449998X0*%
%ADD82R,1.270000X5.080000*%
%ADD83C,17.800000*%
%ADD84RoundRect,0.250000X0.550000X-1.500000X0.550000X1.500000X-0.550000X1.500000X-0.550000X-1.500000X0*%
G04 APERTURE END LIST*
D10*
%TO.C,D24*%
X94550000Y-75437500D03*
X96450000Y-75437500D03*
X95500000Y-73562500D03*
%TD*%
D11*
%TO.C,IC3*%
X179850000Y-112205000D03*
X179850000Y-113735000D03*
X179850000Y-115265000D03*
X179850000Y-116795000D03*
X186150000Y-116795000D03*
X186150000Y-115265000D03*
X186150000Y-113735000D03*
X186150000Y-112205000D03*
%TD*%
D12*
%TO.C,R120*%
X79587500Y-72000000D03*
X81412500Y-72000000D03*
%TD*%
D13*
%TO.C,U17*%
X88700000Y-138650000D03*
X91000000Y-138650000D03*
D14*
X91000000Y-132350000D03*
D13*
X93300000Y-138650000D03*
%TD*%
D12*
%TO.C,R127*%
X162587500Y-122000000D03*
X164412500Y-122000000D03*
%TD*%
D15*
%TO.C,C48*%
X116600000Y-35750000D03*
X116600000Y-33850000D03*
%TD*%
D16*
%TO.C,R52*%
X184500000Y-64175000D03*
X184500000Y-66000000D03*
%TD*%
D17*
%TO.C,C10*%
X127050000Y-70000000D03*
X128950000Y-70000000D03*
%TD*%
D10*
%TO.C,D27*%
X122550000Y-95437500D03*
X124450000Y-95437500D03*
X123500000Y-93562500D03*
%TD*%
D18*
%TO.C,R23*%
X121537500Y-64500000D03*
X124462500Y-64500000D03*
%TD*%
D19*
%TO.C,IC7*%
X153350000Y-102785000D03*
X153350000Y-104055000D03*
X153350000Y-105325000D03*
X153350000Y-106595000D03*
X153350000Y-107865000D03*
X153350000Y-109135000D03*
X153350000Y-110405000D03*
X153350000Y-111675000D03*
X153350000Y-112945000D03*
X153350000Y-114215000D03*
X162650000Y-114215000D03*
X162650000Y-112945000D03*
X162650000Y-111675000D03*
X162650000Y-110405000D03*
X162650000Y-109135000D03*
X162650000Y-107865000D03*
X162650000Y-106595000D03*
X162650000Y-105325000D03*
X162650000Y-104055000D03*
X162650000Y-102785000D03*
%TD*%
D20*
%TO.C,R87*%
X127500000Y-112912500D03*
X127500000Y-111087500D03*
%TD*%
D21*
%TO.C,Q4*%
X206300000Y-60135000D03*
D22*
X206300000Y-57600000D03*
X206300000Y-55065000D03*
%TD*%
D12*
%TO.C,R33*%
X184087500Y-54500000D03*
X185912500Y-54500000D03*
%TD*%
D23*
%TO.C,D35*%
X177000000Y-130500000D03*
X181000000Y-130500000D03*
%TD*%
D12*
%TO.C,R5*%
X150186100Y-94883500D03*
X152011100Y-94883500D03*
%TD*%
D15*
%TO.C,C24*%
X101000000Y-71450000D03*
X101000000Y-69550000D03*
%TD*%
D12*
%TO.C,R54*%
X203800000Y-65100000D03*
X205625000Y-65100000D03*
%TD*%
%TO.C,R29*%
X198287500Y-65100000D03*
X200112500Y-65100000D03*
%TD*%
%TO.C,R35*%
X181001900Y-83555600D03*
X182826900Y-83555600D03*
%TD*%
D20*
%TO.C,R103*%
X209000000Y-122412500D03*
X209000000Y-120587500D03*
%TD*%
D12*
%TO.C,R90*%
X112087500Y-96500000D03*
X113912500Y-96500000D03*
%TD*%
D17*
%TO.C,C81*%
X162550000Y-139000000D03*
X164450000Y-139000000D03*
%TD*%
D24*
%TO.C,J2*%
X206000000Y-36500000D03*
X167500000Y-36500000D03*
X134000000Y-36500000D03*
D25*
X198750000Y-50500000D03*
X195750000Y-50500000D03*
X192750000Y-50500000D03*
X189750000Y-50500000D03*
X186750000Y-50500000D03*
X183750000Y-50500000D03*
X180750000Y-50500000D03*
X177750000Y-50500000D03*
X174750000Y-50500000D03*
X197250000Y-48000000D03*
X194250000Y-48000000D03*
X191250000Y-48000000D03*
X188250000Y-48000000D03*
X185250000Y-48000000D03*
X182250000Y-48000000D03*
X179250000Y-48000000D03*
X176250000Y-48000000D03*
X197250000Y-45000000D03*
X194250000Y-45000000D03*
X191250000Y-45000000D03*
X188250000Y-45000000D03*
X185250000Y-45000000D03*
X182250000Y-45000000D03*
X179250000Y-45000000D03*
X176250000Y-45000000D03*
X198750000Y-42500000D03*
X195750000Y-42500000D03*
X192750000Y-42500000D03*
X189750000Y-42500000D03*
X186750000Y-42500000D03*
X183750000Y-42500000D03*
X180750000Y-42500000D03*
X177750000Y-42500000D03*
X174750000Y-42500000D03*
X160250000Y-50500000D03*
X157250000Y-50500000D03*
X154250000Y-50500000D03*
X151250000Y-50500000D03*
X148250000Y-50500000D03*
X145250000Y-50500000D03*
X142250000Y-50500000D03*
X158500000Y-48000000D03*
X155750000Y-48000000D03*
X152750000Y-48000000D03*
X149750000Y-48000000D03*
X146750000Y-48000000D03*
X143750000Y-48000000D03*
X158500000Y-45000000D03*
X155750000Y-45000000D03*
X152750000Y-45000000D03*
X149750000Y-45000000D03*
X146750000Y-45000000D03*
X143750000Y-45000000D03*
X160250000Y-42500000D03*
X157250000Y-42500000D03*
X154250000Y-42500000D03*
X151250000Y-42500000D03*
X148250000Y-42500000D03*
X145250000Y-42500000D03*
X142250000Y-42500000D03*
%TD*%
D12*
%TO.C,R20*%
X119033700Y-74556500D03*
X120858700Y-74556500D03*
%TD*%
D17*
%TO.C,C17*%
X185050000Y-85000000D03*
X186950000Y-85000000D03*
%TD*%
D26*
%TO.C,IC6*%
X152637500Y-117550000D03*
X152637500Y-118200000D03*
X152637500Y-118850000D03*
X152637500Y-119500000D03*
X152637500Y-120150000D03*
X152637500Y-120800000D03*
X152637500Y-121450000D03*
X158362500Y-121450000D03*
X158362500Y-120800000D03*
X158362500Y-120150000D03*
X158362500Y-119500000D03*
X158362500Y-118850000D03*
X158362500Y-118200000D03*
X158362500Y-117550000D03*
%TD*%
D27*
%TO.C,C64*%
X111525000Y-136000000D03*
X114475000Y-136000000D03*
%TD*%
D12*
%TO.C,R76*%
X121587500Y-86500000D03*
X123412500Y-86500000D03*
%TD*%
%TO.C,R77*%
X116587500Y-86500000D03*
X118412500Y-86500000D03*
%TD*%
D28*
%TO.C,R42*%
X206500000Y-85962500D03*
X206500000Y-83037500D03*
%TD*%
D17*
%TO.C,C77*%
X149550000Y-92500000D03*
X151450000Y-92500000D03*
%TD*%
D18*
%TO.C,R36*%
X203537500Y-68000000D03*
X206462500Y-68000000D03*
%TD*%
D12*
%TO.C,R118*%
X78587500Y-135500000D03*
X80412500Y-135500000D03*
%TD*%
D29*
%TO.C,U11*%
X117999500Y-102799400D03*
X117999500Y-104069400D03*
X117999500Y-105339400D03*
X117999500Y-106609400D03*
X117999500Y-107879400D03*
X117999500Y-109149400D03*
X117999500Y-110419400D03*
X122949500Y-110419400D03*
X122949500Y-109149400D03*
X122949500Y-107879400D03*
X122949500Y-106609400D03*
X122949500Y-105339400D03*
X122949500Y-104069400D03*
X122949500Y-102799400D03*
%TD*%
D20*
%TO.C,R64*%
X96000000Y-66912500D03*
X96000000Y-65087500D03*
%TD*%
D27*
%TO.C,C53*%
X110025000Y-131500000D03*
X112975000Y-131500000D03*
%TD*%
D17*
%TO.C,C29*%
X87550000Y-80500000D03*
X89450000Y-80500000D03*
%TD*%
D18*
%TO.C,R45*%
X185037500Y-88500000D03*
X187962500Y-88500000D03*
%TD*%
D17*
%TO.C,C67*%
X123550000Y-135500000D03*
X125450000Y-135500000D03*
%TD*%
D30*
%TO.C,U18*%
X161350000Y-118837500D03*
X162000000Y-118837500D03*
X162650000Y-118837500D03*
X162650000Y-117162500D03*
X161350000Y-117162500D03*
%TD*%
D12*
%TO.C,R95*%
X168587500Y-117000000D03*
X170412500Y-117000000D03*
%TD*%
D31*
%TO.C,J1*%
X127000000Y-80190000D03*
D32*
X127000000Y-82730000D03*
X127000000Y-85270000D03*
X127000000Y-87810000D03*
%TD*%
D33*
%TO.C,H3*%
X69975000Y-36975000D03*
%TD*%
D34*
%TO.C,U14*%
X170720000Y-113040000D03*
X171860000Y-113040000D03*
X173000000Y-113040000D03*
D35*
X173000000Y-106740000D03*
D34*
X174140000Y-113040000D03*
X175280000Y-113040000D03*
%TD*%
D15*
%TO.C,C31*%
X83000000Y-90450000D03*
X83000000Y-88550000D03*
%TD*%
D20*
%TO.C,R106*%
X119200000Y-35712500D03*
X119200000Y-33887500D03*
%TD*%
D17*
%TO.C,C21*%
X79550000Y-80500000D03*
X81450000Y-80500000D03*
%TD*%
%TO.C,C58*%
X118050000Y-138000000D03*
X119950000Y-138000000D03*
%TD*%
%TO.C,C80*%
X157050000Y-133000000D03*
X158950000Y-133000000D03*
%TD*%
D10*
%TO.C,D3*%
X168550000Y-61937500D03*
X170450000Y-61937500D03*
X169500000Y-60062500D03*
%TD*%
D20*
%TO.C,R34*%
X209500000Y-63412500D03*
X209500000Y-61587500D03*
%TD*%
D27*
%TO.C,C72*%
X117525000Y-134000000D03*
X120475000Y-134000000D03*
%TD*%
D36*
%TO.C,D25*%
X92562500Y-78550000D03*
X92562500Y-80450000D03*
X94437500Y-79500000D03*
%TD*%
D37*
%TO.C,C46*%
X191750000Y-106500000D03*
X198250000Y-106500000D03*
%TD*%
D15*
%TO.C,C1*%
X167000000Y-113950000D03*
X167000000Y-112050000D03*
%TD*%
D20*
%TO.C,R59*%
X93500000Y-55412500D03*
X93500000Y-53587500D03*
%TD*%
D38*
%TO.C,U4*%
X125650000Y-119162500D03*
X125000000Y-119162500D03*
X124350000Y-119162500D03*
X124350000Y-120837500D03*
X125650000Y-120837500D03*
%TD*%
D12*
%TO.C,R117*%
X71587500Y-126500000D03*
X73412500Y-126500000D03*
%TD*%
%TO.C,R82*%
X112587500Y-93000000D03*
X114412500Y-93000000D03*
%TD*%
D28*
%TO.C,R25*%
X125000000Y-56962500D03*
X125000000Y-54037500D03*
%TD*%
D39*
%TO.C,C5*%
X160025000Y-64000000D03*
X162975000Y-64000000D03*
%TD*%
D18*
%TO.C,R44*%
X205037500Y-79000000D03*
X207962500Y-79000000D03*
%TD*%
D20*
%TO.C,R79*%
X120000000Y-83412500D03*
X120000000Y-81587500D03*
%TD*%
D17*
%TO.C,C44*%
X202550000Y-100000000D03*
X204450000Y-100000000D03*
%TD*%
D40*
%TO.C,D9*%
X180600000Y-60733300D03*
X180600000Y-62608300D03*
%TD*%
D12*
%TO.C,R11*%
X137731300Y-56250000D03*
X139556300Y-56250000D03*
%TD*%
D36*
%TO.C,D46*%
X162062500Y-128550000D03*
X162062500Y-130450000D03*
X163937500Y-129500000D03*
%TD*%
D12*
%TO.C,R96*%
X169587500Y-120500000D03*
X171412500Y-120500000D03*
%TD*%
D41*
%TO.C,U9*%
X168818400Y-87574400D03*
X168818400Y-88224400D03*
X168818400Y-88874400D03*
X170493400Y-88874400D03*
X170493400Y-87574400D03*
%TD*%
D27*
%TO.C,C73*%
X116025000Y-125000000D03*
X118975000Y-125000000D03*
%TD*%
D20*
%TO.C,R107*%
X121800000Y-35712500D03*
X121800000Y-33887500D03*
%TD*%
D42*
%TO.C,TP2*%
X150500000Y-140000000D03*
%TD*%
D12*
%TO.C,R55*%
X99587500Y-59500000D03*
X101412500Y-59500000D03*
%TD*%
D18*
%TO.C,R37*%
X191537500Y-68500000D03*
X194462500Y-68500000D03*
%TD*%
D20*
%TO.C,R85*%
X128000000Y-92912500D03*
X128000000Y-91087500D03*
%TD*%
D12*
%TO.C,R67*%
X89587500Y-72000000D03*
X91412500Y-72000000D03*
%TD*%
D20*
%TO.C,R57*%
X95500000Y-56912500D03*
X95500000Y-55087500D03*
%TD*%
D15*
%TO.C,C82*%
X154500000Y-141450000D03*
X154500000Y-139550000D03*
%TD*%
D43*
%TO.C,U15*%
X77362500Y-94050000D03*
X77362500Y-95000000D03*
X77362500Y-95950000D03*
X79637500Y-95950000D03*
X79637500Y-95000000D03*
X79637500Y-94050000D03*
%TD*%
D15*
%TO.C,C57*%
X76500000Y-140450000D03*
X76500000Y-138550000D03*
%TD*%
D21*
%TO.C,Q2*%
X201200000Y-60135000D03*
D22*
X201200000Y-57600000D03*
X201200000Y-55065000D03*
%TD*%
D17*
%TO.C,C68*%
X113050000Y-140000000D03*
X114950000Y-140000000D03*
%TD*%
D12*
%TO.C,R14*%
X135303600Y-78929600D03*
X137128600Y-78929600D03*
%TD*%
D15*
%TO.C,C7*%
X172000000Y-80450000D03*
X172000000Y-78550000D03*
%TD*%
D12*
%TO.C,R65*%
X81587500Y-75500000D03*
X83412500Y-75500000D03*
%TD*%
D44*
%TO.C,C6*%
X168500000Y-80475000D03*
X168500000Y-77525000D03*
%TD*%
D34*
%TO.C,U13*%
X203220000Y-112040000D03*
X204360000Y-112040000D03*
X205500000Y-112040000D03*
D35*
X205500000Y-105740000D03*
D34*
X206640000Y-112040000D03*
X207780000Y-112040000D03*
%TD*%
D17*
%TO.C,C79*%
X161050000Y-87500000D03*
X162950000Y-87500000D03*
%TD*%
D40*
%TO.C,D14*%
X173000000Y-60704200D03*
X173000000Y-62579200D03*
%TD*%
D12*
%TO.C,R7*%
X184587500Y-68500000D03*
X186412500Y-68500000D03*
%TD*%
D45*
%TO.C,Y1*%
X154000000Y-126550000D03*
D46*
X154000000Y-125500000D03*
D45*
X154000000Y-124450000D03*
X155500000Y-126550000D03*
D46*
X155500000Y-125500000D03*
D45*
X155500000Y-124450000D03*
X157000000Y-126550000D03*
D46*
X157000000Y-125500000D03*
D45*
X157000000Y-124450000D03*
%TD*%
D23*
%TO.C,D34*%
X196500000Y-123000000D03*
X200500000Y-123000000D03*
%TD*%
D15*
%TO.C,C14*%
X137000000Y-73450000D03*
X137000000Y-71550000D03*
%TD*%
D47*
%TO.C,D12*%
X173000000Y-57179200D03*
X173000000Y-59279200D03*
%TD*%
D27*
%TO.C,C55*%
X116025000Y-129500000D03*
X118975000Y-129500000D03*
%TD*%
D12*
%TO.C,R50*%
X155370000Y-84787600D03*
X157195000Y-84787600D03*
%TD*%
%TO.C,R66*%
X76087500Y-85500000D03*
X77912500Y-85500000D03*
%TD*%
D48*
%TO.C,D1*%
X146000000Y-78500000D03*
D49*
X146000000Y-76125000D03*
%TD*%
D10*
%TO.C,D29*%
X117050000Y-120937500D03*
X118950000Y-120937500D03*
X118000000Y-119062500D03*
%TD*%
D23*
%TO.C,D40*%
X174000000Y-140500000D03*
X178000000Y-140500000D03*
%TD*%
D12*
%TO.C,R53*%
X187292500Y-65100000D03*
X189117500Y-65100000D03*
%TD*%
D20*
%TO.C,R72*%
X79500000Y-90412500D03*
X79500000Y-88587500D03*
%TD*%
D23*
%TO.C,D31*%
X190500000Y-130500000D03*
X194500000Y-130500000D03*
%TD*%
D50*
%TO.C,IC1*%
X123362500Y-72777500D03*
X123362500Y-73412500D03*
X123362500Y-74047500D03*
X123362500Y-74682500D03*
X123362500Y-75317500D03*
X123362500Y-75952500D03*
X123362500Y-76587500D03*
X123362500Y-77222500D03*
X128637500Y-77222500D03*
X128637500Y-76587500D03*
X128637500Y-75952500D03*
X128637500Y-75317500D03*
X128637500Y-74682500D03*
X128637500Y-74047500D03*
X128637500Y-73412500D03*
X128637500Y-72777500D03*
%TD*%
D15*
%TO.C,C42*%
X114000000Y-101450000D03*
X114000000Y-99550000D03*
%TD*%
D51*
%TO.C,U3*%
X149595000Y-88475000D03*
X150865000Y-88475000D03*
X152135000Y-88475000D03*
X153405000Y-88475000D03*
X153405000Y-83525000D03*
X152135000Y-83525000D03*
X150865000Y-83525000D03*
X149595000Y-83525000D03*
%TD*%
D12*
%TO.C,R63*%
X104587500Y-58500000D03*
X106412500Y-58500000D03*
%TD*%
D37*
%TO.C,C69*%
X98750000Y-132500000D03*
X105250000Y-132500000D03*
%TD*%
D17*
%TO.C,C76*%
X160550000Y-94500000D03*
X162450000Y-94500000D03*
%TD*%
D20*
%TO.C,R93*%
X169000000Y-129412500D03*
X169000000Y-127587500D03*
%TD*%
D12*
%TO.C,R68*%
X99087500Y-66500000D03*
X100912500Y-66500000D03*
%TD*%
D10*
%TO.C,D19*%
X104550000Y-76437500D03*
X106450000Y-76437500D03*
X105500000Y-74562500D03*
%TD*%
D15*
%TO.C,C11*%
X140000000Y-78450000D03*
X140000000Y-76550000D03*
%TD*%
D20*
%TO.C,R130*%
X166500000Y-108912500D03*
X166500000Y-107087500D03*
%TD*%
D12*
%TO.C,R48*%
X201087500Y-96500000D03*
X202912500Y-96500000D03*
%TD*%
D20*
%TO.C,R60*%
X93000000Y-61912500D03*
X93000000Y-60087500D03*
%TD*%
D12*
%TO.C,R9*%
X146328100Y-52991000D03*
X148153100Y-52991000D03*
%TD*%
D17*
%TO.C,C51*%
X164050000Y-99000000D03*
X165950000Y-99000000D03*
%TD*%
D12*
%TO.C,R17*%
X134007500Y-76335200D03*
X135832500Y-76335200D03*
%TD*%
D18*
%TO.C,R39*%
X197537500Y-71500000D03*
X200462500Y-71500000D03*
%TD*%
D20*
%TO.C,R84*%
X110500000Y-118412500D03*
X110500000Y-116587500D03*
%TD*%
D47*
%TO.C,D13*%
X184500000Y-57150000D03*
X184500000Y-59250000D03*
%TD*%
D43*
%TO.C,U8*%
X187862500Y-92050000D03*
X187862500Y-93000000D03*
X187862500Y-93950000D03*
X190137500Y-93950000D03*
X190137500Y-92050000D03*
%TD*%
D17*
%TO.C,C22*%
X84550000Y-70500000D03*
X86450000Y-70500000D03*
%TD*%
D20*
%TO.C,R121*%
X128000000Y-124912500D03*
X128000000Y-123087500D03*
%TD*%
D36*
%TO.C,D17*%
X99562500Y-74550000D03*
X99562500Y-76450000D03*
X101437500Y-75500000D03*
%TD*%
D27*
%TO.C,C54*%
X103525000Y-140000000D03*
X106475000Y-140000000D03*
%TD*%
D42*
%TO.C,TP1*%
X150000000Y-125000000D03*
%TD*%
D33*
%TO.C,H2*%
X208025000Y-138525000D03*
%TD*%
D20*
%TO.C,R6*%
X175000000Y-54912500D03*
X175000000Y-53087500D03*
%TD*%
D17*
%TO.C,C8*%
X149024000Y-101496200D03*
X150924000Y-101496200D03*
%TD*%
%TO.C,C40*%
X125050000Y-116000000D03*
X126950000Y-116000000D03*
%TD*%
D52*
%TO.C,D42*%
X84100000Y-126500000D03*
X90900000Y-126500000D03*
%TD*%
D15*
%TO.C,C60*%
X83500000Y-133950000D03*
X83500000Y-132050000D03*
%TD*%
%TO.C,C13*%
X132500000Y-69950000D03*
X132500000Y-68050000D03*
%TD*%
D40*
%TO.C,D15*%
X184500000Y-60675000D03*
X184500000Y-62550000D03*
%TD*%
D15*
%TO.C,C49*%
X124400000Y-35750000D03*
X124400000Y-33850000D03*
%TD*%
D12*
%TO.C,R129*%
X157587500Y-140000000D03*
X159412500Y-140000000D03*
%TD*%
D36*
%TO.C,D4*%
X149682500Y-97160000D03*
X149682500Y-99060000D03*
X151557500Y-98110000D03*
%TD*%
D12*
%TO.C,R104*%
X195587500Y-134500000D03*
X197412500Y-134500000D03*
%TD*%
D53*
%TO.C,D37*%
X200500000Y-118650000D03*
X200500000Y-115350000D03*
%TD*%
D51*
%TO.C,U10*%
X98690000Y-89975000D03*
X99960000Y-89975000D03*
X101230000Y-89975000D03*
X102500000Y-89975000D03*
X103770000Y-89975000D03*
X105040000Y-89975000D03*
X106310000Y-89975000D03*
X106310000Y-85025000D03*
X105040000Y-85025000D03*
X103770000Y-85025000D03*
X102500000Y-85025000D03*
X101230000Y-85025000D03*
X99960000Y-85025000D03*
X98690000Y-85025000D03*
%TD*%
D36*
%TO.C,D28*%
X122062500Y-98550000D03*
X122062500Y-100450000D03*
X123937500Y-99500000D03*
%TD*%
D20*
%TO.C,R116*%
X85000000Y-138912500D03*
X85000000Y-137087500D03*
%TD*%
D36*
%TO.C,D5*%
X155706300Y-87151800D03*
X155706300Y-89051800D03*
X157581300Y-88101800D03*
%TD*%
D20*
%TO.C,R92*%
X122000000Y-118412500D03*
X122000000Y-116587500D03*
%TD*%
D17*
%TO.C,C75*%
X152050000Y-133000000D03*
X153950000Y-133000000D03*
%TD*%
D12*
%TO.C,R102*%
X189587500Y-134500000D03*
X191412500Y-134500000D03*
%TD*%
D36*
%TO.C,D6*%
X122076900Y-112544900D03*
X122076900Y-114444900D03*
X123951900Y-113494900D03*
%TD*%
D54*
%TO.C,D44*%
X123562500Y-139000000D03*
X125437500Y-139000000D03*
%TD*%
D20*
%TO.C,R97*%
X169000000Y-134412500D03*
X169000000Y-132587500D03*
%TD*%
%TO.C,R91*%
X115500000Y-106412500D03*
X115500000Y-104587500D03*
%TD*%
D33*
%TO.C,H1*%
X69975000Y-138525000D03*
%TD*%
D15*
%TO.C,C66*%
X73000000Y-131450000D03*
X73000000Y-129550000D03*
%TD*%
D17*
%TO.C,C20*%
X149122000Y-105132200D03*
X151022000Y-105132200D03*
%TD*%
D21*
%TO.C,Q1*%
X196100000Y-60135000D03*
D22*
X196100000Y-57600000D03*
X196100000Y-55065000D03*
%TD*%
D15*
%TO.C,C47*%
X127000000Y-35750000D03*
X127000000Y-33850000D03*
%TD*%
D55*
%TO.C,U6*%
X168550000Y-56637500D03*
X169500000Y-56637500D03*
X170450000Y-56637500D03*
X170450000Y-54362500D03*
X169500000Y-54362500D03*
X168550000Y-54362500D03*
%TD*%
D56*
%TO.C,U16*%
X76595000Y-132150000D03*
X77865000Y-132150000D03*
X79135000Y-132150000D03*
X80405000Y-132150000D03*
X80405000Y-126850000D03*
X79135000Y-126850000D03*
X77865000Y-126850000D03*
X76595000Y-126850000D03*
D57*
X78500000Y-129500000D03*
%TD*%
D58*
%TO.C,D32*%
X185500000Y-134000000D03*
X185500000Y-130000000D03*
%TD*%
D12*
%TO.C,R110*%
X206087500Y-127500000D03*
X207912500Y-127500000D03*
%TD*%
D20*
%TO.C,R98*%
X172500000Y-131912500D03*
X172500000Y-130087500D03*
%TD*%
D12*
%TO.C,R128*%
X162587500Y-125500000D03*
X164412500Y-125500000D03*
%TD*%
D15*
%TO.C,C3*%
X167000000Y-103950000D03*
X167000000Y-102050000D03*
%TD*%
D59*
%TO.C,D45*%
X76000000Y-82437500D03*
X76000000Y-80562500D03*
%TD*%
D15*
%TO.C,C32*%
X84500000Y-80450000D03*
X84500000Y-78550000D03*
%TD*%
D16*
%TO.C,R51*%
X173000000Y-64204200D03*
X173000000Y-66029200D03*
%TD*%
D20*
%TO.C,R1*%
X143500000Y-79325000D03*
X143500000Y-77500000D03*
%TD*%
D60*
%TO.C,IC2*%
X192060000Y-120238500D03*
X190530000Y-120238500D03*
X189000000Y-120238500D03*
X187470000Y-120238500D03*
X187470000Y-126538500D03*
X189000000Y-126538500D03*
X190530000Y-126538500D03*
X192060000Y-126538500D03*
%TD*%
D20*
%TO.C,R100*%
X203000000Y-128912500D03*
X203000000Y-127087500D03*
%TD*%
D36*
%TO.C,D7*%
X149273200Y-115084300D03*
X149273200Y-116984300D03*
X151148200Y-116034300D03*
%TD*%
D17*
%TO.C,C23*%
X90550000Y-65000000D03*
X92450000Y-65000000D03*
%TD*%
D20*
%TO.C,R86*%
X132000000Y-77912500D03*
X132000000Y-76087500D03*
%TD*%
D17*
%TO.C,C27*%
X104050000Y-71000000D03*
X105950000Y-71000000D03*
%TD*%
D12*
%TO.C,R111*%
X203587500Y-132000000D03*
X205412500Y-132000000D03*
%TD*%
D17*
%TO.C,C33*%
X104050000Y-67500000D03*
X105950000Y-67500000D03*
%TD*%
D10*
%TO.C,D47*%
X162550000Y-135437500D03*
X164450000Y-135437500D03*
X163500000Y-133562500D03*
%TD*%
D13*
%TO.C,IC5*%
X74700000Y-122650000D03*
X77000000Y-122650000D03*
D14*
X77000000Y-116350000D03*
D13*
X79300000Y-122650000D03*
%TD*%
D20*
%TO.C,R78*%
X123500000Y-83412500D03*
X123500000Y-81587500D03*
%TD*%
D12*
%TO.C,R132*%
X165587500Y-83500000D03*
X167412500Y-83500000D03*
%TD*%
D20*
%TO.C,R62*%
X102500000Y-55412500D03*
X102500000Y-53587500D03*
%TD*%
D27*
%TO.C,C70*%
X122025000Y-128000000D03*
X124975000Y-128000000D03*
%TD*%
D12*
%TO.C,R125*%
X152087500Y-136500000D03*
X153912500Y-136500000D03*
%TD*%
D21*
%TO.C,Q3*%
X191000000Y-60135000D03*
D22*
X191000000Y-57600000D03*
X191000000Y-55065000D03*
%TD*%
D20*
%TO.C,R109*%
X189500000Y-139412500D03*
X189500000Y-137587500D03*
%TD*%
D12*
%TO.C,R112*%
X199087500Y-139000000D03*
X200912500Y-139000000D03*
%TD*%
%TO.C,R28*%
X192787500Y-65100000D03*
X194612500Y-65100000D03*
%TD*%
D36*
%TO.C,D20*%
X103562500Y-79550000D03*
X103562500Y-81450000D03*
X105437500Y-80500000D03*
%TD*%
D15*
%TO.C,C38*%
X114000000Y-116950000D03*
X114000000Y-115050000D03*
%TD*%
D61*
%TO.C,U1*%
X131380000Y-82870000D03*
D62*
X131380000Y-85410000D03*
X131380000Y-87950000D03*
X131380000Y-90490000D03*
X131380000Y-93030000D03*
X131380000Y-95570000D03*
X131380000Y-98110000D03*
X131380000Y-100650000D03*
X131380000Y-103190000D03*
X131380000Y-105730000D03*
X131380000Y-108270000D03*
X131380000Y-110810000D03*
X131380000Y-113350000D03*
X131380000Y-115890000D03*
X131380000Y-118430000D03*
X131380000Y-120970000D03*
X131380000Y-123510000D03*
X131380000Y-126050000D03*
X131380000Y-128590000D03*
X131380000Y-131130000D03*
X131380000Y-133670000D03*
X131380000Y-136210000D03*
X131380000Y-138750000D03*
X131380000Y-141290000D03*
X146620000Y-141290000D03*
X146620000Y-138750000D03*
X146620000Y-136210000D03*
X146620000Y-133670000D03*
X146620000Y-131130000D03*
X146620000Y-128590000D03*
X146620000Y-126050000D03*
X146620000Y-123510000D03*
X146620000Y-120970000D03*
X146620000Y-118430000D03*
X146620000Y-115890000D03*
X146620000Y-113350000D03*
X146620000Y-110810000D03*
X146620000Y-108270000D03*
X146620000Y-105730000D03*
X146620000Y-103190000D03*
X146620000Y-100650000D03*
X146620000Y-98110000D03*
X146620000Y-95570000D03*
X146620000Y-93030000D03*
X146620000Y-90490000D03*
X146620000Y-87950000D03*
X146620000Y-85410000D03*
X146620000Y-82870000D03*
X144080000Y-85410000D03*
X133920000Y-128590000D03*
X136460000Y-128590000D03*
X139000000Y-128590000D03*
X141540000Y-128590000D03*
X144080000Y-128590000D03*
D61*
X134430800Y-89169200D03*
D62*
X134430800Y-91709200D03*
X134430800Y-94249200D03*
X134430800Y-96789200D03*
X134430800Y-99329200D03*
D63*
X144181600Y-95840000D03*
D64*
X142181600Y-95840000D03*
X140181600Y-95840000D03*
X140181600Y-97840000D03*
X142181600Y-97840000D03*
X144181600Y-97840000D03*
X140270000Y-83600000D03*
X137730000Y-83600000D03*
%TD*%
D15*
%TO.C,C12*%
X119500000Y-78450000D03*
X119500000Y-76550000D03*
%TD*%
D20*
%TO.C,R88*%
X112000000Y-106412500D03*
X112000000Y-104587500D03*
%TD*%
D58*
%TO.C,D33*%
X196000000Y-118000000D03*
X196000000Y-114000000D03*
%TD*%
D20*
%TO.C,R61*%
X106000000Y-55412500D03*
X106000000Y-53587500D03*
%TD*%
D23*
%TO.C,D36*%
X177000000Y-135500000D03*
X181000000Y-135500000D03*
%TD*%
D15*
%TO.C,C62*%
X68500000Y-116450000D03*
X68500000Y-114550000D03*
%TD*%
D53*
%TO.C,D38*%
X170000000Y-140650000D03*
X170000000Y-137350000D03*
%TD*%
D15*
%TO.C,C50*%
X129600000Y-35750000D03*
X129600000Y-33850000D03*
%TD*%
%TO.C,C35*%
X118000000Y-91950000D03*
X118000000Y-90050000D03*
%TD*%
D12*
%TO.C,R46*%
X200087500Y-82000000D03*
X201912500Y-82000000D03*
%TD*%
%TO.C,R15*%
X121814100Y-79499000D03*
X123639100Y-79499000D03*
%TD*%
%TO.C,R19*%
X119213900Y-72331400D03*
X121038900Y-72331400D03*
%TD*%
%TO.C,R74*%
X91087500Y-68500000D03*
X92912500Y-68500000D03*
%TD*%
D17*
%TO.C,C30*%
X96050000Y-70000000D03*
X97950000Y-70000000D03*
%TD*%
D20*
%TO.C,R2*%
X128000000Y-102912500D03*
X128000000Y-101087500D03*
%TD*%
D12*
%TO.C,R124*%
X152087500Y-129500000D03*
X153912500Y-129500000D03*
%TD*%
D17*
%TO.C,C9*%
X149317000Y-80730600D03*
X151217000Y-80730600D03*
%TD*%
D27*
%TO.C,C65*%
X97525000Y-140000000D03*
X100475000Y-140000000D03*
%TD*%
D12*
%TO.C,R94*%
X168587500Y-124000000D03*
X170412500Y-124000000D03*
%TD*%
D65*
%TO.C,U5*%
X125500000Y-123000000D03*
X124700000Y-123000000D03*
X123900000Y-123000000D03*
X123100000Y-123000000D03*
X122300000Y-123000000D03*
X121500000Y-123000000D03*
D66*
X121500000Y-124000000D03*
D65*
X121500000Y-125000000D03*
X122300000Y-125000000D03*
X123100000Y-125000000D03*
X123900000Y-125000000D03*
X124700000Y-125000000D03*
X125500000Y-125000000D03*
D66*
X125500000Y-124000000D03*
%TD*%
D23*
%TO.C,D22*%
X71500000Y-89500000D03*
X75500000Y-89500000D03*
%TD*%
D15*
%TO.C,C41*%
X127500000Y-97950000D03*
X127500000Y-96050000D03*
%TD*%
D37*
%TO.C,C61*%
X84250000Y-117500000D03*
X90750000Y-117500000D03*
%TD*%
D17*
%TO.C,C43*%
X126050000Y-132000000D03*
X127950000Y-132000000D03*
%TD*%
D12*
%TO.C,R101*%
X198087500Y-131000000D03*
X199912500Y-131000000D03*
%TD*%
D20*
%TO.C,R113*%
X116600000Y-50612500D03*
X116600000Y-48787500D03*
%TD*%
D54*
%TO.C,D43*%
X71062500Y-85500000D03*
X72937500Y-85500000D03*
%TD*%
D12*
%TO.C,R49*%
X196087500Y-96500000D03*
X197912500Y-96500000D03*
%TD*%
D67*
%TO.C,F1*%
X160362500Y-59500000D03*
X164637500Y-59500000D03*
%TD*%
D12*
%TO.C,R10*%
X154205800Y-52844400D03*
X156030800Y-52844400D03*
%TD*%
D27*
%TO.C,C56*%
X110025000Y-127000000D03*
X112975000Y-127000000D03*
%TD*%
D68*
%TO.C,C74*%
X69000000Y-94000000D03*
X69000000Y-95900000D03*
%TD*%
D69*
%TO.C,R30*%
X207000000Y-94962500D03*
X207000000Y-89037500D03*
%TD*%
D12*
%TO.C,R99*%
X204087500Y-124000000D03*
X205912500Y-124000000D03*
%TD*%
%TO.C,R80*%
X121587500Y-90000000D03*
X123412500Y-90000000D03*
%TD*%
D20*
%TO.C,R115*%
X69500000Y-131912500D03*
X69500000Y-130087500D03*
%TD*%
D12*
%TO.C,R27*%
X172587500Y-87500000D03*
X174412500Y-87500000D03*
%TD*%
%TO.C,R12*%
X148489300Y-78295700D03*
X150314300Y-78295700D03*
%TD*%
D28*
%TO.C,R43*%
X191000000Y-83962500D03*
X191000000Y-81037500D03*
%TD*%
D36*
%TO.C,D16*%
X90062500Y-88550000D03*
X90062500Y-90450000D03*
X91937500Y-89500000D03*
%TD*%
D12*
%TO.C,R126*%
X157087500Y-129500000D03*
X158912500Y-129500000D03*
%TD*%
D36*
%TO.C,Q5*%
X174062500Y-123550000D03*
X174062500Y-125450000D03*
X175937500Y-124500000D03*
%TD*%
D15*
%TO.C,C59*%
X71000000Y-116450000D03*
X71000000Y-114550000D03*
%TD*%
D70*
%TO.C,L2*%
X95650000Y-120000000D03*
X105350000Y-120000000D03*
%TD*%
D71*
%TO.C,U7*%
X203641800Y-84401000D03*
X202981400Y-84401000D03*
X202346400Y-84401000D03*
X201686000Y-84401000D03*
X201051000Y-84401000D03*
X200390600Y-84401000D03*
X199730200Y-84401000D03*
X199095200Y-84401000D03*
X198434800Y-84401000D03*
X197799800Y-84401000D03*
X197139400Y-84401000D03*
X196479000Y-84401000D03*
X195844000Y-84401000D03*
X195183600Y-84401000D03*
X194548600Y-84401000D03*
X193888200Y-84401000D03*
X193888200Y-93799000D03*
X194548600Y-93799000D03*
X195183600Y-93799000D03*
X195844000Y-93799000D03*
X196479000Y-93799000D03*
X197139400Y-93799000D03*
X197799800Y-93799000D03*
X198434800Y-93799000D03*
X199095200Y-93799000D03*
X199730200Y-93799000D03*
X200390600Y-93799000D03*
X201051000Y-93799000D03*
X201686000Y-93799000D03*
X202346400Y-93799000D03*
X202981400Y-93799000D03*
X203641800Y-93799000D03*
D72*
X198765000Y-89100000D03*
%TD*%
D17*
%TO.C,C36*%
X111550000Y-89500000D03*
X113450000Y-89500000D03*
%TD*%
D12*
%TO.C,R22*%
X120066600Y-92335100D03*
X121891600Y-92335100D03*
%TD*%
D73*
%TO.C,D41*%
X101000000Y-98850000D03*
D74*
X101000000Y-108400000D03*
%TD*%
D28*
%TO.C,R24*%
X129000000Y-56462500D03*
X129000000Y-53537500D03*
%TD*%
D20*
%TO.C,R58*%
X96500000Y-61912500D03*
X96500000Y-60087500D03*
%TD*%
%TO.C,R89*%
X110000000Y-101412500D03*
X110000000Y-99587500D03*
%TD*%
D17*
%TO.C,C19*%
X175050000Y-84000000D03*
X176950000Y-84000000D03*
%TD*%
D47*
%TO.C,D10*%
X176900000Y-57120800D03*
X176900000Y-59220800D03*
%TD*%
D15*
%TO.C,C45*%
X161000000Y-99450000D03*
X161000000Y-97550000D03*
%TD*%
D12*
%TO.C,R13*%
X141739400Y-57269000D03*
X143564400Y-57269000D03*
%TD*%
D70*
%TO.C,L1*%
X69650000Y-104500000D03*
X79350000Y-104500000D03*
%TD*%
D60*
%TO.C,IC4*%
X183560000Y-120238500D03*
X182030000Y-120238500D03*
X180500000Y-120238500D03*
X178970000Y-120238500D03*
X178970000Y-126538500D03*
X180500000Y-126538500D03*
X182030000Y-126538500D03*
X183560000Y-126538500D03*
%TD*%
D47*
%TO.C,D11*%
X180600000Y-57208300D03*
X180600000Y-59308300D03*
%TD*%
D15*
%TO.C,C52*%
X165500000Y-95950000D03*
X165500000Y-94050000D03*
%TD*%
D20*
%TO.C,R81*%
X110000000Y-113412500D03*
X110000000Y-111587500D03*
%TD*%
D27*
%TO.C,C71*%
X110025000Y-122500000D03*
X112975000Y-122500000D03*
%TD*%
D15*
%TO.C,C63*%
X109000000Y-81450000D03*
X109000000Y-79550000D03*
%TD*%
D20*
%TO.C,R8*%
X128000000Y-107912500D03*
X128000000Y-106087500D03*
%TD*%
D23*
%TO.C,D39*%
X204500000Y-116500000D03*
X208500000Y-116500000D03*
%TD*%
D36*
%TO.C,D23*%
X88062500Y-83550000D03*
X88062500Y-85450000D03*
X89937500Y-84500000D03*
%TD*%
D20*
%TO.C,R69*%
X86500000Y-75412500D03*
X86500000Y-73587500D03*
%TD*%
D17*
%TO.C,C25*%
X89550000Y-75500000D03*
X91450000Y-75500000D03*
%TD*%
D12*
%TO.C,R16*%
X149161900Y-108147600D03*
X150986900Y-108147600D03*
%TD*%
D15*
%TO.C,C28*%
X86500000Y-90450000D03*
X86500000Y-88550000D03*
%TD*%
%TO.C,C26*%
X84500000Y-85450000D03*
X84500000Y-83550000D03*
%TD*%
D20*
%TO.C,R41*%
X180600000Y-66058300D03*
X180600000Y-64233300D03*
%TD*%
D12*
%TO.C,R131*%
X160587500Y-84000000D03*
X162412500Y-84000000D03*
%TD*%
D75*
%TO.C,U2*%
X154095000Y-98587500D03*
X155365000Y-98587500D03*
X156635000Y-98587500D03*
X157905000Y-98587500D03*
X157905000Y-91412500D03*
X156635000Y-91412500D03*
X155365000Y-91412500D03*
X154095000Y-91412500D03*
%TD*%
D26*
%TO.C,U12*%
X120137500Y-38025000D03*
X120137500Y-38675000D03*
X120137500Y-39325000D03*
X120137500Y-39975000D03*
X120137500Y-40625000D03*
X120137500Y-41275000D03*
X120137500Y-41925000D03*
X120137500Y-42575000D03*
X120137500Y-43225000D03*
X120137500Y-43875000D03*
X120137500Y-44525000D03*
X120137500Y-45175000D03*
X120137500Y-45825000D03*
X120137500Y-46475000D03*
X125862500Y-46475000D03*
X125862500Y-45825000D03*
X125862500Y-45175000D03*
X125862500Y-44525000D03*
X125862500Y-43875000D03*
X125862500Y-43225000D03*
X125862500Y-42575000D03*
X125862500Y-41925000D03*
X125862500Y-41275000D03*
X125862500Y-40625000D03*
X125862500Y-39975000D03*
X125862500Y-39325000D03*
X125862500Y-38675000D03*
X125862500Y-38025000D03*
D76*
X123000000Y-42250000D03*
%TD*%
D12*
%TO.C,R108*%
X184587500Y-138000000D03*
X186412500Y-138000000D03*
%TD*%
D20*
%TO.C,R122*%
X78500000Y-77412500D03*
X78500000Y-75587500D03*
%TD*%
D77*
%TO.C,F2*%
X71100000Y-95500000D03*
X73900000Y-95500000D03*
%TD*%
D20*
%TO.C,R70*%
X99000000Y-56412500D03*
X99000000Y-54587500D03*
%TD*%
%TO.C,R73*%
X81000000Y-85412500D03*
X81000000Y-83587500D03*
%TD*%
D36*
%TO.C,D21*%
X98062500Y-79550000D03*
X98062500Y-81450000D03*
X99937500Y-80500000D03*
%TD*%
D28*
%TO.C,R26*%
X118000000Y-68462500D03*
X118000000Y-65537500D03*
%TD*%
D78*
%TO.C,R3*%
X114188700Y-83710700D03*
X112363700Y-83710700D03*
%TD*%
D15*
%TO.C,C4*%
X192500000Y-99950000D03*
X192500000Y-98050000D03*
%TD*%
%TO.C,C34*%
X87500000Y-67450000D03*
X87500000Y-65550000D03*
%TD*%
D23*
%TO.C,D2*%
X160500000Y-54500000D03*
X164500000Y-54500000D03*
%TD*%
D17*
%TO.C,C78*%
X161550000Y-91000000D03*
X163450000Y-91000000D03*
%TD*%
D79*
%TO.C,C18*%
X180300000Y-105500000D03*
X185700000Y-105500000D03*
%TD*%
D20*
%TO.C,R75*%
X95500000Y-90412500D03*
X95500000Y-88587500D03*
%TD*%
D17*
%TO.C,C15*%
X180050000Y-86000000D03*
X181950000Y-86000000D03*
%TD*%
D12*
%TO.C,R123*%
X157087500Y-136500000D03*
X158912500Y-136500000D03*
%TD*%
D80*
%TO.C,Q6*%
X85460000Y-109150000D03*
D81*
X88000000Y-100000000D03*
D80*
X90540000Y-109150000D03*
%TD*%
D82*
%TO.C,BT1*%
X69015000Y-54500000D03*
X90985000Y-54500000D03*
D83*
X80000000Y-54500000D03*
%TD*%
D10*
%TO.C,D18*%
X93050000Y-85437500D03*
X94950000Y-85437500D03*
X94000000Y-83562500D03*
%TD*%
D12*
%TO.C,R21*%
X131191200Y-73660600D03*
X133016200Y-73660600D03*
%TD*%
%TO.C,R18*%
X153131200Y-80448700D03*
X154956200Y-80448700D03*
%TD*%
%TO.C,R56*%
X101087500Y-63000000D03*
X102912500Y-63000000D03*
%TD*%
D84*
%TO.C,C16*%
X171500000Y-97200000D03*
X171500000Y-91800000D03*
%TD*%
D20*
%TO.C,R31*%
X209500000Y-58412500D03*
X209500000Y-56587500D03*
%TD*%
D12*
%TO.C,R114*%
X79587500Y-139000000D03*
X81412500Y-139000000D03*
%TD*%
D40*
%TO.C,D8*%
X176900000Y-60645800D03*
X176900000Y-62520800D03*
%TD*%
D10*
%TO.C,D26*%
X117050000Y-100437500D03*
X118950000Y-100437500D03*
X118000000Y-98562500D03*
%TD*%
D17*
%TO.C,C2*%
X178550000Y-89500000D03*
X180450000Y-89500000D03*
%TD*%
D16*
%TO.C,R40*%
X176900000Y-64145800D03*
X176900000Y-65970800D03*
%TD*%
D17*
%TO.C,C37*%
X117550000Y-95000000D03*
X119450000Y-95000000D03*
%TD*%
D12*
%TO.C,R32*%
X197587500Y-68000000D03*
X199412500Y-68000000D03*
%TD*%
D18*
%TO.C,R38*%
X178037500Y-54500000D03*
X180962500Y-54500000D03*
%TD*%
D12*
%TO.C,R4*%
X169073500Y-100587800D03*
X170898500Y-100587800D03*
%TD*%
D20*
%TO.C,R119*%
X70500000Y-123412500D03*
X70500000Y-121587500D03*
%TD*%
%TO.C,R83*%
X109500000Y-86412500D03*
X109500000Y-84587500D03*
%TD*%
%TO.C,R47*%
X191500000Y-88912500D03*
X191500000Y-87087500D03*
%TD*%
%TO.C,R105*%
X119200000Y-50612500D03*
X119200000Y-48787500D03*
%TD*%
D17*
%TO.C,C39*%
X117050000Y-115000000D03*
X118950000Y-115000000D03*
%TD*%
D36*
%TO.C,D30*%
X113562500Y-109550000D03*
X113562500Y-111450000D03*
X115437500Y-110500000D03*
%TD*%
M02*
