<?xml version="1.0" standalone="no"?>
 <!DOCTYPE svg PUBLIC "-//W3C//DTD SVG 1.1//EN" 
 "http://www.w3.org/Graphics/SVG/1.1/DTD/svg11.dtd"> 
<svg
  xmlns:svg="http://www.w3.org/2000/svg"
  xmlns="http://www.w3.org/2000/svg"
  xmlns:xlink="http://www.w3.org/1999/xlink"
  version="1.1"
  width="297.0022mm" height="210.0072mm" viewBox="0.0000 0.0000 297.0022 210.0072">
<title>SVG Image created as ECU-NPTH-drl_map.svg date 2025/06/23 16:09:30 </title>
  <desc>Image generated by PCBNEW </desc>
<g style="fill:#000000; fill-opacity:1.0000;stroke:#000000; stroke-opacity:1.0000;
stroke-linecap:round; stroke-linejoin:round;"
 transform="translate(0 0) scale(1 1)">
<path style="fill:none; 
stroke:#000000; stroke-width:0.0520; stroke-opacity:1; 
stroke-linecap:round; stroke-linejoin:round;fill:none"
d="M 71.5462,5.0260
225.4560,5.0260
225.4560,120.9783
71.5462,120.9783
Z" /> 
</g>
<g style="fill:none; 
stroke:#000000; stroke-width:0.2000; stroke-opacity:1; 
stroke-linecap:round; stroke-linejoin:round;">
<text x="73.5202" y="124.2043"
textLength="14.8667" font-size="2.6667" lengthAdjust="spacingAndGlyphs"
text-anchor="start" opacity="0" stroke-opacity="0">Drill Map:</text>
<g class="stroked-text"><desc>Drill Map:</desc>
<path d="M74.1280 124.1192
L74.1280 122.1192
" />
<path d="M74.1280 122.1192
L74.6042 122.1192
" />
<path d="M74.6042 122.1192
L74.8899 122.2144
" />
<path d="M74.8899 122.2144
L75.0803 122.4049
" />
<path d="M75.0803 122.4049
L75.1756 122.5953
" />
<path d="M75.1756 122.5953
L75.2708 122.9763
" />
<path d="M75.2708 122.9763
L75.2708 123.2620
" />
<path d="M75.2708 123.2620
L75.1756 123.6430
" />
<path d="M75.1756 123.6430
L75.0803 123.8334
" />
<path d="M75.0803 123.8334
L74.8899 124.0239
" />
<path d="M74.8899 124.0239
L74.6042 124.1192
" />
<path d="M74.6042 124.1192
L74.1280 124.1192
" />
<path d="M76.1280 124.1192
L76.1280 122.7858
" />
<path d="M76.1280 123.1668
L76.2232 122.9763
" />
<path d="M76.2232 122.9763
L76.3184 122.8811
" />
<path d="M76.3184 122.8811
L76.5089 122.7858
" />
<path d="M76.5089 122.7858
L76.6994 122.7858
" />
<path d="M77.3661 124.1192
L77.3661 122.7858
" />
<path d="M77.3661 122.1192
L77.2708 122.2144
" />
<path d="M77.2708 122.2144
L77.3661 122.3096
" />
<path d="M77.3661 122.3096
L77.4613 122.2144
" />
<path d="M77.4613 122.2144
L77.3661 122.1192
" />
<path d="M77.3661 122.1192
L77.3661 122.3096
" />
<path d="M78.6042 124.1192
L78.4137 124.0239
" />
<path d="M78.4137 124.0239
L78.3184 123.8334
" />
<path d="M78.3184 123.8334
L78.3184 122.1192
" />
<path d="M79.6518 124.1192
L79.4613 124.0239
" />
<path d="M79.4613 124.0239
L79.3661 123.8334
" />
<path d="M79.3661 123.8334
L79.3661 122.1192
" />
<path d="M81.9375 124.1192
L81.9375 122.1192
" />
<path d="M81.9375 122.1192
L82.6042 123.5477
" />
<path d="M82.6042 123.5477
L83.2708 122.1192
" />
<path d="M83.2708 122.1192
L83.2708 124.1192
" />
<path d="M85.0803 124.1192
L85.0803 123.0715
" />
<path d="M85.0803 123.0715
L84.9851 122.8811
" />
<path d="M84.9851 122.8811
L84.7946 122.7858
" />
<path d="M84.7946 122.7858
L84.4137 122.7858
" />
<path d="M84.4137 122.7858
L84.2232 122.8811
" />
<path d="M85.0803 124.0239
L84.8899 124.1192
" />
<path d="M84.8899 124.1192
L84.4137 124.1192
" />
<path d="M84.4137 124.1192
L84.2232 124.0239
" />
<path d="M84.2232 124.0239
L84.1280 123.8334
" />
<path d="M84.1280 123.8334
L84.1280 123.6430
" />
<path d="M84.1280 123.6430
L84.2232 123.4525
" />
<path d="M84.2232 123.4525
L84.4137 123.3573
" />
<path d="M84.4137 123.3573
L84.8899 123.3573
" />
<path d="M84.8899 123.3573
L85.0803 123.2620
" />
<path d="M86.0327 122.7858
L86.0327 124.7858
" />
<path d="M86.0327 122.8811
L86.2232 122.7858
" />
<path d="M86.2232 122.7858
L86.6042 122.7858
" />
<path d="M86.6042 122.7858
L86.7946 122.8811
" />
<path d="M86.7946 122.8811
L86.8899 122.9763
" />
<path d="M86.8899 122.9763
L86.9851 123.1668
" />
<path d="M86.9851 123.1668
L86.9851 123.7382
" />
<path d="M86.9851 123.7382
L86.8899 123.9287
" />
<path d="M86.8899 123.9287
L86.7946 124.0239
" />
<path d="M86.7946 124.0239
L86.6042 124.1192
" />
<path d="M86.6042 124.1192
L86.2232 124.1192
" />
<path d="M86.2232 124.1192
L86.0327 124.0239
" />
<path d="M87.8422 123.9287
L87.9375 124.0239
" />
<path d="M87.9375 124.0239
L87.8422 124.1192
" />
<path d="M87.8422 124.1192
L87.7470 124.0239
" />
<path d="M87.7470 124.0239
L87.8422 123.9287
" />
<path d="M87.8422 123.9287
L87.8422 124.1192
" />
<path d="M87.8422 122.8811
L87.9375 122.9763
" />
<path d="M87.9375 122.9763
L87.8422 123.0715
" />
<path d="M87.8422 123.0715
L87.7470 122.9763
" />
<path d="M87.7470 122.9763
L87.8422 122.8811
" />
<path d="M87.8422 122.8811
L87.8422 123.0715
" />
</g></g> 
</svg>
