  0
SECTION
  2
HEADER
  9
$ANGBASE
  50
0.0
  9
$ANGDIR
  70
1
  9
$MEASUREMENT
  70
1
  0
ENDSEC
  0
SECTION
  2
TABLES
  0
TABLE
  2
LTYPE
  70
4
  0
LTYPE
  5
40F
  2
CONTINUOUS
  70
0
  3
Solid line
  72
65
  73
0
  40
0.0
  0
LTYPE
  5
410
  2
DASHDOT
 70
0
  3
Dash Dot ____ _ ____ _
 72
65
 73
4
 40
2.0
 49
1.25
 49
-0.25
 49
0.25
 49
-0.25
  0
LTYPE
  5
411
  2
DASHED
 70
0
  3
Dashed __ __ __ __ __
 72
65
 73
2
 40
0.75
 49
0.5
 49
-0.25
  0
LTYPE
  5
43B
  2
DOTTED
 70
0
  3
Dotted .  .  .  .
 72
65
 73
2
 40
0.2
 49
0.0
 49
-0.2
  0
ENDTAB
  0
TABLE
  2
STYLE
  70
4
  0
STYLE
  2
KICAD
  70
0
  40
0
  41
1
  42
1
  50
0
  71
0
  3
isocp.shx
  0
STYLE
  2
KICADB
  70
0
  40
0
  41
1
  42
1
  50
0
  71
0
  3
isocp.shx
  0
STYLE
  2
KICADI
  70
0
  40
0
  41
1
  42
1
  50
15
  71
0
  3
isocp.shx
  0
STYLE
  2
KICADBI
  70
0
  40
0
  41
1
  42
1
  50
15
  71
0
  3
isocp.shx
  0
ENDTAB
  0
TABLE
  2
LAYER
  70
1
  0
LAYER
  2
BLACK
  70
0
  62
7
  6
CONTINUOUS
  0
ENDTAB
  0
ENDSEC
  0
SECTION
  2
ENTITIES
0
LINE
8
BLACK
6
CONTINUOUS
10
65.
20
-32.
11
213.
21
-32.
0
LINE
8
BLACK
6
CONTINUOUS
10
213.
20
-32.
11
213.
21
-143.5
0
LINE
8
BLACK
6
CONTINUOUS
10
213.
20
-143.5
11
65.
21
-143.5
0
LINE
8
BLACK
6
CONTINUOUS
10
65.
20
-143.5
11
65.
21
-32.
0
LINE
8
BLACK
6
CONTINUOUS
10
67.5827680000000015
20
-146.6398379999999975
11
67.5827680000000015
21
-144.6398379999999975
0
LINE
8
BLACK
6
CONTINUOUS
10
67.5827680000000015
20
-144.6398379999999975
11
68.0589579999999899
21
-144.6398379999999975
0
LINE
8
BLACK
6
CONTINUOUS
10
68.0589579999999899
20
-144.6398379999999975
11
68.3446730000000002
21
-144.7350759999999923
0
LINE
8
BLACK
6
CONTINUOUS
10
68.3446730000000002
20
-144.7350759999999923
11
68.5351489999999899
21
-144.9255519999999819
0
LINE
8
BLACK
6
CONTINUOUS
10
68.5351489999999899
20
-144.9255519999999819
11
68.6303869999999989
21
-145.116028
0
LINE
8
BLACK
6
CONTINUOUS
10
68.6303869999999989
20
-145.116028
11
68.7256249999999937
21
-145.4969799999999793
0
LINE
8
BLACK
6
CONTINUOUS
10
68.7256249999999937
20
-145.4969799999999793
11
68.7256249999999937
21
-145.7826949999999897
0
LINE
8
BLACK
6
CONTINUOUS
10
68.7256249999999937
20
-145.7826949999999897
11
68.6303869999999989
21
-146.1636469999999974
0
LINE
8
BLACK
6
CONTINUOUS
10
68.6303869999999989
20
-146.1636469999999974
11
68.5351489999999899
21
-146.3541229999999871
0
LINE
8
BLACK
6
CONTINUOUS
10
68.5351489999999899
20
-146.3541229999999871
11
68.3446730000000002
21
-146.5446000000000026
0
LINE
8
BLACK
6
CONTINUOUS
10
68.3446730000000002
20
-146.5446000000000026
11
68.0589579999999899
21
-146.6398379999999975
0
LINE
8
BLACK
6
CONTINUOUS
10
68.0589579999999899
20
-146.6398379999999975
11
67.5827680000000015
21
-146.6398379999999975
0
LINE
8
BLACK
6
CONTINUOUS
10
69.5827680000000015
20
-146.6398379999999975
11
69.5827680000000015
21
-145.3065039999999897
0
LINE
8
BLACK
6
CONTINUOUS
10
69.5827680000000015
20
-145.6874569999999949
11
69.6780059999999963
21
-145.4969799999999793
0
LINE
8
BLACK
6
CONTINUOUS
10
69.6780059999999963
20
-145.4969799999999793
11
69.7732439999999912
21
-145.4017419999999845
0
LINE
8
BLACK
6
CONTINUOUS
10
69.7732439999999912
20
-145.4017419999999845
11
69.963719999999995
21
-145.3065039999999897
0
LINE
8
BLACK
6
CONTINUOUS
10
69.963719999999995
20
-145.3065039999999897
11
70.1541969999999964
21
-145.3065039999999897
0
LINE
8
BLACK
6
CONTINUOUS
10
70.8208630000000028
20
-146.6398379999999975
11
70.8208630000000028
21
-145.3065039999999897
0
LINE
8
BLACK
6
CONTINUOUS
10
70.8208630000000028
20
-144.6398379999999975
11
70.7256249999999937
21
-144.7350759999999923
0
LINE
8
BLACK
6
CONTINUOUS
10
70.7256249999999937
20
-144.7350759999999923
11
70.8208630000000028
21
-144.8303139999999871
0
LINE
8
BLACK
6
CONTINUOUS
10
70.8208630000000028
20
-144.8303139999999871
11
70.9161009999999976
21
-144.7350759999999923
0
LINE
8
BLACK
6
CONTINUOUS
10
70.9161009999999976
20
-144.7350759999999923
11
70.8208630000000028
21
-144.6398379999999975
0
LINE
8
BLACK
6
CONTINUOUS
10
70.8208630000000028
20
-144.6398379999999975
11
70.8208630000000028
21
-144.8303139999999871
0
LINE
8
BLACK
6
CONTINUOUS
10
72.0589579999999899
20
-146.6398379999999975
11
71.8684820000000002
21
-146.5446000000000026
0
LINE
8
BLACK
6
CONTINUOUS
10
71.8684820000000002
20
-146.5446000000000026
11
71.7732439999999912
21
-146.3541229999999871
0
LINE
8
BLACK
6
CONTINUOUS
10
71.7732439999999912
20
-146.3541229999999871
11
71.7732439999999912
21
-144.6398379999999975
0
LINE
8
BLACK
6
CONTINUOUS
10
73.1065770000000015
20
-146.6398379999999975
11
72.9161009999999976
21
-146.5446000000000026
0
LINE
8
BLACK
6
CONTINUOUS
10
72.9161009999999976
20
-146.5446000000000026
11
72.8208630000000028
21
-146.3541229999999871
0
LINE
8
BLACK
6
CONTINUOUS
10
72.8208630000000028
20
-146.3541229999999871
11
72.8208630000000028
21
-144.6398379999999975
0
LINE
8
BLACK
6
CONTINUOUS
10
75.3922919999999976
20
-146.6398379999999975
11
75.3922919999999976
21
-144.6398379999999975
0
LINE
8
BLACK
6
CONTINUOUS
10
75.3922919999999976
20
-144.6398379999999975
11
76.0589590000000015
21
-146.0684090000000026
0
LINE
8
BLACK
6
CONTINUOUS
10
76.0589590000000015
20
-146.0684090000000026
11
76.7256249999999937
21
-144.6398379999999975
0
LINE
8
BLACK
6
CONTINUOUS
10
76.7256249999999937
20
-144.6398379999999975
11
76.7256249999999937
21
-146.6398379999999975
0
LINE
8
BLACK
6
CONTINUOUS
10
78.5351489999999899
20
-146.6398379999999975
11
78.5351489999999899
21
-145.5922190000000001
0
LINE
8
BLACK
6
CONTINUOUS
10
78.5351489999999899
20
-145.5922190000000001
11
78.4399109999999951
21
-145.4017419999999845
0
LINE
8
BLACK
6
CONTINUOUS
10
78.4399109999999951
20
-145.4017419999999845
11
78.2494349999999912
21
-145.3065039999999897
0
LINE
8
BLACK
6
CONTINUOUS
10
78.2494349999999912
20
-145.3065039999999897
11
77.8684820000000002
21
-145.3065039999999897
0
LINE
8
BLACK
6
CONTINUOUS
10
77.8684820000000002
20
-145.3065039999999897
11
77.6780059999999963
21
-145.4017419999999845
0
LINE
8
BLACK
6
CONTINUOUS
10
78.5351489999999899
20
-146.5446000000000026
11
78.3446730000000002
21
-146.6398379999999975
0
LINE
8
BLACK
6
CONTINUOUS
10
78.3446730000000002
20
-146.6398379999999975
11
77.8684820000000002
21
-146.6398379999999975
0
LINE
8
BLACK
6
CONTINUOUS
10
77.8684820000000002
20
-146.6398379999999975
11
77.6780059999999963
21
-146.5446000000000026
0
LINE
8
BLACK
6
CONTINUOUS
10
77.6780059999999963
20
-146.5446000000000026
11
77.5827680000000015
21
-146.3541229999999871
0
LINE
8
BLACK
6
CONTINUOUS
10
77.5827680000000015
20
-146.3541229999999871
11
77.5827680000000015
21
-146.1636469999999974
0
LINE
8
BLACK
6
CONTINUOUS
10
77.5827680000000015
20
-146.1636469999999974
11
77.6780059999999963
21
-145.9731709999999794
0
LINE
8
BLACK
6
CONTINUOUS
10
77.6780059999999963
20
-145.9731709999999794
11
77.8684820000000002
21
-145.8779329999999845
0
LINE
8
BLACK
6
CONTINUOUS
10
77.8684820000000002
20
-145.8779329999999845
11
78.3446730000000002
21
-145.8779329999999845
0
LINE
8
BLACK
6
CONTINUOUS
10
78.3446730000000002
20
-145.8779329999999845
11
78.5351489999999899
21
-145.7826949999999897
0
LINE
8
BLACK
6
CONTINUOUS
10
79.4875299999999925
20
-145.3065039999999897
11
79.4875299999999925
21
-147.3065039999999897
0
LINE
8
BLACK
6
CONTINUOUS
10
79.4875299999999925
20
-145.4017419999999845
11
79.6780059999999963
21
-145.3065039999999897
0
LINE
8
BLACK
6
CONTINUOUS
10
79.6780059999999963
20
-145.3065039999999897
11
80.0589590000000015
21
-145.3065039999999897
0
LINE
8
BLACK
6
CONTINUOUS
10
80.0589590000000015
20
-145.3065039999999897
11
80.2494349999999912
21
-145.4017419999999845
0
LINE
8
BLACK
6
CONTINUOUS
10
80.2494349999999912
20
-145.4017419999999845
11
80.3446730000000002
21
-145.4969799999999793
0
LINE
8
BLACK
6
CONTINUOUS
10
80.3446730000000002
20
-145.4969799999999793
11
80.4399109999999951
21
-145.6874569999999949
0
LINE
8
BLACK
6
CONTINUOUS
10
80.4399109999999951
20
-145.6874569999999949
11
80.4399109999999951
21
-146.2588849999999923
0
LINE
8
BLACK
6
CONTINUOUS
10
80.4399109999999951
20
-146.2588849999999923
11
80.3446730000000002
21
-146.4493609999999819
0
LINE
8
BLACK
6
CONTINUOUS
10
80.3446730000000002
20
-146.4493609999999819
11
80.2494349999999912
21
-146.5446000000000026
0
LINE
8
BLACK
6
CONTINUOUS
10
80.2494349999999912
20
-146.5446000000000026
11
80.0589590000000015
21
-146.6398379999999975
0
LINE
8
BLACK
6
CONTINUOUS
10
80.0589590000000015
20
-146.6398379999999975
11
79.6780059999999963
21
-146.6398379999999975
0
LINE
8
BLACK
6
CONTINUOUS
10
79.6780059999999963
20
-146.6398379999999975
11
79.4875299999999925
21
-146.5446000000000026
0
LINE
8
BLACK
6
CONTINUOUS
10
81.2970540000000028
20
-146.4493609999999819
11
81.3922919999999976
21
-146.5446000000000026
0
LINE
8
BLACK
6
CONTINUOUS
10
81.3922919999999976
20
-146.5446000000000026
11
81.2970540000000028
21
-146.6398379999999975
0
LINE
8
BLACK
6
CONTINUOUS
10
81.2970540000000028
20
-146.6398379999999975
11
81.2018159999999938
21
-146.5446000000000026
0
LINE
8
BLACK
6
CONTINUOUS
10
81.2018159999999938
20
-146.5446000000000026
11
81.2970540000000028
21
-146.4493609999999819
0
LINE
8
BLACK
6
CONTINUOUS
10
81.2970540000000028
20
-146.4493609999999819
11
81.2970540000000028
21
-146.6398379999999975
0
LINE
8
BLACK
6
CONTINUOUS
10
81.2970540000000028
20
-145.4017419999999845
11
81.3922919999999976
21
-145.4969799999999793
0
LINE
8
BLACK
6
CONTINUOUS
10
81.3922919999999976
20
-145.4969799999999793
11
81.2970540000000028
21
-145.5922190000000001
0
LINE
8
BLACK
6
CONTINUOUS
10
81.2970540000000028
20
-145.5922190000000001
11
81.2018159999999938
21
-145.4969799999999793
0
LINE
8
BLACK
6
CONTINUOUS
10
81.2018159999999938
20
-145.4969799999999793
11
81.2970540000000028
21
-145.4017419999999845
0
LINE
8
BLACK
6
CONTINUOUS
10
81.2970540000000028
20
-145.4017419999999845
11
81.2970540000000028
21
-145.5922190000000001
  0
ENDSEC
  0
EOF
