  0
SECTION
  2
HEADER
  9
$ANGBASE
  50
0.0
  9
$ANGDIR
  70
1
  9
$MEASUREMENT
  70
0
  0
ENDSEC
  0
SECTION
  2
TABLES
  0
TABLE
  2
LTYPE
  70
4
  0
LTYPE
  5
40F
  2
CONTINUOUS
  70
0
  3
Solid line
  72
65
  73
0
  40
0.0
  0
LTYPE
  5
410
  2
DASHDOT
 70
0
  3
Dash Dot ____ _ ____ _
 72
65
 73
4
 40
2.0
 49
1.25
 49
-0.25
 49
0.25
 49
-0.25
  0
LTYPE
  5
411
  2
DASHED
 70
0
  3
Dashed __ __ __ __ __
 72
65
 73
2
 40
0.75
 49
0.5
 49
-0.25
  0
LTYPE
  5
43B
  2
DOTTED
 70
0
  3
Dotted .  .  .  .
 72
65
 73
2
 40
0.2
 49
0.0
 49
-0.2
  0
ENDTAB
  0
TABLE
  2
STYLE
  70
4
  0
STYLE
  2
KICAD
  70
0
  40
0
  41
1
  42
1
  50
0
  71
0
  3
isocp.shx
  0
STYLE
  2
KICADB
  70
0
  40
0
  41
1
  42
1
  50
0
  71
0
  3
isocp.shx
  0
STYLE
  2
KICADI
  70
0
  40
0
  41
1
  42
1
  50
15
  71
0
  3
isocp.shx
  0
STYLE
  2
KICADBI
  70
0
  40
0
  41
1
  42
1
  50
15
  71
0
  3
isocp.shx
  0
ENDTAB
  0
TABLE
  2
LAYER
  70
1
  0
LAYER
  2
BLACK
  70
0
  62
7
  6
CONTINUOUS
  0
ENDTAB
  0
ENDSEC
  0
SECTION
  2
ENTITIES
0
LINE
8
BLACK
6
CONTINUOUS
10
8.1155094094488192
20
-5.5187654330708664
11
8.1186246850393697
21
-5.5205640157480316
0
LINE
8
BLACK
6
CONTINUOUS
10
8.1186246850393697
20
-5.5205640157480316
11
8.121168267716536
21
-5.5231075984251969
0
LINE
8
BLACK
6
CONTINUOUS
10
8.121168267716536
20
-5.5231075984251969
11
8.1229668503937003
21
-5.5262228740157475
0
LINE
8
BLACK
6
CONTINUOUS
10
8.1229668503937003
20
-5.5262228740157475
11
8.1238978740157481
21
-5.5296974803149608
0
LINE
8
BLACK
6
CONTINUOUS
10
8.1238978740157481
20
-5.5296974803149608
11
8.1238978740157481
21
-5.5332946456692911
0
LINE
8
BLACK
6
CONTINUOUS
10
8.1238978740157481
20
-5.5332946456692911
11
8.1229668503937003
21
-5.5367692519685034
0
LINE
8
BLACK
6
CONTINUOUS
10
8.1229668503937003
20
-5.5367692519685034
11
8.121168267716536
21
-5.5398845275590549
0
LINE
8
BLACK
6
CONTINUOUS
10
8.121168267716536
20
-5.5398845275590549
11
8.1186246850393697
21
-5.5424281102362203
0
LINE
8
BLACK
6
CONTINUOUS
10
8.1186246850393697
20
-5.5424281102362203
11
8.1155094094488192
21
-5.5442266929133854
0
LINE
8
BLACK
6
CONTINUOUS
10
8.1155094094488192
20
-5.5442266929133854
11
8.1120348031496068
21
-5.5451577165354333
0
LINE
8
BLACK
6
CONTINUOUS
10
8.1120348031496068
20
-5.5451577165354333
11
8.1084376377952747
21
-5.5451577165354333
0
LINE
8
BLACK
6
CONTINUOUS
10
8.1084376377952747
20
-5.5451577165354333
11
8.1049630314960623
21
-5.5442266929133854
0
LINE
8
BLACK
6
CONTINUOUS
10
8.1049630314960623
20
-5.5442266929133854
11
8.1018477559055118
21
-5.5424281102362203
0
LINE
8
BLACK
6
CONTINUOUS
10
8.1018477559055118
20
-5.5424281102362203
11
8.0993041732283455
21
-5.5398845275590549
0
LINE
8
BLACK
6
CONTINUOUS
10
8.0993041732283455
20
-5.5398845275590549
11
8.0975055905511812
21
-5.5367692519685034
0
LINE
8
BLACK
6
CONTINUOUS
10
8.0975055905511812
20
-5.5367692519685034
11
8.0965745669291334
21
-5.5332946456692911
0
LINE
8
BLACK
6
CONTINUOUS
10
8.0965745669291334
20
-5.5332946456692911
11
8.0965745669291334
21
-5.5296974803149608
0
LINE
8
BLACK
6
CONTINUOUS
10
8.0965745669291334
20
-5.5296974803149608
11
8.0975055905511812
21
-5.5262228740157475
0
LINE
8
BLACK
6
CONTINUOUS
10
8.0975055905511812
20
-5.5262228740157475
11
8.0993041732283455
21
-5.5231075984251969
0
LINE
8
BLACK
6
CONTINUOUS
10
8.0993041732283455
20
-5.5231075984251969
11
8.1018477559055118
21
-5.5205640157480316
0
LINE
8
BLACK
6
CONTINUOUS
10
8.1018477559055118
20
-5.5205640157480316
11
8.1049630314960623
21
-5.5187654330708664
0
LINE
8
BLACK
6
CONTINUOUS
10
8.1049630314960623
20
-5.5187654330708664
11
8.1084376377952747
21
-5.5178344094488185
0
LINE
8
BLACK
6
CONTINUOUS
10
8.1084376377952747
20
-5.5178344094488185
11
8.1120348031496068
21
-5.5178344094488185
0
LINE
8
BLACK
6
CONTINUOUS
10
8.1120348031496068
20
-5.5178344094488185
11
8.1155094094488192
21
-5.5187654330708664
0
LINE
8
BLACK
6
CONTINUOUS
10
2.7611787007874016
20
-1.3849071653543308
11
2.7642939763779526
21
-1.3867057480314959
0
LINE
8
BLACK
6
CONTINUOUS
10
2.7642939763779526
20
-1.3867057480314959
11
2.766837559055118
21
-1.3892493307086613
0
LINE
8
BLACK
6
CONTINUOUS
10
2.766837559055118
20
-1.3892493307086613
11
2.7686361417322836
21
-1.3923646062992125
0
LINE
8
BLACK
6
CONTINUOUS
10
2.7686361417322836
20
-1.3923646062992125
11
2.7695671653543306
21
-1.3958392125984251
0
LINE
8
BLACK
6
CONTINUOUS
10
2.7695671653543306
20
-1.3958392125984251
11
2.7695671653543306
21
-1.3994363779527559
0
LINE
8
BLACK
6
CONTINUOUS
10
2.7695671653543306
20
-1.3994363779527559
11
2.7686361417322836
21
-1.4029109842519685
0
LINE
8
BLACK
6
CONTINUOUS
10
2.7686361417322836
20
-1.4029109842519685
11
2.766837559055118
21
-1.4060262598425197
0
LINE
8
BLACK
6
CONTINUOUS
10
2.766837559055118
20
-1.4060262598425197
11
2.7642939763779526
21
-1.4085698425196851
0
LINE
8
BLACK
6
CONTINUOUS
10
2.7642939763779526
20
-1.4085698425196851
11
2.7611787007874016
21
-1.4103684251968505
0
LINE
8
BLACK
6
CONTINUOUS
10
2.7611787007874016
20
-1.4103684251968505
11
2.7577040944881888
21
-1.4112994488188977
0
LINE
8
BLACK
6
CONTINUOUS
10
2.7577040944881888
20
-1.4112994488188977
11
2.754106929133858
21
-1.4112994488188977
0
LINE
8
BLACK
6
CONTINUOUS
10
2.754106929133858
20
-1.4112994488188977
11
2.7506323228346456
21
-1.4103684251968505
0
LINE
8
BLACK
6
CONTINUOUS
10
2.7506323228346456
20
-1.4103684251968505
11
2.7475170472440946
21
-1.4085698425196851
0
LINE
8
BLACK
6
CONTINUOUS
10
2.7475170472440946
20
-1.4085698425196851
11
2.7449734645669293
21
-1.4060262598425197
0
LINE
8
BLACK
6
CONTINUOUS
10
2.7449734645669293
20
-1.4060262598425197
11
2.7431748818897637
21
-1.4029109842519685
0
LINE
8
BLACK
6
CONTINUOUS
10
2.7431748818897637
20
-1.4029109842519685
11
2.7422438582677167
21
-1.3994363779527559
0
LINE
8
BLACK
6
CONTINUOUS
10
2.7422438582677167
20
-1.3994363779527559
11
2.7422438582677167
21
-1.3958392125984251
0
LINE
8
BLACK
6
CONTINUOUS
10
2.7422438582677167
20
-1.3958392125984251
11
2.7431748818897637
21
-1.3923646062992125
0
LINE
8
BLACK
6
CONTINUOUS
10
2.7431748818897637
20
-1.3923646062992125
11
2.7449734645669293
21
-1.3892493307086613
0
LINE
8
BLACK
6
CONTINUOUS
10
2.7449734645669293
20
-1.3892493307086613
11
2.7475170472440946
21
-1.3867057480314959
0
LINE
8
BLACK
6
CONTINUOUS
10
2.7475170472440946
20
-1.3867057480314959
11
2.7506323228346456
21
-1.3849071653543308
0
LINE
8
BLACK
6
CONTINUOUS
10
2.7506323228346456
20
-1.3849071653543308
11
2.754106929133858
21
-1.3839761417322833
0
LINE
8
BLACK
6
CONTINUOUS
10
2.754106929133858
20
-1.3839761417322833
11
2.7577040944881888
21
-1.3839761417322833
0
LINE
8
BLACK
6
CONTINUOUS
10
2.7577040944881888
20
-1.3839761417322833
11
2.7611787007874016
21
-1.3849071653543308
0
LINE
8
BLACK
6
CONTINUOUS
10
8.3862034251968502
20
-1.258933188976378
11
8.3867361023622049
21
-1.2594658661417322
0
LINE
8
BLACK
6
CONTINUOUS
10
8.3867361023622049
20
-1.2594658661417322
11
8.3868110236220463
21
-1.2598425196850394
0
LINE
8
BLACK
6
CONTINUOUS
10
8.3868110236220463
20
-1.2598425196850394
11
8.3868110236220463
21
-5.6496062992125982
0
LINE
8
BLACK
6
CONTINUOUS
10
8.3868110236220463
20
-5.6496062992125982
11
8.3867361023622049
21
-5.6499829527559058
0
LINE
8
BLACK
6
CONTINUOUS
10
8.3867361023622049
20
-5.6499829527559058
11
8.3862034251968502
21
-5.6505156299212596
0
LINE
8
BLACK
6
CONTINUOUS
10
8.3862034251968502
20
-5.6505156299212596
11
8.3858267716535426
21
-5.6505905511811019
0
LINE
8
BLACK
6
CONTINUOUS
10
8.3858267716535426
20
-5.6505905511811019
11
2.5590551181102361
21
-5.6505905511811019
0
LINE
8
BLACK
6
CONTINUOUS
10
2.5590551181102361
20
-5.6505905511811019
11
2.5586784645669289
21
-5.6505156299212596
0
LINE
8
BLACK
6
CONTINUOUS
10
2.5586784645669289
20
-5.6505156299212596
11
2.5581457874015747
21
-5.6499829527559058
0
LINE
8
BLACK
6
CONTINUOUS
10
2.5581457874015747
20
-5.6499829527559058
11
2.5580708661417324
21
-5.6496062992125982
0
LINE
8
BLACK
6
CONTINUOUS
10
2.5580708661417324
20
-5.6496062992125982
11
2.5580708661417324
21
-1.2598425196850394
0
LINE
8
BLACK
6
CONTINUOUS
10
2.5580708661417324
20
-1.2598425196850394
11
2.5581457874015747
21
-1.2594658661417322
0
LINE
8
BLACK
6
CONTINUOUS
10
2.5581457874015747
20
-1.2594658661417322
11
2.5586784645669289
21
-1.258933188976378
0
LINE
8
BLACK
6
CONTINUOUS
10
2.5586784645669289
20
-1.258933188976378
11
2.5590551181102361
21
-1.2588582677165354
0
LINE
8
BLACK
6
CONTINUOUS
10
2.5590551181102361
20
-1.2588582677165354
11
8.3858267716535426
21
-1.2588582677165354
0
LINE
8
BLACK
6
CONTINUOUS
10
8.3858267716535426
20
-1.2588582677165354
11
8.3862034251968502
21
-1.258933188976378
0
LINE
8
BLACK
6
CONTINUOUS
10
2.5600393700787403
20
-1.2608267716535433
11
2.5600393700787403
21
-5.6486220472440944
0
LINE
8
BLACK
6
CONTINUOUS
10
2.5600393700787403
20
-5.6486220472440944
11
8.3848425196850389
21
-5.6486220472440944
0
LINE
8
BLACK
6
CONTINUOUS
10
8.3848425196850389
20
-5.6486220472440944
11
8.3848425196850389
21
-1.2608267716535433
0
LINE
8
BLACK
6
CONTINUOUS
10
8.3848425196850389
20
-1.2608267716535433
11
2.5600393700787403
21
-1.2608267716535433
  0
ENDSEC
  0
EOF
