M48
; DRILL file {KiCad 9.0.0} date 2025-06-25T14:40:03+0200
; FORMAT={-:-/ absolute / metric / decimal}
; #@! TF.CreationDate,2025-06-25T14:40:03+02:00
; #@! TF.GenerationSoftware,Kicad,Pcbnew,9.0.0
; #@! TF.FileFunction,MixedPlating,1,2
FMAT,2
METRIC
; #@! TA.AperFunction,Plated,PTH,ComponentDrill
T1C0.200
; #@! TA.AperFunction,Plated,PTH,ViaDrill
T2C0.300
; #@! TA.AperFunction,Plated,PTH,ComponentDrill
T3C0.800
; #@! TA.AperFunction,Plated,PTH,ComponentDrill
T4C0.850
; #@! TA.AperFunction,Plated,PTH,ComponentDrill
T5C1.000
; #@! TA.AperFunction,Plated,PTH,ComponentDrill
T6C1.100
; #@! TA.AperFunction,Plated,PTH,ComponentDrill
T7C1.380
; #@! TA.AperFunction,Plated,PTH,ComponentDrill
T8C1.400
; #@! TA.AperFunction,Plated,PTH,ComponentDrill
T9C1.850
; #@! TA.AperFunction,Plated,PTH,ComponentDrill
T10C3.500
%
G90
G05
T1
X92.3Y-85.0
X92.3Y-86.0
X92.3Y-87.0
X93.3Y-85.0
X93.3Y-86.0
X93.3Y-87.0
X94.3Y-85.0
X94.3Y-86.0
X94.3Y-87.0
T2
X71.874Y-94.0
X72.0Y-52.0
X73.074Y-94.0
X76.501Y-51.001
X79.0Y-135.0
X81.0Y-34.0
X81.0Y-135.0
X82.5Y-66.5
X83.5Y-41.5
X83.6Y-62.5
X83.9Y-114.6
X84.5Y-106.5
X85.241Y-63.759
X86.0Y-122.0
X86.741Y-67.259
X87.0Y-62.0
X87.5Y-37.5
X87.5Y-87.6
X89.138Y-92.0
X89.463Y-53.537
X90.45Y-91.4
X90.5Y-39.0
X90.5Y-52.5
X91.05Y-92.6
X91.85Y-92.6
X92.4Y-93.4
X92.5Y-48.5
X92.95Y-80.0
X93.0Y-61.5
X93.0Y-95.5
X94.0Y-34.9
X94.0Y-39.0
X94.0Y-44.0
X94.0Y-112.0
X94.5Y-67.796
X94.5Y-105.0
X94.547Y-58.3
X94.776Y-33.276
X95.0Y-34.9
X95.5Y-61.5
X95.5Y-67.395
X95.5Y-101.5
X96.0Y-41.5
X96.177Y-91.398
X96.199Y-80.149
X96.5Y-94.5
X96.636Y-92.053
X97.05Y-92.738
X97.194Y-112.306
X98.5Y-53.0
X99.0Y-59.5
X99.0Y-68.595
X99.5Y-39.0
X99.5Y-47.451
X100.0Y-104.0
X100.5Y-98.0
X100.5Y-99.5
X101.1Y-45.5
X101.9Y-48.075
X102.5Y-60.5
X102.6Y-47.5
X103.5Y-41.5
X104.0Y-94.0
X104.5Y-78.4
X104.5Y-81.0
X104.5Y-90.799
X106.4Y-37.5
X108.0Y-106.5
X108.5Y-122.5
X109.0Y-42.5
X109.0Y-54.0
X109.0Y-119.9
X109.342Y-121.648
X109.4Y-82.983
X109.5Y-37.5
X109.925Y-121.1
X110.0Y-81.6
X110.4Y-86.0
X110.483Y-122.912
X110.5Y-55.5
X110.6Y-82.995
X111.59Y-119.91
X111.6Y-86.0
X112.392Y-122.409
X112.499Y-66.0
X112.499Y-66.9
X112.499Y-67.7
X112.499Y-68.5
X112.5Y-38.0
X112.5Y-127.0
X113.0Y-69.999
X113.5Y-58.5
X113.515Y-120.985
X114.08Y-121.551
X114.1Y-66.0
X114.1Y-66.851
X114.1Y-67.651
X114.1Y-68.5
X114.5Y-38.0
X114.646Y-122.117
X115.212Y-122.682
X115.443Y-92.799
X115.5Y-89.6
X115.5Y-90.4
X115.5Y-91.2
X115.5Y-92.0
X115.5Y-94.4
X115.517Y-93.596
X115.9Y-78.4
X116.0Y-50.5
X116.382Y-79.6
X116.5Y-39.0
X117.0Y-51.5
X117.0Y-98.0
X117.0Y-100.5
X117.8Y-98.0
X117.8Y-100.5
X118.6Y-98.0
X118.6Y-100.5
X119.0Y-35.0
X119.0Y-51.6
X119.2Y-97.0
X119.4Y-100.5
X119.5Y-49.0
X119.5Y-58.0
X119.5Y-98.0
X120.0Y-93.6
X120.2Y-100.5
X120.324Y-98.024
X120.4Y-94.4
X120.5Y-49.0
X120.5Y-126.501
X120.5Y-127.701
X121.0Y-100.5
X121.1Y-64.1
X122.2Y-78.1
X122.5Y-63.5
X123.0Y-38.5
X123.0Y-117.824
X123.1Y-120.3
X125.0Y-81.6
X125.0Y-120.0
X125.008Y-51.083
X125.6Y-50.545
X126.0Y-103.5
X126.7Y-100.0
X127.0Y-115.5
X127.5Y-38.5
X127.5Y-70.4
X127.5Y-100.0
X127.5Y-125.0
X127.5Y-126.5
X127.676Y-116.176
X128.201Y-124.0
X128.3Y-100.0
X129.0Y-126.0
X129.1Y-100.0
X129.359Y-53.141
X129.7Y-48.9
X130.0Y-125.0
X132.5Y-68.0
X132.826Y-79.826
X133.438Y-92.468
X133.55Y-66.8
X133.674Y-80.674
X134.5Y-116.5
X136.0Y-117.5
X136.674Y-80.674
X136.7Y-134.2
X138.1Y-140.0
X139.802Y-63.099
X139.951Y-41.049
X140.066Y-77.934
X140.402Y-62.499
X140.5Y-34.0
X140.5Y-44.6
X140.566Y-66.1
X141.5Y-35.0
X141.9Y-90.2
X142.0Y-118.9
X142.0Y-122.6
X144.0Y-81.5
X144.5Y-60.5
X144.988Y-34.0
X145.0Y-35.0
X145.0Y-82.0
X145.0Y-103.5
X145.0Y-106.489
X145.005Y-61.697
X145.538Y-61.1
X148.076Y-59.576
X148.5Y-106.489
X149.75Y-48.0
X150.0Y-82.0
X150.0Y-87.0
X150.5Y-96.1
X150.567Y-112.245
X151.0Y-82.0
X151.0Y-87.0
X151.985Y-112.985
X152.0Y-83.39
X152.0Y-87.0
X153.0Y-57.5
X153.516Y-100.016
X154.174Y-55.174
X155.25Y-107.25
X157.5Y-118.5
X157.905Y-106.5
X160.0Y-86.0
X160.1Y-57.8
X160.5Y-82.5
X160.5Y-83.3
X160.5Y-86.7
X160.5Y-87.5
X160.6Y-104.211
X160.924Y-53.424
X161.066Y-88.1
X161.3Y-80.953
X161.5Y-52.0
X161.9Y-53.5
X161.9Y-54.5
X161.9Y-81.5
X162.0Y-106.0
X163.5Y-46.5
X163.7Y-83.4
X163.8Y-84.3
X164.0Y-82.5
X164.0Y-102.0
X164.0Y-103.5
X164.0Y-105.0
X164.2Y-86.3
X164.4Y-87.5
X164.5Y-85.0
X164.6Y-93.9
X165.593Y-81.9
X166.193Y-86.265
X166.323Y-109.125
X166.523Y-107.925
X167.042Y-86.265
X167.25Y-58.0
X167.323Y-107.925
X167.323Y-111.025
X167.89Y-86.265
X168.0Y-113.5
X168.123Y-107.925
X168.2Y-60.0
X168.472Y-115.174
X168.693Y-86.265
X168.923Y-107.925
X169.438Y-86.557
X169.622Y-115.424
X169.722Y-107.89
X170.193Y-86.265
X170.5Y-115.5
X170.522Y-107.9
X170.993Y-86.265
X171.322Y-107.9
X171.5Y-115.5
X171.793Y-86.265
X172.693Y-86.265
X173.493Y-86.265
X174.293Y-86.265
X175.0Y-68.5
X178.9Y-76.4
X178.9Y-93.4
X179.0Y-68.5
X180.0Y-118.0
X182.0Y-124.5
X182.5Y-68.5
X182.5Y-118.0
X183.3Y-101.4
X185.0Y-83.4
X185.3Y-136.7
X185.5Y-130.4
X185.938Y-84.412
X185.974Y-83.474
X186.0Y-68.5
X186.4Y-85.065
X186.4Y-85.865
X187.0Y-92.0
X187.0Y-106.5
X187.5Y-39.5
X188.0Y-118.0
X188.5Y-95.0
X189.0Y-124.5
X189.5Y-80.8
X190.0Y-38.9
X190.5Y-118.0
X190.5Y-125.0
X192.5Y-106.0
X192.5Y-130.5
X192.9Y-67.4
X192.9Y-74.6
X194.4Y-77.1
X195.0Y-130.5
X196.1Y-74.7
X197.5Y-124.5
X197.75Y-117.8
X198.2Y-67.6
X198.765Y-89.1
X199.0Y-82.148
X199.0Y-92.5
X199.0Y-99.0
X199.0Y-125.0
X199.5Y-77.0
X199.798Y-81.548
X200.5Y-82.0
X201.066Y-82.566
X202.196Y-82.002
X203.0Y-100.0
X203.7Y-70.4
X204.657Y-122.784
X204.998Y-124.306
X205.0Y-125.906
X205.0Y-125.106
X205.003Y-123.506
X206.4Y-77.4
T3
X137.73Y-83.52
X140.182Y-95.76
X140.182Y-97.76
X140.27Y-83.52
X142.182Y-95.76
X142.182Y-97.76
X144.182Y-95.76
X144.182Y-97.76
X155.76Y-128.5
X155.76Y-141.2
X158.3Y-128.5
X158.3Y-141.2
X160.84Y-128.5
X160.84Y-141.2
X163.38Y-128.5
X163.38Y-141.2
X165.92Y-128.5
X165.92Y-141.2
X168.46Y-128.5
X168.46Y-141.2
X171.0Y-128.5
X171.0Y-141.2
X173.54Y-128.5
X173.54Y-141.2
T4
X91.5Y-137.5
X92.0Y-113.675
X94.5Y-137.5
X95.0Y-113.675
X188.765Y-100.475
X191.765Y-100.475
T5
X127.0Y-80.19
X127.0Y-82.73
X127.0Y-85.27
X127.0Y-87.81
T6
X131.38Y-82.79
X131.38Y-85.33
X131.38Y-87.87
X131.38Y-90.41
X131.38Y-92.95
X131.38Y-95.49
X131.38Y-98.03
X131.38Y-100.57
X131.38Y-103.11
X131.38Y-105.65
X131.38Y-108.19
X131.38Y-110.73
X131.38Y-113.27
X131.38Y-115.81
X131.38Y-118.35
X131.38Y-120.89
X131.38Y-123.43
X131.38Y-125.97
X131.38Y-128.51
X131.38Y-131.05
X131.38Y-133.59
X131.38Y-136.13
X131.38Y-138.67
X131.38Y-141.21
X133.92Y-128.51
X134.431Y-89.089
X134.431Y-91.629
X134.431Y-94.169
X134.431Y-96.709
X134.431Y-99.249
X136.46Y-128.51
X139.0Y-128.51
X141.54Y-128.51
X144.08Y-85.33
X144.08Y-128.51
X146.62Y-82.79
X146.62Y-85.33
X146.62Y-87.87
X146.62Y-90.41
X146.62Y-92.95
X146.62Y-95.49
X146.62Y-98.03
X146.62Y-100.57
X146.62Y-103.11
X146.62Y-105.65
X146.62Y-108.19
X146.62Y-110.73
X146.62Y-113.27
X146.62Y-115.81
X146.62Y-118.35
X146.62Y-120.89
X146.62Y-123.43
X146.62Y-125.97
X146.62Y-128.51
X146.62Y-131.05
X146.62Y-133.59
X146.62Y-136.13
X146.62Y-138.67
X146.62Y-141.21
T7
X190.0Y-56.0
X190.0Y-58.54
X190.0Y-61.08
X195.5Y-56.0
X195.5Y-58.54
X195.5Y-61.08
X201.0Y-56.0
X201.0Y-58.54
X201.0Y-61.08
X206.5Y-56.0
X206.5Y-58.54
X206.5Y-61.08
T8
X142.25Y-42.5
X142.25Y-50.5
X143.75Y-45.0
X143.75Y-48.0
X145.25Y-42.5
X145.25Y-50.5
X146.75Y-45.0
X146.75Y-48.0
X148.25Y-42.5
X148.25Y-50.5
X149.75Y-45.0
X149.75Y-48.0
X151.25Y-42.5
X151.25Y-50.5
X152.75Y-45.0
X152.75Y-48.0
X154.25Y-42.5
X154.25Y-50.5
X155.75Y-45.0
X155.75Y-48.0
X157.25Y-42.5
X157.25Y-50.5
X158.5Y-45.0
X158.5Y-48.0
X160.25Y-42.5
X160.25Y-50.5
X174.75Y-42.5
X174.75Y-50.5
X176.25Y-45.0
X176.25Y-48.0
X177.75Y-42.5
X177.75Y-50.5
X179.25Y-45.0
X179.25Y-48.0
X180.75Y-42.5
X180.75Y-50.5
X182.25Y-45.0
X182.25Y-48.0
X183.75Y-42.5
X183.75Y-50.5
X185.25Y-45.0
X185.25Y-48.0
X186.75Y-42.5
X186.75Y-50.5
X188.25Y-45.0
X188.25Y-48.0
X189.75Y-42.5
X189.75Y-50.5
X191.25Y-45.0
X191.25Y-48.0
X192.75Y-42.5
X192.75Y-50.5
X194.25Y-45.0
X194.25Y-48.0
X195.75Y-42.5
X195.75Y-50.5
X197.25Y-45.0
X197.25Y-48.0
X198.75Y-42.5
X198.75Y-50.5
T9
X151.1Y-73.5
X159.1Y-73.5
T10
X134.0Y-36.5
X167.5Y-36.5
X206.0Y-36.5
M30
