%TF.GenerationSoftware,KiCad,Pcbnew,10.0.3*%
%TF.CreationDate,2026-08-26T09:30:57+02:00*%
%TF.ProjectId,sensor-module,73656e73-6f72-42d6-9d6f-64756c652e6b,rev?*%
%TF.SameCoordinates,Original*%
%TF.FileFunction,Soldermask,Bot*%
%TF.FilePolarity,Negative*%
%FSLAX46Y46*%
G04 Gerber Fmt 4.6, Leading zero omitted, Abs format (unit mm)*
G04 Created by KiCad (PCBNEW 10.0.3) date 2026-08-26 09:30:57*
%MOMM*%
%LPD*%
G01*
G04 APERTURE LIST*
G04 Aperture macros list*
%AMRoundRect*
0 Rectangle with rounded corners*
0 $1 Rounding radius*
0 $2 $3 $4 $5 $6 $7 $8 $9 X,Y pos of 4 corners*
0 Add a 4 corners polygon primitive as box body*
4,1,4,$2,$3,$4,$5,$6,$7,$8,$9,$2,$3,0*
0 Add four circle primitives for the rounded corners*
1,1,$1+$1,$2,$3*
1,1,$1+$1,$4,$5*
1,1,$1+$1,$6,$7*
1,1,$1+$1,$8,$9*
0 Add four rect primitives between the rounded corners*
20,1,$1+$1,$2,$3,$4,$5,0*
20,1,$1+$1,$4,$5,$6,$7,0*
20,1,$1+$1,$6,$7,$8,$9,0*
20,1,$1+$1,$8,$9,$2,$3,0*%
G04 Aperture macros list end*
%ADD10R,1.700000X1.700000*%
%ADD11C,1.700000*%
%ADD12C,2.930000*%
%ADD13C,2.775000*%
%ADD14C,1.650000*%
%ADD15C,4.875000*%
%ADD16RoundRect,0.250000X-0.475000X0.250000X-0.475000X-0.250000X0.475000X-0.250000X0.475000X0.250000X0*%
%ADD17RoundRect,0.250000X0.250000X0.475000X-0.250000X0.475000X-0.250000X-0.475000X0.250000X-0.475000X0*%
%ADD18R,1.150000X1.150000*%
%ADD19RoundRect,0.250000X-0.450000X0.262500X-0.450000X-0.262500X0.450000X-0.262500X0.450000X0.262500X0*%
%ADD20RoundRect,0.250000X-0.250000X-0.475000X0.250000X-0.475000X0.250000X0.475000X-0.250000X0.475000X0*%
%TA.AperFunction,Profile*%
%ADD21C,0.200000*%
%TD*%
G04 APERTURE END LIST*
D10*
%TO.C,J4*%
X149000000Y-111200000D03*
D11*
X146460000Y-111200000D03*
X143920000Y-111200000D03*
X141380000Y-111200000D03*
X138840000Y-111200000D03*
X136300000Y-111200000D03*
%TD*%
D12*
%TO.C,J3*%
X91069200Y-65000000D03*
X62069200Y-65000000D03*
D13*
X84569200Y-69500000D03*
X80569200Y-69500000D03*
X76569200Y-69500000D03*
X72569200Y-69500000D03*
X68569200Y-69500000D03*
X82569200Y-65500000D03*
X78569200Y-65500000D03*
X74569200Y-65500000D03*
X70569200Y-65500000D03*
X84569200Y-61500000D03*
X80569200Y-61500000D03*
X76569200Y-61500000D03*
X72569200Y-61500000D03*
X68569200Y-61500000D03*
%TD*%
D14*
%TO.C,J2*%
X113319200Y-70650000D03*
X115819200Y-70650000D03*
X118319200Y-70650000D03*
X120819200Y-70650000D03*
X123319200Y-70650000D03*
X125819200Y-70650000D03*
X113319200Y-67650000D03*
X115819200Y-67650000D03*
X118319200Y-67650000D03*
X120819200Y-67650000D03*
X123319200Y-67650000D03*
X125819200Y-67650000D03*
D15*
X131319200Y-66150000D03*
X107819200Y-66150000D03*
%TD*%
D14*
%TO.C,J1*%
X146569200Y-70650000D03*
X149069200Y-70650000D03*
X151569200Y-70650000D03*
X154069200Y-70650000D03*
X156569200Y-70650000D03*
X159069200Y-70650000D03*
X146569200Y-67650000D03*
X149069200Y-67650000D03*
X151569200Y-67650000D03*
X154069200Y-67650000D03*
X156569200Y-67650000D03*
X159069200Y-67650000D03*
D15*
X164569200Y-66150000D03*
X141069200Y-66150000D03*
%TD*%
D16*
%TO.C,C40*%
X96091200Y-90612000D03*
X96091200Y-92512000D03*
%TD*%
D17*
%TO.C,C34*%
X99981200Y-95512000D03*
X98081200Y-95512000D03*
%TD*%
D18*
%TO.C,R12*%
X78275700Y-78663000D03*
X78275700Y-81013000D03*
%TD*%
%TO.C,R4*%
X71132800Y-78663000D03*
X71132800Y-81013000D03*
%TD*%
%TO.C,R13*%
X67561400Y-78663000D03*
X67561400Y-81013000D03*
%TD*%
%TO.C,R3*%
X74704200Y-78663000D03*
X74704200Y-81013000D03*
%TD*%
D17*
%TO.C,C37*%
X100081200Y-91012000D03*
X98181200Y-91012000D03*
%TD*%
D18*
%TO.C,R11*%
X81847100Y-78663000D03*
X81847100Y-81013000D03*
%TD*%
D16*
%TO.C,C41*%
X92081200Y-90612000D03*
X92081200Y-92512000D03*
%TD*%
D19*
%TO.C,R45*%
X96081200Y-96687000D03*
X96081200Y-98512000D03*
%TD*%
D18*
%TO.C,R1*%
X88990000Y-78663000D03*
X88990000Y-81013000D03*
%TD*%
D17*
%TO.C,C53*%
X111569200Y-104000000D03*
X109669200Y-104000000D03*
%TD*%
%TO.C,C2*%
X73940000Y-76013000D03*
X72040000Y-76013000D03*
%TD*%
D18*
%TO.C,R2*%
X85418500Y-78663000D03*
X85418500Y-81013000D03*
%TD*%
D16*
%TO.C,C39*%
X94081200Y-90612000D03*
X94081200Y-92512000D03*
%TD*%
D17*
%TO.C,C1*%
X88390000Y-76013000D03*
X86490000Y-76013000D03*
%TD*%
%TO.C,C11*%
X80990000Y-76013000D03*
X79090000Y-76013000D03*
%TD*%
%TO.C,C42*%
X93481200Y-98512000D03*
X91581200Y-98512000D03*
%TD*%
%TO.C,C12*%
X66490000Y-76013000D03*
X64590000Y-76013000D03*
%TD*%
%TO.C,C36*%
X99866300Y-98503100D03*
X97966300Y-98503100D03*
%TD*%
D20*
%TO.C,C38*%
X100681200Y-100512000D03*
X102581200Y-100512000D03*
%TD*%
D18*
%TO.C,R14*%
X63990000Y-78663000D03*
X63990000Y-81013000D03*
%TD*%
D21*
X50069243Y-56000000D02*
X170069243Y-56000000D01*
X170069243Y-120000000D01*
X50069243Y-120000000D01*
X50069243Y-56000000D01*
M02*
